<svg xmlns="http://www.w3.org/2000/svg" width="850" height="850"><path d="M207 0h23v23h-23zM253 0h23v23h-23zM299 0h23v23h-23zM322 0h23v23h-23zM345 0h23v23h-23zM368 0h23v23h-23zM391 0h23v23h-23zM414 0h23v23h-23zM437 0h23v23h-23zM506 0h23v23h-23zM529 0h23v23h-23zM621 0h23v23h-23zM184 23h23v23h-23zM368 23h23v23h-23zM414 23h23v23h-23zM437 23h23v23h-23zM575 23h23v23h-23zM598 23h23v23h-23zM644 23h23v23h-23zM184 46h23v23h-23zM230 46h23v23h-23zM253 46h23v23h-23zM276 46h23v23h-23zM299 46h23v23h-23zM368 46h23v23h-23zM437 46h23v23h-23zM460 46h23v23h-23zM483 46h23v23h-23zM506 46h23v23h-23zM529 46h23v23h-23zM552 46h23v23h-23zM644 46h23v23h-23zM184 69h23v23h-23zM207 69h23v23h-23zM230 69h23v23h-23zM253 69h23v23h-23zM276 69h23v23h-23zM299 69h23v23h-23zM322 69h23v23h-23zM345 69h23v23h-23zM437 69h23v23h-23zM483 69h23v23h-23zM552 69h23v23h-23zM575 69h23v23h-23zM644 69h23v23h-23zM253 92h23v23h-23zM322 92h23v23h-23zM345 92h23v23h-23zM437 92h23v23h-23zM460 92h23v23h-23zM483 92h23v23h-23zM506 92h23v23h-23zM529 92h23v23h-23zM575 92h23v23h-23zM207 115h23v23h-23zM230 115h23v23h-23zM253 115h23v23h-23zM299 115h23v23h-23zM322 115h23v23h-23zM345 115h23v23h-23zM368 115h23v23h-23zM414 115h23v23h-23zM460 115h23v23h-23zM483 115h23v23h-23zM506 115h23v23h-23zM644 115h23v23h-23zM184 138h23v23h-23zM230 138h23v23h-23zM276 138h23v23h-23zM322 138h23v23h-23zM368 138h23v23h-23zM414 138h23v23h-23zM460 138h23v23h-23zM506 138h23v23h-23zM552 138h23v23h-23zM598 138h23v23h-23zM644 138h23v23h-23zM184 161h23v23h-23zM207 161h23v23h-23zM230 161h23v23h-23zM253 161h23v23h-23zM345 161h23v23h-23zM368 161h23v23h-23zM529 161h23v23h-23zM0 184h23v23H0zM138 184h23v23h-23zM184 184h23v23h-23zM207 184h23v23h-23zM322 184h23v23h-23zM345 184h23v23h-23zM414 184h23v23h-23zM529 184h23v23h-23zM552 184h23v23h-23zM575 184h23v23h-23zM598 184h23v23h-23zM621 184h23v23h-23zM644 184h23v23h-23zM667 184h23v23h-23zM690 184h23v23h-23zM759 184h23v23h-23zM782 184h23v23h-23zM805 184h23v23h-23zM0 207h23v23H0zM92 207h23v23H92zM115 207h23v23h-23zM161 207h23v23h-23zM207 207h23v23h-23zM253 207h23v23h-23zM276 207h23v23h-23zM322 207h23v23h-23zM460 207h23v23h-23zM529 207h23v23h-23zM575 207h23v23h-23zM598 207h23v23h-23zM621 207h23v23h-23zM690 207h23v23h-23zM713 207h23v23h-23zM736 207h23v23h-23zM759 207h23v23h-23zM782 207h23v23h-23zM805 207h23v23h-23zM0 230h23v23H0zM46 230h23v23H46zM115 230h23v23h-23zM138 230h23v23h-23zM184 230h23v23h-23zM253 230h23v23h-23zM276 230h23v23h-23zM391 230h23v23h-23zM414 230h23v23h-23zM460 230h23v23h-23zM483 230h23v23h-23zM621 230h23v23h-23zM667 230h23v23h-23zM759 230h23v23h-23zM782 230h23v23h-23zM805 230h23v23h-23zM828 230h23v23h-23zM23 253h23v23H23zM115 253h23v23h-23zM184 253h23v23h-23zM230 253h23v23h-23zM253 253h23v23h-23zM276 253h23v23h-23zM299 253h23v23h-23zM345 253h23v23h-23zM368 253h23v23h-23zM437 253h23v23h-23zM460 253h23v23h-23zM529 253h23v23h-23zM598 253h23v23h-23zM621 253h23v23h-23zM690 253h23v23h-23zM713 253h23v23h-23zM759 253h23v23h-23zM828 253h23v23h-23zM46 276h23v23H46zM115 276h23v23h-23zM138 276h23v23h-23zM184 276h23v23h-23zM207 276h23v23h-23zM253 276h23v23h-23zM322 276h23v23h-23zM437 276h23v23h-23zM529 276h23v23h-23zM552 276h23v23h-23zM621 276h23v23h-23zM644 276h23v23h-23zM690 276h23v23h-23zM713 276h23v23h-23zM759 276h23v23h-23zM828 276h23v23h-23zM23 299h23v23H23zM69 299h23v23H69zM115 299h23v23h-23zM184 299h23v23h-23zM207 299h23v23h-23zM230 299h23v23h-23zM345 299h23v23h-23zM391 299h23v23h-23zM460 299h23v23h-23zM529 299h23v23h-23zM552 299h23v23h-23zM575 299h23v23h-23zM621 299h23v23h-23zM644 299h23v23h-23zM713 299h23v23h-23zM759 299h23v23h-23zM805 299h23v23h-23zM828 299h23v23h-23zM23 322h23v23H23zM69 322h23v23H69zM115 322h23v23h-23zM138 322h23v23h-23zM161 322h23v23h-23zM207 322h23v23h-23zM230 322h23v23h-23zM322 322h23v23h-23zM345 322h23v23h-23zM391 322h23v23h-23zM483 322h23v23h-23zM506 322h23v23h-23zM598 322h23v23h-23zM621 322h23v23h-23zM644 322h23v23h-23zM690 322h23v23h-23zM713 322h23v23h-23zM759 322h23v23h-23zM805 322h23v23h-23zM828 322h23v23h-23zM69 345h23v23H69zM115 345h23v23h-23zM207 345h23v23h-23zM299 345h23v23h-23zM368 345h23v23h-23zM391 345h23v23h-23zM414 345h23v23h-23zM437 345h23v23h-23zM460 345h23v23h-23zM506 345h23v23h-23zM552 345h23v23h-23zM621 345h23v23h-23zM644 345h23v23h-23zM667 345h23v23h-23zM690 345h23v23h-23zM713 345h23v23h-23zM736 345h23v23h-23zM759 345h23v23h-23zM782 345h23v23h-23zM0 368h23v23H0zM23 368h23v23H23zM69 368h23v23H69zM92 368h23v23H92zM115 368h23v23h-23zM138 368h23v23h-23zM184 368h23v23h-23zM207 368h23v23h-23zM276 368h23v23h-23zM299 368h23v23h-23zM322 368h23v23h-23zM368 368h23v23h-23zM437 368h23v23h-23zM483 368h23v23h-23zM506 368h23v23h-23zM575 368h23v23h-23zM598 368h23v23h-23zM621 368h23v23h-23zM667 368h23v23h-23zM690 368h23v23h-23zM736 368h23v23h-23zM782 368h23v23h-23zM828 368h23v23h-23zM0 391h23v23H0zM23 391h23v23H23zM46 391h23v23H46zM69 391h23v23H69zM161 391h23v23h-23zM207 391h23v23h-23zM230 391h23v23h-23zM253 391h23v23h-23zM299 391h23v23h-23zM322 391h23v23h-23zM414 391h23v23h-23zM437 391h23v23h-23zM460 391h23v23h-23zM529 391h23v23h-23zM552 391h23v23h-23zM575 391h23v23h-23zM598 391h23v23h-23zM644 391h23v23h-23zM690 391h23v23h-23zM713 391h23v23h-23zM782 391h23v23h-23zM805 391h23v23h-23zM23 414h23v23H23zM69 414h23v23H69zM115 414h23v23h-23zM138 414h23v23h-23zM207 414h23v23h-23zM230 414h23v23h-23zM253 414h23v23h-23zM322 414h23v23h-23zM345 414h23v23h-23zM391 414h23v23h-23zM414 414h23v23h-23zM437 414h23v23h-23zM460 414h23v23h-23zM529 414h23v23h-23zM621 414h23v23h-23zM667 414h23v23h-23zM736 414h23v23h-23zM759 414h23v23h-23zM828 414h23v23h-23zM69 437h23v23H69zM115 437h23v23h-23zM161 437h23v23h-23zM184 437h23v23h-23zM230 437h23v23h-23zM253 437h23v23h-23zM276 437h23v23h-23zM299 437h23v23h-23zM322 437h23v23h-23zM414 437h23v23h-23zM460 437h23v23h-23zM529 437h23v23h-23zM552 437h23v23h-23zM598 437h23v23h-23zM644 437h23v23h-23zM667 437h23v23h-23zM690 437h23v23h-23zM736 437h23v23h-23zM828 437h23v23h-23zM23 460h23v23H23zM69 460h23v23H69zM92 460h23v23H92zM115 460h23v23h-23zM138 460h23v23h-23zM253 460h23v23h-23zM299 460h23v23h-23zM345 460h23v23h-23zM368 460h23v23h-23zM460 460h23v23h-23zM506 460h23v23h-23zM575 460h23v23h-23zM621 460h23v23h-23zM667 460h23v23h-23zM690 460h23v23h-23zM736 460h23v23h-23zM782 460h23v23h-23zM0 483h23v23H0zM23 483h23v23H23zM46 483h23v23H46zM69 483h23v23H69zM92 483h23v23H92zM184 483h23v23h-23zM230 483h23v23h-23zM253 483h23v23h-23zM276 483h23v23h-23zM345 483h23v23h-23zM529 483h23v23h-23zM552 483h23v23h-23zM575 483h23v23h-23zM621 483h23v23h-23zM667 483h23v23h-23zM713 483h23v23h-23zM736 483h23v23h-23zM782 483h23v23h-23zM0 506h23v23H0zM46 506h23v23H46zM92 506h23v23H92zM138 506h23v23h-23zM161 506h23v23h-23zM230 506h23v23h-23zM299 506h23v23h-23zM345 506h23v23h-23zM414 506h23v23h-23zM460 506h23v23h-23zM506 506h23v23h-23zM552 506h23v23h-23zM621 506h23v23h-23zM644 506h23v23h-23zM690 506h23v23h-23zM713 506h23v23h-23zM736 506h23v23h-23zM759 506h23v23h-23zM805 506h23v23h-23zM828 506h23v23h-23zM0 529h23v23H0zM46 529h23v23H46zM69 529h23v23H69zM92 529h23v23H92zM115 529h23v23h-23zM184 529h23v23h-23zM230 529h23v23h-23zM276 529h23v23h-23zM299 529h23v23h-23zM322 529h23v23h-23zM345 529h23v23h-23zM460 529h23v23h-23zM506 529h23v23h-23zM552 529h23v23h-23zM598 529h23v23h-23zM667 529h23v23h-23zM690 529h23v23h-23zM713 529h23v23h-23zM736 529h23v23h-23zM805 529h23v23h-23zM828 529h23v23h-23zM0 552h23v23H0zM138 552h23v23h-23zM184 552h23v23h-23zM207 552h23v23h-23zM276 552h23v23h-23zM299 552h23v23h-23zM345 552h23v23h-23zM368 552h23v23h-23zM391 552h23v23h-23zM414 552h23v23h-23zM460 552h23v23h-23zM644 552h23v23h-23zM690 552h23v23h-23zM713 552h23v23h-23zM805 552h23v23h-23zM0 575h23v23H0zM46 575h23v23H46zM69 575h23v23H69zM92 575h23v23H92zM161 575h23v23h-23zM207 575h23v23h-23zM230 575h23v23h-23zM253 575h23v23h-23zM276 575h23v23h-23zM368 575h23v23h-23zM391 575h23v23h-23zM460 575h23v23h-23zM529 575h23v23h-23zM552 575h23v23h-23zM575 575h23v23h-23zM598 575h23v23h-23zM644 575h23v23h-23zM713 575h23v23h-23zM759 575h23v23h-23zM0 598h23v23H0zM138 598h23v23h-23zM161 598h23v23h-23zM207 598h23v23h-23zM230 598h23v23h-23zM414 598h23v23h-23zM460 598h23v23h-23zM552 598h23v23h-23zM575 598h23v23h-23zM621 598h23v23h-23zM644 598h23v23h-23zM690 598h23v23h-23zM713 598h23v23h-23zM782 598h23v23h-23zM805 598h23v23h-23zM828 598h23v23h-23zM0 621h23v23H0zM46 621h23v23H46zM92 621h23v23H92zM115 621h23v23h-23zM253 621h23v23h-23zM276 621h23v23h-23zM299 621h23v23h-23zM322 621h23v23h-23zM345 621h23v23h-23zM414 621h23v23h-23zM460 621h23v23h-23zM598 621h23v23h-23zM644 621h23v23h-23zM690 621h23v23h-23zM713 621h23v23h-23zM736 621h23v23h-23zM759 621h23v23h-23zM782 621h23v23h-23zM805 621h23v23h-23zM0 644h23v23H0zM92 644h23v23H92zM138 644h23v23h-23zM184 644h23v23h-23zM207 644h23v23h-23zM299 644h23v23h-23zM575 644h23v23h-23zM644 644h23v23h-23zM667 644h23v23h-23zM690 644h23v23h-23zM713 644h23v23h-23zM736 644h23v23h-23zM759 644h23v23h-23zM782 644h23v23h-23zM184 667h23v23h-23zM207 667h23v23h-23zM230 667h23v23h-23zM299 667h23v23h-23zM322 667h23v23h-23zM345 667h23v23h-23zM368 667h23v23h-23zM391 667h23v23h-23zM437 667h23v23h-23zM460 667h23v23h-23zM529 667h23v23h-23zM552 667h23v23h-23zM598 667h23v23h-23zM644 667h23v23h-23zM736 667h23v23h-23zM782 667h23v23h-23zM230 690h23v23h-23zM276 690h23v23h-23zM299 690h23v23h-23zM322 690h23v23h-23zM345 690h23v23h-23zM368 690h23v23h-23zM437 690h23v23h-23zM483 690h23v23h-23zM506 690h23v23h-23zM529 690h23v23h-23zM552 690h23v23h-23zM644 690h23v23h-23zM690 690h23v23h-23zM736 690h23v23h-23zM759 690h23v23h-23zM828 690h23v23h-23zM207 713h23v23h-23zM230 713h23v23h-23zM322 713h23v23h-23zM345 713h23v23h-23zM368 713h23v23h-23zM391 713h23v23h-23zM414 713h23v23h-23zM506 713h23v23h-23zM552 713h23v23h-23zM621 713h23v23h-23zM644 713h23v23h-23zM736 713h23v23h-23zM805 713h23v23h-23zM230 736h23v23h-23zM253 736h23v23h-23zM322 736h23v23h-23zM368 736h23v23h-23zM460 736h23v23h-23zM552 736h23v23h-23zM575 736h23v23h-23zM598 736h23v23h-23zM621 736h23v23h-23zM644 736h23v23h-23zM667 736h23v23h-23zM690 736h23v23h-23zM713 736h23v23h-23zM736 736h23v23h-23zM759 736h23v23h-23zM782 736h23v23h-23zM805 736h23v23h-23zM828 736h23v23h-23zM253 759h23v23h-23zM276 759h23v23h-23zM299 759h23v23h-23zM322 759h23v23h-23zM368 759h23v23h-23zM414 759h23v23h-23zM437 759h23v23h-23zM483 759h23v23h-23zM575 759h23v23h-23zM598 759h23v23h-23zM644 759h23v23h-23zM667 759h23v23h-23zM690 759h23v23h-23zM828 759h23v23h-23zM230 782h23v23h-23zM276 782h23v23h-23zM299 782h23v23h-23zM322 782h23v23h-23zM345 782h23v23h-23zM368 782h23v23h-23zM460 782h23v23h-23zM506 782h23v23h-23zM667 782h23v23h-23zM759 782h23v23h-23zM805 782h23v23h-23zM828 782h23v23h-23zM207 805h23v23h-23zM230 805h23v23h-23zM253 805h23v23h-23zM322 805h23v23h-23zM414 805h23v23h-23zM460 805h23v23h-23zM506 805h23v23h-23zM529 805h23v23h-23zM621 805h23v23h-23zM713 805h23v23h-23zM736 805h23v23h-23zM759 805h23v23h-23zM828 805h23v23h-23zM184 828h23v23h-23zM207 828h23v23h-23zM253 828h23v23h-23zM276 828h23v23h-23zM322 828h23v23h-23zM345 828h23v23h-23zM368 828h23v23h-23zM437 828h23v23h-23zM483 828h23v23h-23zM598 828h23v23h-23zM644 828h23v23h-23zM667 828h23v23h-23zM690 828h23v23h-23zM759 828h23v23h-23zM828 828h23v23h-23z"/><path fill="none" d="M24.15 24.15h112.7v112.7H24.15z"/><path d="M136.85 0H0v161h161V0h-24.15zm0 136.85H24.15V24.15h112.7v112.7z"/><path fill="none" d="M714.15 24.15h112.7v112.7h-112.7z"/><path d="M826.85 0H690v161h161V0h-24.15zm0 136.85h-112.7V24.15h112.7v112.7z"/><path fill="none" d="M24.15 714.15h112.7v112.7H24.15z"/><path d="M136.85 690H0v161h161V690h-24.15zm0 136.85H24.15v-112.7h112.7v112.7z"/><g><path d="M46 46h69v69H46z"/></g><g><path d="M736 46h69v69h-69z"/></g><g><path d="M46 736h69v69H46z"/></g></svg>