<svg width="30" height="30" fill="none" xmlns="http://www.w3.org/2000/svg"><path fill="#000" d="M8 5H5v3h3zM3 0H0v13h3zM13 0h-3v13h3z"/><path fill="#000" d="M13 3V0H0v3zM13 13v-3H0v3zM8 22H5v3h3zM3 17H0v13h3zM13 17h-3v13h3z"/><path fill="#000" d="M13 20v-3H0v3zM13 30v-3H0v3zM25 5h-3v3h3zM20 0h-3v13h3zM30 0h-3v13h3z"/><path fill="#000" d="M30 3V0H17v3zM30 13v-3H17v3zM17 23h3v-3h-3zM28 25h2v-5h-2zM25 25h2v-5h-2z"/><path fill="#000" d="M25 22h5v-2h-5zM25 25h5v-2h-5zM23 30h2v-5h-2zM20 30h2v-5h-2z"/><path fill="#000" d="M20 27h5v-2h-5zM20 30h5v-2h-5zM27 30h3v-3h-3zM17 30h1v-1h-1zM17 18h1v-1h-1zM22 23h1v-1h-1zM20 20h3v-3h-3z"/></svg>