<svg width="121" height="121" fill="none" xmlns="http://www.w3.org/2000/svg"><g clip-path="url(#clip0)" fill="#000"><path d="M24.2 12.1H12.1v12.1h12.1V12.1zM84.7 0v6.05h-6.05v6.05h6.05v24.2h6.05v6.05H84.7v6.05h12.1V36.3h18.15v6.05H121V0H84.7zm30.25 30.25h-24.2V6.05h24.2v24.2z"/><path d="M108.9 12.1H96.8v12.1h12.1V12.1zM24.2 96.8H12.1v12.1h12.1V96.8zM90.75 84.7H84.7v6.05h6.05V84.7zM60.5 114.95h-6.05V121h6.05v-6.05zM66.55 90.75H60.5v6.05h6.05v-6.05zM66.55 102.85H60.5v6.05h6.05v-6.05zM121 72.6h-6.05v6.05H121V72.6zM6.05 72.6H0v6.05h6.05V72.6zM6.05 42.35H0v6.05h6.05v-6.05zM66.55 6.05v6.05h-12.1v6.05H72.6V6.05h-6.05z"/><path d="M114.95 48.4v6.05h-12.1v6.05H84.7v-6.05h-6.05v6.05h-12.1v6.05H84.7v6.05H66.55v-6.05H60.5v6.05h-6.05v-6.05H48.4v6.05h-6.05v6.05h12.1v6.05h6.05v-6.05h12.1v6.05h-6.05v6.05h6.05v12.1h6.05v6.05h6.05v-6.05h18.15v-12.1h6.05V84.7h-6.05V72.6h-12.1v-6.05h12.1v6.05h6.05v-6.05h6.05V60.5H121V48.4h-6.05zM96.8 78.65V96.8H78.65V78.65H96.8zM78.65 36.3H72.6v6.05h-6.05v12.1h6.05V48.4h6.05v-6.05h6.05V36.3h-6.05zM78.65 114.95h-12.1V121h12.1v-6.05zM54.45 6.05H48.4v6.05h6.05V6.05z"/><path d="M102.85 48.4H96.8v6.05h6.05V48.4zM108.9 42.35h-6.05v6.05h6.05v-6.05zM30.25 72.6H24.2v6.05h6.05V72.6zM36.3 114.95v-24.2h6.05v-12.1H36.3v6.05H18.15v-6.05H6.05v6.05H0V121h48.4v-6.05H36.3zm-6.05 0H6.05v-24.2h24.2v24.2zM42.35 36.3H36.3v6.05h6.05V36.3zM42.35 0H0v36.3h6.05v6.05h6.05V36.3h6.05v6.05h6.05V36.3h12.1V24.2h6.05v-6.05H36.3V6.05h12.1V0h-6.05zm-12.1 30.25H6.05V6.05h24.2v24.2zM78.65 18.15H72.6v6.05h6.05v-6.05zM66.55 0H60.5v6.05h6.05V0z"/><path d="M72.6 36.3v-6.05h-6.05V24.2H60.5v6.05H48.4V24.2h-6.05v12.1h6.05v12.1H30.25v-6.05H24.2v6.05H6.05v6.05h12.1v6.05H0v6.05h18.15v6.05h6.05v-6.05h6.05v6.05h6.05v-6.05h12.1V60.5h-6.05v-6.05h12.1v6.05h12.1v-6.05H60.5V48.4h-6.05V36.3H72.6zM36.3 60.5H24.2v-6.05h12.1v6.05zM54.45 96.8V84.7H48.4v6.05h-6.05v6.05h6.05v6.05h-6.05v6.05h12.1v-6.05h6.05V96.8h-6.05zM108.9 108.9v-6.05h-6.05v6.05H84.7v6.05h12.1V121h6.05v-6.05h12.1V121H121v-12.1h-12.1zM114.95 84.7v6.05h-6.05v6.05H121V84.7h-6.05z"/></g><defs><clipPath id="clip0"><path fill="#fff" d="M0 0h121v121H0z"/></clipPath></defs></svg>