<?xml version="1.0" standalone="no"?>
<!DOCTYPE svg PUBLIC "-//W3C//DTD SVG 1.1//EN" "http://www.w3.org/Graphics/SVG/1.1/DTD/svg11.dtd" >
<svg xmlns="http://www.w3.org/2000/svg" xmlns:xlink="http://www.w3.org/1999/xlink" version="1.1">
<metadata>
Created by FontForge 20170731 at Sun Jan  5 10:20:58 2014
 By ,,,
Copyright (c) 2008 by abstrkt. All rights reserved. wf-rip
</metadata>
<defs>
<font id="LitteraPlainRegular" horiz-adv-x="578" >
  <font-face 
    font-family="Littera Plain Regular"
    font-weight="400"
    font-stretch="normal"
    units-per-em="1000"
    panose-1="2 0 5 6 4 0 0 2 0 4"
    ascent="731"
    descent="-269"
    x-height="460"
    cap-height="650"
    bbox="-27 -249 1165 924"
    underline-thickness="50"
    underline-position="-250"
    unicode-range="U+0020-E010"
  />
<missing-glyph horiz-adv-x="0" 
 />
    <glyph glyph-name=".notdef" horiz-adv-x="0" 
 />
    <glyph glyph-name=".null" horiz-adv-x="0" 
 />
    <glyph glyph-name="nonmarkingreturn" horiz-adv-x="333" 
 />
    <glyph glyph-name="space" unicode=" " horiz-adv-x="235" 
 />
    <glyph glyph-name="exclam" unicode="!" horiz-adv-x="217" 
d="M60 650h96l-6 -450h-83zM66 11q-16 17 -16 42t16 42q17 17 42 17t42 -17t17 -42t-17 -42q-17 -16 -42 -16t-42 16z" />
    <glyph glyph-name="quotedbl" unicode="&#x22;" horiz-adv-x="305" 
d="M122 494h-72l-10 210h92zM255 494h-73l-10 210h93z" />
    <glyph glyph-name="numbersign" unicode="#" horiz-adv-x="700" 
d="M226 402h-146v83h178l63 165h89l-64 -165h137l63 165h89l-64 -165h129v-83h-161l-59 -156h140v-83h-173l-62 -163h-88l62 163h-137l-62 -163h-88l62 163h-134v83h166zM451 402h-137l-59 -156h136z" />
    <glyph glyph-name="dollar" unicode="$" horiz-adv-x="539" 
d="M489 183q0 -79 -46 -128t-128 -60v-133h-89v132q-121 13 -178 112l59 57q60 -90 161 -90q63 0 96.5 28t33.5 82q0 41 -30.5 68t-98.5 48q-70 20 -120 45q-42 23 -61 56t-22 89q0 68 41.5 112t118.5 53v134h89v-134q88 -7 151 -76l-55 -68q-37 36 -68.5 50.5t-72.5 14.5
q-55 0 -85.5 -23t-30.5 -64q0 -42 26 -62q30 -22 100 -43q95 -29 147 -67q62 -45 62 -133z" />
    <glyph glyph-name="percent" unicode="%" horiz-adv-x="815" 
d="M69 380q-44 47 -44 119t44 119t115 47t115 -47t44 -119t-44 -119t-115 -47t-115 47zM101 499q0 -40 22.5 -65.5t60.5 -25.5q37 0 60 25.5t23 65.5q0 41 -23 66t-60 25q-38 0 -60.5 -25t-22.5 -66zM514 670l77 -38l-298 -654l-77 37zM516 32q-44 47 -44 119t44 119t115 47
t115 -47t44 -119t-44 -119t-115 -47t-115 47zM548 151q0 -40 22.5 -65.5t60.5 -25.5q37 0 60 25.5t23 65.5q0 41 -23 66t-60 25q-38 0 -60.5 -25t-22.5 -66z" />
    <glyph glyph-name="ampersand" unicode="&#x26;" horiz-adv-x="586" 
d="M556 43l-56 -58l-74 79q-73 -79 -182 -79q-87 0 -145 43q-59 44 -59 129q0 59 30 100t96 85q-47 54 -64 88t-17 75q0 71 48 115q49 45 127 45q81 0 128 -38.5t47 -106.5q0 -53 -34.5 -98.5t-108.5 -95.5l119 -131q20 44 28 100h87q-8 -87 -52 -165zM366 124l-144 158
q-50 -33 -71 -59t-21 -63q0 -43 31.5 -67.5t80.5 -24.5q74 0 124 56zM345 505q0 77 -85 77q-37 0 -61 -21.5t-24 -60.5q0 -27 13 -51.5t48 -64.5q59 38 84 64.5t25 56.5z" />
    <glyph glyph-name="quotesingle" unicode="'" horiz-adv-x="172" 
d="M122 494h-72l-10 210h92z" />
    <glyph glyph-name="parenleft" unicode="(" horiz-adv-x="269" 
d="M60 268q0 245 122 448l77 -40q-108 -189 -108 -408q0 -207 108 -393l-78 -40q-121 203 -121 433z" />
    <glyph glyph-name="parenright" unicode=")" horiz-adv-x="269" 
d="M209 268q0 -227 -122 -433l-77 40q108 189 108 393q0 219 -108 408q59 31 77 40q122 -205 122 -448z" />
    <glyph glyph-name="asterisk" unicode="*" horiz-adv-x="365" 
d="M182 580l50 109l68 -39l-70 -98l120 12v-78l-120 11l70 -98l-68 -39l-50 109l-50 -109l-67 39l69 98l-119 -11v78l119 -12l-69 98l67 39z" />
    <glyph glyph-name="plus" unicode="+" horiz-adv-x="510" 
d="M211 203h-151v78h151v156h88v-156h151v-78h-151v-156h-88v156z" />
    <glyph glyph-name="comma" unicode="," horiz-adv-x="212" 
d="M68 94h99l-70 -204h-62q31 204 33 204z" />
    <glyph glyph-name="hyphen" unicode="-" horiz-adv-x="435" 
d="M385 203h-335v78h335v-78z" />
    <glyph glyph-name="period" unicode="." horiz-adv-x="197" 
d="M56 11q-16 17 -16 42t16 42q17 17 42 17t42 -17t17 -42t-17 -42q-17 -16 -42 -16t-42 16z" />
    <glyph glyph-name="slash" unicode="/" horiz-adv-x="450" 
d="M373 695l77 -38l-373 -785l-77 37z" />
    <glyph glyph-name="zero" unicode="0" horiz-adv-x="547" 
d="M273 665q224 0 224 -340t-224 -340q-223 0 -223 340t223 340zM273 68q68 0 99.5 60.5t31.5 196.5t-31.5 196.5t-99.5 60.5q-67 0 -98.5 -60.5t-31.5 -196.5t31.5 -196.5t98.5 -60.5z" />
    <glyph glyph-name="one" unicode="1" horiz-adv-x="287" 
d="M126 511l-91 -72v95l182 136v-670h-91v511z" />
    <glyph glyph-name="two" unicode="2" horiz-adv-x="480" 
d="M202 83h233v-83h-403q28 38 99 123q88 107 106 131q35 46 69 113q48 101 25.5 160t-85.5 55q-84 0 -104 -98l-83 24q30 157 188 157q33 0 63.5 -8.5t59.5 -27t46 -54t17 -82.5q0 -101 -84 -222q-43 -62 -72 -98q-30 -39 -75 -90z" />
    <glyph glyph-name="three" unicode="3" horiz-adv-x="506" 
d="M48 136l85 29q21 -96 117 -96q48 0 77 32.5t29 91.5q0 52 -26 81t-70 29h-43v84h38q46 0 69 28t23 72q0 48 -26.5 72t-71.5 24q-38 0 -67 -25.5t-38 -76.5l-84 24q17 86 70 123q55 37 121 37q88 0 141 -44.5t53 -124.5q0 -57 -28 -99t-73 -50v-6q54 -12 83 -52.5
t29 -99.5q0 -88 -49 -146t-156 -58q-80 0 -134 39t-69 112z" />
    <glyph glyph-name="four" unicode="4" horiz-adv-x="489" 
d="M25 138v74l244 438h124v-434h71v-78h-71v-138h-91v138h-277zM302 547l-182 -331h182v331z" />
    <glyph glyph-name="five" unicode="5" horiz-adv-x="507" 
d="M97 650h328v-83h-252l-19 -171q14 22 44.5 36t65.5 14q100 0 147 -65q46 -64 46 -167q0 -44 -10.5 -82.5t-33 -72.5t-65 -54t-99.5 -20q-166 0 -202 151l85 29q9 -46 41.5 -71t75.5 -25q47 0 77.5 38.5t30.5 105.5q0 75 -26 111t-83 36q-64 0 -99 -57h-88z" />
    <glyph glyph-name="six" unicode="6" horiz-adv-x="509" 
d="M458 212q-1 -111 -54.5 -169t-140.5 -58q-114 0 -164 73t-50 224q0 383 215 383q78 0 124.5 -40.5t59.5 -114.5l-84 -29q-19 100 -101 100q-121 0 -127 -243q19 38 55.5 57t78.5 19q81 0 135 -54t53 -148zM258 68q51 0 81.5 33.5t30.5 98.5q0 62 -31 96.5t-81 34.5
q-51 0 -83 -34t-32 -97q0 -65 31.5 -98.5t83.5 -33.5z" />
    <glyph glyph-name="seven" unicode="7" horiz-adv-x="444" 
d="M305 567h-275v83h394l-221 -650h-96z" />
    <glyph glyph-name="eight" unicode="8" horiz-adv-x="507" 
d="M437 495q0 -53 -27 -93t-72 -53v-4q50 -13 84.5 -57.5t34.5 -107.5q0 -94 -55.5 -144.5t-147.5 -50.5q-88 0 -147 48q-57 49 -57 146q0 63 33.5 108t83.5 58v4q-44 13 -70.5 53t-26.5 92q0 80 53 125q52 46 131 46q78 0 130 -46q53 -45 53 -124zM254 58q48 0 78.5 32
t30.5 93q0 55 -30.5 87.5t-78.5 32.5q-49 0 -79.5 -32.5t-30.5 -88.5q0 -61 30 -92.5t80 -31.5zM345 494q0 42 -25 70t-66 28q-42 0 -67 -28t-25 -70q0 -46 24.5 -77t67.5 -31t67 30.5t24 77.5z" />
    <glyph glyph-name="nine" unicode="9" horiz-adv-x="509" 
d="M51 440q1 114 57 170q55 55 139 55q212 0 212 -297q0 -383 -211 -383q-161 0 -199 155l84 23q24 -95 114 -95q116 0 125 244q-20 -38 -55.5 -57t-76.5 -19q-79 0 -135 56t-54 148zM250 582q-49 0 -80 -35t-31 -98q0 -62 30.5 -96t80.5 -34q51 0 83 34t32 97
q0 62 -32.5 97t-82.5 35z" />
    <glyph glyph-name="colon" unicode=":" horiz-adv-x="227" 
d="M71 58q-16 17 -16 42t16 42q17 17 42 17t42 -17t17 -42t-17 -42q-17 -16 -42 -16t-42 16zM71 315q-16 17 -16 42t16 42q17 17 42 17t42 -17t17 -42t-17 -42q-17 -16 -42 -16t-42 16z" />
    <glyph glyph-name="semicolon" unicode=";" horiz-adv-x="210" 
d="M69 315q-17 17 -17 42t17 42t42 17t41 -17q17 -17 17 -42t-17 -42q-16 -16 -41 -16t-42 16zM68 94h99l-70 -204h-62q31 204 33 204z" />
    <glyph glyph-name="less" unicode="&#x3c;" horiz-adv-x="417" 
d="M377 45l-54 -60l-298 258l297 256l55 -59l-233 -197z" />
    <glyph glyph-name="equal" unicode="=" horiz-adv-x="495" 
d="M435 133h-375v78h375v-78zM435 278h-375v78h375v-78z" />
    <glyph glyph-name="greater" unicode="&#x3e;" horiz-adv-x="417" 
d="M95 499l297 -256l-298 -258l-54 60l233 198l-233 197z" />
    <glyph glyph-name="question" unicode="?" horiz-adv-x="447" 
d="M264 250v-50h-93v69q0 43 18.5 71.5t60.5 54.5q2 1 11.5 7t10.5 7q23 18 26 22q21 17 21 56q0 48 -26.5 72t-70.5 24q-38 0 -68 -25.5t-38 -76.5l-84 24q17 86 70 123t120 37q88 0 141.5 -45t53.5 -124q0 -83 -82 -140q-31 -22 -40 -29q-31 -27 -31 -77zM178 11
q-17 17 -17 42t17 42t42 17t41 -17q17 -17 17 -42t-17 -42q-16 -16 -41 -16t-42 16z" />
    <glyph glyph-name="at" unicode="@" horiz-adv-x="817" 
d="M128 215q0 -150 73.5 -228.5t206.5 -78.5q88 0 150 37l45 -65q-85 -52 -195 -52q-168 0 -266 105q-97 103 -97 279q0 175 100 281q101 108 264 108q167 0 264 -106q99 -105 99 -280q0 -97 -37 -158q-38 -62 -110 -62q-77 0 -104 53q-59 -53 -158 -53q-70 0 -109 36
t-39 95q0 90 95 128q22 9 61 14q56 8 129 8q2 45 -21.5 68.5t-71.5 23.5q-69 0 -118 -49l-48 58q68 68 168 68q91 0 136.5 -42.5t45.5 -135.5v-138q0 -55 39 -55q28 0 43 37.5t15 103.5q0 149 -80 227q-79 79 -200 79t-200 -79q-80 -80 -80 -227zM500 116v92
q-63 0 -103.5 -6t-59 -18.5t-24 -25t-5.5 -31.5q0 -26 18.5 -42t53.5 -16q73 0 120 47z" />
    <glyph glyph-name="A" unicode="A" horiz-adv-x="657" 
d="M637 0h-98l-62 138h-299l-60 -138h-98l305 670h6zM447 210l-120 274l-118 -274h238z" />
    <glyph glyph-name="B" unicode="B" horiz-adv-x="615" 
d="M339 0h-269v650h243q111 0 168.5 -41.5t57.5 -117.5q0 -54 -27 -94.5t-79 -52.5v-5q64 -9 100.5 -54t36.5 -105q0 -83 -59.5 -131.5t-171.5 -48.5zM315 294h-149v-219h159q147 0 147 111q0 108 -157 108zM166 575v-204h129q76 0 111.5 26t35.5 82q0 96 -143 96h-133z" />
    <glyph glyph-name="C" unicode="C" horiz-adv-x="661" 
d="M143 325q0 -125 61 -190q62 -66 156 -66q119 0 184 101l72 -51q-83 -134 -257 -134q-143 0 -228 90q-86 91 -86 246q0 156 86 250q85 94 227 94q169 0 253 -130l-72 -54q-63 99 -181 99q-94 0 -155 -67q-60 -66 -60 -188z" />
    <glyph glyph-name="D" unicode="D" horiz-adv-x="646" 
d="M294 0h-224v650h222q147 0 228 -87t81 -241q0 -153 -80 -237.5t-227 -84.5zM166 565v-480h113q227 0 227 240q0 117 -58 178.5t-169 61.5h-113z" />
    <glyph glyph-name="E" unicode="E" horiz-adv-x="549" 
d="M504 0h-434v650h424v-83h-328v-195h273v-80h-273v-210h338v-82z" />
    <glyph glyph-name="F" unicode="F" horiz-adv-x="534" 
d="M166 0h-96v650h424v-83h-328v-197h253v-80h-253v-290z" />
    <glyph glyph-name="G" unicode="G" horiz-adv-x="685" 
d="M546 259h-210v75h304v-45q0 -143 -73 -223.5t-209 -80.5q-142 0 -228 90q-85 89 -85 246q0 156 86 250q85 94 227 94q172 0 256 -127l-74 -57q-61 99 -182 99q-94 0 -155 -67q-60 -66 -60 -188q0 -124 60 -190t155 -66q91 0 139.5 49.5t48.5 140.5z" />
    <glyph glyph-name="H" unicode="H" horiz-adv-x="664" 
d="M499 292h-333v-292h-96v650h96v-280h333v280h95v-650h-95v292z" />
    <glyph glyph-name="I" unicode="I" horiz-adv-x="236" 
d="M70 650h96v-650h-96v650z" />
    <glyph glyph-name="J" unicode="J" horiz-adv-x="388" 
d="M222 650h96v-470q0 -95 -44.5 -145t-123.5 -50q-73 0 -120 40l33 78q43 -31 78 -31q81 0 81 130v448z" />
    <glyph glyph-name="K" unicode="K" horiz-adv-x="623" 
d="M70 650h96v-306l280 306h117l-296 -310v-7l326 -333h-125l-302 324v-324h-96v650z" />
    <glyph glyph-name="L" unicode="L" horiz-adv-x="534" 
d="M494 88v-88h-424v650h96v-562h328z" />
    <glyph glyph-name="M" unicode="M" horiz-adv-x="786" 
d="M396 132h-6l-224 297v-429h-96v670h5l318 -407l318 407h5v-670h-95v429z" />
    <glyph glyph-name="N" unicode="N" horiz-adv-x="684" 
d="M614 -20h-5l-443 471v-451h-96v670h5l443 -470v450h96v-670z" />
    <glyph glyph-name="O" unicode="O" horiz-adv-x="717" 
d="M129 77q-84 93 -84 248t84 247q85 93 229 93t229 -93q85 -91 85 -247t-85 -248q-86 -92 -229 -92t-229 92zM143 325q0 -117 58 -187q59 -69 157 -69t157 69q59 70 59 187q0 118 -58.5 186.5t-157.5 68.5q-98 0 -157 -69q-58 -67 -58 -186z" />
    <glyph glyph-name="P" unicode="P" horiz-adv-x="581" 
d="M288 231h-122v-231h-96v650h218q248 0 248 -206q0 -106 -65.5 -159.5t-182.5 -53.5zM166 569v-259h100q90 0 132 30.5t42 103.5q0 70 -41.5 97.5t-132.5 27.5h-100z" />
    <glyph glyph-name="Q" unicode="Q" horiz-adv-x="707" 
d="M45 325q0 155 84 247q85 93 229 93t229 -93q85 -91 85 -247q0 -138 -67 -226q-68 -90 -184 -109l166 -126l-115 -24l-149 146q-129 10 -204 102q-74 92 -74 237zM143 325q0 -117 58 -187q59 -69 157 -69t157 69q59 70 59 187q0 118 -58.5 186.5t-157.5 68.5
q-98 0 -157 -69q-58 -67 -58 -186z" />
    <glyph glyph-name="R" unicode="R" horiz-adv-x="611" 
d="M288 226h-122v-226h-96v650h218q120 0 186.5 -52t66.5 -157q0 -140 -121 -192l156 -249h-115l-134 228q-20 -2 -39 -2zM166 569v-264h100q91 0 135 31.5t44 104.5q0 70 -43.5 99t-135.5 29h-100z" />
    <glyph glyph-name="S" unicode="S" horiz-adv-x="592" 
d="M547 178q0 -94 -73 -143q-74 -50 -181 -50q-72 0 -144 26q-70 25 -108 88l62 63q30 -43 81.5 -66.5t108.5 -23.5q72 0 112.5 28t40.5 78q0 44 -31.5 68.5t-110.5 43.5q-90 22 -147 48q-49 25 -71.5 59.5t-24.5 92.5q0 79 63.5 127t170.5 48q153 0 226 -76l-58 -70
q-73 62 -168 62q-61 0 -97 -25t-36 -65q0 -44 30 -65q30 -20 111 -42q119 -32 158 -55q86 -50 86 -151z" />
    <glyph glyph-name="T" unicode="T" horiz-adv-x="602" 
d="M40 650h522v-83h-213v-567h-96v567h-213v83z" />
    <glyph glyph-name="U" unicode="U" horiz-adv-x="660" 
d="M60 264v386h96v-368q0 -209 173 -209q175 0 175 209v368h96v-386q0 -133 -72.5 -206t-197.5 -73t-197.5 73t-72.5 206z" />
    <glyph glyph-name="V" unicode="V" horiz-adv-x="657" 
d="M120 650l210 -478l206 478h101l-305 -670h-6l-306 670h100z" />
    <glyph glyph-name="W" unicode="W" horiz-adv-x="946" 
d="M475 670l214 -460l125 440h102l-203 -670h-6l-235 495l-237 -495h-6l-199 670h100l127 -440l212 460h6z" />
    <glyph glyph-name="X" unicode="X" horiz-adv-x="658" 
d="M142 0h-112l243 335l-223 315h117l162 -247l167 247h112l-225 -312l245 -338h-117l-183 265z" />
    <glyph glyph-name="Y" unicode="Y" horiz-adv-x="622" 
d="M494 650h103l-238 -423v-227h-96v227l-238 423h103l183 -338z" />
    <glyph glyph-name="Z" unicode="Z" horiz-adv-x="588" 
d="M558 650v-5l-372 -559h363v-86h-519v5l372 560h-342v85h498z" />
    <glyph glyph-name="bracketleft" unicode="[" horiz-adv-x="300" 
d="M75 703h210v-81h-122v-692h122v-80h-210v853z" />
    <glyph glyph-name="backslash" unicode="\" horiz-adv-x="450" 
d="M450 -91l-77 -37l-373 785l77 38z" />
    <glyph glyph-name="bracketright" unicode="]" horiz-adv-x="300" 
d="M136 622h-121v81h210v-853h-210v80h121v692z" />
    <glyph glyph-name="asciicircum" unicode="^" horiz-adv-x="484" 
d="M90 378l-60 54l213 238l211 -237l-59 -55l-152 178z" />
    <glyph glyph-name="underscore" unicode="_" horiz-adv-x="565" 
d="M500 0h-435v80h435v-80z" />
    <glyph glyph-name="grave" unicode="`" horiz-adv-x="202" 
d="M125 446l-115 204h104l83 -204h-72z" />
    <glyph glyph-name="a" unicode="a" horiz-adv-x="505" 
d="M113 349l-42 60q79 66 178 66q90 0 138 -47t48 -141v-287h-81l-2 58q-61 -73 -165 -73q-70 0 -111 37.5t-41 99.5q-4 101 107 144q30 13 67 17q59 8 135 8q2 50 -24.5 79.5t-74.5 29.5q-73 0 -132 -51zM344 123v103q-123 0 -169 -25q-45 -25 -45 -73q0 -69 84 -69
q75 0 130 64z" />
    <glyph glyph-name="b" unicode="b" 
d="M153 84v-84h-83v650h91v-261q46 85 159 85q96 0 154 -67q59 -67 59 -178q0 -112 -58 -178t-155 -66q-52 0 -96.5 25t-70.5 74zM157 229q1 -75 39.5 -121t102.5 -46q66 0 104 47q37 47 37 120t-37 119q-37 48 -104 48q-66 0 -104 -45.5t-38 -121.5z" />
    <glyph glyph-name="c" unicode="c" horiz-adv-x="518" 
d="M283 63q88 0 129 62l61 -52q-66 -88 -190 -88q-109 0 -173 67q-65 68 -65 176q0 110 65 178q66 69 173 69q121 0 187 -88l-60 -53q-43 64 -127 64q-67 0 -107 -49q-40 -47 -40 -119t40 -119q41 -48 107 -48z" />
    <glyph glyph-name="d" unicode="d" 
d="M508 0h-84v84q-25 -49 -69.5 -74t-96.5 -25q-97 0 -155 66t-58 178q0 113 58 178q58 67 155 67q113 0 159 -85v261h91v-650zM421 229q0 76 -38 121.5t-105 45.5q-65 0 -102.5 -46.5t-37.5 -120.5t37.5 -120.5t102.5 -46.5q63 0 102 45.5t41 121.5z" />
    <glyph glyph-name="e" unicode="e" horiz-adv-x="533" 
d="M45 228q0 111 64 178q65 69 158 69q106 0 163.5 -63.5t57.5 -178.5v-30h-352q2 -63 42.5 -102t103.5 -39q89 0 143 64l54 -52q-68 -89 -198 -89q-113 0 -174.5 65t-61.5 178zM270 398q-51 0 -87 -34t-44 -93h259q-10 127 -128 127z" />
    <glyph glyph-name="f" unicode="f" horiz-adv-x="360" 
d="M112 0v389h-77v71h77v55q0 61 35 97t97 36q46 0 91 -18l-15 -69q-22 9 -62 9q-32 0 -43.5 -17.5t-11.5 -58.5v-34h101v-71h-101v-389h-91z" />
    <glyph glyph-name="g" unicode="g" horiz-adv-x="584" 
d="M68 301q0 82 55.5 128t156.5 46q92 0 145 -40q37 36 86 36q34 0 58 -11q0 -3 -19 -72q-43 24 -83 3q25 -38 25 -90q0 -82 -55.5 -128t-156.5 -46q-51 0 -96 14q-23 -1 -34.5 -13t-11.5 -29q0 -23 22 -31.5t86 -8.5h105q80 -1 124.5 -38t44.5 -109q0 -71 -59.5 -116
t-162.5 -45h-27q-103 0 -156.5 42.5t-53.5 111.5q0 30 13.5 57.5t33.5 40.5q-48 27 -48 85q0 30 17.5 55.5t43.5 32.5q-53 48 -53 125zM153 301q0 -106 126 -106t126 106q0 107 -126 107q-60 0 -93 -27t-33 -80zM176 -17q-18 -9 -28 -31t-8 -44q7 -78 134 -78h21
q138 0 138 84q0 68 -111 68h-129q-14 0 -17 1z" />
    <glyph glyph-name="h" unicode="h" horiz-adv-x="553" 
d="M161 235v-235h-91v650h91v-279q21 51 62.5 77.5t91.5 26.5q168 0 168 -200v-275h-91v260q0 73 -22 105.5t-76 32.5q-58 0 -96 -48q-37 -47 -37 -115z" />
    <glyph glyph-name="i" unicode="i" horiz-adv-x="231" 
d="M161 0h-91v460h91v-460zM73 577q-16 17 -16 42t16 42q17 17 42 17t42 -17t17 -42t-17 -42q-17 -16 -42 -16t-42 16z" />
    <glyph glyph-name="j" unicode="j" horiz-adv-x="231" 
d="M70 460h91v-490q0 -158 -127 -158q-42 0 -61 13l13 68q15 -6 33 -6q51 0 51 83v490zM73 577q-16 17 -16 42t16 42q17 17 42 17t42 -17t17 -42t-17 -42q-17 -16 -42 -16t-42 16z" />
    <glyph glyph-name="k" unicode="k" horiz-adv-x="500" 
d="M70 650h91v-405l191 215h113l-206 -216v-6l221 -238h-118l-201 230v-230h-91v650z" />
    <glyph glyph-name="l" unicode="l" horiz-adv-x="231" 
d="M70 650h91v-650h-91v650z" />
    <glyph glyph-name="m" unicode="m" horiz-adv-x="795" 
d="M443 245v-245h-91v260q0 70 -19.5 102.5t-64.5 32.5q-46 0 -76.5 -42t-30.5 -108v-245h-91v460h86v-86q24 49 61 75t78 26q52 0 85 -23.5t48 -79.5h5q21 50 59 76.5t85 26.5q148 0 148 -200v-275h-91v260q0 70 -19.5 102.5t-64.5 32.5q-46 0 -76.5 -42t-30.5 -108z" />
    <glyph glyph-name="n" unicode="n" horiz-adv-x="553" 
d="M161 235v-235h-91v460h83v-94q49 109 162 109q168 0 168 -200v-275h-91v260q0 73 -22 105.5t-76 32.5q-58 0 -96 -48q-37 -47 -37 -115z" />
    <glyph glyph-name="o" unicode="o" horiz-adv-x="564" 
d="M45 230q0 109 65 177t172 68t172 -68t65 -177q0 -110 -65 -178q-64 -67 -172 -67q-109 0 -173 67t-64 178zM136 230q0 -71 39 -119q41 -48 107 -48q67 0 106 48q40 47 40 119q0 74 -39.5 121t-106.5 47q-66 0 -106 -47.5t-40 -120.5z" />
    <glyph glyph-name="p" unicode="p" 
d="M70 460h83v-84q26 49 70.5 74t96.5 25q97 0 155 -67q58 -65 58 -178q0 -112 -58 -178t-155 -66q-113 0 -159 85v-255h-91v644zM157 230q0 -76 38 -121.5t104 -45.5q65 0 103 46.5t38 120.5t-38 121t-103 47q-64 0 -102.5 -46t-39.5 -122z" />
    <glyph glyph-name="q" unicode="q" 
d="M424 376v84h84v-644h-91v255q-46 -85 -159 -85q-97 0 -155 66t-58 178q0 113 58 178q58 67 155 67q52 0 96.5 -25t69.5 -74zM421 230q-2 76 -41 122t-102 46q-65 0 -102.5 -47t-37.5 -121t37.5 -120.5t102.5 -46.5q67 0 105 45.5t38 121.5z" />
    <glyph glyph-name="r" unicode="r" horiz-adv-x="412" 
d="M161 210v-210h-91v460h86v-112q45 125 164 125q36 0 57 -12l-13 -81q-18 7 -44 7q-70 0 -115 -52q-44 -52 -44 -125z" />
    <glyph glyph-name="s" unicode="s" horiz-adv-x="473" 
d="M409 421l-39 -64q-67 46 -134 46q-39 0 -64.5 -15.5t-25.5 -44.5q0 -22 25 -39q2 -1 40 -15q1 0 23.5 -5.5t30.5 -7.5q72 -19 113 -44q50 -29 50 -103q0 -63 -50.5 -103.5t-135.5 -40.5q-62 0 -115 23.5t-83 64.5l47 56q66 -71 151 -71q44 0 71.5 18t27.5 53q0 34 -32 49
q-21 10 -77 25q-24 6 -71 20q-25 9 -52 25q-50 29 -50 97q0 63 49.5 96.5t127.5 33.5q112 0 173 -54z" />
    <glyph glyph-name="t" unicode="t" horiz-adv-x="363" 
d="M50 389v71h63v120h91v-120h90v-71h-90v-250v-6q0 -31 1.5 -41.5t10.5 -18.5t31 -11q32 0 49 7l12 -69q-30 -15 -81 -15q-64 0 -89 32t-25 101v271h-63z" />
    <glyph glyph-name="u" unicode="u" horiz-adv-x="553" 
d="M392 225v235h91v-460h-84v94q-49 -109 -156 -109q-75 0 -124 45t-49 155v275h91v-260q0 -72 24 -105t79 -33q58 0 93 47q35 49 35 116z" />
    <glyph glyph-name="v" unicode="v" horiz-adv-x="514" 
d="M111 460l147 -309l145 309h96l-239 -475h-6l-239 475h96z" />
    <glyph glyph-name="w" unicode="w" horiz-adv-x="748" 
d="M377 475l156 -308l102 293h93l-172 -475h-6l-176 329l-176 -329h-6l-172 475h92l102 -293l157 308h6z" />
    <glyph glyph-name="x" unicode="x" horiz-adv-x="511" 
d="M137 0h-107l173 240l-158 220h107l103 -160l103 160h108l-160 -220l175 -240h-108l-118 179z" />
    <glyph glyph-name="y" unicode="y" horiz-adv-x="510" 
d="M391 460h94l-247 -644h-100l76 184l-189 460h98l139 -361z" />
    <glyph glyph-name="z" unicode="z" horiz-adv-x="485" 
d="M25 5l269 377h-239v78h385v-5l-269 -377h259v-78h-405v5z" />
    <glyph glyph-name="braceleft" unicode="{" horiz-adv-x="298" 
d="M30 244v61q22 0 42.5 23.5t20.5 52.5v180q0 87 46 122.5t129 19.5v-83q-48 14 -68.5 -5t-20.5 -75v-167q0 -61 -60 -98q60 -37 60 -98v-164q0 -56 20.5 -75t68.5 -5v-83q-83 -16 -129 19.5t-46 122.5v176q0 29 -20.5 52.5t-42.5 23.5z" />
    <glyph glyph-name="bar" unicode="|" horiz-adv-x="228" 
d="M70 703h88v-853h-88v853z" />
    <glyph glyph-name="braceright" unicode="}" horiz-adv-x="298" 
d="M268 305v-61q-22 0 -42.5 -23.5t-20.5 -52.5v-176q0 -87 -46 -122.5t-129 -19.5v83q48 -14 68.5 5t20.5 75v164q0 61 60 98q-60 37 -60 98v167q0 56 -20.5 75t-68.5 5v83q83 16 129 -19.5t46 -122.5v-180q0 -29 20.5 -52.5t42.5 -23.5z" />
    <glyph glyph-name="asciitilde" unicode="~" horiz-adv-x="612" 
d="M227 313l160 -53q52 -17 77 -1t23 66l80 -21q-6 -85 -52.5 -119.5t-129.5 -7.5l-160 53q-52 17 -77 -0.5t-23 -69.5l-80 21q13 177 182 132z" />
    <glyph glyph-name="sterling" unicode="&#xa3;" horiz-adv-x="633" 
d="M141 355h-106v73h93q-2 21 0 42q8 91 66 143.5t151 52.5q119 0 194 -78l-61 -69q-28 34 -58.5 48.5t-74.5 14.5q-49 0 -80.5 -30t-37.5 -80q-5 -21 -3 -44h186v-73h-172q0 -1 6.5 -20.5t8.5 -26.5h157v-78h-151q0 -38 -14 -83q20 3 41 -2q17 -5 34 -13q14 -6 43.5 -21.5
t34.5 -17.5q47 -24 74 -9t26 66l80 -21q-6 -84 -54 -125q-47 -40 -128 -2l-96 46q-47 23 -74 6.5t-26 -69.5l-80 21q1 25 10 57l18 50q25 71 26 117h-139v78h126q-7 15 -20 47z" />
    <glyph glyph-name="currency" unicode="&#xa4;" horiz-adv-x="499" 
d="M137 45l-82 40l55 104q-52 53 -52 141q0 89 52 142l-55 103l82 40l51 -100q38 8 61 8q31 0 60 -8l53 100l82 -40l-56 -103q54 -54 54 -142q0 -90 -55 -142l57 -103l-82 -40l-53 100q-24 -7 -60 -7t-60 7zM144 330q0 -59 28.5 -91t76.5 -32t77 32t29 91q0 60 -28.5 91.5
t-77.5 31.5q-48 0 -76.5 -32t-28.5 -91z" />
    <glyph glyph-name="brokenbar" unicode="&#xa6;" horiz-adv-x="228" 
d="M158 233v-383h-88v383h88zM70 703h88v-385h-88v385z" />
    <glyph glyph-name="section" unicode="&#xa7;" horiz-adv-x="457" 
d="M60 76l56 46q32 -60 111 -60q40 0 62.5 14.5t22.5 36.5t-25.5 39.5t-62 32t-73 32t-62 48.5t-25.5 73q0 58 49 104q-53 36 -53 85q0 68 50 103t115 35q59 0 106 -26t66 -66l-56 -46q-31 60 -111 60q-40 0 -62.5 -14.5t-22.5 -36.5t25.5 -39.5t62 -32t73 -32t62 -48.5
t25.5 -73q0 -57 -50 -105q54 -38 54 -84q0 -68 -50 -103t-115 -35q-59 0 -106 26t-66 66zM309 309q0 23 -22 43q-23 19 -88 48l-14 6q-38 -32 -38 -66q0 -21 18 -39q25 -25 96 -54l10 -4q38 30 38 66z" />
    <glyph glyph-name="copyright" unicode="&#xa9;" horiz-adv-x="579" 
d="M116 57q-71 73 -71 173t71 173q72 72 173 72t173 -72t72 -173t-72 -173t-173 -72t-173 72zM161 357q-52 -52 -52 -127q0 -76 52 -128q53 -53 128 -53t128 53q52 52 52 128q0 75 -52 127q-53 53 -128 53t-128 -53zM290 147q24 0 44.5 13.5t29.5 34.5l51 -31
q-18 -34 -52 -54.5t-73 -20.5q-57 0 -100 41q-41 43 -41 100q0 58 41 99q42 42 100 42q39 0 73 -21t52 -55l-51 -32q-10 22 -29.5 36t-44.5 14q-35 0 -58 -24t-23 -59t23 -59t58 -24z" />
    <glyph glyph-name="guillemotleft" unicode="&#xab;" horiz-adv-x="460" 
d="M213 5l-183 235l183 235l65 -48l-150 -187l150 -187zM292 240l128 -153l-62 -49l-163 202l163 192l62 -51z" />
    <glyph glyph-name="uni00AD" unicode="&#xad;" horiz-adv-x="435" 
d="M385 203h-335v78h335v-78z" />
    <glyph glyph-name="registered" unicode="&#xae;" horiz-adv-x="569" 
d="M399 114h-67l-32 75h-54v-75h-58v228h125q32 -1 54 -23.5t22 -53.5q0 -44 -37 -66zM330 265q0 35 -38 35h-46v-69h46q38 0 38 34zM111 57q-71 73 -71 173t71 173q72 72 173 72t173 -72t72 -173t-72 -173t-173 -72t-173 72zM156 357q-52 -52 -52 -127q0 -76 52 -128
q53 -53 128 -53t128 53q52 52 52 128q0 75 -52 127q-53 53 -128 53t-128 -53z" />
    <glyph glyph-name="degree" unicode="&#xb0;" horiz-adv-x="259" 
d="M244 550q0 -49 -32.5 -81.5t-82.5 -32.5q-48 0 -82 32q-32 32 -32 82t32 82q33 33 82 33t82 -32.5t33 -82.5zM75 550q0 -25 15 -39.5t39 -14.5t38.5 14.5t14.5 39.5q4 33 -24.5 46.5t-57 -0.5t-25.5 -46z" />
    <glyph glyph-name="plusminus" unicode="&#xb1;" horiz-adv-x="530" 
d="M221 326h-161v83h161v146h88v-146h161v-83h-161v-146h-88v146zM470 61h-410v83h410v-83z" />
    <glyph glyph-name="paragraph" unicode="&#xb6;" horiz-adv-x="521" 
d="M210 703h86v-853h-86v483q-76 0 -131 54q-54 55 -54 131t54 130q55 55 131 55zM360 703h91v-853h-91v853z" />
    <glyph glyph-name="guillemotright" unicode="&#xbb;" horiz-adv-x="460" 
d="M181 427l65 48l184 -235l-184 -235l-65 48l151 187zM265 240l-163 -202l-62 49l128 153l-128 141l62 51z" />
    <glyph glyph-name="afii10023" unicode="&#x401;" horiz-adv-x="549" 
d="M504 0h-434v650h424v-83h-328v-195h273v-80h-273v-210h338v-82zM131 742q-16 17 -16 42t16 42q17 17 42 17t42 -17t17 -42t-17 -42q-17 -16 -42 -16t-42 16zM351 742q-16 17 -16 42t16 42q17 17 42 17t42 -17t17 -42t-17 -42q-17 -16 -42 -16t-42 16z" />
    <glyph glyph-name="afii10051" unicode="&#x402;" horiz-adv-x="686" 
d="M40 650h417v-78h-163v-201q21 51 62.5 77.5t91.5 26.5q168 0 168 -200v-132q0 -158 -127 -158q-42 0 -61 13l13 68q15 -6 33 -6q51 0 51 83v117q0 73 -22 105.5t-76 32.5q-57 0 -94 -46t-39 -111v-241h-91v572h-163v78z" />
    <glyph glyph-name="afii10052" unicode="&#x403;" horiz-adv-x="509" 
d="M283 924h99l-90 -204h-77q67 204 68 204zM70 650h399v-83h-303v-567h-96v650z" />
    <glyph glyph-name="afii10053" unicode="&#x404;" horiz-adv-x="651" 
d="M353 585q-84 0 -142 -56t-70 -154h306l2 -75h-311q8 -114 66 -175q60 -61 149 -61q114 0 179 104l74 -48q-82 -135 -253 -135q-141 0 -225 91q-83 92 -83 249q0 156 83 248q84 92 225 92q167 0 252 -130l-73 -53q-64 103 -179 103z" />
    <glyph glyph-name="afii10054" unicode="&#x405;" horiz-adv-x="594" 
d="M549 180q0 -93 -73 -144q-74 -51 -181 -51q-72 0 -144 26q-70 25 -108 88l62 63q30 -43 81.5 -66.5t108.5 -23.5q71 0 112 28.5t41 79.5q0 43 -32 66q-33 24 -110 44q-82 21 -145 49q-48 24 -69.5 58t-25.5 93q0 81 62 128t170 47q154 0 225 -77l-56 -69q-73 62 -169 62
q-61 0 -96 -25t-35 -65q0 -44 29 -65q28 -19 109 -42l15 -4l50 -14q20 -6 46 -15q32 -12 44 -19q50 -30 65 -57q24 -42 24 -95z" />
    <glyph glyph-name="uni0406" unicode="&#x406;" horiz-adv-x="236" 
d="M70 650h96v-650h-96v650z" />
    <glyph glyph-name="afii10056" unicode="&#x407;" horiz-adv-x="236" 
d="M-9 747q-17 17 -17 42t17 42t42 17t41 -17q17 -17 17 -42t-17 -42q-16 -16 -41 -16t-42 16zM161 747q-17 17 -17 42t17 42t42 17t41 -17q17 -17 17 -42t-17 -42q-16 -16 -41 -16t-42 16zM70 650h96v-650h-96v650z" />
    <glyph glyph-name="afii10057" unicode="&#x408;" horiz-adv-x="388" 
d="M222 650h96v-470q0 -95 -44.5 -145t-123.5 -50q-73 0 -120 40l33 78q43 -31 78 -31q81 0 81 130v448z" />
    <glyph glyph-name="afii10058" unicode="&#x409;" horiz-adv-x="938" 
d="M151 650h397v-231h102q117 0 182.5 -53.5t65.5 -159.5q0 -206 -248 -206h-193v572h-219v-159q0 -189 -33 -295q-36 -120 -144 -132q-16 -2 -51 1v77q31 -2 43 1q23 4 41 22q27 27 45 110q7 31 8 74q3 47 3 69q1 15 1 67v243zM628 344h-80v-269h80q89 0 134 27t45 104
q0 75 -44 106.5t-135 31.5z" />
    <glyph glyph-name="afii10059" unicode="&#x40a;" horiz-adv-x="929" 
d="M449 650h90v-231h102q117 0 182.5 -53.5t65.5 -159.5q0 -206 -248 -206h-192v295h-288v-295h-91v650h91v-283h288v283zM619 344h-80v-269h80q89 0 134 27t45 104q0 75 -44 106.5t-135 31.5z" />
    <glyph glyph-name="afii10060" unicode="&#x40b;" horiz-adv-x="686" 
d="M40 650h417v-78h-163v-201q21 51 62.5 77.5t91.5 26.5q168 0 168 -200v-275h-91v260q0 73 -22 105.5t-76 32.5q-57 0 -94 -46t-39 -111v-241h-91v572h-163v78z" />
    <glyph glyph-name="afii10061" unicode="&#x40c;" horiz-adv-x="623" 
d="M70 650h96v-306l280 306h117l-296 -310v-7l326 -333h-125l-302 324v-324h-96v650zM323 924h99l-90 -204h-77q67 204 68 204z" />
    <glyph glyph-name="afii10062" unicode="&#x40e;" horiz-adv-x="627" 
d="M499 650h97l-305 -650h-104l90 180l-247 470h105l191 -371zM401 862h91q0 -83 -50 -122q-50 -38 -121 -38q-70 0 -120 38q-49 39 -49 122h90q0 -92 80 -92q79 0 79 92z" />
    <glyph glyph-name="afii10145" unicode="&#x40f;" horiz-adv-x="660" 
d="M166 82h328v568h96v-650h-212v-156h-96v156h-212v650h96v-568z" />
    <glyph glyph-name="afii10017" unicode="&#x410;" horiz-adv-x="657" 
d="M637 0h-98l-62 138h-299l-60 -138h-98l305 670h6zM447 210l-120 274l-118 -274h238z" />
    <glyph glyph-name="afii10018" unicode="&#x411;" horiz-adv-x="601" 
d="M70 650h429v-83h-333v-163h150q113 0 176.5 -48.5t63.5 -149.5q0 -107 -67 -156q-68 -50 -173 -50h-246v650zM286 324h-120v-244h120q91 0 132.5 27.5t41.5 98.5q0 77 -50 98q-41 20 -124 20z" />
    <glyph glyph-name="afii10019" unicode="&#x412;" horiz-adv-x="615" 
d="M339 0h-269v650h243q111 0 168.5 -41.5t57.5 -117.5q0 -54 -27 -94.5t-79 -52.5v-5q64 -9 100.5 -54t36.5 -105q0 -83 -59.5 -131.5t-171.5 -48.5zM315 294h-149v-219h159q147 0 147 111q0 108 -157 108zM166 575v-204h129q76 0 111.5 26t35.5 82q0 96 -143 96h-133z" />
    <glyph glyph-name="afii10020" unicode="&#x413;" horiz-adv-x="509" 
d="M70 650h399v-83h-303v-567h-96v650z" />
    <glyph glyph-name="afii10021" unicode="&#x414;" horiz-adv-x="691" 
d="M111 -156h-96v238h20q120 0 120 376v192h445v-568h76v-238h-96v156h-469v-156zM504 567h-256v-80q0 -64 -1 -85q0 -24 -5 -94q-5 -65 -13 -102q-24 -103 -73 -124h348v485z" />
    <glyph glyph-name="afii10022" unicode="&#x415;" horiz-adv-x="549" 
d="M504 0h-434v650h424v-83h-328v-195h273v-80h-273v-210h338v-82z" />
    <glyph glyph-name="afii10024" unicode="&#x416;" horiz-adv-x="920" 
d="M171 650l241 -306v306h96v-306l240 306h117l-258 -310v-7l283 -333h-125l-257 324v-324h-96v324l-258 -324h-124l282 333v7l-258 310h117z" />
    <glyph glyph-name="afii10025" unicode="&#x417;" horiz-adv-x="620" 
d="M44 106l60 61q82 -97 195 -97q82 0 129 33t47 90q0 72 -59 96q-46 19 -117 19h-58v79h53q152 0 152 100q0 96 -153 96q-50 0 -96 -22.5t-76 -65.5l-60 60q40 59 108 85q66 25 134 25q113 0 177 -44.5t64 -124.5q0 -55 -29.5 -94.5t-86.5 -47.5v-6q147 -26 147 -159
q0 -85 -69 -145q-68 -59 -199 -59q-178 0 -263 121z" />
    <glyph glyph-name="afii10026" unicode="&#x418;" horiz-adv-x="684" 
d="M518 0v460l-443 -480h-5v670h96v-459l443 479h5v-670h-96z" />
    <glyph glyph-name="afii10027" unicode="&#x419;" horiz-adv-x="684" 
d="M421 862h90q0 -83 -50 -122q-50 -38 -121 -38q-70 0 -120 38q-49 39 -49 122h91q0 -92 79 -92q80 0 80 92zM518 0v460l-443 -480h-5v670h96v-459l443 479h5v-670h-96z" />
    <glyph glyph-name="afii10028" unicode="&#x41a;" horiz-adv-x="623" 
d="M70 650h96v-306l280 306h117l-296 -310v-7l326 -333h-125l-302 324v-324h-96v650z" />
    <glyph glyph-name="afii10029" unicode="&#x41b;" horiz-adv-x="673" 
d="M507 567h-264v-154q0 -189 -36 -296q-38 -119 -146 -131q-16 -2 -51 1v82q31 -2 43 1q23 4 41 22q27 27 45 110q7 31 8 74q3 46 3 69q1 15 1 67v238h452v-650h-96v567z" />
    <glyph glyph-name="afii10030" unicode="&#x41c;" horiz-adv-x="786" 
d="M396 132h-6l-224 297v-429h-96v670h5l318 -407l318 407h5v-670h-95v429z" />
    <glyph glyph-name="afii10031" unicode="&#x41d;" horiz-adv-x="664" 
d="M499 292h-333v-292h-96v650h96v-280h333v280h95v-650h-95v292z" />
    <glyph glyph-name="afii10032" unicode="&#x41e;" horiz-adv-x="717" 
d="M129 77q-84 93 -84 248t84 247q85 93 229 93t229 -93q85 -91 85 -247t-85 -248q-86 -92 -229 -92t-229 92zM143 325q0 -117 58 -187q59 -69 157 -69t157 69q59 70 59 187q0 118 -58.5 186.5t-157.5 68.5q-98 0 -157 -69q-58 -67 -58 -186z" />
    <glyph glyph-name="afii10033" unicode="&#x41f;" horiz-adv-x="667" 
d="M501 567h-335v-567h-96v650h527v-650h-96v567z" />
    <glyph glyph-name="afii10034" unicode="&#x420;" horiz-adv-x="581" 
d="M288 231h-122v-231h-96v650h218q248 0 248 -206q0 -106 -65.5 -159.5t-182.5 -53.5zM166 569v-259h100q90 0 132 30.5t42 103.5q0 70 -41.5 97.5t-132.5 27.5h-100z" />
    <glyph glyph-name="afii10035" unicode="&#x421;" horiz-adv-x="661" 
d="M143 325q0 -125 61 -190q62 -66 156 -66q119 0 184 101l72 -51q-83 -134 -257 -134q-143 0 -228 90q-86 91 -86 246q0 156 86 250q85 94 227 94q169 0 253 -130l-72 -54q-63 99 -181 99q-94 0 -155 -67q-60 -66 -60 -188z" />
    <glyph glyph-name="afii10036" unicode="&#x422;" horiz-adv-x="597" 
d="M40 650h517v-83h-211v-567h-96v567h-210v83z" />
    <glyph glyph-name="afii10037" unicode="&#x423;" horiz-adv-x="627" 
d="M499 650h97l-305 -650h-104l90 180l-247 470h105l191 -371z" />
    <glyph glyph-name="afii10038" unicode="&#x424;" horiz-adv-x="762" 
d="M334 581v69h96v-69q138 0 217.5 -66t79.5 -190t-79.5 -189.5t-217.5 -65.5v-70h-96v70q-140 0 -219.5 65.5t-79.5 189.5q0 127 81 191q82 65 218 65zM334 150v350q-101 0 -152 -42t-51 -133t51 -133t152 -42zM430 500v-350q101 0 151 42t50 133t-49.5 133t-151.5 42z" />
    <glyph glyph-name="afii10039" unicode="&#x425;" horiz-adv-x="658" 
d="M142 0h-112l243 335l-223 315h117l162 -247l167 247h112l-225 -312l245 -338h-117l-183 265z" />
    <glyph glyph-name="afii10040" unicode="&#x426;" horiz-adv-x="681" 
d="M570 0h-500v650h96v-568h328v568h96v-568h76v-238h-96v156z" />
    <glyph glyph-name="afii10041" unicode="&#x427;" horiz-adv-x="620" 
d="M51 432l-1 218h96v-185q0 -107 42 -142q37 -27 101 -27q91 0 165 59v295h96v-650h-96v277q-86 -62 -185 -62q-44 0 -80.5 10.5t-68.5 34t-50.5 67.5t-18.5 105z" />
    <glyph glyph-name="afii10042" unicode="&#x428;" horiz-adv-x="904" 
d="M500 82h238v568h96v-650h-764v650h96v-568h238v568h96v-568z" />
    <glyph glyph-name="afii10043" unicode="&#x429;" horiz-adv-x="925" 
d="M500 82h238v568h96v-568h76v-238h-96v156h-744v650h96v-568h238v568h96v-568z" />
    <glyph glyph-name="afii10044" unicode="&#x42a;" horiz-adv-x="657" 
d="M146 565h-131v85h227v-221h123q117 0 184.5 -56t67.5 -162q0 -105 -67 -158t-185 -53h-219v565zM342 349h-100v-269h100q89 0 134 27t45 104q0 75 -44 106.5t-135 31.5z" />
    <glyph glyph-name="afii10045" unicode="&#x42b;" horiz-adv-x="806" 
d="M640 650h96v-650h-96v650zM70 650h96v-221h117q117 0 185 -56t68 -162q0 -105 -67 -158t-186 -53h-213v650zM261 349h-95v-269h95q89 0 134 27t45 104q0 75 -44 106.5t-135 31.5z" />
    <glyph glyph-name="afii10046" unicode="&#x42c;" horiz-adv-x="581" 
d="M70 650h96v-221h122q117 0 185 -56t68 -162q0 -105 -67 -158t-186 -53h-218v650zM266 349h-100v-269h100q89 0 134 27t45 104q0 75 -44 106.5t-135 31.5z" />
    <glyph glyph-name="afii10047" unicode="&#x42d;" horiz-adv-x="661" 
d="M517 300h-311v75h309q-11 98 -65 151.5t-139 53.5q-126 0 -189 -99l-72 54q84 130 261 130q142 0 223 -91q82 -91 82 -249q0 -157 -83 -249q-82 -91 -226 -91q-179 0 -262 134l72 51q65 -101 189 -101q92 0 148.5 60.5t62.5 170.5z" />
    <glyph glyph-name="afii10048" unicode="&#x42e;" horiz-adv-x="952" 
d="M291 292h-125v-292h-96v650h96v-280h126q12 135 95 215t211 80q138 0 224 -93q85 -92 85 -247t-85 -247q-86 -93 -224 -93q-130 0 -215 83q-83 85 -92 224zM598 69q96 0 153 69q58 70 58 187q0 119 -58 186q-57 69 -153 69q-95 0 -154 -68q-58 -67 -58 -187
q0 -121 58 -188q59 -68 154 -68z" />
    <glyph glyph-name="afii10049" unicode="&#x42f;" horiz-adv-x="616" 
d="M546 0h-96v226h-128q-20 0 -38 2l-135 -228h-114l156 249q-57 24 -89 73t-32 119q0 105 66 157t186 52h224v-650zM345 305h105v264h-105q-92 0 -135.5 -29t-43.5 -99q0 -73 44 -104.5t135 -31.5z" />
    <glyph glyph-name="afii10065" unicode="&#x430;" horiz-adv-x="505" 
d="M113 349l-42 60q79 66 178 66q90 0 138 -47t48 -141v-287h-81l-2 57q-66 -72 -165 -72q-70 0 -111 37.5t-41 99.5q-4 101 107 144q30 13 67 17q59 8 135 8q2 50 -24.5 79.5t-74.5 29.5q-73 0 -132 -51zM344 121v105q-123 0 -169 -25q-45 -25 -45 -73q0 -69 84 -69
q71 0 130 62z" />
    <glyph glyph-name="afii10066" unicode="&#x431;" horiz-adv-x="562" 
d="M281 -15q-115 0 -175.5 73.5t-60.5 206.5q0 363 249 390l180 17v-87l-163 -12q-82 -9 -124.5 -53.5t-58.5 -128.5l7 -1q25 39 67 59.5t87 20.5q104 0 165 -67q63 -67 63 -176t-64 -176q-65 -66 -172 -66zM281 63q67 0 106 45.5t39 118.5t-39 119.5t-106 46.5t-106 -48
q-39 -47 -39 -118q0 -72 39.5 -118t105.5 -46z" />
    <glyph glyph-name="afii10067" unicode="&#x432;" horiz-adv-x="496" 
d="M291 0h-221v460h208q72 0 112 -28.5t40 -82.5q0 -38 -23.5 -66t-59.5 -33v-6q47 -2 78 -33.5t31 -83.5q0 -60 -42.5 -93.5t-122.5 -33.5zM263 210h-102v-143h116q84 0 84 72q0 33 -26.5 52t-71.5 19zM270 393h-109v-115h98q77 0 77 57q0 58 -66 58z" />
    <glyph glyph-name="afii10068" unicode="&#x433;" horiz-adv-x="406" 
d="M371 384h-210v-384h-91v460h301v-76z" />
    <glyph glyph-name="afii10069" unicode="&#x434;" horiz-adv-x="567" 
d="M15 -137v211h21q27 0 51.5 30t35.5 80q13 55 14 276h337v-385h63v-211h-88v136h-346v-137h-88zM382 75v309h-162q0 -17 -1 -50q0 -37 -2 -81q-9 -135 -61 -178h226z" />
    <glyph glyph-name="afii10070" unicode="&#x435;" horiz-adv-x="533" 
d="M45 230q0 110 64 177q65 68 158 68q106 0 163.5 -63.5t57.5 -178.5v-30h-352q2 -63 42.5 -102t103.5 -39q89 0 143 64l54 -52q-68 -89 -198 -89q-112 0 -174 66t-62 179zM270 398q-51 0 -87 -34t-44 -93h259q-10 127 -128 127z" />
    <glyph glyph-name="afii10072" unicode="&#x436;" horiz-adv-x="735" 
d="M150 460l172 -215v215h91v-215l171 215h111l-192 -216v-6l202 -238h-118l-174 230v-230h-91v230l-174 -230h-118l202 238v6l-192 216h110z" />
    <glyph glyph-name="afii10073" unicode="&#x437;" horiz-adv-x="486" 
d="M40 74l49 54q58 -70 147 -70q114 0 114 83q0 69 -108 69h-64v68h60q91 0 91 60q0 64 -101 64q-33 0 -68 -16t-56 -42l-48 55q64 76 182 76q84 0 135 -35t51 -94q0 -29 -23 -60q-22 -29 -62 -34v-4q49 -3 78 -35t29 -81q0 -64 -53 -105.5t-153 -41.5q-135 0 -200 89z" />
    <glyph glyph-name="afii10074" unicode="&#x438;" horiz-adv-x="548" 
d="M161 460v-299l311 319h6v-480h-91v299l-311 -319h-6v480h91z" />
    <glyph glyph-name="afii10075" unicode="&#x439;" horiz-adv-x="548" 
d="M161 460v-299l311 319h6v-480h-91v299l-311 -319h-6v480h91zM341 656h77q0 -144 -141 -144q-139 0 -139 144h77q0 -79 63 -79t63 79z" />
    <glyph glyph-name="afii10076" unicode="&#x43a;" horiz-adv-x="505" 
d="M70 460h91v-215l191 215h113l-206 -217v-6l221 -237h-118l-201 230v-230h-91v460z" />
    <glyph glyph-name="afii10077" unicode="&#x43b;" horiz-adv-x="537" 
d="M375 0v384h-161v-41q0 -38 -1 -50q0 -5 -2 -51q-1 -28 -5 -56q-8 -62 -24 -103q-44 -109 -162 -93v77q44 -5 67 22.5t32 87.5q11 66 11 283h337v-460h-92z" />
    <glyph glyph-name="afii10078" unicode="&#x43c;" horiz-adv-x="654" 
d="M614 0h-89l-47 272l-151 -287h-5l-150 287l-49 -272h-88l95 480h6l189 -350l188 350h6z" />
    <glyph glyph-name="afii10079" unicode="&#x43d;" horiz-adv-x="543" 
d="M382 200h-221v-200h-91v460h91v-185h221v185h91v-460h-91v200z" />
    <glyph glyph-name="afii10080" unicode="&#x43e;" horiz-adv-x="564" 
d="M45 230q0 109 65 177t172 68t172 -68t65 -177q0 -110 -65 -178q-64 -67 -172 -67q-109 0 -173 67t-64 178zM136 230q0 -71 39 -119q41 -48 107 -48q67 0 106 48q40 47 40 119q0 74 -39.5 121t-106.5 47q-66 0 -106 -47.5t-40 -120.5z" />
    <glyph glyph-name="afii10081" unicode="&#x43f;" horiz-adv-x="540" 
d="M379 384h-218v-384h-91v460h400v-460h-91v384z" />
    <glyph glyph-name="afii10082" unicode="&#x440;" 
d="M70 460h83v-84q26 49 70.5 74t96.5 25q97 0 155 -67q58 -65 58 -178q0 -112 -58 -178t-155 -66q-113 0 -159 85v-255h-91v644zM157 230q0 -76 38 -121.5t104 -45.5q65 0 103 46.5t38 120.5t-38 121t-103 47q-64 0 -102.5 -46t-39.5 -122z" />
    <glyph glyph-name="afii10083" unicode="&#x441;" horiz-adv-x="518" 
d="M283 63q89 0 129 61l61 -51q-66 -88 -190 -88q-109 0 -173 67q-65 68 -65 176q0 110 65 178q66 69 173 69q121 0 187 -88l-60 -51q-42 62 -127 62q-67 0 -107 -49q-40 -47 -40 -119t40 -119q41 -48 107 -48z" />
    <glyph glyph-name="afii10084" unicode="&#x442;" horiz-adv-x="480" 
d="M194 0v384h-154v76h400v-76h-155v-384h-91z" />
    <glyph glyph-name="afii10085" unicode="&#x443;" horiz-adv-x="513" 
d="M394 460h94l-248 -644h-101l77 184l-191 460h100l140 -361z" />
    <glyph glyph-name="afii10086" unicode="&#x444;" horiz-adv-x="839" 
d="M465 -184h-91v250q-42 -81 -127 -81q-90 0 -141 65.5t-51 179.5t51 179.5t141 65.5q81 0 127 -79v254h91v-254q46 79 126 79q90 0 141.5 -65.5t51.5 -179.5q0 -113 -51.5 -179t-141.5 -66q-84 0 -126 81v-250zM579 400q-51 0 -82.5 -45t-33.5 -125q0 -82 29.5 -126
t86.5 -44q52 0 82 44.5t30 125.5t-30 125.5t-82 44.5zM260 60q56 0 86 44.5t30 125.5q-2 79 -34 124.5t-82 45.5q-52 0 -82 -44.5t-30 -125.5t30 -125.5t82 -44.5z" />
    <glyph glyph-name="afii10087" unicode="&#x445;" horiz-adv-x="511" 
d="M137 0h-107l173 240l-158 220h107l103 -160l103 160h108l-160 -220l175 -240h-108l-118 179z" />
    <glyph glyph-name="afii10088" unicode="&#x446;" horiz-adv-x="574" 
d="M161 460v-385h217v385h91v-385h75v-211h-88v136h-386v460h91z" />
    <glyph glyph-name="afii10089" unicode="&#x447;" horiz-adv-x="498" 
d="M337 252v208h91v-460h-91v183q-56 -37 -122 -37q-49 0 -87 15q-83 37 -83 161v138h91v-122q0 -66 22 -92.5t76 -26.5q44 0 103 33z" />
    <glyph glyph-name="afii10090" unicode="&#x448;" horiz-adv-x="728" 
d="M161 460v-385h157v385h92v-385h157v385h91v-460h-588v460h91z" />
    <glyph glyph-name="afii10091" unicode="&#x449;" horiz-adv-x="758" 
d="M658 460v-387h75v-209h-88v136h-575v460h91v-387h157v387h92v-387h157v387h91z" />
    <glyph glyph-name="afii10092" unicode="&#x44a;" horiz-adv-x="526" 
d="M303 0h-181v382h-102v78h194v-148h89q188 0 188 -152q0 -79 -49.5 -119.5t-138.5 -40.5zM214 242v-169h92q46 0 70.5 23t24.5 64q0 82 -95 82h-92z" />
    <glyph glyph-name="afii10093" unicode="&#x44b;" horiz-adv-x="661" 
d="M591 0h-92v460h92v-460zM243 0h-173v460h92v-148h81q188 0 188 -152q0 -79 -49.5 -119.5t-138.5 -40.5zM162 242v-169h85q45 0 69.5 22.5t24.5 64.5q0 82 -94 82h-85z" />
    <glyph glyph-name="afii10094" unicode="&#x44c;" horiz-adv-x="474" 
d="M251 0h-181v460h92v-148h89q188 0 188 -152q0 -79 -49.5 -119.5t-138.5 -40.5zM162 242v-169h92q46 0 70.5 23t24.5 64q0 82 -95 82h-92z" />
    <glyph glyph-name="afii10095" unicode="&#x44d;" horiz-adv-x="518" 
d="M380 204h-204v68h204q-4 57 -43 91.5t-97 34.5q-89 0 -133 -62l-58 51q66 88 191 88q109 0 171 -64t62 -180q0 -113 -64 -180q-63 -66 -171 -66q-61 0 -112 23.5t-81 64.5l60 51q43 -61 133 -61q60 0 100 40t42 101z" />
    <glyph glyph-name="afii10096" unicode="&#x44e;" horiz-adv-x="750" 
d="M244 200h-83v-200h-91v460h91v-185h85q13 93 73.5 146.5t153.5 53.5q107 0 169 -68q63 -67 63 -177t-62 -178q-61 -67 -170 -67q-99 0 -160 58t-69 157zM473 63q65 0 103 46.5t38 120.5t-38 121t-103 47t-103 -47t-38 -121q0 -73 38 -120t103 -47z" />
    <glyph glyph-name="afii10097" unicode="&#x44f;" horiz-adv-x="508" 
d="M35 0l136 178v4q-46 10 -73.5 44.5t-27.5 86.5q0 71 48 109q50 38 117 38h203v-460h-91v169h-85l-120 -169h-107zM165 312q0 -76 97 -76h85v151h-75q-107 0 -107 -75z" />
    <glyph glyph-name="afii10071" unicode="&#x451;" horiz-adv-x="533" 
d="M45 230q0 110 64 177q65 68 158 68q106 0 163.5 -63.5t57.5 -178.5v-30h-352q2 -63 42.5 -102t103.5 -39q89 0 143 64l54 -52q-68 -89 -198 -89q-112 0 -174 66t-62 179zM270 398q-51 0 -87 -34t-44 -93h259q-10 127 -128 127zM108 577q-17 17 -17 42t17 42t42 17t41 -17
q17 -17 17 -42t-17 -42q-16 -16 -41 -16t-42 16zM348 577q-17 17 -17 42t17 42t42 17t41 -17q17 -17 17 -42t-17 -42q-16 -16 -41 -16t-42 16z" />
    <glyph glyph-name="afii10099" unicode="&#x452;" horiz-adv-x="611" 
d="M50 509v71h78v70h91v-70h100v-71h-100v-138q21 51 62.5 77.5t91.5 26.5q168 0 168 -200v-305q0 -158 -127 -158q-42 0 -61 13l13 68q15 -6 33 -6q51 0 51 83v290q0 73 -22 105.5t-76 32.5q-57 0 -94 -46q-38 -46 -39 -111v-241h-91v509h-78z" />
    <glyph glyph-name="afii10100" unicode="&#x453;" horiz-adv-x="416" 
d="M381 384h-220v-384h-91v460h311v-76zM229 736h94l-90 -204h-67q62 204 63 204z" />
    <glyph glyph-name="afii10101" unicode="&#x454;" horiz-adv-x="518" 
d="M283 398q-56 0 -94 -34.5t-49 -91.5h202v-68h-205q7 -63 46.5 -102t99.5 -39q89 0 129 61l61 -51q-66 -88 -190 -88q-109 0 -173 67q-65 68 -65 178q0 109 65 177q66 68 173 68q121 0 187 -88l-60 -51q-42 62 -127 62z" />
    <glyph glyph-name="afii10102" unicode="&#x455;" horiz-adv-x="473" 
d="M409 421l-39 -64q-67 46 -134 46q-39 0 -64.5 -15.5t-25.5 -44.5q0 -22 25 -39q2 -1 40 -15q1 0 23.5 -5.5t30.5 -7.5q72 -19 113 -44q50 -29 50 -103q0 -63 -50.5 -103.5t-135.5 -40.5q-62 0 -115 23.5t-83 64.5l47 56q66 -71 151 -71q44 0 71.5 18t27.5 53q0 34 -32 49
q-21 10 -77 25q-24 6 -71 20q-25 9 -52 25q-50 29 -50 97q0 63 49.5 96.5t127.5 33.5q112 0 173 -54z" />
    <glyph glyph-name="afii10103" unicode="&#x456;" horiz-adv-x="244" 
d="M167 0h-91v460h91v-460zM80 577q-17 17 -17 42t17 42t42 17t41 -17q17 -17 17 -42t-17 -42q-16 -16 -41 -16t-42 16z" />
    <glyph glyph-name="afii10104" unicode="&#x457;" horiz-adv-x="231" 
d="M161 0h-91v460h91v-460zM-9 577q-17 17 -17 42t17 42t42 17t41 -17q17 -17 17 -42t-17 -42q-16 -16 -41 -16t-42 16zM156 577q-17 17 -17 42t17 42t42 17t41 -17q17 -17 17 -42t-17 -42q-16 -16 -41 -16t-42 16z" />
    <glyph glyph-name="afii10105" unicode="&#x458;" horiz-adv-x="237" 
d="M70 460h91v-490q0 -158 -127 -158q-42 0 -61 13l13 68q15 -6 33 -6q51 0 51 83v490zM73 577q-16 17 -16 42t16 42q17 17 42 17t42 -17t17 -42t-17 -42q-17 -16 -42 -16t-42 16z" />
    <glyph glyph-name="afii10106" unicode="&#x459;" horiz-adv-x="779" 
d="M556 0h-181v384h-161v-41q0 -38 -1 -50q0 -5 -2 -51q-1 -28 -5 -56q-8 -62 -24 -103q-44 -109 -162 -93v75q37 -4 58.5 16.5t33.5 66.5q11 38 16 132q2 54 2 74q1 23 1 67q1 23 1 39h335v-145h89q188 0 188 -155q0 -79 -49.5 -119.5t-138.5 -40.5zM467 242v-169h92
q46 0 70.5 23t24.5 64q0 82 -95 82h-92z" />
    <glyph glyph-name="afii10107" unicode="&#x45a;" horiz-adv-x="785" 
d="M562 0h-180v200h-221v-200h-91v460h91v-185h221v185h91v-145h89q188 0 188 -155q0 -79 -49.5 -119.5t-138.5 -40.5zM473 242v-169h92q46 0 70.5 23t24.5 64q0 82 -95 82h-92z" />
    <glyph glyph-name="afii10108" unicode="&#x45b;" horiz-adv-x="611" 
d="M50 509v71h78v70h91v-70h100v-71h-100v-138q21 51 62.5 77.5t91.5 26.5q168 0 168 -200v-275h-91v260q0 73 -22 105.5t-76 32.5q-57 0 -94 -46q-38 -46 -39 -111v-241h-91v509h-78z" />
    <glyph glyph-name="afii10109" unicode="&#x45c;" horiz-adv-x="505" 
d="M70 460h91v-215l191 215h113l-206 -217v-6l221 -237h-118l-201 230v-230h-91v460zM269 736h94l-90 -204h-67q62 204 63 204z" />
    <glyph glyph-name="afii10110" unicode="&#x45e;" horiz-adv-x="525" 
d="M401 460h94l-246 -644h-100l75 184l-189 460h98l139 -361zM331 656h77q0 -144 -141 -144q-139 0 -139 144h77q0 -79 63 -79t63 79z" />
    <glyph glyph-name="afii10193" unicode="&#x45f;" horiz-adv-x="540" 
d="M161 75h218v385h91v-460h-156v-136h-88v136h-156v460h91v-385z" />
    <glyph glyph-name="afii10050" unicode="&#x490;" horiz-adv-x="529" 
d="M400 650v156h89v-239h-323v-567h-96v650h330z" />
    <glyph glyph-name="afii10098" unicode="&#x491;" horiz-adv-x="431" 
d="M315 460v136h81v-212h-235v-384h-91v460h245z" />
    <glyph glyph-name="endash" unicode="&#x2013;" horiz-adv-x="515" 
d="M445 203h-375v78h375v-78z" />
    <glyph glyph-name="emdash" unicode="&#x2014;" horiz-adv-x="755" 
d="M635 203h-515v78h515v-78z" />
    <glyph glyph-name="quoteleft" unicode="&#x2018;" horiz-adv-x="202" 
d="M134 471h-99l70 204h62q-31 -204 -33 -204z" />
    <glyph glyph-name="quoteright" unicode="&#x2019;" horiz-adv-x="202" 
d="M68 650h99l-70 -204h-62q31 204 33 204z" />
    <glyph glyph-name="quotesinglbase" unicode="&#x201a;" horiz-adv-x="212" 
d="M68 94h99l-70 -204h-62q31 204 33 204z" />
    <glyph glyph-name="quotedblleft" unicode="&#x201c;" horiz-adv-x="342" 
d="M274 471h-99l70 204h62q-31 -204 -33 -204zM129 471h-99l70 204h62q-32 -204 -33 -204z" />
    <glyph glyph-name="quotedblright" unicode="&#x201d;" horiz-adv-x="342" 
d="M68 650h99l-70 -204h-62q31 204 33 204zM213 650h99l-70 -204h-62q32 204 33 204z" />
    <glyph glyph-name="quotedblbase" unicode="&#x201e;" horiz-adv-x="347" 
d="M68 94h99l-70 -204h-62q31 204 33 204zM213 94h99l-70 -204h-62q32 204 33 204z" />
    <glyph glyph-name="dagger" unicode="&#x2020;" horiz-adv-x="335" 
d="M131 506l-116 -8v78l116 -9l-9 133h89l-9 -133l118 9v-78l-118 8l9 -305h-89z" />
    <glyph glyph-name="daggerdbl" unicode="&#x2021;" horiz-adv-x="335" 
d="M131 506l-116 -8v78l116 -9l-9 133h89l-9 -133l118 9v-78l-118 8v-109l118 9v-78l-118 8l9 -135h-89l9 135l-116 -8v78l116 -9v109z" />
    <glyph glyph-name="bullet" unicode="&#x2022;" horiz-adv-x="330" 
d="M165 332q36 0 63 -26.5t27 -63.5q0 -38 -26.5 -64t-63.5 -26q-38 0 -64 26.5t-26 63.5t26 63.5t64 26.5z" />
    <glyph glyph-name="ellipsis" unicode="&#x2026;" horiz-adv-x="587" 
d="M61 11q-16 17 -16 42t16 42q17 17 42 17t42 -17t17 -42t-17 -42q-17 -16 -42 -16t-42 16zM441 11q-16 17 -16 42t16 42q17 17 42 17t42 -17t17 -42t-17 -42q-17 -16 -42 -16t-42 16zM251 11q-16 17 -16 42t16 42q17 17 42 17t42 -17t17 -42t-17 -42q-17 -16 -42 -16
t-42 16z" />
    <glyph glyph-name="perthousand" unicode="&#x2030;" horiz-adv-x="1190" 
d="M69 380q-44 47 -44 119t44 119t115 47t115 -47t44 -119t-44 -119t-115 -47t-115 47zM101 499q0 -40 22.5 -65.5t60.5 -25.5q37 0 60 25.5t23 65.5q0 41 -23 66t-60 25q-38 0 -60.5 -25t-22.5 -66zM514 670l77 -38l-298 -654l-77 37zM516 32q-44 47 -44 119t44 119t115 47
t115 -47t44 -119t-44 -119t-115 -47t-115 47zM548 151q0 -40 22.5 -65.5t60.5 -25.5q37 0 60 25.5t23 65.5q0 41 -23 66t-60 25q-38 0 -60.5 -25t-22.5 -66zM891 32q-44 47 -44 119t44 119t115 47t115 -47t44 -119t-44 -119t-115 -47t-115 47zM923 151q0 -40 22.5 -65.5
t60.5 -25.5q37 0 60 25.5t23 65.5q0 41 -23 66t-60 25q-38 0 -60.5 -25t-22.5 -66z" />
    <glyph glyph-name="guilsinglleft" unicode="&#x2039;" horiz-adv-x="328" 
d="M231 15l-206 225l206 225l57 -53l-163 -172l163 -172z" />
    <glyph glyph-name="guilsinglright" unicode="&#x203a;" horiz-adv-x="328" 
d="M40 412l57 53l206 -225l-206 -225l-57 53l163 172z" />
    <glyph glyph-name="Euro" unicode="&#x20ac;" horiz-adv-x="552" 
d="M95 226h-80v72h77v54h-77v71h80q9 120 66 181t152 61q150 0 198 -138l-85 -36q-28 91 -113 91q-56 0 -89 -40t-36 -119h172v-71h-175v-54h175v-72h-172q3 -79 36 -118.5t89 -39.5q85 0 113 90l85 -35q-48 -138 -198 -138q-95 0 -152 60.5t-66 180.5z" />
    <glyph glyph-name="afii61352" unicode="&#x2116;" horiz-adv-x="961" 
d="M704 362q-40 40 -40 96t40 96t96 40t96 -40t40 -96t-40 -96t-96 -40t-96 40zM869 458q0 28 -20.5 48.5t-48.5 20.5q-45 2 -64 -43t15 -75q30 -34 75 -15t43 64zM936 219h-272v62h272v-62zM614 -20h-5l-443 471v-451h-96v670h5l443 -470v450h96v-670z" />
    <glyph glyph-name="trademark" unicode="&#x2122;" horiz-adv-x="492" 
d="M293 650l53 -153l53 153h78v-231h-61v131l-46 -131h-47l-46 131v-131h-62v178h-68v-178h-62v178h-70v53h278z" />
    <glyph glyph-name="CR" unicode="&#xe000;" horiz-adv-x="333" 
 />
    <glyph glyph-name="CR.001" unicode="&#xe001;" horiz-adv-x="220" 
 />
    <glyph glyph-name="NULL" unicode="&#xe002;" horiz-adv-x="0" 
 />
    <glyph glyph-name="a.alt" unicode="&#xe003;" 
d="M424 376v84h84v-460h-91v71q-46 -85 -159 -85q-97 0 -155 66t-58 178q0 113 58 178q58 67 155 67q52 0 96.5 -25t69.5 -74zM421 230q-2 76 -41 122t-102 46q-65 0 -102.5 -47t-37.5 -121t37.5 -120.5t102.5 -46.5q67 0 105 45.5t38 121.5z" />
    <glyph glyph-name="asciitilde.2" unicode="&#xe004;" horiz-adv-x="612" 
d="M227 358l160 -53q52 -17 77 -1t23 66l80 -21q-6 -85 -52.5 -119.5t-129.5 -7.5l-160 53q-52 17 -77 -0.5t-23 -69.5l-80 21q13 177 182 132z" />
    <glyph glyph-name="bullet.2" unicode="&#xe005;" horiz-adv-x="330" 
d="M165 377q36 0 63 -26.5t27 -63.5q0 -38 -26.5 -64t-63.5 -26q-38 0 -64 26.5t-26 63.5t26 63.5t64 26.5z" />
    <glyph glyph-name="colon.2" unicode="&#xe006;" horiz-adv-x="227" 
d="M71 103q-16 17 -16 42t16 42q17 17 42 17t42 -17t17 -42t-17 -42q-17 -16 -42 -16t-42 16zM71 360q-16 17 -16 42t16 42q17 17 42 17t42 -17t17 -42t-17 -42q-17 -16 -42 -16t-42 16z" />
    <glyph glyph-name="emdash.2" unicode="&#xe007;" horiz-adv-x="755" 
d="M635 248h-515v78h515v-78z" />
    <glyph glyph-name="endash.2" unicode="&#xe008;" horiz-adv-x="515" 
d="M445 248h-375v78h375v-78z" />
    <glyph glyph-name="equal.2" unicode="&#xe009;" horiz-adv-x="495" 
d="M435 178h-375v78h375v-78zM435 323h-375v78h375v-78z" />
    <glyph glyph-name="g.alt" unicode="&#xe00a;" 
d="M424 376v84h84v-414q0 -119 -62.5 -182t-175.5 -63q-140 0 -198 100l58 48q47 -68 140 -68q147 0 147 165v25q-46 -85 -159 -85q-97 0 -155 66t-58 178q0 113 58 178q58 67 155 67q52 0 96.5 -25t69.5 -74zM421 230q-2 76 -41 122t-102 46q-65 0 -102.5 -47t-37.5 -121
t37.5 -120.5t102.5 -46.5q67 0 105 45.5t38 121.5z" />
    <glyph glyph-name="hyphen.2" unicode="&#xe00b;" horiz-adv-x="435" 
d="M385 248h-335v78h335v-78z" />
    <glyph glyph-name="middot" unicode="&#xe00c;" horiz-adv-x="257" 
d="M86 204q-16 17 -16 42t16 42q17 17 42 17t42 -17t17 -42t-17 -42q-17 -16 -42 -16t-42 16z" />
    <glyph glyph-name="periodcentered.2" unicode="&#xe00d;" horiz-adv-x="257" 
d="M86 244q-16 17 -16 42t16 42q17 17 42 17t42 -17t17 -42t-17 -42q-17 -16 -42 -16t-42 16z" />
    <glyph glyph-name="plus.2" unicode="&#xe00e;" horiz-adv-x="510" 
d="M211 248h-151v78h151v156h88v-156h151v-78h-151v-156h-88v156z" />
    <glyph glyph-name="plusminus.2" unicode="&#xe00f;" horiz-adv-x="530" 
d="M221 371h-161v83h161v146h88v-146h161v-83h-161v-146h-88v146zM470 106h-410v83h410v-83z" />
    <glyph glyph-name="uni00AD.2" unicode="&#xe010;" horiz-adv-x="435" 
d="M385 248h-335v78h335v-78z" />
    </font>
</defs>
</svg>
