<?xml version="1.0" encoding="utf-8"?>
<!-- Generator: Adobe Illustrator 17.1.0, SVG Export Plug-In . SVG Version: 6.00 Build 0)  -->
<!DOCTYPE svg PUBLIC "-//W3C//DTD SVG 1.1//EN" "http://www.w3.org/Graphics/SVG/1.1/DTD/svg11.dtd">
<svg version="1.1" id="Layer_1" xmlns="http://www.w3.org/2000/svg" xmlns:xlink="http://www.w3.org/1999/xlink" x="0px" y="0px"
	 viewBox="0 0 612 792" enable-background="new 0 0 612 792" xml:space="preserve">
<g>
	<path fill="#0022FF" d="M353.6,141.9c0,5.1,0,10.3,0,15.4c-6.9,24-22.5,39.2-46.3,46.3c-5.1,0-10.3,0-15.4,0
		c-23.8-7.1-39.4-22.3-46.3-46.3c0-5.1,0-10.3,0-15.4c6.9-24,22.5-39.2,46.3-46.3c5.1,0,10.3,0,15.4,0
		C331,102.7,346.7,117.9,353.6,141.9z M298.6,175.9c14.9,0.5,27.2-11.2,27.3-26c0.2-14.4-11.1-26.2-25.4-26.7
		c-14.9-0.5-27.1,11.2-27.3,26C273,163.6,284.3,175.4,298.6,175.9z"/>
</g>
</svg>
