<svg width="50" height="18" fill="none" xmlns="http://www.w3.org/2000/svg"><g clip-path="url(#clip0)" fill="#000"><path d="M28.513 16.556c-.375 0-.75-.075-1.127-.24-.375-.166-.704-.451-1.017-.842l1.033-.782c.157.195.345.36.564.496.219.12.438.195.672.195.204 0 .376-.045.501-.135a.423.423 0 0 0 .188-.36.362.362 0 0 0-.172-.302c-.125-.075-.282-.18-.485-.3l-.501-.301a2.149 2.149 0 0 1-.642-.586c-.156-.226-.219-.512-.219-.858 0-.255.063-.496.172-.706.11-.21.267-.406.454-.572.188-.165.423-.3.673-.39a2.27 2.27 0 0 1 .845-.151c.345 0 .673.075.986.24.313.15.595.361.83.647l-.892.812a3.17 3.17 0 0 0-.454-.36.974.974 0 0 0-.517-.136c-.203 0-.36.045-.47.15a.42.42 0 0 0-.156.331c0 .12.063.21.172.3.126.076.314.181.533.332l.532.315c.281.166.485.346.61.557.125.195.188.45.188.782 0 .255-.047.496-.157.722a2.13 2.13 0 0 1-.454.601 2.18 2.18 0 0 1-.72.391c-.297.105-.625.15-.97.15zm2.755-.09l1.252-6.015h1.44l-.314 1.399-.219.767h.032c.172-.15.39-.286.61-.391.235-.12.485-.166.751-.166.376 0 .642.09.814.286.172.18.25.466.25.842 0 .105 0 .195-.016.316 0 .105-.03.21-.046.316l-.564 2.676h-1.44l.517-2.511c.015-.075.031-.15.047-.21a.745.745 0 0 0 .031-.166c0-.12-.031-.21-.094-.27-.062-.06-.156-.09-.281-.09a.736.736 0 0 0-.376.12 2.116 2.116 0 0 0-.423.36l-.563 2.767h-1.408v-.03zm6.431.09c-.39 0-.704-.135-.923-.406-.219-.27-.328-.676-.328-1.188 0-.406.062-.797.203-1.142.125-.361.313-.662.532-.933.22-.27.47-.466.767-.616.282-.15.595-.24.892-.24.188 0 .376.044.548.15a.96.96 0 0 1 .39.39h.017l.203-.436h1.158l-.892 4.316h-1.174v-.541h-.015c-.204.195-.423.36-.673.481-.25.12-.485.165-.705.165zm.658-1.112c.125 0 .25-.03.391-.106.14-.075.282-.225.391-.466l.282-1.383a.519.519 0 0 0-.22-.256.595.595 0 0 0-.265-.075.736.736 0 0 0-.376.12 1.133 1.133 0 0 0-.328.331c-.094.15-.172.316-.22.511a2.857 2.857 0 0 0-.078.662c0 .226.032.39.11.496a.385.385 0 0 0 .313.166zm2.926 1.022l.877-4.316h1.173l-.031.842h.031c.172-.27.376-.51.626-.676.25-.18.501-.27.752-.27.125 0 .219.014.297.03a.54.54 0 0 1 .188.06l-.47 1.187a.534.534 0 0 0-.235-.06c-.078 0-.156-.015-.234-.015a.872.872 0 0 0-.532.18c-.157.12-.33.331-.501.617l-.485 2.421h-1.456zm3.6 0l1.252-6.015h1.44l-.69 3.248h.032l1.471-1.549h1.58l-1.846 1.925 1.064 2.406h-1.44l-.61-1.609-.61.587-.22 1.022h-1.423v-.015zM26.557 3.143c-.266 0-.516.06-.751.165-.235.106-.438.24-.61.391h-.032l.22-.767.312-1.398h-1.44l-1.251 6.015h1.44l.563-2.767c.156-.165.297-.286.422-.36a.736.736 0 0 1 .376-.121c.125 0 .219.03.282.09.062.06.093.15.093.27a.746.746 0 0 1-.03.166c-.016.06-.032.12-.048.21l-.516 2.512h1.44l.563-2.677c.031-.105.047-.21.047-.316.016-.105.016-.21.016-.315 0-.376-.079-.647-.25-.842-.204-.166-.47-.256-.846-.256zM21.08 3.038c.188 0 .36.045.516.135.157.09.313.21.454.36l.892-.811a2.604 2.604 0 0 0-.83-.647 2.265 2.265 0 0 0-1.83-.09 2.11 2.11 0 0 0-.673.39 1.818 1.818 0 0 0-.454.572c-.11.226-.172.451-.172.707 0 .346.078.632.219.857.156.226.375.406.641.587l.501.3c.204.12.36.226.485.301a.33.33 0 0 1 .173.301c0 .15-.063.27-.188.36-.125.091-.282.136-.501.136-.235 0-.454-.06-.673-.195a1.94 1.94 0 0 1-.563-.496l-1.033.781c.313.391.642.677 1.017.843.376.165.751.24 1.127.24.344 0 .657-.045.939-.15.282-.105.516-.226.72-.391.203-.166.344-.376.453-.602.11-.225.157-.466.157-.721 0-.331-.063-.587-.188-.782a1.656 1.656 0 0 0-.61-.557l-.532-.316c-.235-.15-.407-.255-.532-.33a.33.33 0 0 1-.172-.301.4.4 0 0 1 .156-.331.788.788 0 0 1 .5-.15zM31.706 3.248l-.204.436h-.015a.875.875 0 0 0-.391-.39 1.038 1.038 0 0 0-.548-.151c-.313 0-.61.075-.892.24-.282.15-.548.361-.767.617-.22.27-.391.571-.532.932-.141.361-.204.737-.204 1.143 0 .511.11.902.329 1.188.22.27.532.406.923.406.22 0 .438-.06.689-.165.25-.12.47-.27.673-.481h.015v.54h1.174l.892-4.315h-1.142zM30.86 5.97c-.126.24-.25.39-.392.466a.854.854 0 0 1-.39.105.37.37 0 0 1-.314-.15c-.078-.105-.11-.27-.11-.496 0-.24.032-.466.079-.662a2.7 2.7 0 0 1 .22-.511.976.976 0 0 1 .328-.331.736.736 0 0 1 .375-.12c.078 0 .172.03.266.075a.461.461 0 0 1 .22.256L30.86 5.97zM40.063 3.143c-.22 0-.439.045-.673.15-.235.106-.438.24-.642.421h-.016l-.03-.466h-1.175l-1.22 5.835h1.44l.219-1.068.11-.812h.015a.87.87 0 0 0 .36.346 1.1 1.1 0 0 0 .485.12c.313 0 .61-.075.892-.225.282-.15.548-.361.767-.632.219-.27.39-.571.532-.932.125-.361.203-.737.203-1.143 0-.511-.11-.902-.328-1.173-.235-.286-.533-.421-.94-.421zm-.313 2.42a1.553 1.553 0 0 1-.22.512.94.94 0 0 1-.312.331.736.736 0 0 1-.376.12.595.595 0 0 1-.266-.075.508.508 0 0 1-.203-.255l.313-1.474c.109-.196.234-.316.375-.376a.808.808 0 0 1 .391-.105c.126 0 .22.045.298.15.078.105.11.256.11.481-.032.27-.063.496-.11.692zM36.635 3.218a1.498 1.498 0 0 0-.297-.03c-.25 0-.5.09-.751.27a2.66 2.66 0 0 0-.626.677h-.031l.03-.842h-1.157l-.877 4.316h1.44l.485-2.421c.172-.286.345-.496.501-.617a.906.906 0 0 1 .532-.18c.078 0 .157 0 .235.015.094 0 .172.03.235.06l.47-1.188a.544.544 0 0 0-.189-.06zM15.743 7.564H13.49c0-2.978-2.52-5.399-5.618-5.399-3.099 0-5.618 2.421-5.618 5.399H0C0 3.399 3.537 0 7.872 0s7.871 3.398 7.871 7.564zM17.199 18c-4.132 0-7.496-3.399-7.496-7.564h2.253c0 2.978 2.348 5.399 5.243 5.399 2.895 0 5.242-2.421 5.242-5.399h2.254c0 4.18-3.35 7.564-7.496 7.564z"/><path d="M39.14 14.451c.276 0 .5-.215.5-.481a.491.491 0 0 0-.5-.481c-.277 0-.502.215-.502.48 0 .267.225.482.501.482z"/></g><defs><clipPath id="clip0"><path fill="#fff" d="M0 0h50v18H0z"/></clipPath></defs></svg>