<svg width="30" height="30" fill="none" xmlns="http://www.w3.org/2000/svg"><path d="M0 30h13.636V16.363H0V30zm2.727-10.91h8.182v8.162H2.727V19.09z" fill="#000"/><path d="M8.182 21.818H5.454v2.727h2.728v-2.727zM24.546 27.273h-2.728V30h2.727v-2.727zM30 27.273h-2.728V30H30v-2.727z" fill="#000"/><path d="M27.273 19.09h-2.728v-2.727h-8.182V30h2.728v-8.182h2.727v2.727H30v-8.182h-2.727v2.728zM0 13.637h13.636V0H0v13.637zm2.727-10.91h8.182v8.182H2.727V2.727z" fill="#000"/><path d="M8.182 5.455H5.454v2.727h2.728V5.454zM16.363 0v13.637H30V0H16.363zm10.91 10.909H19.09V2.727h8.181v8.182z" fill="#000"/><path d="M24.546 5.455h-2.728v2.727h2.727V5.454z" fill="#000"/></svg>