<svg width="145" height="145" fill="none" xmlns="http://www.w3.org/2000/svg"><path d="M89.708 11.758l-.38-9.866 1.502.443.093 5.072v3.217h.072c.323-.468.621-.91.896-1.33l.875-1.34 2.81-4.206 1.462.391-5.672 8.062-1.658-.443zM95.566 13.727l3.51-8.66 1.39.567-3.51 8.66-1.39-.567zM102 16.933a5.274 5.274 0 0 1-1.627-1.288 5.555 5.555 0 0 1-.937-1.598l1.184-.537c.179.499.436.965.762 1.382.331.427.748.778 1.225 1.03.428.263.933.372 1.431.31a1.253 1.253 0 0 0 .916-.68c.099-.174.155-.368.165-.567a1.254 1.254 0 0 0-.113-.536 2.485 2.485 0 0 0-.288-.495l-.402-.526-.813-.959a6.708 6.708 0 0 1-.608-.793 3.625 3.625 0 0 1-.401-.815 2.334 2.334 0 0 1-.124-.845c.018-.311.106-.615.258-.887.168-.324.412-.604.71-.814.292-.206.626-.344.978-.402a3.3 3.3 0 0 1 1.153 0c.432.083.849.232 1.235.443a4.423 4.423 0 0 1 1.39 1.155c.321.395.581.837.772 1.309l-1.142.495a3.902 3.902 0 0 0-.628-1.093 3.254 3.254 0 0 0-1.03-.825 2.057 2.057 0 0 0-1.287-.288 1.145 1.145 0 0 0-.864.65 1.027 1.027 0 0 0 0 .958c.195.373.437.72.72 1.03l.834.97c.233.275.446.54.638.793.181.242.323.51.422.794.093.272.128.56.103.846-.041.34-.149.67-.319.969a2.45 2.45 0 0 1-1.74 1.288c-.404.075-.82.075-1.225 0a4.689 4.689 0 0 1-1.348-.474zM106.807 19.51l5.148-7.783 1.245.825-5.147 7.783-1.246-.825zM113.139 24.5a4.483 4.483 0 0 1-1.133-1.413 3.964 3.964 0 0 1-.422-1.639 4.486 4.486 0 0 1 .319-1.762 6.105 6.105 0 0 1 1.03-1.784 5.982 5.982 0 0 1 1.606-1.392 4.379 4.379 0 0 1 1.667-.577 3.886 3.886 0 0 1 1.668.165 4.838 4.838 0 0 1 2.697 2.289c.262.505.413 1.06.443 1.628a4.333 4.333 0 0 1-.288 1.753 6.008 6.008 0 0 1-1.03 1.763c-.444.54-.977 1-1.575 1.36a4.389 4.389 0 0 1-1.699.599 4.011 4.011 0 0 1-1.688-.155 4.422 4.422 0 0 1-1.595-.835zm.813-.97a2.472 2.472 0 0 0 2.213.588 4.238 4.238 0 0 0 2.316-1.546 4.125 4.125 0 0 0 1.122-2.515 2.718 2.718 0 0 0-3.15-2.67c-.913.231-1.72.77-2.285 1.525a4.254 4.254 0 0 0-1.143 2.536 2.485 2.485 0 0 0 .927 2.082zM118.049 28.665l7.083-6.083 1.029 1.155-1.946 6.185-.813 2.124v.051l1.091-1.103c.392-.398.779-.762 1.164-1.092l3.325-2.856.906 1.03-7.083 6.083-.978-1.134 1.935-6.185.803-2.082v-.052l-1.132 1.082c-.377.385-.755.729-1.132 1.031l-3.346 2.876-.906-1.03zM127.18 36.097a1.966 1.966 0 0 1-.298-.732 1.936 1.936 0 0 1 0-.773c.06-.27.171-.525.329-.752a2.3 2.3 0 0 1 .649-.63 2.37 2.37 0 0 1 .834-.36c.268-.054.544-.054.813 0 .255.052.5.15.72.289a1.9 1.9 0 0 1 .855 1.289 2.15 2.15 0 0 1 0 .783c-.058.27-.17.526-.33.752a2.387 2.387 0 0 1-.648.63c-.249.168-.529.287-.824.35a2.13 2.13 0 0 1-.813 0 1.912 1.912 0 0 1-.731-.3 2.001 2.001 0 0 1-.556-.546zM128.302 43.478a5.294 5.294 0 0 1-.607-1.99 5.537 5.537 0 0 1 .134-1.845l1.276.227a4.99 4.99 0 0 0-.154 1.577c.034.537.181 1.06.432 1.536.217.45.58.814 1.03 1.031a1.252 1.252 0 0 0 1.142 0c.178-.087.333-.214.453-.37a1.22 1.22 0 0 0 .206-.475 2.424 2.424 0 0 0 0-.577v-.67l-.123-1.258a6.46 6.46 0 0 1-.052-1.031c.007-.303.052-.605.134-.897a2.29 2.29 0 0 1 .381-.773c.189-.247.432-.448.71-.588a2.285 2.285 0 0 1 1.03-.278c.355-.003.707.075 1.029.227.349.166.666.393.937.67.308.302.568.65.772 1.03.299.541.481 1.138.535 1.753.04.508.005 1.018-.103 1.516l-1.225-.237c.098-.408.13-.83.093-1.248a3.235 3.235 0 0 0-.371-1.247 2.06 2.06 0 0 0-.895-.97 1.142 1.142 0 0 0-1.03 0 1.038 1.038 0 0 0-.576.764 4.884 4.884 0 0 0 0 1.278l.134 1.268c.041.357.065.7.072 1.03.012.303-.023.606-.103.898a2.07 2.07 0 0 1-.402.763 2.578 2.578 0 0 1-.803.618 2.458 2.458 0 0 1-2.162.072 3.396 3.396 0 0 1-1.029-.7 4.743 4.743 0 0 1-.865-1.104zM131.329 49.653l7.577-2.845-1.03-2.773 1.163-.433 2.595 6.927-1.164.433-1.029-2.773-7.577 2.846-.535-1.382zM133.347 55.468l9.1-2.062.71 3.144c.11.47.172.95.186 1.433a3.104 3.104 0 0 1-.247 1.206c-.14.356-.366.672-.659.917a2.772 2.772 0 0 1-1.184.547 2.56 2.56 0 0 1-1.822-.186 3.088 3.088 0 0 1-1.266-1.309l-3.284 3.299-.309-1.618 3.14-3.093-.381-1.69-3.655.834-.329-1.422zm5.034.391l.35 1.526c.343 1.512 1.063 2.144 2.162 1.897a1.345 1.345 0 0 0 1.091-.866 3.439 3.439 0 0 0 0-1.773l-.34-1.516-3.263.732zM134.994 62.828l9.584 2.516.144 1.69-9.008 4.124-.133-1.577 2.542-1.093-.309-3.536-2.697-.64-.123-1.484zm5.332 2.742l-1.348-.319.247 2.804 1.287-.546 1.472-.598 1.472-.598v-.072l-1.565-.34-1.565-.33zM135.581 73.786l8.081.258.092-2.959H145l-.237 7.413h-1.245l.092-2.96-8.081-.267.052-1.485zM135.2 79.972l9.265 1.484-.937 5.804-1.174-.185.7-4.33-2.666-.433-.587 3.67-1.122-.175.587-3.67-3.088-.495-.721 4.505-1.174-.186.917-5.99zM132.461 91.477a5.087 5.087 0 0 1 .855-1.67 4.108 4.108 0 0 1 1.328-1.134 4.319 4.319 0 0 1 1.739-.475 5.789 5.789 0 0 1 2.059.279 5.672 5.672 0 0 1 1.874.938c.488.375.891.85 1.184 1.392.28.53.445 1.113.484 1.711a5.15 5.15 0 0 1-.227 1.886 3.692 3.692 0 0 1-.854 1.547c-.331.342-.705.64-1.112.886l-.638-1.03c.302-.174.576-.393.813-.65.265-.297.462-.649.576-1.03a2.973 2.973 0 0 0-.236-2.506 3.863 3.863 0 0 0-2.317-1.618 3.998 3.998 0 0 0-2.779 0 2.935 2.935 0 0 0-1.616 2 3.357 3.357 0 0 0-.155.948c-.008.276.045.55.155.804l2.192.67.587-1.928 1.03.32-1.03 3.247-3.829-1.206a4.132 4.132 0 0 1-.34-1.505 5.33 5.33 0 0 1 .257-1.876zM130.227 97.95l3.212 1.464 6.527-.33-.659 1.444-2.738.051h-2.255v.062l.731.856.731.855 1.75 2.062-.648 1.412-4.025-5.154-3.212-1.464.586-1.258zM129.321 105.445a1.937 1.937 0 0 1 1.225-.928c.269-.052.545-.052.814 0 .298.044.585.145.844.299.265.15.499.349.69.588.17.213.296.458.37.721.068.252.089.514.062.773a1.876 1.876 0 0 1-.772 1.33 2.053 2.053 0 0 1-.71.34 2.028 2.028 0 0 1-.814 0 2.378 2.378 0 0 1-.854-.309 2.308 2.308 0 0 1-.68-.587 2.153 2.153 0 0 1-.37-.732 1.922 1.922 0 0 1 .195-1.495zM125.101 107.61l7.391 5.701-1.029 1.33-4.89-1.443-1.874-.609v.062l1.03 1.68 2.666 4.341-1.029 1.329-7.392-5.7.824-1.031 3.654 2.814.546.443.587.495.586.505.525.485v-.062l-1.101-1.979-2.522-4.196.442-.567 4.705 1.371 2.162.639v-.051l-.587-.382-.648-.422-.639-.433-.566-.413-3.654-2.814.813-1.093zM117.925 116.311l6.64 6.566-1.029 1.031-6.64-6.567 1.029-1.03zM112.511 121.032a5.274 5.274 0 0 1 1.811-1.031 5.503 5.503 0 0 1 1.833-.258v1.299a4.983 4.983 0 0 0-1.575.175 3.817 3.817 0 0 0-1.411.743c-.406.295-.7.721-.833 1.206a1.252 1.252 0 0 0 .278 1.113 1.162 1.162 0 0 0 .967.474c.191-.001.381-.026.566-.072l.639-.175 1.204-.381c.316-.11.639-.197.968-.258.298-.058.602-.079.906-.062.289.019.572.093.834.216.28.136.527.333.72.578.237.279.403.612.484.969a2.36 2.36 0 0 1 0 1.031 3.326 3.326 0 0 1-.463 1.031c-.239.37-.535.7-.875.979a4.436 4.436 0 0 1-1.606.886c-.488.147-.994.22-1.503.217v-1.247c.421.013.842-.043 1.245-.165a3.228 3.228 0 0 0 1.143-.619c.357-.254.624-.615.762-1.031a1.142 1.142 0 0 0-.268-1.031 1.023 1.023 0 0 0-.864-.412 4.866 4.866 0 0 0-1.246.258l-1.215.402c-.34.113-.669.206-1.029.288a2.91 2.91 0 0 1-.896.083 2.058 2.058 0 0 1-.823-.227 2.553 2.553 0 0 1-.773-.66 2.457 2.457 0 0 1-.514-2.061 3.41 3.41 0 0 1 .473-1.134 4.685 4.685 0 0 1 1.061-1.124zM106.087 125.681a5.292 5.292 0 0 1 1.925-.773 5.49 5.49 0 0 1 1.853 0l-.124 1.289a4.9 4.9 0 0 0-1.585 0 3.819 3.819 0 0 0-1.493.556 2.228 2.228 0 0 0-1.029 1.093 1.257 1.257 0 0 0 .134 1.134c.102.171.243.316.412.423.151.089.319.145.494.165.191.023.385.023.576 0l.659-.083 1.235-.237a6.737 6.737 0 0 1 1.03-.134c.303-.021.607-.003.906.052.281.056.55.165.792.319.26.169.478.395.639.66.201.31.325.663.36 1.031.031.349-.014.701-.134 1.031a3.322 3.322 0 0 1-.587 1.031 4.206 4.206 0 0 1-1.029.855 4.435 4.435 0 0 1-1.709.681 5.19 5.19 0 0 1-1.524 0l.134-1.237c.416.068.84.068 1.256 0a3.27 3.27 0 0 0 1.215-.474c.393-.218.703-.559.885-.97a1.141 1.141 0 0 0-.134-1.03 1.023 1.023 0 0 0-.803-.516 4.897 4.897 0 0 0-1.266.103l-1.256.237c-.35.072-.689.124-1.029.165-.3.048-.606.048-.906 0a2.036 2.036 0 0 1-.782-.33 2.586 2.586 0 0 1-.68-.752 2.47 2.47 0 0 1-.257-2.144 3.4 3.4 0 0 1 .617-1.031 4.7 4.7 0 0 1 1.205-1.114zM101.465 128.589l4.19 8.35-1.339.67-4.179-8.35 1.328-.67zM94.001 131.619a4.454 4.454 0 0 1 1.781-.288 3.92 3.92 0 0 1 1.627.443 4.488 4.488 0 0 1 1.42 1.154 6.205 6.205 0 0 1 1.03 1.825c.25.659.382 1.357.391 2.062a4.413 4.413 0 0 1-.33 1.742c-.22.522-.55.99-.967 1.371a4.59 4.59 0 0 1-1.555.918c-.562.211-1.16.31-1.76.288a3.973 3.973 0 0 1-1.627-.422 4.332 4.332 0 0 1-1.38-1.124 6 6 0 0 1-1.028-1.804 6.194 6.194 0 0 1-.392-2.062 4.398 4.398 0 0 1 .33-1.773 4.02 4.02 0 0 1 .967-1.392 4.45 4.45 0 0 1 1.493-.938zm.432 1.186a2.484 2.484 0 0 0-1.606 1.628c-.25.924-.18 1.905.196 2.784a4.123 4.123 0 0 0 1.616 2.227 2.71 2.71 0 0 0 2.266.188 2.719 2.719 0 0 0 1.615-1.601 4.129 4.129 0 0 0-.185-2.742 4.255 4.255 0 0 0-1.626-2.288 2.475 2.475 0 0 0-2.276-.196zM87.948 133.815l1.74 9.185-1.483.279-4.406-4.784-1.441-1.773h-.072c.123.454.26.952.412 1.495.15.543.274 1.062.37 1.557l.814 4.309-1.36.258-1.729-9.186 1.472-.278 4.427 4.783 1.43 1.763h.073a46.79 46.79 0 0 0-.412-1.495 14.572 14.572 0 0 1-.36-1.515l-.844-4.381 1.369-.217zM76.974 138.031a1.945 1.945 0 0 1 1.451.506c.202.183.366.404.484.649.13.275.203.573.217.876.024.307-.011.615-.103.908-.08.261-.214.503-.392.711a2.138 2.138 0 0 1-.607.484 1.906 1.906 0 0 1-1.534.103 2.037 2.037 0 0 1-.68-.402 2.055 2.055 0 0 1-.483-.659 2.377 2.377 0 0 1-.216-.877c-.025-.302.01-.607.103-.897.083-.26.216-.501.39-.711.171-.202.381-.367.618-.484.235-.119.49-.189.752-.207zM72.784 135.66l-.412 9.34-3.18-.144a7.507 7.507 0 0 1-1.514-.217 3.294 3.294 0 0 1-1.163-.526 2.317 2.317 0 0 1-.731-.907 2.889 2.889 0 0 1-.216-1.35 2.97 2.97 0 0 1 .34-1.309c.195-.364.478-.672.823-.897a3.569 3.569 0 0 1 1.215-.464 5.993 5.993 0 0 1 1.523-.114l1.689.073.154-3.536 1.472.051zm-1.75 4.557l-1.585-.072a2.985 2.985 0 0 0-1.843.371 1.611 1.611 0 0 0-.648 1.34 1.453 1.453 0 0 0 .545 1.361 3.552 3.552 0 0 0 1.832.463l1.545.073.154-3.536zM63.9 135.062l-1.72 9.185-3.17-.598a6.92 6.92 0 0 1-1.359-.34 3.08 3.08 0 0 1-1.03-.66 2.251 2.251 0 0 1-.576-.969 2.767 2.767 0 0 1 0-1.309 2.567 2.567 0 0 1 .896-1.598 3.09 3.09 0 0 1 1.709-.639l-1.72-4.33 1.576.299 1.595 4.124 1.699.32.69-3.691 1.41.206zm-2.358 4.474l-1.544-.288c-1.523-.289-2.388.123-2.594 1.237a1.35 1.35 0 0 0 .36 1.35c.48.368 1.048.603 1.647.68l1.524.289.607-3.268zM55.047 133.125l-2.697 8.948-1.431-.433 2.697-8.948 1.43.433zM47.532 130.176c.562.238 1.07.589 1.492 1.031.393.412.692.904.876 1.443.188.574.258 1.181.205 1.783a6.189 6.189 0 0 1-.525 2.062 5.992 5.992 0 0 1-1.101 1.66c-.403.437-.89.787-1.431 1.031a3.889 3.889 0 0 1-1.647.33 4.835 4.835 0 0 1-3.192-1.361 3.984 3.984 0 0 1-.895-1.433 4.335 4.335 0 0 1-.227-1.763 6.01 6.01 0 0 1 .515-2 6.19 6.19 0 0 1 1.112-1.752c.408-.44.902-.79 1.451-1.031a4.007 4.007 0 0 1 1.658-.34 4.397 4.397 0 0 1 1.709.34zm-.505 1.154a2.493 2.493 0 0 0-1.152-.238 2.49 2.49 0 0 0-1.133.321 4.246 4.246 0 0 0-1.77 2.154 4.129 4.129 0 0 0-.35 2.732 2.716 2.716 0 0 0 3.777 1.65 4.122 4.122 0 0 0 1.76-2.114 4.25 4.25 0 0 0 .361-2.762 2.494 2.494 0 0 0-1.482-1.743h-.01zM41.633 127.558l-4.983 7.906-2.676-1.721a7.124 7.124 0 0 1-1.143-.876 3.104 3.104 0 0 1-.71-1.031 2.265 2.265 0 0 1-.185-1.114c.05-.439.205-.86.453-1.226.314-.548.82-.959 1.42-1.155a3.093 3.093 0 0 1 1.822 0v-4.618l1.36.855v4.412l1.461.928 1.997-3.175 1.184.815zm-3.84 3.288l-1.328-.835c-1.31-.825-2.268-.759-2.872.196a1.351 1.351 0 0 0-.165 1.392c.31.517.75.944 1.277 1.237l1.307.824 1.781-2.814zM34.118 122.486l-5.785 7.329-1.174-.927 5.786-7.34 1.173.938zM29.341 118.393l-5.662 5.825 2.121 2.061-.865.897-5.322-5.154.865-.897 2.12 2.062 5.621-5.825 1.122 1.031zM25.008 113.877l-7.114 6.052-.968-1.145 7.114-6.051.968 1.144zM22.65 111.125l-.73.505-8.844-.093 2.635 3.835-1.029.701-3.675-5.329.73-.505 8.854.082-2.934-4.268 1.03-.711 3.963 5.783zM17.698 103.517l-8.174 4.505-.72-1.309 8.174-4.505.72 1.309zM15.588 99.683l-8.637 3.525-.577-1.402 3.81-5.278 1.44-1.763v-.072l-1.379.701a20.38 20.38 0 0 1-1.451.67l-4.077 1.67-.525-1.288 8.637-3.526.556 1.392L9.597 99.6l-1.442 1.763v.062l1.38-.701c.48-.248.954-.468 1.42-.66l4.118-1.67.515 1.288zM11.326 86.384c.15.614.186 1.25.103 1.876a4.128 4.128 0 0 1-.587 1.629c-.328.51-.759.946-1.266 1.278a5.823 5.823 0 0 1-1.935.804c-.673.17-1.37.216-2.06.134a4.35 4.35 0 0 1-1.729-.608 4.254 4.254 0 0 1-1.276-1.237 5.158 5.158 0 0 1-.752-1.752 3.696 3.696 0 0 1 0-1.774 5.48 5.48 0 0 1 .515-1.33l1.08.599a3.427 3.427 0 0 0-.38.969c-.092.4-.092.816 0 1.216a2.992 2.992 0 0 0 1.462 2.062 3.856 3.856 0 0 0 2.81.227 4.004 4.004 0 0 0 2.399-1.402 2.941 2.941 0 0 0 .391-2.536 3.405 3.405 0 0 0-.34-.897 1.865 1.865 0 0 0-.535-.619l-2.244.557.463 1.969-1.03.247-.772-3.299 3.923-.979c.41.307.759.688 1.03 1.124.345.532.592 1.122.73 1.742zM7.424 80.085a1.961 1.961 0 0 1-.422 1.474 2.12 2.12 0 0 1-.628.516c-.265.14-.555.228-.854.257-.303.038-.61.017-.906-.061a2.058 2.058 0 0 1-.73-.361 2.153 2.153 0 0 1-.516-.588 1.919 1.919 0 0 1-.175-1.515c.076-.251.198-.486.36-.69a2.06 2.06 0 0 1 .629-.516c.27-.133.564-.214.864-.237.3-.039.604-.018.896.061.264.073.513.195.73.361a1.98 1.98 0 0 1 .752 1.299zM9.772 72.065a4.717 4.717 0 0 1-.299 1.773 3.97 3.97 0 0 1-.926 1.422c-.43.417-.943.74-1.503.949a5.922 5.922 0 0 1-2.06.37 5.635 5.635 0 0 1-2.058-.319 4.674 4.674 0 0 1-1.565-.927 3.98 3.98 0 0 1-1.03-1.423 4.861 4.861 0 0 1-.329-1.814 3.54 3.54 0 0 1 .33-1.619c.206-.439.48-.843.813-1.196l.916.835a3.227 3.227 0 0 0-.607.866 2.415 2.415 0 0 0-.206 1.031 2.797 2.797 0 0 0 1.019 2.227c.76.577 1.705.855 2.656.783a4.114 4.114 0 0 0 2.666-.783 2.67 2.67 0 0 0 .927-2.196 2.766 2.766 0 0 0-.278-1.268 3.515 3.515 0 0 0-.741-.969l.885-.845a4.02 4.02 0 0 1 1.4 3.092l-.01.01zM10.39 63.767a4.476 4.476 0 0 1-.588 1.71c-.29.492-.683.914-1.153 1.238a4.474 4.474 0 0 1-1.657.68 6.17 6.17 0 0 1-2.059 0 5.967 5.967 0 0 1-1.976-.598 4.397 4.397 0 0 1-1.38-1.103A3.908 3.908 0 0 1 .826 64.2a4.593 4.593 0 0 1-.083-1.804 4.54 4.54 0 0 1 .577-1.7c.284-.492.67-.917 1.132-1.248a4.33 4.33 0 0 1 1.606-.67 5.982 5.982 0 0 1 2.059 0 6.17 6.17 0 0 1 1.987.608c.542.27 1.022.649 1.41 1.114.362.434.628.94.783 1.484.15.582.182 1.189.092 1.784zm-1.246-.176a2.488 2.488 0 0 0-.69-2.185 4.238 4.238 0 0 0-2.543-1.124 4.112 4.112 0 0 0-2.718.392 2.72 2.72 0 0 0-1.145 3.101c.116.38.314.728.58 1.022A4.115 4.115 0 0 0 5.148 65.9c.938.185 1.91.047 2.76-.391a2.482 2.482 0 0 0 1.235-1.918zM11.244 57.406L2.349 54.57l.505-1.598 5.085-.31 1.977-.071v-.073L8.35 51.303l-3.963-3.155.504-1.598 8.895 2.825-.402 1.289-4.396-1.402-.669-.227-.72-.268-.721-.299-.7-.258v.072l1.76 1.413 3.81 3.092-.217.691-4.88.32-2.254.134v.072l.69.165.761.175.752.196.68.196 4.395 1.402-.432 1.268zM14.836 46.87l-8.235-4.35.782-1.485 5.065.588 1.956.278v-.062l-1.328-1.474-3.366-3.814.793-1.485 8.235 4.35-.628 1.197-4.118-2.155-.607-.299-.659-.392-.669-.402-.597-.392v.062l1.482 1.701 3.202 3.712-.34.639-4.859-.547-2.223-.257v.061l.648.279.71.31.71.319.629.309 4.118 2.154-.7 1.155zM22.65 34.365c-.291.393-.638.74-1.03 1.031-.373.273-.808.45-1.266.516-.5.062-1.006.01-1.482-.155a5.814 5.814 0 0 1-1.709-.959l-4.324-3.309.906-1.185 4.334 3.32a4.79 4.79 0 0 0 1.174.69c.306.127.637.184.968.165.286-.025.562-.12.802-.279a2.835 2.835 0 0 0 1.081-1.422c.087-.273.105-.564.052-.845a2.281 2.281 0 0 0-.402-.897 4.525 4.525 0 0 0-.967-.96l-4.314-3.308.865-1.134 4.283 3.309c.532.385.998.855 1.379 1.392.284.41.47.878.546 1.37.053.44 0 .885-.155 1.3a5.084 5.084 0 0 1-.741 1.36zM26.531 29.273L20.097 22.5l1.102-1.03 6.29 1.628 2.161.701h.052l-1.153-1.03a20.028 20.028 0 0 1-1.153-1.104L24.38 18.49l1.029-.959 6.434 6.773-1.08 1.031-6.301-1.618-2.162-.701h-.051l1.153 1.03c.404.358.778.701 1.122 1.031l3.088 3.206-1.08.99zM34.128 22.5l-5.61-7.464 1.194-.897 5.61 7.464-1.194.897zM41.005 18.129a4.71 4.71 0 0 1-1.678.629 3.948 3.948 0 0 1-1.688-.083 4.364 4.364 0 0 1-1.606-.825 5.946 5.946 0 0 1-1.349-1.608 5.655 5.655 0 0 1-.71-1.938 4.707 4.707 0 0 1 0-1.824 3.98 3.98 0 0 1 .73-1.578 4.852 4.852 0 0 1 1.329-1.216 3.517 3.517 0 0 1 1.565-.526 4.585 4.585 0 0 1 1.523.134l-.257 1.227a3.208 3.208 0 0 0-1.03-.093c-.366.04-.718.163-1.03.36a2.792 2.792 0 0 0-1.41 1.96c-.115.938.111 1.886.639 2.67a4.12 4.12 0 0 0 2.059 1.886 2.662 2.662 0 0 0 2.367-.299c.371-.21.688-.502.927-.855.22-.348.376-.732.463-1.134l1.174.35a4.015 4.015 0 0 1-1.977 2.763h-.041zM43.754 16.222l-.649-9.897 1.555-.67 6.784 7.216-1.452.63-1.843-2.062-3.253 1.412.247 2.763-1.39.608zm.916-5.897l.134 1.392 2.553-1.155-.927-1.03c-.357-.406-.7-.812-1.03-1.217-.329-.406-.672-.811-1.029-1.216h-.061c.054.55.113 1.082.175 1.597.061.516.123 1.059.185 1.63zM53.956 12.201L51.67 4.428l-2.83.835-.35-1.195 7.102-2.062.35 1.196-2.83.835 2.295 7.762-1.451.402zM60.009 10.655l-1.74-9.185 1.441-.279 1.77 9.134-1.471.33zM68.028 9.778a4.473 4.473 0 0 1-1.791-.216 3.932 3.932 0 0 1-1.441-.876 4.475 4.475 0 0 1-.968-1.454 6.192 6.192 0 0 1-.474-2.062 5.985 5.985 0 0 1 .175-2.061 4.394 4.394 0 0 1 .793-1.588A3.89 3.89 0 0 1 65.63.491a4.575 4.575 0 0 1 1.7-.475c.6-.05 1.206.02 1.78.206.537.17 1.031.45 1.452.825.44.408.79.903 1.029 1.453.279.654.44 1.352.474 2.062a6.194 6.194 0 0 1-.175 2.062c-.166.6-.457 1.16-.855 1.639a4.027 4.027 0 0 1-1.318 1.03 4.432 4.432 0 0 1-1.688.485zm-.082-1.257a2.478 2.478 0 0 0 1.987-1.124c.494-.82.697-1.782.576-2.732a4.127 4.127 0 0 0-.957-2.587 2.718 2.718 0 0 0-4.118.299 4.128 4.128 0 0 0-.577 2.7 4.25 4.25 0 0 0 .958 2.619 2.481 2.481 0 0 0 2.13.825zM74.75 9.593l.155-9.34h1.513l3.346 5.577 1.03 2.062h.071c0-.467-.034-.983-.103-1.546a6.224 6.224 0 0 1 0-1.598l.072-4.381h1.39l-.154 9.34h-1.493L77.211 4.14l-1.03-2.062h-.072c0 .495.035 1.01.103 1.546a5.056 5.056 0 0 1-.03 1.547v4.453l-1.432-.031zM85.745 7.82a1.915 1.915 0 0 1-1.41-.598c-.191-.2-.341-.434-.443-.69a2.302 2.302 0 0 1-.165-.887 2.372 2.372 0 0 1 .165-.897c.1-.258.25-.493.443-.69.184-.186.4-.337.638-.444a1.86 1.86 0 0 1 1.534 0c.242.106.462.256.648.443.193.198.343.433.443.69.112.287.168.591.165.898.003.303-.053.604-.165.886a2.124 2.124 0 0 1-.443.691 1.974 1.974 0 0 1-1.41.598z" fill="#000" fill-opacity=".5"/></svg>