<svg width="145" height="147" fill="none" xmlns="http://www.w3.org/2000/svg"><path d="M0 11.731V.267h1.835v11.464H0zM5.808 11.731V.267h1.898l4.227 6.77 1.265 2.455h.202c-.042-.574-.092-1.207-.151-1.898a23.094 23.094 0 0 1-.089-1.962V.267h1.708v11.464h-1.885L8.73 4.961 7.466 2.508h-.089c.042.607.093 1.24.152 1.898.06.658.089 1.295.089 1.91v5.416h-1.81zM18.816 11.731V.267h7.238v1.506h-5.403v3.606h4.58v1.417h-4.58v4.935h-1.835zM28.585 11.731V.267h3.96c.591-.005 1.18.05 1.76.164.497.095.97.29 1.392.57.39.262.708.62.923 1.037.234.49.347 1.028.33 1.57a3.151 3.151 0 0 1-.722 2.138 3.796 3.796 0 0 1-1.91 1.164l3.125 4.821H35.43l-2.86-4.555h-2.126v4.555h-1.86zm1.835-5.934h1.961c1.907 0 2.86-.696 2.86-2.088a1.658 1.658 0 0 0-.76-1.595 4.214 4.214 0 0 0-2.1-.392h-1.898l-.063 4.075zM38.341 11.731l4.1-11.464h2.075l4.125 11.464H46.68l-1.063-3.29h-4.378l-1.063 3.24-1.835.05zm3.923-6.25l-.544 1.695h3.454l-.531-1.632a115.17 115.17 0 0 1-.582-1.873 115.2 115.2 0 0 0-.583-1.873h-.088c-.203.65-.392 1.278-.57 1.886-.177.607-.366 1.21-.569 1.81l.013-.014zM53.893 11.997a6.48 6.48 0 0 1-2.531-.468 6.76 6.76 0 0 1-1.936-1.19l.974-1.265c.484.44 1.035.799 1.633 1.063a4.668 4.668 0 0 0 1.91.392 2.72 2.72 0 0 0 1.734-.493 1.544 1.544 0 0 0 .607-1.266 1.57 1.57 0 0 0-.139-.708 1.52 1.52 0 0 0-.392-.494 2.975 2.975 0 0 0-.595-.392l-.747-.342-1.442-.582a7.984 7.984 0 0 1-1.114-.506 4.453 4.453 0 0 1-.91-.658 2.86 2.86 0 0 1-.62-.848 2.53 2.53 0 0 1-.228-1.1c0-.44.105-.874.303-1.266.2-.392.485-.734.835-1 .381-.287.81-.506 1.266-.645a5.226 5.226 0 0 1 1.594-.228A5.441 5.441 0 0 1 56.31.42a6.405 6.405 0 0 1 1.594.974l-.95 1.19a4.795 4.795 0 0 0-1.264-.823 3.986 3.986 0 0 0-1.57-.316 2.531 2.531 0 0 0-1.556.417 1.405 1.405 0 0 0-.57 1.203 1.266 1.266 0 0 0 .494 1.062c.426.304.89.55 1.38.734l1.467.57c.414.16.797.325 1.152.493.338.158.65.367.923.62.257.243.459.536.595.86.157.404.23.834.215 1.266a3.023 3.023 0 0 1-1.151 2.392c-.401.312-.856.547-1.342.696a5.785 5.785 0 0 1-1.834.24zM62.877 11.731V1.786h-3.632V.267h9.098v1.531h-3.631v9.933h-1.835zM70.064 11.731V.267h3.961a8.72 8.72 0 0 1 1.759.164c.497.095.97.29 1.392.57.39.262.708.62.924 1.037.233.49.346 1.028.329 1.57a3.15 3.15 0 0 1-.722 2.138 3.796 3.796 0 0 1-1.91 1.164l3.062 4.821h-1.974l-2.86-4.555h-2.126v4.555h-1.835zM71.9 5.797h1.924c1.906 0 2.86-.696 2.86-2.088a1.659 1.659 0 0 0-.735-1.595 4.214 4.214 0 0 0-2.138-.443h-1.898l-.013 4.126zM85.679 11.997a6.15 6.15 0 0 1-1.81-.253 3.48 3.48 0 0 1-1.442-.848 4.049 4.049 0 0 1-.949-1.556 7.123 7.123 0 0 1-.342-2.379V.267h1.86v6.707c-.012.559.056 1.117.203 1.657.107.393.301.757.57 1.063.233.263.529.463.86.582.71.235 1.478.235 2.189 0 .33-.12.626-.32.86-.582.27-.307.469-.67.582-1.063a5.556 5.556 0 0 0 .215-1.657V.267h1.747v6.694c.02.806-.09 1.61-.33 2.379a4.035 4.035 0 0 1-.936 1.556c-.399.397-.89.688-1.43.848a6.23 6.23 0 0 1-1.847.253zM98.282 11.997a5.797 5.797 0 0 1-2.164-.393 4.847 4.847 0 0 1-1.733-1.164 5.353 5.353 0 0 1-1.14-1.873 7.317 7.317 0 0 1-.404-2.53 6.935 6.935 0 0 1 .43-2.531 5.769 5.769 0 0 1 1.114-1.898 4.885 4.885 0 0 1 1.771-1.19 5.96 5.96 0 0 1 2.227-.405c.688-.012 1.37.14 1.987.443.536.259 1.027.6 1.455 1.013l-1.037 1.126a3.983 3.983 0 0 0-1.05-.76 2.962 2.962 0 0 0-1.266-.278 3.429 3.429 0 0 0-2.72 1.177 4.809 4.809 0 0 0-1.013 3.252 5.062 5.062 0 0 0 .974 3.29 3.277 3.277 0 0 0 2.683 1.19 3.403 3.403 0 0 0 1.519-.317c.472-.22.901-.525 1.265-.898l1.012 1.113a4.915 4.915 0 0 1-3.796 1.658l-.114-.025zM106.71 11.731V1.786h-3.632V.267h9.098v1.531h-3.632v9.933h-1.834zM118.845 11.997a6.15 6.15 0 0 1-1.81-.253 3.472 3.472 0 0 1-1.442-.848 4.048 4.048 0 0 1-.962-1.569 7.136 7.136 0 0 1-.342-2.379V.268h1.835v6.706c-.012.559.056 1.117.203 1.657.106.393.301.757.569 1.063.234.263.53.463.86.582a3.492 3.492 0 0 0 2.189 0c.331-.12.627-.32.861-.582.27-.307.468-.67.582-1.063a5.562 5.562 0 0 0 .215-1.657V.267h1.746v6.694c.021.806-.09 1.61-.329 2.379a4.03 4.03 0 0 1-.936 1.556 3.39 3.39 0 0 1-1.43.848 6.221 6.221 0 0 1-1.809.253zM125.943 11.731V.267h3.961a8.72 8.72 0 0 1 1.759.164c.497.095.97.29 1.392.57.391.262.708.62.924 1.037.233.49.346 1.028.329 1.57a3.152 3.152 0 0 1-.722 2.138 3.794 3.794 0 0 1-1.91 1.164l3.062 4.821h-1.974l-2.86-4.555h-2.126v4.555h-1.835zm1.835-5.934h1.924c1.906 0 2.859-.696 2.859-2.088a1.66 1.66 0 0 0-.746-1.557 4.215 4.215 0 0 0-2.139-.443h-1.898v4.088zM137.534 11.731V.267h7.226v1.455h-5.378V5.05h4.568v1.392h-4.568v3.796H145v1.493h-7.466zM125.134 14.148h11.464v3.15c.1 1.6-.411 3.179-1.43 4.416a5.491 5.491 0 0 1-4.264 1.557 5.661 5.661 0 0 1-4.315-1.557 6.07 6.07 0 0 1-1.455-4.34v-3.226zm1.429 1.885v1.265a3.9 3.9 0 0 0 1.101 3.05 4.708 4.708 0 0 0 3.24.987 4.542 4.542 0 0 0 3.125-.987 3.873 3.873 0 0 0 1.114-3.05v-1.265h-8.58zM125.134 26.005h11.464v7.225h-1.455v-5.378h-3.316v4.568h-1.392v-4.568h-3.796v5.606h-1.505v-7.453zM125.134 38l11.464-3.897v1.923l-5.935 1.886-1.885.582-1.886.582v.089c.667.219 1.295.413 1.886.582l1.885.569 5.935 1.835v1.847l-11.464-3.922V38zM125.134 45.555h11.464v7.175h-1.455v-5.327h-3.316v4.568h-1.392v-4.568h-3.796v5.605h-1.505v-7.453zM125.134 55.627h11.464v1.835h-9.946v5.252h-1.518v-7.087zM124.868 69.015a5.47 5.47 0 0 1 .417-2.176 4.853 4.853 0 0 1 1.19-1.696 5.494 5.494 0 0 1 1.898-1.1 7.591 7.591 0 0 1 2.531-.393 7.369 7.369 0 0 1 2.531.392c.693.24 1.33.62 1.872 1.114a4.802 4.802 0 0 1 1.177 1.695 5.945 5.945 0 0 1 0 4.34 4.9 4.9 0 0 1-1.177 1.709 5.291 5.291 0 0 1-1.872 1.113c-.814.283-1.67.42-2.531.405a7.594 7.594 0 0 1-2.531-.405 5.373 5.373 0 0 1-1.898-1.113 4.952 4.952 0 0 1-1.19-1.708 5.433 5.433 0 0 1-.417-2.177zm1.556 0a3.045 3.045 0 0 0 1.266 2.531 5.212 5.212 0 0 0 3.29.936 5.06 5.06 0 0 0 3.239-.936 3.337 3.337 0 0 0 .856-3.923 3.337 3.337 0 0 0-.856-1.139 5.06 5.06 0 0 0-3.239-.936 5.214 5.214 0 0 0-3.29.936 3.04 3.04 0 0 0-1.278 2.531h.012zM125.134 77.063h11.464v3.923a9.27 9.27 0 0 1-.177 1.872 4.083 4.083 0 0 1-.582 1.468c-.272.403-.642.73-1.076.95a3.542 3.542 0 0 1-1.632.341 3.65 3.65 0 0 1-1.633-.342 3.025 3.025 0 0 1-1.138-.961 4.391 4.391 0 0 1-.658-1.468 7.248 7.248 0 0 1-.228-1.86V78.91h-4.34v-1.847zm5.668 1.835v1.949a3.686 3.686 0 0 0 .557 2.252 1.987 1.987 0 0 0 1.683.721 1.785 1.785 0 0 0 1.633-.746c.356-.7.517-1.482.468-2.266V78.91l-4.341-.012zM125.134 88.16h11.464v2.063l-5.846 2.265-2.278.822v.089l2.278.848 5.846 2.214v2.063h-11.464v-1.747h8.414l.873.076v.038l-2.53-1-5.606-2.189v-.885l5.606-2.19 2.53-.999v-.089l-.86.064-.949.076h-7.478V88.16zM125.134 101.991h11.464v7.226h-1.455v-5.391h-3.316v4.581h-1.392v-4.581h-3.796v5.606h-1.505v-7.441zM125.134 112.076h11.464v1.86l-6.783 4.226-2.454 1.266v.088l1.898-.152a22.814 22.814 0 0 1 1.961-.088h5.378v1.784h-11.464v-1.835l6.782-4.252 2.455-1.265v-.089l-1.898.152c-.658.059-1.295.089-1.911.089h-5.428v-1.784zM125.134 126.855h9.945v-3.631h1.532v9.098h-1.532v-3.67h-9.945v-1.797zM17.589 130.145H6.112v-7.225H7.58v5.378h3.29v-4.568h1.392v4.568h3.796v-5.593h1.468l.063 7.44zM17.854 115.682a5.799 5.799 0 0 1-.404 2.164 4.837 4.837 0 0 1-1.165 1.733 5.345 5.345 0 0 1-1.872 1.139c-.814.283-1.67.42-2.531.405a6.955 6.955 0 0 1-2.53-.43 5.794 5.794 0 0 1-1.899-1.177 4.889 4.889 0 0 1-1.19-1.772 5.955 5.955 0 0 1-.404-2.227 4.323 4.323 0 0 1 .442-1.986c.259-.536.6-1.027 1.013-1.456l1.126 1.038c-.31.306-.566.661-.76 1.05-.185.396-.28.829-.278 1.266a3.431 3.431 0 0 0 1.177 2.72 4.812 4.812 0 0 0 3.252 1.013 5.063 5.063 0 0 0 3.29-.975 3.28 3.28 0 0 0 1.19-2.682 3.393 3.393 0 0 0-.317-1.519 4.3 4.3 0 0 0-.898-1.265l1.113-1.013c.537.47.968 1.048 1.266 1.696.296.721.426 1.5.38 2.278zM17.855 105.344a5.501 5.501 0 0 1-.418 2.176 4.851 4.851 0 0 1-1.19 1.696 5.493 5.493 0 0 1-1.898 1.113 7.608 7.608 0 0 1-2.53.393 7.355 7.355 0 0 1-2.531-.393 5.4 5.4 0 0 1-1.873-1.101 4.792 4.792 0 0 1-1.177-1.695 5.947 5.947 0 0 1 0-4.34 4.9 4.9 0 0 1 1.177-1.709 5.29 5.29 0 0 1 1.873-1.113 7.353 7.353 0 0 1 2.53-.405c.861-.01 1.717.127 2.531.405a5.372 5.372 0 0 1 1.898 1.113 4.94 4.94 0 0 1 1.19 1.709 5.45 5.45 0 0 1 .418 2.151zm-1.557 0a3.047 3.047 0 0 0-1.265-2.531 5.213 5.213 0 0 0-3.29-.936 5.058 5.058 0 0 0-3.24.936 3.36 3.36 0 0 0-1.153 2.531 3.348 3.348 0 0 0 1.153 2.53 5.059 5.059 0 0 0 3.24.937 5.208 5.208 0 0 0 3.29-.937 3.052 3.052 0 0 0 1.265-2.53zM17.855 93.918a6.48 6.48 0 0 1-.468 2.53 6.757 6.757 0 0 1-1.19 1.937l-1.265-.975a6.075 6.075 0 0 0 1-1.657 4.668 4.668 0 0 0 .391-1.911 2.72 2.72 0 0 0-.392-1.734 1.544 1.544 0 0 0-1.265-.607 1.567 1.567 0 0 0-.709.14c-.19.094-.358.228-.493.391-.15.183-.277.383-.38.595l-.341.747-.608 1.442c-.14.384-.309.756-.506 1.114-.18.33-.401.636-.658.911-.242.257-.53.467-.848.62a2.532 2.532 0 0 1-1.1.228 2.823 2.823 0 0 1-1.266-.304 2.91 2.91 0 0 1-1-.835 4.073 4.073 0 0 1-.645-1.266 5.25 5.25 0 0 1-.304-1.569 5.441 5.441 0 0 1 .418-2.214 6.414 6.414 0 0 1 .974-1.594l1.202.949a4.77 4.77 0 0 0-.822 1.265 3.986 3.986 0 0 0-.317 1.57 2.53 2.53 0 0 0 .418 1.556 1.404 1.404 0 0 0 1.202.569 1.264 1.264 0 0 0 1.063-.493c.303-.427.55-.89.734-1.38l.57-1.468c.16-.413.324-.797.493-1.151.157-.338.366-.65.62-.924a2.53 2.53 0 0 1 .86-.595c.403-.157.834-.23 1.266-.215a3.024 3.024 0 0 1 2.391 1.152c.312.4.548.855.696 1.341.191.593.285 1.212.279 1.835zM17.589 85.566h-4.34l-7.124 3.695v-1.948l3.036-1.468 1.266-.582 1.265-.608v-.088l-1.265-.582-1.266-.582-3.036-1.468v-1.898l7.124 3.694h4.34v1.835zM17.855 75.43a6.477 6.477 0 0 1-.469 2.532 6.757 6.757 0 0 1-1.19 1.936l-1.265-.975a6.074 6.074 0 0 0 1-1.645 4.668 4.668 0 0 0 .392-1.91 2.72 2.72 0 0 0-.392-1.747 1.543 1.543 0 0 0-1.265-.645 1.568 1.568 0 0 0-.709.14c-.19.094-.358.228-.493.391-.15.183-.277.382-.38.595l-.342.747-.607 1.48c-.14.384-.309.756-.506 1.114-.18.33-.401.636-.658.91a2.86 2.86 0 0 1-.848.62 2.53 2.53 0 0 1-1.1.229 2.82 2.82 0 0 1-1.266-.304 2.91 2.91 0 0 1-1-.835 4.075 4.075 0 0 1-.645-1.266 5.252 5.252 0 0 1-.304-1.569 5.441 5.441 0 0 1 .456-2.252 6.414 6.414 0 0 1 .974-1.594l1.202.949a4.77 4.77 0 0 0-.822 1.265 3.986 3.986 0 0 0-.317 1.57 2.53 2.53 0 0 0 .43 1.606 1.403 1.403 0 0 0 1.203.57 1.264 1.264 0 0 0 1.063-.494 6.06 6.06 0 0 0 .72-1.341l.57-1.468c.16-.413.325-.797.494-1.152.157-.338.366-.65.62-.923.242-.256.535-.459.86-.595.403-.157.834-.23 1.266-.215a3.023 3.023 0 0 1 2.391 1.151c.312.401.548.856.696 1.342.173.578.254 1.18.24 1.784zM17.589 66.927H7.643v3.632H6.112v-9.11h1.53v3.63h9.947v1.848zM17.589 59.297H6.112v-7.225H7.58v5.378h3.29v-4.556h1.392v4.569h3.796v-5.606h1.468l.063 7.44zM17.589 49.225H6.112v-2.05l5.846-2.265 2.278-.823V44l-2.278-.848-5.846-2.214v-2.05h11.477v1.657H9.174l-.835-.19v.09l2.53.999 5.606 2.189v.886l-5.605 2.189-2.531.962v.088l.86-.063.95-.076h7.478l-.038 1.607zM14.413 33.976a2.379 2.379 0 0 1-.734 1.733c-.245.235-.533.42-.848.545a2.86 2.86 0 0 1-1.088.203 2.936 2.936 0 0 1-1.101-.203 2.531 2.531 0 0 1-.848-.544 2.619 2.619 0 0 1-.544-.785 2.34 2.34 0 0 1 0-1.898c.13-.297.314-.568.544-.797.243-.236.532-.421.848-.544.35-.137.724-.206 1.1-.202.373-.005.743.064 1.089.202.315.125.603.31.848.544a2.43 2.43 0 0 1 .734 1.746zM17.589 29.041H6.112v-1.835h11.477v1.835zM17.589 21.399H7.643v3.631H6.112v-9.098h1.53v3.632h9.947v1.835zM.013 146.494v-11.515h3.796a9.08 9.08 0 0 1 1.733.152c.48.084.941.246 1.367.481.37.207.68.508.898.873.215.387.324.823.317 1.265a2.528 2.528 0 0 1-.494 1.518 2.601 2.601 0 0 1-1.493.937v.088c.715.119 1.384.43 1.936.899a2.36 2.36 0 0 1 .721 1.847 3 3 0 0 1-.341 1.481c-.236.42-.57.776-.975 1.037a4.461 4.461 0 0 1-1.493.62 8.304 8.304 0 0 1-1.885.203l-4.087.114zm1.834-6.618h1.734a3.8 3.8 0 0 0 2.227-.468 1.574 1.574 0 0 0 .645-1.354 1.354 1.354 0 0 0-.683-1.266 4.31 4.31 0 0 0-2.062-.392h-1.86v3.48zm0 5.251h2a4.715 4.715 0 0 0 2.29-.481 1.697 1.697 0 0 0 .848-1.607 1.571 1.571 0 0 0-.81-1.455 4.768 4.768 0 0 0-2.34-.468H1.846v4.011zM11.667 146.494v-11.515h1.835v9.946h5.25v1.531l-7.085.038zM25.497 146.76a5.47 5.47 0 0 1-2.176-.417 4.853 4.853 0 0 1-1.696-1.19 5.492 5.492 0 0 1-1.1-1.898 7.592 7.592 0 0 1-.393-2.531 7.36 7.36 0 0 1 .392-2.53 5.387 5.387 0 0 1 1.114-1.873 4.803 4.803 0 0 1 1.695-1.177 5.945 5.945 0 0 1 4.34 0c.648.266 1.23.667 1.71 1.177.496.54.875 1.178 1.113 1.873.282.813.419 1.67.405 2.53a7.594 7.594 0 0 1-.405 2.531 5.374 5.374 0 0 1-1.114 1.898 4.936 4.936 0 0 1-1.708 1.19c-.69.287-1.43.429-2.177.417zm0-1.556a3.046 3.046 0 0 0 2.531-1.266 5.213 5.213 0 0 0 .937-3.29 5.06 5.06 0 0 0-.937-3.239 3.337 3.337 0 0 0-3.923-.856c-.436.2-.825.492-1.138.856a5.06 5.06 0 0 0-.937 3.239 5.212 5.212 0 0 0 .937 3.29 3.038 3.038 0 0 0 2.53 1.278v-.012zM38.594 146.76a5.779 5.779 0 0 1-2.164-.392 4.841 4.841 0 0 1-1.733-1.164 5.363 5.363 0 0 1-1.139-1.873 7.314 7.314 0 0 1-.405-2.531 6.938 6.938 0 0 1 .43-2.531 5.773 5.773 0 0 1 1.177-1.898 4.897 4.897 0 0 1 1.772-1.202 5.97 5.97 0 0 1 2.227-.405 4.34 4.34 0 0 1 1.986.443c.536.259 1.027.6 1.456 1.013l-1.038 1.126a3.916 3.916 0 0 0-1.05-.759 2.944 2.944 0 0 0-1.266-.279 3.436 3.436 0 0 0-2.72 1.177 4.809 4.809 0 0 0-1.013 3.252 5.061 5.061 0 0 0 .975 3.29 3.285 3.285 0 0 0 2.682 1.189 3.385 3.385 0 0 0 1.519-.316c.473-.22.901-.525 1.265-.898l1.013 1.113a4.944 4.944 0 0 1-3.797 1.658l-.177-.013zM45.161 146.494v-11.515h1.835v5.441h.063l4.822-5.441h2.011l-3.796 4.429 4.366 7.035h-1.974l-3.492-5.757-2 2.1v3.657l-1.835.051zM60.979 146.76a5.764 5.764 0 0 1-2.164-.405 4.828 4.828 0 0 1-1.734-1.164 5.363 5.363 0 0 1-1.139-1.873 7.315 7.315 0 0 1-.404-2.53 6.936 6.936 0 0 1 .43-2.531 5.764 5.764 0 0 1 1.177-1.898 4.872 4.872 0 0 1 1.771-1.202 5.95 5.95 0 0 1 2.227-.405 4.314 4.314 0 0 1 1.987.443c.535.258 1.027.6 1.455 1.012l-1.037 1.126a3.938 3.938 0 0 0-1.05-.759 2.974 2.974 0 0 0-1.266-.279 3.437 3.437 0 0 0-2.72 1.177 4.808 4.808 0 0 0-1.013 3.252 5.061 5.061 0 0 0 .974 3.29 3.275 3.275 0 0 0 2.683 1.19 3.387 3.387 0 0 0 1.518-.317 4.29 4.29 0 0 0 1.266-.898l1.012 1.113a4.932 4.932 0 0 1-3.796 1.658h-.177zM67.508 146.494v-11.515h1.835v4.669h5.492v-4.669h1.835v11.464h-1.823v-5.137h-5.491v5.201l-1.848-.013zM78.745 146.494l4.1-11.515h2.075l4.125 11.464h-1.949l-1.063-3.226h-4.302l-1.063 3.226-1.923.051zm3.922-6.251l-.531 1.632h3.455l-.532-1.632a115.59 115.59 0 0 1-.582-1.873c-.186-.616-.38-1.24-.582-1.873h-.089c-.202.65-.392 1.278-.57 1.886a89.223 89.223 0 0 1-.569 1.873v-.013zM91.095 146.494v-11.515h1.835v11.464l-1.835.051zM96.916 146.494v-11.515h1.86l4.226 6.77 1.265 2.455h.089a158.55 158.55 0 0 0-.152-1.898 23.141 23.141 0 0 1-.088-1.962v-5.365h1.708v11.464h-1.797l-4.252-6.782-1.265-2.455h-.089c.043.607.093 1.24.152 1.898.06.658.089 1.295.089 1.911v5.428l-1.746.051zM111.24 143.331a2.362 2.362 0 0 1-1.734-.734 2.636 2.636 0 0 1-.544-.848 2.832 2.832 0 0 1-.202-1.088c-.004-.376.065-.75.202-1.101a2.55 2.55 0 0 1 .544-.848c.226-.227.492-.412.785-.544a2.346 2.346 0 0 1 1.898 0c.297.131.567.315.797.544.236.244.421.532.544.848.137.351.206.725.202 1.101.005.373-.064.742-.202 1.088-.125.315-.31.603-.544.848a2.419 2.419 0 0 1-1.746.734zM116.592 146.494v-11.515h3.164c1.6-.1 3.178.411 4.416 1.43a5.488 5.488 0 0 1 1.556 4.264 5.649 5.649 0 0 1-1.556 4.315 6.07 6.07 0 0 1-4.34 1.455l-3.24.051zm1.835-1.392h1.367a3.896 3.896 0 0 0 3.049-1.101 4.705 4.705 0 0 0 .987-3.239 4.54 4.54 0 0 0-.987-3.126 3.876 3.876 0 0 0-3.049-1.1h-1.367v8.566zM128.904 146.494v-11.515h1.835v9.946h5.252v1.531l-7.087.038zM139.053 146.494v-9.946h-3.632v-1.569h9.098v1.531h-3.631v9.946l-1.835.038z" fill="#000" fill-opacity=".5"/></svg>