<svg width="145" height="124" fill="none" xmlns="http://www.w3.org/2000/svg"><path d="M11.422 109.878l-8.675-5.138 1.424-2.391a5.562 5.562 0 0 1 3.058-2.703 4.827 4.827 0 0 1 3.926.734 4.987 4.987 0 0 1 2.569 3.103 5.338 5.338 0 0 1-.834 3.937l-1.468 2.458zm-.212-2.024l.612-1.035a3.432 3.432 0 0 0 .534-2.791 4.145 4.145 0 0 0-2.013-2.224 3.987 3.987 0 0 0-2.803-.656 3.393 3.393 0 0 0-2.224 1.801l-.612 1.034 6.506 3.871zM16.938 100.581l-8.675-5.139 3.236-5.46 1.113.656-2.414 4.07 2.514 1.49 2.046-3.447 1.057.623-2.047 3.448 2.903 1.712 2.513-4.237 1.112.656-3.358 5.628zM20.786 94.086l-6.84-8.241.934-1.58 10.521 2.025-.845 1.49-2.958-.634-1.958 3.336 1.969 2.225-.823 1.379zm-2.97-5.761l1.001 1.112 1.546-2.614-1.479-.333-1.668-.4-1.668-.4v.066l1.112 1.279c.385.422.77.853 1.156 1.29zM26.313 84.755l-8.674-5.138.823-1.368 7.518 4.449 2.357-3.97 1.112.689-3.136 5.338zM28.871 74.98a2.103 2.103 0 0 1-1.334.99c-.29.055-.589.055-.88 0a2.49 2.49 0 0 1-.911-.334A2.614 2.614 0 0 1 25 74.99a2.224 2.224 0 0 1-.39-.79 2.223 2.223 0 0 1-.055-.834c.033-.288.128-.565.278-.812.143-.245.337-.457.567-.623.232-.165.492-.285.768-.356.29-.06.588-.06.878 0 .65.115 1.235.463 1.646.98.178.235.31.503.39.789.057.279.057.566 0 .845-.02.274-.092.542-.212.79zM34.688 70.631l-7.519-4.448-1.623 2.747-1.112-.69 4.081-6.884 1.112.69-1.623 2.747 7.518 4.448-.834 1.39zM38.302 64.525l-8.675-5.183 3.237-5.46 1.112.656-2.414 4.07 2.514 1.49 2.046-3.447 1.057.623-2.047 3.447 2.892 1.713 2.502-4.204 1.112.656-3.336 5.639zM43.017 56.574l-8.674-5.139 1.78-3.002c.26-.449.566-.87.911-1.257a3.336 3.336 0 0 1 1.057-.8 2.446 2.446 0 0 1 1.2-.234c.476.043.933.2 1.335.456.6.324 1.06.859 1.29 1.501a3.336 3.336 0 0 1 0 1.969l5.016-.145-.879 1.49-4.748.145-.957 1.601 3.481 2.069-.812 1.346zm-3.67-4.049l.868-1.456c.852-1.439.756-2.47-.29-3.092a1.458 1.458 0 0 0-1.5-.134 3.692 3.692 0 0 0-1.29 1.424l-.857 1.434 3.07 1.824zM48.2 47.821l-8.675-5.16.923-1.557 5.428.912 2.09.4v-.067l-1.345-1.657-3.381-4.27.923-1.557 8.675 5.138-.746 1.257-4.281-2.547-.645-.4-.69-.457-.7-.467-.623-.456V37l1.512 1.913 3.259 4.17-.4.668-5.217-.857-2.402-.411v.067l.679.333.756.367.745.39.667.367 4.282 2.535-.834 1.28zM56.34 34.542a5.738 5.738 0 0 1-1.479 1.69 6.028 6.028 0 0 1-1.768.935l-.523-1.301a5.327 5.327 0 0 0 1.535-.757 4.114 4.114 0 0 0 1.112-1.267c.335-.444.504-.991.479-1.546a1.357 1.357 0 0 0-.679-1.023 1.378 1.378 0 0 0-.6-.212 1.358 1.358 0 0 0-.556.078c-.196.07-.383.164-.556.278l-.59.412-1.112.834c-.28.226-.578.43-.89.611a3.983 3.983 0 0 1-.9.39c-.3.087-.613.117-.924.089a2.223 2.223 0 0 1-.945-.323 2.469 2.469 0 0 1-1.223-1.924c-.042-.398-.015-.8.078-1.19.109-.462.289-.905.533-1.312a4.76 4.76 0 0 1 1.313-1.49c.455-.326.958-.581 1.49-.757l.478 1.257a4.216 4.216 0 0 0-1.2.623 3.504 3.504 0 0 0-.935 1.045 2.225 2.225 0 0 0-.378 1.368 1.233 1.233 0 0 0 .656.968 1.112 1.112 0 0 0 1.023.1 5.29 5.29 0 0 0 1.168-.723l1.112-.845c.311-.234.6-.456.89-.645.27-.182.566-.32.878-.412.3-.086.614-.11.923-.067.364.061.712.194 1.023.39a2.693 2.693 0 0 1 1.29 1.935c.055.442.028.89-.077 1.323a5.104 5.104 0 0 1-.645 1.468zM57.553 26.59a2.111 2.111 0 0 1-1.323.99c-.29.056-.589.056-.88 0a2.48 2.48 0 0 1-.911-.333 2.593 2.593 0 0 1-.745-.645 2.224 2.224 0 0 1-.39-.79 2.289 2.289 0 0 1-.055-.834 2.069 2.069 0 0 1 .845-1.435 2.29 2.29 0 0 1 .768-.356c.29-.06.588-.06.878 0 .65.115 1.235.463 1.646.979.18.236.311.504.39.79.057.278.057.566 0 .845a2.146 2.146 0 0 1-.223.79zM62.368 23.966l-8.674-5.138 1.657-2.858c.259-.444.56-.861.9-1.246.28-.322.611-.597.98-.812a2.146 2.146 0 0 1 1.112-.29c.394.015.778.134 1.112.346.423.257.748.649.923 1.112.18.503.18 1.053 0 1.557h.066c.404-.506.938-.891 1.546-1.112a2.08 2.08 0 0 1 1.724.289c.396.22.73.537.968.923.21.366.328.779.344 1.2.021.48-.047.959-.2 1.413a7.346 7.346 0 0 1-.69 1.513l-1.767 3.103zm-4.181-4.36l.778-1.301c.387-.54.604-1.183.623-1.846a1.38 1.38 0 0 0-.734-1.112 1.19 1.19 0 0 0-1.268 0 3.781 3.781 0 0 0-1.212 1.379l-.8 1.357 2.613 1.523zm3.97 2.358l.89-1.513a4.126 4.126 0 0 0 .667-1.946 1.492 1.492 0 0 0-.834-1.368 1.38 1.38 0 0 0-1.468 0 4.158 4.158 0 0 0-1.401 1.557l-.89 1.513 3.036 1.757zM67.562 15.146l-8.674-5.138 1.423-2.39a5.56 5.56 0 0 1 3.058-2.703 4.826 4.826 0 0 1 3.926.734 4.972 4.972 0 0 1 2.57 3.103 5.35 5.35 0 0 1-.824 3.88l-1.479 2.514zm-.267-2.035l.612-1.034a3.426 3.426 0 0 0 .545-2.78 4.148 4.148 0 0 0-2.013-2.225 3.982 3.982 0 0 0-2.803-.656 3.403 3.403 0 0 0-2.224 1.802L60.8 9.252l6.495 3.86zM71.266 3.38a2.124 2.124 0 0 1-1.324.99 2.29 2.29 0 0 1-.878 0 2.491 2.491 0 0 1-.912-.334 2.59 2.59 0 0 1-.746-.645 2.225 2.225 0 0 1-.389-.79 2.291 2.291 0 0 1-.055-.833A2.07 2.07 0 0 1 67.84.4c.23-.167.491-.288.768-.356.29-.059.588-.059.878 0 .65.115 1.235.463 1.646.978.18.236.311.504.39.79.057.279.057.567 0 .845-.042.255-.129.5-.256.723zM0 123.668v-10.087h1.635l3.714 5.961 1.112 2.158h.078c-.037-.504-.081-1.06-.133-1.668a11.52 11.52 0 0 1-.022-1.746v-4.727h1.49v10.087H6.26l-3.736-5.961-1.113-2.157h-.077c.037.533.081 1.089.133 1.668.052.578.078 1.138.078 1.679v4.771L0 123.668zM11.388 123.669v-10.087h6.35v1.29h-4.737v2.925h4.015v1.223H13v3.336h4.882v1.29l-6.495.023zM24.667 123.846a5.438 5.438 0 0 1-1.99-.356 4.441 4.441 0 0 1-1.569-1.023 4.671 4.671 0 0 1-1.034-1.646 6.273 6.273 0 0 1-.367-2.224 6.148 6.148 0 0 1 .378-2.224 4.726 4.726 0 0 1 1.112-1.668 4.586 4.586 0 0 1 1.613-1.046 5.571 5.571 0 0 1 2.024-.356 3.974 3.974 0 0 1 1.868.401c.459.232.885.524 1.268.867l-.89.99a3.674 3.674 0 0 0-.923-.645 2.938 2.938 0 0 0-1.29-.256 3.219 3.219 0 0 0-2.513 1.034c-.667.815-1 1.852-.934 2.903a4.325 4.325 0 0 0 .878 2.869 3.164 3.164 0 0 0 2.57 1.046c.349.005.697-.04 1.034-.134.286-.078.552-.218.778-.411v-2.469h-2.224v-1.19h3.659v4.448a4.366 4.366 0 0 1-1.435.823 5.723 5.723 0 0 1-2.013.267zM35.11 123.847a4.862 4.862 0 0 1-1.913-.367 4.27 4.27 0 0 1-1.49-1.057 4.828 4.828 0 0 1-.968-1.668 6.673 6.673 0 0 1-.344-2.224c-.017-.756.1-1.509.344-2.225a4.756 4.756 0 0 1 .979-1.646 4.235 4.235 0 0 1 1.49-1.034 5.222 5.222 0 0 1 3.815 0 4.31 4.31 0 0 1 1.501 1.034c.437.475.77 1.036.979 1.646.248.715.368 1.468.356 2.225a6.672 6.672 0 0 1-.356 2.224 4.735 4.735 0 0 1-.979 1.668c-.42.455-.931.815-1.501 1.057a4.826 4.826 0 0 1-1.913.367zm0-1.357a2.679 2.679 0 0 0 2.224-1.112 4.584 4.584 0 0 0 .823-2.892 4.449 4.449 0 0 0-.823-2.847 2.936 2.936 0 0 0-4.448 0 4.448 4.448 0 0 0-.823 2.847 4.583 4.583 0 0 0 .823 2.892 2.688 2.688 0 0 0 2.224 1.156v-.044zM44.074 123.669v-8.719h-3.192v-1.346h7.996v1.346h-3.191v8.741l-1.613-.022zM51.17 123.669v-10.087h1.612v10.087h-1.613zM54.584 123.669l3.603-10.087h1.846l3.625 10.087h-1.723L61 120.833h-3.826l-.934 2.836h-1.657zm3.447-5.483l-.467 1.434H60.6l-.456-1.445c-.178-.556-.348-1.105-.511-1.646a98.31 98.31 0 0 0-.512-1.646h-.089a93.757 93.757 0 0 0-.5 1.657c-.156.534-.32 1.079-.49 1.635l-.01.011zM66.817 123.669v-8.719h-3.158v-1.346h7.996v1.346h-3.18v8.741l-1.658-.022zM73.957 123.669v-10.087h1.613v10.087h-1.613zM83.065 123.847a4.862 4.862 0 0 1-1.913-.367 4.27 4.27 0 0 1-1.49-1.057 4.828 4.828 0 0 1-.967-1.668 6.673 6.673 0 0 1-.345-2.224c-.016-.756.1-1.509.345-2.225a4.756 4.756 0 0 1 .978-1.646 4.235 4.235 0 0 1 1.49-1.034 5.222 5.222 0 0 1 3.815 0 4.31 4.31 0 0 1 1.502 1.034c.436.475.77 1.036.978 1.646.248.715.369 1.468.356 2.225a6.672 6.672 0 0 1-.356 2.224 4.735 4.735 0 0 1-.978 1.668c-.42.455-.932.815-1.502 1.057a4.826 4.826 0 0 1-1.913.367zm0-1.357a2.679 2.679 0 0 0 2.225-1.112 4.584 4.584 0 0 0 .822-2.892 4.449 4.449 0 0 0-.822-2.847 2.936 2.936 0 0 0-4.449 0 4.448 4.448 0 0 0-.823 2.847 4.583 4.583 0 0 0 .823 2.892 2.688 2.688 0 0 0 2.224 1.156v-.044zM90.55 123.668v-10.087h1.635l3.714 5.961 1.112 2.158h.078c-.037-.504-.081-1.06-.133-1.668a11.53 11.53 0 0 1-.023-1.746v-4.727h1.502v10.087h-1.59l-3.737-5.961-1.112-2.157h-.078c.037.533.081 1.089.133 1.668.052.578.078 1.138.078 1.679v4.771l-1.58.022zM102.95 121.066a1.946 1.946 0 0 1-1.423-.6 2.119 2.119 0 0 1-.445-.69 2.336 2.336 0 0 1-.167-.889 2.413 2.413 0 0 1 .167-.901c.099-.258.251-.493.445-.69.185-.187.404-.337.645-.445a1.879 1.879 0 0 1 1.546 0c.244.106.467.257.656.445.194.197.345.432.445.69.113.287.169.592.166.901.004.304-.053.607-.166.889a2.152 2.152 0 0 1-.445.69 1.947 1.947 0 0 1-.656.445 2.026 2.026 0 0 1-.768.155zM111.68 123.846a5.431 5.431 0 0 1-1.99-.356 4.433 4.433 0 0 1-1.568-1.023 4.672 4.672 0 0 1-1.035-1.646 6.287 6.287 0 0 1-.367-2.224 6.154 6.154 0 0 1 .378-2.224 4.736 4.736 0 0 1 1.113-1.668 4.58 4.58 0 0 1 1.612-1.046 5.572 5.572 0 0 1 2.024-.356 3.976 3.976 0 0 1 1.869.401 5.89 5.89 0 0 1 1.267.867l-.889.99a3.675 3.675 0 0 0-.923-.645 2.94 2.94 0 0 0-1.29-.256 3.221 3.221 0 0 0-2.514 1.034c-.666.815-1 1.852-.934 2.903a4.323 4.323 0 0 0 .879 2.869 3.165 3.165 0 0 0 2.569 1.046c.349.005.697-.04 1.034-.134.287-.078.552-.218.778-.411v-2.469h-2.224v-1.19h3.659v4.448a4.363 4.363 0 0 1-1.435.823 5.72 5.72 0 0 1-2.013.267zM122.123 123.847a4.865 4.865 0 0 1-1.913-.367 4.274 4.274 0 0 1-1.49-1.057 4.833 4.833 0 0 1-.967-1.668 6.673 6.673 0 0 1-.345-2.224 6.45 6.45 0 0 1 .345-2.225 4.764 4.764 0 0 1 .978-1.646 4.235 4.235 0 0 1 1.491-1.034 5.22 5.22 0 0 1 3.814 0 4.309 4.309 0 0 1 1.502 1.034c.436.475.77 1.036.978 1.646.248.715.369 1.468.356 2.225a6.675 6.675 0 0 1-.356 2.224 4.732 4.732 0 0 1-.978 1.668c-.42.455-.932.815-1.502 1.057a4.827 4.827 0 0 1-1.913.367zm0-1.357a2.678 2.678 0 0 0 2.225-1.112 4.592 4.592 0 0 0 .823-2.892 4.454 4.454 0 0 0-.823-2.847 2.94 2.94 0 0 0-3.448-.753 2.94 2.94 0 0 0-1.001.753 4.448 4.448 0 0 0-.823 2.847 4.58 4.58 0 0 0 .823 2.892 2.683 2.683 0 0 0 2.224 1.156v-.044zM127.984 123.669l3.604-10.087h1.824l3.625 10.087h-1.713l-.934-2.836h-3.837l-.934 2.836h-1.635zm3.448-5.483l-.467 1.434h3.036l-.467-1.434c-.178-.556-.349-1.105-.512-1.646a100.23 100.23 0 0 0-.511-1.646h-.078a96.48 96.48 0 0 0-.501 1.657 11.748 11.748 0 0 1-.611 1.624l.111.011zM138.772 123.669v-10.087h1.613v8.741H145v1.346h-6.228zM71.633 9.886l8.763-5.038 1.724 3.025c.263.451.479.928.645 1.424.146.42.207.867.178 1.312-.037.397-.17.779-.39 1.112a2.98 2.98 0 0 1-1.056.934 2.77 2.77 0 0 1-1.946.39 3.336 3.336 0 0 1-1.724-.957l-2.358 4.449-.867-1.446 2.224-4.193-.867-1.601-3.515 2.002-.811-1.413zm5.327-1.19l.845 1.468c.83 1.483 1.776 1.906 2.836 1.268a1.457 1.457 0 0 0 .856-1.246 3.692 3.692 0 0 0-.59-1.824l-.833-1.456-3.114 1.79zM76.682 18.727l8.752-4.982 3.147 5.56-1.112.635-2.346-4.104-2.536 1.446 2.024 3.414-1.112.612-1.99-3.481-2.926 1.668 2.458 4.26-1.112.633-3.247-5.66zM81.275 26.746l8.752-5.005.8 1.401-7.584 4.338 2.291 4.06-1.112.666-3.147-5.46zM84.8 32.93l10.543-1.88.912 1.602-6.95 8.14-.857-1.467L90.45 37.1l-1.902-3.336-2.925.6-.823-1.434zm6.473.267l-1.48.311 1.49 2.636 1.024-1.112c.4-.445.8-.868 1.201-1.268.39-.4.779-.823 1.179-1.257v-.066l-1.69.378-1.724.378zM90.884 43.573l7.584-4.338-1.623-2.769 1.112-.667 3.97 6.94-1.112.667-1.58-2.77-7.584 4.338-.767-1.401zM94.409 49.734l8.753-5.005.8 1.401-8.752 5.005-.801-1.401zM98.724 57.741a4.839 4.839 0 0 1-.634-1.846 4.226 4.226 0 0 1 .178-1.813c.205-.62.534-1.19.968-1.68a6.67 6.67 0 0 1 1.757-1.4 6.447 6.447 0 0 1 2.08-.79 4.725 4.725 0 0 1 1.912 0 4.207 4.207 0 0 1 1.635.778c.518.408.949.915 1.268 1.49.331.56.546 1.18.634 1.825a4.294 4.294 0 0 1-.156 1.813 4.666 4.666 0 0 1-.945 1.668 6.47 6.47 0 0 1-1.735 1.39 6.612 6.612 0 0 1-2.102.8 4.75 4.75 0 0 1-1.946 0 4.355 4.355 0 0 1-1.657-.778 4.772 4.772 0 0 1-1.257-1.457zm1.179-.623a2.677 2.677 0 0 0 2.024 1.412 4.583 4.583 0 0 0 2.925-.711 4.452 4.452 0 0 0 2.069-2.135 2.94 2.94 0 0 0-1.067-3.379 2.937 2.937 0 0 0-1.158-.492 4.448 4.448 0 0 0-2.891.701 4.57 4.57 0 0 0-2.102 2.147 2.681 2.681 0 0 0 .2 2.457zM102.65 64.147l8.752-5.004.812 1.412-3.336 6.184-1.29 2.09v.067l1.379-.945c.5-.345.99-.656 1.457-.923l4.103-2.347.779 1.335-8.753 5.004-.811-1.434 3.336-6.195 1.301-2.09v-.068L109 62.18c-.474.333-.949.634-1.423.9l-4.137 2.37-.79-1.302zM109.556 76.714a5.708 5.708 0 0 1-.745-2.124 6.036 6.036 0 0 1 .067-2.002l1.39.19a5.346 5.346 0 0 0-.1 1.7c.06.577.242 1.134.534 1.636a2.39 2.39 0 0 0 1.112 1.112 1.358 1.358 0 0 0 1.223-.09c.191-.1.355-.245.479-.422.107-.157.179-.335.211-.523a2.595 2.595 0 0 0 0-.622c0-.223 0-.456-.056-.712l-.144-1.324a7.275 7.275 0 0 1-.1-1.112c-.008-.329.025-.658.1-.979.071-.302.2-.59.378-.845.196-.272.45-.496.745-.656.339-.198.72-.312 1.112-.334.381-.016.761.052 1.112.2.404.151.777.374 1.101.657.348.323.644.699.879 1.112a4.84 4.84 0 0 1 .645 1.868c.08.546.08 1.1 0 1.646l-1.335-.2c.093-.446.111-.904.056-1.357a3.55 3.55 0 0 0-.445-1.334 2.223 2.223 0 0 0-1.001-1.012 1.233 1.233 0 0 0-1.112.089 1.118 1.118 0 0 0-.59.845c-.06.458-.06.921 0 1.379l.201 1.368c.055.39.1.756.122 1.112.027.324.005.65-.067.968-.073.303-.21.587-.4.834-.233.287-.52.525-.845.7a2.66 2.66 0 0 1-2.325.167 3.696 3.696 0 0 1-1.112-.723 5.1 5.1 0 0 1-1.09-1.212zM112.859 82.02l8.753-5.005.801 1.4-3.559 2.058 2.391 4.193 3.57-2.035.801 1.401-8.753 4.983-.801-1.402 3.971-2.224-2.391-4.193-3.971 2.225-.812-1.402zM118.609 92.073l8.753-5.005.8 1.402-8.752 5.004-.801-1.401zM121.145 96.51l8.752-5.005 1.713 2.992c.276.476.504.98.678 1.501.151.44.215.904.189 1.368-.03.425-.168.834-.4 1.19a3.097 3.097 0 0 1-1.112.979 3.204 3.204 0 0 1-1.39.445 2.633 2.633 0 0 1-1.29-.234 3.844 3.844 0 0 1-1.113-.823 6.504 6.504 0 0 1-.978-1.323l-.912-1.59-3.337 1.89-.8-1.39zm5.127-1.112l.845 1.49c.296.63.787 1.15 1.401 1.48a1.757 1.757 0 0 0 1.602-.19 1.568 1.568 0 0 0 .923-1.279 3.853 3.853 0 0 0-.634-1.935l-.834-1.457-3.303 1.89zM127.339 107.832a5.665 5.665 0 0 1-.745-2.124 6.01 6.01 0 0 1 .067-2.002l1.39.189a5.291 5.291 0 0 0-.1 1.702c.06.576.242 1.133.534 1.634a2.38 2.38 0 0 0 1.112 1.112 1.34 1.34 0 0 0 1.234-.088c.19-.103.354-.248.479-.423.102-.158.17-.336.2-.523a2.704 2.704 0 0 0 0-.623c0-.222 0-.467-.067-.711l-.189-1.346a7.273 7.273 0 0 1-.1-1.112 3.842 3.842 0 0 1 .1-.979c.073-.302.201-.589.378-.845.196-.272.451-.496.745-.656a2.48 2.48 0 0 1 1.112-.334c.381-.017.761.052 1.113.2.386.166.74.4 1.045.69.348.323.644.698.878 1.112.343.571.562 1.208.646 1.868a5.605 5.605 0 0 1 0 1.646l-1.324-.211a4.175 4.175 0 0 0 0-1.357 3.51 3.51 0 0 0-.445-1.334 2.22 2.22 0 0 0-1.001-1.012 1.231 1.231 0 0 0-1.112.089 1.11 1.11 0 0 0-.589.845c-.06.458-.06.921 0 1.379l.2 1.368c.059.385.1.756.122 1.112.028.324.006.65-.066.967a2.23 2.23 0 0 1-.401.835c-.233.286-.52.524-.845.7-.34.2-.72.321-1.112.356a2.715 2.715 0 0 1-1.179-.189 3.7 3.7 0 0 1-1.112-.723 5.06 5.06 0 0 1-.968-1.212z" fill="#000" fill-opacity=".5"/></svg>