<svg width="145" height="105" fill="none" xmlns="http://www.w3.org/2000/svg"><path d="M4.613 10.524a5.368 5.368 0 0 1-1.563-.332 3.027 3.027 0 0 1-1.21-.832 3.538 3.538 0 0 1-.742-1.42 6.266 6.266 0 0 1-.155-2.096L1.33 0l1.608.11-.388 5.867c-.044.49-.018.983.077 1.464.07.35.217.68.433.965.19.242.438.432.72.555a3.05 3.05 0 0 0 1.92.133c.293-.078.563-.227.787-.433.251-.254.445-.561.565-.898.164-.464.258-.95.277-1.442L7.72.455l1.53.1-.388 5.844a6.477 6.477 0 0 1-.433 2.063 3.515 3.515 0 0 1-.942 1.308c-.371.326-.817.555-1.298.666a5.447 5.447 0 0 1-1.575.088zM13.951 11.922a5.677 5.677 0 0 1-2.03-.91 5.965 5.965 0 0 1-1.408-1.42l1.11-.875a5.3 5.3 0 0 0 1.175 1.242c.46.35.989.6 1.552.732.52.163 1.08.143 1.586-.056a1.353 1.353 0 0 0 .776-.953c.05-.208.05-.425 0-.632a1.362 1.362 0 0 0-.232-.51 2.682 2.682 0 0 0-.433-.444l-.566-.444-1.108-.787a7.178 7.178 0 0 1-.854-.666 3.895 3.895 0 0 1-.644-.743c-.17-.26-.29-.55-.354-.854a2.216 2.216 0 0 1 0-.987c.087-.384.266-.741.52-1.042.25-.29.56-.522.91-.676a3.56 3.56 0 0 1 1.209-.289c.473-.032.948.01 1.408.122.653.14 1.269.416 1.808.81.42.315.794.688 1.109 1.109l-1.11.82a4.203 4.203 0 0 0-.942-.964 3.494 3.494 0 0 0-1.275-.588 2.218 2.218 0 0 0-1.42 0 1.23 1.23 0 0 0-.72.898 1.11 1.11 0 0 0 .21 1.01c.303.346.65.652 1.032.909l1.109.787c.317.222.61.44.876.654.254.205.475.448.654.721.17.259.282.55.333.854.053.37.03.748-.067 1.11a2.652 2.652 0 0 1-1.464 1.807 3.68 3.68 0 0 1-1.286.321c-.489.05-.982.027-1.464-.066zM18.243 12.953l6.31-8.606 1.752.521.588 10.669-1.663-.488-.078-2.983-3.66-1.11-1.708 2.452-1.541-.455zM23.1 8.66l-.854 1.242 2.906.865V9.26 7.541 5.822h-.078c-.34.495-.658.976-.954 1.442A13.92 13.92 0 0 1 23.1 8.66zM30.286 16.147l.943-9.981 3.327.31c.51.044 1.016.137 1.508.278.396.12.77.304 1.11.543.304.21.549.498.709.832.161.37.219.776.166 1.175a2.218 2.218 0 0 1-.554 1.287 2.295 2.295 0 0 1-1.386.699v.077c.615.161 1.175.487 1.619.943a2.085 2.085 0 0 1 .477 1.674 2.64 2.64 0 0 1-.422 1.265 2.595 2.595 0 0 1-.931.831c-.422.222-.88.364-1.353.422a7.332 7.332 0 0 1-1.664 0l-3.549-.355zm1.72-1.043l1.74.167c.688.1 1.39.023 2.041-.222a1.487 1.487 0 0 0 .876-1.33 1.375 1.375 0 0 0-.588-1.343 4.17 4.17 0 0 0-1.974-.61l-1.74-.166-.356 3.504zm.432-4.58l1.508.145c.651.12 1.323.042 1.93-.222a1.375 1.375 0 0 0 .676-1.11 1.187 1.187 0 0 0-.499-1.164 3.77 3.77 0 0 0-1.763-.51l-1.564-.144-.288 3.005zM41.398 16.779L41.255 6.73h1.608l.111 10.026-1.575.022zM47.476 16.58l-1.264-9.981 1.596-.156 1.11 8.64 4.568-.577.167 1.33-6.177.743zM57.013 14.883l-2.706-9.681 1.553-.433 2.706 9.681-1.553.433zM64.044 12.731l-2.45-8.362-3.095.899-.377-1.287 7.652-2.218.377 1.287-3.05.898 2.451 8.362-1.508.421zM71.674 10.88l-.555-3.76-4.114-5.712 1.686-.244 1.652 2.44c.222.348.444.684.665 1.01l.688 1.009h.11c.127-.4.241-.77.345-1.11.11-.377.221-.765.355-1.108l.876-2.817 1.652-.244-2.296 6.654.555 3.76-1.62.121zM78.96 7.419a2.118 2.118 0 0 1-1.553-.577 2.286 2.286 0 0 1-.51-.72 2.497 2.497 0 0 1-.21-.943 2.584 2.584 0 0 1 .133-.965c.094-.28.245-.536.443-.754.19-.206.415-.375.665-.5.26-.129.543-.2.832-.21.284-.01.568.038.832.144.267.1.511.251.72.444.218.203.39.449.51.72.131.302.203.626.212.954.018.324-.027.648-.133.954a2.297 2.297 0 0 1-.444.754 2.14 2.14 0 0 1-1.497.699zM83.473 10.058L84.006.022l3.47.166a7.764 7.764 0 0 1 1.531.222c.433.103.84.292 1.198.555.328.249.587.577.754.953.184.438.26.913.222 1.387a2.75 2.75 0 0 1-.72 1.84 3.327 3.327 0 0 1-1.73.932l2.472 4.358-1.73-.088-2.307-4.16-1.863-.088-.188 4.037-1.642-.078zm1.864-5.112l1.685.078c1.664.08 2.525-.485 2.584-1.697a1.453 1.453 0 0 0-.588-1.386 3.682 3.682 0 0 0-1.852-.477l-1.663-.078-.166 3.56zM93.066 10.746l2.03-9.848 6.188 1.298-.266 1.253-4.614-.965-.565 2.85 3.914.821-.222 1.209-3.914-.82-.688 3.326 4.802 1.01-.266 1.252-6.399-1.386zM104.5 14.017a5.655 5.655 0 0 1-1.985-1.042 5.952 5.952 0 0 1-1.309-1.508l1.109-.799a5.34 5.34 0 0 0 1.109 1.309c.435.38.945.663 1.497.832.513.18 1.073.18 1.586 0a1.355 1.355 0 0 0 .843-.899c.071-.203.094-.419.066-.632a1.342 1.342 0 0 0-.199-.521 2.695 2.695 0 0 0-.399-.466l-.533-.477-1.109-.854a6.98 6.98 0 0 1-.798-.72 3.925 3.925 0 0 1-.588-.788 2.48 2.48 0 0 1-.299-.876 2.216 2.216 0 0 1 .088-.987c.112-.379.314-.725.588-1.01.267-.275.593-.488.954-.62.391-.141.804-.212 1.22-.21.474 0 .946.075 1.397.22a4.768 4.768 0 0 1 1.741.932c.429.353.803.768 1.109 1.231l-1.109.755a4.178 4.178 0 0 0-.876-1.02 3.483 3.483 0 0 0-1.231-.666 2.216 2.216 0 0 0-1.419 0 1.226 1.226 0 0 0-.788.854 1.116 1.116 0 0 0 .144 1.02c.279.366.603.694.965.976l1.109.865c.303.244.581.484.832.72.241.22.446.474.61.755.152.27.247.568.277.876.028.376-.021.753-.144 1.109a2.652 2.652 0 0 1-1.586 1.708 3.668 3.668 0 0 1-1.297.233 5.068 5.068 0 0 1-1.575-.3zM111.908 15.803l1.353-9.98 6.266.853-.178 1.264-4.669-.632-.388 2.884 3.959.543-.155 1.253-3.959-.543-.455 3.327 4.869.665-.167 1.253-6.476-.887zM120.602 16.812l3.505-10.08h1.818l3.693 9.98h-1.707l-.954-2.828h-3.826l-.91 2.84-1.619.088zm3.394-5.545l-.455 1.442h3.028l-.422-1.42a68.717 68.717 0 0 1-.521-1.63 19.427 19.427 0 0 0-.588-1.641c-.177.57-.34 1.12-.488 1.652-.148.533-.325 1.08-.532 1.642l-.022-.045zM132.879 16.424l-1.775-9.892 3.416-.61a7.768 7.768 0 0 1 1.542-.133c.442.002.879.093 1.286.266.376.167.705.426.954.754.28.387.462.836.532 1.309a2.76 2.76 0 0 1-.288 1.951 3.328 3.328 0 0 1-1.475 1.298l3.382 3.693-1.697.31-3.182-3.526-1.83.333.71 3.97-1.575.277zm.665-5.4l1.664-.3c1.641-.296 2.354-1.035 2.14-2.218a1.456 1.456 0 0 0-.876-1.22 3.695 3.695 0 0 0-1.908 0l-1.652.266.632 3.471zM145 11.379l-.177-.09a4.436 4.436 0 0 1-1.664-2.505 4.21 4.21 0 0 1 0-2.995A2.97 2.97 0 0 1 145 4.225V2.763h-.266a5.239 5.239 0 0 0-1.763.92 4.278 4.278 0 0 0-1.176 1.464 5.039 5.039 0 0 0-.488 1.896c-.042.751.056 1.503.288 2.218a6.4 6.4 0 0 0 .999 2.03c.387.52.878.954 1.441 1.275.305.165.629.292.965.377V11.38zM2.74 39.369l.443-8.706L0 30.497l.067-1.342 7.962.41-.066 1.342-3.183-.166-.444 8.706-1.597-.078zM9.316 39.88l1.996-9.849 6.155 1.253-.255 1.254-4.625-.943-.577 2.85 3.915.798-.244 1.198-3.915-.798-.665 3.327 4.813.976-.255 1.253-6.343-1.32zM16.546 41.532l4.525-4.037-1.32-5.545 1.686.533.587 2.661c.06.251.111.507.156.765.044.259.103.559.177.899h.078l.62-.644.555-.554 1.952-1.874 1.63.51-4.258 3.848 1.453 5.8-1.708-.532-.666-2.817-.177-.832-.189-.965h-.077l-.654.699-.633.621-2.107 1.974-1.63-.51zM29.089 45.025l1.408-8.639-3.138-.51.21-1.32 7.874 1.287-.233 1.352-3.138-.51-1.398 8.573-1.585-.233zM38.537 43.15a2.118 2.118 0 0 1-.831-.188 2.085 2.085 0 0 1-.677-.499 2.295 2.295 0 0 1-.455-.754c-.11-.305-.159-.63-.144-.954.005-.328.073-.651.2-.954a2.217 2.217 0 0 1 1.197-1.175 2.04 2.04 0 0 1 1.663.044c.26.123.492.292.689.5.2.218.355.474.454.753.094.29.135.594.122.899a2.48 2.48 0 0 1-.2.942c-.118.27-.288.515-.498.721a2.076 2.076 0 0 1-.71.455 2.13 2.13 0 0 1-.81.21zM47.032 45.968a5.691 5.691 0 0 1-2.218-.244 5.968 5.968 0 0 1-1.774-.92l.765-1.165c.452.352.957.629 1.497.82a4.091 4.091 0 0 0 1.697.222 2.395 2.395 0 0 0 1.52-.532 1.353 1.353 0 0 0 .454-1.11 1.385 1.385 0 0 0-.178-.609 1.34 1.34 0 0 0-.377-.41 2.561 2.561 0 0 0-.543-.289l-.665-.255-1.298-.41a7.142 7.142 0 0 1-1.01-.377 3.881 3.881 0 0 1-.83-.51 2.505 2.505 0 0 1-.6-.71 2.218 2.218 0 0 1-.277-.954 2.462 2.462 0 0 1 .178-1.109 2.55 2.55 0 0 1 .665-.92 3.55 3.55 0 0 1 1.109-.643c.44-.174.903-.279 1.375-.31a4.78 4.78 0 0 1 1.963.22 5.633 5.633 0 0 1 1.453.744l-.755 1.109a4.167 4.167 0 0 0-1.197-.632 3.492 3.492 0 0 0-1.397-.167 2.218 2.218 0 0 0-1.342.466 1.232 1.232 0 0 0-.41 1.11 1.11 1.11 0 0 0 .51.898 5.29 5.29 0 0 0 1.253.543l1.32.41c.369.118.716.24 1.042.366.303.115.588.276.843.477.24.197.437.443.576.72.165.348.255.726.266 1.11a2.651 2.651 0 0 1-.853 2.218 3.66 3.66 0 0 1-1.11.699 5.046 5.046 0 0 1-1.652.144zM56.281 44.249l-2.218-8.417-3.072.82-.344-1.297 7.763-2.052.344 1.298-3.072.82L57.9 43.84l-1.619.41zM66.672 41.388a4.802 4.802 0 0 1-1.94.133 4.237 4.237 0 0 1-1.708-.633 4.803 4.803 0 0 1-1.364-1.364 6.587 6.587 0 0 1-.943-2.029 6.431 6.431 0 0 1-.222-2.218 4.71 4.71 0 0 1 .522-1.83 4.181 4.181 0 0 1 1.175-1.375 4.947 4.947 0 0 1 1.752-.832 4.869 4.869 0 0 1 1.919-.133c.606.08 1.188.288 1.708.61.558.343 1.038.8 1.408 1.342.414.62.718 1.306.898 2.03.198.721.273 1.47.222 2.217a4.737 4.737 0 0 1-.51 1.852 4.336 4.336 0 0 1-1.176 1.398 4.768 4.768 0 0 1-1.74.832zm-.343-1.31a2.673 2.673 0 0 0 1.874-1.585 4.569 4.569 0 0 0 .066-2.994 4.436 4.436 0 0 0-1.52-2.54 2.927 2.927 0 0 0-4.29 1.11 4.436 4.436 0 0 0-.067 2.96 4.558 4.558 0 0 0 1.53 2.573 2.662 2.662 0 0 0 2.395.477h.012zM73.293 39.713l-.754-9.981 3.46-.255a7.687 7.687 0 0 1 1.553 0c.44.048.866.184 1.253.399.36.206.66.5.876.854.236.413.37.877.388 1.353a2.75 2.75 0 0 1-.5 1.94c-.41.521-.965.907-1.596 1.11l2.983 4.014-1.719.133-2.794-3.837-1.864.144.3 4.026-1.586.1zm1.22-5.312l1.73-.078c1.663-.126 2.45-.795 2.362-2.007a1.453 1.453 0 0 0-.754-1.309 3.704 3.704 0 0 0-1.897-.244l-1.707.078.266 3.56zM84.383 39.314l.11-3.804-3.06-6.343h1.708l1.209 2.783c.155.377.317.747.487 1.109l.5 1.109h.077l.543-1.109.544-1.109 1.353-2.617h1.663l-3.415 6.155-.111 3.803-1.608.023zM92.157 37.074a2.107 2.107 0 0 1-.81-.266 2.084 2.084 0 0 1-.62-.555 2.218 2.218 0 0 1-.378-.787 2.498 2.498 0 0 1 0-.965c.04-.327.141-.643.3-.932.14-.258.333-.484.565-.665.222-.174.474-.306.743-.388a2.062 2.062 0 0 1 1.642.21c.245.147.46.339.632.566.178.234.306.502.377.788a2.56 2.56 0 0 1 0 .975c-.04.324-.14.637-.3.92a2.306 2.306 0 0 1-.565.666 2.118 2.118 0 0 1-1.586.432zM95.972 40.379l2.805-9.66 1.73.5.466 5.467.133 2.118h.078l1.264-1.72 3.327-4.38 1.73.5-2.806 9.648-1.397-.41 1.386-4.77c.067-.221.144-.465.233-.72l.266-.776.278-.788c.099-.266.188-.499.277-.72h-.078l-1.475 1.94-3.238 4.214-.743-.222-.477-5.256-.2-2.418h-.077c0 .233-.1.477-.155.743-.056.266-.111.544-.167.82-.055.278-.122.555-.188.821-.067.267-.122.51-.189.732l-1.441 4.78-1.342-.444zM108.769 44.282l1.963-9.86 6.211 1.232-.255 1.253-4.625-.92-.565 2.86 3.925.777-.255 1.198-3.926-.777-.654 3.327 4.813.954-.255 1.253-6.377-1.297zM122.299 46.167a5.667 5.667 0 0 1-2.218-.455 5.932 5.932 0 0 1-1.674-1.109l.876-1.108c.414.395.89.72 1.408.964a4.07 4.07 0 0 0 1.675.388 2.384 2.384 0 0 0 1.53-.388 1.36 1.36 0 0 0 .555-1.109 1.392 1.392 0 0 0-.111-.62 1.35 1.35 0 0 0-.344-.444 2.595 2.595 0 0 0-.51-.344l-.644-.322-1.253-.532a7.164 7.164 0 0 1-.965-.466 3.968 3.968 0 0 1-.787-.587c-.22-.22-.397-.48-.521-.766a2.224 2.224 0 0 1-.178-.976c.008-.387.107-.767.289-1.109.18-.336.434-.628.743-.854.336-.24.711-.42 1.109-.532a4.59 4.59 0 0 1 1.397-.166c.665 0 1.322.14 1.93.41.499.227.962.526 1.375.887l-.854 1.032a4.214 4.214 0 0 0-1.109-.743 3.503 3.503 0 0 0-1.375-.3 2.216 2.216 0 0 0-1.375.333 1.232 1.232 0 0 0-.522 1.031 1.112 1.112 0 0 0 .411.943 5.31 5.31 0 0 0 1.198.665l1.264.533c.355.148.687.303.998.465.29.147.556.338.787.566.222.217.396.477.51.765.127.355.18.733.156 1.11a2.658 2.658 0 0 1-1.109 2.073 3.665 3.665 0 0 1-1.187.588c-.48.131-.977.19-1.475.177zM132.435 45.78a5.677 5.677 0 0 1-2.218-.167 5.944 5.944 0 0 1-1.796-.865l.732-1.187c.461.34.974.602 1.519.776a4.08 4.08 0 0 0 1.708.167 2.388 2.388 0 0 0 1.464-.588 1.36 1.36 0 0 0 .41-1.109 1.381 1.381 0 0 0-.189-.599 1.34 1.34 0 0 0-.388-.4 2.586 2.586 0 0 0-.554-.276l-.677-.233-1.308-.366a7.053 7.053 0 0 1-1.021-.344 3.88 3.88 0 0 1-.854-.488 2.503 2.503 0 0 1-.621-.688 2.223 2.223 0 0 1-.31-.942 2.478 2.478 0 0 1 .144-1.11c.137-.357.353-.679.632-.942a3.562 3.562 0 0 1 1.043-.676 4.594 4.594 0 0 1 1.364-.355 4.768 4.768 0 0 1 1.974.166c.523.16 1.02.395 1.475.699l-.721 1.109a4.182 4.182 0 0 0-1.22-.588 3.482 3.482 0 0 0-1.397-.122c-.484.022-.948.2-1.32.51a1.233 1.233 0 0 0-.377 1.11 1.11 1.11 0 0 0 .532.875c.401.225.83.397 1.276.51l1.33.367c.377.1.721.21 1.054.321.306.106.594.26.854.455.246.188.45.426.599.698.168.328.27.686.299 1.054a2.644 2.644 0 0 1-.776 2.196c-.322.31-.698.558-1.109.732a5.054 5.054 0 0 1-1.553.3zM145 39.236l-4.236-5.744-1.753.52-.554 10.658 1.564-.465.077-2.984 3.66-1.109 1.242 1.82v-2.696zm-4.857.721V38.45 36.74v-1.73h.077c.333.48.651.957.954 1.43.303.474.621.95.954 1.431l.854 1.242-2.839.843zM.832 68.447l.477-10.037 1.608.078-.422 8.705 4.591.222-.066 1.342-6.188-.31zM12.265 69.888a4.802 4.802 0 0 1-1.796-.743 4.236 4.236 0 0 1-1.242-1.33 4.802 4.802 0 0 1-.632-1.83c-.088-.74-.05-1.49.11-2.218.14-.732.407-1.434.788-2.074a4.736 4.736 0 0 1 1.32-1.43 4.192 4.192 0 0 1 1.663-.71c.64-.128 1.3-.128 1.94 0a4.88 4.88 0 0 1 1.786.732 4.29 4.29 0 0 1 1.264 1.353c.334.552.55 1.168.633 1.807.094.74.06 1.49-.1 2.218a6.657 6.657 0 0 1-.787 2.096 4.737 4.737 0 0 1-1.298 1.43 4.348 4.348 0 0 1-1.675.722 4.768 4.768 0 0 1-1.974-.023zm.278-1.33a2.672 2.672 0 0 0 2.395-.588 4.57 4.57 0 0 0 1.42-2.65 4.437 4.437 0 0 0-.233-2.95 2.94 2.94 0 0 0-4.348-.899 4.437 4.437 0 0 0-1.42 2.64 4.57 4.57 0 0 0 .223 2.994 2.674 2.674 0 0 0 1.963 1.441v.012zM23.067 72.983a4.825 4.825 0 0 1-1.73-.888 4.248 4.248 0 0 1-1.11-1.42 4.814 4.814 0 0 1-.543-1.873c-.03-.75.068-1.5.289-2.218.2-.72.522-1.399.954-2.008.368-.525.84-.97 1.386-1.308a4.214 4.214 0 0 1 1.808-.566 5.223 5.223 0 0 1 3.648 1.11 4.29 4.29 0 0 1 1.109 1.408 4.66 4.66 0 0 1 .477 1.852c.038.75-.056 1.5-.277 2.218a6.655 6.655 0 0 1-.954 2.029c-.372.536-.852.99-1.409 1.33a4.337 4.337 0 0 1-1.73.588 4.758 4.758 0 0 1-1.918-.254zm.377-1.31a2.673 2.673 0 0 0 2.429-.387 4.569 4.569 0 0 0 1.574-2.529c.34-.958.34-2.003 0-2.96a2.927 2.927 0 0 0-4.27-1.243 4.436 4.436 0 0 0-1.585 2.495 4.568 4.568 0 0 0 0 2.995 2.672 2.672 0 0 0 1.852 1.641v-.011zM32.205 74.735l.665-9.981 1.608.11-.321 4.758h.055l4.536-4.436 1.785.122-3.604 3.649 3.405 6.41-1.72-.166-2.727-5.235-1.863 1.686-.211 3.194-1.608-.111zM44.193 72.295a2.073 2.073 0 0 1-1.541-.576 2.283 2.283 0 0 1-.51-.721 2.505 2.505 0 0 1-.211-.943 2.572 2.572 0 0 1 .133-.965 2.15 2.15 0 0 1 .444-.754c.189-.205.414-.374.665-.499a2.04 2.04 0 0 1 1.663-.067c.267.1.512.251.721.444.214.204.384.449.5.721.13.301.202.625.21.954.018.323-.027.647-.133.953a2.304 2.304 0 0 1-.444.755 2.13 2.13 0 0 1-1.497.699zM50.148 74.646l-1.774-9.892 6.244-1.109.232 1.297-4.657.832.554 3.117 3.96-.71.221 1.22-3.959.71.765 4.258-1.586.277zM59.608 72.472l-2.994-9.593 6.033-1.885.377 1.22-4.525 1.408.865 2.784 3.815-1.187.366 1.11-3.815 1.197.987 3.238 4.691-1.464.377 1.22-6.177 1.952zM67.992 69.91l-1.73-9.891 6.233-1.11.221 1.265-4.646.832.52 2.86 3.938-.709.221 1.198-3.936.71.599 3.326 4.835-.865.222 1.265-6.477 1.12zM76.664 68.635l-.421-10.07h1.63l.344 8.706 4.591-.177v1.341l-6.144.2zM86.224 65.763a2.108 2.108 0 0 1-.832-.2c-.253-.12-.48-.29-.665-.5a2.297 2.297 0 0 1-.444-.753 2.486 2.486 0 0 1-.133-.954 2.55 2.55 0 0 1 .21-.954c.117-.27.287-.516.5-.72.207-.19.448-.34.71-.444a2.062 2.062 0 0 1 1.663.066c.255.122.485.291.676.5.197.219.348.475.444.754.106.31.151.637.133.964-.008.325-.08.646-.21.943-.123.27-.296.516-.51.72a2.063 2.063 0 0 1-.722.444 2.14 2.14 0 0 1-.82.134zM90.493 68.846l1.198-9.98 1.597.188-1.198 9.98-1.597-.188zM95.096 69.4l2.606-9.725 1.575.421 2.04 6.654.566 2.385h.077c.096-.496.196-1.043.3-1.642.103-.599.225-1.157.366-1.674l1.22-4.558 1.441.388-2.606 9.703-1.552-.421-2.063-6.654-.555-2.384h-.088a61.218 61.218 0 0 0-.3 1.641c-.096.57-.21 1.131-.344 1.686l-1.23 4.59-1.453-.41zM108.215 73.238l2.129-8.45-3.083-.777.322-1.298 7.763 1.941-.322 1.298-3.083-.777-2.129 8.45-1.597-.387zM116.754 74.835l.566-10.037 6.321.355-.078 1.275-4.713-.266-.166 2.906 3.992.222-.066 1.22-3.993-.222-.188 3.327 4.901.277-.066 1.309-6.51-.366zM127.101 75.2l-.765-9.98 3.46-.267a7.696 7.696 0 0 1 1.552 0c.441.049.867.184 1.254.4.359.205.661.499.876.854.239.412.376.876.399 1.352a2.752 2.752 0 0 1-.488 1.919c-.41.52-.966.907-1.597 1.109l2.994 4.014-1.719.134-2.805-3.838-1.852.145.31 4.025-1.619.133zm1.264-5.345l1.686-.133c1.663-.126 2.451-.795 2.362-2.007a1.456 1.456 0 0 0-.754-1.309 3.692 3.692 0 0 0-1.896-.244l-1.664.122.266 3.571zM138.823 73.692l-2.695-9.68 6.111-1.709.355 1.276-4.558 1.275.853 3.05 3.871-1.11.333 1.198-3.871 1.11 1.165 4.17-1.564.42zM2.74 97.713l.443-8.706L0 88.841l.067-1.342 7.962.41-.066 1.342-3.183-.166-.444 8.705-1.597-.077zM9.316 98.234l1.996-9.848 6.155 1.231-.255 1.253-4.625-.942-.577 2.85 3.915.798-.244 1.198-3.86-.72-.665 3.326 4.813.976-.255 1.253-6.398-1.375zM20.716 101.439a5.673 5.673 0 0 1-1.985-1.042 5.98 5.98 0 0 1-1.264-1.509l1.109-.798c.295.497.67.943 1.108 1.32.435.38.945.663 1.498.831a2.383 2.383 0 0 0 1.585 0 1.347 1.347 0 0 0 .843-.898c.07-.203.093-.419.067-.632a1.343 1.343 0 0 0-.2-.521 2.604 2.604 0 0 0-.399-.477l-.532-.477-1.11-.854a7.293 7.293 0 0 1-.798-.72 3.938 3.938 0 0 1-.588-.788 2.472 2.472 0 0 1-.299-.876 2.217 2.217 0 0 1 .1-.987c.112-.379.314-.725.588-1.01.267-.275.593-.488.953-.62.392-.141.805-.212 1.22-.211.475.001.946.076 1.398.222.639.185 1.232.502 1.74.931.43.353.804.768 1.11 1.231l-1.11.754a4.194 4.194 0 0 0-.875-1.031 3.505 3.505 0 0 0-1.231-.677 2.218 2.218 0 0 0-1.42-.055 1.23 1.23 0 0 0-.787.854 1.11 1.11 0 0 0 .144 1.02c.278.366.602.694.965.976l1.109.865c.303.244.58.484.831.721.241.219.447.473.61.754.153.27.247.568.278.876.027.376-.022.753-.144 1.11a2.64 2.64 0 0 1-1.586 1.696 3.684 3.684 0 0 1-1.298.233 5.052 5.052 0 0 1-1.63-.211zM29.577 103.458l1.33-8.617-3.149-.488.2-1.32 7.885 1.209-.2 1.32-3.15-.488-1.33 8.617-1.586-.233zM40.156 104.533a5.701 5.701 0 0 1-2.218-.433 5.95 5.95 0 0 1-1.685-1.109l.865-1.109c.412.424.891.777 1.42 1.043a4.082 4.082 0 0 0 1.674.366 2.384 2.384 0 0 0 1.53-.411 1.354 1.354 0 0 0 .544-1.109 1.39 1.39 0 0 0-.122-.621 1.335 1.335 0 0 0-.3-.443 2.567 2.567 0 0 0-.521-.333l-.643-.31-1.253-.51a7.095 7.095 0 0 1-.976-.455 3.95 3.95 0 0 1-.788-.577 2.495 2.495 0 0 1-.532-.754 2.218 2.218 0 0 1-.2-.976c.005-.386.1-.766.278-1.109a2.56 2.56 0 0 1 .732-.865 3.58 3.58 0 0 1 1.109-.554 4.626 4.626 0 0 1 1.397-.189 4.78 4.78 0 0 1 1.94.388c.503.219.97.51 1.387.865l-.843 1.043a4.182 4.182 0 0 0-1.109-.732 3.506 3.506 0 0 0-1.375-.289 2.217 2.217 0 0 0-1.375.355 1.22 1.22 0 0 0-.5 1.043 1.109 1.109 0 0 0 .433.931c.373.27.78.49 1.209.655l1.275.51c.363.148.699.295 1.01.443.293.143.562.33.798.555.226.215.403.476.521.765.134.354.194.731.178 1.109a2.654 2.654 0 0 1-1.032 2.085c-.352.269-.75.472-1.175.599a5.106 5.106 0 0 1-1.653.133zM48.24 101.184a2.077 2.077 0 0 1-1.575-.477 2.283 2.283 0 0 1-.542-.687 2.486 2.486 0 0 1-.266-.932 2.551 2.551 0 0 1 .077-.976c.076-.264.2-.512.366-.732.18-.218.398-.402.643-.543.25-.142.525-.228.81-.255.284-.03.571 0 .843.089.27.086.522.221.743.399.225.19.41.424.543.687.149.295.24.615.266.943.038.324.012.651-.077.965a2.266 2.266 0 0 1-.4.776 2.056 2.056 0 0 1-.643.544 2.129 2.129 0 0 1-.787.199zM54.606 103.081l-2.694-9.682 3.327-.92a7.996 7.996 0 0 1 1.619-.288 3.56 3.56 0 0 1 1.375.155c.424.127.806.364 1.109.687.325.373.557.818.676 1.298.14.47.171.968.09 1.453a2.64 2.64 0 0 1-.544 1.186 3.85 3.85 0 0 1-1.11.91c-.477.272-.987.48-1.519.62l-1.752.489 1.02 3.659-1.597.433zm.222-5.224l1.642-.454a3.239 3.239 0 0 0 1.763-.998 1.741 1.741 0 0 0 .21-1.586 1.564 1.564 0 0 0-1.053-1.209 3.826 3.826 0 0 0-2.03.144l-1.607.444 1.075 3.66zM64.288 100.086l-2.462-9.77 3.327-.832a7.621 7.621 0 0 1 1.53-.233c.445-.025.89.039 1.309.188.386.145.73.386.998.7.301.366.51.8.61 1.263.19.656.131 1.36-.166 1.974a3.327 3.327 0 0 1-1.387 1.387l3.76 3.47-1.675.411-3.393-3.327-1.808.444.965 3.915-1.608.41zm.322-5.434l1.64-.4c1.62-.399 2.285-1.19 1.997-2.373a1.452 1.452 0 0 0-.954-1.109 3.682 3.682 0 0 0-1.907.078l-1.62.4.843 3.404zM77.596 98.023a4.826 4.826 0 0 1-1.93-.255 4.248 4.248 0 0 1-1.541-.954 4.812 4.812 0 0 1-1.11-1.608 6.585 6.585 0 0 1-.487-2.218 6.458 6.458 0 0 1 .21-2.218 4.76 4.76 0 0 1 .865-1.696 4.203 4.203 0 0 1 1.42-1.11 4.945 4.945 0 0 1 1.885-.476 4.89 4.89 0 0 1 1.908.244 4.29 4.29 0 0 1 1.552.931c.475.443.853.979 1.11 1.575.288.705.45 1.456.476 2.218a6.654 6.654 0 0 1-.21 2.218 4.736 4.736 0 0 1-.877 1.73 4.335 4.335 0 0 1-1.43 1.109 4.78 4.78 0 0 1-1.841.51zm-.089-1.353a2.673 2.673 0 0 0 2.151-1.186 4.569 4.569 0 0 0 .644-2.928 4.436 4.436 0 0 0-.998-2.784 2.926 2.926 0 0 0-4.436.266 4.436 4.436 0 0 0-.655 2.884 4.568 4.568 0 0 0 .999 2.828 2.672 2.672 0 0 0 2.295.92zM86.124 97.713l.444-8.706-3.183-.166.066-1.342 7.963.4-.067 1.341-3.183-.166-.443 8.705-1.597-.066zM96.05 99.132a4.823 4.823 0 0 1-1.797-.765 4.225 4.225 0 0 1-1.231-1.33 4.804 4.804 0 0 1-.6-1.83 6.656 6.656 0 0 1 .123-2.219 6.454 6.454 0 0 1 .798-2.073 4.725 4.725 0 0 1 1.287-1.398 4.18 4.18 0 0 1 1.663-.698c.64-.128 1.3-.128 1.941 0 .635.127 1.238.38 1.774.743.504.346.927.796 1.242 1.32a4.64 4.64 0 0 1 .622 1.807c.091.74.054 1.49-.111 2.218a6.65 6.65 0 0 1-.799 2.085 4.71 4.71 0 0 1-1.309 1.43 4.335 4.335 0 0 1-1.674.71 4.79 4.79 0 0 1-1.93 0zm.288-1.33a2.672 2.672 0 0 0 2.395-.566 4.566 4.566 0 0 0 1.408-2.65c.27-.98.195-2.02-.21-2.95a2.928 2.928 0 0 0-4.347-.932 4.436 4.436 0 0 0-1.398 2.606 4.569 4.569 0 0 0 .2 2.994 2.674 2.674 0 0 0 1.94 1.508l.012-.01zM104.422 101.284l2.551-8.329-3.039-.931.388-1.275 7.63 2.34-.388 1.286-3.039-.932-2.55 8.329-1.553-.488zM113.86 103.602l.521-3.77-2.351-6.655 1.697.233.909 2.806c.118.392.237.761.355 1.109l.377 1.109h.078l.654-1.02.654-1.02 1.63-2.34 1.653.232-4.07 5.745-.521 3.77-1.586-.199zM121.611 104.322l-.066-10.058h3.438c.55-.009 1.1.04 1.641.144a3.57 3.57 0 0 1 1.287.51c.355.234.645.554.842.931.216.446.323.936.311 1.431a3.19 3.19 0 0 1-.288 1.43c-.192.403-.482.75-.843 1.01a3.882 3.882 0 0 1-1.276.588 6.306 6.306 0 0 1-1.63.199h-1.819v3.804l-1.597.011zm1.575-4.98h1.708a3.238 3.238 0 0 0 1.963-.498 1.74 1.74 0 0 0 .621-1.475 1.564 1.564 0 0 0-.654-1.43 3.815 3.815 0 0 0-1.996-.4h-1.664l.022 3.804zM132.69 103.879l-1.275-9.98 1.597-.2 1.275 9.981-1.597.199zM138.601 96.271c-.214-.54-.418-1.057-.61-1.553h.078l1.741 1.73 5.19 4.536v-5.822l-1.264-4.203-1.431.432 1.364 4.514c.155.518.344 1.057.566 1.62l.61 1.552h-.078l-1.741-1.697-5.257-4.613-1.563.465 2.894 9.626 1.431-.432-1.375-4.558a14.657 14.657 0 0 0-.555-1.597z" fill="#000" fill-opacity=".5"/></svg>