<?xml version="1.0" encoding="utf-8"?>
<!-- Generator: Adobe Illustrator 21.0.0, SVG Export Plug-In . SVG Version: 6.00 Build 0)  -->
<svg version="1.1" id="Слой_1" xmlns="http://www.w3.org/2000/svg" xmlns:xlink="http://www.w3.org/1999/xlink" x="0px" y="0px"
	 viewBox="0 0 169.3 169.3" style="enable-background:new 0 0 169.3 169.3;" xml:space="preserve">
<style type="text/css">
	.st0{fill:#FFFFFF;}
</style>
<g>
	<path class="st0" d="M159.3,3.3c-0.1-1.8-1.6-3.3-3.5-3.3H13.5c-1.8,0-3.4,1.4-3.5,3.3L0,165.6c-0.1,1,0.3,1.9,0.9,2.6
		s1.6,1.1,2.5,1.1h162.3c1,0,1.9-0.4,2.5-1.1s1-1.6,0.9-2.6L159.3,3.3z M7.2,162.3L16.8,7h135.8l9.6,155.3H7.2z"/>
	<path class="st0" d="M120.4,30.5c-6.6,0-12,5.4-12,12c0,5.3,3.5,9.8,8.3,11.4c-2.6,15.5-16.1,27.1-32,27.1c-16,0-29.4-11.5-32-27.1
		c4.8-1.6,8.3-6.1,8.3-11.4c0-6.6-5.4-12-12-12s-12,5.4-12,12c0,5.5,3.7,10.1,8.7,11.5c2.7,19.4,19.3,34,39.1,34
		c19.7,0,36.4-14.5,39.1-34c5-1.5,8.6-6.1,8.6-11.5C132.4,35.9,127,30.5,120.4,30.5z M43.9,42.5c0-2.8,2.2-5,5-5s5,2.2,5,5
		s-2.2,5-5,5S43.9,45.3,43.9,42.5z M120.4,47.5c-2.8,0-5-2.2-5-5s2.2-5,5-5s5,2.2,5,5S123.2,47.5,120.4,47.5z"/>
</g>
</svg>
