<?xml version="1.0" encoding="utf-8"?>
<!-- Generator: Adobe Illustrator 21.0.0, SVG Export Plug-In . SVG Version: 6.00 Build 0)  -->
<svg version="1.1" id="Слой_1" xmlns="http://www.w3.org/2000/svg" xmlns:xlink="http://www.w3.org/1999/xlink" x="0px" y="0px"
	 viewBox="0 0 220 214.2" style="enable-background:new 0 0 220 214.2;" xml:space="preserve">
<style type="text/css">
	.st0{fill:#FFFFFF;}
	.st1{fill:none;stroke:#272624;stroke-width:3.1494;stroke-miterlimit:10;}
	.st2{fill:#E29044;}
	.st3{fill:#FFFFFF;stroke:#000000;stroke-width:1.6236;stroke-miterlimit:10;}
	.st4{fill:#E29044;stroke:#000000;stroke-width:1.6236;stroke-miterlimit:10;}
	.st5{fill:#B87837;}
	.st6{fill:none;stroke:#000000;stroke-width:1.6236;stroke-miterlimit:10;}
	.st7{fill:none;stroke:#FFFFFF;stroke-width:1.6236;stroke-miterlimit:10;}
	.st8{fill:#D5584D;stroke:#000000;stroke-width:1.6236;stroke-miterlimit:10;}
	.st9{fill:#5B7BBB;stroke:#000000;stroke-width:1.6236;stroke-miterlimit:10;}
	.st10{fill:#D5584D;}
	.st11{fill:#5B7BBB;}
	.st12{fill:#272624;}
	.st13{fill:none;stroke:#272624;stroke-width:3;stroke-miterlimit:10;}
	.st14{fill:none;stroke:#E29044;stroke-width:7;stroke-linejoin:round;stroke-miterlimit:10;}
	.st15{fill:#E29044;stroke:#272624;stroke-width:3;stroke-miterlimit:10;}
	.st16{fill:none;stroke:#E29044;stroke-width:3;stroke-miterlimit:10;}
	.st17{fill:#272624;stroke:#272624;stroke-width:3.1281;stroke-miterlimit:10;}
	.st18{fill:none;stroke:#272624;stroke-width:3.1281;stroke-miterlimit:10;}
	.st19{fill:#272624;stroke:#272624;stroke-width:1.9703;stroke-miterlimit:10;}
	.st20{fill:none;stroke:#272624;stroke-width:3.2838;stroke-miterlimit:10;}
</style>
<g>
	<g>
		<path class="st12" d="M23.1,108.2c-4.2,0-7.8-1.5-10.7-4.4l2.1-2.1c2.6,2.6,5.6,3.7,9.4,3.5c3.6-0.2,7.1-1.6,10.4-3
			c3.5-1.5,7.2-3,11.1-3c4,0,8,1.6,10.7,4.3l-2.1,2.1c-2.1-2.1-5.3-3.4-8.6-3.4c-3.3,0-6.5,1.3-9.9,2.7c-3.6,1.5-7.3,3-11.4,3.2
			C23.7,108.2,23.4,108.2,23.1,108.2z"/>
	</g>
	<g>
		<path class="st12" d="M33.4,126.7c-2.6,0-5.9-1.5-6.8-3.2l2.6-1.5c0.3,0.5,2.4,1.6,4.2,1.6c1.5,0,2.7-0.4,4-0.9
			c1.4-0.6,3.1-1.2,5.3-1.2c1.3,0,4.7,0.2,7,2.6l-2.1,2.1c-1.6-1.6-4.2-1.7-4.9-1.7c-1.7,0-2.9,0.5-4.2,1
			C37,126.1,35.5,126.7,33.4,126.7z"/>
	</g>
	<g>
		
			<rect x="49.4" y="42.2" transform="matrix(0.9591 -0.283 0.283 0.9591 -10.0138 26.8037)" class="st2" width="76.7" height="11.8"/>
	</g>
	<g>
		<polygon class="st2" points="137.9,54.2 49,80.4 52.7,64.6 126.2,42.9 		"/>
	</g>
	<g>
		<rect x="63.1" y="76.7" transform="matrix(0.9591 -0.283 0.283 0.9591 -24.6046 22.2021)" class="st12" width="3" height="39.2"/>
	</g>
	<g>
		<rect x="71.6" y="74.1" transform="matrix(0.9591 -0.283 0.283 0.9591 -23.546 24.5081)" class="st12" width="3" height="39.2"/>
	</g>
	<g>
		<rect x="124" y="58.7" transform="matrix(0.9591 -0.283 0.283 0.9591 -17.0313 38.7035)" class="st12" width="3" height="39.2"/>
	</g>
	<g>
		
			<rect x="132.5" y="56.2" transform="matrix(0.9591 -0.283 0.283 0.9591 -15.9722 41.0079)" class="st12" width="3" height="39.2"/>
	</g>
	<g>
		
			<rect x="66.9" y="103.9" transform="matrix(0.9591 -0.283 0.283 0.9591 -32.0687 36.9538)" class="st2" width="90" height="51.2"/>
	</g>
	<g>
		<path class="st2" d="M186.8,95.9l-10.3,3c-3.2,0.9-6.5-0.9-7.5-4.1v0c-0.9-3.2,0.9-6.5,4.1-7.5l10.3-3c3.2-0.9,6.5,0.9,7.5,4.1v0
			C191.8,91.7,190,95,186.8,95.9z"/>
	</g>
	<g>
		<rect x="63" y="114.8" transform="matrix(0.9591 -0.2829 0.2829 0.9591 -28.4919 35.307)" class="st12" width="90" height="3"/>
	</g>
	<g>
		
			<rect x="50.7" y="50.8" transform="matrix(0.9591 -0.2829 0.2829 0.9591 -11.1693 27.3298)" class="st12" width="76.7" height="3"/>
	</g>
	<g>
		
			<rect x="128.5" y="116.5" transform="matrix(0.9591 -0.2829 0.2829 0.9591 -27.5885 44.8985)" class="st12" width="26.4" height="3"/>
	</g>
	<path class="st12" d="M136.2,148.5c-4.2-14.1-19-22.2-33.1-18c-14.1,4.2-22.2,19-18,33.1s19,22.2,33.1,18S140.4,162.6,136.2,148.5z
		 M128.1,151L128.1,151C128.1,151,128.1,151,128.1,151C128.1,151,128.1,151,128.1,151z M127.6,149.6l-11,3.2c-0.6-1.1-1.5-2-2.7-2.7
		c-0.1,0-0.1-0.1-0.2-0.1l2.7-11.2C121.5,140.6,125.6,144.4,127.6,149.6z M105.5,138.7c2.6-0.8,5.3-0.9,7.9-0.5l-2.7,11.2
		c-0.7,0-1.3,0.1-2,0.3c-0.6,0.2-1.3,0.5-1.8,0.8l-8.3-7.9C100.6,140.9,102.9,139.5,105.5,138.7z M96.5,144.8l8.3,7.9
		c0,0.1-0.1,0.1-0.1,0.2c-0.6,1.1-0.9,2.4-0.8,3.7l-11,3.2C91.8,154.4,93.2,148.9,96.5,144.8z M93.7,162.7l11-3.2
		c0.6,1.1,1.5,2,2.7,2.7c0.1,0,0.1,0.1,0.2,0.1l-2.7,11.2C99.9,171.7,95.8,167.9,93.7,162.7z M115.8,173.6c-2.6,0.8-5.3,0.9-7.9,0.5
		l2.7-11.2c0,0,0,0,0,0c0.6,0,1.3-0.1,1.9-0.3c0.6-0.2,1.2-0.5,1.8-0.8l8.3,7.9C120.8,171.5,118.5,172.8,115.8,173.6z M123.5,169.1
		L123.5,169.1C123.5,169,123.5,169.1,123.5,169.1z M124.9,167.5l-8.3-7.9c0-0.1,0.1-0.1,0.1-0.2c0.6-1.1,0.9-2.4,0.8-3.7l11-3.2
		C129.6,157.9,128.2,163.4,124.9,167.5z"/>
	<path class="st12" d="M207,125.4c-2.1-7-8.3-11.5-15.2-11.8L186.6,96l-2.9,0.8l5,17c-0.7,0.1-1.4,0.3-2.1,0.5s-1.4,0.5-2,0.8l-5-17
		l-2.9,0.8l5.2,17.6c-1.5,1.1-2.8,2.4-3.9,3.8l0-0.1l-20.1,5.9l0.8,2.9L176,124c-0.7,1.9-1.1,3.9-1.1,5.9l-14.6,4.3l0.8,2.9l14-4.1
		c0.1,0.6,0.2,1.1,0.4,1.7c2.6,8.7,11.7,13.7,20.4,11.1C204.6,143.2,209.6,134.1,207,125.4z M196.2,137.8l-1.6-4
		c0.3-0.2,0.6-0.5,0.8-0.8c0.2-0.3,0.4-0.6,0.6-1l4.2,0.5C199.5,134.7,198.1,136.6,196.2,137.8z M196.4,128.9
		c-0.1-0.8-0.4-1.5-0.9-2.2l2.4-3.2c1,1,1.8,2.3,2.2,3.8c0.2,0.7,0.3,1.4,0.4,2.1L196.4,128.9z M195.5,121.8L193,125
		c-0.8-0.3-1.7-0.4-2.6-0.3l-1.4-3.6C191.3,120.5,193.6,120.8,195.5,121.8z M187.6,126c-0.2,0.2-0.4,0.4-0.6,0.6
		c-0.2,0.3-0.4,0.6-0.6,1l-4-0.5c0.7-2,2-3.7,3.8-4.9L187.6,126z M184.4,136.3c-0.9-1-1.6-2.2-2.1-3.6c-0.2-0.8-0.3-1.6-0.4-2.4
		l4.1,0.5c0.1,0.8,0.4,1.5,0.9,2.1L184.4,136.3z M186.8,138.1l2.6-3.4c0.7,0.3,1.5,0.4,2.3,0.3l1.7,4
		C191,139.6,188.7,139.2,186.8,138.1z"/>
</g>
</svg>
