<?xml version="1.0" encoding="utf-8"?>
<!-- Generator: Adobe Illustrator 21.0.0, SVG Export Plug-In . SVG Version: 6.00 Build 0)  -->
<svg version="1.1" id="Слой_1" xmlns="http://www.w3.org/2000/svg" xmlns:xlink="http://www.w3.org/1999/xlink" x="0px" y="0px"
	 viewBox="0 0 220 214.2" style="enable-background:new 0 0 220 214.2;" xml:space="preserve">
<style type="text/css">
	.st0{fill:#FFFFFF;}
	.st1{fill:none;stroke:#272624;stroke-width:3.1494;stroke-miterlimit:10;}
	.st2{fill:#E29044;}
	.st3{fill:#FFFFFF;stroke:#000000;stroke-width:1.6236;stroke-miterlimit:10;}
	.st4{fill:#E29044;stroke:#000000;stroke-width:1.6236;stroke-miterlimit:10;}
	.st5{fill:#B87837;}
	.st6{fill:none;stroke:#000000;stroke-width:1.6236;stroke-miterlimit:10;}
	.st7{fill:none;stroke:#FFFFFF;stroke-width:1.6236;stroke-miterlimit:10;}
	.st8{fill:#D5584D;stroke:#000000;stroke-width:1.6236;stroke-miterlimit:10;}
	.st9{fill:#5B7BBB;stroke:#000000;stroke-width:1.6236;stroke-miterlimit:10;}
	.st10{fill:#D5584D;}
	.st11{fill:#5B7BBB;}
	.st12{fill:#272624;}
	.st13{fill:none;stroke:#272624;stroke-width:3;stroke-miterlimit:10;}
	.st14{fill:none;stroke:#E29044;stroke-width:7;stroke-linejoin:round;stroke-miterlimit:10;}
	.st15{fill:#E29044;stroke:#272624;stroke-width:3;stroke-miterlimit:10;}
	.st16{fill:none;stroke:#E29044;stroke-width:3;stroke-miterlimit:10;}
	.st17{fill:#272624;stroke:#272624;stroke-width:3.1281;stroke-miterlimit:10;}
	.st18{fill:none;stroke:#272624;stroke-width:3.1281;stroke-miterlimit:10;}
	.st19{fill:#272624;stroke:#272624;stroke-width:1.9703;stroke-miterlimit:10;}
	.st20{fill:none;stroke:#272624;stroke-width:3.2838;stroke-miterlimit:10;}
</style>
<g>
	<g>
		<path class="st2" d="M110,193.4L110,193.4c-38.6,0-69.9-31.3-69.9-69.9V90.7c0-38.6,31.3-69.9,69.9-69.9h0
			c38.6,0,69.9,31.3,69.9,69.9v32.8C179.9,162.1,148.6,193.4,110,193.4z"/>
	</g>
	<g>
		<path class="st12" d="M97.6,94.1c0-10.3-8.4-18.7-18.7-18.7c-11.9,0-21.6,9.7-21.6,21.6v15.7H79C89.3,112.7,97.6,104.3,97.6,94.1z
			 M62.2,97c0-9.2,7.5-16.8,16.8-16.8c7.6,0,13.8,6.2,13.8,13.8c0,7.6-6.2,13.8-13.8,13.8H62.2V97z"/>
		<path class="st12" d="M88.2,94.1c0-5-4.1-9.1-9.1-9.1c-5,0-9.1,4.1-9.1,9.1c0,5,4.1,9.1,9.1,9.1C84.1,103.2,88.2,99.1,88.2,94.1z
			 M74.8,94.1c0-2.4,1.9-4.3,4.3-4.3c2.4,0,4.3,1.9,4.3,4.3c0,2.4-1.9,4.3-4.3,4.3C76.7,98.3,74.8,96.4,74.8,94.1z"/>
		<path class="st12" d="M147.2,56.3l3.1-3.7c-22.8-18.8-58.9-18.8-80.5,0l3.2,3.6C92.8,39,126.1,39,147.2,56.3z"/>
		<path class="st12" d="M145,64.5c-23.1-19-48.7-19.3-70.1-0.6l3.2,3.6c19.8-17.2,42.4-17,63.9,0.7L145,64.5z"/>
		<path class="st12" d="M110.2,82.7c-2.6,0-4.8,1.9-5.2,4.5l-8.1,50.5h26.4l-7.8-50.5C115,84.6,112.8,82.7,110.2,82.7z M102.5,132.8
			l7.2-44.9c0.1-0.5,0.9-0.5,0.9,0l6.9,44.9H102.5z"/>
		<path class="st12" d="M87.3,130.6c-14.8,0-22.9,8.3-23.2,8.7l3.5,3.3c0.1-0.1,7-7.2,19.7-7.2V130.6z"/>
		<path class="st12" d="M139.8,75.4c-10.3,0-18.7,8.4-18.7,18.7c0,10.3,8.4,18.7,18.7,18.7h21.6V97
			C161.4,85.1,151.7,75.4,139.8,75.4z M156.6,107.9h-16.8c-7.6,0-13.8-6.2-13.8-13.8c0-7.6,6.2-13.8,13.8-13.8h0
			c9.2,0,16.8,7.5,16.8,16.8V107.9z"/>
		<path class="st12" d="M139.7,84.9c-5,0-9.1,4.1-9.1,9.1c0,5,4.1,9.1,9.1,9.1c5,0,9.1-4.1,9.1-9.1C148.8,89,144.7,84.9,139.7,84.9z
			 M139.7,98.3c-2.4,0-4.3-1.9-4.3-4.3c0-2.4,1.9-4.3,4.3-4.3c2.4,0,4.3,1.9,4.3,4.3C144,96.4,142.1,98.3,139.7,98.3z"/>
		<path class="st12" d="M131.5,130.6v4.8c12.6,0,19.6,7.1,19.7,7.2l3.5-3.3C154.4,139,146.3,130.6,131.5,130.6z"/>
		<path class="st12" d="M81.7,153.7l-1.8,1.5L95,173.8l3.3-22.9c6-1.7,13.8-2.5,22.6,0l2.9,22.7l16.3-18.4l-2.3-1.5
			C107,133.1,82,153.5,81.7,153.7z M91.7,162.1l-5-6.1c1.4-0.9,3.6-2.2,6.3-3.3L91.7,162.1z M127.2,162.4l-1.3-9.7
			c2.2,0.9,4.5,2.1,6.8,3.5L127.2,162.4z"/>
		<rect x="102" y="63.1" class="st12" width="16" height="4.8"/>
	</g>
</g>
</svg>
