<?xml version="1.0" encoding="utf-8"?>
<!-- Generator: Adobe Illustrator 21.0.0, SVG Export Plug-In . SVG Version: 6.00 Build 0)  -->
<svg version="1.1" id="Слой_1" xmlns="http://www.w3.org/2000/svg" xmlns:xlink="http://www.w3.org/1999/xlink" x="0px" y="0px"
	 viewBox="0 0 220 214.2" style="enable-background:new 0 0 220 214.2;" xml:space="preserve">
<style type="text/css">
	.st0{fill:#FFFFFF;}
	.st1{fill:none;stroke:#272624;stroke-width:3.1494;stroke-miterlimit:10;}
	.st2{fill:#E29044;}
	.st3{fill:#FFFFFF;stroke:#000000;stroke-width:1.6236;stroke-miterlimit:10;}
	.st4{fill:#E29044;stroke:#000000;stroke-width:1.6236;stroke-miterlimit:10;}
	.st5{fill:#B87837;}
	.st6{fill:none;stroke:#000000;stroke-width:1.6236;stroke-miterlimit:10;}
	.st7{fill:none;stroke:#FFFFFF;stroke-width:1.6236;stroke-miterlimit:10;}
	.st8{fill:#D5584D;stroke:#000000;stroke-width:1.6236;stroke-miterlimit:10;}
	.st9{fill:#5B7BBB;stroke:#000000;stroke-width:1.6236;stroke-miterlimit:10;}
	.st10{fill:#D5584D;}
	.st11{fill:#5B7BBB;}
	.st12{fill:#272624;}
	.st13{fill:none;stroke:#272624;stroke-width:3;stroke-miterlimit:10;}
	.st14{fill:none;stroke:#E29044;stroke-width:7;stroke-linejoin:round;stroke-miterlimit:10;}
	.st15{fill:#E29044;stroke:#272624;stroke-width:3;stroke-miterlimit:10;}
	.st16{fill:none;stroke:#E29044;stroke-width:3;stroke-miterlimit:10;}
	.st17{fill:#272624;stroke:#272624;stroke-width:3.1281;stroke-miterlimit:10;}
	.st18{fill:none;stroke:#272624;stroke-width:3.1281;stroke-miterlimit:10;}
	.st19{fill:#272624;stroke:#272624;stroke-width:1.9703;stroke-miterlimit:10;}
	.st20{fill:none;stroke:#272624;stroke-width:3.2838;stroke-miterlimit:10;}
</style>
<g>
	<g>
		<path class="st12" d="M150.4,98.4L176.1,49l-2.8-1.5l-25.5,49.1c-2.5-1.7-5.1-3.2-7.8-4.5c9.7-23.3,21.8-52.2,21.9-52.6l-3-1
			c-0.3,0.8-11.8,28.5-21.8,52.3c-8.5-3.7-17.8-5.7-27.3-5.7c-20.5,0-39.8,9.1-52.9,24.9l-2.1,2.6h3.3l106.7,0l-2.1-2.6
			C159.1,105.6,154.9,101.8,150.4,98.4z M146.3,99.4l-5.2,10.1l-8.3,0c1.7-4.1,3.8-9.1,6-14.5C141.4,96.3,143.9,97.8,146.3,99.4z
			 M109.9,88.3c9.1,0,18,1.9,26.1,5.4c-2.4,5.7-4.6,11.1-6.6,15.8l-67.7,0C74,96,91.4,88.3,109.9,88.3z M144.7,109.5l4.3-8.2
			c3.3,2.4,6.3,5.2,9.1,8.2L144.7,109.5z"/>
		<path class="st12" d="M108.7,64.9c0.2,3.8-0.9,6.8-3.5,9.4l2.2,2.2c3.2-3.2,4.7-7.1,4.4-11.8c-0.2-4.2-1.7-7.9-3.2-11.5
			c-1.4-3.4-2.7-6.6-2.7-9.9c0-3.2,1.3-6.4,3.4-8.5l-2.2-2.2c-2.7,2.7-4.3,6.7-4.3,10.7c0,3.9,1.5,7.5,3,11.1
			C107.1,57.8,108.5,61.3,108.7,64.9z"/>
		<path class="st12" d="M127.3,74.6c0,1.6-1.6,2.8-2.2,3.1l1.5,2.8c1.4-0.8,3.8-2.9,3.8-5.9c0-2.2-0.8-3.9-1.6-5.7
			c-0.7-1.6-1.4-3-1.4-4.6c0-1.5,0.6-3.6,1.9-4.9l-2.2-2.2c-2.1,2.1-2.8,5.1-2.8,7.1c0,2.3,0.9,4.2,1.7,5.9
			C126.6,71.7,127.3,73.1,127.3,74.6z"/>
		<path class="st12" d="M89.3,74.6c0,1.6-1.6,2.8-2.2,3.1l1.5,2.8c1.4-0.8,3.8-2.9,3.8-5.9c0-2.2-0.8-3.9-1.6-5.7
			c-0.7-1.6-1.4-3-1.4-4.6c0-1.5,0.6-3.6,1.9-4.9l-2.2-2.2c-2.1,2.1-2.8,5.1-2.8,7.1c0,2.3,0.9,4.2,1.7,5.9
			C88.6,71.7,89.3,73.1,89.3,74.6z"/>
		<circle class="st12" cx="85.7" cy="102.5" r="3"/>
		<circle class="st12" cx="104.3" cy="97" r="4.8"/>
		<circle class="st12" cx="121.9" cy="103.4" r="2.8"/>
	</g>
	<g>
		<path class="st2" d="M176.8,109.1c0,3.5-0.3,7-0.8,10.3c-0.2,1.1-0.3,2.1-0.6,3.2c-4.3,20.9-18.4,38.3-37.3,47.1c0,0,0,0,0,0
			l0.7,3.1l2.1,8.7H78.7l2.1-8.7l0.7-3.2l0-0.1c-18.8-8.8-32.8-26.1-37-47c-0.2-1-0.4-2.1-0.6-3.2c-0.5-3.4-0.8-6.8-0.8-10.3H176.8z
			"/>
	</g>
	<g>
		<g>
			<path class="st12" d="M176,119.4c-0.2,1.1-0.3,2.1-0.6,3.2H44.5c-0.2-1-0.4-2.1-0.6-3.2H176z"/>
		</g>
	</g>
	<g>
		<g>
			<path class="st12" d="M138.9,172.8H80.8l0.7-3.2h56.7c0,0,0,0,0,0L138.9,172.8z"/>
		</g>
	</g>
</g>
</svg>
