<?xml version="1.0" encoding="utf-8"?>
<!-- Generator: Adobe Illustrator 21.0.0, SVG Export Plug-In . SVG Version: 6.00 Build 0)  -->
<svg version="1.1" id="Слой_1" xmlns="http://www.w3.org/2000/svg" xmlns:xlink="http://www.w3.org/1999/xlink" x="0px" y="0px"
	 viewBox="0 0 403.2 242" style="enable-background:new 0 0 403.2 242;" xml:space="preserve">
<style type="text/css">
	.st0{fill:#FFB600;}
	.st1{fill:#CB2026;}
	.st2{fill:#FFFFFF;}
</style>
<g>
	<path class="st0" d="M403.2,121c0,66.6-53.8,121-121,121c-66.6,0-121-54.4-121-121S215,0,281.5,0C349.4,0,403.2,54.4,403.2,121
		L403.2,121z"/>
	<path class="st1" d="M241.3,121.6c0-9-1.3-17.3-2.6-25.6h-74.2c0.6-4.5,1.9-8.3,3.2-12.8h66.6c-1.3-4.5-3.2-9-5.1-12.8h-56.3
		c1.9-4.5,4.5-8.3,7-12.8h42.9c-2.6-4.5-5.8-9-9.6-12.8h-23.7c3.8-4.5,7.7-8.3,12.2-12.2c-21.1-19.8-49.9-31.4-81.3-31.4h-0.6
		C53.8,1.9,0,54.4,0,121s53.8,121,121,121c31.4,0,59.5-12.2,81.3-31.4c4.5-3.8,8.3-8.3,12.2-12.8h-25c-3.2-3.8-6.4-8.3-9-12.2h42.9
		c2.6-3.8,5.1-8.3,7-12.8h-57c-1.9-3.8-3.8-8.3-5.1-12.8h66.6C238.7,147.8,241.3,135,241.3,121.6z"/>
	<path class="st2" d="M163.8,151.7l1.9-10.9c-0.6,0-1.9,0.6-3.2,0.6c-4.5,0-5.1-2.6-4.5-3.8l3.8-22.4h7l1.9-12.2h-6.4l1.3-7.7H153
		c0,0-7.7,42.2-7.7,47.4c0,7.7,4.5,10.9,10.2,10.9C159.4,153.6,162.6,152.3,163.8,151.7L163.8,151.7z"/>
	<path class="st2" d="M168.3,131.2c0,17.9,12.2,22.4,22.4,22.4c9.6,0,13.4-1.9,13.4-1.9l2.6-12.2c0,0-7,3.2-13.4,3.2
		c-14.1,0-11.5-10.2-11.5-10.2H208c0,0,1.9-8.3,1.9-11.5c0-8.3-4.5-18.6-18.6-18.6C177.9,101.1,168.3,115.2,168.3,131.2L168.3,131.2
		z M190.7,112.7c7,0,5.8,8.3,5.8,9h-14.1C182.4,121,183.7,112.7,190.7,112.7L190.7,112.7z"/>
	<path class="st2" d="M272,151.7l2.6-14.1c0,0-6.4,3.2-10.9,3.2c-9,0-12.8-7-12.8-14.7c0-15.4,7.7-23.7,16.6-23.7
		c6.4,0,11.5,3.8,11.5,3.8l1.9-13.4c0,0-7.7-3.2-14.7-3.2c-14.7,0-29.4,12.8-29.4,37.1c0,16,7.7,26.9,23,26.9
		C265,153.6,272,151.7,272,151.7L272,151.7z"/>
	<path class="st2" d="M93.4,101.1c-9,0-15.4,2.6-15.4,2.6l-1.9,10.9c0,0,5.8-2.6,14.1-2.6c4.5,0,8.3,0.6,8.3,4.5
		c0,2.6-0.6,3.2-0.6,3.2h-5.8c-10.9,0-23,4.5-23,19.2c0,11.5,7.7,14.1,12.2,14.1c9,0,12.8-5.8,13.4-5.8l-0.6,5.1h11.5l5.1-35.2
		C110.7,101.8,97.9,101.1,93.4,101.1L93.4,101.1z M96,129.9c0,1.9-1.3,12.2-9,12.2c-3.8,0-5.1-3.2-5.1-5.1c0-3.2,1.9-7.7,11.5-7.7
		C95.4,129.9,96,129.9,96,129.9L96,129.9z"/>
	<path class="st2" d="M122.9,153c3.2,0,19.2,0.6,19.2-16.6c0-16-15.4-12.8-15.4-19.2c0-3.2,2.6-4.5,7-4.5c1.9,0,9,0.6,9,0.6
		l1.9-11.5c0,0-4.5-1.3-12.2-1.3c-9.6,0-19.2,3.8-19.2,16.6c0,14.7,16,13.4,16,19.2c0,3.8-4.5,4.5-7.7,4.5c-5.8,0-11.5-1.9-11.5-1.9
		l-1.9,11.5C108.8,151.7,112,153,122.9,153L122.9,153z"/>
	<path class="st2" d="M378.2,90.9l-2.6,17.3c0,0-5.1-6.4-12.2-6.4c-11.5,0-21.8,14.1-21.8,30.7c0,10.2,5.1,21.1,16,21.1
		c7.7,0,12.2-5.1,12.2-5.1l-0.6,4.5H382l9.6-61.4L378.2,90.9z M372.5,124.8c0,7-3.2,16-10.2,16c-4.5,0-7-3.8-7-10.2
		c0-10.2,4.5-16.6,10.2-16.6C369.9,113.9,372.5,117.1,372.5,124.8L372.5,124.8z"/>
	<path class="st2" d="M23.7,152.3l7.7-46.1l1.3,46.1h9l16.6-46.1l-7,46.1h13.4l10.2-61.4H53.8L41,128.7l-0.6-37.8H21.8l-10.2,61.4
		H23.7z"/>
	<path class="st2" d="M222.1,152.3c3.8-21.1,4.5-38.4,13.4-35.2c1.3-8.3,3.2-11.5,4.5-14.7h-2.6c-5.8,0-10.2,7.7-10.2,7.7l1.3-7
		h-12.2L208,153h14.1L222.1,152.3L222.1,152.3z"/>
	<path class="st2" d="M301.4,101.1c-9,0-15.4,2.6-15.4,2.6l-1.9,10.9c0,0,5.8-2.6,14.1-2.6c4.5,0,8.3,0.6,8.3,4.5
		c0,2.6-0.6,3.2-0.6,3.2h-5.8c-10.9,0-23,4.5-23,19.2c0,11.5,7.7,14.1,12.2,14.1c9,0,12.8-5.8,13.4-5.8l-0.6,5.1h11.5l5.1-35.2
		C319.4,101.8,305.9,101.1,301.4,101.1L301.4,101.1z M304.6,129.9c0,1.9-1.3,12.2-9,12.2c-3.8,0-5.1-3.2-5.1-5.1
		c0-3.2,1.9-7.7,11.5-7.7C304,129.9,304,129.9,304.6,129.9L304.6,129.9z"/>
	<path class="st2" d="M329.6,152.3c3.8-21.1,4.5-38.4,13.4-35.2c1.3-8.3,3.2-11.5,4.5-14.7H345c-5.8,0-10.2,7.7-10.2,7.7l1.3-7
		h-12.2l-8.3,49.9h14.1L329.6,152.3L329.6,152.3z"/>
</g>
</svg>
