<?xml version="1.0" encoding="utf-8"?>
<!-- Generator: Adobe Illustrator 21.0.0, SVG Export Plug-In . SVG Version: 6.00 Build 0)  -->
<svg version="1.1" id="Слой_1" xmlns="http://www.w3.org/2000/svg" xmlns:xlink="http://www.w3.org/1999/xlink" x="0px" y="0px"
	 viewBox="0 0 724.5 116.1" style="enable-background:new 0 0 724.5 116.1;" xml:space="preserve">
<style type="text/css">
	.st0{fill-rule:evenodd;clip-rule:evenodd;fill:#AC5143;}
</style>
<g>
	<path class="st0" d="M100.3,25.8c1.3,0.7,28.8,26,31.9,29.1c1,1,0,0-6.2,6.6c-0.3,0.2-21,19.2-24.2,21.5l-1.4,1.4v21.5
		c0.7,0,56.4-49.7,56.4-49.9c0.3-0.7-17.6-17.3-17.7-17.3c-2-1.2-34-31.3-38.1-35.4h-0.7V25.8L100.3,25.8z"/>
	<path class="st0" d="M221.3,38.1c-4.8,9.2-14.5,7.2-15.6,7.5l-13.5,0.2v-23l18.4,0.4l1.5,0c0.1,0.1,8.8-0.5,9.6,11.1
		C221.7,35.8,221.5,36.8,221.3,38.1L221.3,38.1z M181.8,8.3c-3.1,1-5.3,2.3-6.6,5.5l-0.3,1v77.3h17.7V62.4c6.6,0,21.9,0.5,28.1-0.7
		c2.4-0.5,4.9-1.2,6.9-2.4c0.1-0.1,2-0.6,5.2-3.9c2.3-2.4,3.7-4.5,4.8-8.5c1.1-4.2,1.9-7,1.7-12.1c-0.2-4.8-0.6-10.1-3.1-14.2
		c-0.3-0.5,0.2-0.2-1.4-2.4c-1.2-1.7-2.1-2.9-3.8-4.2c0,0-1.4-1.2-2.1-1.7c-5.4-3.9-14.1-4-20.4-4.2C200.3,7.8,190.1,8.1,181.8,8.3
		L181.8,8.3z"/>
	<path class="st0" d="M0,3.1c3.8,26.3,4.6,32.3,18.4,52.3c9.5,13.8,26,20.5,41.9,20.5v30.2h0.3c5.1-5.1,55.6-48.7,56.1-49.9
		C116.8,56,88.3,28,85.5,26.3c0,0-23.4-21.3-24.9-22.9h-0.3l0,34c-17.6-1.9-28.9-0.2-44-15.3C10.3,16.2,1,0.7,0.3,0H0V3.1L0,3.1z"/>
	<path class="st0" d="M518.4,51.3c1.3-4,2.7-6.8,6.2-9.4c3.2-2.3,12.8-1.9,16.1,2.8c1.6,2.3,2.1,4.8,2.6,8c-4.6,0.4-21.7,0-25.3,0
		L518.4,51.3L518.4,51.3z M524.6,26c-7.8,1.1-14.2,5.2-18.7,11.4c-5.4,7.5-6.5,26-4.2,34c1.6,5.6,3,8,6.2,12.5
		c2.7,3.8,8.9,7.4,13.5,8.7c10.1,2.7,20.8,0.5,29.1-5.5c0.9-0.6,4.6-4.3,5.2-5.2c1-1.4,5.2-8.6,3.8-10.1c-2,0-14.1-0.4-15.6,0.7
		l-3.5,2.4c-1,1-1.6,1.3-2.8,2.1c-3.3,2.4-9.8,2.4-13.2,0.3c-4.9-3-6-8.1-6.8-12.8h42.4c1-1,0.1-12.2-0.3-14.6
		c-1.5-7.5-4.7-14.5-11.1-19.1c-3.4-2.4-10.4-5.1-14.5-5.2C531.1,25.5,527.8,25.5,524.6,26L524.6,26z"/>
	<path class="st0" d="M716.8,27.4c-36.7,1.9-29.4,35.1-28.8,64.8l16.6-0.3c-2.4-40.9-3.8-47.9,19.7-47.1V27
		C720.3,27,720.8,26.9,716.8,27.4L716.8,27.4z"/>
	<path class="st0" d="M297.8,28.8c2.7,8.1,24.6,65.5,22.2,69c-2.6,3.6-8.6,2.9-13.2,3.8v13.9c33.5,0,25-6.7,43.3-56.2
		c1.1-2.9,10.7-30.7,10.7-32.2c-26.5,0-16.1-1-31.2,44.4c-4.2-12.7-8.7-32-12.8-44.4h-19V28.8L297.8,28.8z"/>
	<path class="st0" d="M278.8,68.6c-1.3,5-2.8,8.1-8,10.1c-2.9,1.1-10.5,1.7-12.8-2.1c-1.6-2.6-1.9-8.8,2.8-10.7
		c3.5-1.4,14.2-4.6,18-5.5C279.3,64.7,279.1,64,278.8,68.6L278.8,68.6z M262.5,26c-9.6,1-13.1,3.8-18.4,11.1
		c-0.9,1.3-2.4,4.8-2.4,6.9h16.6c8-8,23.8-3.2,20.1,2.8c-2,3.3-9.9,4.2-13.5,4.9c-16.2,2.8-26.5,6.5-24.2,25.7
		c1.1,9.4,9.2,15.1,17.3,15.9c4.6,0.5,16.7,0.2,22.2-2.1c11.7-4.9,15.2-12.8,15.6-25c0.1-3.6,0.2-22.1-0.3-25.3
		C292.7,26,274.5,24.8,262.5,26L262.5,26z"/>
	<path class="st0" d="M457.5,52.3c0.5-4.6,4.2-11,9.3-11.8c2.2-0.4,7.5-0.1,9.6,1.1c4,2.3,5.2,6.4,5.7,11.1h-24.2L457.5,52.3
		L457.5,52.3z M464.4,26c-3.2,0.4-6.5,1-9.4,2.8l-1,0.3c-2.9,1.5-7.1,6-9,8.7c-0.6,0.9-2.7,5.3-3.1,6.6c-3.4,11.6-3.2,27.9,4.2,38.1
		c0.4,0.6,4.1,4.6,4.5,4.9c4.9,3.5,9.5,5.8,16.3,6.2c5.5,0.3,14.4-0.8,19-4.2c0,0,2.5-1.4,3.5-2.1c1.3-0.9,4.5-4.1,5.5-5.5
		c1.2-1.7,4-6.4,4.2-8.3v-1.7c-2,0-14.1-0.4-15.6,0.7c-2.4,1.7-5.7,4.2-8.3,5.2c-2.4,0.9-1.7,1.4-6.9,1c-3.2-0.2-5.9-2.4-7.6-4.9
		c-1.7-2.4-2.4-6.5-3.1-9.4h42.2l0.3-0.3c0.2-0.4-0.3-8.5-0.3-9.4c-1.4-14.6-7.9-24.1-21.8-28.4C474.6,25.3,468,25.5,464.4,26
		L464.4,26z"/>
	<polygon class="st0" points="687.4,65.9 687.4,76.6 687.7,92.2 688.1,91.9 688.1,57.2 687.6,61.5 687.4,65.9 	"/>
	<path class="st0" d="M362.4,8.1l1.4,83.8l17.4,0c0-6.5-1-29.8,1.1-32.7c2-2.7,7.2-3.8,10.7,1c0.2,0.2,7.2,8.5,9,11.1
		c2.3,3.1,13,19.2,14.5,20.8h21.5c0-3.8-35-49.6-36.4-49.6c2.9-4.9,33.3-31.8,33.3-34.3h-22.2c-2.7,2.7-29.9,31.3-30.8,32.6
		l-0.7,0.7L380.9,8C375.2,8,368.6,8.1,362.4,8.1L362.4,8.1z"/>
	<path class="st0" d="M643.1,52.3c0.6-3.5,1.5-5.2,3.5-8c1-1.4,4.7-3.6,6.2-3.8c3.5-0.6,8.5,0,10.7,3.1c2,2.8,3,4.9,3.8,8.3
		l-0.7,0.7h-22.9L643.1,52.3L643.1,52.3z M649.7,26c-5.2,0.7-8.9,2.1-13.2,5.2c-1.6,1.2-4.5,4.6-5.9,6.6c-1.4,1.9-3.7,7.7-4.2,9.7
		c-1.5,6.2-1.5,18.2,0.3,24.6c0.6,2,2.5,7.2,3.8,9c1.9,2.9,4.4,5.6,7.3,7.6c1.4,1,6.3,3.3,8.3,3.8c7,1.7,15.1,1.4,21.8-1.4
		c3.3-1.4,5.8-3.2,8.7-5.2c0.3-0.2,4-4.2,4.2-4.5l1-1.7c0.2-0.3,2.6-5.3,2.8-6.2v-1.7c-2,0-14.4-0.4-15.9,0.7
		c-0.5,0.3-2.2,1.8-3.1,2.4l-1.4,1c-1,0.7-5,2.6-6.2,2.8c-4.2,0.5-8.8-0.6-11.4-4.2c-1.3-1.7-2.7-5.5-3.1-7.6l-0.3-2.4h42.2
		c0-10.1-1.7-23-9.4-31.5c-2.3-2-4.4-3.7-7.3-4.9C662.6,25.6,656.1,25.2,649.7,26L649.7,26z"/>
	<path class="st0" d="M606.4,65.5c-6.3,25.3-32.7,11-25.3-14.6C586.1,33.9,610.5,36.6,606.4,65.5L606.4,65.5z M588.7,26
		c-18,2.6-25.4,12-26,29.8v60.3c19.4,0,17.3-0.6,17.3-30.9c23,23,53-4,42.6-39.9C618,29.5,604.3,24.3,588.7,26L588.7,26z"/>
</g>
</svg>
