<?xml version="1.0" encoding="utf-8"?>
<!-- Generator: Adobe Illustrator 21.0.0, SVG Export Plug-In . SVG Version: 6.00 Build 0)  -->
<svg version="1.1" id="Слой_1" xmlns="http://www.w3.org/2000/svg" xmlns:xlink="http://www.w3.org/1999/xlink" x="0px" y="0px"
	 viewBox="0 0 220 214.2" style="enable-background:new 0 0 220 214.2;" xml:space="preserve">
<style type="text/css">
	.st0{fill:#FFFFFF;}
	.st1{fill:none;stroke:#272624;stroke-width:3.1494;stroke-miterlimit:10;}
	.st2{fill:#E29044;}
	.st3{fill:#FFFFFF;stroke:#000000;stroke-width:1.6236;stroke-miterlimit:10;}
	.st4{fill:#E29044;stroke:#000000;stroke-width:1.6236;stroke-miterlimit:10;}
	.st5{fill:#B87837;}
	.st6{fill:none;stroke:#000000;stroke-width:1.6236;stroke-miterlimit:10;}
	.st7{fill:none;stroke:#FFFFFF;stroke-width:1.6236;stroke-miterlimit:10;}
	.st8{fill:#D5584D;stroke:#000000;stroke-width:1.6236;stroke-miterlimit:10;}
	.st9{fill:#5B7BBB;stroke:#000000;stroke-width:1.6236;stroke-miterlimit:10;}
	.st10{fill:#D5584D;}
	.st11{fill:#5B7BBB;}
	.st12{fill:#272624;}
	.st13{fill:none;stroke:#272624;stroke-width:3;stroke-miterlimit:10;}
	.st14{fill:none;stroke:#E29044;stroke-width:7;stroke-linejoin:round;stroke-miterlimit:10;}
	.st15{fill:#E29044;stroke:#272624;stroke-width:3;stroke-miterlimit:10;}
	.st16{fill:none;stroke:#E29044;stroke-width:3;stroke-miterlimit:10;}
	.st17{fill:#272624;stroke:#272624;stroke-width:3.1281;stroke-miterlimit:10;}
	.st18{fill:none;stroke:#272624;stroke-width:3.1281;stroke-miterlimit:10;}
	.st19{fill:#272624;stroke:#272624;stroke-width:1.9703;stroke-miterlimit:10;}
	.st20{fill:none;stroke:#272624;stroke-width:3.2838;stroke-miterlimit:10;}
</style>
<g>
	<g>
		<path class="st2" d="M34.7,57.6V129h118.5V57.6H34.7z M64.4,86c-2.1,0-3.9-0.8-5.3-2.1c-1.4,1.3-3.2,2.1-5.3,2.1
			c-4.3,0-7.7-3.4-7.7-7.7s3.4-7.7,7.7-7.7c2.1,0,3.9,0.8,5.3,2.1c1.4-1.3,3.2-2.1,5.3-2.1c4.2,0,7.7,3.5,7.7,7.7
			C72.1,82.5,68.6,86,64.4,86z M141.6,86h-27.4V70.6h27.4V86z"/>
	</g>
	<g>
		<path class="st10" d="M72.1,78.3c0,4.3-3.5,7.7-7.7,7.7c-2.1,0-3.9-0.8-5.3-2.1c-1.4,1.3-3.2,2.1-5.3,2.1c-4.3,0-7.7-3.4-7.7-7.7
			s3.4-7.7,7.7-7.7c2.1,0,3.9,0.8,5.3,2.1c1.4-1.3,3.2-2.1,5.3-2.1C68.6,70.6,72.1,74,72.1,78.3z"/>
		<path d="M64.4,86.8c-1.9,0-3.8-0.6-5.3-1.8c-1.5,1.2-3.3,1.8-5.3,1.8c-4.7,0-8.5-3.8-8.5-8.5s3.8-8.5,8.5-8.5
			c1.9,0,3.8,0.6,5.3,1.8c1.5-1.2,3.3-1.8,5.3-1.8c4.7,0,8.5,3.8,8.5,8.5C72.9,83,69.1,86.8,64.4,86.8z M59.1,82.8l0.6,0.5
			c1.3,1.2,3,1.9,4.7,1.9c3.8,0,6.9-3.1,6.9-6.9c0-3.8-3.1-6.9-6.9-6.9c-1.8,0-3.4,0.7-4.7,1.9l-0.6,0.5l-0.6-0.5
			c-1.3-1.2-2.9-1.9-4.7-1.9c-3.8,0-6.9,3.1-6.9,6.9s3.1,6.9,6.9,6.9c1.8,0,3.5-0.7,4.7-1.9L59.1,82.8z"/>
	</g>
	<g>
		<rect x="114.2" y="70.6" class="st0" width="27.4" height="15.4"/>
	</g>
	<g>
		<rect x="46.1" y="102" width="17.6" height="1.6"/>
	</g>
	<g>
		<rect x="72.1" y="102" width="17.6" height="1.6"/>
	</g>
	<g>
		<rect x="98" y="102" width="17.6" height="1.6"/>
	</g>
	<g>
		<rect x="124" y="102" width="17.6" height="1.6"/>
	</g>
	<g>
		<path class="st11" d="M61.5,78.3c0,2.2-0.9,4.2-2.4,5.6c-1.4,1.3-3.2,2.1-5.3,2.1c-4.3,0-7.7-3.4-7.7-7.7s3.4-7.7,7.7-7.7
			c2.1,0,3.9,0.8,5.3,2.1C60.6,74.1,61.5,76.1,61.5,78.3z"/>
		<path d="M53.8,86.8c-4.7,0-8.5-3.8-8.5-8.5s3.8-8.5,8.5-8.5c2.2,0,4.3,0.8,5.8,2.3c1.7,1.6,2.7,3.8,2.7,6.2c0,2.3-1,4.6-2.7,6.2
			C58.1,86,56,86.8,53.8,86.8z M53.8,71.4c-3.8,0-6.9,3.1-6.9,6.9s3.1,6.9,6.9,6.9c1.8,0,3.5-0.7,4.7-1.9c1.4-1.3,2.2-3.1,2.2-5
			c0-1.9-0.8-3.7-2.2-5C57.3,72.1,55.6,71.4,53.8,71.4z"/>
	</g>
	<g>
		<polygon points="185.3,156.6 65.1,156.6 65.1,129 66.8,129 66.8,155 183.7,155 183.7,85.2 153.2,85.2 153.2,83.6 185.3,83.6 		"/>
	</g>
	<g>
		<rect x="65.9" y="139.9" width="118.5" height="1.6"/>
	</g>
</g>
</svg>
