<?xml version="1.0" encoding="utf-8"?>
<!-- Generator: Adobe Illustrator 21.0.0, SVG Export Plug-In . SVG Version: 6.00 Build 0)  -->
<svg version="1.1" id="Слой_1" xmlns="http://www.w3.org/2000/svg" xmlns:xlink="http://www.w3.org/1999/xlink" x="0px" y="0px"
	 viewBox="0 0 220 214.2" style="enable-background:new 0 0 220 214.2;" xml:space="preserve">
<style type="text/css">
	.st0{fill:#FFFFFF;}
	.st1{fill:none;stroke:#272624;stroke-width:3.1494;stroke-miterlimit:10;}
	.st2{fill:#E29044;}
	.st3{fill:#FFFFFF;stroke:#000000;stroke-width:1.6236;stroke-miterlimit:10;}
	.st4{fill:#E29044;stroke:#000000;stroke-width:1.6236;stroke-miterlimit:10;}
	.st5{fill:#B87837;}
	.st6{fill:none;stroke:#000000;stroke-width:1.6236;stroke-miterlimit:10;}
	.st7{fill:none;stroke:#FFFFFF;stroke-width:1.6236;stroke-miterlimit:10;}
	.st8{fill:#D5584D;stroke:#000000;stroke-width:1.6236;stroke-miterlimit:10;}
	.st9{fill:#5B7BBB;stroke:#000000;stroke-width:1.6236;stroke-miterlimit:10;}
	.st10{fill:#D5584D;}
	.st11{fill:#5B7BBB;}
	.st12{fill:#272624;}
	.st13{fill:none;stroke:#272624;stroke-width:3;stroke-miterlimit:10;}
	.st14{fill:none;stroke:#E29044;stroke-width:7;stroke-linejoin:round;stroke-miterlimit:10;}
	.st15{fill:#E29044;stroke:#272624;stroke-width:3;stroke-miterlimit:10;}
	.st16{fill:none;stroke:#E29044;stroke-width:3;stroke-miterlimit:10;}
	.st17{fill:#272624;stroke:#272624;stroke-width:3.1281;stroke-miterlimit:10;}
	.st18{fill:none;stroke:#272624;stroke-width:3.1281;stroke-miterlimit:10;}
	.st19{fill:#272624;stroke:#272624;stroke-width:1.9703;stroke-miterlimit:10;}
	.st20{fill:none;stroke:#272624;stroke-width:3.2838;stroke-miterlimit:10;}
</style>
<g>
	<g>
		<path class="st2" d="M131.3,80.5v73h30.2l5-3.7l-5.5-6.7v1.4h-9.5v-8.2h4.2l-7.4-9.3c-6.2-8.1,4.3-15.9,10-9.5
			c3.3,3.6,7.4,8.3,10.7,11.9V80.5H131.3z M161,111.3h-9.5V91.1h9.5V111.3z"/>
	</g>
	<g>
		<rect x="121.5" y="80.5" class="st5" width="9.8" height="73"/>
	</g>
	<g>
		<rect x="140.3" y="87.5" width="1.6" height="10.8"/>
	</g>
	<g>
		<rect x="140.3" y="103.5" width="1.6" height="10.8"/>
	</g>
	<g>
		<rect x="140.3" y="119.5" width="1.6" height="10.8"/>
	</g>
	<g>
		<rect x="140.3" y="135.5" width="1.6" height="10.8"/>
	</g>
	<g>
		<polygon points="92.9,171.3 31.1,171.3 31.1,57 41.3,57 41.3,58.6 32.7,58.6 32.7,169.7 91.2,169.7 91.2,58.6 82.7,58.6 82.7,57 
			92.9,57 		"/>
	</g>
	<g>
		<polygon points="83.5,66.6 81.9,66.6 81.9,30.3 41.7,30.3 41.7,66.6 40.1,66.6 40.1,28.7 83.5,28.7 		"/>
	</g>
	<g>
		<rect x="40.9" y="71.5" width="41.8" height="1.6"/>
	</g>
	<g>
		<rect x="50.1" y="43.7" width="23.5" height="1.6"/>
	</g>
	<g>
		<rect x="55.1" y="48.6" width="13.5" height="1.6"/>
	</g>
	<g>
		<rect x="40.2" y="88" class="st2" width="43.5" height="21.5"/>
	</g>
	<g>
		<g>
			<rect x="45.6" y="126.8" width="6.3" height="1.6"/>
		</g>
		<g>
			<rect x="58.8" y="126.8" width="6.3" height="1.6"/>
		</g>
		<g>
			<rect x="72.1" y="126.8" width="6.3" height="1.6"/>
		</g>
		<g>
			<rect x="45.6" y="138.8" width="6.3" height="1.6"/>
		</g>
		<g>
			<rect x="58.8" y="138.8" width="6.3" height="1.6"/>
		</g>
		<g>
			<rect x="72.1" y="138.8" width="6.3" height="1.6"/>
		</g>
		<g>
			<rect x="45.6" y="150.8" width="6.3" height="1.6"/>
		</g>
		<g>
			<rect x="58.8" y="150.8" width="6.3" height="1.6"/>
		</g>
		<g>
			<rect x="72.1" y="150.8" width="6.3" height="1.6"/>
		</g>
	</g>
	<g>
		<path d="M110,154.4H91.2V79.7H110V154.4z M92.9,152.8h15.5V81.3H92.9V152.8z"/>
	</g>
	<g>
		<rect x="99.8" y="98" width="1.6" height="36.3"/>
	</g>
	<g>
		<path d="M188.9,185.6h-39.1v-14.2l-14.6-17.9h24.9l5.1-3.9l-16.9-21.3c-4-5.1-2.8-9.8,0.1-12.2c2.9-2.3,7.6-2.5,11.1,1.6
			c2.3,2.7,5.4,6.2,9.3,10.4v-16.7l20,24.9V185.6z M151.4,183.9h35.9v-47.1L170.6,116v16.3l-1.4-1.5c-4.5-4.9-8.2-8.9-10.7-12
			c-2.9-3.3-6.6-3.2-8.9-1.4c-2.3,1.9-3.1,5.7,0.1,9.9l17.9,22.6l-6.9,5.2h-22l12.8,15.7V183.9z"/>
	</g>
	<g>
		<path d="M174.7,136.6c0,0-2.4-2.5-5.5-5.9l1.2-1.1c3.1,3.4,5.5,5.9,5.5,5.9L174.7,136.6z"/>
	</g>
	<g>
		<polygon points="164.5,162.2 158.6,154.6 159.9,153.6 160.4,154.3 160.4,154.3 165.8,161.3 		"/>
	</g>
	<g>
		<rect x="168.2" y="129.4" width="1.6" height="0.5"/>
	</g>
	<g>
		<rect x="159.6" y="152.7" width="0.4" height="1.6"/>
	</g>
</g>
</svg>
