<?xml version="1.0" encoding="utf-8"?>
<!-- Generator: Adobe Illustrator 21.0.0, SVG Export Plug-In . SVG Version: 6.00 Build 0)  -->
<svg version="1.1" id="Слой_1" xmlns="http://www.w3.org/2000/svg" xmlns:xlink="http://www.w3.org/1999/xlink" x="0px" y="0px"
	 viewBox="0 0 220 214.2" style="enable-background:new 0 0 220 214.2;" xml:space="preserve">
<style type="text/css">
	.st0{fill:#FFFFFF;}
	.st1{fill:none;stroke:#272624;stroke-width:3.1494;stroke-miterlimit:10;}
	.st2{fill:#E29044;}
	.st3{fill:#FFFFFF;stroke:#000000;stroke-width:1.6236;stroke-miterlimit:10;}
	.st4{fill:#E29044;stroke:#000000;stroke-width:1.6236;stroke-miterlimit:10;}
	.st5{fill:#B87837;}
	.st6{fill:none;stroke:#000000;stroke-width:1.6236;stroke-miterlimit:10;}
	.st7{fill:none;stroke:#FFFFFF;stroke-width:1.6236;stroke-miterlimit:10;}
	.st8{fill:#D5584D;stroke:#000000;stroke-width:1.6236;stroke-miterlimit:10;}
	.st9{fill:#5B7BBB;stroke:#000000;stroke-width:1.6236;stroke-miterlimit:10;}
	.st10{fill:#D5584D;}
	.st11{fill:#5B7BBB;}
	.st12{fill:#272624;}
	.st13{fill:none;stroke:#272624;stroke-width:3;stroke-miterlimit:10;}
	.st14{fill:none;stroke:#E29044;stroke-width:7;stroke-linejoin:round;stroke-miterlimit:10;}
	.st15{fill:#E29044;stroke:#272624;stroke-width:3;stroke-miterlimit:10;}
	.st16{fill:none;stroke:#E29044;stroke-width:3;stroke-miterlimit:10;}
	.st17{fill:#272624;stroke:#272624;stroke-width:3.1281;stroke-miterlimit:10;}
	.st18{fill:none;stroke:#272624;stroke-width:3.1281;stroke-miterlimit:10;}
	.st19{fill:#272624;stroke:#272624;stroke-width:1.9703;stroke-miterlimit:10;}
	.st20{fill:none;stroke:#272624;stroke-width:3.2838;stroke-miterlimit:10;}
</style>
<g>
	<g>
		<path class="st2" d="M100.3,64.2l7.5-4.8l0.4,0.9c0,0.1,2,5.1,5.2,12.6c2.1,5.9,6,7.6,8.9,6.7c2.3-0.7,4.2-3.3,3.1-7.4l-9.7-26.1
			l-11.8-9.9v-8.3H71.6V38l-8.2,7.2v53c0,2.4,0.7,4.4,2,5.7c1.1,1,2.5,1.6,4,1.6c1.7,0,3.5-0.8,3.5-2.2V77.5h1.6v25.7v6.3
			c0,1.5,0.6,2.8,1.6,3.7c0.9,0.8,2.2,1.2,3.5,1.2c2,0,4.1-1,4.1-3.2V77.5h1.6v33.7v2.4v3.6c0,3.6,2.5,5.2,4.8,5.2
			c2.3,0,4.8-1.6,4.8-5.2v-9.2V77.5h1.6v30.4c0,1.9,0.5,3.5,1.4,4.5c0.8,0.9,1.9,1.3,3.1,1.3c2.5,0,5.2-2,5.2-5.8V62.3l-6.5,4.2
			l-6.1-10.3l1.4-0.8L100.3,64.2z"/>
	</g>
	<path class="st0" d="M128.2,154.7h-21.7H89.7V66.4h47.5V117v13.4l-10-11c0,0-5.8-5-9.9-2c-4.7,3.4-0.5,10.4-0.5,10.4l4.5,6.4
		l12.3,15.7L128.2,154.7z"/>
	<g>
		<path class="st2" d="M129.8,145.3c-1.6,0.9-2.6,2.6-2.6,4.6H99.8c0-3-2.4-5.3-5.3-5.3V76.5c3,0,5.3-2.4,5.3-5.3h27.3
			c0,3,2.4,5.3,5.3,5.3v48.9"/>
		<path d="M128,150.7H99v-0.8c0-2.5-2-4.5-4.5-4.5h-0.8V75.7h0.8c2.5,0,4.5-2,4.5-4.5v-0.8H128v0.8c0,2.5,2,4.5,4.5,4.5h0.8v49.7
			h-1.6V77.3c-2.7-0.4-4.9-2.5-5.3-5.3h-25.8c-0.4,2.7-2.5,4.9-5.3,5.3v66.6c2.7,0.4,4.9,2.5,5.3,5.3h25.8c0.2-1.8,1.3-3.5,2.9-4.5
			l0.8,1.4c-1.4,0.8-2.2,2.3-2.2,3.9V150.7z"/>
	</g>
	<g>
		<path class="st12" d="M115.2,122c-0.2,0-0.4,0-0.7,0c-5.8,0-10.4-4.7-10.4-10.4c0-5.8,4.7-10.4,10.4-10.4
			c5.8,0,10.4,4.7,10.4,10.4c0,2-0.6,3.8-1.5,5.4"/>
	</g>
	<g>
		<circle cx="113.5" cy="87.7" r="2.5"/>
	</g>
	<g>
		<circle cx="113.5" cy="139" r="2.5"/>
	</g>
	<path class="st0" d="M132.8,162.3l-5.5-7.5l5.9-5.5l-16.4-21c-7.1-9.2,3.7-16.9,10-9.6c6.2,7.2,16.2,17.9,16.2,17.9"/>
	<path d="M138.1,113.7V65.6H88.9v89.9h15.2l13.3,16.4v14.2h39.1v-49.3L138.1,113.7z M90.6,153.9V67.2h45.9v61.2l-6.9-7.6
		c-0.8-0.9-1.5-1.7-2.2-2.5c-3.5-4.1-8.3-3.9-11.1-1.6c-2.9,2.4-4.1,7.1-0.1,12.2l15.9,20.4l-5,4.7H90.6z M155,184.5h-35.9v-13.1
		l-12.8-15.7h20.5l5.3,7.2l1.3-1l-5-6.7l5.8-5.6L130,144l-8-10.2l-4.4-6.3c0-0.1-4.6-6,0.2-9.5c4.1-3.1,8.5,1.7,8.9,2.1l1.6,1.7
		c3.1,3.5,6.6,7.3,9.3,10.3l0.4,0.5v0c2.5,2.7,4.3,4.6,4.3,4.6l1.2-1.1c0-0.1-2.3-2.4-5.3-5.7v-13.9l16.7,20.9V184.5z"/>
</g>
</svg>
