<?xml version="1.0" encoding="utf-8"?>
<!-- Generator: Adobe Illustrator 21.0.0, SVG Export Plug-In . SVG Version: 6.00 Build 0)  -->
<svg version="1.1" id="Слой_1" xmlns="http://www.w3.org/2000/svg" xmlns:xlink="http://www.w3.org/1999/xlink" x="0px" y="0px"
	 viewBox="0 0 220 214.2" style="enable-background:new 0 0 220 214.2;" xml:space="preserve">
<style type="text/css">
	.st0{fill:#FFFFFF;}
	.st1{fill:none;stroke:#272624;stroke-width:3.1494;stroke-miterlimit:10;}
	.st2{fill:#E29044;}
	.st3{fill:#FFFFFF;stroke:#000000;stroke-width:1.6236;stroke-miterlimit:10;}
	.st4{fill:#E29044;stroke:#000000;stroke-width:1.6236;stroke-miterlimit:10;}
	.st5{fill:#B87837;}
	.st6{fill:none;stroke:#000000;stroke-width:1.6236;stroke-miterlimit:10;}
	.st7{fill:none;stroke:#FFFFFF;stroke-width:1.6236;stroke-miterlimit:10;}
	.st8{fill:#D5584D;stroke:#000000;stroke-width:1.6236;stroke-miterlimit:10;}
	.st9{fill:#5B7BBB;stroke:#000000;stroke-width:1.6236;stroke-miterlimit:10;}
	.st10{fill:#D5584D;}
	.st11{fill:#5B7BBB;}
	.st12{fill:#272624;}
	.st13{fill:none;stroke:#272624;stroke-width:3;stroke-miterlimit:10;}
	.st14{fill:none;stroke:#E29044;stroke-width:7;stroke-linejoin:round;stroke-miterlimit:10;}
	.st15{fill:#E29044;stroke:#272624;stroke-width:3;stroke-miterlimit:10;}
	.st16{fill:none;stroke:#E29044;stroke-width:3;stroke-miterlimit:10;}
	.st17{fill:#272624;stroke:#272624;stroke-width:3.1281;stroke-miterlimit:10;}
	.st18{fill:none;stroke:#272624;stroke-width:3.1281;stroke-miterlimit:10;}
	.st19{fill:#272624;stroke:#272624;stroke-width:1.9703;stroke-miterlimit:10;}
	.st20{fill:none;stroke:#272624;stroke-width:3.2838;stroke-miterlimit:10;}
</style>
<g>
	<path class="st12" d="M107.5,83c0-4.9-1-7.3-2-9.7c-0.7-1.8-1.4-3.5-1.7-6.4l82.4-5.3l-0.5-6.5l-82,8.4c0.2-3.3,0.9-5.2,1.7-7.1
		c0.1-0.1,0.1-0.3,0.2-0.4l80-9.5l-0.9-6.4L107,52.2c0.3-1.5,0.6-3.3,0.6-5.6h-3.3c0,2.8-0.4,4.6-0.9,6.2l-15.1,2.3
		c0.4-1.2,0.6-2.7,0.6-4.6h-3.3c0,2.4-0.5,3.8-1.1,5.1l-14,2.2c0.5-1.5,0.9-3.4,0.9-6h-3.3c0,3.2-0.6,4.9-1.3,6.6l-15.2,2.4l0.3,2
		L65.7,61c-0.6,1.6-1.2,3.5-1.2,6.4L53,68.5l0.2,2l11.3-0.8c0.2,3.4,1.1,5.4,2,7.1c0.9,1.9,1.7,3.7,1.7,7.4c0,3.7-0.8,5.5-1.7,7.4
		c-0.9,2-2,4.4-2,8.8c0,4.4,1.1,6.7,2,8.8c0.9,1.9,1.7,3.7,1.7,7.4c0,3.7-0.8,5.5-1.7,7.4c-0.9,2-2,4.4-2,8.8c0,4.4,1.1,6.7,2,8.8
		c0.9,1.9,1.7,3.7,1.7,7.4c0,3.7-0.8,5.5-1.7,7.4c-0.9,2-2,4.4-2,8.8h3.3c0-3.7,0.8-5.5,1.7-7.4c0.9-2,2-4.4,2-8.8s-1.1-6.7-2-8.8
		c-0.9-1.9-1.7-3.7-1.7-7.4c0-3.7,0.8-5.5,1.7-7.4c0.9-2,2-4.4,2-8.8c0-4.4-1.1-6.7-2-8.8c-0.9-1.9-1.7-3.7-1.7-7.4
		c0-3.7,0.8-5.5,1.7-7.4c0.9-2,2-4.4,2-8.8c0-4.4-1.1-6.7-2-8.8c-0.8-1.6-1.5-3.2-1.7-6l14.6-1c0.4,1.7,1.1,3,1.7,4.1
		c0.9,1.7,1.7,3.2,1.7,6.3c0,3.1-0.8,4.6-1.7,6.3c-1,1.8-2.1,3.9-2.1,7.8c0,3.9,1.1,6,2.1,7.8c0.9,1.7,1.7,3.2,1.7,6.3
		c0,3.1-0.8,4.6-1.7,6.3c-1,1.8-2.1,3.9-2.1,7.8c0,3.9,1.1,6,2.1,7.8c0.9,1.7,1.7,3.2,1.7,6.3c0,3.1-0.8,4.6-1.7,6.3
		c-1,1.8-2.1,3.9-2.1,7.8h3.3c0-3.1,0.8-4.6,1.7-6.3c1-1.8,2.1-3.9,2.1-7.8s-1.1-6-2.1-7.8c-0.9-1.7-1.7-3.2-1.7-6.3
		c0-3.1,0.8-4.6,1.7-6.3c1-1.8,2.1-3.9,2.1-7.8c0-3.9-1.1-6-2.1-7.8c-0.9-1.7-1.7-3.2-1.7-6.3c0-3.1,0.8-4.6,1.7-6.3
		c1-1.8,2.1-3.9,2.1-7.8c0-3.9-1.1-6-2.1-7.8c-0.5-0.9-0.9-1.8-1.2-2.8l15-1.1c0.3,3.4,1.1,5.5,1.9,7.5c0.9,2.2,1.7,4.3,1.7,8.5
		c0,4.2-0.8,6.3-1.7,8.5c-1,2.4-2,4.9-2,9.7c0,4.9,1,7.3,2,9.7c0.9,2.2,1.7,4.3,1.7,8.5s-0.8,6.3-1.7,8.5c-1,2.4-2,4.9-2,9.7
		c0,4.9,1,7.4,2,9.7c0.9,2.2,1.7,4.3,1.7,8.5s-0.8,6.3-1.7,8.5c-1,2.4-2,4.9-2,9.7h3.3c0-4.2,0.8-6.3,1.7-8.5c1-2.4,2-4.9,2-9.7
		c0-4.9-1-7.4-2-9.7c-0.9-2.2-1.7-4.3-1.7-8.5s0.8-6.3,1.7-8.5c1-2.4,2-4.9,2-9.7s-1-7.4-2-9.7c-0.9-2.2-1.7-4.3-1.7-8.5
		c0-4.2,0.8-6.3,1.7-8.5C106.5,90.4,107.5,87.9,107.5,83z M100.6,63.8l-15.3,1.5c0-0.2,0-0.4,0-0.6c0-3.1,0.8-4.6,1.7-6.3
		c0,0,0-0.1,0-0.1l15.1-1.9C101.3,58.2,100.7,60.4,100.6,63.8z M69.4,60.6c0,0,0-0.1,0.1-0.1L83,58.8c-0.6,1.5-1.1,3.2-1.1,5.9
		c0,0.3,0,0.6,0,1L67.7,67C67.9,64,68.6,62.3,69.4,60.6z"/>
	<circle class="st2" cx="45.6" cy="110.4" r="11.9"/>
	<circle class="st2" cx="121.5" cy="139" r="10.5"/>
</g>
</svg>
