<?xml version="1.0" encoding="utf-8"?>
<!-- Generator: Adobe Illustrator 21.0.0, SVG Export Plug-In . SVG Version: 6.00 Build 0)  -->
<svg version="1.1" id="Слой_1" xmlns="http://www.w3.org/2000/svg" xmlns:xlink="http://www.w3.org/1999/xlink" x="0px" y="0px"
	 viewBox="0 0 233.4 73" style="enable-background:new 0 0 233.4 73;" xml:space="preserve">
<style type="text/css">
	.st0{fill:#2394BC;}
	.st1{fill:#EFC75E;}
</style>
<g>
	<path class="st0" d="M95.4,0L83.7,72.9h18.7L114.1,0H95.4z M151.9,29.7c-6.5-3.2-10.6-5.4-10.6-8.7c0.1-3,3.4-6.1,10.8-6.1
		c6.1-0.2,10.6,1.3,13.9,2.7l1.7,0.8l2.5-15.2c-3.7-1.4-9.6-3-16.8-3c-18.5,0-31.5,9.6-31.6,23.4c-0.2,10.1,9.3,15.8,16.4,19.2
		c7.2,3.5,9.7,5.7,9.7,8.8c-0.1,4.7-5.9,6.9-11.2,6.9c-7.5,0-11.5-1.1-17.6-3.8l-2.5-1.1l-2.6,15.9c4.4,2,12.5,3.7,20.9,3.8
		c19.6,0,32.4-9.5,32.6-24.1C167.7,40.9,162.7,34.7,151.9,29.7L151.9,29.7z M218.3,0.2h-14.5c-4.5,0-7.9,1.3-9.8,5.9l-27.8,66.8
		h19.6l5.4-14.5h22l2.8,14.5h17.3L218.3,0.2z M196.7,43.8c0.4,0,7.5-23.6,7.5-23.6l5.7,23.6H196.7z M68,0L49.7,49.5l-2-9.8
		c-3.4-11.3-14-23.5-25.9-29.6l16.8,62.7h19.8L87.9,0L68,0L68,0z M68,0"/>
	<path class="st1" d="M41.5,9.4c-1.4-5.6-6-9.3-12.2-9.4H0.3L0,1.4c22.7,5.6,41.7,22.8,47.9,38.9L41.5,9.4z M41.5,9.4"/>
</g>
</svg>
