<svg version="1.1" id="Layer_1" xmlns="http://www.w3.org/2000/svg" xmlns:xlink="http://www.w3.org/1999/xlink" x="0px" y="0px"
	 viewBox="0 0 142.9 144.3" style="enable-background:new 0 0 142.9 144.3;" xml:space="preserve">
<style type="text/css">
	.st0{fill:#f05e13;}
</style>
<path class="st0" d="M142.9,73.3c-0.2-0.1-1,0.1-0.9-0.5C141.7,72.8,142.7,72.2,142.9,73.3z M139.2,62.1l0.4,0.1l-1.1-1.4
	L139.2,62.1z M136.9,52.4c-1.1,1.3,1.3,3.4,1.1,5.3l-0.3,0.4l1.3,0.5c-0.3-1-0.8-2.2-1.3-3.3C137.3,54.2,136.9,53.2,136.9,52.4z
	 M138,46.2c-0.4,0.5-0.9-0.9,0.3,1.3c0-0.1,0-0.2,0-0.3C138.2,47,138.1,46.7,138,46.2z M138.3,47.2
	C138.8,48.2,138.5,46.4,138.3,47.2L138.3,47.2z M136,42.6l1,1.1c0.2-0.4-0.3-1.6,0.1-1.3C136.4,41.2,136.2,41.6,136,42.6z
	 M134.5,41.9c0.2,0.2,0.3,0.4,0.5,0.6C135.1,42.3,135.1,42.1,134.5,41.9z M136.1,43.7l-1.1-1.2c-0.1,0.3-0.5,0.5,0.4,0.6
	C135,43.1,135.5,43.2,136.1,43.7z M136.3,44.6c0.1,0.9,0.2,1.9-0.8,0.8C136.7,47.8,137.5,47,136.3,44.6z M135.3,52.3
	c0,0.4,0,0.7-0.1,1.1l0.7,0.7C135.6,53.8,135.8,52.1,135.3,52.3z M132.4,34.3c-0.3,0.1-0.4,0.8-0.7,1.1c0.3,0.2,0.6,0.5,0.8,0.7
	C132.4,35.6,132,34.6,132.4,34.3z M131.7,35.5l-1.3-1.1C131.1,35.6,131.4,35.7,131.7,35.5z M133,42.3c0.7,0.6,1.4,1.2,2.1,1.8
	c-0.8-0.8-1.5-1.5-2.3-2.3L133,42.3z M128.9,29.2l1.1,0.3c-0.6-0.2-1.2-0.5-1.8-0.7L128.9,29.2z M126.3,26.1c0.9,0.1,0.1-1.3,0.9-1
	c-0.8-0.8-1.8-1.2-2.7-1.5C125.3,24.1,125.8,24.9,126.3,26.1z M123,23c0.4,0.2,0.9,0.4,1.5,0.6C124,23.3,123.6,23.1,123,23z
	 M129,32.1c0.1-0.2,0.3-0.7,0-1.5l-0.3,1C128.8,31.8,128.9,31.9,129,32.1z M128.7,31.6L128.7,31.6c-0.4-0.6-0.6-1-0.7-1.2
	C128,30.6,128.2,31,128.7,31.6z M129.1,32.2c0,0-0.1-0.1-0.1-0.1C129,32.2,129,32.3,129.1,32.2z M131.8,38.4c-0.9-0.6-2.2-1.9-2,0
	C130.6,38.7,130.5,37.6,131.8,38.4z M128.7,33.5c0.3,0.5,0.5,1,0.7,1.5c0.2-0.1,0.3-0.6,0.7-0.3C129.6,34.2,129.2,33.8,128.7,33.5z
	 M128,33l0.7,0.5l-0.3-0.5L128,33z M124.4,25.7c-0.7-0.3-1.3-0.9-2-1.5c0.6,0.8,1.1,1.6,1.7,2.3C124.4,26.4,125.1,26.4,124.4,25.7z
	 M126.5,28.6c0,0-0.1-0.1-0.1-0.1C126.3,28.6,126.4,28.7,126.5,28.6z M116,18.2c0,0.1,0,0.1,0,0.2c0,0,0.1-0.1,0.1-0.1L116,18.2z
	 M124.1,26.7c0.3,0.6,0.8,0.8,1.2,1c-0.4-0.4-0.8-0.7-1.2-1.2C124,26.5,123.9,26.6,124.1,26.7z M121,21.5c0.2,0.4,0.4,0.8,0.6,1.2
	C121.5,22.3,121.2,21.4,121,21.5z M126.4,28.1C126.4,28.1,126.4,28.2,126.4,28.1C126.5,27.9,126.4,28,126.4,28.1z M126.4,28.1
	c-0.3-0.2-0.7-0.3-1-0.4c0.3,0.3,0.6,0.6,1,0.8C126.3,28.4,126.3,28.2,126.4,28.1z M110.6,20.8c0.6-0.5,2.5-0.1,3.1,1.6
	c1.5,0.5,2.5-2,2.4-4.1c-0.3,0.2-0.5,0.4-2-0.2c0.2,0.7,2.1,3.1,0.6,2.7c-1.8-1.1-1.2-1.3-1.7-2.3c0.1,1.3-3-0.5-3.5,1
	c0.6,0.2,1.2,0.4,1.7,0.7C111,20.5,110.3,20.4,110.6,20.8z M118.3,20.5l0.6,0.4c-0.5-0.6-0.7-1.2-1-2.4c-1.1-0.5-1.5-0.4-1.7-0.2
	c0.8,0.8,1.7,1.5,2.4,2.3L118.3,20.5z M121.1,23c-1,0.2-2.4-0.6-2.3,0.7c1.4,1.3,1.5,0.5,2.5,1C119,22.6,122.3,25.1,121.1,23
	c0.5,0.4,0.9,0.8,1.3,1.2c-0.3-0.5-0.6-1-0.9-1.5c0,0,0,0.1,0,0.1l0,0l0,0c0,0.2,0,0.3-0.1,0.1c0,0,0,0-0.1,0
	C121.3,23,121.2,23,121.1,23c-0.5-0.8,0.1-0.3,0.3-0.1c0,0,0.1,0,0.1-0.1c0,0,0,0,0,0c-0.9-0.7-1.8-1.3-2.6-1.9
	C119.3,21.5,120,22,121.1,23z M127.4,38c0-0.1,0.1-0.1,0.1-0.2C127.3,37.7,127.2,37.6,127.4,38z M127.1,36.6
	c0.2,0.1,0.6,0.1,0.9,0.8c0.1,0.7-0.4,0.2-0.6,0.4c0.4,0.2,1.3,1,1-0.4l-0.2-0.1c-0.4-1.2-0.4-3.1-0.2-3
	C127.6,35,127.3,35.5,127.1,36.6z M124.3,29.8c-0.6-0.6-1.3-1.2-2-1.7l0.3,1.5l0.3-0.3C123.7,30.5,123.9,29.9,124.3,29.8z
	 M116.1,17.6l0.9-0.5c-0.7,0-1.4,0-2,0L116.1,17.6z M113.2,15.5l0.6-0.6c-0.3-0.1-0.7-0.1-1-0.2L113.2,15.5z M16.5,105l0.5,0.5
	C16.9,105.2,16.7,105.1,16.5,105z M14.2,100.6l-0.4,0.1C14.1,100.8,14.3,100.8,14.2,100.6z M32.2,12.1c-1.4,0-3.1-0.2-2.5,0.4
	l0.8,0.5C31.1,12.5,31.7,12.2,32.2,12.1z M4.6,60.2c0.1-0.1,0.2-0.2,0.3-0.3c-0.2-0.3-0.5-0.6-0.6-0.9C4.4,59.4,4.5,59.7,4.6,60.2z
	 M8,61.6l-0.8,1.2C7.5,62.5,7.7,62.1,8,61.6z M35.4,123.9c0.4-0.1,0.8-0.2,1.1-0.3C35.6,122.9,35.8,123.6,35.4,123.9z M80.3,2.3
	c-0.9-0.5-1.7-0.7-2.4-0.8C79.1,2.1,79.9,3,80.3,2.3z M7.5,107.8c0.4,0.3,0.6,0.4,0.8,0.3C7.9,107.7,7.6,107.6,7.5,107.8z M75,1.2
	c0.2,0.1,0.3,0.2,0.5,0.2c0.7-0.1,1.5-0.2,2.4,0C77.1,1,76.1,0.7,75,1.2z M121.6,108c0.1,0,0.1-0.1,0.2-0.1
	C121.7,107.8,121.6,107.9,121.6,108z M140.3,82.7c0,0.3-0.1,0.8-0.1,1.3C140.3,83.8,140.3,83.4,140.3,82.7z M101.3,7.9
	C102,8.2,101.5,7.9,101.3,7.9L101.3,7.9z M102.9,12.6c-0.2,0-0.3,0.1-0.5,0.2C102.6,12.7,102.8,12.6,102.9,12.6z M67.8,6.5
	C67.8,6.5,67.8,6.5,67.8,6.5C68,6.6,67.9,6.6,67.8,6.5z M102.2,8.8c-0.2-0.2-0.4-0.5-0.7-0.7C101.5,8.2,101.8,8.4,102.2,8.8z
	 M102.2,8.3c0.2,0.1,0.4,0.3,0.5,0.4C102.9,8.6,102.9,8.5,102.2,8.3z M100.4,7.5c0.4,0.2,0.7,0.4,1.1,0.6c-0.1-0.1-0.1-0.2-0.1-0.2
	C101.1,7.8,100.8,7.7,100.4,7.5z M78.6,137.1c0,0,0.1,0,0.2,0.1C79.3,136.7,79,136.8,78.6,137.1z M24,30.5C24,30.4,24,30.4,24,30.5
	C23.9,30.4,23.9,30.4,24,30.5L24,30.5z M22.9,32.6c-0.2-1.4,0.3-1.8,1-2.2c-0.8-0.4-1.6-0.8-2.4-1.1C21.9,30.4,22.4,31.6,22.9,32.6z
	 M22.4,113.1c0.3,1.2,1,1.9,1.8,2.4c0.9,0.5,1.8,0.6,2.4,0.8c0.3,0.8-1.9,1,0.1,2.3c2.7,1.9,0.9-1.9,2.5-0.8c0,0.7,0.1,1.3,0.1,2
	c0.6,0.2,1.2,0.5,1.6,0.8c0.5,0.3,0.9,0.6,1.2,1c0.4,0.4,0.7,0.8,1,1.2c0.4,0.4,0.7,0.7,1.1,1.1c0.5,0.2,0.7,0.2,0.9,0.1
	c0.7,0.9,1.9,1.2,3,1.5c1.1,0.2,2.2,0.4,2.8,1c-0.5,0.1,0.4,1.2,0.4,1.6c1,0.2,2.1,0.4,3.1,0.5c-1.4-0.2-1.7,0.5-2.2,1.1
	c0.9,0.4,1.5,0.1,2.1,0.3c-0.5,0.1-1,0.2-0.7,0.7l1.7,0.1l1.7,0c-0.1-0.2-0.4-0.4-0.7-0.5c0.8,0.3,2.5,0.5,3.4,1.4
	c-0.2,0.3-0.7,0.4-0.9,0.7c-0.6-1.1-1.4-0.7-2.1-0.3c2.1,0.7,0.4,0.4,1.3,1.3c1.5,0.5,2.5-0.3,2.3-1.1c1.6,0.9,2.1,1.2,4,0.9l-0.6,1
	c0.6,0,1.1,0,1.7,0.1l-1.6,1c3,1.4,1-1.6,4.4-0.3l-0.2,1c1.4-0.1,2.1-1.6,3-0.4c1.4-0.4-2-1.6,1-1.4c0.5,0.6,1.6,1.1,2.5,1.3
	c1-0.4-0.7-1.2-1.3-1.1c4.6-0.1,2.7,3.5,7,2.4c-0.7-0.3-0.4-0.8-0.4-1.2c0.1-0.4-0.1-0.7-1.8-0.7c1.6-0.5,3.2,1.4,4.8,0.3l-1.1,1.3
	c0.6,0,1.3-0.5,1.6-0.6l-0.1,1c1-0.9,2-0.8,2.9-0.7c0.9,0,1.7,0,2.1-1.2c-0.3,0.9,0.1,0.8,0.7,0.6c0.6-0.2,1.3-0.7,1.8-0.4
	c-0.4,0.4-0.9,0.6-1.4,0.8c-0.5,0.2-1.1,0.2-1.6,0.3c-1,0.2-1.9,0.4-1.9,1.1c0.9,0.4,1.5-0.5,2.4-0.1c-0.5,0.3-1.3,0.8-1.5,1.2
	c1.4,0.3,2.5-0.1,3.4-0.6c0.9-0.6,1.6-1.3,2.3-1.6l-2.8,0.9c0-1.6,1.2-0.5,1.8-1.9c1.6,0.6,2.4-0.9,3.7-0.6
	c-0.3,0.1-0.3,0.2-0.6,0.3c1.5-0.3,2.6-0.1,3.6,0.4c0.9,0.4,1.7,0.9,2.3,0.7c0.6-0.1,1.5-0.6,2-1c0.5-0.5,0.7-1,0.2-1.1
	c0.8-0.7-3.8,1.8-2.8-0.7c1.2,0.8,2,0.3,3-0.4c0.5-0.4,1-0.8,1.7-1.1c0.7-0.3,1.5-0.6,2.5-0.6c-1.2,1.5,1.5,0.8,0.4,2
	c1.7-1,1.5-1.4,2-2.3l0.9,0.4c0.7-1.3,0.6-1.7,0.8-2.1c0.1-0.4,0.5-0.7,1.8-2.1c-0.7,1.2,1.8,0.1,1.3,1.1c0.9-0.5,1.6-1.2,2-2.1
	l-0.1,0.2c1.4-1.2,2.2-1.5,2.8-1.8c0.7-0.3,1.3-0.6,2.3-2.1l-0.5-0.1c0.6-1,1.4-1.8,2.2-2.8c0.4-0.5,0.8-0.9,1.3-1.3
	c0.4-0.5,0.8-0.9,1.3-1.4c1.7-1.8,3.3-3.8,4.5-5.7l-1.3,1c0.2-0.1,0.6-0.8,1-1.6c0.4-0.8,0.9-1.6,1.6-2c-0.1,0.3-0.2,0.8-0.4,0.9
	c0.4,0.2,1.4,0.2,2.1-0.6l-0.4-0.8l0.7-0.1c0.9-1.4-1.2-0.2-0.3-1.6c1.2,0.2,2.2-1.4,3.1-3c0.4-0.8,0.9-1.7,1.4-2.3
	c0.4-0.7,0.9-1.2,1.5-1.3c-1-1.7-1.5,2.8-2.3,1.1c0.4-0.4,0.8-0.4,1.4-1.4l-1,0c0.7-1.1,1.2-2,1.7-2.9c0.5-0.8,0.9-1.6,1.3-2.4
	c0.4-0.8,0.8-1.5,1-2.4c0.3-0.9,0.6-1.8,0.8-2.9l0.2,0.2c0.7-1.5,0.8-2.4,0.1-3.3c0.5-0.3,0.5,0.9,1,0.4c-0.9-1.6-0.2-2.9,0.4-4.2
	c0.3-0.6,0.7-1.2,0.9-1.7c0.2-0.6,0.1-1.1-0.2-1.5c0.9,0.2,1.9-0.6,2.9-1.3c0.9-0.7,1.7-1.3,2.5-0.4l-0.2-1.3
	c0.6,0.2,0.6,1.2,0.6,2.3c-0.1,1-0.1,2.1,0.5,2.6c-0.6,1.3-1.2,2.6-1.8,3.9c0.5-0.1,1.1,0.7,1.3,0.1c-0.1,1-0.2,1.9,0.7,0.7
	c-2.4,4.6-3.7,9.3-5.3,13.9c-1.6,4.6-3.6,9.2-6.9,12.8c-0.3,0.6,0.3,0.5,0.7,0.5c-2,0.8-0.4,1.8-0.8,2.7c-1,0.4-1.9,0.7-3,1
	c-0.2,1.1,0.7,0.8,0.9,1.1c-0.7,1-1.5,2-2.4,2.8c-0.9,0.9-1.8,1.7-2.7,2.4c-0.9,0.8-1.7,1.5-2.5,2.2c-0.8,0.7-1.5,1.5-2.1,2.4
	c-1.4,0.4-0.7-1.3-2.1-0.3c1.4,0,0.7,0.9-0.3,1.9c-0.9,0.9-2,1.9-1.1,1.9c-1.2-0.2-2.5,0.5-3.6,1.1c-1.1,0.5-2,0.7-2.5-0.6
	c-1.7,0.9-0.8,1.8-0.1,1.7c-1,0.6-1.9,1.1-2.7,1.6c-0.8,0.6-1.5,1.2-2.2,2c-0.4,0-1.1,0.4-2.1,0.8c-1,0.4-2.2,1.1-3.5,1.6
	c-2.5,1-5.3,1.7-6.6,1.1c1.7,0.9,0.1,0.7-1,1.6l1.5,0.8c-1,0.2-2,0.5-3,0.7c-0.6,0.2-0.8,0.2-0.8,0.1c-0.5,0.1,0-0.7-1.4-0.7
	c-2,0.4-2,1-3,1.8l0.3,0.1l-1.4,0.4c-1,0.1,3.4-1.8,0-1.8c0,0.3-1.8,2.1-2.8,1.4c1.7-0.2,1.4-0.9,0.7-1.2c-0.8,0.1-1.6,0.2-2.4,0.2
	c0.3,0.5,0.6,0.9,0.9,1.4c-3.5,0.3-7.1,0.2-10.7-0.2c-3.6-0.4-7.2-1-10.8-1.7c0.3-1.2-5.1-1.2-3.9-2.9l0.2,0.3
	c0.9,0.1,0.8-0.3,0.4-0.7c-0.4-0.5-1.2-1-1.9-1.1c1.3,1-3.1,1.1,0.3,2.3c-1,0-2,0.1-3,0c-1.3,1.5-3.2,0.8-5.2-0.5
	c-2-1.2-4.1-3-6.3-3.5c0.3,0,0.5-0.1,0.6-0.2c-1-0.2-2-0.6-2.8-1.2c-0.4-0.3-0.9-0.6-1.3-0.9c-0.4-0.3-0.8-0.6-1.1-1
	c-1.4-1.2-2.3-2.4-2.9-2.4l0.3-1c-1.8-0.3-2.8-0.6-3.7-1.1c-0.9-0.5-1.7-1.3-3-2.9c0.1-0.1,0.7,0,0.3-0.6c-1.2-0.1-2.4-0.2-4.2-2.3
	l0.3-0.1c-1-1-2.1-2-3-3.1c1.2-1-0.4-2-1.9-3.4c-0.8-0.6-1.6-1.4-2-2.1c-0.5-0.7-0.6-1.5-0.1-2.2c-0.6-0.1-1.4-0.8-2.1-1.5
	c-0.8-0.8-1.5-1.7-2-2.2c0.1-0.1,0.2-0.2,0.2-0.5c-2.3-0.7-1.8-4.5-2.6-6c-0.8-0.9-1.1-0.3-1.4,0.4c0.1-1.3-0.8-2.7-1.8-3.9
	c-0.9-1.2-1.8-2.3-1.7-2.8c-0.4-1.7,0.9-1,1.4-1.6c-1-2.4-2.5,1.2-2.3-2.5c0.2,0.4,0.5,1.1,0.6,0.7C0.7,91.2,1.4,90.1,2,89
	c0.6-1.1,1.1-2.1,0.6-2.6l-0.4,0.9c-0.6-1.1-0.2-2.6,0-3.8c0.3-1.2,0.5-2.1-0.5-2.2l-0.9,0.3c0.4-2.1,0.3-2.5,0.1-2.9
	c-0.1-0.4-0.4-0.9,0.1-2.9l0.2,0c-0.2-1.8,0.9-2.7-0.6-3.6l-0.2,0.6c0-2.2,0-2.4,0.3-4.7c-0.1-0.3-0.3-1.4,0.1-1.7
	c-0.7-0.1-0.6-1.5-0.4-2.9c0.2-1.4,0.7-2.9,0.8-3.4C1,62,1.7,61.3,2.3,60.9c-0.4-0.6-0.6-1.1-0.6-1.6c0-0.5,0.3-1,0.9-1.6
	c-0.8-0.3-1.5-0.6-2-1.2c-0.5-0.6-0.8-1.5-0.4-3c0.1,0.5,0,1.3,0.4,1.1c0.4-0.2,0.2-1,0.2-1.2c0.4-0.2,0.4,0.8,1,0.6
	c-0.5-1.2-0.3-2,0.2-2.9C2.4,50,2.9,49,3.2,47.6c0.1,1,0.7,0.4,1.3,0.3c-0.8-0.4-0.1-1.2,0.5-1.8c0.6-0.6,1.1-1.1-0.2-1.1
	c1.8-2.3,3.4-5.5,5.1-8.1c1.7-2.6,3.3-4.8,4.6-5.2c0.9-0.1,1-1.9,1.6-2.7l0.5,0.6c0.3-1.5,0.6-2,0.9-2.5c0.3-0.5,0.6-1.1,1.2-2.8
	c-0.2,1.6,0.5,1.5,1.9,1.1c0.1-0.9,0.2-1.8,0.4-2.7l1.2,0.6c0.3-1,1.2-1.5,2.1-2c-0.4,0.3-0.1,0.2,0.1,0.4c-0.4-0.8,0.2-1.8,0.9-2.7
	c0.7-0.9,1.5-1.7,1.5-2.2c1.8,0.7,1.9-1.9,3.4-1.1c0.1-0.4,0.4-0.8,0.7-1.2c-0.8-0.3-1.4-0.9-0.4-1.1c0.1-0.1,0.1-0.1,0.2-0.1
	l0.9,0.6c0.7-0.7,1.4-1.3,1.9-1.6c-0.3,0.1-0.7,0.1-1.1,0.1c0.4-0.1,0.8-0.1,1.2-0.2c0.1-0.1,0.2-0.1,0.3-0.2c0,0.1-0.1,0.1-0.1,0.1
	c0.6-0.1,1.2-0.3,1.7-1c0.9-0.1,1.7-0.4,2.4-0.9c0.7-0.5,1.4-1.1,2.2-1.7c0.7-0.6,1.5-1.2,2.4-1.5C43.1,6.5,44,6.3,45,6.4
	c-0.6,0-1.3,0.2-1.4,0.6c0.7-0.3,1.4-0.5,2.1-0.7c0.7-0.1,1.4-0.2,2.1-0.3c1.3-0.2,2.5-0.4,3.3-1l-0.4-0.8c1-0.5,1.9-0.9,2.8-1.2
	c0.9-0.3,1.7-0.6,2.6-0.7l-0.1-1c0.7,0,1.5-0.2,2.4-0.4c0.9-0.2,1.9-0.4,2.8-0.6c1.9-0.4,3.8-0.3,4.6,0.6c0.3-0.4,1.2-0.4,2.2-0.3
	c1,0.1,2.1,0.3,2.8,0.2l0.4,0.8c0.9,0.2,1.7,0.2,2.4,0.1c0.7,0,1.3-0.1,1.8-0.2c1.9,0.9,3.7,1.2,5.5,1.2c1.8,0.1,3.6,0,5.2,0.5
	l0,0.2c1.2,0.1,2.3,0.2,3.5,0.3c-1.1,0.4,0.8-0.3,1.7,0.2c1.2,0,2.8,0.7,3.9,1.7l2,0.8c-2.5-0.4-0.2,1.1-0.5,2
	c0.5-0.1,1-0.1,1.5-0.1c0.3,0.6-1.1,0.3-0.2,0.9c0.5,0,1.4,0.2,2.3,0.5c0.9,0.2,1.8,0.5,2.4,0.2c0-0.3-0.2-0.6-0.5-1
	c-0.1,0-0.1,0,0,0c0,0,0-0.1-0.1-0.1c0,0,0.1,0,0.1,0.1c0.1,0,0.4-0.1,0.5-0.1c1.5,1,1.1,0.4,1.2,0c1.1,2.1,2.5,1.9,3,4.1
	c-0.8-2.7,3.8,2.4,3.7,0.3c0.4,2,0.8,0.6,0.9,2.2c-1.4-1.5-3.9-1.5-5.6-1.8c0.3,0.5,0.6,1,0.9,1.6c-1.7,0.8-2.7-2.3-3.8-2.3
	c0.7,0,1.8,1,1.6,1.3l0.2-1.3c-0.4-0.4-0.9-0.7-1.3-0.9c-0.5-0.2-1-0.4-1.4-0.5c-1-0.2-1.9-0.3-2.7-0.3c1.2,1-2-0.1-1.3,1.2l1.1,0.3
	c0.3,0.6-0.9,0.5-1.6,0.5c-0.7-0.6-1.7-1.1-2.7-1.6c-0.5-0.2-1.1-0.5-1.6-0.7c-0.5-0.2-1.1-0.4-1.6-0.6C91,9.9,90.5,9.7,90,9.6
	c-0.5-0.2-0.9-0.3-1.4-0.5c-0.8-0.3-1.4-0.6-1.7-0.9c0.6,0.5,2,0.6,2.8,0.5l-1.5-1c0.7,0.2,1.2,0.6,1.8,1c0.6,0.4,1.3,0.8,2.3,1
	c-0.1-0.8,1.7-1.4,0.6-2.9c-1.8-1.3-2.7-1-3.8-0.7c-0.5,0.2-1.1,0.4-1.8,0.4c-0.7,0.1-1.6,0-2.8-0.3c-0.5,0.2,1.3-1.1-1.4-1.1
	c-1.7,0.1-3.2,0.5-4.2,1.1c-1.1,0.6-1.7,1.4-1.8,2.2C77.8,8.2,78.8,8,79.7,8c0.9,0,1.6,0.2,1.7,0.8c-1.4,0.2-3.6,0.3-3.8,1
	c-1.2-1.6,2.5-0.1,0.9-1.5c-0.9-0.1-1.3,0.3-1.8,0.5c0.7-0.5-0.7-1-1-1.4c-0.7-0.1-1.4-0.2-2-0.3c-0.6-0.1-1.2-0.2-1.8-0.3
	c-0.6-0.1-1.2-0.2-1.9-0.3c-0.7-0.1-1.4-0.1-2.2-0.1c-0.2-0.2-0.6-0.6-0.5-1c-1.6,0.4-3.7,2.8-3,3.6c-1.8,0.2-1.9-0.4-3.4,0.2
	c2.6,1-0.5-0.1-0.6,1.2c-1.5,0.4-0.6-0.6-1.4-0.7c-0.2,0.2-0.8,0.7-0.7,1.1c-1.2-0.8,1.4-3,0-4c-0.5-0.3-1.6-0.7-2.7-0.9
	c-1.1-0.2-2.1-0.3-2.3-0.4c-0.5,1.3,1,5.8,2.3,7.1c0.1,0.8-1.6-0.5-2.3-0.4C52.3,12,51.6,12.4,51,13c-0.6,0.6-1,1.2-1.9,1.2l0.9-1.1
	c-0.4-0.2-2.5,0.9-2.6,1.5c-0.2-0.4,0.3-2.6-0.6-2.8c-1.4,0.4-2.6,1.5-3.2,2.6c-0.6,1.1-0.8,2.2-0.4,2.8c1.1-1,2.3-2.1,3.5-3
	c0.3,0.5-0.4,1-0.9,1.6c-0.6,0.6-1.1,1.2-0.8,1.8c-1.3,0.4-2.5,0.9-3.7,1.4c0.4-0.3,1.7-1.2,0.8-1.5c-1.5,0.8-0.9,0.2-2.2,0.3
	c0.6-1.1,1.2-2.9,2-4.7c0.7-1.8,1.4-3.6,1.8-4.6c-0.6,0.5-1.2,1.1-1.8,1.6L41,9.8c-1.2,1-1.9,2.9-2.2,4.6c-0.4,1.7-0.4,3.3-0.4,4
	c-1.5,0.5-2.3-1.8-2.2-2.4c-2.9,1.6-0.9,4.5-3.6,6.1l1.3-0.3c-0.2,0.3-1,0.7-1.6,1.1c-0.6,0.4-1.1,0.8-0.8,0.9
	c-0.9-0.1-2.3-0.9-2-1.7c-0.3,1.2-0.5,2.4-0.7,3.5c0.2-0.4-1.3-1.7-1.4-2.1c-0.9,0.7,0,2.9,0.7,2.7c-2.6,0.4-1.6,0.6-4.1,0.7
	c-0.4,0.6,1.5,1.4,2,1.2c-0.7,1.4-1.4,1.8-2,2.2c1.1-2.3-2.6-3.5-3.4-4.8c0.1,2.7,0.3,5.3,0.7,7.8c-0.2-0.4-1.3-1.8-1.5-2
	c0.5,0.7-0.1,2.3-1.1,4c-0.5,0.9-1,1.7-1.6,2.5c-0.5,0.8-1,1.6-1.5,2.2l0.2-0.4c-0.1-0.4-0.6-0.1-1,0.4c-0.4,0.5-0.9,1.3-0.9,1.9
	c-0.2-0.3,0-0.5,0.2-0.9c-2.1,1.1,1.1,3.5-1.2,4.5c1-1.5,0.5-2.2-0.1-2.4c-0.2,1.6-2.2,4.4-0.1,4.6C12,48.6,12,49.5,11,49
	c-0.1,1.3-0.2,2.5-0.2,3.8c-0.1-0.3-0.6-0.7-1.1,0.2c0.4-0.9,0.4-2,0.5-2.9c0.1-0.9,0.2-1.7,1-1.9c-1.1-0.5-2.1-0.1-2.6-1.4
	c-0.3,1-0.4,1.9-0.4,2.8c0,0.9,0.1,1.7,0.2,2.5c0.2,0.8,0.3,1.5,0.5,2.2c0.2,0.7,0.4,1.4,0.6,2.1c-0.6,1-1.2,2-1.7,3.1l0.5,0.3L7,60
	c0.2,0.5,0.5,0.8,0.3,0.9c-0.1,0.1-0.3-0.1-0.5-0.3c0,0.4,0.1,0.7,0.2,0.9c-0.8,0-1.5-0.8-2.1-1.6c0.3-0.3,0.7-0.5,1-0.8
	c-0.5-0.8-1.1-1.5-1.8-0.6c0.1,0.2,0.1,0.4,0.2,0.6c-0.4-0.6-0.8-0.9-1.1-0.6c0,1,0.1,1.9,0.1,2.9c0.2-0.3,0.7-0.7,1.3-1.1
	c0.6,1.9,1.4,3.9,2.6,2.6c-0.4,0.6-0.8,1.2-1.1,1.9c1.1,2.5,0.9,2.1,1.7,5c-0.5,0.1-0.9-0.7-1.3-0.2c0.7,1.1,0.3,2.3-0.3,3.4
	c-0.5,1.1-1,2-0.3,2.2c0.4,1.7,1.2,0.7,1.7,1.7c-0.2,0-0.5-0.1-0.5,0.2l1.1,1.2c-0.3,0.5-0.8-1.1-1.1,0.4c0.5,1.2,0.9,2.1,1.2,3
	c0.1,0.4,0.2,0.9,0.3,1.3c0.1,0.4,0.1,0.9,0.1,1.4c0.7,2.8,1.8-1.6,2,0.8c-0.8,0.5-1.7,1-1.4,2.5c0.8,0.6,1.3,0.4,2,1.6l-1.3,0.3
	c0.4,1.2,0.9,2.1,0,2.4c0.8,0.8,1,1.5,1,2.1c1.2,1.6,2-2.2,2.4-2.7c-0.3,2,0.6,3-0.4,4.5c-0.3-0.5-0.6-0.9-0.9-1.4
	c-0.1,1.9,0.6,2.5,1.1,3c0.5,0.4,0.8,0.7-0.1,2c-0.2-0.6-0.6-1.1-1-1.4c-0.4-0.3-0.8-0.4-1,0.1c0.4,0.5,0.9,0.9,1.3,1.4
	c-0.2,0.3-0.6-0.8-0.7,0.1c0.5,0.4,1.5,1,2.1,1.2l-0.1,0c0.6,0.9,1.1,1.8,1.7,2.7c-0.3-0.5-0.7-0.5-0.5,0.1l1.6,1.5
	c-0.6-0.4-0.6,0.4-0.3,1.3c1.2,2.5,3.5,0.3,3.7,2.7c-0.2-0.3-0.3-0.2-0.5-0.5l0.2,1.2c0.6-0.4,1.1-0.2,1.6,0.1
	c0.5,0.3,1,0.9,1.5,1.5c1,1.2,2.1,2.3,3.2,1.4c0.1,1.8-0.4,0.5-2.6-0.1l0.5,1.7C23.2,114,23,113.4,22.4,113.1z M11.8,95.5
	c0.4-0.5-0.5-1.2-0.8-1.6C10.9,94.8,10.6,95.4,11.8,95.5z M6.7,58.4c0.5-0.5,0.8-1,0.6-1.5C6.9,57.4,6.7,57.9,6.7,58.4z M93.4,5.6
	C93.4,5.6,93.5,5.6,93.4,5.6C92.8,5.1,92.4,4.8,93.4,5.6z M94.6,6.2c0.6,0.3,1.1,0.5,1.3,0.3c0.1,0.2,0,0.3-0.3,0.3
	C94.9,6.7,94.7,6.4,94.6,6.2z M86.6,142l0.5,0.1C87.3,141.8,87.5,141.4,86.6,142z M7.6,61.4c-0.2,0.1-0.4,0.1-0.6,0.1
	C7.2,61.7,7.4,61.7,7.6,61.4z M35.2,123.9C35.2,123.9,35.3,124,35.2,123.9c0.1,0,0.2,0,0.2,0L35.2,123.9z M59.2,11.2
	c-0.5-0.1-0.8-0.2-1-0.3C58.3,11.1,58.5,11.2,59.2,11.2z M108.4,11.3c-0.5-0.2-1-0.4-1.5-0.6c0.7,0.4,0.8,0.7,1.1,1
	C108,11.4,107.9,11,108.4,11.3z M115.5,24.2c0.2,0.1,0.3,0.3,0.6,0.4l0.3-0.4C115.7,23.6,115,23.4,115.5,24.2z M107.9,14.8
	c-0.3,0.8,0.6,1,1.6,1.5c-0.1,0-0.1-0.1-0.2-0.1C110.2,15.4,109.1,15.1,107.9,14.8z M109.7,16.4c0.3,0.2,0.6,0.3,0.8,0.6
	C110.9,16.7,110.3,16.7,109.7,16.4z M98.8,7.5c0.4,0.4,0.7-0.8,0.9-0.4C100.7,6.4,95.9,6.8,98.8,7.5z M107.1,17.5l0.2-1l-0.9,0.4
	L107.1,17.5z M100.3,12.7l1.4,1c0.1-0.2,0.3-0.1,0.6-0.1C101.3,13.1,100.4,12.4,100.3,12.7z M102.2,13.6c0.5,0.3,0.9,0.5,1.3,0.5
	C103.3,14,102.7,13.7,102.2,13.6z M105.1,16.5l-0.3-0.4l-1-0.7C104.2,15.8,104.6,16.1,105.1,16.5z M83.1,6.6l-1.9,0
	c-0.2,0.3,0.2,0.6,0.9,0.6C82.6,7,83.3,7,83.1,6.6z M87.8,10.6c-0.4-0.3-0.4-0.6-0.6-1l-0.4,1.2L87.8,10.6z M82.7,9.6
	c-0.2,0.3-2.7,0.5-0.5,0.8C82.5,10.2,84.3,10.2,82.7,9.6z M55.9,8.4l0.4-0.1l-0.5-2L55.9,8.4z M36.4,21.7c1.9-0.7-0.3-1.3,1.6-1.8
	c0.2-0.7-1.5,0.4-1.3-0.2C35.9,20.8,35.2,20.9,36.4,21.7z M36.7,19.7c0.1-0.2,0.2-0.4,0.4-0.6C36.8,19.4,36.7,19.6,36.7,19.7z
	 M141.9,77.4c0.2-0.5,0.3-1,0.5-1.5l-0.7,0.9C141.7,77.1,141.8,77.2,141.9,77.4z M140.5,74.5l1.3-0.3l-1.2-0.9
	C140.7,73.6,140.8,74.3,140.5,74.5z M12.4,89.8l-0.3,0c-0.3,0.3-0.2,0.6-0.1,1.2L12.4,89.8z M18.5,105.7l-0.1-0.3l-0.7,1.1
	L18.5,105.7z M28.6,115.9c-0.4-0.4-1-0.7-1.4-1.2C28.2,115.4,27.7,117,28.6,115.9z"/>
</svg>
