<?xml version="1.0" encoding="utf-8"?>
<!-- Generator: Adobe Illustrator 22.0.0, SVG Export Plug-In . SVG Version: 6.00 Build 0)  -->
<svg version="1.1" id="Layer_1" xmlns="http://www.w3.org/2000/svg" xmlns:xlink="http://www.w3.org/1999/xlink" x="0px" y="0px"
	 viewBox="0 0 314.4 19.6" style="enable-background:new 0 0 314.4 19.6;" xml:space="preserve">
<style type="text/css">
	.st0{fill:#FFFFFF;}
</style>
<g>
	<path d="M69.4,19.2C48.1,19.5,27.7,20.2,6.6,18C4.9,16.9,1,17.6,1,16c0.2,0,0.4,0,0.5-0.1c0.2,1,2.2,0.8,3.5,1.3
		c0.2,0,0.4,0,0.5-0.1c-0.5-1.4-3.2-1.5-5.1-2.2c0.1,0,0.2,0,0.3,0.1c0.2-0.8-1.3-1.4-0.1-2.1c0.8,0.1,1.5,0.3,2.3,0.3
		c-0.2-0.4-1.2-0.5-1.8-0.5c-0.3,0-0.7,0.1-0.9-0.1C0,12.4,0.1,12.4,0,12.2c1.4-0.4,2.7,0.3,4-0.4c-1.1-0.4-2.4-0.4-3.4-0.9
		c0.1-0.3,0.2-0.5,0.3-0.8c1.1,0.1,2.6,0.7,3.4,0C3.6,8.8,0.1,9.5,0.6,8C0.5,7.7,0.3,7.4,0.1,7C0.2,7,0.4,7,0.5,7
		C0.4,6.7,0.3,6.5,0.2,6.3c1.8,0.3,4,0.5,5.8,0.6c1.3,0,0.1-0.3,0.5-0.7C4.3,5.6,2.7,6.9,1,5.8c1.3,0,2.5,0.2,3.8-0.1
		C4.7,5.4,4.4,5,3.7,5c-1,0-2,0.2-3-0.1c-0.2-0.3,0-0.4,0-0.7c0.6,0.6,1.3,0.2,2.4,0.2c0,0,0.1-0.1,0.1-0.1c-0.7-0.3-0.9-0.5-1.1-1
		C3,3.4,3.9,3.7,4,3C3.1,2.5,1.8,2.6,0.7,2.2c4.8,0.2,9.5,0,14.3-0.1c10.1,0.1,20.2,0.2,30.2,0.5c0.9,0.3,1.3-0.3,2.2-0.1
		c1.6,0.3,3-0.2,4.6-0.1c5.6,0.2,11.1-0.5,16.7-0.4c7.9-0.6,15.8-0.6,23.8-0.5c1.7,0,3.4-0.2,5,0.3c1.1-0.2,1.7,0,2.8,0.2
		c11.1,0.1,22.1,0.6,33.2,0.6c2.6,0.4,5-0.4,7.7-0.2c2,0,3.9-0.2,5.9,0.1c0.4-0.7,1.3,0,2.1-0.2c2.5-0.4,5.1-0.1,7.4-0.8
		c6.8,0.2,13.6,0.3,20.4,0.4c-3.1,0.4-6.3,0-9.4,0.6c0.2,0.1,0.3,0.2,0.5,0.3c-0.2,0-0.3,0.1-0.4,0.1c1.1,0.7,2.7,0.4,4.2,0.5
		c-0.9,0.1-1.8,0.3-2.7,0.4c0.9,0.3,2,0.4,3.2,0.4c4.6,0,9.2,0,13.8,0c-0.1,0.4-1,0.2-1.5,0.4c-1.7,0-3.4-0.1-4.9,0.5
		c-2.8,0.3-5.6,0.1-8.3,0.5c0.4,0.9,2.3,0.2,3.3,0.3c1.5,0.1,2.7-0.5,3.5,0.3c-0.3,0-0.4,0.2-0.5,0.3c1.7,0.9,3.4-0.6,4.7,0.6
		c3.8-0.1,7.6,0.1,11.3-0.4c3.9,0,7.8-0.4,11.8-0.2c-0.9,0.1-1.7,0.4-2.5,0.5c0-0.1,0-0.1,0-0.2c-7.1,0-13.9,0.4-20.9,1
		c-0.1,0.1-0.2,0.2-0.4,0.2c0.4,0.1,0.8,0.1,1.3,0.1c-0.2,0.1-0.5,0.3-0.7,0.4c0.5,0.1,0.9,0.2,1.4,0.1c-1.3,0.2-2.3,0.5-3.6,0.2
		c-0.2-0.2-0.4-0.3-0.5-0.5c-0.3,0.1-1.2,0.3-0.9,0.5c-1,0-1.8,0.2-2.7,0.4c3.3,0.6,6.6-0.1,9.9,0.1c0.5,0,0.2,0.5,0.7,0.5
		c1-0.6,2.1-0.3,3.4-0.6c2-0.6,3.7,0.4,5.9,0.1c0.2-0.2,0.3-0.4,0.5-0.5c1.2,0,2.5-0.1,3.7-0.1c0,0.2,0.2,0.2,0.4,0.3
		c1.9-0.6,4.3-0.5,6.4-0.7c1.9-1.4,4.7-0.8,7.2-1.5c3,0.5,6.1,0.1,9.1,0.5c0.9-0.5,0.9-1.1,1.3-1.7c0.5,0.1,1,0.1,1.6,0.2
		c0.1,0.6-0.8,0.6-1.6,0.8c1.1,1.3,3.6,0.5,5.6,0.9c-1.6,0.2-3.2,0-4.9,0.2c0.8,0.8,2.3,0.3,3.6,0.7c1.3,0.4,2.4,0,3.7,0.4
		c0.5,0.2,1.6,0.2,2.3,0.1c0.4-0.5,1.2-0.3,2-0.3c-0.3,0.1-0.6,0.2-0.8,0.3c0.5,0.4,1.1,0,1.7,0.2c1-0.4,1.6-0.3,2.5,0.1
		c-1.8,0.1-3.6,0.2-5.4,0.2c0,0.1,0,0.3,0,0.4c-0.2-0.7-1.3-0.6-2.3-0.5c-0.2,0-0.4,0.1-0.4,0.2c0,0.1,0.5,0.2,0.4,0.3
		c-0.1,0.1-0.1,0-0.3,0.1c0.9,0.5,1.8,0.1,2.8,0.4c1.7,0.1,3.3,0.2,5,0.3c0.1,0.2,0.2,0.3,0.3,0.5c0.3-0.2,0.7-0.4,1-0.6
		c2.9,0,5.6-0.2,8.4,0.3c1.4-0.5,2.7,0.4,4-0.2c-0.3-0.2-0.7-0.2-1.2-0.3c0.1-0.1-0.2-0.2-0.2-0.4c-0.8,0-1.6,0-2.4-0.1
		c0.3-0.2,0.6-0.5,0.9-0.7c-0.2-0.1-0.3-0.2-0.5-0.3c2-0.6-0.5-1.2,0.5-2.1c-0.2,0-0.3-0.1-0.4-0.1c0.5-0.2,1-0.3,1.5-0.5
		c-0.5-0.2-1.2-0.1-0.9-0.5c1.4,0.1,2.8,0,4.2,0.3c-0.1,0-0.5,0-0.4,0.1c0.4,0.4,1.6,0.3,2.2,0.6c-0.9,0.2-2.1-0.1-2.4,0.6
		c0.6,0.5,1.4,0.2,2.3,0.4c-0.5,0.2-1.2,0.1-1.7,0.3c0.3,0.2,0.9,0.2,1.3,0.3c-0.2,0.1-0.8,0.1-0.7,0.2c0,0.1,0.2,0.2,0.3,0.3
		c0.1,0,0.2-0.1,0.3-0.1c0.1,0.1,0.2,0.2,0.3,0.3c-0.5,0.1-0.9,0.1-1.2,0.3c0.4,0.5,1.1,0.7,2,0.7c-0.7,0.9-2.3,0-3.5,0.6
		c1,0.1,1.9,0.3,2.9,0.4c-2.8,0.3-5.3,0.9-7.5-0.3c-0.3,0.2-0.6,0.4-0.9,0.7c-0.9-0.5-2,0.1-2.8-0.5c-1,0-1.1,0.8-1.8,0.2
		c-0.4-0.3-0.7-0.2-1.4-0.1c-0.7,0.9-2.3,0.5-3.6,0.9c1.8,0.3,3.6,0.2,5.5,0.2c-4.5,0.4-8.9,0-13.4,0.3c0.2,0.2,0.3,0.3,0.5,0.5
		c1,0.1,1.8-0.2,2.7,0.1c2-0.4,3.9-0.3,6-0.2c0,0.1,0,0.3-0.1,0.4c3.1,0,6.2,0.2,9.3-0.1c3.9,0.4,8,0.5,11.9,0.8
		c1.6-0.2,3.3,0.1,4.9,0.3c1.1-0.1,2.3-0.3,3.4-0.4c-0.2-0.3-0.8,0-1.1-0.1s0-0.3,0-0.4c0.8-0.1,1.6-0.1,2.4,0.1
		c-0.3,0.2-0.9-0.2-0.9,0.3c1.2,0.1,1.7,0.8,2.6,0.1c1.1,0,2.1-0.1,3.2-0.1c-0.2-0.2-0.7-0.2-1.1-0.3c0.9-0.2,1.9,0.1,2.4-0.4
		c-0.7-0.3-1.6-0.1-2.3-0.3c0.1,0,0.3-0.1,0.3-0.2c-1.8-0.4-3.1,0.4-4.9,0.2c0.3,0,0.7-0.1,0.6-0.3c-0.1-0.2-0.4-0.3-0.6-0.4
		c1.8-0.5,3.6,0.2,5.6-0.1c0.2,0.1,0.4,0.2,0.7,0.3c0.3,0.1-0.5,0.1-0.2,0.3c2.5,0.2,5,0,7.5,0.1c-1.5,0.3-2.6,1.5-4.2,0.8
		c-0.3-0.1-0.4-0.4-0.9-0.4c-0.7,0.5-2.7,0.2-2.7,0.9c2.7,0.1,5.3-0.1,7.9,0.4c1.2-0.5,2.5,0.1,3.7-0.4c3.6,0.1,7.1,0.2,10.7,0
		c-1.8,0.4-3.5,0.6-5.5,0.6c0.5,0.5,1.5,0.4,2.4,0.4c-2.3,0.2-4.5,0.3-6.8,0.6c0,0.2,0.2,0.5,0.6,0.5c2.7,0.1,5.3-0.2,8,0.2
		c-7.3,0.1-14.4,1.2-21.7,1c-5,0.5-9.6-0.3-14.6-0.6c1.8-0.4,3-0.6,4.7,0c0.3-0.2,0.6-0.5,1-0.7c-1-0.4-1.6,0-2.7,0
		c-5.8-1.1-11.5-0.4-17.5-0.8c-2.3-0.1-4.6-0.2-6.9,0c0,0.1,0,0.1,0,0.2c1.6-0.1,3,0.4,4.5,0.7c5-0.3,9.7,0.3,14.6,0.6
		c-11.8,0-22.9-0.4-34.8-0.2c-18.7,0.2-37.8,0.6-56.5,1.7C134.7,19.4,101.9,19.5,69.4,19.2z"/>
	<path class="st0" d="M183.2,16.8c0.4-0.4,1.4-0.3,2-0.4c0.6-0.1,0.8-0.1,1.3-0.2C186,17,184.4,16.8,183.2,16.8z"/>
	<path class="st0" d="M192.1,16.1c-0.1,0-0.3-0.2-0.2-0.3c0.3-0.2,0.8-0.2,1.3-0.2c0,0.1,0,0.3,0.1,0.4c-0.2-0.1-0.4-0.2-0.6-0.3
		C192.5,15.9,192.3,16,192.1,16.1z"/>
	<path class="st0" d="M230.8,15.6c0.2-0.5,1-0.3,1.7-0.4c0.2,0.3,0.9,0.5,0.1,0.7C232.1,15.7,231.4,15.8,230.8,15.6z"/>
	<path class="st0" d="M191.7,13.3c0.8-0.1,1.5,0,2.1-0.4c-1.3-0.2-2.5,0.1-3.8,0c1.2-0.2,3,0.1,3.3-0.8c3.3,0.1,6.5-0.3,9.7,0.2
		c-2.2,0.2-4.6,0-6.6,0.7C194.8,13.5,193.5,13.4,191.7,13.3z"/>
	<path class="st0" d="M190.1,13.4c-0.9,0.1-1.5,0.2-2.4,0.3c-0.9,0.1-2.2,0-3.2,0C186.3,13.6,188.2,13.5,190.1,13.4z"/>
	<path class="st0" d="M233.7,12.3c0.7-0.1,1.5,0.1,2.1-0.2c-0.4-0.1-0.6-0.3-1.1-0.2c1.2-0.3,2.2-0.4,3.4,0
		c-0.8,0.1-1.6,0.1-2.4,0.2c0.5,0.1,1,0.2,1.6,0.3C236.2,12.3,234.9,12.4,233.7,12.3z"/>
	<path class="st0" d="M257.7,14.7c0.6-0.2,1.3,0,1.9,0.1C258.9,14.8,258.3,14.8,257.7,14.7z"/>
	<path class="st0" d="M268.8,16.3c-0.3,0-0.7,0.1-1,0.1c-0.2-0.1-0.4-0.1-0.7-0.2C267.7,16.3,268.2,16.3,268.8,16.3z"/>
	<path d="M248,12.7c0.8,0.1,1.6,0.2,2.3,0.2C249.4,13,248.3,13.4,248,12.7z"/>
	<path class="st0" d="M194.6,10.9c-0.2,0-0.5,0-0.7,0.1C194.1,10.9,194.3,10.9,194.6,10.9z"/>
	<path class="st0" d="M193.2,11c-0.2,0-0.5,0-0.7,0.1C192.8,11,193,11,193.2,11z"/>
	<path d="M251.7,13c0.2-0.2,0.5,0,0.8,0C252.2,13.1,252,13,251.7,13z"/>
	<path d="M264.2,13.9c0.5-0.2,0.9-0.1,1.4,0C265.4,14.1,264.7,14,264.2,13.9z"/>
	<path d="M267.7,13.9c0,0.1-0.1,0.1-0.1,0.2c-0.2-0.1-0.3-0.1-0.5-0.2C267.3,13.9,267.5,13.9,267.7,13.9z"/>
	<path class="st0" d="M283.9,15.8c0.1,0,0.4,0,0.5,0.1c0.1,0.1-0.3,0.3,0,0.4c-0.4,0.1-0.9,0.2-1.3,0.3
		C283.3,16.2,283.1,15.8,283.9,15.8z"/>
	<path class="st0" d="M175.5,9.5c-0.1,0-0.2,0.1-0.4,0.1c-0.3,0-0.6,0-0.8,0C174.7,9.6,175.1,9.6,175.5,9.5z"/>
	<path class="st0" d="M285.8,16.4c0.2-0.3,0.7-0.4,0.5-0.8c0.9,0,0.5,0.4,1.1,0.6C286.8,16.3,286.4,16.5,285.8,16.4z"/>
	<path d="M265.2,12.9c0.7-0.4,1.5-0.2,2.3,0C266.7,12.9,266.1,13.1,265.2,12.9z"/>
	<path class="st0" d="M180.7,8.8c0.1-0.3,0.9-0.4,1.2-0.1C181.5,8.8,181.1,8.8,180.7,8.8z"/>
	<path d="M244.5,9.4c0.3-0.1,0.7,0,1,0C245.1,9.4,244.8,9.4,244.5,9.4z"/>
	<path d="M207.9,7.1c1.6-1.2,4.3-0.4,6.2-1.3c2-0.3,3.4,0.7,5.4,0.3c-0.1,0.1-0.3,0.1-0.4,0.2c0.3,0.2,0.5,0.3,0.8,0.5
		c-1.1-0.1-2,0.2-2.9-0.3c-1.7,0.8-4,0.1-5.9,0.8C210,7.3,209,7.3,207.9,7.1z"/>
	<path d="M240.4,8.4c0.4,0.1,0.7,0.3,1.1,0.4c-0.4-0.1-0.8-0.1-1.1-0.2C240.4,8.5,240.4,8.5,240.4,8.4z"/>
	<path d="M236.1,8.1c0.4-0.1,0.7,0,1.1,0C236.9,8.3,236.5,8.1,236.1,8.1z"/>
	<path d="M267.4,12.2c0.5-0.2,0.9,0,1.4,0C268.3,12.2,267.9,12.4,267.4,12.2z"/>
	<path d="M233.7,7.6c0.3-0.2,0.7-0.2,1.1-0.1C234.5,7.7,234,7.5,233.7,7.6z"/>
	<path class="st0" d="M284.9,15.1c0.1-0.1,0.6-0.3,0.7-0.1C285.7,15.1,285.1,15.1,284.9,15.1z"/>
	<path d="M221.6,6.2c-0.1-0.2,0.1-0.5,0.6-0.4c0.1,0,0.4,0,0.6,0C222.5,6.2,222.1,7,221.6,6.2z"/>
	<path d="M298.5,16.2c3.7,0,7.2-0.8,10.9-0.9c0.5-0.2,0.9-0.6,1.5-0.7c0,0.1,0,0.3,0,0.4c1.2,0,2.3,0.1,3.5,0.1
		c-5.3,0.4-10.5,0.9-15.8,1.2C298.6,16.3,298.5,16.3,298.5,16.2z"/>
	<path d="M202.7,6c0.1-0.1,0.3-0.2,0.4-0.2c0.1,0.1,0.3,0.2,0.4,0.4C203.3,5.9,203,6,202.7,6z"/>
	<path class="st0" d="M130.9,10.5c0.7-0.1,1.5-0.1,2.2-0.2c-0.5,0.4-1.3,0.5-2.2,0.4C131,10.6,130.9,10.5,130.9,10.5z"/>
	<path d="M230,6.3c0.9-0.2,1.7,0,2.6,0.1C231.7,6.4,230.8,6.4,230,6.3z"/>
	<path d="M233.9,6.5c-0.2-0.2,0.5-0.3,0.6-0.4c0.1,0.1,0.4,0.3,0.5,0.3c0.1,0.1,0.5-0.1,0.4,0C235.2,6.6,234.1,6.7,233.9,6.5z"/>
	<path d="M267.1,10.8c0.6-0.2,1.3-0.1,1.9,0C268.5,11.2,267.8,10.9,267.1,10.8z"/>
	<path d="M270.5,11c0.2,0,0.3-0.1,0.3-0.3c2.2,0.1,4.4,0.3,6.6,0.4C275.1,10.9,272.9,11.6,270.5,11z"/>
	<path d="M244,6.5c-0.1-0.2,0.8-0.1,1,0C244.7,6.5,244,6.7,244,6.5z"/>
	<path d="M207.5,4.1c0.3-0.2,0.8-0.1,1.2-0.1c0,0.1,0,0.2,0,0.3C208.3,4.1,207.9,4.2,207.5,4.1z"/>
	<path class="st0" d="M136.5,8.1c0.2-0.1,0.2-0.2-0.1-0.3c-0.3-0.1-0.6-0.2-0.9-0.1c-0.1,0.7-1.6,0.6-2.6,0.5c0.7-0.1,1.4-0.1,2-0.2
		c-0.8-0.2-1.7-0.1-2.6-0.1c0-0.1-0.1-0.1-0.1-0.2c2-0.1,4.1-0.1,6.1-0.2c0,0.2,0.3,0.6,0.8,0.6c1.4-0.2,3-0.3,4.1-0.8
		c1.2-0.1,1.8,0.5,3,0.4c0,0.1,0.1,0.2,0.1,0.3C143.1,8.2,139.8,7.9,136.5,8.1z"/>
	<path d="M218.4,4.3c0.3-0.4,0.6-0.9,1.6-0.7c-0.1,0.2-0.2,0.5-0.3,0.7C219.3,4.3,218.9,4.3,218.4,4.3z"/>
	<path d="M288.7,12.8c0.6-0.6,1.8-0.6,2.9-0.7c0.7,0.3,0.5,0.8,1.7,0.7c-1.5,0.2-3,0.2-4.4,0.2C288.8,12.9,288.7,12.9,288.7,12.8z"
		/>
	<path d="M211.3,4c0.5-0.1,1-0.1,1.4-0.3c-0.3-0.2-0.6-0.2-1-0.2c0.6,0,1.2,0,1.8,0c-0.2,0.1-0.4,0.1-0.7,0.2c0.5,0.2,1.4,0,1.7,0.2
		C213.4,4,212.4,3.9,211.3,4z"/>
	<path class="st0" d="M170.1,5.9c0,0.1-0.1,0.1-0.1,0.2c-0.7-0.1-1.4-0.1-2.1-0.2C168.7,5.9,169.4,5.9,170.1,5.9z"/>
	<path d="M300,14.2c0.3-0.4,0.7,0,1.2-0.2C301.4,14.3,300.3,14.3,300,14.2z"/>
	<path d="M270.6,10.2c0.1-0.1,0-0.1-0.1-0.2c1.5-0.3,2.7,0.4,4.1-0.2c0.7,0.1,1.4,0.2,2.1,0.3C274.7,10.4,272.7,10.3,270.6,10.2z"/>
	<path d="M239.7,5.2c0.6,0,1-0.2,1.6-0.1C240.8,5.3,240.3,5.3,239.7,5.2z"/>
	<path d="M215.2,3.8c0.1-0.1,0.2-0.2,0.2-0.3C215.4,3.6,215.3,3.7,215.2,3.8z"/>
	<path class="st0" d="M165.2,5.8c0.1,0.1,0.2,0.2,0.3,0.3c-0.1,0-0.2,0-0.2,0C165.3,6,165.2,5.9,165.2,5.8z"/>
	<path d="M187.7,4.4c0.9-0.6,2.2-0.5,3.5-0.4C190.2,4.4,188.9,4.3,187.7,4.4z"/>
	<path d="M294.2,12.9c0.3-0.3,0.5-0.7,1.1-0.8c0.6-0.1,0.7-0.6,1.5-0.5c-0.1,0.3-0.1,0.5-0.2,0.8c1.2,0.5,2.3,0,3.6-0.1
		c-0.2-0.9,1.2-0.8,2.3-0.8c0.5,0,0.5,0.1,0.7,0.3c-0.7,0.4-1.7,0-2.4,0.4c1.4,0.5,2.8,0.1,4.3,0.1c-0.6,0.4-1.6,0.2-2.3,0.6
		c-0.7-0.6-1.5,0.6-2.1-0.2c-2,0.1-3.6-0.1-5.4,0.5C295.4,12.9,294.7,12.8,294.2,12.9z"/>
	<path class="st0" d="M162.6,5.9c0.5,0,0.9-0.1,1.4-0.1c0,0.1,0,0.1,0.1,0.2C163.5,6.1,163.1,6,162.6,5.9z"/>
	<g>
		<path d="M209.1,3.4c-0.3,0-0.7,0-1,0c0,0,0-0.1,0-0.1C208.4,3.3,208.8,3.3,209.1,3.4C209.1,3.4,209.1,3.4,209.1,3.4L209.1,3.4z"/>
		<path d="M208.6,3.4"/>
	</g>
	<path d="M204.9,3.4c0.7,0,1.3,0,2,0.1C206.3,3.5,205.6,3.5,204.9,3.4C204.9,3.4,204.9,3.4,204.9,3.4z"/>
	<path class="st0" d="M137.6,7c-0.2-0.1-0.4-0.2-0.6-0.4c3.9-0.2,7.8-0.4,11.7-0.5c0,0.2,0,0.4-0.1,0.6C144.9,6.8,141.3,7.1,137.6,7
		z"/>
	<path d="M312.2,14.6c0.2,0,0.3-0.1,0.5-0.1C312.5,14.6,312.4,14.6,312.2,14.6z"/>
	<path d="M235.5,3.9c0.2,0,0.3-0.3,0.6-0.2C236.5,3.8,235.8,4,235.5,3.9z"/>
	<path d="M232.4,3.7c-0.3,0-0.6,0-0.8-0.1C231.8,3.6,232.1,3.6,232.4,3.7z"/>
	<path d="M139.6,6.7c-0.3,0-0.6,0-0.9,0.1C139,6.8,139.3,6.8,139.6,6.7z"/>
	<path d="M278.5,9.9c0.4-0.1,0.7-0.1,1.1-0.1C279.5,10.2,278.9,10.2,278.5,9.9z"/>
	<path d="M250.8,5c1.8-0.3,3.5-0.3,5.4-0.1C254.4,5.2,252.7,5,250.8,5z"/>
	<path d="M210.8,2c0.4-0.2,0.6,0.1,1,0.1C211.5,2.3,211.1,2.1,210.8,2z"/>
	<path class="st0" d="M132.5,6.8c1.1-0.3,2.3-0.2,3.6-0.2C134.9,6.6,133.7,6.7,132.5,6.8z"/>
	<path d="M177.3,3.4c0.3,0,0.7,0,1-0.1C178.1,3.5,177.7,3.6,177.3,3.4z"/>
	<path d="M172.9,3.6c1.1-0.3,2.4-0.2,3.6-0.2C175.3,3.6,174.1,3.7,172.9,3.6z"/>
	<path d="M291.8,11.1c1.8-0.1,3.5,0.2,4.4-0.9c-0.8-0.1,0.4-0.3,0.1-0.5c-1-0.6-2.4-0.2-3.4-0.7c-0.3,0.4-1.1,0.4-1.8,0.4
		c-0.2,0-0.3-0.4-0.1-0.5c2.1,0.1,4.1,0,6.2-0.1c1.5-0.1,3,0.1,4.4,0.1c0.1,0,0.2,0,0.2,0c-0.3,0.4-1.2,0.5-1.3,1.1
		c0,0.1-1.4,0.2-1.6,0c0.4,0,0.6-0.1,0.9-0.2c-0.7-0.2-0.7-0.8-1.7-0.5c-0.5,0.1-1.2,0.4-1.6,0.6c0.2,0.2,0.6,0.2,0.8,0.3
		c0.5,0-0.7,0-0.6,0.2c0.2,0.2,1.2,0.2,0.6,0.6c0.6,0.1,1.4,0.1,1.8-0.1c0.2-0.1-0.3-0.4,0.3-0.4c0.3,0.9,1.4,0.2,2.4,0.5
		c1.2-0.1,2.4,0,3.6-0.1C300.9,11.1,296.5,11.4,291.8,11.1z"/>
	<path d="M214.4,1.7c0.3,0,0.7,0,1,0C215.1,1.8,214.7,1.9,214.4,1.7z"/>
	<path d="M202.1,1.3c-0.1,0-0.1,0.1-0.2,0.1c-0.5,0-1.1,0-1.6,0C200.9,1.4,201.5,1.3,202.1,1.3z"/>
	<path d="M292.7,10.5c0.4-0.2,0.6-0.5,1-0.7c0.2,0.2,0.3,0.3,0.5,0.5C293.7,10.4,293.3,10.5,292.7,10.5z"/>
	<path class="st0" d="M144.3,4.2c0.3,0,0.4-0.1,0.7,0c0.3,0.1-0.2,0.4-0.6,0.3C144.4,4.5,144.4,4.4,144.3,4.2z"/>
	<path class="st0" d="M132.1,4.7c0.6-0.1,1.3,0,1.8-0.2c-2.5-0.6-5.2-0.2-7.8-0.5c-1.3,0-2.7-0.1-4-0.1c1.2-0.2,2.3-0.2,3.5-0.2
		c-0.1-0.1-0.2-0.2-0.3-0.3c1.9-0.1,3.8,0,5.7-0.1c0,0.1,0.1,0.2,0.1,0.3c1.5,0.1,2.6-0.5,4,0c2,0,3.6-0.8,5.5-0.2
		c-1.6,0.3-1.1,1.3-3.1,1.4C136.1,4.9,133.7,4.7,132.1,4.7z"/>
	<path d="M263.4,2.2c-0.1,0.1-0.2,0.2-0.2,0.3c-0.1,0-0.3,0-0.4,0C262.9,2.4,263.1,2.3,263.4,2.2z"/>
	<path d="M213.4,0c-0.1,0.1-0.2,0.1-0.2,0.2c-0.2,0-0.4,0-0.6,0C212.9,0.1,213.1,0.1,213.4,0z"/>
	<path class="st0" d="M130.6,4.8C130.6,4.8,130.6,4.8,130.6,4.8c-0.5,0.1-1.1,0.1-1.6,0.1C129.5,4.9,130,4.8,130.6,4.8z"/>
	<path class="st0" d="M146.1,3.4c0.4-0.2,1.1,0,1.3-0.4c-0.2-0.1-0.4-0.1-0.7-0.2c0.4,0,0.8-0.1,1.2-0.1
		C147.7,3.3,147.2,3.7,146.1,3.4z"/>
	<path class="st0" d="M141.9,3.3c0.6-0.1,1.1-0.2,1.7-0.3c0,0.1,0.1,0.2,0.1,0.4C143.1,3.3,142.5,3.5,141.9,3.3z"/>
	<path d="M301.9,9.8c0.3,0,0.7,0,1,0C302.6,10,302.3,9.8,301.9,9.8z"/>
	<path d="M282.4,7.3c0.6-0.1,1.2-0.2,1.9-0.1C283.7,7.4,283.1,7.4,282.4,7.3z"/>
	<path d="M302.7,9.1c0.1,0,0.5-0.1,0.6-0.1C303.7,9.1,302.9,9.5,302.7,9.1z"/>
	<path d="M292.2,7.2c-0.5,0-1.4,0.1-1.8,0.1s-0.3-0.1-0.6-0.1C290.6,7.2,291.4,7.2,292.2,7.2z"/>
	<path d="M280.9,6c0.3-0.2,0.8-0.1,1.2-0.2c0.1,0.1,0.1,0.1,0.2,0.2C281.8,6.1,281.4,5.9,280.9,6z"/>
	<path d="M160.4,0.8c-0.3,0-0.6,0-0.8,0.1C159.8,0.8,160.1,0.8,160.4,0.8z"/>
	<path d="M293.8,7.1c2.6,0.2,5.2,0,7.8,0.1C299,7.5,296.4,7.2,293.8,7.1z"/>
	<path d="M291.7,6.4c0.4-0.1,0.4-0.4,1-0.3c-0.1,0.2-0.3,0.3-0.4,0.5C292.1,6.6,291.9,6.5,291.7,6.4z"/>
	<path d="M295.7,6.4c0.2,0,0.4,0.1,0.6,0.2c-0.3,0-0.6,0.1-0.9,0.1C295.5,6.5,295.5,6.4,295.7,6.4z"/>
	<path class="st0" d="M1.1,7.1c0.3,0,0.6,0,1,0c-0.3,0-0.5,0.1-0.8,0.1C1.3,7.2,1.2,7.1,1.1,7.1z"/>
	<path class="st0" d="M3.9,4.4c0.3,0,0.6,0.1,0.9,0.1c-0.1,0-0.3,0.1-0.4,0C4.2,4.5,4,4.4,3.9,4.4z"/>
</g>
</svg>
