<?xml version="1.0" encoding="utf-8"?>
<!-- Generator: Adobe Illustrator 22.0.0, SVG Export Plug-In . SVG Version: 6.00 Build 0)  -->
<svg version="1.1" id="Layer_1" xmlns="http://www.w3.org/2000/svg" xmlns:xlink="http://www.w3.org/1999/xlink" x="0px" y="0px"
	 viewBox="0 0 484.3 19.6" style="enable-background:new 0 0 484.3 19.6;" xml:space="preserve">
<style type="text/css">
	.st0{fill:#FFFFFF;}
</style>
<g>
	<path d="M106.9,19.2C74,19.5,42.6,20.2,10.1,18c-2.6-1.1-8.6-0.4-8.6-2c0.3,0,0.6,0,0.8-0.1c0.3,1,3.4,0.8,5.4,1.3
		c0.3,0,0.6,0,0.8-0.1c-0.8-1.4-4.9-1.5-7.9-2.2c0.1,0,0.3,0,0.4,0.1c0.3-0.8-2-1.4-0.2-2.1c1.2,0.1,2.3,0.3,3.5,0.3
		c-0.3-0.4-1.8-0.5-2.8-0.5c-0.5,0-1.2,0.1-1.3-0.1c-0.2-0.2-0.1-0.2-0.3-0.3c2.2-0.4,4.2,0.3,6.2-0.4c-1.7-0.4-3.8-0.4-5.3-0.9
		c0.2-0.3,0.3-0.5,0.5-0.8c1.7,0.1,4.1,0.7,5.2,0C5.6,8.8,0.2,9.5,1,8C0.7,7.7,0.4,7.4,0.2,7C0.4,7,0.6,7,0.7,7
		C0.6,6.7,0.4,6.5,0.2,6.3C3,6.6,6.4,6.9,9.1,6.9c2.1,0,0.1-0.3,0.7-0.7C6.5,5.6,4.1,6.9,1.6,5.8c2.1,0,3.8,0.2,5.8-0.1
		C7.3,5.4,6.8,5,5.8,5C4.2,5,2.7,5.2,1.2,4.9c-0.3-0.3,0-0.4,0.1-0.7c1,0.6,2.1,0.2,3.6,0.2c0.1,0,0.1-0.1,0.2-0.1
		c-1-0.3-1.4-0.5-1.7-1C4.7,3.4,6.1,3.7,6.2,3c-1.3-0.6-3.5-0.4-5-0.9c7.4,0.2,14.6,0,22-0.1c15.5,0.1,31.1,0.2,46.6,0.5
		c1.4,0.3,1.9-0.3,3.3-0.1c2.4,0.3,4.6-0.2,7.2-0.1c8.6,0.2,17.1-0.5,25.8-0.4c12.2-0.6,24.3-0.6,36.6-0.5c2.6,0,5.3-0.2,7.7,0.3
		c1.7-0.2,2.7,0,4.3,0.2c17.1,0.1,34.1,0.6,51.2,0.6c4,0.4,7.7-0.4,11.8-0.2c3.1,0,6-0.2,9,0.1c0.6-0.7,2,0,3.3-0.2
		c3.9-0.4,7.8-0.1,11.5-0.8c10.5,0.2,21,0.3,31.5,0.4c-4.8,0.4-9.7,0-14.5,0.6c0.3,0.1,0.5,0.2,0.8,0.3c-0.3,0-0.4,0.1-0.6,0.1
		c1.7,0.7,4.1,0.4,6.5,0.5c-1.4,0.1-2.7,0.3-4.1,0.4c1.4,0.3,3.1,0.4,4.9,0.4c7.1,0,14.2,0,21.3,0c-0.2,0.4-1.6,0.2-2.3,0.4
		c-2.7,0-5.3-0.1-7.5,0.5c-4.2,0.3-8.6,0.1-12.8,0.5c0.6,0.9,3.6,0.2,5.1,0.3c2.3,0.1,4.2-0.5,5.3,0.3c-0.4,0-0.5,0.2-0.8,0.3
		c2.7,0.9,5.2-0.6,7.3,0.6c5.8-0.1,11.6,0.1,17.4-0.4c6.1,0,12.1-0.4,18.1-0.2c-1.4,0.1-2.6,0.4-3.9,0.5c0-0.1,0-0.1,0-0.2
		c-10.9,0-21.4,0.4-32.1,1c-0.2,0.1-0.4,0.2-0.5,0.2c0.7,0.1,1.3,0.1,2,0.1c-0.4,0.1-0.8,0.3-1.1,0.4c0.8,0.1,1.4,0.2,2.2,0.1
		c-1.9,0.2-3.5,0.5-5.5,0.2c-0.3-0.2-0.6-0.3-0.8-0.5c-0.5,0.1-1.9,0.3-1.3,0.5c-1.5,0-2.8,0.2-4.2,0.4c5,0.6,10.1-0.1,15.2,0.1
		c0.7,0,0.3,0.5,1.1,0.5c1.5-0.6,3.3-0.3,5.2-0.6c3.1-0.6,5.7,0.4,9.1,0.1c0.3-0.2,0.5-0.4,0.8-0.5c1.9,0,3.8-0.1,5.8-0.1
		c0,0.2,0.4,0.2,0.6,0.3c3-0.6,6.6-0.5,9.9-0.7c2.9-1.4,7.2-0.8,11-1.5c4.6,0.5,9.3,0.1,14,0.5c1.4-0.5,1.3-1.1,2-1.7
		c0.8,0.1,1.6,0.1,2.4,0.2c0.2,0.6-1.2,0.6-2.5,0.8c1.7,1.3,5.5,0.5,8.6,0.9c-2.5,0.2-5,0-7.5,0.2c1.2,0.8,3.6,0.3,5.5,0.7
		c1.9,0.4,3.7,0,5.7,0.4c0.8,0.2,2.4,0.2,3.5,0.1c0.6-0.5,1.8-0.3,3-0.3c-0.4,0.1-0.9,0.2-1.3,0.3c0.7,0.4,1.7,0,2.7,0.2
		c1.5-0.4,2.4-0.3,3.8,0.1c-2.8,0.1-5.5,0.2-8.3,0.2c0,0.1,0,0.3-0.1,0.4c-0.2-0.7-2-0.6-3.5-0.5c-0.3,0-0.6,0.1-0.6,0.2
		c0,0.1,0.7,0.2,0.5,0.3c-0.2,0.1-0.2,0-0.4,0.1c1.4,0.5,2.8,0.1,4.4,0.4c2.6,0.1,5.2,0.2,7.7,0.3c0.2,0.2,0.4,0.3,0.5,0.5
		c0.5-0.2,1.1-0.4,1.6-0.6c4.5,0,8.6-0.2,13,0.3c2.2-0.5,4.2,0.4,6.2-0.2c-0.4-0.2-1.1-0.2-1.8-0.3c0.1-0.1-0.3-0.2-0.4-0.4
		c-1.3,0-2.4,0-3.7-0.1c0.5-0.2,1-0.5,1.4-0.7c-0.3-0.1-0.5-0.2-0.8-0.3c3.1-0.6-0.8-1.2,0.8-2.1c-0.3,0-0.4-0.1-0.6-0.1
		c0.8-0.2,1.6-0.3,2.4-0.5c-0.8-0.2-1.9-0.1-1.3-0.5c2.2,0.1,4.4,0,6.4,0.3c-0.1,0-0.7,0-0.6,0.1c0.6,0.4,2.4,0.3,3.4,0.6
		c-1.5,0.2-3.3-0.1-3.7,0.6c0.9,0.5,2.2,0.2,3.6,0.4c-0.8,0.2-1.9,0.1-2.6,0.3c0.5,0.2,1.3,0.2,2.1,0.3c-0.3,0.1-1.2,0.1-1.1,0.2
		c0.1,0.1,0.3,0.2,0.5,0.3c0.1,0,0.3-0.1,0.4-0.1c0.1,0.1,0.3,0.2,0.4,0.3c-0.7,0.1-1.3,0.1-1.9,0.3c0.6,0.5,1.6,0.7,3,0.7
		c-1.1,0.9-3.6,0-5.4,0.6c1.5,0.1,2.9,0.3,4.4,0.4c-4.3,0.3-8.1,0.9-11.6-0.3c-0.5,0.2-0.9,0.4-1.4,0.7c-1.4-0.5-3,0.1-4.4-0.5
		c-1.5,0-1.7,0.8-2.8,0.2c-0.6-0.3-1.1-0.2-2.1-0.1c-1,0.9-3.6,0.5-5.5,0.9c2.8,0.3,5.6,0.2,8.5,0.2c-6.9,0.4-13.8,0-20.7,0.3
		c0.3,0.2,0.5,0.3,0.8,0.5c1.5,0.1,2.8-0.2,4.2,0.1c3-0.4,6-0.3,9.2-0.2c0,0.1-0.1,0.3-0.1,0.4c4.8,0,9.6,0.2,14.3-0.1
		c6.1,0.4,12.3,0.5,18.4,0.8c2.4-0.2,5.1,0.1,7.5,0.3c1.8-0.1,3.5-0.3,5.3-0.4c-0.4-0.3-1.2,0-1.8-0.1s0.1-0.3,0-0.4
		c1.3-0.1,2.4-0.1,3.6,0.1c-0.5,0.2-1.4-0.2-1.4,0.3c1.9,0.1,2.7,0.8,4.1,0.1c1.6,0,3.2-0.1,4.9-0.1c-0.4-0.2-1.1-0.2-1.7-0.3
		c1.4-0.2,2.9,0.1,3.8-0.4c-1.1-0.3-2.4-0.1-3.6-0.3c0.2,0,0.5-0.1,0.5-0.2c-2.8-0.4-4.7,0.4-7.6,0.2c0.4,0,1.1-0.1,0.9-0.3
		c-0.2-0.2-0.6-0.3-0.9-0.4c2.8-0.5,5.6,0.2,8.6-0.1c0.4,0.1,0.7,0.2,1.1,0.3c0.4,0.1-0.8,0.1-0.3,0.3c3.9,0.2,7.7,0,11.6,0.1
		c-2.4,0.3-3.9,1.5-6.5,0.8c-0.5-0.1-0.6-0.4-1.4-0.4c-1.1,0.5-4.2,0.2-4.1,0.9c4.2,0.1,8.2-0.1,12.2,0.4c1.9-0.5,3.8,0.1,5.8-0.4
		c5.5,0.1,10.9,0.2,16.4,0c-2.8,0.4-5.4,0.6-8.4,0.6c0.7,0.5,2.2,0.4,3.6,0.4c-3.5,0.2-7,0.3-10.4,0.6c0,0.2,0.4,0.5,0.9,0.5
		c4.2,0.1,8.2-0.2,12.3,0.2c-11.3,0.1-22.1,1.2-33.5,1c-7.8,0.5-14.8-0.3-22.5-0.6c2.7-0.4,4.7-0.6,7.3,0c0.5-0.2,1-0.5,1.5-0.7
		c-1.6-0.4-2.5,0-4.1,0c-8.9-1.1-17.8-0.4-26.9-0.8c-3.6-0.1-7-0.2-10.6,0c0,0.1,0,0.1-0.1,0.2c2.5-0.1,4.6,0.4,6.9,0.7
		c7.6-0.3,14.9,0.3,22.5,0.6c-18.1,0-35.3-0.4-53.7-0.2c-28.9,0.2-58.2,0.6-87.1,1.7C207.4,19.4,157,19.5,106.9,19.2z"/>
	<path class="st0" d="M282.3,16.8c0.6-0.4,2.2-0.3,3.1-0.4c0.9-0.1,1.2-0.1,2-0.2C286.5,17,284.1,16.8,282.3,16.8z"/>
	<path class="st0" d="M296,16.1c-0.2,0-0.4-0.2-0.3-0.3c0.4-0.2,1.3-0.2,2-0.2c0,0.1,0.1,0.3,0.1,0.4c-0.3-0.1-0.6-0.2-0.9-0.3
		C296.5,15.9,296.3,16,296,16.1z"/>
	<path class="st0" d="M355.5,15.6c0.4-0.5,1.6-0.3,2.7-0.4c0.3,0.3,1.4,0.5,0.2,0.7C357.5,15.7,356.4,15.8,355.5,15.6z"/>
	<path class="st0" d="M295.3,13.3c1.2-0.1,2.4,0,3.2-0.4c-1.9-0.2-3.8,0.1-5.8,0c1.9-0.2,4.7,0.1,5-0.8c5,0.1,10-0.3,14.9,0.2
		c-3.4,0.2-7.1,0-10.1,0.7C300,13.5,298.1,13.4,295.3,13.3z"/>
	<path class="st0" d="M292.8,13.4c-1.3,0.1-2.3,0.2-3.7,0.3c-1.4,0.1-3.4,0-4.9,0C287.1,13.6,289.9,13.5,292.8,13.4z"/>
	<path class="st0" d="M360.1,12.3c1.1-0.1,2.3,0.1,3.2-0.2c-0.6-0.1-1-0.3-1.7-0.2c1.9-0.3,3.5-0.4,5.3,0c-1.2,0.1-2.4,0.1-3.6,0.2
		c0.8,0.1,1.6,0.2,2.4,0.3C363.8,12.3,361.9,12.4,360.1,12.3z"/>
	<path class="st0" d="M397,14.7c1-0.2,2,0,2.9,0.1C398.9,14.8,398,14.8,397,14.7z"/>
	<path class="st0" d="M414.1,16.3c-0.5,0-1.1,0.1-1.6,0.1c-0.3-0.1-0.7-0.1-1-0.2C412.3,16.3,413.2,16.3,414.1,16.3z"/>
	<path d="M382,12.7c1.2,0.1,2.4,0.2,3.6,0.2C384.2,13,382.5,13.4,382,12.7z"/>
	<path class="st0" d="M299.7,10.9c-0.4,0-0.7,0-1.1,0.1C299,10.9,299.3,10.9,299.7,10.9z"/>
	<path class="st0" d="M297.7,11c-0.4,0-0.7,0-1.1,0.1C297,11,297.3,11,297.7,11z"/>
	<path d="M387.8,13c0.3-0.2,0.7,0,1.2,0C388.6,13.1,388.3,13,387.8,13z"/>
	<path d="M407,13.9c0.7-0.2,1.4-0.1,2.2,0C408.8,14.1,407.7,14,407,13.9z"/>
	<path d="M412.3,13.9c0,0.1-0.1,0.1-0.1,0.2c-0.3-0.1-0.5-0.1-0.8-0.2C411.7,13.9,412,13.9,412.3,13.9z"/>
	<path class="st0" d="M437.4,15.8c0.2,0,0.6,0,0.8,0.1c0.2,0.1-0.4,0.3,0,0.4c-0.7,0.1-1.3,0.2-2,0.3
		C436.4,16.2,436.2,15.8,437.4,15.8z"/>
	<path class="st0" d="M270.4,9.5c-0.2,0-0.4,0.1-0.6,0.1c-0.4,0-0.9,0-1.3,0C269.1,9.6,269.7,9.6,270.4,9.5z"/>
	<path class="st0" d="M440.2,16.4c0.4-0.3,1.1-0.4,0.8-0.8c1.4,0,0.7,0.4,1.7,0.6C441.9,16.3,441.1,16.5,440.2,16.4z"/>
	<path d="M408.6,12.9c1.1-0.4,2.3-0.2,3.6,0C410.8,12.9,409.9,13.1,408.6,12.9z"/>
	<path class="st0" d="M278.4,8.8c0.2-0.3,1.4-0.4,1.8-0.1C279.6,8.8,279,8.8,278.4,8.8z"/>
	<path d="M376.6,9.4c0.5-0.1,1,0,1.6,0C377.6,9.4,377.1,9.4,376.6,9.4z"/>
	<path d="M320.3,7.1c2.4-1.2,6.6-0.4,9.6-1.3c3.1-0.3,5.3,0.7,8.4,0.3c-0.2,0.1-0.4,0.1-0.6,0.2c0.4,0.2,0.8,0.3,1.3,0.5
		c-1.7-0.1-3.2,0.2-4.5-0.3c-2.6,0.8-6.1,0.1-9.1,0.8C323.6,7.3,322,7.3,320.3,7.1z"/>
	<path d="M370.4,8.4c0.6,0.1,1.1,0.3,1.7,0.4c-0.6-0.1-1.2-0.1-1.7-0.2C370.4,8.5,370.4,8.5,370.4,8.4z"/>
	<path d="M363.7,8.1c0.6-0.1,1.2,0,1.8,0C364.9,8.3,364.3,8.1,363.7,8.1z"/>
	<path d="M412,12.2c0.7-0.2,1.4,0,2.2,0C413.4,12.2,412.7,12.4,412,12.2z"/>
	<path d="M360,7.6c0.5-0.2,1.1-0.2,1.7-0.1C361.2,7.7,360.5,7.5,360,7.6z"/>
	<path class="st0" d="M438.8,15.1c0.2-0.1,1-0.3,1.1-0.1C440.1,15.1,439.1,15.1,438.8,15.1z"/>
	<path d="M341.4,6.2c-0.2-0.2,0.1-0.5,0.9-0.4c0.2,0,0.7,0,0.9,0C342.8,6.2,342.1,7,341.4,6.2z"/>
	<path d="M459.8,16.2c5.8,0,11-0.8,16.7-0.9c0.8-0.2,1.3-0.6,2.3-0.7c0,0.1,0,0.3,0.1,0.4c1.8,0,3.6,0.1,5.4,0.1
		c-8.1,0.4-16.1,0.9-24.3,1.2C460,16.3,459.9,16.3,459.8,16.2z"/>
	<path d="M312.2,6c0.2-0.1,0.4-0.2,0.7-0.2c0.2,0.1,0.4,0.2,0.6,0.4C313.2,5.9,312.8,6,312.2,6z"/>
	<path class="st0" d="M201.7,10.5c1.2-0.1,2.3-0.1,3.5-0.2c-0.8,0.4-2,0.5-3.3,0.4C201.8,10.6,201.7,10.5,201.7,10.5z"/>
	<path d="M354.3,6.3c1.3-0.2,2.7,0,4.1,0.1C356.9,6.4,355.6,6.4,354.3,6.3z"/>
	<path d="M360.3,6.5c-0.2-0.2,0.7-0.3,0.9-0.4c0.1,0.1,0.6,0.3,0.8,0.3c0.2,0.1,0.7-0.1,0.6,0C362.3,6.6,360.7,6.7,360.3,6.5z"/>
	<path d="M411.5,10.8c0.9-0.2,1.9-0.1,2.9,0C413.6,11.2,412.5,10.9,411.5,10.8z"/>
	<path d="M416.8,11c0.4,0,0.4-0.1,0.5-0.3c3.4,0.1,6.8,0.3,10.2,0.4C423.7,10.9,420.3,11.6,416.8,11z"/>
	<path d="M375.8,6.5c-0.1-0.2,1.2-0.1,1.5,0C377,6.5,375.9,6.7,375.8,6.5z"/>
	<path d="M319.7,4.1c0.5-0.2,1.2-0.1,1.8-0.1c0,0.1,0,0.2,0,0.3C320.9,4.1,320.2,4.2,319.7,4.1z"/>
	<path class="st0" d="M210.2,8.1c0.3-0.1,0.3-0.2-0.2-0.3c-0.4-0.1-0.9-0.2-1.4-0.1c-0.1,0.7-2.5,0.6-4,0.5c1.1-0.1,2.2-0.1,3.1-0.2
		c-1.3-0.2-2.7-0.1-4-0.1c0-0.1-0.1-0.1-0.1-0.2c3.2-0.1,6.3-0.1,9.5-0.2c0,0.2,0.4,0.6,1.3,0.6c2.2-0.2,4.6-0.3,6.3-0.8
		c1.9-0.1,2.8,0.5,4.7,0.4c0.1,0.1,0.1,0.2,0.2,0.3C220.4,8.2,215.3,7.9,210.2,8.1z"/>
	<path d="M336.5,4.3c0.5-0.4,1-0.9,2.5-0.7c-0.1,0.2-0.3,0.5-0.4,0.7C337.8,4.3,337.2,4.3,336.5,4.3z"/>
	<path d="M444.7,12.8c1-0.6,2.8-0.6,4.5-0.7c1.1,0.3,0.8,0.8,2.5,0.7c-2.3,0.2-4.5,0.2-6.9,0.2C444.9,12.9,444.8,12.9,444.7,12.8z"
		/>
	<path d="M325.4,4c0.7-0.1,1.5-0.1,2.2-0.3c-0.4-0.2-0.9-0.2-1.5-0.2c0.9,0,1.9,0,2.8,0c-0.3,0.1-0.7,0.1-1,0.2
		c0.7,0.2,2.2,0,2.6,0.2C328.8,4,327.1,3.9,325.4,4z"/>
	<path class="st0" d="M262.1,5.9C262,6,262,6,261.9,6.1c-1.1-0.1-2.1-0.1-3.2-0.2C259.8,5.9,261,5.9,262.1,5.9z"/>
	<path d="M462.2,14.2c0.5-0.4,1.2,0,1.9-0.2C464.3,14.3,462.6,14.3,462.2,14.2z"/>
	<path d="M416.9,10.2c0.2-0.1,0-0.1-0.1-0.2c2.3-0.3,4.2,0.4,6.3-0.2c1.1,0.1,2.1,0.2,3.2,0.3C423.2,10.4,420.1,10.3,416.9,10.2z"/>
	<path d="M369.2,5.2c0.9,0,1.6-0.2,2.5-0.1C370.9,5.3,370.1,5.3,369.2,5.2z"/>
	<path d="M331.6,3.8c0.1-0.1,0.2-0.2,0.4-0.3C331.8,3.6,331.7,3.7,331.6,3.8z"/>
	<path class="st0" d="M254.5,5.8c0.2,0.1,0.3,0.2,0.5,0.3c-0.1,0-0.3,0-0.4,0C254.6,6,254.5,5.9,254.5,5.8z"/>
	<path d="M289.1,4.4c1.4-0.6,3.4-0.5,5.4-0.4C292.9,4.4,291,4.3,289.1,4.4z"/>
	<path d="M453.2,12.9c0.4-0.3,0.8-0.7,1.7-0.8c0.9-0.1,1.1-0.6,2.2-0.5c-0.1,0.3-0.2,0.5-0.3,0.8c1.9,0.5,3.5,0,5.5-0.1
		c-0.3-0.9,1.9-0.8,3.6-0.8c0.7,0,0.7,0.1,1.1,0.3c-1.1,0.4-2.6,0-3.7,0.4c2.1,0.5,4.3,0.1,6.6,0.1c-0.9,0.4-2.5,0.2-3.5,0.6
		c-1.1-0.6-2.4,0.6-3.2-0.2c-3,0.1-5.6-0.1-8.3,0.5C455.1,12.9,453.9,12.8,453.2,12.9z"/>
	<path class="st0" d="M250.5,5.9c0.7,0,1.4-0.1,2.2-0.1c0,0.1,0.1,0.1,0.1,0.2C251.9,6.1,251.3,6,250.5,5.9z"/>
	<g>
		<path d="M322.1,3.4c-0.5,0-1,0-1.5,0c0,0,0-0.1,0-0.1C321.1,3.3,321.6,3.3,322.1,3.4C322.1,3.4,322.1,3.4,322.1,3.4L322.1,3.4z"/>
		<path d="M321.3,3.4"/>
	</g>
	<path d="M315.7,3.4c1,0,2.1,0,3.1,0.1C317.8,3.5,316.7,3.5,315.7,3.4C315.7,3.4,315.7,3.4,315.7,3.4z"/>
	<path class="st0" d="M211.9,7c-0.3-0.1-0.6-0.2-0.9-0.4c6-0.2,12-0.4,18-0.5c0,0.2-0.1,0.4-0.1,0.6C223.3,6.8,217.6,7.1,211.9,7z"
		/>
	<path d="M481,14.6c0.2,0,0.5-0.1,0.7-0.1C481.5,14.6,481.2,14.6,481,14.6z"/>
	<path d="M362.8,3.9c0.4,0,0.5-0.3,1-0.2C364.3,3.8,363.2,4,362.8,3.9z"/>
	<path d="M358,3.7c-0.4,0-0.9,0-1.3-0.1C357.1,3.6,357.6,3.6,358,3.7z"/>
	<path d="M215.1,6.7c-0.4,0-0.9,0-1.3,0.1C214.2,6.8,214.6,6.8,215.1,6.7z"/>
	<path d="M429,9.9c0.5-0.1,1-0.1,1.6-0.1C430.6,10.2,429.6,10.2,429,9.9z"/>
	<path d="M386.4,5c2.8-0.3,5.4-0.3,8.2-0.1C391.9,5.2,389.2,5,386.4,5z"/>
	<path d="M324.7,2c0.7-0.2,0.9,0.1,1.5,0.1C325.8,2.3,325.1,2.1,324.7,2z"/>
	<path class="st0" d="M204.1,6.8c1.7-0.3,3.6-0.2,5.5-0.2C207.8,6.6,206,6.7,204.1,6.8z"/>
	<path d="M273.2,3.4c0.5,0,1,0,1.5-0.1C274.3,3.5,273.7,3.6,273.2,3.4z"/>
	<path d="M266.4,3.6c1.6-0.3,3.7-0.2,5.5-0.2C270.1,3.6,268.3,3.7,266.4,3.6z"/>
	<path d="M449.6,11.1c2.8-0.1,5.4,0.2,6.7-0.9c-1.3-0.1,0.6-0.3,0.1-0.5c-1.5-0.6-3.7-0.2-5.3-0.7c-0.4,0.4-1.6,0.4-2.7,0.4
		c-0.3,0-0.4-0.4-0.2-0.5c3.2,0.1,6.4,0,9.6-0.1c2.3-0.1,4.6,0.1,6.9,0.1c0.1,0,0.3,0,0.2,0c-0.4,0.4-1.9,0.5-2,1.1
		c0,0.1-2.2,0.2-2.4,0c0.5,0,0.9-0.1,1.4-0.2c-1.1-0.2-1.1-0.8-2.6-0.5c-0.7,0.1-1.8,0.4-2.5,0.6c0.3,0.2,0.9,0.2,1.2,0.3
		c0.8,0-1.1,0-0.9,0.2c0.3,0.2,1.8,0.2,0.9,0.6c0.9,0.1,2.1,0.1,2.8-0.1c0.3-0.1-0.5-0.4,0.4-0.4c0.5,0.9,2.1,0.2,3.8,0.5
		c1.8-0.1,3.7,0,5.5-0.1C463.5,11.1,456.7,11.4,449.6,11.1z"/>
	<path d="M330.3,1.7c0.5,0,1,0,1.5,0C331.4,1.8,330.8,1.9,330.3,1.7z"/>
	<path d="M311.3,1.3c-0.1,0-0.2,0.1-0.2,0.1c-0.8,0-1.6,0-2.5,0C309.5,1.4,310.4,1.3,311.3,1.3z"/>
	<path d="M450.9,10.5c0.7-0.2,0.9-0.5,1.5-0.7c0.3,0.2,0.5,0.3,0.8,0.5C452.4,10.4,451.8,10.5,450.9,10.5z"/>
	<path class="st0" d="M222.3,4.2c0.4,0,0.6-0.1,1.1,0c0.5,0.1-0.4,0.4-0.9,0.3C222.4,4.5,222.4,4.4,222.3,4.2z"/>
	<path class="st0" d="M203.5,4.7c0.9-0.1,1.9,0,2.7-0.2c-3.8-0.6-8-0.2-12-0.5C192.1,4,190,4,188,4c1.8-0.2,3.5-0.2,5.4-0.2
		c-0.2-0.1-0.3-0.2-0.5-0.3c2.9-0.1,5.9,0,8.8-0.1c0.1,0.1,0.1,0.2,0.2,0.3c2.3,0.1,4-0.5,6.1,0c3,0,5.6-0.8,8.5-0.2
		c-2.4,0.3-1.7,1.3-4.7,1.4C209.6,4.9,205.9,4.7,203.5,4.7z"/>
	<path d="M405.7,2.2c-0.1,0.1-0.2,0.2-0.4,0.3c-0.2,0-0.4,0-0.6,0C405,2.4,405.4,2.3,405.7,2.2z"/>
	<path d="M328.7,0c-0.1,0.1-0.2,0.1-0.4,0.2c-0.3,0-0.6,0-0.9,0C327.9,0.1,328.3,0.1,328.7,0z"/>
	<path class="st0" d="M201.1,4.8C201.2,4.8,201.2,4.8,201.1,4.8c-0.8,0.1-1.7,0.1-2.5,0.1C199.5,4.9,200.3,4.8,201.1,4.8z"/>
	<path class="st0" d="M225,3.4c0.7-0.2,1.7,0,2-0.4c-0.3-0.1-0.7-0.1-1-0.2c0.6,0,1.2-0.1,1.8-0.1C227.5,3.3,226.7,3.7,225,3.4z"/>
	<path class="st0" d="M218.7,3.3c0.9-0.1,1.7-0.2,2.6-0.3c0.1,0.1,0.1,0.2,0.2,0.4C220.5,3.3,219.6,3.5,218.7,3.3z"/>
	<path d="M465.1,9.8c0.5,0,1,0,1.5,0C466.1,10,465.6,9.8,465.1,9.8z"/>
	<path d="M435.1,7.3c0.9-0.1,1.9-0.2,2.9-0.1C437,7.4,436.1,7.4,435.1,7.3z"/>
	<path d="M466.3,9.1c0.2,0,0.8-0.1,0.9-0.1C467.8,9.1,466.7,9.5,466.3,9.1z"/>
	<path d="M450.1,7.2c-0.8,0-2.1,0.1-2.8,0.1c-0.6,0-0.5-0.1-0.9-0.1C447.7,7.2,448.9,7.2,450.1,7.2z"/>
	<path d="M432.8,6c0.5-0.2,1.3-0.1,1.9-0.2c0.1,0.1,0.2,0.1,0.3,0.2C434.2,6.1,433.5,5.9,432.8,6z"/>
	<path d="M247,0.8c-0.4,0-0.9,0-1.3,0.1C246.2,0.8,246.6,0.8,247,0.8z"/>
	<path d="M452.6,7.1c4,0.2,8,0,12,0.1C460.6,7.5,456.6,7.2,452.6,7.1z"/>
	<path d="M449.4,6.4c0.6-0.1,0.7-0.4,1.5-0.3c-0.2,0.2-0.4,0.3-0.6,0.5C450,6.6,449.7,6.5,449.4,6.4z"/>
	<path d="M455.6,6.4c0.4,0,0.7,0.1,0.9,0.2c-0.4,0-0.9,0.1-1.3,0.1C455.2,6.5,455.2,6.4,455.6,6.4z"/>
	<path class="st0" d="M1.8,7.1c0.5,0,1,0,1.5,0c-0.4,0-0.8,0.1-1.2,0.1C2,7.2,1.9,7.1,1.8,7.1z"/>
	<path class="st0" d="M6,4.4c0.5,0,0.9,0.1,1.4,0.1c-0.2,0-0.4,0.1-0.6,0C6.5,4.5,6.2,4.4,6,4.4z"/>
</g>
</svg>
