<?xml version="1.0" encoding="utf-8"?>
<!-- Generator: Adobe Illustrator 22.0.0, SVG Export Plug-In . SVG Version: 6.00 Build 0)  -->
<svg version="1.1" id="Layer_1" xmlns="http://www.w3.org/2000/svg" xmlns:xlink="http://www.w3.org/1999/xlink" x="0px" y="0px"
	 viewBox="0 0 342.7 18.7" style="enable-background:new 0 0 342.7 18.7;" xml:space="preserve">
<style type="text/css">
	.st0{fill:#010101;}
</style>
<g>
	<path class="st0" d="M30.1,12.6c-0.6,0.4-1.2,0-2,0.1c0.4-0.2,0-0.3,0-0.6c-0.4,0-0.8,0-1.2,0c0.4,0,0.8,0,1.2,0
		c0.1,0,0.2-0.1,0.4-0.1c0.1,0,0.3,0.1,0.4,0.1c0.1,0,0.1,0,0.1,0c0,0-0.2,0-0.1,0c0.1,0,0.1,0.1,0.2,0.2c0.1,0,0.2,0,0.3,0
		c0.1,0,0.1,0.1,0.2,0.1c-0.2,0-0.3-0.1-0.5-0.1C29.3,12.6,29.4,12.7,30.1,12.6z"/>
	<path class="st0" d="M31.3,12.1c-0.4,0.1-0.7,0.1-1.2,0.1C30.3,11.9,30.9,12,31.3,12.1z"/>
	<path class="st0" d="M37.9,13.5c0.1,0,0,0.1,0,0.1c-0.4,0.2-1,0-1.5-0.1C36.9,13.6,37.6,13.4,37.9,13.5z"/>
	<path class="st0" d="M37.7,12.5c0,0.1,0,0.2-0.2,0.3c0.1-0.2-0.1-0.3-0.4-0.4c0.3-0.1,0.5-0.2,0.8-0.3c0.2,0.2,0.3,0.3,0.5,0.5
		C38.2,12.5,37.9,12.5,37.7,12.5z"/>
	<path class="st0" d="M54,13.4c-2,0.1-3.9,0.2-5.9,0.1c0-0.1,0-0.1,0-0.2c-0.7,0.3-1.4-0.2-2.2,0.2c-1.3,0-2.5,0-3.8,0
		c1.3-0.2,2.5,0,3.4-0.5c0.4,0.4,1-0.2,1.6-0.1c0.8,0.1,1.6,0.2,2.4,0.1c1.4-0.1,2.7-0.3,4.1-0.3C54,12.9,54.1,13.2,54,13.4z"/>
	<path class="st0" d="M111.4,17.5c-1.1,0.1-2.2,0.1-3.3,0.2c-0.3-0.2-0.6-0.4-0.9-0.6c-1.3,0.4-2.7,0.8-4,1.2
		c-0.5-0.3-1.1-0.5-1.6-0.8c1.2-0.2,2.3-0.3,3.6-0.5c-1.1-0.1-0.9-0.1-2.3-0.2c-1.4-0.1-4.4-0.3-6.1-0.4c-0.4,0.1-0.9,0.3-0.7,0.6
		c0.7-0.1,1.4-0.2,2.2-0.3c0.8,0.2,1.7,0.4,2.5,0.6c0.1,0,0.2,0,0.2-0.1c-0.1,0.1-0.2,0.3-0.3,0.4c-0.2,0-0.3,0-0.5,0
		c0.1-0.1,0.1-0.2,0.2-0.4c-0.9,0.2-1.9,0.5-1.7,1c-1.5-0.3-3-0.5-4.4-0.8c-0.3,0-0.6,0.1-0.9,0.1c0.8,0.1,1.5,0.3,2.3,0.4
		c-1.1-0.1-2.2-0.1-3.3-0.2c0.2-0.2,0.4-0.4,0.6-0.5c-1.9-0.4-1.6,1-4.1-0.1c-0.8,0-1.5-0.1-2.3-0.1c1.3-0.2-1.3,0.1-1.6,0.1
		c0.4,0.2,0.8,0.3,1.3,0.4c-0.5,0-2.6-0.1-1.3-0.4c-0.2-0.1-0.5-0.2-0.7-0.3c-0.7,0-1.4,0.1-2.2,0.1c-0.1,0.1-0.2,0.2-0.3,0.4
		c-0.4,0-0.7,0-1.1,0c0-0.1,0-0.2-0.1-0.3c-0.2,0-0.4,0.1-0.5,0.1c-0.8-0.3-1.6-0.5-2.4-0.8c0.5,0,1.1,0.1,1.6,0.1
		c-0.2,0-0.3-0.1-0.5-0.1c0.5-0.1,0.9-0.2,1.4-0.3c-0.2-0.1-0.1-0.1,0.1-0.1c0.2,0,0.1,0,0.3,0c0.2,0,0.5,0,0.8,0
		c0,0-0.1,0.1-0.1,0.1c0.2,0,0.5,0.1,0.7,0.1c0.2,0,0.4,0,0.6,0c0.4-0.4,1-0.6,1.8-0.8c-0.7,0-1.3-0.1-2-0.1
		c0.2,0.1,0.2,0.3,0.5,0.3c-0.4,0-0.8,0-1.2,0.1c0.7-0.1-0.1-0.3,0.3-0.4c-0.5,0-1.1-0.1-1.6-0.1c0.1-0.1,0.1-0.2,0.2-0.3
		c1.1,0.1,2.3,0.2,3.4,0.3c0-0.1,0-0.2-0.1-0.4c0.5,0.1,0.9-0.1,0.8,0.2c0,0.1-0.3,0.1-0.4,0.2c0.2,0,0.6,0.1,0.8,0.1
		c0.6,0,1,0,1.5,0.1c0.1,0,0.2,0,0.3,0c0.1,0,0,0,0,0.1c1,0.1,1.9,0.2,2.9,0.3c-0.9-0.1-1.8-0.1-2.6-0.2c0.4,0.2,0.5,0.4,0.6,0.7
		c0.1,0,0.4,0.1,0.5,0c0.1,0,0.2-0.1,0.2-0.2s-0.3-0.1-0.4-0.1c1.3-0.1,2.7-0.2,4-0.3c0.1-0.1,0.3-0.2,0.4-0.3
		c-0.8-0.1-1.6-0.2-2.4-0.2c1.1-0.2,1-1.1,2.4-0.8c0.6-0.2,1.2-0.4,1.8-0.6c0.2,0.3,1.4,0.1,2,0.3c-0.2,0-0.4,0.1-0.7,0.1
		c0.6,0.1,1.2,0.1,1.8,0.2c0.7-0.2,1.5-0.4,2.2-0.6c-0.4,0-0.7,0-1.1-0.1c0.3-0.1-0.6-0.5-0.5-0.5s-0.3,0-0.3,0c0,0,0.2,0,0.3,0
		c0.5,0,1.4,0,2,0c-0.7,0.6,0.5,1.3,1.8,1.3c-2.2,0.4-4.3,0.7-6.6,0.5c-0.3,0.2-0.5,0.5-0.8,0.7c0.9,0.1,1.7,0.2,2.6,0.3
		c0.1-0.1,0.1-0.2,0.2-0.3c0.3,0.1,0.6,0.2,1,0.4c1.7-0.3,3.5-0.5,5.2-0.8c0.2-0.2,0.4-0.3,0.8-0.1c0.8-0.1,1.5-0.2,2.3-0.4
		c0.8-0.1,1.5-0.3,2.3-0.4c0,0-0.1-0.1-0.1-0.1c0.1,0,0.1,0.1,0.2,0.1c1.1-0.2,2.2-0.4,3.3-0.6c-1.6-0.5-3.2-1-4.8-1.5
		c-1.5,0-3,0.2-4.4,0c1.5-0.1,3-0.2,4.5,0c0.1,0,0.1-0.1,0.1-0.1c0.4,0,0.9,0,1.3-0.1c0.2,0,0.4-0.1,0.6-0.1c-2.9-0.2-5.9,0-8.9-0.2
		c-0.2,0.3-0.4,0.5-0.6,0.8c-0.7-0.1-1.5-0.2-2.2-0.3c0.3-0.1,0.6-0.2,0.9-0.3c-0.4-0.1-0.9-0.2-1.3-0.3c0.7-0.2,2.5-0.6,2.2-1.1
		c2.1-0.3,4.1-0.4,6.2-0.1c0-0.2-0.1-0.5-0.1-0.7c-0.4,0-0.9,0-1.3,0c0.6-0.1,1.3-0.2,1.9-0.3c-0.8,0-1.6-0.1-2.4-0.1
		c2.4-0.2,4.8-0.2,7.3-0.2c-0.8-0.2-1.6-0.3-2.5-0.4c0.4,0,0.7-0.1,1.1-0.1c-1.7-0.1-3.4-0.2-5-0.3c-1.9,1-4.7,0.8-7.2,0.5
		c0.7-0.1,1.4-0.2,2.1-0.3c-1.1-0.1-2.3-0.1-3.4-0.2c3.1-0.2,6.2,0,9.3-0.2c-0.1,0-0.2,0-0.3,0c0.7-0.1,1.4-0.2,2.1-0.2
		c0,0,0.1,0,0.2,0c1,0.1,1.9,0.3,2.8,0.4c0.1-0.1,0.2-0.1,0.4-0.2c0.8,0.1,1.7,0.2,2.5,0.2c0.1-0.3,0.1-0.6,0.2-0.9
		c-0.6-0.1-2-0.3-2-0.7c-0.1,0-0.2,0-0.3,0c-0.3,0.1-0.5,0.2-0.8,0.4c-0.2,0-0.4,0-0.7,0.1c0.4,0,0.7,0,1,0.1c-0.9,0-1.7,0-2.7,0.1
		c-1,0.1-2.1,0.2-3.1,0.3c-0.6-0.2-1.3-0.4-1.9-0.6c0,0,0.1,0,0.2,0c-0.5,0-1,0-1.5,0c0.3,0.2,0.6,0.4,1.1,0.5c-1.5,0.1-2.8,0-4-0.4
		c0.5,0,1-0.1,1.4-0.2c-0.6,0-1.1,0-1.7,0c0.7-0.2,1.6-0.2,2.3-0.2c0.1,0,0-0.2-0.1-0.2c-0.3,0-0.9,0-0.5,0.2c-1,0-2-0.1-3-0.1
		c0,0,0,0.1,0,0.1c-2.1-0.2-4.3-0.3-6.4-0.4c-0.3,0-0.4,0-0.7,0c-1-0.1-2.2-0.1-3.2-0.2C88.6,6.5,92,6.8,93.5,7c1.5,0.1,1,0,2.1,0.1
		c-0.1,0-0.1,0.1-0.1,0.1c0.1,0,0.3,0,0.4,0c-0.1,0-0.3,0-0.4,0c-1.3,0.7-3,0.6-4.7,0.4c0.5-0.1,1-0.1,1.4-0.2
		c-0.3-0.1-0.7-0.2-0.8-0.4c-1-0.1-0.5,0.1-1.9-0.1c-1.4-0.2-4.9-0.9-6.6-1.2c-1,0.2-0.5,0-1.8,0.3c-1.3,0.3-4.3,1-5.9,1.3
		c0.2,0.1,0.4,0.2,0.7,0.2c-0.3,0.1-0.5,0.2-0.8,0.3c0.1,0.1,0.2,0.1,0.3,0.2c-0.3,0-0.4,0.2-0.8,0.2c-0.4,0,0.2-0.5-0.5-0.5
		c0.3-0.1,0.6-0.3,0.9-0.4c-0.2,0-0.4,0-0.7,0c0,0.1,0.1,0.1,0.1,0.2c-0.2-0.1-0.4-0.1-0.7-0.2c0.2,0,0.3,0,0.5,0
		c-0.2-0.3-0.4-0.5-0.6-0.8c-1.7,0.3-3.3,0.5-5,0.8c0.8,0.1,1.5,0.3,2.3,0.3c0.8,0.1,1.6-0.1,2.4,0c0,0,0,0.1,0,0.1
		c-0.5,0-1-0.1-1.6,0c0.2,0,0.5,0.1,0.7,0.1c-0.2,0-0.7-0.1-0.9,0c-0.2,0-0.1,0.1-0.3,0.1c-0.2,0-0.1-0.1-0.2-0.1
		c-1.3-0.1-2.6-0.1-3.9-0.2c-1.1-0.9-1.4-0.1-3-0.2c-0.3,0,0.6-1.2,0.8-1.4c-0.3,0-0.5,0-0.7,0c-2.3,0.5-4.7,1.1-7,1.6
		c-0.1-0.2-0.3-0.3-0.4-0.5c-4.8,0.1-9.7,0.2-14.4,0.6c0.3,0.1,0.7,0.2,1,0.3c0.1,0,0.3,0,0.3,0c0-0.1,0-0.1,0.1-0.2
		c0.9,0.1,1.8,0.1,2.7,0.2c-0.9,0-1.8,0-2.8,0c0,0,0,0.1,0,0.1c-0.1,0-0.2-0.1-0.3-0.1c-3,0-7-0.1-9.7,0.1c-2.1,0.1-2.3,0.2-3.2,0.9
		C30.2,9.3,30,9,30,9c-1.1,0-2.3,0-3.4-0.1c-0.1,0.1-0.2,0.2-0.2,0.3c-2.6,0.2-5.1,0.4-7.6,0.7c0,0.1,0,0.1,0,0.2
		C7.3,10.6-0.6,13,0.1,12c-0.3,0,0.6-0.2,1.3-0.3c0.2,0,1.7-0.4,2.1-0.4c0.1,0,0,0.1,0,0.1c1.2-0.2,2.4-0.3,3.5-0.5
		c2.4-0.4,4.8-0.7,7.3-1c-0.3,0.1-0.6,0.2-0.9,0.2c2.6-0.3,5.5-0.7,8.1-0.9c14.2-1.5,28.2-2.5,42.7-3.1c0.1,0,0.5-0.1,0.6-0.1
		c0.1,0,0.2,0.1,0.1,0.1c1.4-0.1,7.4-0.2,8.5-0.3C115.2,4.6,304-3.2,332.5,1.5c12.9,2.1,6.5,5.4,7.1,8.4c0.6,3.2,8.5,8.3-3.6,8
		c-68.4-1.5-139.4,2.1-210.7,0.2c-1.8-0.1-3.7-0.3-4.9-0.9c-1,0.1-0.9,0.3-2.5,0.4c-0.1,0-6-0.2-6.9-0.3
		C110.9,17.4,111.3,17.5,111.4,17.5z"/>
	<path class="st0" d="M97.1,7.5c0.1-0.1,0.2-0.1,0.2-0.2c0.2,0,0.3,0,0.5,0C97.5,7.4,97.3,7.4,97.1,7.5z"/>
	<path class="st0" d="M89.4,7.8c0,0.1-0.1,0.2-0.3,0.3c0.1-0.2-0.1-0.3-0.3-0.4c0.3-0.1,0.5-0.2,0.8-0.3c0.1,0.2,0.3,0.3,0.4,0.5
		C89.8,7.8,89.6,7.8,89.4,7.8z"/>
	<path class="st0" d="M84.1,8.4c-0.2,0-0.2,0.1-0.2,0.2c0.5,0.1,3.7,0.3,2.8,0.5c1.1,0.4-4.6-0.5-3.5-0.6c0,0-0.2-0.1-0.1-0.1
		c0.1,0,0.4,0.2,0.4,0.2c0,0,0.1-0.1,0.1-0.1c0,0-0.2,0-0.1,0c0.1,0,0.1,0,0.2,0c0.2,0,0.5-0.1,0.8-0.1c3.3-0.2,6.6-0.3,10-0.1
		c0.1,0.3,0.1,0.5,0.2,0.8c-1.9-0.1-3.8-0.1-5.7-0.2c0-0.1,0-0.1,0-0.2c-0.7,0-0.6,0.1-1.5,0C86.8,8.6,85.1,8.4,84.1,8.4z"/>
	<path class="st0" d="M84.5,7.8c0,0.1-0.6,0.1-0.6,0.1c0,0-0.3,0-0.3,0c0,0,0.3,0,0.3,0C83.8,7.9,84.4,7.7,84.5,7.8z"/>
	<path class="st0" d="M83.8,8c0,0.1-0.8,0.1-0.8,0.1S83,8.3,83,8.3c0,0-0.1-0.1-0.1-0.1c0,0,0.2-0.1,0.2-0.1S83.1,8,83.2,8
		C83.4,8,83.7,8,83.8,8z"/>
	<path class="st0" d="M94.9,9.3c0.2,0,0.3-0.1,0.5-0.1c0,0,0.1,0.1,0.1,0.1C95.3,9.4,95.1,9.4,94.9,9.3z"/>
	<path class="st0" d="M82.5,9c0.1,0,0,0.1,0,0.1c0,0,2,0.4,0.7,0.3c-0.5,0-1.1-0.1-1.6-0.1c0.3-0.1,0.7,0,0.9-0.1
		C82.5,9.1,81.6,8.9,82.5,9z"/>
	<path class="st0" d="M86.2,9.2c-0.2,0.1-0.7,0-1,0C85.6,9.2,85.9,9.2,86.2,9.2z"/>
	<path class="st0" d="M68.8,8.4c-0.2-0.1-0.5-0.2-0.7-0.2c0.2,0,0.5,0,0.7,0.1C68.8,8.3,68.8,8.3,68.8,8.4z"/>
	<path class="st0" d="M98.7,10.5c-0.4,0.3-0.7,0.5-1.4,0.5C97.4,10.6,97.9,10.1,98.7,10.5z"/>
	<path class="st0" d="M90.5,10.3c-0.6,0-1.1-0.1-1.7-0.1C89.5,10,90.6,9.7,90.5,10.3z"/>
	<path class="st0" d="M96.2,12.2c-0.5,0.1-0.7,0.1-1.3,0.1s-1.6,0.1-2.1,0.1c-1,0.5,1.2,0.4,1.1,0.5c0,0,0.7-0.2,0.6-0.2
		c0.1,0-0.6,0.2-0.6,0.2c-0.1,0.1-2.2,0.6-2.4,0.8c1,0.2-0.5,0.7-1.1,0.4c0.4-0.1,0.7-0.3,1.1-0.4c-0.5-0.1-0.9-0.3-1.3-0.5
		c-0.2,0-0.3,0-0.5,0c0.3-0.1,0.6-0.2,0.9-0.3c-0.3-0.1-0.6-0.1-0.8-0.2c0.9-0.1,1.9-0.2,2.7-0.3c-1.2-0.1-3.4-0.4-4.3-0.5
		c-0.9-0.1-0.4,0-1-0.1c0.3-0.1,0.6-0.1,0.9-0.2c-0.3-0.1-1.2,0-1.3-0.2c-0.4-0.5,1.8-0.9,2.2-1s-0.2,0.1,0,0c1.3-0.1,2.6-0.2,4-0.4
		c0,0.2,0,0.3-0.1,0.5c1.1,0,2.2,0.1,3.3,0.1c-0.8,0-1.6-0.1-2.4-0.1c0,0-0.1-0.1-0.1-0.1c7.5-1-0.8,1.1,1.3,1.8
		C95.2,12.3,95.9,12.1,96.2,12.2z"/>
	<path class="st0" d="M80.2,12.3c-0.1,0-0.2,0.1-0.2,0.1c0.5,0.1,1,0.2,1.5,0.3c0.5-0.2,1.1,0,1.6,0c-0.2,0.1-0.4,0.2-0.6,0.2
		c0.3,0.1,0.7,0.1,1,0.2c-0.7-0.1-1.5-0.1-2.2-0.2c-0.7,0.1-1.4,0.1-2.1,0c0.1-0.1,0.3-0.1,0.5-0.1c-0.4,0-1-0.1-1.3-0.1
		s-0.3,0-0.6,0c-0.3-0.6-1.1-0.4-2.1-0.6c1.8,0.1,3.1-0.5,5-0.3c0.1,0.1,0.1,0.1,0.1,0.2c0,0,0.2,0,0.2,0c-0.1,0-0.1,0.1-0.2,0.1
		c0.6,0,1.1,0,1.7,0c-0.1,0-0.2,0-0.3-0.1c-0.1,0-0.4,0-0.5,0c0.3-0.3,0.7-0.6,1-1c0,0,0-0.1-0.1-0.1c-0.5-0.1-1-0.2-1.5-0.3
		c0,0.1,0,0.2-0.1,0.3c0.2,0,0.3,0,0.5,0s0.8,0.1,0.9,0.1c0.1,0,0,0-0.2,0c-0.1,0-0.6,0-0.8,0s-0.6,0-0.8,0c0,0.1,0,0.1,0,0.2
		c-0.9,0-1.7,0-2.6-0.1c0.4-0.1,0.8-0.2,1.3-0.3c-0.3-0.1-0.7-0.2-1-0.2c0.7-0.2,1-0.6,1.5-0.1c0.1,0.1-0.1,0.2,0,0.3
		c0.1,0,0.4,0,0.6,0.1c0.2,0,0.4,0,0.6,0c0-0.1-0.1-0.2-0.1-0.4c0.1,0,0.2,0,0.2,0c0,0,0,0,0,0.1c0.4-0.1,0.7-0.2,1.1-0.4
		c-0.2-0.1-0.5-0.1-0.7-0.2c0.2,0,0.4,0,0.6,0.1c0.6-0.1,1.2-0.1,1.8-0.2c0,0.1,0,0.3-0.1,0.4c0.6,0,1.2-0.1,1.8-0.1
		c-0.4,0-0.7-0.1-1.1-0.1c0.1-0.1,0.1-0.2,0.2-0.2c0.4,0,0.5,0.3,0.8,0.3s-0.1,0,0.3,0c0.4,0,1.3-0.1,1.8-0.1c0.4,0.4-0.4,0.7-1,1
		c0.1-0.1,0.2-0.1,0.3-0.2c0.2-0.1,0.4-0.2,0.6-0.3c-0.9,0-1.7,0-2.6,0c0.2,0.4,0.4,0.8,0.5,1.1c-0.6,0-1.2,0.1-1.8,0.2
		c0.7,0,1.4,0,2.1,0c-0.1,0.1-0.1,0.2-0.2,0.3c-0.8,0-1.5,0.1-2.4,0.1c-0.9,0.1-1.9,0.1-2.8,0.1C80.4,12.4,80.2,12.3,80.2,12.3z"/>
	<path class="st0" d="M64.1,7.6c-0.2,0.5-0.9,0.6-2,0.6C62.9,8.1,63.2,7.7,64.1,7.6z"/>
	<path class="st0" d="M78.1,10.1c0.3,0,0.7-0.1,1-0.1c0,0.1,0,0.1,0,0.2C78.8,10.1,78.5,10.1,78.1,10.1z"/>
	<path class="st0" d="M42.7,9.7c0.1,0,0.6-0.2,0.6-0.2s0.4-0.2,0.5-0.1c0,0-0.5,0.1-0.5,0.1s-0.1,0.1,0.1,0.1
		C43.2,9.7,42.9,9.7,42.7,9.7z"/>
	<path class="st0" d="M23.2,12.2c0.2-0.1,0.5-0.2,0.9-0.1C23.8,12.1,23.5,12.1,23.2,12.2z"/>
	<path class="st0" d="M60.6,8.3c-0.7,0-1.2,0.1-1.9,0C59.3,7.9,59.9,8.2,60.6,8.3z"/>
	<path class="st0" d="M103.4,12.4c-0.7,0.1-1.5,0-2.2,0C101.9,12,102.5,12.4,103.4,12.4z"/>
	<path class="st0" d="M104.5,12.6c-0.3,0-0.6,0-0.8-0.1c0.4,0,0.8-0.1,1.2-0.1C104.9,12.5,104.8,12.6,104.5,12.6z"/>
	<path class="st0" d="M80.8,11.4c0,0-0.3,0.1-0.3,0.2c0-0.1,0-0.2,0-0.3C80.5,11.4,80.8,11.4,80.8,11.4z"/>
	<path class="st0" d="M104.7,12.9c-0.1,0.3-0.8,0.3-1,0.6c-0.3-0.1-0.7-0.2-1-0.3C103.3,13,104,13,104.7,12.9z"/>
	<path class="st0" d="M108.7,13.4c0.2,0.1,0.3,0.1,0.5,0.2c-1,0.2-2.7-0.2-3.1,0.4c0.3-0.6,1.9-0.5,2.9-0.8c0.2,0,0.3,0,0.5,0
		C109.2,13.2,109,13.3,108.7,13.4z"/>
	<path class="st0" d="M90,12.3c-0.6,0.1-1,0.3-1.6,0.1C89,12.3,89.5,12.2,90,12.3z"/>
	<path class="st0" d="M101.7,13.1c-0.7,0.2-0.2,0.8-1.3,0.7c-0.1-0.2-0.2-0.3-0.3-0.5C100.6,13.1,101.1,13,101.7,13.1z"/>
	<path class="st0" d="M76.4,10.3c0,0.1,0,0.1,0,0.2c-0.7,0.1-1.2-0.1-1.6,0.3c-0.5-0.1-1.1-0.1-1.7-0.1c0.1,0-0.2,0.3-0.2,0.3
		c0.2-0.1-0.3-0.2-0.5-0.1c0,0-0.3,0.1-0.4,0c-0.1,0-0.1,0.1-0.2,0c-0.1-0.1,0.6,0,0.6,0c0,0,0.6-0.1,0.6-0.1c0,0-0.5,0-0.5,0
		c0,0,0.3-0.1,0.5-0.1c0.6,0,1.3,0,1.2-0.4C75,10.3,75.6,10.4,76.4,10.3z"/>
	<path class="st0" d="M73.8,10.3c0,0-0.5,0.1-0.5,0.1C73.3,10.3,73.7,10.2,73.8,10.3z"/>
	<path class="st0" d="M69.4,11.3c0.5,0,1-0.1,1.5-0.1C70.4,11.2,69.9,11.2,69.4,11.3z"/>
	<path class="st0" d="M96.2,13.3c-0.1-0.1-0.2-0.1-0.3-0.1s-0.2,0.1-0.2,0.1c0-0.1,0.4-0.3,0.5-0.2C96.3,13.2,96.2,13.2,96.2,13.3z"
		/>
	<path class="st0" d="M57.6,9.3c-0.3,0.1-0.5,0.2-0.9,0.1C57,9.3,57.2,9.2,57.6,9.3z"/>
	<path class="st0" d="M86.9,12.5c0.1-0.1,0.6-0.1,0.7,0c0.1,0,0,0,0,0.1c0,0,0,0.1,0,0.2c-0.2,0-0.5,0-0.7,0
		C86.7,12.7,86.8,12.6,86.9,12.5C86.9,12.5,86.9,12.5,86.9,12.5z"/>
	<path class="st0" d="M72.4,11.7c0,0-0.2,0-0.2,0c0,0-0.1,0.1-0.2,0.1c-0.1,0,0.2-0.1,0.2-0.1C72.2,11.8,72.4,11.7,72.4,11.7z"/>
	<path class="st0" d="M44.6,8.9c-0.2,0-0.4-0.1-0.6-0.1C44,8.9,44,9,43.9,9.1c-0.1,0.1-0.3,0.1-0.5,0c0.1-0.1,0.3-0.2,0.4-0.3
		c-0.2,0-0.3,0-0.5-0.1c3.3-0.3,6.4,0.3,9.6,0c0.4,0.1,2.7,0.6,2.3,0.6c-0.1,0-0.7-0.1-0.8,0c-0.1,0.1-0.1,0.1-0.2,0.1
		c-0.1,0-0.4,0-0.5,0c0.1,0,0.3-0.1,0.4-0.1c0-0.1,0-0.1,0-0.2c-1.4-0.1-2.7-0.1-4.1-0.1c-0.2,0.1-0.4,0.1-0.7,0.2
		c-0.1,0-0.2-0.1-0.2-0.1c0,0,0.1-0.1,0.1-0.1c-1.7,0.1-3.4,0.1-5.1,0C44.4,9.1,44.5,9,44.6,8.9z"/>
	<path class="st0" d="M107.3,14.2c-0.9,0.2-1.8,0.5-2.7,0.7c-0.8,0-1.6-0.1-2.4-0.1c1.1-0.3,2.2-0.6,3.3-0.9
		C106,14,106.7,14.1,107.3,14.2z"/>
	<path class="st0" d="M88.9,13c0.1,0-0.4,0-0.2,0c0.1,0.2,0.5,0.2,0.9,0.2c0,0.1,0,0.1,0,0.2c-1,0.2-1.2-0.1-1.9-0.3
		c0.3,0,0.8,0,1.1,0C88.7,13.1,88.8,13,88.9,13z"/>
	<path class="st0" d="M87.2,13.1c0,0-0.3,0.1-0.4,0.1c-0.1,0-0.2,0-0.2-0.1C86.6,13.1,87.1,13.1,87.2,13.1z"/>
	<path class="st0" d="M95.8,13.7c-0.3,0-0.6,0-0.8-0.1C95.1,13.4,95.6,13.5,95.8,13.7z"/>
	<path class="st0" d="M72.1,11.3c0,0,0.3,0,0.3,0c0,0,0.4,0,0.4,0c0,0-0.4,0-0.4,0C72.5,11.3,72.1,11.3,72.1,11.3c0.2,0,0.5,0,0.7,0
		C72.6,11.4,72.1,11.5,72.1,11.3C71.9,11.3,72.1,11.3,72.1,11.3z"/>
	<path class="st0" d="M73,11.8c0,0.1-0.1,0-0.2,0c-0.1,0-0.3-0.1-0.4-0.1C72.6,11.8,73,11.8,73,11.8z"/>
	<path class="st0" d="M42.7,8.8c0.1,0.1,0,0.2-0.2,0.2c-0.2,0-0.3,0-0.4,0C42,8.9,42.6,8.7,42.7,8.8z"/>
	<path class="st0" d="M81.3,13.5c-0.9,0.2-1.3,0.5-1,1c-1.7,0.3-3.3-0.1-5,0.1c1.2-0.4,2.6,0.2,3.2-0.5c-1.5-0.5-3.2-0.3-4.9-0.5
		C76.2,13.5,78.7,13.2,81.3,13.5z"/>
	<path class="st0" d="M83.6,14.6c-0.8,0-0.6-0.2-0.5-0.5c0-0.1-0.1-0.2,0-0.2c0.1,0,0.1,0,0.2,0c1,0.1,1.9-0.2,2.8,0
		c-0.8,0.3-1.7,0.2-2.6,0.2C83.5,14.3,83.5,14.4,83.6,14.6z"/>
	<path class="st0" d="M89.8,14.2c-0.1,0.1-0.6,0.2-0.8,0c-0.2,0.1-0.1,0.2-0.1,0.4c-0.7,0-1.4-0.1-2.1-0.1c0.2,0,0.5-0.1,0.7-0.1
		c-0.3-0.3-1.2-0.1-1.1-0.5c1.2,0,2.2-0.4,3.5-0.3c0,0.2-0.3,0.4-0.6,0.5C89.5,14.1,89.9,14.1,89.8,14.2z"/>
	<path class="st0" d="M84,14.4c0.4-0.1,0.8,0,1.2,0C84.8,14.5,84.4,14.4,84,14.4z"/>
	<path class="st0" d="M87.7,14.9c0.2,0,0.5,0,0.7,0c0,0.1,0,0.2,0,0.3c-0.2,0-0.5,0-0.7,0C87.7,15.1,87.7,15,87.7,14.9z"/>
	<path class="st0" d="M30.7,10.4c0.4-0.1,0.8-0.2,1.1-0.3c0.1,0,0.3,0,0.4,0C31.7,10.3,31.2,10.3,30.7,10.4z"/>
	<path class="st0" d="M70.1,13c-0.1,0.2-1.6,0.4-1.1,0.5c-0.2-0.1-0.4-0.2-0.7-0.4C68.9,13.1,69.5,13,70.1,13z"/>
	<path class="st0" d="M72.8,13.6c-0.1-0.1-0.3-0.3-0.4-0.4c0.2,0,0.4,0.1,0.6,0.1C72.9,13.5,72.9,13.6,72.8,13.6z"/>
	<path class="st0" d="M72,14.3c0,0.1-0.1,0.2,0.1,0.3c-0.2,0-0.5,0-0.7,0c0-0.1,0-0.2,0.1-0.3C71.6,14.3,71.8,14.3,72,14.3z"/>
	<path class="st0" d="M37.5,10.9c0.1,0,0.3-0.1,0.4-0.1c0,0,0.1,0.1,0.1,0.1C37.8,10.9,37.7,10.9,37.5,10.9z"/>
	<path class="st0" d="M29.6,11.2c1.5-0.1,3-0.2,4.4-0.3C32.5,11.1,31.1,11.2,29.6,11.2z"/>
	<path class="st0" d="M69.1,14.6c-1,0.1-1.8,0.2-2.9,0.1C67.2,14.6,68.2,14.5,69.1,14.6z"/>
	<path class="st0" d="M79.5,15.6c-1.5,0.2-3.1,0.3-4.6,0.4c0.1,0,0.1,0.1,0.2,0.1c-0.2,0-0.5,0.1-0.7,0.1c0.4,0.2,0.7,0.5,1.1,0.7
		c-0.8,0-1.7,0-2.5-0.1c-0.3,0.2-0.6,0.1-0.8,0c0.3,0,0.6,0,0.8,0c0.3-0.3,0.2-0.7-0.7-0.7c1.7-0.3,3.5-0.6,5.2-1
		C78.2,15.4,78.9,15.5,79.5,15.6z"/>
	<path class="st0" d="M73.5,14.4c-0.2,0-0.5-0.1-0.7-0.1c0.2,0,0.3,0,0.5,0C73.4,14.3,73.4,14.4,73.5,14.4z"/>
	<path class="st0" d="M76.9,16.5c-0.3,0.1-0.8,0.1-1.2,0c0.3-0.1,0.6-0.3,0.9-0.4C76.8,16.2,77.2,16.4,76.9,16.5z"/>
	<path class="st0" d="M33.1,11.9c-0.3,0.1-0.6,0.1-0.9,0.1C32.4,11.8,32.7,11.9,33.1,11.9z"/>
	<path class="st0" d="M60.2,13.9c-0.2,0.1-0.4,0.3-0.6,0.4c-0.2,0.1-0.5-0.2-0.6-0.1c-0.1,0-0.2,0.3-0.2,0.3c-0.1,0,0.4,0.3,0.1,0.3
		c-0.3,0,0-0.2-0.1-0.3c-0.1,0-1.1-0.4-1.4-0.4c-0.4,0.2-0.7,0.4-1.1,0.6c0.1,0,0.4,0.1,0.3,0.2c-0.5-0.2-1-0.3-1.5-0.5
		C56.5,13.7,58.4,13.8,60.2,13.9z"/>
	<path class="st0" d="M43.7,12.8c-0.8,0.3-1.4,0.1-2.4,0.1c-0.1,0,0.1-0.3,0.1-0.3s-0.4,0.1-0.4,0c0,0,0.1,0,0.1,0c0,0,0.3,0,0.3,0
		s1.4-0.1,1.4-0.3C43.6,12.4,43.5,12.6,43.7,12.8z"/>
	<path class="st0" d="M87.8,17.4c-0.7,0-1.4,0.3-1.7-0.1C86.7,17.3,87.2,17.3,87.8,17.4z"/>
	<path class="st0" d="M78.9,17c-0.4,0-0.8-0.1-1.2-0.1c0.4-0.1,0.8,0.1,1.2-0.1C79,16.9,78.9,16.9,78.9,17z"/>
	<path class="st0" d="M68.5,16.3c0.4,0.1,0.7,0.1,1.1,0.2c-0.6,0.1-0.8,0.3-1,0.6c-0.8-0.2,0.4-0.3,0.1-0.6
		c-0.2,0.3-1.7,0.1-1.8-0.1c0,0-0.5,0.1-0.5,0s0.5,0,0.5,0c-0.1-0.1,1.5-0.4,1.7-0.3C68.6,16.2,68.5,16.3,68.5,16.3z"/>
	<path class="st0" d="M52.8,14c-1.4,0.3-1.6,1.1-3,1.4c0.9,0.2,1.9,0.3,2.8,0.5c-1.1,0.1-2.3,0.3-3.4,0.4c0.2-0.1-0.5,0.2-0.4,0
		c0.1,0,0.2,0,0.4,0c0.2-0.1,0.6-0.7,0.6-0.9c0-0.2,0.4-0.5,0.8-0.7c-0.8-0.1-1.6-0.1-2.4-0.2c-0.8,0.3-1.6,0.5-2.4,0.8
		c-0.7-0.2-1.3-0.5-2-0.7c0.9-0.2,1.8-0.3,2.7-0.5c0,0,0,0.1,0,0.1C48.6,14.2,50.7,14.1,52.8,14z"/>
	<path class="st0" d="M62.7,15c-0.8,0.2-1.4,0.4-2.2,0.1C61.3,14.9,62,15.1,62.7,15z"/>
	<path class="st0" d="M72.3,16.1c-0.8,0.3-1.4,0.1-2.3,0.1c0.1-0.5,0.8-0.3,1.5-0.5C72.2,15.6,72.1,15.9,72.3,16.1z"/>
	<path class="st0" d="M64.6,16c0.4-0.1,0.8-0.2,1.2-0.3c0,0.1,0,0.1,0,0.2C65.3,16,64.9,16,64.6,16z"/>
	<path class="st0" d="M67.1,17C67.1,17,67.1,17,67.1,17c0.2-0.1,0.4,0,0.6,0C67.5,17,67.3,17,67.1,17z"/>
	<path class="st0" d="M61.8,15.7c-0.2,0.4,0.4,0.6-0.5,0.8c-0.4-0.2-0.9-0.1-1.4-0.2C59.9,15.7,60.8,15.6,61.8,15.7z"/>
	<path class="st0" d="M63.1,16.2c0.2-0.1,0.4-0.2,0.6-0.3c-0.1,0.1-0.1,0.2-0.2,0.3C63.3,16.2,63.2,16.2,63.1,16.2z"/>
	<path class="st0" d="M52.2,15.3c0.1,0,0.1-0.1,0.2-0.1c0.2,0,0.3,0,0.5,0C52.6,15.2,52.4,15.2,52.2,15.3z"/>
	<path class="st0" d="M71.6,17.3c-0.6,0-0.4,0.5-0.5,0.5c0,0,0.2,0,0.2,0c0,0-0.2,0-0.2,0c-0.1,0-1.3-0.2-1.5-0.2
		c0.1,0,0.1,0,0.1,0.1c-0.3,0-0.5-0.1-0.8-0.1c0.2,0,0.4,0,0.6,0.1c-0.2-0.1-0.4-0.2-0.7-0.3C69.9,17.3,70.7,17.3,71.6,17.3z"/>
	<path class="st0" d="M24.8,13.7c-0.3,0.2-0.9,0.3-1.4,0.2C23.7,13.6,24.3,13.9,24.8,13.7z"/>
	<path class="st0" d="M38.9,14.5c-0.4,0.3-0.8,0.6-1.2,0.8c-0.7-0.2-1.5-0.4-2.2-0.6c-0.4,1.2-2.6,1-4.6,0.7
		c-0.3,0.1-0.5,0.3-0.8,0.4c-1.2-0.4-2.5-0.6-3.9-0.7c-0.4,0-1,0-1.4,0c0.6,0,0.8,0,1.4,0c1,0,2.3-0.1,3.4-0.1
		c0.6-0.1,1.2-0.2,1.8-0.4c-0.1,0.1-0.2,0.2-0.3,0.3c1.4-0.2,3-0.3,4.3-0.3c1.1,0,1.8,0,2.8,0C38.3,14.5,38.5,14.3,38.9,14.5z"/>
	<path class="st0" d="M57.7,16.4c0-0.1-0.1-0.2-0.1-0.3c0.1,0,0.2,0,0.3,0C57.9,16.2,57.8,16.3,57.7,16.4z"/>
	<path class="st0" d="M54.9,16.6c0.5-0.1,1.1-0.3,1.6-0.4c-0.4,0.1-0.8,0.3-1.2,0.4c0.6,0,1.3-0.1,1.9-0.2c-0.2,0.2-0.4,0.4-0.5,0.6
		c-0.6,0.1-0.6,0-1.2,0.1c-0.6,0.2-1,0.1-2,0.2c-2.3,0.2-5.2,0.4-7.6,0.3c0.1,0.2,0.2,0.3,0.2,0.5c-0.6,0.1-2.1,0.1-1.9-0.3
		c-1.2-0.1-2.4-0.2-3.6-0.2c0.9-0.1,8.4-0.6,5.3-0.3c2.5,0.1,5.1,0.1,7.5,0c0.6,0,1.4-0.1,2-0.2c0.2,0-0.7-0.4-0.9-0.3
		c0.2-0.1,0.5-0.1,0.7-0.2C55.2,16.6,55,16.5,54.9,16.6z"/>
	<path class="st0" d="M66.4,17.3c-0.3,0.2-0.7,0.3-1,0.5c-0.7-0.2,0.4-0.4,0-0.8c0.5,0,0.9,0,1.4,0C66.7,17,66.1,17.2,66.4,17.3z"/>
	<path class="st0" d="M63.4,17.3c-0.1,0.1,0,0.2-0.2,0.3c-0.6,0.1-0.7-0.5-1.6-0.2c0.1,0.1,0.2,0.3,0.3,0.4
		c-1.3,0.1-2.4-0.3-3.7-0.2c-0.3-0.1-0.1-0.3-0.1-0.5C59.8,16.5,62,16.5,63.4,17.3z"/>
	<path class="st0" d="M41.5,15.4c-0.8,0.1-1.5,0.1-2.3,0.2C39.8,15.3,40.6,15.2,41.5,15.4z"/>
	<path class="st0" d="M43.9,16c1.2,0.1,2.4,0.2,3.5,0.4c-1.8,0.1-3.6,0.2-5.4,0.2c-0.2,0.1-0.3,0.2-0.5,0.4
		c-1.3-0.1-2.6-0.2-3.9-0.3c2.4-0.1,4.4-0.6,6.5-1.2c0.2,0,0.3,0.1,0.5,0.1C44.4,15.8,44.1,15.9,43.9,16z"/>
	<path class="st0" d="M20,15.1c-0.1,0-0.2,0-0.3,0c-0.1-0.1,0.1-0.3,0.4-0.2C20,14.9,20,15,20,15.1z"/>
	<path class="st0" d="M37.9,16c-0.8,0.3-1.6,0.3-2.5,0.4C36.2,16.2,36.9,15.8,37.9,16z"/>
	<path class="st0" d="M22,15.4c-0.1,0-0.2,0.1-0.2,0.1c-0.1,0.1-0.2,0.1-0.4,0.2c-0.2,0-0.3,0.1-0.5,0.2c-0.2,0-0.3-0.1-0.3-0.2
		s0-0.2-0.1-0.3c0,0,0.4,0,0.5,0c0.1-0.1,0.1-0.2-0.1-0.2c0.5,0,1-0.1,1.5-0.1C22.2,15.1,21.6,15.3,22,15.4z"/>
	<path class="st0" d="M35.2,16.8c-0.4,0.1-1,0-1.5,0C34.3,16.7,34.8,16.6,35.2,16.8z"/>
	<path class="st0" d="M16.1,15.7c-0.2,0.1-0.8,0-1.1,0C15.3,15.6,15.7,15.7,16.1,15.7z"/>
	<path class="st0" d="M27,16.5c0.2,0,0.3-0.1,0.4-0.2c0.1,0,0.3,0,0.4,0C27.5,16.4,27.3,16.5,27,16.5z"/>
	<path class="st0" d="M11.7,16.2c-0.6,0-1.1,0.2-1.6,0.1C10.7,16.2,11.1,16.1,11.7,16.2z"/>
	<path class="st0" d="M35.4,17.7c-0.5,0-1.1,0-1.6,0c0.4,0,0.7-0.1,1.1-0.1c0-0.1-0.1-0.1-0.1-0.2c0.2,0,0.5,0,0.7,0
		C35.4,17.5,35.4,17.6,35.4,17.7z"/>
	<path class="st0" d="M9.3,16.4c0-0.1-0.1-0.1-0.1-0.2c0.2,0,0.4,0,0.5,0C9.6,16.3,9.4,16.3,9.3,16.4z"/>
	<path class="st0" d="M99.9,8.1C99,8,98.1,7.9,97.2,7.8c-0.2-0.3,0.4-0.1,0.8-0.3C98.6,7.7,99.6,7.7,99.9,8.1z"/>
	<path class="st0" d="M80.3,7.8c0-0.1,0.5,0,0.6,0c0.1,0,0.2,0,0.3,0c0.1,0,0.1-0.1,0.1-0.1c-0.3,0-0.6,0-1-0.1c0.8,0,1.8-0.3,2,0.2
		c-0.3,0.2-0.7,0.1-1.1,0.1c-0.2,0-0.3,0.2-0.2,0.3S81,8.2,81,8.3c-0.6-0.1-1.1-0.1-1.7-0.2c0.6,0,0.9-0.3,1.2,0.1
		c0.1-0.1,0.2-0.2,0.2-0.3C80.7,7.8,80.3,7.9,80.3,7.8z"/>
	<path class="st0" d="M104.1,8.9c-0.3,0-0.6,0.1-0.9,0.1C103.4,8.9,103.7,8.9,104.1,8.9z"/>
	<path class="st0" d="M79.6,8.3c-0.6,0-1.2-0.1-1.8-0.1C78.4,7.9,79.1,8,79.6,8.3z"/>
	<path class="st0" d="M79.5,8.7c0,0.1-0.7-0.1-0.6,0c0.1,0-1,0.1-1,0c0-0.3,0.9,0,1,0C79,8.7,79.5,8.6,79.5,8.7z"/>
	<path class="st0" d="M76.8,8.5c-0.4,0-0.8-0.1-1.1-0.1C76,8.4,76.5,8.4,76.8,8.5z"/>
	<path class="st0" d="M96.2,10.1c1.2,0,2.4,0,3.6-0.1c0,0,0,0.1,0,0.1C98.6,10.1,97.4,10.1,96.2,10.1z"/>
	<path class="st0" d="M56.1,8.7c0,0,0.2-0.1,0.3,0C56.3,8.7,56.1,8.7,56.1,8.7z"/>
	<path class="st0" d="M86.1,9.5c-0.7,0.1-1.2,0.1-1.9,0.1C84.9,9.5,85.4,9.4,86.1,9.5z"/>
	<path class="st0" d="M71,10.2c-0.3,0.1-0.7,0-1.1,0C70.2,10.1,70.6,10.2,71,10.2z"/>
	<path class="st0" d="M105.9,12.7c0.2,0,0.5,0,0.7,0c-0.1,0-0.1,0.1-0.2,0.1C106.3,12.7,106.1,12.7,105.9,12.7z"/>
	<path class="st0" d="M108.6,13c-0.2,0-1,0.1-1.3,0C107.6,13,108.4,13,108.6,13c0.2,0,0.6-0.1,0.6,0S108.8,13,108.6,13z"/>
	<path class="st0" d="M48,9.6c-0.3,0.1-0.6,0-0.9,0C47.5,9.6,47.7,9.6,48,9.6z"/>
	<path class="st0" d="M66.2,10.5c0.1,0.2,0,0.4,0.4,0.5c0.3-0.1,0.6-0.1,0.9-0.2c0,0.2,0.1,0.3,0.4,0.5c1.5-0.1,1.1-1.1,2.7-0.7
		c-0.6,0-1.5,0.2-1,0.5c-1.5,0.5-3,0.6-4.8,0.7c0.1,0,0.2,0,0.2,0c-1,0.1-2,0.1-3,0c0.6-0.1,1.3-0.1,1.9-0.1
		c-0.6-0.2-1.1-0.3-1.7-0.4c0.5-0.2,0.8-0.5,1.5-0.4c0.1,0,0.3,0.1,0.4,0.2c0.5-0.5,1.8,0,2.1-0.6c-0.5-0.1-0.9-0.1-1.4-0.2
		C65.2,10.4,65.7,10.5,66.2,10.5z"/>
	<path class="st0" d="M72.6,11.7c0.1-0.1,0.4-0.1,0.5-0.1c0.1,0,0,0,0.1,0.1C73,11.7,72.8,11.7,72.6,11.7z"/>
	<path class="st0" d="M37.1,9.1C37.1,9.1,37.1,9.1,37.1,9.1c1,0,1.9-0.1,2.6-0.4c-0.2,0.1-0.3,0.3-0.3,0.4c-1.7,0.2-3.3,0.5-5.1,0.4
		c0.2-0.1,0.4-0.1,0.6-0.1c-0.4,0-0.8,0-1.2,0c-0.6,0.4-1.9,0.3-2.8,0.3c0.3-0.1,0.5-0.2,0.8-0.3c0-0.1-0.1-0.2-0.1-0.3
		C33.5,8.8,35.2,9.3,37.1,9.1z"/>
	<path class="st0" d="M73.9,12c0.2,0,0.6,0,0.8,0c-0.2,0.4-1.2,0.7-0.2,1c-0.7,0.4-0.9-0.2-1.8-0.2c-1.4,0-2.9,0-4.3-0.1
		c0.3,0,0.5-0.1,0.6-0.2c-1,0-1.9,0-2.8,0.2c-0.4,0.3-1.1,0.6-1.8,0.4c-0.5-0.1,0.2-0.4-0.6-0.3c0-0.1,0.1-0.2,0.1-0.3
		c0-0.1-0.1,0-0.2-0.1c-1.4,1.1-4.6,1-6.8,0.8c-0.2,0-0.5,0-0.6,0c-0.2,0,0.7,0,0.6,0c-0.5,0,1.8-0.3,1.5-0.4
		c-1.1-0.2-2.3,0.1-3.4,0c2.4-0.3,4.8-0.3,7.3-0.4c-0.3,0-0.5-0.1-0.7-0.2c1.4-0.2,2.7-0.3,4.1-0.3c-0.9,0-1.7,0.2-2.6,0.4
		c1.1-0.1,2.1-0.2,3.2-0.3c-0.1,0-0.2,0-0.2,0c0.5,0,0.9-0.1,1.4,0c0,0.1,0,0.1,0,0.2c-0.2,0-0.5,0-0.7-0.1c0.7,0.5,1.9,0.1,2.9,0.2
		c0.1-0.1,0.2-0.1,0.4-0.2c0.7,0.5,1.6,0.2,2.6,0.1c0.9-0.3,0.4-0.7,0.1-1.2c0.4,0,0.7-0.1,1.1-0.1C74,11.4,72.7,11.8,73.9,12z"/>
	<path class="st0" d="M23.3,10.3c-0.9,0.4-2.1,0-3.1,0.4c0.2,0.1,0.4,0.1,0.6,0.1c-0.5,0.2-1.1,0.2-1.7,0.2c0.4-0.1,0.7-0.1,1.1-0.2
		c-0.9-0.3-1.5,0-2.4,0.1c0,0.1,0,0.1,0,0.2c-2.6,0.2-4.8,1-7.5,0.7c-0.7,0.1-1.3,0-1.7,0.4c0.4,0,0.8,0,1.2,0.1
		c-3.2,0.6-6.5,1-9.7,1.5c0.1,0,0.2,0,0.2-0.1c0-0.1-0.2-0.2-0.3-0.2c7-1.4,14.1-2.4,21.4-3.4C22,10.2,22.7,10.2,23.3,10.3z"/>
	<path class="st0" d="M21.8,12.8c0,0-0.4,0.1-0.4,0.1s-0.3,0.3,0.1,0.3c-1.1,0.1-2.9,0.1-3.7,0.2c-0.9,0.1-0.8,0.2-1.4,0.3
		c0.7,0.2,1.3,0.4,1.9,0.6c-0.9,0-1.9,0-2.8,0c0.2-0.2,0.2-0.5-0.2-0.7c-2,0.2-4,0.5-6.1,0.7c3.5-0.7,7-1.1,10.8-1.2
		c0,0,0,0.1,0,0.1c0.4-0.1,1-0.2,1.4-0.3c0.1,0,0.2-0.1,0.2-0.1C21.7,12.8,21.8,12.8,21.8,12.8z"/>
	<path class="st0" d="M43.6,12.3c-0.2,0-0.4,0-0.6,0C43.2,12.3,43.4,12.3,43.6,12.3z"/>
	<path class="st0" d="M97.6,15.6c-0.3,0.1-0.7,0-1,0C96.9,15.5,97.3,15.5,97.6,15.6z"/>
	<path class="st0" d="M68.2,14c0.1,0,0.1-0.1,0.2-0.1c0.1,0,0.3,0,0.4,0C68.6,14,68.4,14,68.2,14z"/>
	<path class="st0" d="M39.5,12.3c0.2,0,0.4,0,0.6,0c0.1,0,0.1,0.1,0.1,0.1C40,12.4,39.8,12.3,39.5,12.3z"/>
	<path class="st0" d="M38.8,14.1c0.1,0,0.2-0.1,0.3-0.1c0.1,0,0.2,0,0.3,0C39.2,14.1,39,14.1,38.8,14.1z"/>
	<path class="st0" d="M11.9,13.1c-2.5,0.5-5.1,0.8-7.8,0.7c2.2-0.3,4.5-0.6,6.7-0.8C11.2,13,11.6,13.1,11.9,13.1z"/>
	<path class="st0" d="M14.8,14.6c-1.7,0.1-3.2,0.5-4.9,0.3c1.4-0.4,2.9-0.6,4.4-0.8C14.5,14.2,14.7,14.4,14.8,14.6z"/>
	<path class="st0" d="M7.8,14.5c-0.3,0.1-0.6,0.1-0.9,0C7.2,14.5,7.5,14.4,7.8,14.5z"/>
	<path class="st0" d="M75.5,7.8c0.3-0.1,0.6-0.1,0.8-0.2c0.2,0,0.3,0,0.5,0C76.4,7.7,76,7.7,75.5,7.8z"/>
	<path class="st0" d="M69.2,8c-0.4,0.2-0.9,0.1-1.4,0.1C68.4,8,68.8,7.8,69.2,8z"/>
	<path class="st0" d="M65.5,8.1c-0.4,0.2-0.8,0.1-1.2,0.1c0.1,0,0.4-0.1,0.4-0.1c0,0-0.2,0-0.2,0C64.8,8,65,7.9,65.3,7.8
		c-0.2-0.1-0.5-0.1-0.8-0.1c0.5-0.1,1-0.1,1.6-0.2c0,0.2-0.1,0.3-0.1,0.5c0.1,0,0.1,0,0.2,0c-0.3,0-0.5,0.1-0.7,0.2
		C65.4,8.1,65.5,8.1,65.5,8.1z"/>
	<path class="st0" d="M75.8,8.4c-0.6,0.2-1.3,0.3-2.1,0.1C74.4,8.4,75.1,8.3,75.8,8.4z"/>
	<path class="st0" d="M52.6,8.5c0,0.2-0.3,0.2-0.5,0.1c-0.2,0-0.3,0-0.5,0C51.9,8.5,52.3,8.6,52.6,8.5z"/>
	<path class="st0" d="M75.6,9c-0.1,0.1-0.1,0.2-0.2,0.2c1.9,0.1,3.4-0.5,5,0.1c0.5-0.2,1-0.3,1.4-0.5c-0.2,0.3-0.9,0.1-0.8,0.5
		c-2,0.1-4,0-6,0.1c-0.1,0-0.2,0-0.2,0c-0.2,0-0.4-0.1-0.6-0.2C74.1,8.9,75.1,9,75.6,9z"/>
	<path class="st0" d="M68.8,9.9c-0.5,0.4-1.1,0-1.8,0.1c0.4-0.2,0-0.3,0-0.6c-0.4,0-0.7,0-1.1,0c0.4,0,0.8,0,1.1,0
		c0.1,0,0.2-0.1,0.3-0.1c0.1,0,0.4,0.2,0.4,0.2s0.1,0,0.1,0c0,0-0.1,0-0.1,0S68.1,10.3,68.8,9.9z"/>
	<path class="st0" d="M69.9,9.5c-0.3,0.1-0.7,0-1.1,0.1C68.9,9.2,69.5,9.3,69.9,9.5z"/>
	<path class="st0" d="M66.1,9.5c-1.2,0.7-2.3,0.2-3.8,0.1c0-0.1,0-0.1,0-0.2C63.6,9.7,64.7,9.4,66.1,9.5z"/>
	<path class="st0" d="M58.9,9.9c-0.3,0.2-0.5-0.2-0.4-0.2c0.1,0-0.2-0.1-0.2-0.1c0.1,0,0.1,0.1,0.2,0.1C58.9,9.7,59.3,9.6,58.9,9.9z
		"/>
	<path class="st0" d="M61.4,9.9c-0.1,0-0.4,0-0.3,0.1c0,0.1,0.4,0.1,0.6,0.1c0,0.1,0,0.2,0,0.3c-0.4,0-0.8-0.1-1.2-0.1
		c0-0.2,0-0.4,0-0.6c0.3,0,0.7,0,1,0C61.4,9.8,61.4,9.8,61.4,9.9z"/>
	<path class="st0" d="M49.5,10.4c-0.3,0-0.7-0.1-1-0.1c0.4-0.1,0.8-0.2,1.2-0.4C49.5,10.1,49.4,10.2,49.5,10.4z"/>
	<path class="st0" d="M52.5,10.4c0,0.1-0.2,0.2-0.2,0.2c1.9,0.1,3.5-0.5,5.1,0.1c0.5-0.2,1-0.3,1.5-0.5c-0.2,0.3-1,0.1-0.8,0.5
		c-0.9,0-1.7,0-2.6,0c0,0.3-0.6,0.3-1,0.3c-0.3,0,0.2-0.3,0.4-0.3c-0.2,0-0.3,0-0.5,0c0,0.1-0.2,0.2-0.4,0.3c-0.4,0-0.8-0.1-1.2-0.1
		c0.3-0.1,0.6-0.1,1-0.1c-0.7,0-1.3,0-1.9,0c-0.1,0-0.2,0-0.2,0c-0.2,0-0.4-0.1-0.7-0.2c0-0.2,0.2-0.2,0.6-0.3
		c0-0.1,0.1-0.2,0.1-0.3c0.3,0,0.2,0.2,0.2,0.3C52,10.5,52.5,10.4,52.5,10.4z"/>
	<path class="st0" d="M60.4,10.6c-0.2,0.1-0.3,0.3-0.2,0.4c0.2,0.2,0.6,0.3,1.1,0.3c0.1,0,0.1-0.1,0.1-0.1c0.1,0.1,0.2,0.1,0.4,0.2
		c-0.2,0-0.2,0.2-0.1,0.3c0.1,0.1,0.2,0.1,0.3,0.2c-0.9,0.3-1.6-0.2-2.4,0.1c-0.6-0.1-1.2-0.2-1.8-0.4c0.6-0.4,2.7-0.2,1.7-0.9
		c-0.2,0-0.5,0-0.7,0C59.3,10.5,59.8,10.6,60.4,10.6z"/>
	<path class="st0" d="M76.2,11c0,0,0,0.1,0,0.1c-0.4,0.2-0.9,0-1.4-0.1C75.2,11,75.8,10.8,76.2,11z"/>
	<path class="st0" d="M50.5,11c-0.8,0.1-1.4,0.3-2.3,0C49,11.1,49.7,11,50.5,11z"/>
	<path class="st0" d="M49.5,11.5c-0.2,0.2-0.6,0.2-1,0.3C48.8,11.5,48.9,11.4,49.5,11.5z"/>
	<path class="st0" d="M56.1,11.8c0.1-0.1,0.1-0.1,0.2-0.2c0.2,0,0.3,0,0.5,0C56.6,11.7,56.4,11.8,56.1,11.8z"/>
	<path class="st0" d="M45.6,9.8c-0.2-0.1-0.5-0.2-0.7-0.2c0.2,0,0.5,0,0.7,0.1C45.6,9.7,45.6,9.8,45.6,9.8z"/>
	<path class="st0" d="M50.3,11.8c0,0-0.1,0-0.2,0C50.1,11.8,50.2,11.8,50.3,11.8c0-0.1-0.1-0.2-0.1-0.2c0.3-0.2,0.8,0,1.1,0
		c0,0-0.1-0.1,0-0.1c0.3,0.1,0.7,0.3,1.1,0.3c0.1,0,0.1-0.2,0.2-0.3c0.8-0.1,1.3-0.3,2,0c-0.3,0.3-0.6,0.5-1.2,0.6
		c0,0,0.5,0,0.4,0.1c-0.2,0.1-0.5,0.2-0.9,0.1c-0.1,0,0.1-0.1,0.1-0.1c-0.1,0-0.3,0-0.4,0c-0.3,0.2-0.9,0.2-1.4,0.1
		c0.4-0.1,0.7-0.1,1.1-0.1c-0.8,0-1.6,0-2.3,0c-0.1,0-0.1,0.1-0.1,0.1c-0.1,0,0.1-0.1,0-0.1s-0.2,0-0.2,0c0,0-0.3-0.1-0.3-0.1
		c0,0-0.4,0.1-0.4,0c0,0-0.1,0.1-0.2,0c-0.1-0.1,0.6,0,0.6,0c0,0,0.6-0.1,0.6-0.1c0,0-0.5,0-0.5,0c0,0,0.4-0.1,0.6-0.1
		c0.2,0,0.5,0,0.6,0c0.1,0-0.2-0.1-0.3-0.1C50.4,11.8,50.3,11.8,50.3,11.8z"/>
	<path class="st0" d="M46.1,12.7c0.5,0,1.1-0.1,1.6-0.1C47.2,12.7,46.7,12.7,46.1,12.7z"/>
	<path class="st0" d="M48.9,12.8c0,0,0.3,0,0.3,0c0,0,0.4,0,0.4,0c0,0-0.4,0-0.4,0C49.3,12.8,48.9,12.8,48.9,12.8c0.2,0,0.5,0,0.7,0
		C49.4,12.9,48.9,12.9,48.9,12.8C48.7,12.8,48.9,12.8,48.9,12.8z"/>
	<path class="st0" d="M41.5,9.7c-0.1,0.2-1.7,0.4-1.2,0.5c-0.2-0.1-0.4-0.2-0.7-0.3C40.3,9.8,40.9,9.8,41.5,9.7z"/>
	<path class="st0" d="M43.5,11c0,0.1-0.1,0.2,0.1,0.3c-0.3,0-0.5,0-0.8,0c0-0.1,0.1-0.2,0.1-0.3C43.1,11,43.3,11,43.5,11z"/>
	<path class="st0" d="M40.4,11.4c-1.1,0.1-1.9,0.2-3,0.1C38.4,11.4,39.4,11.3,40.4,11.4z"/>
	<path class="st0" d="M37.4,11.5c-0.1,0.1-0.2,0.2-0.2,0.2c1.9,0.1,3.6-0.6,5.3,0c0.4-0.1,0.9-0.3,1.3-0.4c0,0-0.2,0-0.2,0
		c0.4-0.2,0-0.3,0-0.6c-0.1,0-0.1,0-0.3,0c-0.2,0-0.6,0-0.8,0c0.2,0,0.3,0,0.5,0c-0.2,0-0.3,0-0.5,0c0.1-0.2,0.3-0.5,0.7-0.6
		s0.6,0.1,1,0c-0.1-0.1-0.2-0.2-0.3-0.2c0.2,0,0.4,0.1,0.7,0.1c0,0-0.1,0.1-0.1,0.1c0,0,0.2,0,0.2,0s0.7,0.1,0.7,0.2
		c0,0.3-0.5,0.4-1,0.4c0,0,0.1,0.1,0.1,0.2s0.1,0,0.2,0c0.5,0,0.9-0.1,1.3,0c-0.4,0-0.8,0-1.2,0c0.1,0,0.1,0.1,0.2,0.1
		c-0.1,0-0.3-0.1-0.4-0.1c0.1,0.3,0.3,0.4,0.9,0.3c-0.4,0.3-1,0.1-1.5,0c-0.4,0.2-0.9,0.1-0.8,0.4c-2.1,0.1-4.3,0-6.4,0.1
		c-0.1,0-0.2,0-0.2,0c-0.2,0-0.5-0.1-0.7-0.1C35.9,11.5,36.9,11.5,37.4,11.5z"/>
	<path class="st0" d="M39.7,13.1c0.4,0,0.7,0.1,1.1,0.1c-0.7,0.1-0.8,0.3-1.1,0.6c-0.9-0.2,0.4-0.3,0.1-0.6c-0.3,0.3-1.7,0.1-1.9,0
		c0,0-0.5,0.1-0.5,0c0-0.1,0.5,0,0.5,0c-0.1-0.1,1.6-0.4,1.7-0.3C39.8,13,39.7,13,39.7,13.1z"/>
	<path class="st0" d="M38.3,13.8C38.3,13.8,38.3,13.8,38.3,13.8c0.2-0.1,0.4,0,0.6,0C38.7,13.8,38.5,13.8,38.3,13.8z"/>
	<path class="st0" d="M43.6,14.6c-0.6,0-0.4,0.5-0.5,0.5c0,0,0.2,0,0.2,0c0,0-0.2,0-0.2,0c-0.1,0-1.3-0.2-1.6-0.1
		c0.1,0,0.1,0,0.1,0.1c-0.3,0-0.5-0.1-0.8-0.1c0.2,0,0.4,0,0.7,0.1c-0.2-0.1-0.5-0.2-0.7-0.3c0.5,0,1.1,0,1.6,0
		c-0.1-0.1-0.3-0.1-0.5-0.1c0.3-0.1,0.4-0.1,0.4,0.1C42.8,14.5,43.1,14.5,43.6,14.6z"/>
	<path class="st0" d="M37.6,14.1c-0.3,0.2-0.7,0.3-1,0.5c-0.7-0.2,0.4-0.4,0-0.8c0.5,0,1,0,1.4-0.1C37.8,13.8,37.2,14,37.6,14.1z"/>
	<path class="st0" d="M47.8,11.6c-0.3,0.1-0.7,0-1.1,0C47,11.5,47.4,11.6,47.8,11.6z"/>
	<path class="st0" d="M39.5,10.8c0.1,0,0.1-0.1,0.2-0.1c0.1,0,0.3,0,0.4,0C39.9,10.8,39.7,10.8,39.5,10.8z"/>
	<path class="st0" d="M46.6,10.9c-0.3,0.1-0.7,0-1.1,0.1C45.7,10.7,46.3,10.8,46.6,10.9z"/>
	<path class="st0" d="M53.1,12.4c0,0,0,0.1,0,0.1c-0.4,0.2-1,0-1.4-0.1C52.1,12.5,52.8,12.3,53.1,12.4z"/>
	<path class="st0" d="M30.2,11c-0.2-0.1-0.5-0.2-0.7-0.2c0.3,0,0.5,0,0.8,0C30.2,10.9,30.2,11,30.2,11z"/>
	<path class="st0" d="M38.2,12.8c0,0.1,0,0.1,0,0.2c-0.7,0.1-1.2-0.1-1.7,0.3c-0.6-0.1-1.1-0.1-1.7-0.1c0.1,0-0.2,0.3-0.2,0.3
		c0.2-0.1-0.4-0.1-0.5-0.1c0,0-0.4,0.1-0.5,0.1c-0.1,0-0.1,0.1-0.2,0c-0.1-0.1,0.7-0.1,0.6,0c0,0,0.7-0.1,0.6-0.1c0,0-0.5,0-0.5,0
		c0,0,0.4-0.1,0.6-0.1c0.6,0,1.4,0,1.3-0.4C36.8,12.8,37.4,13,38.2,12.8z"/>
	<path class="st0" d="M35.5,12.8c0,0-0.5,0.1-0.5,0.1C34.9,12.9,35.3,12.8,35.5,12.8z"/>
	<path class="st0" d="M30.7,13.9c0.5,0,1.1-0.1,1.6-0.1C31.8,13.8,31.3,13.9,30.7,13.9z"/>
	<path class="st0" d="M33.9,14.3c0,0-0.2,0-0.2,0c0,0-0.1,0.1-0.2,0.1c-0.1,0,0.2-0.1,0.2-0.1C33.7,14.4,33.9,14.3,33.9,14.3z"/>
	<path class="st0" d="M33.6,13.9c0,0,0.3,0,0.4,0c0,0,0.4,0,0.5,0c0,0-0.5,0-0.5,0C34,13.9,33.6,13.9,33.6,13.9c0.2,0,0.5,0,0.7-0.1
		c-0.1,0.1-0.7,0.2-0.8,0.1C33.4,13.9,33.6,13.9,33.6,13.9z"/>
	<path class="st0" d="M34.5,14.4c0,0.1-0.1,0-0.2,0c-0.1,0-0.3,0-0.4-0.1C34.1,14.4,34.5,14.4,34.5,14.4z"/>
	<path class="st0" d="M26,11c-0.1,0.3-1.7,0.4-1.2,0.5c-0.2-0.1-0.5-0.2-0.7-0.3C24.8,11.1,25.4,11,26,11z"/>
	<path class="st0" d="M28.9,11.6c-0.1-0.1-0.3-0.2-0.4-0.4c0.2,0,0.4,0.1,0.7,0.1C29,11.4,29,11.5,28.9,11.6z"/>
	<path class="st0" d="M28,12.3c0,0.1-0.1,0.2,0.1,0.3c-0.3,0-0.5,0-0.8,0c0-0.1,0.1-0.2,0.1-0.3C27.6,12.3,27.8,12.3,28,12.3z"/>
	<path class="st0" d="M24.9,12.7c-1.1,0.1-2,0.3-3,0.1C22.8,12.7,23.9,12.6,24.9,12.7z"/>
	<path class="st0" d="M24.2,14.4c0.4,0,0.7,0.1,1.1,0.1c-0.7,0.1-0.8,0.3-1.1,0.6c-0.9-0.2,0.4-0.3,0.1-0.6c-0.3,0.3-1.8,0.1-1.9,0
		c0,0-0.5,0.1-0.5,0c0-0.1,0.5,0,0.5,0c-0.1-0.1,1.6-0.4,1.8-0.3C24.3,14.3,24.2,14.3,24.2,14.4z"/>
	<path class="st0" d="M28.2,14c-0.8,0.4-1.4,0.2-2.4,0.1c0-0.1,0-0.2,0.2-0.3c-0.1,0-0.2,0-0.3,0.1c0.2,0,0.2-0.1,0.5-0.2
		c0.1,0,0.1,0,0.4,0c0.3,0,0.6-0.1,0.9-0.2C28,13.5,28.1,13.9,28.2,14z"/>
	<path class="st0" d="M22.7,15.1C22.7,15.1,22.7,15.1,22.7,15.1c0.2-0.1,0.4-0.1,0.6,0C23.1,15.1,22.9,15.1,22.7,15.1z"/>
	<path class="st0" d="M28.1,15.8c-0.6,0-0.4,0.5-0.5,0.5c0,0,0.2,0,0.2,0c0,0-0.2,0-0.2,0c-0.1,0-1.4-0.2-1.6-0.1c0,0,0.1,0,0.1,0.1
		c-0.2,0-0.3,0-0.4-0.1c-0.2,0-0.2,0.1-0.5,0.1c-0.2,0-0.7,0-0.9-0.1c0.4,0.1,0.8,0,1.2-0.1c-0.1,0-0.2-0.1-0.3-0.1
		C26.2,15.8,27.1,15.8,28.1,15.8z"/>
	<path class="st0" d="M32.5,12.8c-0.4,0.1-0.8,0.1-1.2,0.1C31.7,12.7,32.1,12.8,32.5,12.8z"/>
	<path class="st0" d="M34.1,14.3c0.1-0.1,0.4-0.1,0.5-0.1c0.1,0,0,0,0.1,0.1C34.5,14.3,34.3,14.3,34.1,14.3z"/>
	<path class="st0" d="M23.9,12.1c0.1,0,0.1-0.1,0.2-0.1c0.1,0,0.3,0,0.4,0C24.3,12,24.1,12.1,23.9,12.1z"/>
</g>
</svg>
