<svg version="1.1" id="Layer_1" xmlns="http://www.w3.org/2000/svg" xmlns:xlink="http://www.w3.org/1999/xlink" x="0px" y="0px"
	 viewBox="0 0 356.9 22.8" style="enable-background:new 0 0 356.9 22.8;" xml:space="preserve">
<style type="text/css">
	path{fill:#daaf67;}
</style>
<g>
	<path d="M226.9,1c-0.3-0.4,0.6-0.4,1.1-0.4c0.1,0,0.2,0,0.1,0.1c-0.1,0.1-0.8,0-1,0.1c1.2,0.1,2.4,0.4,3.6-0.1
		c-0.1,0-0.2-0.1-0.2-0.1c0.8-0.3,1.9-0.2,2.7-0.1c-0.2,0-0.5,0-0.5,0.1s-0.1,0.1,0,0.1c0.5,0.3,1.3,0.1,1.9-0.1c0-0.1,0-0.1,0-0.2
		c1.5,0.4,2.9,0.4,4.4,0c0.6,0.5,1.7,0.1,2.6,0.3c0.2-0.1,0.2-0.4,0.7-0.4c-0.4,0.4,0.4,0.6,0.5,1c1.1,0.1,1.6-0.4,2.2-0.8
		c1.6,0,3.6-0.6,4.7,0.2L249.6,1c0.1,0.3,1.1,0.4,1.2,0.1c0-0.1-0.1-0.1-0.2-0.1c1-0.2,2-0.1,2.9,0c-0.3,0.2,0,0.5,0.4,0.5
		c2.5-0.1,4.9,0,7.3-0.3c-0.6-0.1-1.2-0.1-1.7-0.3c0.8-0.3,1.9-0.1,2.6-0.6c-0.6-0.3-1.2,0-1.9-0.1c1.9,0,3.9,0,5.8-0.1l-0.1,0.1
		c0.8,0.7,2,0.6,3.3,0.6l0.1-0.1c-0.8-0.4-1.7-0.4-2.7-0.6c3.6-0.1,7.1,0.1,10.7,0.4c0.1,0.2-0.1,0.3-0.3,0.4c0.5,0.1,1,0,1.6,0
		c-0.1-0.1-0.3-0.2-0.4-0.3c0.5-0.1,1-0.1,1.5-0.1c0,0.1-0.1,0.3-0.1,0.4c1.6,0.1,2.5,0.7,4,0.8c-0.4-0.6,1-0.5,1.6-0.6
		c0,0,0.2-0.1,0.1-0.1c-0.1-0.1-0.3-0.1-0.4-0.2c0.8-0.1-0.2-0.4,0.7-0.4c0.1,0-0.1,0.2-0.2,0.2c1.3,0.1,2.6-0.1,3.8,0.2
		c1-0.2,1.8,0.2,2.8-0.1c-0.1-0.1-0.2-0.2-0.4-0.3c0.3,0,0.6,0.1,0.9,0c1,0.8,2.9,0.4,4.5,0.6s3.4-0.1,5.1-0.1
		c0.6,0.4,1.6,0.4,2.5,0.4c-0.1-0.1-0.2-0.2-0.3-0.4c1.7,0.9,3.3,0.1,5.2,0.5c13.2,0.6,25.8,2.3,38.7,4c2.7,0.6,5.4,1.3,8.2,1.9
		c0,0.2,0.1,0.4,0.1,0.6c-0.3-0.1-0.5-0.2-0.8-0.3c-0.1,0.4,0.6,0.8,1.2,1c-0.6,0.4-1.4,0.4-1.5,1c-0.1,0.3,0.2,0.6,0.7,0.7
		c-0.5,0.2-0.8,0.7-0.5,1c0.2,0.2,0.4,0.1,0.6,0.4c-0.2,0-0.5,0-0.5,0.1s0,0.1,0,0.2c-1.3,0.1,0.4,0.7-0.8,0.6
		c-1.1,0.5,0,0.9,0.4,1.4c-0.4,0.6-0.3,1.3-0.4,1.9c-1.3-0.4-1.5,0.1-2.3,0.6c0,0.4,0.6,0.4,1,0.5c-0.1,0-0.6,0-0.5,0.1
		c0.1,0.3,0.7,0.4,1.2,0.5c-0.2,0.1-0.5,0.1-0.7,0.1c0.2,0.2,0.4,0.5,0.5,0.7c-0.3,0-0.4,0.1-0.6-0.1c-0.1,0.1-0.2,0.1-0.3,0.2
		c1.1,0.2,0.4,0.8,0.4,1.3c-0.1-0.1-0.3-0.2-0.4-0.1c-0.4,0.4,0.3,0.4,0.5,0.6c-0.6,0.3-1.1,0-1.7,0.4c0.4,0.1,0.9,0.4,1.3,0.5
		c-0.7,0.3-1.7-0.5-2,0.2c-0.3,0.7,1.8,0.4,1.4,1.1c-7-0.1-10.2,0.1-17.9-0.6c-5.7-0.6-8-1.4-17.3-1.9c-9.3-0.6-37.9-1.7-47.3-2
		s-7.7,0-14.8-0.1c-0.7-0.6-2.1,0.1-3.4-0.1c0-0.1,0-0.2,0-0.3c-2.1,0.1-3.9,0.7-5.9,0.1c-8.5,0.1-16.9,1.1-25.5,1.1
		c-1.8-0.5-3.4-0.3-5.3,0c-0.2-0.2-0.8-0.4-1.2-0.4s-0.1,0.3-0.2,0.4c-1.4-0.6-3-0.5-4.6-0.4c-0.8,0.6-1.5,0.2-2.5-0.1
		c0.6-0.1,1.2-0.3,1.7-0.5c-0.5-0.3-1.1-0.6-1.6-0.8c0.7-0.3,0.9-0.7,0.8-1.2c0.7,0.1,1.4,0.4,2.1,0.1c-1.6-0.4-3.4-0.4-5.1-0.4
		c0.5,0.3,1.1,0.4,1.1,0.9c-0.9,0.4-2.1,0.1-3,0.5c0.2,0.1,0.4,0.2,0.6,0.3c-1.6-0.1-3.2,0.1-4.8,0.1c0.2,0.1,0.4,0.1,0.6,0.2
		c-0.2,0.1-0.5,0.3-0.8,0.3c-0.3,0.1-0.2-0.3-0.1-0.3c0.1,0,0.3,0,0.4-0.1c-0.5-0.1-1.1-0.1-1.3-0.4c0.7-0.1,1.3-0.3,1.7-0.6
		c-0.3-0.1-0.6-0.1-0.9-0.2c1.3-0.3,2.7-0.4,4-0.6c-2.5-0.1-4.9-0.6-7.4-0.6c-0.1,0.3,0.5,0.6,0.9,0.6c-0.2,0.4-1.8,0.7-1.7,0.9
		c-0.2,0-0.3,0.1-0.4,0.1c0.6,0.1,1.1,0.3,1.7,0.2c-0.3,0.1-0.3,0.3-0.4,0.4c0.2,0.1,0.4,0.2,0.6,0.3c0.1,0,0.1-0.1,0.2-0.1
		c0.1,0.1,0.3,0.2,0.4,0.3c-0.7,0.3-1.6,0.4-2.4,0.3c-0.8-0.1,0.1-0.5-0.4-0.6c-0.3-0.1-0.5,0.4-0.9,0.2c0.2-0.4-0.8-0.3-1.4-0.3
		c-0.3,0.6-1.3,0.5-2.1,0.8c-0.6-0.1-1.2-0.1-1.7-0.2c0.3-0.1,1.1-0.4,0.9-0.7c-0.2-0.4-1.2-0.1-1.6-0.4c-0.1,0.1-0.3,0.1-0.4,0.2
		c0.2,0.1,0.4,0.2,0.6,0.3c-1.1,0.3-1.6,0.9-2.9,0.5c0.7-0.1,0.5-0.4,0.8-0.7c-1.9-0.3-3.8-0.2-5.7-0.2c0.5,0.5,1,1.5-0.6,1.6
		c-0.7,0-1.9-0.2-2.6-0.2c0.2-0.3,0.4-0.6,0.6-0.9c-0.2-0.1-0.5-0.1-0.7-0.2c0.3-0.1,0.2-0.2,0-0.3c-0.1-0.1-0.3-0.2-0.4-0.2
		c-0.4-0.1,0.1,0,0.1-0.1c-1.6-0.4-3.1,0-4.8-0.1c0.6,0.7-0.2,1.3-1.5,1.3c-0.2,0-0.6,0-0.8,0c0-0.1,0.3-0.3,0.2-0.4
		c-1.3,0.1-1-0.8-2.5-0.6c-0.4,0.4,0.2,0.8,0.9,0.7c0.3,0,0.3,0.1,0.6,0.2c-1.6,0.4-1.9-0.6-3.4-0.1c0.1,0.3,0,0.6,0.7,0.6
		c0.2,0,0.6,0,0.8,0c-1.6,0.2-3.2,0.4-4.8,0c0.3-0.1,0.5-0.1,0.7-0.2c-1.1-0.4-2.4,0-3.6-0.3c0.7-0.2,1.5,0.1,2.1-0.3
		c-2.5,0.2-2.1-1.4-4.5-0.9c0.1,0.1,0.4,0.1,0.5,0.1s0.1,0.1,0,0.1c-0.6,0.3-1.1-0.4-1.5,0.1c0.2,0.1,0.4,0.2,0.5,0.4
		c0.2-0.1,0.4-0.1,0.7-0.1c-1.3,0-1.3,0.9-2.7,0.6c-0.3,0-0.6,0-1,0c0.4-0.2,0.8-0.5,1.1-0.7c-0.3-0.2-0.8-0.1-1.1-0.2
		c0.7-0.6,1.8,0.1,2.6-0.5c0.7,0.1,2.3,0.2,2.3-0.4c0.5,0.1,0.8-0.1,1.2-0.3c-0.8-0.2-1.7-0.1-2.5-0.2c1.7-0.1,3.4-0.3,5-0.5
		c-0.6-0.3-1.4-0.4-1.5-0.9c0.4-0.1,0.7-0.1,1.1-0.2c-0.1-0.4-0.3-0.4,0.4-0.7c-0.7-0.4-1.3,0.1-2.1-0.1c1.1-0.3,2.4-0.1,3.5-0.4
		c-0.7-0.1-0.9-0.4-1.3-0.6c-1,0.1-1.9,0.1-2.9,0.2v-0.1c-0.5-0.4-1.4-0.1-2.1-0.2c0-0.1,0.1-0.2,0.2-0.3c-0.9-0.1-0.5,0.4-1.4,0.4
		c0.5,0.2,0.1,0.6,0.9,0.6c0.1-0.1,0.3-0.2,0.4-0.3c0.4,0.4,1.2,0.4,1.9,0.3c-0.8,1-2.4-0.4-3.3,0.8c-0.2-0.1-0.5-0.3-0.8-0.2
		c-0.2,0-0.2,0.1-0.4,0.2c-0.2-0.1-0.5-0.3-0.8-0.5c0.6-0.1,1.3-0.2,1.9-0.4c-0.2-0.2-0.4-0.4-0.5-0.6c0,0,0.5,0,0.3-0.1
		c-0.3-0.3-1.1-0.4-1.7-0.2c0,0-0.1,0.1-0.2,0.1c-0.1,0-0.2-0.1-0.2-0.1c0.3-0.1,0.6-0.4,1-0.5c0,0.1,0.3,0.2,0.4,0.4
		c0.7-0.2,0-0.9,1-0.7c0,0.1,0.1,0.2-0.2,0.3c0.3,0.4,0.7,0.1,1.3,0.1c0.1-0.1,0.3-0.1,0.4-0.2c-0.2-0.1-0.3-0.2-0.1-0.3
		c0.1-0.1,0.4-0.1,0.6-0.1c-0.1,0.1-0.1,0.2-0.2,0.3c1.6,0.2,2.5-0.5,4-0.5c0.3-0.1,0.4-0.2,0.4-0.4c-0.1,0.1,0.1,0.4,0.4,0.4
		c0.3,0.1,0.7,0,0.7-0.2c0-0.1,0-0.2,0-0.3c1,0,2.1,0.1,2.5-0.5c-0.8-0.1-1.6-0.1-2.4-0.1c0.5-0.2,1.1-0.2,1.2-0.6
		c2.5-0.3,5,0.1,7.6-0.3c1.4,0.6,3.2-0.1,4.1,0.9c1.4,0.1,1.5-0.5,2.5-0.8c-0.1-0.1-0.3-0.1-0.4-0.2c0.7-0.2,1,0.1,1.5,0.4
		c1.5-0.1,2.7,0.4,4.2,0.3c-0.6,0.1-1.1,0.1-1.7,0.1c0,0.2,0.1,0.4,0.4,0.6c1.6-0.1,3.1-0.9,4.4-0.1c1.2-0.4,2.4-0.4,2.7-1.2
		c0.9,0.2,1.7-0.1,2.6,0.1c1.3-0.1,1.8-1.3,2.8-0.4c1.1-0.1,1.7-0.7,2.7-0.1c-0.5,0.7-1.6,0.7-2.7,1c1.8,0.5,3.7,0.2,5.7,0.3
		c0.3-0.3,0.6-0.5,0.9-0.8c0.3,0.4,0.8,0.1,1.3,0c0.1,0,0.2-0.1,0.2-0.1c-0.5-0.4-1.1-0.1-1.7-0.2c1.6,0.1,3.2-0.6,4.6,0.1
		c-0.4,0.1-1,0.1-1.2,0.4c0.9,0.3,1.7-0.2,2.4,0.2c-0.1,0.1-0.7,0.1-0.5,0.3c0.2,0.2,0.8,0.1,1.1,0.1c0.3-0.1-0.1-0.5,0-0.4
		c0.7,0,1.5,0,2.2-0.1c-0.1-0.1-0.2-0.4-0.3-0.5c0.7-0.1,1.5-0.2,2.2-0.3c0.1,0.6,1,0.1,1.6,0.4c0.7,0,1.3-0.1,1.9-0.4
		c-0.6-0.2-1.3,0.1-1.3-0.4c-0.1,0.1,0,0.1,0.2,0.2s0.3,0,0.4,0c0.7-0.4-0.2-0.9-1-0.9c-0.3-0.1-0.6,0-0.9,0c-1-0.3-2.1-0.2-3.2-0.4
		c1.7-0.3,3.4,0.1,5.1-0.3c-1.2-0.4-2.5,0.4-3.4-0.4c-0.9,0.4-2.2,0.1-2.6,0.8c-0.9,0-0.7-0.3-1-0.7C205.5,6,204.8,6,204,5.9
		c1.1,0,2.2,0.1,3.2-0.2c-1.6-0.1-3-0.4-4.5,0c0.2,0.1,0.5,0.3,0.7,0.4C203.2,6,202.9,6,202.7,6c0.3,0.9-1.7,0.6-2.8,0.7
		c-0.1,0-0.2,0-0.2,0c0.9-0.1,1.8-0.1,2.7-0.2c-0.6-0.6-1.8-0.2-2.8-0.4c0.6-0.6-0.4-0.6-1.2-0.9c-1,0.2-1.9-0.1-2.8,0.1
		c0,0.3,0,0.5,0,0.8c-1.3,0.1-2.5,0.1-3.8,0.4c0.3,0.1,0.5,0.1,0.8,0.2c-0.5,0.2,0.3,0.6,0.4,0.9c-0.5,0.1-0.8,0.4-1.3,0.1
		c0.5-0.2,0.3-0.5-0.2-0.6c-0.9,0.3-1.5,0.5-2.5,0.2c0.3-0.4,1.1-0.4,1.6-0.6c0.2-0.1,0.4,0.4,1,0.2c0.1,0,0.2-0.1,0.3-0.2
		c-0.5-0.2-0.4-0.6-1.3-0.5c0.3-0.4,0.9-0.4,1.5-0.3c0.1,0,0.1,0.1,0.2,0.1c0.1-0.1,0.3-0.1,0.4-0.2c-0.6-0.1-1.2,0-1.7-0.2
		c3.8-0.6,7.3-0.1,11.2-0.1c3.7-0.1,7.6,0.4,11.3,0c2.6,0.3,5.1-0.1,7.7,0.2c1.1-0.2,2.3-0.1,3.4-0.3c-3.5-0.2-7-0.4-10.6-0.4
		c-0.5,0-1.3,0-1.9-0.1c1.5-0.3,3.6,0.2,4.7-0.4c1,0.5,2.4,0.1,3.6,0.3c1.1,0,2.2,0,3.4,0.1c0-0.1,0-0.2,0-0.4c1,0,1.7,0.3,2.7,0.3
		c0.3-0.4,1.1-0.3,1.2-0.6C227,4,226.2,4,225.5,3.9c0.3-0.1,0.6-0.2,0.9-0.4c-1.1-0.3-1.9,0.1-2.8-0.4c-0.8,0-1.6,0-1.9,0.5
		c-0.8-0.7-1.7,0.1-2.6-0.1c-1.5-0.4-2.4,0.1-3.8-0.4c-0.3,0.2-0.7,0.4-1.1,0.7c-0.5-0.4-0.8-0.9-1.7-0.5c-0.7,0-0.7-0.4-1-0.6
		c0.1,0,0.3,0,0.4,0c0,0.3,0,0.5,0.4,0.6c0.2-0.1,0.5-0.1,0.7-0.2c-0.1-0.1-0.3-0.3-0.4-0.4c0.3-0.1,0.6-0.1,0.9-0.2
		c-0.7-0.4-1.6-0.2-2.6-0.2c0.7-0.5,1.9-0.4,3-0.3c0.6,0.6,1.1-0.4,1.9,0.1c0.9,0,1.7,0,2.3-0.4c-0.4-0.1-0.9-0.1-1.3-0.2
		c1.3,0.4,2.2-0.9,3.7,0C222.4,1.1,224.7,0.7,226.9,1z"/>
	<path d="M124.8,2.2c0,0.2-0.3,0.2-0.5,0.1c-0.2,0-0.4,0-0.6,0C124,2.2,124.4,2.3,124.8,2.2z"/>
	<path d="M188.1,4.2c-0.5,0-1-0.1-1.5-0.1C187.2,4.1,188.4,3.6,188.1,4.2z"/>
	<path class="st0" d="M232,3.1c-0.2,0.1-0.5,0.1-0.7,0.3c0.2,0.1,0.4,0.2,0.6,0.4c-1.2-0.1-1.4,1.1-2,0.2c-0.6-0.3-1.3-0.3-2.1-0.2
		V3.6c0.8-0.1,1.5-0.2,2.3-0.4c0-0.1-0.1-0.1-0.2-0.2C230.6,3,231.6,2.5,232,3.1z"/>
	<path d="M149.6,3.3c-0.2,0.2-0.4,0.5-1,0.5c-0.2,0-0.5-0.1-0.7-0.2C148,3.2,149.1,3.3,149.6,3.3z"/>
	<path class="st0" d="M252.6,1.9c-0.8,0.1-1.6,0.1-2.4,0.1C250.9,1.6,251.7,2.1,252.6,1.9z"/>
	<path d="M171.6,4c0.1,0.2-0.7,0.1-0.9,0.1C170.5,3.8,171.5,3.8,171.6,4z"/>
	<path d="M199,4.1c0,0.1-0.8,0.1-0.7-0.1C198.4,4.1,199,4,199,4.1z"/>
	<path d="M208.4,4.3c-0.8,0-1.6,0.1-2.4,0.1C206.9,4.2,207.7,3.8,208.4,4.3z"/>
	<path class="st0" d="M236,3.5c-0.6,0-1.1,0-1.7,0c0.3-0.1,0.3-0.4,0.4-0.6C235.7,2.7,235.3,3.2,236,3.5z"/>
	<path d="M117.5,2.5c-0.4,0-0.9,0-1.3-0.1c0.4-0.1,0.8-0.2,1.4-0.1C117.5,2.3,117.5,2.4,117.5,2.5z"/>
	<path d="M213.6,3.8c0.3,0,0.6,0,0.9,0C214.3,3.8,214,3.8,213.6,3.8z"/>
	<path d="M160.2,3.9c-0.9,0.3-1.7,0.4-2.7,0.1C158.2,3.7,159.3,3.9,160.2,3.9z"/>
	<path d="M165.2,4.1c0.6,0,1.3,0,1.9,0C166.4,4.1,165.8,4.1,165.2,4.1z"/>
	<path d="M199.8,4.3c0.2,0,0.4,0.1,0.5,0.1C200.2,4.3,200,4.3,199.8,4.3z"/>
	<path d="M142,4.3c-0.6,0.4-1.3-0.1-2.1,0c0.6-0.3-0.4-0.6,0.4-0.9C141.2,3.8,140.8,4.4,142,4.3z"/>
	<path d="M220.2,3.8c0.6,0,1.1,0,1.7-0.1C221.4,3.8,220.8,3.8,220.2,3.8z"/>
	<path d="M143.2,3.8c-0.4,0.1-0.8,0.1-1.2,0.1C142.2,3.5,142.8,3.6,143.2,3.8z"/>
	<path d="M155.8,4c-0.6,0.1-1,0.3-1.6,0.1C154.7,3.9,155.2,4.1,155.8,4z"/>
	<path class="st0" d="M237.6,3.3c0,0.1,0,0.1,0,0.2c-0.4,0-0.7-0.1-1.1-0.1C236.8,3.3,237.3,3.1,237.6,3.3z"/>
	<path class="st0" d="M264.2,1.8c-2.4,0.1-4.9,0.1-7.3,0.2c0-0.1,0-0.1,0-0.1C259.4,1.6,261.7,1.7,264.2,1.8z"/>
	<path d="M139.1,3.7c-1.3,0.9-2.5,0.1-4.1,0c0-0.1,0-0.1,0-0.2C136.3,3.9,137.6,3.6,139.1,3.7z"/>
	<path d="M180.9,5c-0.9,0-1.1,0.6-1.9,0.4c-0.9-0.6-2.3-0.3-3.5-0.4c-0.1,0.1-0.2,0.2-0.3,0.3C175,5,174.5,4.9,174,5
		c-0.5,0.1-0.4,0.6-1.1,0.4c-0.1,0-0.3,0-0.2-0.1c0.1-0.1,0.5,0,0.6-0.1c0.1-0.1,0.1-0.1,0-0.1C172.7,4.8,171.8,5,171,5
		c2.6,0,5.1,0,7.7,0c0.2-0.1,0.4-0.3,0.6-0.4C179.5,5.3,180.7,4.5,180.9,5z"/>
	<path class="st0" d="M244,3.3c0.7-0.1,1.2,0.1,1.9,0.1c-0.6,0.1-1.3,0-1.8,0.3c-0.3,0.1,0,0.2-0.6,0.2c0.2-0.4-0.4-0.7,0.5-0.9
		C243.9,3.1,244,3.2,244,3.3z"/>
	<path class="st0" d="M266.2,1.2c0.3,0,0.6,0,0.9,0C266.8,1.2,266.5,1.2,266.2,1.2z"/>
	<path d="M190.4,4.9c-1,0.2-2.1,0-3.1,0.4c0.5,0.1,1,0.2,1.5,0.3c-0.2,0.1-0.5,0.3-0.7,0.4c-0.5-0.3-0.6-0.6-1.5-0.6
		c-0.4,0-0.1,0.3-0.2,0.4c-0.2,0.1-0.3,0-0.4,0c0-0.2,0-0.4,0-0.6c-1.1-0.1-2.1-0.3-3.2-0.3c2.1,0,4.2-0.1,6.4-0.1
		C189.5,5,190,5,190.4,4.9z"/>
	<path class="st0" d="M241.6,3.4c0.1,0.1-0.1,0.2-0.4,0.3c-0.6,0.1-0.8-0.1-0.8-0.4C240.8,3.3,241.1,3.4,241.6,3.4z"/>
	<path class="st0" d="M252.7,2.6c0.1,0.3-0.5,0.3-0.9,0.4c-0.4-0.3-0.8-0.1-1.3-0.1C250.8,2.4,252,2.6,252.7,2.6z"/>
	<path class="st0" d="M273.6,0.7c0.4,0.1,0.9,0.1,1.3,0.2C274.5,0.8,274.1,0.7,273.6,0.7z"/>
	<path d="M131.4,4c-0.6,0.1-0.2-0.2-0.6-0.4C131.2,3.8,131.8,3.6,131.4,4z"/>
	<path class="st0" d="M249.2,3.2c0.7,0.1,1.4,0.1,2.1,0.1c-1.4-0.1-2.7,0.2-4-0.1c0.9-0.1,1.2-0.6,2.2-0.4
		C249.4,3.1,249.3,3.1,249.2,3.2z"/>
	<path d="M134,4.1c-0.1,0-0.4,0.1-0.4,0.1c0,0.1,0.4,0.1,0.6,0.1c0,0.1,0,0.2,0,0.3c-0.5,0-0.8-0.1-1.3-0.1c0-0.2,0-0.4,0-0.6
		c0.4,0,0.7,0,1.1,0.1C134,3.9,134,4.1,134,4.1z"/>
	<path d="M164.5,4.8c-0.4,0.1-0.8,0.1-1.2,0.1C163.7,4.8,164.1,4.8,164.5,4.8z"/>
	<path class="st0" d="M262.4,2.7c-0.4,0.3-1.1,0-1.5,0.1c-0.1,0-0.5,0.2-0.2,0.3c0.5,0.1,1.5-0.1,2.1,0.1c-0.8,0.3-1.7,0.1-2.1,0.6
		c-1.4-0.3-2.9,0.2-3.7-0.6c1.3-1,3-0.7,5-0.8C262.2,2.4,262.3,2.6,262.4,2.7z"/>
	<path class="st0" d="M255.2,3.2c-0.8,0.2-1.6,0.4-2.4,0.1c0.5-0.1,1.1-0.1,1.6-0.2c-0.2-0.1-0.5-0.1-0.7-0.3
		C254.1,2.9,254.7,3.1,255.2,3.2z"/>
	<path d="M150.4,4.8c0,0.1,0,0.1,0,0.2c-0.7,0.1-1.3-0.1-1.7,0.3c-0.8-0.1-1.6-0.1-2.4-0.1c0.8-0.2,2,0.1,2.1-0.6
		C148.9,4.8,149.5,5,150.4,4.8z"/>
	<path d="M94.5,1.4c-0.4,0.4-1,0-1.6,0C93.3,1.1,93.9,1.3,94.5,1.4z"/>
	<path d="M260.9,2.5c-0.2,0-0.4,0-0.6-0.1c0.1,0,0.3,0,0.4,0S260.8,2.5,260.9,2.5z"/>
	<path d="M121.3,4.2c-0.4-0.1-0.7-0.1-1.1-0.1c0.4-0.1,0.9-0.2,1.3-0.4C121.3,3.8,121.2,4,121.3,4.2z"/>
	<path class="st0" d="M207.5,5.4c0.3,0,0.6,0,0.9,0C208.1,5.3,207.8,5.4,207.5,5.4z"/>
	<path class="st0" d="M231,4.7c-0.3,0-0.5-0.1-0.8-0.1c0.2,0,0.4-0.1,0.6,0C230.9,4.5,230.9,4.7,231,4.7z"/>
	<path d="M123.9,4.4c-0.1,0-0.3,0-0.4,0c0.1-0.1,0.1-0.3,0.2-0.4C124,4.1,123.9,4.3,123.9,4.4z"/>
	<path class="st0" d="M236.2,4.8c-0.1-0.1,0,0-0.2-0.1s0.5-0.3,0.7-0.2C236.6,4.5,236.4,4.6,236.2,4.8z"/>
	<path d="M139.2,4.9c0,0.3,0,0.4,0.4,0.6c0.3-0.1,0.6-0.1,1-0.2c-0.1,0.2,0.1,0.4,0.4,0.6c1.6-0.1,1.3-1.2,3-0.7
		c-0.6,0-1.7,0.1-1.1,0.6c-1.9,0.6-3.8,0.7-5.9,0.6c-0.7,0-1.4-0.5-2.1-0.6c0.5-0.2,0.9-0.5,1.7-0.4c0.1,0,0.3,0.1,0.4,0.2
		c0.6-0.6,1.9,0.1,2.3-0.6c-0.5-0.1-1-0.2-1.5-0.3C138.1,4.8,138.6,4.8,139.2,4.9z"/>
	<path d="M174.3,5.8c-0.4,0-0.8,0-1.2,0C173.5,5.6,173.9,5.6,174.3,5.8z"/>
	<path d="M182,5.8c-0.5,0.7-1.9,0.2-2.7,0.9c0.6,0.1,1.3,0.1,1.9,0.2c-0.8,0.5-1.8,0.5-2.8,0.3c0.1-0.3,0.3-0.6,0.8-0.6
		c0.1-0.3,0.1-0.5,0.2-0.8C180.3,5.9,181.1,6.2,182,5.8z"/>
	<path d="M177.4,6.5c0.1,0.1,0.2,0.3,0.2,0.4C177.4,7,177.2,7,177,7c0-0.4,0.2-0.6-0.4-0.9c-0.1,0-0.3,0-0.4,0
		c0.3-0.1,0.5-0.3,0.8-0.4c0.2,0.2,0.5,0.5,0.7,0.7C177.7,6.5,177.6,6.5,177.4,6.5z"/>
	<path d="M155,6c-1,0-1.9,0-2.8-0.1C153.2,5.5,154.8,5.1,155,6z"/>
	<path d="M160.8,5.8c-0.8,0.6-1.7-0.1-2.8,0.1C159,5.8,159.8,5.5,160.8,5.8z"/>
	<path d="M132.8,4.9c-0.2,0.1-0.3,0.3-0.2,0.4c0.2,0.3,0.6,0.4,1.1,0.4c0.1,0,0.1-0.1,0.2-0.1c0.1,0.1,0.3,0.1,0.4,0.2
		c-0.2,0.1-0.2,0.2-0.2,0.3c0.1,0.1,0.2,0.1,0.3,0.2c-1,0.4-1.6-0.3-2.6,0.1c-0.6-0.1-1.2-0.4-1.8-0.5c0.7-0.4,2.9-0.1,1.9-0.9
		c-0.3,0-0.5,0-0.8-0.1C131.7,4.8,132.3,4.9,132.8,4.9z"/>
	<path d="M150.1,5.7c0.1,0,0,0.1,0,0.1c-0.5,0.3-1.1-0.1-1.6-0.2C148.9,5.7,149.7,5.5,150.1,5.7z"/>
	<path d="M147.5,6.8c0.2,0.1,0.7,0,0.9,0c-0.2,0.5-1.3,0.7-0.3,1.1c-0.7,0.4-1.1-0.2-1.9-0.3c-1.8-0.1-3.5-0.1-5.3-0.2
		c0.5,0,0.9,0.1,1.2-0.2c-1.1-0.1-2,0-3.1,0.1c-0.5,0.4-1.2,0.6-2,0.4c-0.5-0.1,0.2-0.4-0.6-0.4c0-0.1,0.2-0.3,0.2-0.4
		s-0.1-0.1-0.1-0.1c-2.1,1.4-5.1,1-7.9,0.7c0.9,0.1,1.5-0.1,2.3-0.3c-1.3-0.3-2.5,0-3.7-0.2c4.2-0.3,8.4,0,12.5-0.6
		c0.6,0.8,2,0.3,3.2,0.4c0.1-0.1,0.3-0.1,0.4-0.2C144,7.4,145,7,146.1,7c1-0.4,0.5-0.9,0.2-1.4c0.4,0,0.8-0.1,1.2-0.1
		C147.6,6.1,146.1,6.5,147.5,6.8z"/>
	<path d="M126.4,4.9c0.2,0.1-0.3,0.2-0.4,0.3c-0.4-0.1-0.8-0.1-1.2-0.2C125.3,4.9,126,4.8,126.4,4.9z"/>
	<path d="M203.9,6.3c0.4,0,0.8,0,1.2,0C204.7,6.3,204.3,6.3,203.9,6.3z"/>
	<path class="st0" d="M216.5,6c0.4,0,0.9,0,1.3,0.1C217.4,6,217,6,216.5,6z"/>
	<path d="M172.5,6.6c-0.5,0-1,0-1.5,0C171.6,6.3,172,6.5,172.5,6.6z"/>
	<path class="st0" d="M249.5,4.5c0.2,0,0.5,0,0.7-0.1C250,4.4,249.7,4.4,249.5,4.5z"/>
	<path class="st0" d="M266.4,3.2c-0.3,0-0.5,0.1-0.8,0.1C265.8,3.1,266.2,3.1,266.4,3.2z"/>
	<path d="M122.3,5c-0.9,0.1-1.6,0.2-2.4-0.1C120.7,5,121.5,5,122.3,5z"/>
	<path class="st0" d="M283.3,2.2c-0.7-0.1-1.6,0.3-1.8-0.2C282.1,2.1,282.7,2.1,283.3,2.2z"/>
	<path d="M99.1,3c0.2,0.1,0.3,0.1,0.5,0.1C99.4,3.1,99.3,3.1,99.1,3z"/>
	<path d="M159.8,6.7c1.4,0,2.7,0.1,4-0.1c0,0.1,0,0.1,0,0.2c-1.8,0.3-3.6,0.1-5.5,0.1C158.8,6.8,159.4,6.4,159.8,6.7z"/>
	<path d="M94.4,2.9c-0.5,0.1-0.9,0.2-1.3,0C93.5,2.6,93.8,2.8,94.4,2.9z"/>
	<path class="st0" d="M137.4,5.9c0.2,0.1-0.1,0.1-0.2,0.1c-0.1,0-0.4,0-0.5,0C136.6,5.8,137.3,5.9,137.4,5.9z"/>
	<path d="M126.6,5.8c-1.4,1-3.4,0.6-5.4,0.6c0.6-0.3,1,0.1,1.6-0.2c-0.3-0.1-0.7-0.2-0.9-0.4c-0.1-0.1,0-0.1,0-0.2
		c1.1-0.1,2.1,0.9,2.6,0.1C125.4,5.6,126,5.3,126.6,5.8z"/>
	<path d="M155.2,6.9c-0.9,0.6-2.1,0.6-3.4,0.6c-0.3-0.7-1.2-0.5-2.3-0.7c1.9,0.1,3.6-0.4,5.5-0.3C155.1,6.7,155.1,6.8,155.2,6.9z"/>
	<path class="st0" d="M219.3,6.8c-0.2,0.1-0.4,0.2-0.5,0.4c-0.2-0.1-0.4-0.2-0.6-0.3c-0.9,0.3-0.6,0.7,0,1.1
		C217.3,8,216.4,8,215.5,8c0-0.1-0.2-0.2-0.4-0.3c0.3-0.1,0.5-0.3,0.2-0.6C215,7,214.5,6.8,214,7c-0.1,0.1-0.3-0.1-0.4-0.1
		C215.6,6.6,217.4,6.5,219.3,6.8z"/>
	<path d="M157,6.8c-0.2,0-0.4,0-0.5,0C156.6,6.7,156.9,6.7,157,6.8z"/>
	<path d="M203.4,7c0.2,0,0.4,0,0.6,0c-0.9,0.7-2.2,0.4-3.5,0.6c-0.2-0.1-0.4-0.2-0.6-0.3C201.4,6.6,202.2,8.1,203.4,7z"/>
	<path class="st0" d="M276.9,2.9c-0.1,0.1-0.2,0.3-0.3,0.4c0,0.1-0.2,0.1-0.2,0.1c-0.3-0.1-0.1-0.4-0.6-0.4c-0.1,0-0.3,0-0.4,0
		C275.9,2.8,276.4,3,276.9,2.9z"/>
	<path d="M121.2,5.5c-0.2,0.2-0.7,0.1-1.1,0.2C120.5,5.5,120.6,5.3,121.2,5.5z"/>
	<g>
		<path d="M210.4,7h0.1c0,0.1,0,0.2,0,0.3h-0.1C210.4,7.3,210.4,7.1,210.4,7L210.4,7z"/>
		<path d="M210.4,7.2"/>
	</g>
	<path class="st0" d="M223.7,7c-0.8,0.2-1.5,0.1-2.1-0.2c0.7,0,1.4,0,2.1,0C223.7,6.8,223.7,6.9,223.7,7z"/>
	<path d="M72.2,1.2c-0.1,0.1-0.5,0.2-0.7,0.1c0.2-0.1,0.4-0.1,0.6-0.3C72.1,1.1,72.3,1.1,72.2,1.2z"/>
	<path d="M128.2,6.1c0.1-0.1,0.2-0.1,0.2-0.2c0.2,0,0.4,0,0.5,0C128.8,6,128.5,6,128.2,6.1z"/>
	<path class="st0" d="M284.8,3.6c-0.7,0.4-2.1,0.1-2-0.4c0.3-0.2,0.1-0.4-0.3-0.5C284.4,2.5,283.1,3.4,284.8,3.6z"/>
	<path d="M165.1,7.8c-0.9-0.1-1.4,0.5-2.5,0.4c0.2-0.1,0.4-0.3,0.6-0.4c-0.3-0.4-0.9-0.4-1.5-0.4C163.1,7.3,164.1,7.1,165.1,7.8z"/>
	<path class="st0" d="M231.5,6.6c-0.2,0.1-0.5,0.3-0.9,0.3c0-0.1,0.1-0.2,0.1-0.3C230.9,6.6,231.2,6.6,231.5,6.6z"/>
	<path class="st0" d="M232.9,6.7c0.1,0.1-0.6,0.1-0.7,0.1C232.3,6.7,232.8,6.5,232.9,6.7z"/>
	<path d="M180.3,7.9c-0.2,0.3-0.7,0.1-1.1,0C179.5,7.8,179.9,7.8,180.3,7.9z"/>
	<path class="st0" d="M277.4,3.4c0.2,0,0.4,0,0.5-0.1C277.7,3.3,277.5,3.4,277.4,3.4z"/>
	<path d="M68.2,1.3c-0.3,0.1-0.6,0-0.9,0c0.1-0.1,0.1-0.1,0.2-0.2C67.6,1.3,67.9,1.3,68.2,1.3z"/>
	<path d="M87.7,3.4c-0.1,0.2-0.2,0.5-0.3,0.7c-0.7-0.1-1.2,0.1-1.7-0.3c0.3,0.1,0.5-0.1,0.8,0c0.1-0.2,0.2-0.4,0.3-0.6
		C86.9,3.4,87.3,3.3,87.7,3.4z"/>
	<path d="M108.8,5.8c0,0.1-0.1,0.2-0.3,0.3c0.1-0.2-0.1-0.3-0.3-0.5c0.3-0.1,0.5-0.2,0.8-0.4c0.2,0.2,0.3,0.4,0.5,0.6
		C109.2,5.9,109,5.8,108.8,5.8z"/>
	<path d="M79.2,2.5c-0.3,0.1-0.5,0.2-0.8,0.1C78.7,2.5,78.9,2.5,79.2,2.5z"/>
	<path class="st0" d="M251.8,5.9c-0.6,0.2-1.2,0.2-1.9,0.1C250.5,6,251.2,6,251.8,5.9z"/>
	<path d="M160.6,8c-0.2,0.4-1,0.2-1.5,0.5c0.4,0.4,0.7,0.1,1.3,0c0.1,0,0.2,0,0.2,0c0.1,0.1,0,0.1,0,0.2c-1,0.1-1.9,0.1-2.8,0.3
		c-0.1-0.1-0.4-0.2-0.4-0.3C159.1,9,158.8,8,160.6,8z"/>
	<path class="st0" d="M238.4,7c0.1,0.1-0.4,0.3-0.3,0.3c0.1,0.1,0.7,0.1,0.9,0c0.5-0.2,0.9-0.6,1.6-0.4c-0.4,0.3-0.9,0.1-1.1,0.5
		c-0.8,0.1-1.6,0.2-2.4,0.1C237.6,7.3,237.8,7,238.4,7z"/>
	<path class="st0" d="M252.4,6c0.3,0,0.6-0.1,0.9-0.1C253,6,252.7,6,252.4,6z"/>
	<path class="st0" d="M254.5,5.9c-0.3,0-0.5,0.1-0.8,0.1C253.9,5.8,254.2,5.8,254.5,5.9z"/>
	<g>
		<path class="st0" d="M226.9,7.7c0.1,0,0.3,0,0.4,0c0,0.1,0,0.2,0,0.3c-0.1,0-0.3,0-0.4,0C226.9,7.8,226.9,7.8,226.9,7.7L226.9,7.7
			z"/>
		<path class="st0" d="M227.1,7.8"/>
	</g>
	<path d="M125.9,7.9c-2.1,0-4.2,0.1-6.4-0.1c0-0.1,0-0.1,0-0.2c-0.8,0.3-1.5-0.3-2.3,0.1c-1.3-0.1-2.6-0.2-3.9-0.3
		c1.3-0.1,2.6,0.2,3.6-0.4c0.4,0.5,1.1-0.1,1.7-0.1c2.4,0.4,4.6,0,7,0C125.9,7.3,125.9,7.5,125.9,7.9z"/>
	<path class="st0" d="M211.7,8.4L211.7,8.4c-0.6,0.1-1.2,0.1-1.7,0.1C210.5,8.3,211.1,8.5,211.7,8.4z"/>
	<path class="st0" d="M233.8,7.5c-0.4,0.1-1.3,0.4-1.6,0C232.7,7.5,233.2,7.5,233.8,7.5z"/>
	<path class="st0" d="M246.3,7.8C247.1,8,248,8,248.8,8c0.7,0.3,1.3-0.1,2,0c0.1-0.1,0.2-0.1,0.4-0.2c-0.2-0.1-0.5-0.2-0.8-0.2
		c0.4-0.1,0.8-0.3,1.1-0.4C251.4,7,251.2,7,251.1,7c3.1,0,6.2-0.2,9.2,0.1c-1.2,0.4-2.7-0.3-3.5,0.5c0.1,0.1,0.1,0.3,0.2,0.4
		c-3.8,0.4-7.6,0.3-11.5,0.6c0.1-0.4,0.5-0.6,0.6-1c-0.3,0-0.6-0.1-0.9-0.1C245.1,6.8,247,7,247.7,7C247.3,7.2,246.8,7.5,246.3,7.8z
		"/>
	<path class="st0" d="M250.2,6.8c-0.3,0-0.5,0.1-0.8,0.1C249.7,6.8,250.1,6.5,250.2,6.8z"/>
	<path class="st0" d="M125.6,7.5c-0.4,0.1-0.9,0.1-1.3,0.1C124.5,7.2,125.1,7.2,125.6,7.5z"/>
	<path d="M96.8,5c-0.3,0.1-0.7,0.1-1.1,0C96.1,5.2,96.4,5,96.8,5z"/>
	<path d="M155.3,8.6c-0.4,0.5-1,0.8-0.9,1.4c0.4,0.1,0.7,0.1,1.1,0.1c-1.3,0-2.6,0.1-4,0.1c0.4-0.1,0.7-0.1,1.1-0.2
		c-0.4-0.2-0.8-0.4-1.2-0.6c0.7,0,1.5,0.2,2.1-0.1c-0.9,0-1.8-0.1-2.7-0.1c0.7-0.1,1.4-0.2,2.1-0.4c-0.1-0.1-0.2-0.1-0.2-0.1
		C153.5,8.4,154.5,8.6,155.3,8.6z"/>
	<path class="st0" d="M203.6,9C203.3,9,203,9,202.7,9c0.2,0,0.5,0,0.7,0C203.5,9,203.5,9,203.6,9z"/>
	<path d="M87.3,4.6C87,4.8,86.7,4.8,86.4,5c0.1,0.1,0.2,0.1,0.4,0.3c-0.3,0.1-0.5,0.2-0.9,0.2s0.2-0.6-0.6-0.6
		c0.3-0.2,0.7-0.4,1-0.5C86.7,4.5,86.8,4.6,87.3,4.6z"/>
	<path d="M93.5,5c-0.4,0.1-0.8,0.2-0.6,0.5L93,5.5c-0.6-0.1-1.2-0.1-1.8-0.3c0.6-0.1,1-0.3,1.3,0.1C92.8,5.1,92.6,4.8,93.5,5z"/>
	<path d="M113.6,6.9c-0.3,0.1-0.7,0-1.1,0.1c0.1,0.1,0.2,0.2,0.3,0.4c-2.5,0-4.7,0.4-7.1-0.1c2.5-0.1,5,0.4,7.2-0.4
		C113.2,6.9,113.4,6.9,113.6,6.9z"/>
	<path d="M148.3,8.5c-0.8,0.4-0.4,0.9-1.5,1c0-0.1,0-0.3,0-0.4c0.4,0,0.7-0.1,1-0.2c-0.5-0.3-1.2,0.2-1.2-0.4
		C147.2,8.7,147.7,8.5,148.3,8.5z"/>
	<path d="M138.8,9.3c0.7,0.4,2.1,0.4,1.4,1c-0.3,0.2-1.2-0.1-1.3,0.3c1.3,0,2.3,0.7,3.4,0.1c0-0.1,0-0.3,0-0.4c0.1,0,0.3,0,0.4,0
		c-0.6,0.5,0.5,0.4,0.9,0.7c0.3-0.1,1.1,0.1,1.1-0.2c-0.1-0.5-1.4-0.6-1.8-1.1c0.9,0,1.7-0.1,2.6-0.1c0.6,0.7,0.6,1.6,2.2,1.9
		c0.2-0.1,0.4-0.2,0.6-0.3c-0.4-0.3-0.7-0.5-1.1-0.8c0.7-0.4,1.4-0.6,2.5-0.7c-0.2,0.1-0.2,0.1-0.2,0.3s0.5,0.1,0.5,0.3
		s-1.5,0.1-0.9,0.7c0.4,0.4,1.4,0.4,1.8,0.9c-2.4,0.6-4.9,0.4-7.6,0.4c-1.3-0.5-2.8,0-4.2-0.1c-0.1-0.3,0.4-0.5,0.8-0.6
		c1.1,0.5,1.9,0.1,3-0.2c-3.6-0.2-7.2,0.1-10.9-0.1c-1,0.4,0.7,0.7-0.6,0.9c-0.8-0.1-1.6-0.2-2.4-0.4c0.3-0.3,0.9,0,1-0.4
		c-0.4-0.1-1-0.3-1.5-0.3c0.7-0.5,2.6,0.1,2-0.7c0.2,0,0.5-0.1,0.5-0.2c0.1-0.1,0-0.2-0.1-0.3c1.5-0.1,2.8-0.5,4.3-0.4
		c0.5,0.6,1.5,0.1,2.4,0.1c0.6-0.3,0.3-0.6-0.2-0.9C138.4,8,139.8,8.7,138.8,9.3z"/>
	<path d="M72.4,3.5c0.1-0.1,0.1-0.1,0.2-0.1c0.3,0,0.5,0.1,0.8,0.1C73,3.5,72.7,3.5,72.4,3.5z"/>
	<path class="st0" d="M175.2,9.6c-0.5-0.1-1.1-0.1-1.6-0.1c0.4,0,0.9,0,1.3,0C175,9.5,175.1,9.6,175.2,9.6z"/>
	<path class="st0" d="M180.9,9.8c0.4,0.1,0.8,0.2,1.3,0.4c-0.5,0.1-1,0.1-1.5,0.1c0-0.1,0-0.4,0-0.5c0.1,0,0.3,0,0.4,0
		C181,9.8,180.9,9.8,180.9,9.8z"/>
	<path d="M254.6,7.5c-0.9,0.5-2,0.1-3.2,0.2C252.4,7.4,253.4,7.3,254.6,7.5z"/>
	<path d="M126.1,8.3c0.2,0,0.4-0.1,0.6-0.1c0,0.1,0.1,0.1,0.1,0.1C126.5,8.4,126.3,8.3,126.1,8.3z"/>
	<path d="M159.4,9.4c-0.5,0.2-1.1,0.1-1.7,0.1C158.3,9.5,158.8,9.4,159.4,9.4z"/>
	<path class="st0" d="M173.7,9.9c0.1,0.1-0.9,0.1-1.1,0.1C172.8,9.9,173.7,9.8,173.7,9.9z"/>
	<path d="M255.6,7.6c0-0.1,0.1-0.2,0.1-0.3c0.1,0.1,0.3,0.2,0.4,0.4C255.9,7.7,255.7,7.7,255.6,7.6z"/>
	<path d="M67.4,3.5c-0.9,0.1-1.7,0.4-2.7,0.1C65.5,3.3,66.5,3.2,67.4,3.5z"/>
	<path class="st0" d="M197.1,10.1c-0.6,0.1-1.3,0.2-1.7-0.1C196,10,196.6,9.9,197.1,10.1z"/>
	<path d="M74.7,4.2c0.2,0,0.5,0.1,0.7,0.1C75.1,4.2,74.9,4.2,74.7,4.2z"/>
	<path d="M160,10.1c-1,0.1-1.9-0.1-2.9,0C158,9.7,159,10,160,10.1z"/>
	<path class="st0" d="M266.1,6.9c-0.4,0.3-1,0.2-1.5,0.1C265.1,6.9,265.6,6.9,266.1,6.9z"/>
	<path d="M78.8,5.1c0-0.1,0.1-0.3,0.1-0.4c0.4,0.1,0.7,0.2,1,0.4C79.6,5,79.2,5.1,78.8,5.1z"/>
	<path d="M92.9,6.8c-2.2,0-4.4-0.1-6.6,0c0-0.1,0-0.2,0.1-0.3c2.1,0.3,4-0.5,5.9,0.2c0.5-0.1,1.1-0.4,1.6-0.5
		C93.6,6.5,92.8,6.3,92.9,6.8z"/>
	<path d="M101.3,7c0,0.4-0.5,0.2-1,0.3c-1.6-0.1-3.2-0.3-4.8-0.4C97.4,7,99.3,6.9,101.3,7z"/>
	<path d="M116.3,8.3c-0.2,0.1-0.8,0-1.1,0C115.6,8.3,116,8.3,116.3,8.3z"/>
	<path class="st0" d="M166.2,10.3c-0.6,0.3-1.2,0.1-1.9,0.2C165,10.5,165.5,10.3,166.2,10.3z"/>
	<path class="st0" d="M173,10.8c-0.4-0.1-0.9-0.2-1.3-0.4c0.6,0,1.2,0,1.7,0C173.3,10.5,173.1,10.6,173,10.8z"/>
	<path d="M75,5c-0.2-0.1-0.5-0.2-0.7-0.3c0.3,0,0.5,0.1,0.8,0.1C75.1,4.8,75.1,4.9,75,5z"/>
	<path d="M130.3,9.6c-0.4,0.4-0.7,0.6-1.5,0.6C128.9,9.7,129.5,9.2,130.3,9.6z"/>
	<path class="st0" d="M196.7,11c0,0.2-0.8,0.1-1,0.1C195.5,10.8,196.7,10.6,196.7,11z"/>
	<path class="st0" d="M263,7.9c-0.7,0.3-1.3,0-1.9-0.1C261.7,7.8,262.4,7.8,263,7.9z"/>
	<path d="M110,8.8c-0.6-0.1-1.2-0.1-1.9-0.1C108.9,8.4,110.1,8,110,8.8z"/>
	<path d="M128.4,9.5c-0.3-0.1-0.5,0.1-0.6,0.2c-0.1,0.1,0.1,0.3,0.1,0.4c-0.2,0-0.5,0.1-0.5,0.2c-0.2,0.2,0.3,0.4,0.1,0.6
		c-0.1,0.1-0.2,0.1-0.3,0.2c-0.2-0.2-0.4-0.4-0.8-0.6c-0.5-0.1-1.2,0.1-1.3,0.4c-0.2,0.3,0.1,0.5,0.5,0.6c0.8,0.1,1.4-0.1,2.1,0.1
		c-1.5,0.1-2.6-0.4-3.8,0.4c0.3,0.2,0,0.4,0.3,0.6c0.6-0.1,1.1-0.2,1.7-0.3c-0.7,0.8-2.3,0.6-3.3,1.2c0.1,0.2,0.2,0.4,0.3,0.6
		c-0.5,0-1-0.1-1.5-0.1c0.4-0.1,0.8-0.3,1.1-0.4c-0.6-0.4-0.2-0.9-1.5-0.5c-0.2,0-0.4,0-0.6-0.1c0.3-0.1,0.7-0.2,1-0.4
		c-0.2-0.2-0.6-0.1-0.9-0.2c1.1-0.1,2.1,0.1,3-0.4c-1.6-0.3-3.3-0.3-5-0.5c-0.3-0.1-0.6-0.1-0.9-0.1c0.3-0.1,0.6-0.1,1-0.2
		c-0.5-0.2-1-0.1-1.6-0.2c0.5-0.2,1.3-0.1,0.8-0.6c0.7-0.1,1.3,0,1.9-0.3c-0.1-0.1-0.2-0.2-0.4-0.4c1.3-0.5,2.8-0.5,4.4-0.5
		c0,0.1,0,0.4,0,0.5c1.2,0.3,2.4,0.1,3.6,0.1c-0.8-0.4-1.7-0.3-2.7-0.1l-0.1-0.1c0.7-0.4,1.8-0.2,2.7-0.3
		C127.7,9.4,128,9.5,128.4,9.5z"/>
	<path class="st0" d="M136.8,10.5c-0.1-0.1-0.1-0.3-0.2-0.4c-0.9,0.1-1.8-0.1-2.6,0.2c0.4,0.2,0.8,0.2,1.4,0.1
		c0.1,0,0.1-0.1,0.2-0.1c-0.6,0.3-1.4,0.2-2.1,0.3c-0.4-0.2,0.1-0.3,0.2-0.5c1-0.4,2.1,0.1,3-0.4c0.9,0.1,1.8,0.1,2.7,0.2
		C138.5,10.2,137.7,10.3,136.8,10.5z"/>
	<path d="M55.9,3c0.4,0.1,0.9,0.1,1.3,0.2C56.7,3.1,56.3,3.1,55.9,3z"/>
	<path d="M81.4,5.8c0.4,0,0.8-0.1,1.1-0.1c-0.3,0.1-0.7,0.1-1,0.2C81.5,5.9,81.4,5.9,81.4,5.8z"/>
	<path d="M64.9,4.1c-0.7,0,0.1,0.1,0.2-0.1c0.1,0,0.3,0,0.4,0.1C65.4,4.1,65.1,4.1,64.9,4.1z"/>
	<path d="M71.1,4.8c-0.9,0-1.6-0.2-2.3,0.1c-0.2-0.1-0.3-0.2-0.5-0.4c1,0,1.9-0.1,2.8,0.1C71.1,4.7,71.1,4.8,71.1,4.8z"/>
	<path class="st0" d="M133.1,9.8c0,0.4-0.8,0.4-1.2,0.7c0.1-0.2,0.1-0.5,0.2-0.7C132.5,9.8,132.8,9.8,133.1,9.8z"/>
	<path class="st0" d="M174.7,11.3c0,0.1-0.2,0.1-0.4,0.1c-0.4-0.1,0-0.4,0.2-0.4S174.8,11.3,174.7,11.3z"/>
	<path class="st0" d="M180.2,11.2c-0.6,0.4-1.4,0.1-2.1,0.3C178.6,11,179.4,11.2,180.2,11.2z"/>
	<path class="st0" d="M186.3,11.2c0.8-0.2,0.7,0.6,1.4,0.1c-0.5,0.6-1.3,0.7-2.3,0.4c-1,0.3-1.9-0.2-2.9,0.2
		c0.2,0.2,0.5,0.1,0.8,0.1c-0.4,0.1-1.2,0.2-0.8,0.5c0.4,0.3,0.5,0.2,0.2,0.6c-1.1,0-0.8-0.5-1.7-0.6c1.2,0.2,0.6-1.1,1.5-1.2
		C183.8,11.1,185.1,11.5,186.3,11.2z"/>
	<path class="st0" d="M190.1,11.1c0.4,0.1,0.8,0.1,1.2,0.1C190.9,11.2,190.5,11.2,190.1,11.1z"/>
	<path d="M79.1,5.7c-0.4,0.2-0.8,0-1.2,0C78.3,5.6,78.7,5.6,79.1,5.7z"/>
	<path d="M118.1,9.7c0.1,0.6-0.8,0.2-1.2,0.6c-0.2-0.5,0.6-0.2,1-0.6c-1,0-1.9-0.3-2.9,0c0,0.6,0.9,0.7,0.7,1.3
		c-0.3,0-0.4-0.1-0.7,0.1c-0.6,0.3-1.5,0.3-2.2,0.4c-0.3-0.1-0.5-0.1-0.8-0.1c0.1-0.2,0.1-0.5,0.2-0.7c0.1,0,0.3,0,0.4-0.1
		s0.1-0.3-0.1-0.3c-0.2-0.1-0.3,0.1-0.4-0.1c-0.1-0.1,0.3-0.1,0.2-0.2s-0.6-0.1-0.9-0.2c0.8-0.1,1.4-0.1,1.8-0.5
		c-0.4-0.2-0.9-0.1-1.3-0.2c0.6-0.1,1.3-0.1,1.9-0.2c0,0.1,0,0.3,0,0.4c1.8,0.4,2.5-0.6,4.2-0.3C118,9.3,118.1,9.6,118.1,9.7z"/>
	<path d="M102.8,8.5c-1,0.1-0.4,0.6-0.5,0.9c-0.2,0.5,0.8,0.8-0.1,1.1c-0.6-0.1-1.3-0.1-1.9-0.1c1.3-0.1,1-0.6,1.1-1.2
		c-0.5-0.4-1.2-0.3-1.8-0.4c0.4-0.1,0.8-0.3,1.3-0.4c-0.2-0.1-0.4-0.3-0.8-0.3C101.1,8,103,7.6,102.8,8.5z"/>
	<path class="st0" d="M173.5,11.3c0.1,0.1,0,0.1,0,0.2c-0.4-0.1-0.8-0.2-1.3-0.4C172.7,11.2,173.3,11,173.5,11.3z"/>
	<path d="M62.9,4.6c0.1,0,0.2,0,0.2,0C62.4,4.8,62,5,61.3,4.8c0.3-0.1,0.6-0.2,0.9-0.4c-0.3-0.2-0.6-0.1-0.9-0.2
		c0.6-0.1,1.1-0.1,1.7-0.1C62.9,4.3,62.9,4.5,62.9,4.6z"/>
	<path class="st0" d="M176.6,11.3c-0.1,0.3-0.7,0.3-0.8,0C176.1,11.3,176.4,11.3,176.6,11.3z"/>
	<path class="st0" d="M201.1,11.7c0.1-0.1,0.2-0.1,0.2-0.2c0.3,0.4-0.8,0.4-1.3,0.6c-0.8,0-1.5-0.1-2.3-0.1c0.1-0.1-0.2-0.3-0.4-0.2
		c-1,0.2-1.5,0.5-2.5,0c1.2,0.1,1.6-0.6,2.8-0.2C198.9,11.4,200,11.5,201.1,11.7z"/>
	<path d="M57.1,3.6c-0.4,0.1-0.8,0.1-1.2,0.1C55.8,3.4,56.8,3.6,57.1,3.6z"/>
	<path d="M72.5,5.5c-1.2,0.4-2.6,0-3.9,0.3C69,5.8,69.3,5.9,69.7,6c-0.8,0.5-1.5,0.9-1.1,1.7c0.3,0.1,0.6,0.4,0.8,0.5
		c-0.5,0.1-1.1,0.4-1.6,0.1V8.2c-0.5-0.5-1.7-0.2-2.5-0.1c0.5,0.3,0.3,0.4,0.2,0.7c-0.3,0-0.5,0.1-0.8,0c0.2-0.2,0.4-0.4,0.5-0.6
		c-0.7-0.1-1.5,0.1-2-0.2c1.2-0.1,2.5-0.1,3.7-0.3c-0.2-0.3-0.6-0.4-1.1-0.2c0.7-0.1,1.3-0.3,2-0.4c-0.6-0.2-1-0.5-1.8-0.6
		c0.4,0,0-0.3,0.3-0.4c0.7-0.1,1.4,0,2-0.4c-0.4-0.4-1.1-0.1-1.6-0.3c-0.1-0.1,0-0.1-0.2-0.2c1.4-0.2,2.6,0.3,3.9-0.1
		c0.1,0.1,0.2,0.1,0.3,0.2C71.2,5,71.9,5.3,72.5,5.5z"/>
	<path class="st0" d="M188.8,12c0.4,0.1,0.8,0.3,1.2,0.4c-0.1,0-0.2,0.1-0.2,0.1c0.6,0.1,1,0.3,1.6,0.2c-0.2,0.4,0.6,0.3,0.9,0.3
		c0.3,0,0.3,0,0.6,0c-1.9,0.3-3.8,0.1-5.7,0.1c-0.3-0.1-0.4-0.4-0.8-0.5c-0.6-0.1-1.4,0.2-1.9-0.1c1.3,0.1,2.5-0.1,3.8-0.4
		c-0.2-0.1-0.4-0.1-0.6-0.2c1.2-0.2,2.2-0.3,3.4-0.1C190.3,11.8,189.5,11.9,188.8,12z"/>
	<path d="M60.9,4.3c-0.2,0.5-0.8,0.7-1.7,0.6c-0.1,0-0.4-0.1-0.5-0.1C59.6,4.8,60,4.3,60.9,4.3z"/>
	<path d="M79.4,6.2c-0.9,0.5-2.2,0.1-3.3,0.1C77.1,5.8,78.3,6.2,79.4,6.2z"/>
	<path d="M107.6,9.3c0.5-0.5,1.5-0.1,2.3-0.2C109.2,9.4,108.4,9.3,107.6,9.3z"/>
	<path class="st0" d="M137.9,10.8c-0.5,0.1-1,0.1-1.5,0.1C136.9,10.8,137.4,10.7,137.9,10.8z"/>
	<path class="st0" d="M144.1,11.5c-0.2-0.5,0.5-0.2,1-0.4c0.1,0.1,0.1,0.3,0.2,0.4C144.9,11.5,144.5,11.5,144.1,11.5z"/>
	<path d="M89.8,7.6c0.4-0.1,0.7-0.1,1.1-0.1c0,0.1,0,0.1,0,0.2C90.5,7.7,90.1,7.7,89.8,7.6z"/>
	<path class="st0" d="M124.5,10.4c-0.8,0.1-2-0.1-2.5,0.4c-0.4-0.1-0.7,0-0.9-0.2C122.3,10.4,123.3,10,124.5,10.4z"/>
	<path class="st0" d="M173.5,12.3c-1.4,0.2-2.9,0-4.4,0.1c0-0.1,0-0.2,0-0.3c0.9,0.3,2.5,0.1,3.1-0.2
		C173.1,11.5,173.2,12.1,173.5,12.3z"/>
	<path class="st0" d="M204.6,12.2c-0.8,0.1-1.4,0-1.9-0.4C203.4,11.9,203.9,12.2,204.6,12.2z"/>
	<path d="M88.1,7.4c0.1,0.1,0,0.3-0.2,0.3s-0.3,0-0.4-0.1C87.6,7.5,87.7,7.3,88.1,7.4z"/>
	<path d="M98.3,8.8c0.1,0.1-0.1,0.4-0.4,0.5C97.6,9,97.1,9,96.6,8.8C97.4,8.7,97.7,8.1,98.3,8.8z"/>
	<path class="st0" d="M207.4,12.1c-0.5,0.3-1.4,0.1-2.1,0.1C205.8,11.9,206.7,12,207.4,12.1C207.4,12,207.5,12.1,207.4,12.1z"/>
	<path class="st0" d="M166.7,12.1c-0.6,0-1.3,0-1.9,0C165.5,12,166,12.4,166.7,12.1z"/>
	<path class="st0" d="M176.2,12.4c-0.4,0.2-1,0.1-1.1-0.2C175.5,12.2,175.9,12.2,176.2,12.4z"/>
	<path d="M62.7,6.4c0.5,0.4,0.8-0.1,1.3,0.1c-1.1,0.1-2-0.1-3.1-0.2c0.3,0.1,0.4-0.1,0.6-0.1c-0.2-0.4-0.7-0.2-1-0.1
		c-0.3,0.1-0.3,0.1-0.5,0.2c0.1,0.1,0.2,0.1,0.4,0.2C60,6.7,59.7,6.8,59.3,7c0.1,0.1,0.3,0.1,0.5,0.1c-0.2,0.1-0.4,0.1-0.6,0.1
		c0.2,0.3,0.6,0.5,1.3,0.4c0.2,0,0.4-0.1,0.6-0.2c-0.1,0.1-0.3,0.1-0.4,0.1c0.1,0.1,0.2,0.1,0.4,0.1c-0.5,0.1-1,0.2-1.4,0.3
		c0.8,0.1,1.5,0.1,2.3,0.2c-1.2,0.1-2.3,0.1-3.5,0.2c0.8,0.6,1.9,0.3,3.2,0.5c2.6,0.1,5,0,7.5-0.4c0,0.2-0.3,0.4,0.1,0.6
		c0.1,0,0.2,0,0.3,0c-0.8,0.1-0.5,0.6-0.9,0.9c-1.3,0.1-2.5,0.1-3.9,0.1c-0.4,0-0.9-0.5-1.3-0.1c-0.1,0.1,0,0.1,0.1,0.2
		c-0.3,0.1-0.5,0.1-0.8,0.1c0.5,0.1,1,0.1,1.5,0.1c-0.4,0.1-0.8,0.1-1.2,0.2l0.1,0.1c-0.4,0.1-0.7,0.3-1.1,0.4
		c0.5,0.3,1.1,0,1.4,0.4c-0.4,0.1-0.8,0.3-1.2,0.4c0.2,0.2,0.6,0.2,0.9,0.4c-0.5,0.1-0.9,0.2-1.4,0c-0.3-1-2-0.5-3.3-0.8
		c-0.3,0-0.2,0.2-0.3,0.2c-0.2,0-0.5-0.1-0.6-0.2c1.5-0.1,2.9,0.1,4.4-0.2c-0.1-0.1-0.2-0.2-0.3-0.4c0.3-0.1,0.7-0.2,1-0.4
		c-0.3-0.2-0.7-0.1-1.2-0.2c0.1-0.1,0.2-0.2,0.3-0.3c-1.6-0.5-3-0.6-4.7-0.1c0.1,0.2,0.4,0.4,0.2,0.7c-1.8,0.2-3.1-0.5-4.8-0.1
		c0-0.3-0.6-0.3-0.7-0.6c-1.3,0-2.4,0.4-3.8,0.4c-0.2,0.1-0.4,0.2-0.7,0.4c-1.7-0.2-3.4-0.5-5-0.7c0.8-0.1,1.7,0.1,2-0.4
		c-0.2-0.1-0.3-0.2-0.5-0.4c0.5-0.1,1.1-0.1,1.6-0.3c-1.1-0.3-2.2-0.4-3.3-0.1c0.4,0.2,1.1,0.2,0.8,0.6c-0.5,0-1,0-1.5-0.1
		c-0.5,0.2-0.1,0.4,0.2,0.6c-2,0.8-3.4-1-4.9,0.2c-0.7-0.1-1.6,0-1.6-0.5c-2.1,0.6-4.4,0.5-6.7,0.1c-2.6,0.7-5.3,0.3-8.1,0.6
		c-3.1-0.1-6.2-0.1-9.3,0.3c-0.2-0.1-0.3-0.1-0.5-0.2c-0.8,0.2-1,0.8-2,0.4c0.1-0.1,0.3-0.1,0.4-0.2C7,10.8,5,10.9,3.1,10.8
		C2.4,11,1.7,11,1,10.8c2.3-0.4,4.8-0.4,7.1-0.4c1.8,0,3.3-0.6,4.8,0.1c1.3-0.6,2.9-0.4,4.4-0.6c0-0.1,0-0.1,0.1-0.1
		C13.1,10,8.7,10,4.3,10.3C4.4,10.1,4.2,10,4,9.9c2.9-0.2,5.7,0,8.4-0.6c1.4,0.6,2.2-0.6,3.2,0.1c1.3-0.1,2.7,0.5,3.4-0.3
		c1,0.1,1.8,0.1,2.7-0.1c0.4,0.8,1.8,0.3,2.9,0.4C25.4,9,24,9,23.8,9c-0.1,0,0.4,0,0.3-0.1c-2.3-0.1-4.6-0.4-6.9-0.4
		c0.4,0.1,0.9,0,1.2-0.1C18.6,8.3,18.1,8.1,18,8C17.6,8,17.3,8,17,8.1c1.8-0.6,4-0.4,5.8-0.9c0.2-0.1-0.2-0.3-0.3-0.4
		c-0.1-0.1-0.2,0-0.3,0C24,7,25.5,6.4,27,6.8c3.9,0,7.6-0.6,11.4-0.8c0.1-0.1-0.1-0.1-0.1-0.2c0.2-0.1,0.5-0.1,0.7-0.1
		c0.2,0.9-1.7,0.5-2.7,0.7c-0.1,0-0.3,0.1-0.4,0.1c0,0,0.1,0.1,0.1,0.1c-1.8,0.2-3.6,0.2-5.4,0.4c-0.7-0.1-0.2,0.2-0.6,0.2
		c-1.9,0.2-3.9,0.1-5.8,0.4c0.2,0.1,0.3,0.1,0.5,0.2c2.9,0.2,5.8-0.1,8.7-0.1c0.3,0.4,0.9,0.6,1.7,0.5c0.2,0,0.4-0.1,0.6-0.1
		C35.3,8.1,34.8,8,34.4,8c0.5,0,0.9-0.1,1.4-0.1c-0.4,0.3,0.3,0.8-0.8,0.6c-0.5-0.1-1-0.1-1.4,0.1c1.3,0.4,2.6,0.1,4,0.2
		c-0.6,0.9-2.4,0.5-3.7,0.8c-0.4,0.1,0,0.3,0.1,0.4c1.8-0.2,3.7,0.1,5.1-0.6c0.9-0.1,1.8-0.1,2.7-0.2C41,9,40.1,9,39.2,9
		c1.2-0.6,2.6,0.2,2.9-0.9c-0.2-0.1-0.3-0.3-0.6-0.3c0.4-0.2,0.9-0.3,0.5-0.6c-0.2-0.1-0.6-0.3-0.8-0.4c0.4-0.1,0.8-0.1,1.2-0.1
		c-0.1-0.1-0.1-0.1-0.2-0.1c1.3-0.6,2.7,0.1,4-0.7c0.8,0.1,1.5,0.6,2.4,0.5c0.1,0,0.1-0.1,0.2-0.1c0,0,0.1,0.1,0.1,0.1
		c-0.2,0.2-0.9-0.1-1.3,0.1c0.3,0.3,0.7,0.4,0.8,0.7c-0.1,0.1-0.3,0.1-0.4,0.1c0.5,0.4,1.1,0.4,1.8,0.4c-0.6,0.1-1.2,0.1-1.1,0.5
		c1.3,0.4,2.5-0.3,3.9,0C52.8,8.2,53,8.1,53.2,8c-0.2-0.2-0.5-0.3-0.9-0.2c1.8-0.1,3.6-0.3,5.4-0.2c0-0.1,0-0.1,0.1-0.2
		c-0.5-0.3-1-0.1-1.7-0.1c0.2-0.1,0.4-0.2,0.7-0.4c-1-0.4-1.9,0.2-2.8-0.3c-0.5,0-0.8,0.4-1.3,0.1c-0.1-0.1-0.2-0.2-0.2-0.4
		c-1-0.1-1.6,0.4-2.6,0.1C51.4,6.3,53,6.3,54.6,6c0.9-0.4,2.2-0.2,3.2-0.7c0.3,0.3-0.2,0.6,0.4,0.7c0.1-0.9,1.3-0.8,2.5-0.9
		c-0.2,0.2-0.4,0.4-0.5,0.6c0.8,0.1,1.6-0.2,2.3,0.1c0.1-0.1,0.3-0.1,0.4-0.1c-0.2-0.1-0.5-0.3-0.7-0.4c0.4-0.1,0.7-0.3,1.1-0.4
		C63,5.6,63.9,6.2,62.7,6.4z"/>
	<path d="M110.7,10.3c-0.1-0.2-0.1-0.4-0.2-0.6c0.1,0,0.2,0,0.2,0C110.7,10,110.7,10.1,110.7,10.3z"/>
	<path class="st0" d="M162.4,12c0.4,0,0.7,0,1.1,0C163.1,12.1,162.8,12,162.4,12z"/>
	<path class="st0" d="M178.1,12.3c-0.2,0.1-0.4,0.2-0.8,0.2C177.6,12.4,177.8,12.3,178.1,12.3z"/>
	<path d="M78.4,7c-0.6-0.1-1.1-0.1-1.7-0.1c0.6-0.1,1.1-0.1,1.8-0.1C78.5,6.9,78.5,7,78.4,7z"/>
	<path class="st0" d="M119.2,10.7c-0.3,0-0.6-0.1-0.9-0.1C118.5,10.4,119.1,10.5,119.2,10.7C119.4,10.7,119.2,10.7,119.2,10.7z"/>
	<path d="M57.3,4.9c-0.8,0-1.5,0.1-2.3-0.1C55.7,4.5,56.5,4.9,57.3,4.9z"/>
	<path d="M94.5,8.8c-0.9,0-1.9-0.1-2.8-0.1C92.6,8.5,93.5,8.7,94.5,8.8z"/>
	<path d="M96.1,8.8c-0.2,0.1-0.5,0.1-0.8,0.1C95.5,8.7,95.7,8.8,96.1,8.8z"/>
	<path d="M71.6,6.6c0,0.2-0.7,0-0.9,0.1C70.7,6.3,71.6,6.4,71.6,6.6z"/>
	<path d="M135.6,11.9c-0.8,0.1-1.6,0.1-2.5,0C133.9,11.4,134.6,11.8,135.6,11.9z"/>
	<path d="M136.9,12c-0.3,0-0.7,0-0.9-0.1c0.5-0.1,0.9-0.1,1.4-0.1C137.3,11.9,137.1,12,136.9,12z"/>
	<path d="M188.2,12.9c0.8,0,1.5,0,2.3,0C189.8,12.9,189,12.9,188.2,12.9z"/>
	<path d="M88.7,8.4c-1.6-0.1-0.8,0.8-2.1,1.1c0.6,0.1,0.3,0.6,0,0.7c-0.7,0.4-1.7,0.3-2.4,0.1c-0.3-0.1,0.1-0.3-0.3-0.4
		c0.2-0.1,0.5-0.2,0.7-0.3c-0.1-0.1-0.2-0.1-0.4-0.2c0.6-0.1,1.1-0.1,1.6-0.4c0-0.1-0.1-0.1-0.1-0.1C86.2,8.7,86.8,9,87,8.7
		c-0.5-0.1-1-0.2-1.4-0.4C86.6,8.2,87.6,8.3,88.7,8.4z"/>
	<path class="st0" d="M173.8,12.9c-0.3,0-0.5,0-0.8,0C173.3,12.9,173.5,12.7,173.8,12.9z"/>
	<path class="st0" d="M166.3,13c0.1,0,0.2-0.1,0.3-0.2c0,0,0.3,0.1,0.3,0.1s0,0.2,0,0.3c-0.5,0-1-0.1-1.5-0.1c0-0.1,0-0.2,0-0.4
		C165.8,12.7,166,12.8,166.3,13z"/>
	<path class="st0" d="M171.9,12.8c-0.8,0.1-1.9,0.2-2.7-0.1C170.1,12.8,171,12.8,171.9,12.8z"/>
	<path d="M53.1,4.8c0.3,0,0.5,0.1,0.8,0.1C53.6,4.8,53.4,4.8,53.1,4.8z"/>
	<path class="st0" d="M121.1,11.3c0.3,0,0.6,0,0.9,0.1C121.7,11.3,121.4,11.3,121.1,11.3z"/>
	<path d="M55.4,5.6c0-0.1-0.1-0.1-0.1-0.1c-0.2-0.4,1-0.4,1.4-0.3C56.2,5.3,55.8,5.5,55.4,5.6z"/>
	<path d="M77.1,7.9c0.3-0.1,0.5-0.1,0.8-0.2c0.2,0.1,0.5,0.1,0.7,0.3C78.2,7.9,77.7,7.9,77.1,7.9z"/>
	<path d="M92.9,9.3c-0.3-0.1-0.4,0.1-0.6,0.1c0-0.1,0-0.2,0.1-0.3C92.5,9.3,92.7,9.3,92.9,9.3z"/>
	<path class="st0" d="M198.3,13.3c0.4,0,0.8,0,1.2,0C199.1,13.3,198.7,13.3,198.3,13.3z"/>
	<path d="M137.1,12.4c0,0.4-0.8,0.4-1,0.7c-0.4-0.1-0.8-0.2-1.2-0.4C135.6,12.5,136.4,12.5,137.1,12.4z"/>
	<path d="M141.6,12.8c0.2,0.1,0.4,0.1,0.5,0.2c-1.1,0.3-3-0.2-3.4,0.5c0.3-0.8,2.1-0.7,3.1-1.1c0.2,0,0.4,0,0.6,0
		C142.2,12.6,141.9,12.7,141.6,12.8z"/>
	<path d="M148.5,12.8c-0.3,0.1-0.3,0.4-0.7,0.4c-1.2-0.3-2.3,0.1-3.5-0.4C145.7,12.7,147.1,12.8,148.5,12.8z"/>
	<path d="M88.4,9c0.3,0,0.6,0.1,0.9,0.1C89,9.1,88.7,9,88.4,9z"/>
	<path d="M109.7,11c-0.7,0.1-1.1,0.4-1.8,0.1C108.5,11.1,109,11,109.7,11z"/>
	<path d="M143.9,13c-0.1,0-0.4,0-0.5,0c0-0.1,0.4-0.1,0.5-0.1C144,13,143.9,13,143.9,13z"/>
	<path d="M133.8,12.7c-0.8,0.3-0.2,0.9-1.4,0.8c-0.1-0.2-0.2-0.4-0.4-0.6C132.6,12.7,133.1,12.6,133.8,12.7z"/>
	<path d="M71.4,7.5c-0.1,0.1-0.8,0.1-0.6,0.2c0.7,0.5,1.8,0.2,2.7,0.4c-1.1,0.4-2-0.4-3.1,0.1C70.9,8,70.5,7.5,71.4,7.5z"/>
	<path d="M79.5,8.4c-0.3,0.1-0.6,0.1-1,0.1C78.8,8.4,79.2,8.5,79.5,8.4z"/>
	<path d="M131.7,13c-1.1,0.1-0.5,0.7-0.1,1.1c0.6,0.5,1.5,0.1,2.2,0.4c-1.6,0.4-2.6,1-4.5,0.6c-0.8-0.1-1.9-0.4-2.8,0
		c-0.4,0.1-0.6,0.5-0.8,0.8c0.8,0.4,1.8,0.4,2.8,0.3c0.3,0,0.1-0.2,0.2-0.4c0.6,0.1,1,0.3,1.3,0.5c-0.1,0.1-0.3,0.3-0.4,0.4
		c0-0.1,0.1-0.3-0.1-0.4c-0.4,0.4-0.9,0.5-1.7,0.6c0,0.1,0,0.2,0,0.3c0.8-0.1,1.9,0.1,2.4-0.4c1.2,0.1,2.1,0.1,2.8,0.6
		c0.1,0,0.2-0.1,0.2-0.1c0.1,0.2,0.2,0.4-0.3,0.5c-0.1,0-0.4,0-0.5,0c0.1-0.1,0.1-0.3,0.2-0.4c-0.7-0.2-1.6,0.4-1.7,0.6
		c-0.1,0.3,0,0.3-0.1,0.6c-2.1,0-2.9-1-5-0.9c-0.4-0.1-0.7,0-1,0.1c0.8,0.3,1.6,0.4,2.5,0.4c-1.2-0.1-2.4-0.1-3.7-0.2
		c0.2-0.2,0.4-0.4,0.6-0.6c-0.6-0.2-1.1-0.1-1.7,0.1c0.4,0.2,0,0.5-0.4,0.5s-0.5-0.1-0.8-0.1c0.4-0.7-0.8-0.4-1.6-0.7
		c-0.9,0.1-1.7-0.1-2.6-0.1c-0.1-0.4-0.4-0.6,0-1.1c-1.1-0.3-1.4,0.3-1.9,0.7c0.5,0.4,1,0.6,1.5,1c-0.9-0.4-1.8-0.9-2.8-0.6
		c-0.2-0.1-0.5-0.1-0.8-0.1c0-0.2-0.1-0.4-0.1-0.6c-0.8-0.1-0.9,0.3-1.7,0.3c0.1-0.4-0.7-0.6-1.2-0.4s-0.5,0.4-1,0.1
		c0.4-0.3,1-0.3,0.8-0.7c0.6,0.6,1.5,0.2,2.5,0.4c0.1-0.2,0.5-0.3,0.1-0.4c0,0-0.2,0.1-0.1,0c0.1-0.1,1-0.1,1-0.4
		c2.1,0.2,3.9-0.6,4.9,0.9c0.5,0,0.9,0.1,1.4,0.1c-0.2,0.1-0.6,0.1-0.6,0.3c0.6,0.1,1.3,0.1,1.9,0.1c0,0.1,0,0.2,0,0.4
		c1,0.2,1.8-0.2,2.7,0.2c0.1-0.1,0.3-0.1,0.2-0.2c-0.4-0.4-1.2-0.3-1.9-0.4c0.3-0.4,1,0,1.4-0.4c-1-0.2-1.8-0.1-2.8-0.1
		c-0.2-0.6-1.1-0.3-1.9-0.4c1.6-0.1,2.7-0.6,4.4-0.3c0.1-0.1,0.4-0.1,0.4-0.4c-0.9-0.1-1.8-0.1-2.7-0.3c0.5-0.1,0.8-0.3,1.2-0.4
		c-0.1-0.1-0.1-0.3-0.2-0.4c0.5,0.1,1-0.1,1.5,0c0-0.6,1.1-0.6,2-0.7c0.2,0.1,0.4,0.2,0.6,0.4c0.2-0.1,0.2-0.2,0.2-0.3
		c0.5,0.1,1,0.2,1.5,0.3c-0.3-0.1-0.5,0-0.7,0.1c0.6,0.4,1.2,0.1,2,0.2c0-0.6,1.5-0.6,2.4-0.7c-0.4,0-0.8-0.1-1.2-0.1
		c0.4-0.1,0.9-0.1,1-0.4c-0.6-0.2-1.2-0.1-1.9-0.2C130.1,12.9,131.2,12.3,131.7,13z"/>
	<path class="st0" d="M171.5,13.8c0.3,0,0.5,0,0.8,0C172,13.8,171.7,13.8,171.5,13.8z"/>
	<path d="M75.7,8.3c0.4,0,1.2-0.1,1.5-0.1s0,0,0.2,0C76.8,8.3,76.2,8.3,75.7,8.3z"/>
	<path d="M97.1,10.3c-0.2,0.4-1.2,0.5-0.5,0.9c-0.3,0-0.6,0-1,0c0.3-0.2,0.5-0.4,0.8-0.6c-0.3-0.2-0.7-0.1-1.1-0.2
		C96,10.3,96.5,10.3,97.1,10.3z"/>
	<path d="M92.3,10.3c-0.4,0-0.7-0.1-1.1-0.1C91,9.8,92,9.9,92.4,10C92.4,10,92.3,10.2,92.3,10.3z"/>
	<path d="M106.9,11.3c-0.1,0.2-0.4,0.2-0.8,0.2C105.8,11.3,106.5,11.3,106.9,11.3z"/>
	<path d="M127.7,12.9c0-0.1-0.2-0.2-0.4-0.1c-0.1,0.1-0.1,0.1-0.2,0.1s0.4-0.3,0.6-0.2C127.7,12.7,127.7,12.9,127.7,12.9z"/>
	<path d="M53.8,6c-0.4,0.1-0.6,0.2-1,0.1C53.1,6,53.4,5.8,53.8,6z"/>
	<path class="st0" d="M68.4,8C68.3,8,68.1,8,68,8c0-0.1,0.1-0.4,0.1-0.5C68.2,7.7,68.5,7.8,68.4,8z"/>
	<g>
		<path d="M117.3,12.2c0.3,0,0.5,0.1,0.8,0.1c0,0.1,0,0.1,0,0.2c-0.3,0-0.5-0.1-0.8-0.1C117.3,12.3,117.3,12.2,117.3,12.2
			L117.3,12.2z"/>
		<path d="M117.7,12.3"/>
	</g>
	<path d="M79,9c-0.3,0-0.4,0.1-0.6,0.1c0.3,0.2,0.2,0.4,0,0.6c-0.4,0.4-1.1-0.1-1.6-0.1c-0.2-0.6-1-0.9-2-0.8C76.2,9,77.6,8.7,79,9z
		"/>
	<path d="M44.9,5.8c-0.1-0.1-0.1-0.1-0.2-0.1c0.3-0.3,0.8-0.4,1.4-0.3C45.8,5.5,45.3,5.7,44.9,5.8z"/>
	<path d="M50.2,6.1c-0.2,0-0.4,0-0.6-0.1C49.9,6,50.1,6,50.4,5.9C50.5,6,50.4,6,50.2,6.1z"/>
	<path d="M140.1,13.8c-0.9,0.4-2.2,0.3-2.9,0.9c-0.9,0-1.8-0.1-2.7-0.1c0.6-0.1,1.2-0.3,1.8-0.4c-0.4-0.7,1-0.4,1.8-0.6
		C138.4,14,139.3,14,140.1,13.8z"/>
	<path d="M157.2,14.2c-0.2,0.2-0.8,0.1-1.1,0.1C156.4,14.1,156.8,14.1,157.2,14.2z"/>
	<path d="M108.3,12c-0.1-0.1-0.3,0-0.3,0.1c0.2,0.2,0.7,0.1,1.1,0.2c0,0.1,0,0.1,0,0.1c-1.4,0.3-1.7-0.7-3-0.3
		c-0.1-0.1-0.2-0.1-0.2-0.1C106.6,12,107.5,12,108.3,12z"/>
	<path d="M113.1,12.2c-0.4,0.3-1.1,0.3-1.7,0.2c-0.1,0-0.2-0.1-0.2-0.1C111.7,12,112.5,12.2,113.1,12.2z"/>
	<path d="M127.3,13.4c-0.3,0-0.6,0-0.9-0.1C126.5,13,127.1,13.2,127.3,13.4z"/>
	<path d="M142.5,14.6c1-0.1,2,0.1,2.9-0.3c-0.2-0.1-0.6-0.1-0.9-0.1c0.7,0,1.4,0,2.1,0c-0.3,0.1-0.6,0.1-1,0.1
		c0.2,0.2,0.6,0.1,0.9,0.1c-1.5,0.1-3.1,0.4-4.6,0c-0.5-0.1,0.3-0.6-0.5-0.6C142,13.5,142.3,14.4,142.5,14.6z"/>
	<path class="st0" d="M172,14.8c-0.5,0.1-0.8,0.2-1.3,0.1C171,14.7,171.5,14.6,172,14.8z"/>
	<path class="st0" d="M186.1,15.2c0,0.1,0.3,0.2,0.1,0.4c-0.3,0.3-0.8,0.2-1.3,0.2c-0.4-1.2-2.2-0.7-3.8-0.9
		c2.6-0.2,4.9-0.2,7.5,0.1C187.8,15.2,187,15.2,186.1,15.2z"/>
	<path d="M39.1,5.3c-0.1,0.1-0.4,0.1-0.6,0C38.7,5.2,38.8,5,39,5C39.2,5,39.2,5.2,39.1,5.3z"/>
	<path d="M71.7,8.9c1.1,0.6,2.5,0.6,4,0.4c0.1,0.5-0.5,0.4-1.1,0.5c0-0.2-0.4-0.3-0.7-0.3c-0.3,0-0.6-0.1-0.8,0
		c0.2,0.1,0.5,0.3,0.7,0.4c-1.1,0.1-2-0.3-3.1-0.1C70.9,9.8,71,9.7,71,9.5c-0.4-0.1-0.8-0.1-1.1-0.3c0.7,0.1,1.4,0.1,1.9-0.2
		c0.2-0.1-0.2-0.3-0.3-0.4c0.5-0.1,1.1,0,1.6,0C72.6,8.8,72.1,8.8,71.7,8.9z"/>
	<path d="M93.4,10.9c-0.8,0.1-1.6,0.1-2.5,0C91.7,10.5,92.6,10.9,93.4,10.9z"/>
	<path class="st0" d="M163.7,15.2c-0.4,0.2-1.1-0.1-1.2,0.3c0.4,0.1,0.9,0.1,1.4,0.1c-0.3,0.1-0.5,0.2-0.8,0.3
		c1.9-0.1,3.5-0.5,5-1.1c0.8,1.4-2.1,0.8-3.7,1.3c0.8,1.3-1.8,0.9-3.3,1.3c-0.4,0-0.9,0-1.3,0c0.3-0.6-1-0.9-0.6-1.5
		c-0.3,0-0.5,0.1-0.7-0.1c1.3-0.1,1.9-1.1,3.3-0.4c0.4-0.4,0.8-0.5,1.5-0.6c-0.3,0.1-0.5,0.1-0.8,0.1C162.9,15,163.3,15,163.7,15.2z
		"/>
	<path class="st0" d="M176.7,14.9c-0.4,0.3-1.1,0.2-1.7,0.3c0-0.1,0-0.2,0-0.3C175.6,14.8,176.2,14.9,176.7,14.9z"/>
	<path d="M37.8,4.9c0.1,0.1,0,0.3-0.2,0.3s-0.3,0.1-0.4-0.1C37.1,5,37.7,4.8,37.8,4.9z"/>
	<path d="M34.3,5.1c-1.8,0.1-3.5,0.4-5.3,0.2c1.9-0.4,3.9-0.1,5.7-0.7C34.5,4.8,34.3,5,34.3,5.1z"/>
	<path d="M120.9,13.4c-0.1,0.6-1.3,0.6-1.1,1.2c-0.8-0.1-1.5-0.1-2.3-0.1c0.3-0.1,0.5-0.1,0.8-0.1c-0.3-0.4-1.3-0.1-1.3-0.5
		C118.4,13.7,119.5,13.2,120.9,13.4z"/>
	<path class="st0" d="M171.3,15.4c-0.4,0-0.8,0-1.2,0c0-0.1,0-0.1,0-0.2C170.4,15.3,170.9,15.2,171.3,15.4z"/>
	<path d="M113.7,13c0.2,0,0.5,0,0.7,0.1C114.2,13.1,113.9,13.1,113.7,13z"/>
	<path d="M149.3,15c-0.9,0.4-1.9,0.4-3.1,0.4c0.1-0.1,0.3-0.1,0.4-0.2c-0.1,0-0.1-0.1-0.2-0.1C147,15.5,148.4,14.8,149.3,15z"/>
	<path class="st0" d="M175.6,15.5c-0.3,0.1-0.6,0.1-0.8,0.2c0.3,0.1,0.5,0.1,0.8,0.2c-0.3,0-0.6-0.1-0.8,0.1
		c-0.3-0.1-0.1-0.4-0.2-0.5C175.1,15.7,175.3,15.3,175.6,15.5z"/>
	<path d="M93.3,11.7c-0.9,0.1-1.4,0.6-1.2,1.1c-1.9,0.3-3.7-0.2-5.6-0.1c1.3-0.4,2.8,0.3,3.5-0.5c-1.6-0.7-3.5-0.4-5.4-0.7
		C87.6,11.5,90.4,11.3,93.3,11.7z"/>
	<path d="M116.5,13.7c-1,0.4-2.2,0.2-3.3,0.3c0-0.1,0-0.2,0-0.3C114.4,13.9,115.4,13.5,116.5,13.7z"/>
	<path d="M35.9,5.5c-0.3,0.1-0.6,0.1-0.9,0.2C35.4,5.7,35.7,5.6,35.9,5.5z"/>
	<path d="M109.5,13.3c0,0.1-0.7,0.2-0.9,0C108.4,13.2,109.3,13.1,109.5,13.3z"/>
	<path class="st0" d="M173.8,15.9c0,0.1-0.5,0.1-0.6,0.1C173.2,15.7,173.8,15.7,173.8,15.9z"/>
	<path d="M26.3,5.5c-0.2,0-0.6-0.1-0.8-0.1c0-0.3,0.5-0.3,0.9-0.4c0.2,0.1,0.3,0.2,0.5,0.3C27,5,27.8,5.1,28.4,5
		C28.5,5.6,27.1,5.5,26.3,5.5z"/>
	<path class="st0" d="M47.4,7.5c-1.1,0.1-1.2,0.5-2,0.9c0.6,0.1,1.1,0.1,1.7,0.2c-1.6,0.1-3,0.4-4.5,0.2c0.2-0.4-0.2-0.7,0.2-1.1
		c0.2-0.2,1.5-0.8,0.6-0.9c1,0.4,1.9,0.2,3,0.2c0,0.1-0.1,0.4-0.1,0.5C46.6,7.5,47,7.5,47.4,7.5z"/>
	<path d="M102.5,13.7c-1.1-0.1-0.7-0.4-0.4-0.9C102.2,13.1,102.4,13.4,102.5,13.7z"/>
	<path d="M136.6,15.1c0,0.1,0,0.2,0,0.4c-0.3,0-0.6,0-1-0.1C135.7,15,136,14.8,136.6,15.1z"/>
	<path class="st0" d="M171,16.2c-0.6,0-1.1,0-1.7,0c0.6,0,1.1-0.1,1.7-0.2C171,16,171,16.1,171,16.2z"/>
	<path d="M51.4,7.6C51.5,8,50.9,8,50.3,8C50,7.7,51,7.6,51.4,7.6z"/>
	<path class="st0" d="M54.3,8.3C54.5,8.2,54.6,8,54.8,8C54.9,8,54.9,8,55,8.1C54.7,8.2,54.5,8.2,54.3,8.3z"/>
	<path d="M160.9,15.8c0.4,0,0.7,0,1.1,0C161.7,15.8,161.3,15.8,160.9,15.8z"/>
	<path d="M39.9,6.7c0,0.1,0.4,0.2,0.6,0.2c-0.3,0.6-1.5,0.4-2.4,0.4c-0.2,0-0.5-0.1-0.7-0.1c0.4-0.6,1-0.7,2.1-0.7
		c0.1,0,0.4,0.1,0.5,0.1C40,6.6,39.9,6.5,39.9,6.7z"/>
	<path class="st0" d="M65.3,9.9c-0.1-0.2-0.2-0.4-0.3-0.6C65.7,9.5,64.8,9.6,65.3,9.9z"/>
	<path class="st0" d="M64.4,9.5c-0.5-0.1-1-0.1-1.5-0.1c0.5,0,1-0.1,1.5,0C64.4,9.5,64.4,9.5,64.4,9.5z"/>
	<path d="M161.9,16.2c-0.2,0.1-0.5,0.1-0.8,0.1C161.3,16.1,161.6,16.2,161.9,16.2z"/>
	<path class="st0" d="M166.1,16.5c-0.4-0.1-0.8-0.1-1.2-0.1c0.4-0.1,0.8-0.1,1.2-0.1C166.1,16.4,166.1,16.5,166.1,16.5z"/>
	<path class="st0" d="M176.2,16.5c0.1,0,0.3-0.1,0.4-0.1c0.4,0,0.9,0,1.4,0C177.3,16.5,176.8,16.5,176.2,16.5z"/>
	<path d="M114.3,14.3c0.1,0,0.3-0.1,0.4-0.1c0.3,0,0.6,0.1,1,0.1C115.2,14.3,114.7,14.3,114.3,14.3z"/>
	<path class="st0" d="M188,16.7c-0.3,0.2-0.9,0.4-1,0C187.4,16.7,187.7,16.7,188,16.7z"/>
	<path class="st0" d="M62.5,9.3c-1.6,0.1-3,0.6-4.5,0.2C59.5,9.3,61,9.3,62.5,9.3z"/>
	<path d="M148.3,16.2c-0.1,0-0.4,0.1-0.2,0.2c0.9,0.4,2-0.3,2.1,0.6c-0.7,0.2-1.5,0.3-2.3,0.2c-0.1-0.2-0.5-0.4-0.8-0.6
		C147.7,16.5,147.6,16.1,148.3,16.2z"/>
	<g>
		<path d="M118.4,14.9c0.3,0,0.5,0.1,0.8,0.1c0,0.1,0,0.2,0,0.3c-0.3,0-0.5-0.1-0.8-0.1C118.4,15,118.4,15,118.4,14.9L118.4,14.9z"
			/>
		<path d="M118.8,15"/>
	</g>
	<path class="st0" d="M245,15.2c0,0.1,0.1,0.2,0.3,0.3c-0.6,0-1.2,0-1.8,0C243.7,15,244.4,15.3,245,15.2z"/>
	<path d="M114.9,15c-0.1,0.1-0.5,0.2-0.8,0.1c-0.1-0.1-0.1-0.3-0.1-0.4C114.5,14.9,115.1,14.6,114.9,15z"/>
	<path d="M145,17.7c-1.3,0.3-2.3,0.6-3.7,0.3c0-0.4-0.7-0.4-1.1-0.6c-2,0.1-3.2,0.6-4.3,1.5c-0.7-0.4-0.7-0.9-1.9-0.9
		c1.1-0.5,2.6-0.4,3.9-0.6c-0.7-0.2-1.5-0.1-2.3-0.2c0.9-0.1,0.6-0.6,1.3-0.8c-0.1-0.1-0.3-0.1-0.4-0.2c0.7,0.5,1.5,0.1,2.5,0.4
		c0.9-0.1,1.8,0,2.5-0.3C143,16.5,143.6,17.2,145,17.7z"/>
	<path d="M25.1,6.4c0.4-0.1,0.8-0.2,1.2-0.3c0.1,0,0.3,0.1,0.4,0C26.1,6.2,25.6,6.3,25.1,6.4z"/>
	<path d="M130.5,16.3c0.2-0.1,0.5-0.2,0.7-0.3c0.2,0.1,0.4,0.1,0.5,0.2C131.4,16.3,131,16.3,130.5,16.3z"/>
	<path d="M172.2,17.3c0.1,0,0.1-0.1,0.2-0.1c0.3,0,0.5,0,0.8,0C172.8,17.3,172.5,17.3,172.2,17.3z"/>
	<path class="st0" d="M254.4,15.1c0,0.3-0.8,0.1-1.1,0.2c0-0.1,0-0.3,0-0.4C253.7,14.8,254.4,14.8,254.4,15.1z"/>
	<path class="st0" d="M50.2,8.9c0.1,0,0.2-0.1,0.3-0.1c0.2,0,0.5,0.1,0.7,0.1C50.9,8.9,50.5,8.9,50.2,8.9z"/>
	<path d="M67.2,10.6c-0.1,0.5-0.2,0.9-1.3,0.7c-0.1,0-0.4-0.1-0.5-0.1c0.2,0.1,0.4-0.1,0.6-0.1c-0.2-0.1-0.5-0.3-0.7-0.4
		C65.9,10.5,66.5,10.5,67.2,10.6z"/>
	<path d="M109.3,15.1c0.3-0.1,0.7-0.1,1-0.2c-0.1,0.1-0.1,0.2-0.2,0.3C109.8,15.1,109.6,15.1,109.3,15.1z"/>
	<path d="M135.9,16.5c-0.4,0.1-0.9,0.1-0.9-0.1C135.3,16.3,135.6,16.2,135.9,16.5z"/>
	<path class="st0" d="M140.4,17c0-0.1,0-0.4,0-0.5c0.1,0.2,0.2,0.4,0.4,0.6C140.7,17,140.6,17,140.4,17z"/>
	<path d="M70.1,11.5c-0.2-0.1-0.3-0.3-0.5-0.4c0.2,0.1,0.5,0.1,0.7,0.1C70.3,11.3,70.2,11.4,70.1,11.5z"/>
	<path d="M83,12.4c0,0.1-0.1,0.2,0.1,0.4c-0.3,0-0.5,0-0.8,0c0-0.1,0.1-0.3,0.1-0.4C82.5,12.4,82.7,12.4,83,12.4z"/>
	<path d="M106,14.6c0.1,0.1,0,0.1-0.2,0.1c-0.1,0-0.3,0.1-0.4-0.1C105.3,14.6,105.9,14.5,106,14.6z"/>
	<path class="st0" d="M139.2,16.9c0,0.1-0.7,0.2-0.9,0.2c0-0.1,0-0.3,0-0.4C138.7,16.7,139.2,16.7,139.2,16.9z"/>
	<path d="M201.5,17.9c-0.8,0.3-1.7,0.4-2.6,0.3C199.9,18,200.5,17.4,201.5,17.9z"/>
	<path class="st0" d="M245.3,16.1c-0.5,0-1,0-1.5,0c0-0.1,0-0.1,0-0.2c0.5,0,1,0,1.5,0C245.3,16,245.3,16,245.3,16.1z"/>
	<path d="M32.1,7.2c0.1,0,0.3-0.1,0.4-0.1c0,0.1,0.1,0.1,0.1,0.1C32.5,7.2,32.3,7.2,32.1,7.2z"/>
	<path d="M94.9,14.2c-0.4,0-0.9,0.1-1.4,0.1c0.8-0.1-0.2-0.4,0.4-0.5C94.5,13.6,94.5,14,94.9,14.2z"/>
	<path class="st0" d="M49.6,9.2c-0.4,0.1-0.6,0.2-1,0.1C48.7,9,49.1,9.1,49.6,9.2z"/>
	<path class="st0" d="M121.6,16c0.3,0,0.6,0.1,0.9,0.1C122.2,16.1,121.9,16.1,121.6,16z"/>
	<path d="M203.8,17.9c0.3,0,0.6,0,1,0C204.5,17.9,204.2,17.9,203.8,17.9z"/>
	<path class="st0" d="M214.2,17.9c-0.6,0-1.2,0-1.7,0.1c0-0.1,0-0.1,0-0.2c0.6,0,1.2,0.1,1.8,0.1C214.2,17.9,214.2,17.9,214.2,17.9z
		"/>
	<path class="st0" d="M23.9,7.3C25.4,7.2,27,7.1,28.5,7c-0.8,0.1-1.5,0.1-2.3,0.1C25.4,7.3,24.6,7.2,23.9,7.3z"/>
	<path class="st0" d="M48.2,9.2c-0.4,0.3-1,0.2-1.6,0.1C47.1,9.3,47.6,9.3,48.2,9.2z"/>
	<path class="st0" d="M125.1,16.6c-0.2,0-0.5,0-0.7,0C124.5,16.5,125,16.5,125.1,16.6C125.2,16.5,125.1,16.5,125.1,16.6z"/>
	<path d="M75.2,12.2c-1.1,0.1-2.1,0.2-3.2-0.1C73.1,12.2,74.2,12.1,75.2,12.2z"/>
	<path d="M91.3,14.1c-1.7,0.2-3.5,0-5.2,0.4c0.1,0.1,0.1,0.1,0.2,0.1c-0.3,0-0.6,0-0.8,0.1c1.1,0,0.8,0.4,1.2,0.9
		c-1.3,0.2-2.4-0.1-3.7-0.1c0.5-0.1,1.1,0.2,1.4-0.1c-0.9,0-0.8-0.3-1.2-0.6c2-0.2,4-0.4,5.8-1C89.7,14.1,90.5,13.8,91.3,14.1z"/>
	<path d="M108.6,16.1c-0.6,0.1-0.7,0.3-0.9,0.6c-0.1-0.1-0.3-0.1-0.5-0.2c-0.1-0.4,0.4-0.7,0.7-1.1
		C108.1,15.7,108.2,15.9,108.6,16.1z"/>
	<path d="M182.3,18.4c-0.3,0.2-0.8,0.2-1.2,0.2c-0.3,0-0.2-0.2-0.2-0.4C181.5,18.2,181.9,18.1,182.3,18.4z"/>
	<path d="M190.5,18.3c0.2,0.1,0,0.1,0,0.2c-0.3,0-0.5,0-0.8,0C189.5,18.2,190.3,18.2,190.5,18.3z"/>
	<path d="M167.1,18.2c0.2,0.1-0.1,0.4-0.4,0.4c-0.3,0-0.7-0.3-0.9-0.4C166.2,18,166.9,18.1,167.1,18.2z"/>
	<path d="M186.6,18.3c0.1,0.1,0,0.2-0.1,0.2s-0.2,0.1-0.4,0C185.9,18.5,186.5,18.2,186.6,18.3z"/>
	<path d="M104.8,15.4c-0.3-0.1-0.4,0.1-0.6,0.1c0.5,0.2,1,0.5,1.4,0.7c-2.1,0.1-3.9-0.5-5.7,0.3c-0.5,0-1,0-1.5-0.1
		c0.4-0.1,1,0,1.3-0.3c-0.9-0.1-1.5-0.6-2.5-0.6c-0.2-0.7,1.1-0.4,2-0.4c0.2,0,0.6,0,0.8,0.1c0,0.1-0.3,0.1-0.2,0.2
		c1.2,0.4,2.5,0.2,3.9,0.1c0-0.1,0-0.2,0-0.3C104.1,15.3,104.4,15.3,104.8,15.4z"/>
	<path d="M70.9,12.4c-0.3-0.1-0.5-0.1-0.8-0.2c0.2,0,0.4,0,0.6,0.1C70.7,12.3,70.8,12.4,70.9,12.4z"/>
	<path d="M146.1,18.1c0,0.1,0.1,0.5-0.2,0.5c-0.3,0.1-0.4,0-0.6,0C145.2,18.3,145.6,18.1,146.1,18.1z"/>
	<path class="st0" d="M47.4,10c-0.9,0.1-1.6,0.2-2.5,0C45.7,9.9,46.6,10,47.4,10z"/>
	<path d="M94.6,15.2c0.1,0.6,1.4,0.2,0.4,0.8c-0.5-0.4-1.2-0.4-1.9-0.3c-0.1,0-0.1,0.1-0.2,0.1c0.3,0.2,0.6,0.4,0.9,0.5
		c-0.5,0.1-0.9,0.3-1.2-0.1c-0.1-0.1,0.2-0.3-0.1-0.4c-0.2,0.1-0.4,0.1-0.6,0.1c-0.4-0.9-1.8-0.5-2.8-1.1c1.2-0.4,2.3-0.1,3.5,0.2
		C93.1,14.7,94,15,94.6,15.2z"/>
	<path class="st0" d="M120.3,17.2c-0.6,0-1.1,0-1.7,0C119.2,17.1,119.7,17,120.3,17.2z"/>
	<path class="st0" d="M29.5,8.3c-0.3,0.1-0.6,0-1,0C28.9,8.3,29.2,8.1,29.5,8.3z"/>
	<path class="st0" d="M94,15.3c0.2,0.3-0.6,0.1-0.8,0.3C93.3,15.3,93.6,14.8,94,15.3z"/>
	<path class="st0" d="M32.7,8.7c-0.7,0.2-2,0-2.1,0.6c-0.6,0.1-1.2,0.2-1.9,0.4c0.1,0.1,0.2,0.2,0.3,0.4c-1.2,0.1-2.3,0.1-3.5,0.2
		c1-0.2,2.1-0.4,3.1-0.6c0-0.1-0.1-0.1-0.1-0.1c0.6-0.1,1.2-0.1,1.8-0.2C30.2,9.1,30.1,9,30,8.9c-1.8,0-3.6,0.1-5.4,0.1
		C27.3,8.8,29.8,8.4,32.7,8.7z"/>
	<path d="M88.3,15.1c-0.4,0.1-0.9,0.1-1.3,0c0.3-0.1,0.7-0.3,1.1-0.4C88.2,14.7,88.6,15,88.3,15.1z"/>
	<path class="st0" d="M27.4,8.2c-0.3,0.1-0.6,0.1-1,0.1C26.7,8,27.1,8.2,27.4,8.2z"/>
	<path d="M56.4,11.3c-0.4,0.2,0.2,0.6-0.7,0.4c0-0.1,0.1-0.2-0.1-0.3c-0.2-0.1-0.4,0.1-0.6,0.1c0.3,0.1,0.1,0.4,0,0.5
		s-0.3,0.1-0.5,0.2c0-0.1,0.2-0.2,0.5-0.3c-0.1-0.1-0.2-0.1-0.3-0.3c-0.7,0.4-0.7-0.4-1.4-0.3c-0.7,0.1-0.3,0.7-1.2,0.7
		c0.1,0.1,0.3,0.1,0.3,0.1c0.1,0.1,0,0.1,0,0.1c-0.7-0.2-1.5-0.1-1.6-0.6C52.4,11,54.4,11.5,56.4,11.3z"/>
	<path class="st0" d="M36.2,9.3c-0.8,0-1.6,0.1-2.4,0C34.7,9.3,35.4,9.3,36.2,9.3z"/>
	<path d="M107.4,17c-0.7,0-1.5,0.3-1.9-0.1C106.1,16.8,106.7,16.9,107.4,17z"/>
	<path class="st0" d="M20.5,8.1c-0.2,0.1-0.6,0.1-0.8,0.3c-0.1-0.1-0.2-0.3-0.3-0.4C19.7,8,20.1,8,20.5,8.1z"/>
	<path d="M90.6,15.7c-0.5-0.1-0.9-0.1-1.4-0.1c0.5-0.1,0.9,0.1,1.4-0.1C90.7,15.6,90.6,15.7,90.6,15.7z"/>
	<path d="M74.6,14.2c0.4,0.1,0.8,0.1,1.2,0.2c-0.7,0.1-0.9,0.4-1.1,0.6c-0.9-0.3,0.4-0.3,0.1-0.6c-0.9,0.4-1.6-0.1-2.6-0.1
		c0.9,0.1,1.5-0.4,2.4-0.3C74.6,14.1,74.6,14.2,74.6,14.2z"/>
	<path d="M48.2,11.3c-0.4,0.4-1.3,0.4-2,0.6c0.2,0.1,0,0.2,0.1,0.4c-0.5,0.1-1,0.4-1.4,0.5c1,0.2,2.1,0.4,3.1,0.6
		c-1.4,0.3-2.8,0-4.2,0.4c0.3-0.1,0.6-0.1,0.8-0.1c-0.9-0.4,0.7-0.6,0-0.9c0-0.4,0.6-0.5,1.2-0.7c-0.7-0.4-1.6-0.4-2.6-0.3
		c-0.9,0.4-2.2,0-2.5,0.8c-0.9-0.3-1-0.8-2.1-0.9c0.8-0.5,1.8-0.4,2.9-0.4c0,0.1,0,0.1,0,0.1c1.6-0.5,2.6,0.9,3.9-0.1
		C46.3,11.3,47.3,11.3,48.2,11.3z"/>
	<path d="M50.1,11.7c-0.2,0.1-0.5,0.1-0.7,0.1C49.6,11.8,49.9,11.7,50.1,11.7z"/>
	<path d="M59.2,12.7c-0.9,0.2-1.6,0.4-2.5,0.1C57.5,12.6,58.3,12.8,59.2,12.7z"/>
	<path d="M69.5,14.3c-0.9,0.4-1.6,0.1-2.5,0c0.1-0.6,1-0.3,1.7-0.6C69.3,13.7,69.2,14,69.5,14.3z"/>
	<path class="st0" d="M31.3,10c-0.2,0-0.7-0.1-0.8,0c-0.1,0.1,0,0.1-0.1,0.2c0-0.1,0-0.2-0.1-0.3C30.7,10,31,10,31.3,10z"/>
	<path d="M61,14c0.4-0.1,0.9-0.1,1.3-0.3c0,0.1,0,0.1-0.1,0.2C61.8,14,61.4,14,61,14z"/>
	<path d="M73,15L73,15c0.2-0.1,0.4,0,0.6,0C73.4,15,73.2,15,73,15z"/>
	<path d="M58,13.5c-0.3,0.4,0.4,0.6-0.6,0.9c-0.4-0.2-1-0.1-1.5-0.3C55.9,13.4,57,13.4,58,13.5z"/>
	<path class="st0" d="M282.6,16.5c0.2,0.1,0,0.1,0.1,0.1c-0.3-0.1-0.7-0.1-1-0.1C282,16.6,282.4,16.4,282.6,16.5z"/>
	<path d="M37.5,11.7c0.3,0.1-0.6,0.1-0.6,0c-0.1-0.1,0.3-0.1,0.3-0.2c0-0.1-0.3-0.1-0.5-0.1C37.2,11.2,37,11.6,37.5,11.7z"/>
	<path d="M59.4,14.2c0.2-0.1,0.4-0.2,0.6-0.3c-0.1,0.1-0.2,0.2-0.2,0.4C59.7,14.2,59.5,14.2,59.4,14.2z"/>
	<path class="st0" d="M21,10.3c0.8-0.2,1.6-0.3,2.6-0.1C22.7,10.2,21.9,10.2,21,10.3z"/>
	<path d="M47.5,12.7c0.1,0,0.1-0.1,0.2-0.1c0.2,0,0.4,0.1,0.6,0.1C48,12.7,47.7,12.7,47.5,12.7z"/>
	<path d="M78.6,16c-0.3,0.1-0.8,0.1-0.6,0.4c0,0.1,0.2,0.2,0.3,0.2c0.7-0.4,1.4-0.3,1.9,0.1c-1.2,0.3-2.5-0.1-3.7-0.3
		c0.8-0.4-0.8-0.5-0.7-0.5C76.5,16,77.8,15.9,78.6,16z"/>
	<path class="st0" d="M18.8,10c-0.3,0.2-0.9,0.3-1.4,0.2C17.7,9.9,18.3,10.2,18.8,10z"/>
	<path class="st0" d="M19.6,10.3c0.2-0.1,0.3-0.1,0.5-0.1c0.1,0,0.3,0,0.4,0C20.2,10.2,19.9,10.3,19.6,10.3z"/>
	<path d="M33.4,11.4c-1,0.5,0,1.6-1.9,1.3c0.2-0.1,0.4-0.3,0.7-0.4c-0.8-0.3-1.5-0.6-2.4-0.8c-0.5,1.6-3-0.1-4.7,0.7
		c-0.7-0.1-0.5,0.3-0.9,0.4C24,12,22.5,12,21.5,11.9s-1.9,0.2-2.9-0.1c1.7,0.2,3.5-0.6,5,0c0.8-0.2,1-0.8,1.9-0.4
		c-0.2,0.1-0.3,0.1-0.3,0.3c2,0.2,3.6-0.4,5.6-0.4c0.4,0.5,1.1,0.4,1.9,0.3c0-0.1,0.1-0.2,0.1-0.3C32.9,11.3,33.2,11.3,33.4,11.4z"
		/>
	<path d="M53.5,14.2c0-0.1-0.1-0.2-0.1-0.3c0.1,0,0.2,0,0.3,0C53.7,14,53.6,14.1,53.5,14.2z"/>
	<path d="M52.2,13.9c-0.7,0.1-1.4,0-1.8,0.4c0.9,0.3,1.7,0,2.6-0.1c0,0.4-1,0.4-0.6,0.7c-1.1,0.1-2,0.6-3,0.2
		c-1.3,0.1-2.1,1.1-3.2,0.3c-1.9,0-3.6-0.5-5.5-0.2c0.1,0.2,0.2,0.4,0.2,0.6c-0.6,0-1.1,0-1.7,0.1c0.1-0.2-0.1-0.3-0.3-0.5
		c-1.4,0-2.5-0.1-3.8-0.4c2.1-0.1,4-0.2,5.9-0.8c0.3,0,0.6,0,1,0c0.1,0.5-0.6,0.4-1.2,0.6c1.8,0.4,3.6-0.7,4.8,0.4
		c1.2-0.4,2.5,0.1,3.7-0.4c0.2,0,0.5,0.1,0.7,0.1c0,0.1,0,0.1-0.1,0.2c0.5,0.1,1.1,0.2,1.6-0.1v-0.1c-0.3-0.4-1.1,0.1-1.4-0.4
		C49.7,13.8,51.3,13.9,52.2,13.9z"/>
	<path d="M62.8,15.4L62.8,15.4c0,0.4-0.6,0.4-1,0.6c-0.8-0.3,0.5-0.4,0.1-0.9c0.3-0.3,1.1-0.1,1.5,0C63.2,15.2,63,15.3,62.8,15.4z"
		/>
	<path d="M59.6,15.4c-0.1,0.1-0.1,0.3-0.3,0.3c-0.7,0.1-0.8-0.6-1.7-0.3c0.1,0.1,0.2,0.3,0.3,0.5c-1.4,0.1-2.6-0.4-4-0.4
		c-0.3-0.1-0.1-0.4-0.1-0.6C55.8,14.4,58.2,14.4,59.6,15.4z"/>
	<path d="M36,12.5c-0.8,0.1-1.6,0.1-2.4,0.2C34.3,12.3,35.2,12.2,36,12.5z"/>
	<path d="M39.4,12.9c-0.3,0.1-0.6,0.3-0.9,0.4c1.4,0.1,2.8-0.1,3.7,0.6c-2,0.2-3.7,0.2-5.7,0.1c-0.2,0.1-0.3,0.3-0.5,0.4
		c-1.3-0.9-2.5,0.2-4.1-0.4c1.2-0.1,1.9-0.8,3-0.2c1.5-0.5,3.1,0,4-0.9C39.1,12.7,39.3,12.7,39.4,12.9z"/>
	<path d="M13.7,11.5c-0.1,0-0.2,0.1-0.3-0.1c-0.1-0.1,0.1-0.4,0.4-0.3C13.7,11.3,13.7,11.5,13.7,11.5z"/>
	<path d="M32.2,13.1c-0.8,0.3-1.7,0.3-2.7,0.4C30.4,13.2,31.2,12.8,32.2,13.1z"/>
	<path d="M15.5,12c-0.2,0.3-0.7,0.2-1.2,0.3c0.1-0.1,0.1-0.2-0.1-0.4C14.7,12,15.1,11.8,15.5,12z"/>
	<path d="M20.5,12.6c-0.3,0.4-0.9,0.2-1.5,0.3c-0.3,0.1-0.7,0-0.9-0.1C18.8,12.7,19.9,12.3,20.5,12.6z"/>
	<path d="M16.8,13c-1.4-0.1-2.6-0.4-3.8,0.1c0.7,1,2.3,0.5,3.7,0.5c3.6-0.1,6.9,0.2,10.4-0.1c0.5,0.6-0.9,0.9-0.9,1.5
		c-0.6,0.4-1.3,0.3-2,0.1c0.7-0.1,1.3-0.1,1.9-0.3c-1.3-0.2-2.5,0-3.8-0.2c1.3,0.1,2.5-0.1,3.8-0.4c-1.1-0.5-2.3-0.2-3.6-0.4
		c-0.8,0.5-1.9,0.3-2.9,0.6c0.8,0.1,1.5,0.1,2.3,0.2c-1.1,0.1-2.1,0-2.7,0.6c-1.4-0.1-2.8-0.1-4.2,0c0,0.2,0.4,0.3,0.4,0.5
		c-0.9,0.4-1.4-0.3-2.3,0.3c-0.4-0.6-1.2,0-1.7-0.6c-1.8,0.3-3.2,0.3-5-0.1c-0.5,0.6-0.9,0.1-1.7,0.1c-0.4-0.1-0.7-0.2-1.1-0.3
		c0.8-0.1,1.5-0.3,2.3-0.4c-0.2-0.1-0.5-0.2-0.7-0.3c0.1,0.1,1.1-0.1,1.4,0c0.5-0.1,0.4-0.4,0.6-0.6c-0.4-0.1-0.8-0.1-1.1-0.2
		c2.4-0.2,4.8-0.1,7.1-0.6c-1-0.2-1.9-0.4-3-0.2c2.1-0.1,4.2-0.1,6.3-0.4C16.3,12.6,16.5,12.8,16.8,13z"/>
	<path d="M29.4,13.9c-0.4,0.1-1.1,0-1.5-0.1C28.4,13.7,28.9,13.6,29.4,13.9z"/>
	<path d="M9.6,12.2c-0.2,0.1-0.8,0-1.1,0C8.9,12.1,9.2,12.2,9.6,12.2z"/>
	<path d="M20.8,13.3c0.2-0.1,0.3-0.1,0.5-0.1c0.1,0,0.3,0,0.4,0C21.4,13.2,21.1,13.2,20.8,13.3z"/>
	<path d="M5.1,12.7c-0.6,0-1.1,0.2-1.7,0.1C4,12.7,4.5,12.6,5.1,12.7z"/>
	<path d="M29.4,15c-0.6,0-1.1-0.1-1.7-0.1c0.4-0.1,0.8-0.1,1.2-0.1c0-0.1-0.1-0.1-0.1-0.2c0.2,0,0.5,0.1,0.7,0.1
		C29.5,14.7,29.5,14.8,29.4,15z"/>
	<path d="M2.6,12.9c0-0.1-0.1-0.1-0.1-0.2c0.2,0,0.4,0,0.5,0.1C2.9,12.8,2.7,12.8,2.6,12.9z"/>
	<path class="st0" d="M17.9,14.3c-0.2-0.1-0.4-0.3-0.7-0.4c0.1,0,0.3,0,0.4,0C17.7,14,17.8,14.2,17.9,14.3z"/>
	<path class="st0" d="M16,14.1c0.1,0.4-0.7,0.4-0.8,0.7c-0.1-0.3-0.5-0.5-0.7-0.7C15,14.1,15.5,14.2,16,14.1z"/>
	<path class="st0" d="M13.7,14.2c0,0.1-0.4,0.2-0.6,0.1c0.2-0.1,0.3-0.2,0.5-0.3C13.6,14.2,13.7,14.2,13.7,14.2z"/>
	<path d="M3.9,13.5c0.3,0,0.6,0.1,0.9,0.1C4.5,13.6,4.2,13.5,3.9,13.5z"/>
	<path d="M24.4,15.7c-1,0-1.9,0.1-2.9-0.1c-0.3-0.2-0.5-0.4-0.8-0.6c1.5-0.2,2.5-0.1,3.5,0.6C24.3,15.7,24.3,15.7,24.4,15.7z"/>
	<path d="M26.2,15.6c0,0.1,0,0.1-0.1,0.2c-0.1-0.1-0.2-0.2-0.3-0.4C26,15.5,26.1,15.5,26.2,15.6z"/>
	<path class="st0" d="M14.5,14.7c-1.5,0.1-2.8-0.2-4,0.5c-1.3-0.1-2.6-0.4-3.8-0.5C9.3,14.6,11.9,14.6,14.5,14.7z"/>
	<path d="M2.3,14.3c-0.3-0.1-0.6-0.1-0.9-0.1C1.7,14.1,2.1,14.1,2.3,14.3z"/>
	<path d="M17.9,16.1c-0.3,0-0.5-0.1-0.8-0.1c0-0.1,0.1-0.2,0.1-0.3C17.6,15.8,18.1,15.7,17.9,16.1z"/>
	<path d="M1.5,15.1c-0.5,0.1-1,0-1.5,0C0.4,14.8,1,15,1.5,15.1z"/>
	<path d="M214.4,0.1c-0.6,0-1.2,0-1.9,0.1C213.1-0.2,213.7,0.1,214.4,0.1z"/>
	<path d="M162.8,0.3c-0.2-0.1-0.4-0.1-0.5-0.1c0.1,0,0.3,0,0.4,0C162.8,0.1,162.8,0.3,162.8,0.3z"/>
	<path d="M195.1,0.8c-0.7,0.1-1.4-0.3-2.1-0.3C193.6,0.6,195,0.3,195.1,0.8z"/>
	<path d="M185,0.8c0,0.4-0.5,0.5-1.1,0.4c-0.3,0-0.6,0-0.9,0c0.6-0.2,1.3,0,1.3-0.5C184.6,0.7,184.7,0.8,185,0.8z"/>
	<path d="M198,0.9c-0.1-0.1-0.3-0.2-0.4-0.3c0.1,0,0.3,0,0.4,0C198,0.7,198,0.8,198,0.9z"/>
	<path d="M152.1,0.4c0.3-0.1,0.6-0.1,0.9-0.2c0.3,0.1,0.6,0.1,0.9,0.1C153.4,0.4,152.8,0.4,152.1,0.4z"/>
	<path d="M172.1,0.8c0.1-0.1,0.1-0.1,0.2-0.1c0.3,0,0.5,0,0.8,0C172.7,0.6,172.4,0.7,172.1,0.8z"/>
	<path d="M202,1.1c-0.1,0.1-0.1,0.1-0.2,0.1c-0.1-0.1-0.1-0.3-0.2-0.4C201.8,0.9,202.1,1,202,1.1z"/>
	<path d="M227.8,0.2c-0.3,0-0.5-0.1-0.8-0.1c0.1,0,0.1,0.1,0.2,0.1C227.4,0.2,227.6,0.2,227.8,0.2z"/>
	<path d="M149.3,0.5c-0.8,0.1-1.6,0.2-2.4,0.1C147.6,0.1,148.4,0.6,149.3,0.5z"/>
	<path d="M200.5,1.4c-1,0.4-2.2,0.2-3.4,0.2c-0.1-0.1-0.3-0.3-0.4-0.4C198.3,1.3,199.4,0.6,200.5,1.4z"/>
	<path d="M229.8,0.2c0.8,0,1.6,0,2.4,0C231.4,0.2,230.6,0.2,229.8,0.2z"/>
	<path d="M209.5,1c0.1,0.3-0.2,0.4-0.5,0.4c0-0.1,0-0.3,0-0.4C209.1,1,209.3,1,209.5,1z"/>
	<path d="M212,1c0.1,0,0.1-0.1,0.2-0.1c0.6,0,1.1,0,1.7,0.1C213.2,1,212.6,1,212,1z"/>
	<path d="M233.5,0.2c0.1,0,0.1-0.1,0.2-0.1c1.1,0,2.3,0,3.4,0.1C235.9,0.2,234.7,0.2,233.5,0.2z"/>
	<path d="M143.1,0.7c-0.5,0.2-1.1,0.1-1.7,0.1C142.1,0.3,142.5,0.8,143.1,0.7z"/>
	<path d="M239.1,0.1c0.9,0,1.9,0.1,2.8,0.1C241,0.2,240,0.1,239.1,0.1z"/>
	<path d="M140.2,0.7c-1,0.3-2.1,0.1-3.2,0.1C138,0.6,139.1,0.8,140.2,0.7z"/>
	<path class="st0" d="M224.3,1.5c-0.8,0.2-1.7,0.3-2.4-0.1C222.8,1.5,223.5,1,224.3,1.5z"/>
	<path d="M243.9,0.1c0.3,0,0.5,0.1,0.8,0.1C244.4,0.2,244.2,0.2,243.9,0.1z"/>
	<path d="M133.5,0.8c-0.2,0.1-0.5,0.1-0.8,0.1C133,0.9,133.1,0.8,133.5,0.8z"/>
	<path d="M184.9,1.9c-0.7,0.1-1.4,0-2,0.2C183.5,2.1,184.1,1.9,184.9,1.9z"/>
	<path d="M246,0.1c0.9,0,1.7,0.1,2.6,0.1C247.7,0.2,246.9,0.1,246,0.1z"/>
	<path class="st0" d="M224.6,1.3c0.2,0,0.5,0,0.7,0C225.1,1.3,224.9,1.3,224.6,1.3z"/>
	<path d="M200.7,2.2c-0.6,0.1-1.4,0.2-1.9-0.1C199.5,2.1,200.1,2.1,200.7,2.2z"/>
	<path d="M256.2,0.1c-1.9,0.1-3.9,0-5.8,0.3c-0.1-0.3-0.5-0.3-0.9-0.2c0.1,0,0.1-0.1,0.2-0.1C251.9,0.1,254.1,0.1,256.2,0.1z"/>
	<path d="M167.3,2.1c-1.3,0.4-2.6,0.1-4,0.1C164.7,2.1,166,2.1,167.3,2.1z"/>
	<path d="M172.6,2.1c-0.3,0.1-0.7,0.2-0.9,0C172,2.1,172.3,2.1,172.6,2.1z"/>
	<path d="M206.5,2.3c-0.2,0-0.7-0.1-0.7,0.1s0.3,0.2,0.4,0.3c-0.4,0-0.7-0.1-1.1-0.1c0.2,0,0.3-0.1,0.4-0.1
		c-0.4-0.4-0.7-0.1-1.3-0.1C204.4,1.9,205.9,2.1,206.5,2.3z"/>
	<path d="M149.7,1.9c0.3-0.1,0.6-0.1,0.9-0.2c0.2,0,0.4,0,0.5,0C150.7,1.8,150.2,1.9,149.7,1.9z"/>
	<path class="st0" d="M233.2,1.5c0-0.1,0-0.1,0-0.2c0.2,0,0.4,0.1,0.6,0.1C233.6,1.4,233.4,1.5,233.2,1.5z"/>
	<path class="st0" d="M215.7,2.1c0.2,0,0.5,0,0.7,0C216.2,2.1,216,2.1,215.7,2.1z"/>
	<path class="st0" d="M223.5,2c0,0.1,0,0.1,0,0.2c-0.7,0.2-1.3,0.1-2,0C222.3,1.8,222.9,2.4,223.5,2z"/>
	<path d="M209.5,2.6c0,0.1,0,0.1,0,0.2c-0.5,0-1.1-0.1-1.6-0.1C208.4,2.6,208.9,2.4,209.5,2.6z"/>
	<path d="M142.7,2.1c-0.4,0.2-1,0.1-1.5,0.1C141.7,2.1,142.2,1.8,142.7,2.1z"/>
	<path d="M157.9,2.4c-0.3,0.2-0.8,0.1-1.2,0.1C157.1,2.3,157.5,2.3,157.9,2.4z"/>
	<path d="M138.6,2.1c-0.4,0.1-0.8,0.1-1.3,0.1C137.7,2.1,138.2,1.9,138.6,2.1z"/>
	<path d="M153.9,2.8c-0.1-0.1-0.2-0.2-0.3-0.3c0.2,0,0.4,0,0.5,0C154.1,2.6,154,2.7,153.9,2.8z"/>
	<path d="M149.9,2.6c-0.7,0.3-1.5,0.4-2.3,0.1C148.4,2.7,149.1,2.6,149.9,2.6z"/>
	<path d="M170.3,3.1c0.7,0.3,0.8-0.2,1.5-0.2c-0.1,0.4,0.7,0.3,0,0.5c-0.8-0.2-1.5-0.1-1.9-0.6c0.3,0,0.5,0,0.8,0
		C170.6,3,170.4,3.1,170.3,3.1z"/>
	<path d="M158.1,3.2c-0.1,0.1-0.2,0.2-0.4,0.1s-0.2-0.1-0.3-0.2c0.1-0.1,0.2-0.1,0.3-0.2C157.8,3,158.1,3.1,158.1,3.2z"/>
	<path d="M177.9,3.3c0.1,0,0.1-0.1,0.2-0.1c0.4,0,0.7,0.1,1.1,0.1C178.8,3.3,178.3,3.3,177.9,3.3z"/>
	<path class="st0" d="M264.4,0.6c-0.8-0.1-1.6,0.1-2.4-0.1C262.9,0.4,263.6,0.4,264.4,0.6z"/>
	<path class="st0" d="M241.6,2.1c0.4,0,0.8-0.1,1.2-0.1C242.4,2.1,242,2.1,241.6,2.1z"/>
</g>
</svg>
