<svg version="1.1" id="Layer_1" xmlns="http://www.w3.org/2000/svg" xmlns:xlink="http://www.w3.org/1999/xlink" x="0px" y="0px"
	 viewBox="0 0 314.4 13.7" style="enable-background:new 0 0 314.4 13.7;" xml:space="preserve">
<style type="text/css">
	.path{fill:#daaf67;}
</style>
<g>
	<path d="M69.4,13.5c-21.3,0.2-41.7,0.7-62.8-0.8C4.9,11.9,1,12.4,1,11.3c0.2,0,0.4,0,0.5-0.1c0.2,0.7,2.2,0.6,3.5,0.9
		c0.2,0,0.4,0,0.5-0.1C5,11,2.3,11,0.4,10.5c0.1,0,0.2,0,0.3,0.1c0.2-0.6-1.3-1-0.1-1.5c0.8,0.1,1.5,0.2,2.3,0.2
		C2.7,9,1.7,8.9,1.1,8.9C0.8,8.9,0.4,9,0.2,8.9C0,8.7,0.1,8.7,0,8.6c1.4-0.3,2.7,0.2,4-0.3C2.9,8,1.6,8,0.6,7.7
		c0.1-0.2,0.2-0.4,0.3-0.6c1.1,0.1,2.6,0.5,3.4,0C3.6,6.2,0.1,6.7,0.6,5.6C0.5,5.4,0.3,5.2,0.1,4.9c0.1,0,0.3,0,0.4,0
		C0.4,4.7,0.3,4.6,0.2,4.4C2,4.6,4.2,4.8,6,4.9c1.3,0,0.1-0.2,0.5-0.5C4.3,3.9,2.7,4.9,1,4.1c1.3,0,2.5,0.1,3.8-0.1
		C4.7,3.8,4.4,3.5,3.7,3.5c-1,0-2,0.1-3-0.1c-0.2-0.2,0-0.3,0-0.5C1.3,3.4,2,3.1,3.1,3.1L3.2,3C2.5,2.8,2.3,2.7,2.1,2.3
		C3,2.4,3.9,2.6,4,2.1C3.1,1.8,1.8,1.8,0.7,1.5c4.8,0.1,9.5,0,14.3-0.1c10.1,0.1,20.2,0.1,30.2,0.4c0.9,0.2,1.3-0.2,2.2-0.1
		C49,2,50.4,1.6,52,1.7c5.6,0.1,11.1-0.4,16.7-0.3C76.6,1,84.5,1,92.5,1.1c1.7,0,3.4-0.1,5,0.2c1.1-0.1,1.7,0,2.8,0.1
		c11.1,0.1,22.1,0.4,33.2,0.4c2.6,0.3,5-0.3,7.7-0.1c2,0,3.9-0.1,5.9,0.1c0.4-0.5,1.3,0,2.1-0.1c2.5-0.3,5.1-0.1,7.4-0.6
		c6.8,0.1,13.6,0.2,20.4,0.3c-3.1,0.3-6.3,0-9.4,0.4c0.2,0.1,0.3,0.1,0.5,0.2c-0.2,0-0.3,0.1-0.4,0.1c1.1,0.5,2.7,0.3,4.2,0.4
		c-0.9,0.1-1.8,0.2-2.7,0.3c0.9,0.2,2,0.3,3.2,0.3c4.6,0,9.2,0,13.8,0c-0.1,0.3-1,0.1-1.5,0.3c-1.7,0-3.4-0.1-4.9,0.4
		c-2.8,0.2-5.6,0.1-8.3,0.4c0.4,0.6,2.3,0.1,3.3,0.2c1.5,0.1,2.7-0.4,3.5,0.2c-0.3,0-0.4,0.1-0.5,0.2c1.7,0.6,3.4-0.4,4.7,0.4
		c3.8-0.1,7.6,0.1,11.3-0.3c3.9,0,7.8-0.3,11.8-0.1c-0.9,0.1-1.7,0.3-2.5,0.4c0-0.1,0-0.1,0-0.1c-7.1,0-13.9,0.3-20.9,0.7
		c-0.1,0.1-0.2,0.1-0.4,0.1c0.4,0.1,0.8,0.1,1.3,0.1c-0.2,0.1-0.5,0.2-0.7,0.3c0.5,0.1,0.9,0.1,1.4,0.1c-1.3,0.1-2.3,0.4-3.6,0.1
		C180,6,179.8,6,179.7,5.8c-0.3,0.1-1.2,0.2-0.9,0.4c-1,0-1.8,0.1-2.7,0.3c3.3,0.4,6.6-0.1,9.9,0.1c0.5,0,0.2,0.4,0.7,0.4
		c1-0.4,2.1-0.2,3.4-0.4c2-0.4,3.7,0.3,5.9,0.1c0.2-0.1,0.3-0.3,0.5-0.4c1.2,0,2.5-0.1,3.7-0.1c0,0.1,0.2,0.1,0.4,0.2
		c1.9-0.4,4.3-0.4,6.4-0.5c1.9-1,4.7-0.6,7.2-1.1c3,0.4,6.1,0.1,9.1,0.4c0.9-0.4,0.9-0.8,1.3-1.2c0.5,0.1,1,0.1,1.6,0.1
		c0.1,0.4-0.8,0.4-1.6,0.6c1.1,0.9,3.6,0.4,5.6,0.6c-1.6,0.1-3.2,0-4.9,0.1c0.8,0.6,2.3,0.2,3.6,0.5s2.4,0,3.7,0.3
		c0.5,0.1,1.6,0.1,2.3,0.1c0.4-0.4,1.2-0.2,2-0.2c-0.3,0.1-0.6,0.1-0.8,0.2c0.5,0.3,1.1,0,1.7,0.1c1-0.3,1.6-0.2,2.5,0.1
		c-1.8,0.1-3.6,0.1-5.4,0.1c0,0.1,0,0.2,0,0.3c-0.2-0.5-1.3-0.4-2.3-0.4c-0.2,0-0.4,0.1-0.4,0.1c0,0.1,0.5,0.1,0.4,0.2
		s-0.1,0-0.3,0.1c0.9,0.4,1.8,0.1,2.8,0.3c1.7,0.1,3.3,0.1,5,0.2c0.1,0.1,0.2,0.2,0.3,0.4c0.3-0.1,0.7-0.3,1-0.4
		c2.9,0,5.6-0.1,8.4,0.2c1.4-0.4,2.7,0.3,4-0.1c-0.3-0.1-0.7-0.1-1.2-0.2c0.1-0.1-0.2-0.1-0.2-0.3c-0.8,0-1.6,0-2.4-0.1
		c0.3-0.1,0.6-0.4,0.9-0.5c-0.2-0.1-0.3-0.1-0.5-0.2c2-0.4-0.5-0.8,0.5-1.5c-0.2,0-0.3-0.1-0.4-0.1c0.5-0.1,1-0.2,1.5-0.4
		c-0.5-0.1-1.2-0.1-0.9-0.4c1.4,0.1,2.8,0,4.2,0.2c-0.1,0-0.5,0-0.4,0.1c0.4,0.3,1.6,0.2,2.2,0.4c-0.9,0.1-2.1-0.1-2.4,0.4
		c0.6,0.4,1.4,0.1,2.3,0.3c-0.5,0.1-1.2,0.1-1.7,0.2c0.3,0.1,0.9,0.1,1.3,0.2c-0.2,0.1-0.8,0.1-0.7,0.1c0,0.1,0.2,0.1,0.3,0.2
		c0.1,0,0.2-0.1,0.3-0.1c0.1,0.1,0.2,0.1,0.3,0.2c-0.5,0.1-0.9,0.1-1.2,0.2c0.4,0.4,1.1,0.5,2,0.5c-0.7,0.6-2.3,0-3.5,0.4
		c1,0.1,1.9,0.2,2.9,0.3c-2.8,0.2-5.3,0.6-7.5-0.2c-0.3,0.1-0.6,0.3-0.9,0.5c-0.9-0.4-2,0.1-2.8-0.4c-1,0-1.1,0.6-1.8,0.1
		c-0.4-0.2-0.7-0.1-1.4-0.1c-0.7,0.6-2.3,0.4-3.6,0.6c1.8,0.2,3.6,0.1,5.5,0.1c-4.5,0.3-8.9,0-13.4,0.2c0.2,0.1,0.3,0.2,0.5,0.4
		c1,0.1,1.8-0.1,2.7,0.1c2-0.3,3.9-0.2,6-0.1c0,0.1,0,0.2-0.1,0.3c3.1,0,6.2,0.1,9.3-0.1c3.9,0.3,8,0.4,11.9,0.6
		c1.6-0.1,3.3,0.1,4.9,0.2c1.1-0.1,2.3-0.2,3.4-0.3c-0.2-0.2-0.8,0-1.1-0.1s0-0.2,0-0.3c0.8-0.1,1.6-0.1,2.4,0.1
		c-0.3,0.1-0.9-0.1-0.9,0.2c1.2,0.1,1.7,0.6,2.6,0.1c1.1,0,2.1-0.1,3.2-0.1c-0.2-0.1-0.7-0.1-1.1-0.2c0.9-0.1,1.9,0.1,2.4-0.3
		c-0.7-0.2-1.6-0.1-2.3-0.2c0.1,0,0.3-0.1,0.3-0.1c-1.8-0.3-3.1,0.3-4.9,0.1c0.3,0,0.7-0.1,0.6-0.2s-0.4-0.2-0.6-0.3
		c1.8-0.4,3.6,0.1,5.6-0.1c0.2,0.1,0.4,0.1,0.7,0.2c0.3,0.1-0.5,0.1-0.2,0.2c2.5,0.1,5,0,7.5,0.1c-1.5,0.2-2.6,1.1-4.2,0.6
		c-0.3-0.1-0.4-0.3-0.9-0.3c-0.7,0.4-2.7,0.1-2.7,0.6c2.7,0.1,5.3-0.1,7.9,0.3c1.2-0.4,2.5,0.1,3.7-0.3c3.6,0.1,7.1,0.1,10.7,0
		c-1.8,0.3-3.5,0.4-5.5,0.4c0.5,0.4,1.5,0.3,2.4,0.3c-2.3,0.1-4.5,0.2-6.8,0.4c0,0.1,0.2,0.4,0.6,0.4c2.7,0.1,5.3-0.1,8,0.1
		c-7.3,0.1-14.4,0.8-21.7,0.7c-5,0.4-9.6-0.2-14.6-0.4c1.8-0.3,3-0.4,4.7,0c0.3-0.1,0.6-0.4,1-0.5c-1-0.3-1.6,0-2.7,0
		c-5.8-0.8-11.5-0.3-17.5-0.6c-2.3-0.1-4.6-0.1-6.9,0c0,0.1,0,0.1,0,0.1c1.6-0.1,3,0.3,4.5,0.5c5-0.2,9.7,0.2,14.6,0.4
		c-11.8,0-22.9-0.3-34.8-0.1c-18.7,0.1-37.8,0.4-56.5,1.2C134.7,13.6,101.9,13.7,69.4,13.5z"/>
	<path class="st0" d="M183.2,11.8c0.4-0.3,1.4-0.2,2-0.3s0.8-0.1,1.3-0.1C186,12,184.4,11.8,183.2,11.8z"/>
	<path class="st0" d="M192.1,11.3c-0.1,0-0.3-0.1-0.2-0.2c0.3-0.1,0.8-0.1,1.3-0.1c0,0.1,0,0.2,0.1,0.3c-0.2-0.1-0.4-0.1-0.6-0.2
		C192.5,11.2,192.3,11.3,192.1,11.3z"/>
	<path class="st0" d="M230.8,11c0.2-0.4,1-0.2,1.7-0.3c0.2,0.2,0.9,0.4,0.1,0.5C232.1,11,231.4,11.1,230.8,11z"/>
	<path class="st0" d="M191.7,9.4c0.8-0.1,1.5,0,2.1-0.3c-1.3-0.1-2.5,0.1-3.8,0c1.2-0.1,3,0.1,3.3-0.6c3.3,0.1,6.5-0.2,9.7,0.1
		c-2.2,0.1-4.6,0-6.6,0.5C194.8,9.5,193.5,9.4,191.7,9.4z"/>
	<path class="st0" d="M190.1,9.4c-0.9,0.1-1.5,0.1-2.4,0.2s-2.2,0-3.2,0C186.3,9.6,188.2,9.5,190.1,9.4z"/>
	<path class="st0" d="M233.7,8.7c0.7-0.1,1.5,0.1,2.1-0.1c-0.4-0.1-0.6-0.2-1.1-0.1c1.2-0.2,2.2-0.3,3.4,0c-0.8,0.1-1.6,0.1-2.4,0.1
		c0.5,0.1,1,0.1,1.6,0.2C236.2,8.7,234.9,8.7,233.7,8.7z"/>
	<path class="st0" d="M257.7,10.3c0.6-0.1,1.3,0,1.9,0.1C258.9,10.4,258.3,10.4,257.7,10.3z"/>
	<path class="st0" d="M268.8,11.5c-0.3,0-0.7,0.1-1,0.1c-0.2-0.1-0.4-0.1-0.7-0.1C267.7,11.5,268.2,11.5,268.8,11.5z"/>
	<path d="M248,8.9c0.8,0.1,1.6,0.1,2.3,0.1C249.4,9.1,248.3,9.4,248,8.9z"/>
	<path class="st0" d="M194.6,7.7c-0.2,0-0.5,0-0.7,0.1C194.1,7.7,194.3,7.7,194.6,7.7z"/>
	<path class="st0" d="M193.2,7.7c-0.2,0-0.5,0-0.7,0.1C192.8,7.7,193,7.7,193.2,7.7z"/>
	<path d="M251.7,9.1c0.2-0.1,0.5,0,0.8,0C252.2,9.2,252,9.1,251.7,9.1z"/>
	<path d="M264.2,9.8c0.5-0.1,0.9-0.1,1.4,0C265.4,9.9,264.7,9.8,264.2,9.8z"/>
	<path d="M267.7,9.8c0,0.1-0.1,0.1-0.1,0.1c-0.2-0.1-0.3-0.1-0.5-0.1C267.3,9.8,267.5,9.8,267.7,9.8z"/>
	<path class="st0" d="M283.9,11.1c0.1,0,0.4,0,0.5,0.1c0.1,0.1-0.3,0.2,0,0.3c-0.4,0.1-0.9,0.1-1.3,0.2
		C283.3,11.4,283.1,11.1,283.9,11.1z"/>
	<path class="st0" d="M175.5,6.7c-0.1,0-0.2,0.1-0.4,0.1c-0.3,0-0.6,0-0.8,0C174.7,6.8,175.1,6.8,175.5,6.7z"/>
	<path class="st0" d="M285.8,11.5c0.2-0.2,0.7-0.3,0.5-0.6c0.9,0,0.5,0.3,1.1,0.4C286.8,11.5,286.4,11.6,285.8,11.5z"/>
	<path d="M265.2,9.1c0.7-0.3,1.5-0.1,2.3,0C266.7,9.1,266.1,9.2,265.2,9.1z"/>
	<path class="st0" d="M180.7,6.2c0.1-0.2,0.9-0.3,1.2-0.1C181.5,6.2,181.1,6.2,180.7,6.2z"/>
	<path d="M244.5,6.6c0.3-0.1,0.7,0,1,0C245.1,6.6,244.8,6.6,244.5,6.6z"/>
	<path d="M207.9,5c1.6-0.8,4.3-0.3,6.2-0.9c2-0.2,3.4,0.5,5.4,0.2c-0.1,0.1-0.3,0.1-0.4,0.1c0.3,0.1,0.5,0.2,0.8,0.4
		c-1.1-0.1-2,0.1-2.9-0.2c-1.7,0.6-4,0.1-5.9,0.6C210,5.1,209,5.1,207.9,5z"/>
	<path d="M240.4,5.9c0.4,0.1,0.7,0.2,1.1,0.3c-0.4-0.1-0.8-0.1-1.1-0.1C240.4,6,240.4,6,240.4,5.9z"/>
	<path d="M236.1,5.7c0.4-0.1,0.7,0,1.1,0C236.9,5.8,236.5,5.7,236.1,5.7z"/>
	<path d="M267.4,8.6c0.5-0.1,0.9,0,1.4,0C268.3,8.6,267.9,8.7,267.4,8.6z"/>
	<path d="M233.7,5.3c0.3-0.1,0.7-0.1,1.1-0.1C234.5,5.4,234,5.3,233.7,5.3z"/>
	<path class="st0" d="M284.9,10.6c0.1-0.1,0.6-0.2,0.7-0.1C285.7,10.6,285.1,10.6,284.9,10.6z"/>
	<path d="M221.6,4.4c-0.1-0.1,0.1-0.4,0.6-0.3c0.1,0,0.4,0,0.6,0C222.5,4.4,222.1,4.9,221.6,4.4z"/>
	<path d="M298.5,11.4c3.7,0,7.2-0.6,10.9-0.6c0.5-0.1,0.9-0.4,1.5-0.5c0,0.1,0,0.2,0,0.3c1.2,0,2.3,0.1,3.5,0.1
		c-5.3,0.3-10.5,0.6-15.8,0.8C298.6,11.5,298.5,11.5,298.5,11.4z"/>
	<path d="M202.7,4.2c0.1-0.1,0.3-0.1,0.4-0.1c0.1,0.1,0.3,0.1,0.4,0.3C203.3,4.1,203,4.2,202.7,4.2z"/>
	<path class="st0" d="M130.9,7.4c0.7-0.1,1.5-0.1,2.2-0.1c-0.5,0.3-1.3,0.4-2.2,0.3C131,7.5,130.9,7.4,130.9,7.4z"/>
	<path d="M230,4.4c0.9-0.1,1.7,0,2.6,0.1C231.7,4.5,230.8,4.5,230,4.4z"/>
	<path d="M233.9,4.6c-0.2-0.1,0.5-0.2,0.6-0.3c0.1,0.1,0.4,0.2,0.5,0.2c0.1,0.1,0.5-0.1,0.4,0C235.2,4.6,234.1,4.7,233.9,4.6z"/>
	<path d="M267.1,7.6c0.6-0.1,1.3-0.1,1.9,0C268.5,7.9,267.8,7.7,267.1,7.6z"/>
	<path d="M270.5,7.7c0.2,0,0.3-0.1,0.3-0.2c2.2,0.1,4.4,0.2,6.6,0.3C275.1,7.7,272.9,8.2,270.5,7.7z"/>
	<path d="M244,4.6c-0.1-0.1,0.8-0.1,1,0C244.7,4.6,244,4.7,244,4.6z"/>
	<path d="M207.5,2.9c0.3-0.1,0.8-0.1,1.2-0.1c0,0.1,0,0.1,0,0.2C208.3,2.9,207.9,3,207.5,2.9z"/>
	<path class="st0" d="M136.5,5.7c0.2-0.1,0.2-0.1-0.1-0.2c-0.3-0.1-0.6-0.1-0.9-0.1c-0.1,0.5-1.6,0.4-2.6,0.4c0.7-0.1,1.4-0.1,2-0.1
		c-0.8-0.1-1.7-0.1-2.6-0.1c0-0.1-0.1-0.1-0.1-0.1c2-0.1,4.1-0.1,6.1-0.1c0,0.1,0.3,0.4,0.8,0.4c1.4-0.1,3-0.2,4.1-0.6
		c1.2-0.1,1.8,0.4,3,0.3c0,0.1,0.1,0.1,0.1,0.2C143.1,5.8,139.8,5.6,136.5,5.7z"/>
	<path d="M218.4,3c0.3-0.3,0.6-0.6,1.6-0.5c-0.1,0.1-0.2,0.4-0.3,0.5C219.3,3,218.9,3,218.4,3z"/>
	<path d="M288.7,9c0.6-0.4,1.8-0.4,2.9-0.5c0.7,0.2,0.5,0.6,1.7,0.5c-1.5,0.1-3,0.1-4.4,0.1C288.8,9.1,288.7,9.1,288.7,9z"/>
	<path d="M211.3,2.8c0.5-0.1,1-0.1,1.4-0.2c-0.3-0.1-0.6-0.1-1-0.1c0.6,0,1.2,0,1.8,0c-0.2,0.1-0.4,0.1-0.7,0.1
		c0.5,0.1,1.4,0,1.7,0.1C213.4,2.8,212.4,2.7,211.3,2.8z"/>
	<path class="st0" d="M170.1,4.1c0,0.1-0.1,0.1-0.1,0.1c-0.7-0.1-1.4-0.1-2.1-0.1C168.7,4.1,169.4,4.1,170.1,4.1z"/>
	<path d="M300,10c0.3-0.3,0.7,0,1.2-0.1C301.4,10.1,300.3,10.1,300,10z"/>
	<path d="M270.6,7.2c0.1-0.1,0-0.1-0.1-0.1c1.5-0.2,2.7,0.3,4.1-0.1c0.7,0.1,1.4,0.1,2.1,0.2C274.7,7.3,272.7,7.2,270.6,7.2z"/>
	<path d="M239.7,3.7c0.6,0,1-0.1,1.6-0.1C240.8,3.7,240.3,3.7,239.7,3.7z"/>
	<path d="M215.2,2.7c0.1-0.1,0.2-0.1,0.2-0.2C215.4,2.5,215.3,2.6,215.2,2.7z"/>
	<path class="st0" d="M165.2,4.1c0.1,0.1,0.2,0.1,0.3,0.2c-0.1,0-0.2,0-0.2,0C165.3,4.2,165.2,4.1,165.2,4.1z"/>
	<path d="M187.7,3.1c0.9-0.4,2.2-0.4,3.5-0.3C190.2,3.1,188.9,3,187.7,3.1z"/>
	<path d="M294.2,9.1c0.3-0.2,0.5-0.5,1.1-0.6s0.7-0.4,1.5-0.4c-0.1,0.2-0.1,0.4-0.2,0.6c1.2,0.4,2.3,0,3.6-0.1
		c-0.2-0.6,1.2-0.6,2.3-0.6c0.5,0,0.5,0.1,0.7,0.2c-0.7,0.3-1.7,0-2.4,0.3c1.4,0.4,2.8,0.1,4.3,0.1c-0.6,0.3-1.6,0.1-2.3,0.4
		c-0.7-0.4-1.5,0.4-2.1-0.1c-2,0.1-3.6-0.1-5.4,0.4C295.4,9.1,294.7,9,294.2,9.1z"/>
	<path class="st0" d="M162.6,4.1c0.5,0,0.9-0.1,1.4-0.1c0,0.1,0,0.1,0.1,0.1C163.5,4.3,163.1,4.2,162.6,4.1z"/>
	<g>
		<path d="M209.1,2.4c-0.3,0-0.7,0-1,0V2.3C208.4,2.3,208.8,2.3,209.1,2.4L209.1,2.4L209.1,2.4z"/>
		<path d="M208.6,2.4"/>
	</g>
	<path d="M204.9,2.4c0.7,0,1.3,0,2,0.1C206.3,2.5,205.6,2.5,204.9,2.4L204.9,2.4z"/>
	<path class="st0" d="M137.6,4.9c-0.2-0.1-0.4-0.1-0.6-0.3c3.9-0.1,7.8-0.3,11.7-0.4c0,0.1,0,0.3-0.1,0.4
		C144.9,4.8,141.3,5,137.6,4.9z"/>
	<path d="M312.2,10.3c0.2,0,0.3-0.1,0.5-0.1C312.5,10.3,312.4,10.3,312.2,10.3z"/>
	<path d="M235.5,2.7c0.2,0,0.3-0.2,0.6-0.1C236.5,2.7,235.8,2.8,235.5,2.7z"/>
	<path d="M232.4,2.6c-0.3,0-0.6,0-0.8-0.1C231.8,2.5,232.1,2.5,232.4,2.6z"/>
	<path d="M139.6,4.7c-0.3,0-0.6,0-0.9,0.1C139,4.8,139.3,4.8,139.6,4.7z"/>
	<path d="M278.5,7c0.4-0.1,0.7-0.1,1.1-0.1C279.5,7.2,278.9,7.2,278.5,7z"/>
	<path d="M250.8,3.5c1.8-0.2,3.5-0.2,5.4-0.1C254.4,3.7,252.7,3.5,250.8,3.5z"/>
	<path d="M210.8,1.4c0.4-0.1,0.6,0.1,1,0.1C211.5,1.6,211.1,1.5,210.8,1.4z"/>
	<path class="st0" d="M132.5,4.8c1.1-0.2,2.3-0.1,3.6-0.1C134.9,4.6,133.7,4.7,132.5,4.8z"/>
	<path d="M177.3,2.4c0.3,0,0.7,0,1-0.1C178.1,2.5,177.7,2.5,177.3,2.4z"/>
	<path d="M172.9,2.5c1.1-0.2,2.4-0.1,3.6-0.1C175.3,2.5,174.1,2.6,172.9,2.5z"/>
	<path d="M291.8,7.8c1.8-0.1,3.5,0.1,4.4-0.6c-0.8-0.1,0.4-0.2,0.1-0.4c-1-0.4-2.4-0.1-3.4-0.5c-0.3,0.3-1.1,0.3-1.8,0.3
		c-0.2,0-0.3-0.3-0.1-0.4c2.1,0.1,4.1,0,6.2-0.1c1.5-0.1,3,0.1,4.4,0.1c0.1,0,0.2,0,0.2,0c-0.3,0.3-1.2,0.4-1.3,0.8
		c0,0.1-1.4,0.1-1.6,0c0.4,0,0.6-0.1,0.9-0.1c-0.7-0.1-0.7-0.6-1.7-0.4c-0.5,0.1-1.2,0.3-1.6,0.4c0.2,0.1,0.6,0.1,0.8,0.2
		c0.5,0-0.7,0-0.6,0.1c0.2,0.1,1.2,0.1,0.6,0.4c0.6,0.1,1.4,0.1,1.8-0.1c0.2-0.1-0.3-0.3,0.3-0.3c0.3,0.6,1.4,0.1,2.4,0.4
		c1.2-0.1,2.4,0,3.6-0.1C300.9,7.8,296.5,8,291.8,7.8z"/>
	<path d="M214.4,1.2c0.3,0,0.7,0,1,0C215.1,1.3,214.7,1.3,214.4,1.2z"/>
	<path d="M202.1,0.9C202,0.9,202,1,201.9,1c-0.5,0-1.1,0-1.6,0C200.9,1,201.5,0.9,202.1,0.9z"/>
	<path d="M292.7,7.4c0.4-0.1,0.6-0.4,1-0.5c0.2,0.1,0.3,0.2,0.5,0.4C293.7,7.3,293.3,7.4,292.7,7.4z"/>
	<path class="st0" d="M144.3,3c0.3,0,0.4-0.1,0.7,0c0.3,0.1-0.2,0.3-0.6,0.2C144.4,3.2,144.4,3.1,144.3,3z"/>
	<path class="st0" d="M132.1,3.3c0.6-0.1,1.3,0,1.8-0.1c-2.5-0.4-5.2-0.1-7.8-0.4c-1.3,0-2.7-0.1-4-0.1c1.2-0.1,2.3-0.1,3.5-0.1
		c-0.1-0.1-0.2-0.1-0.3-0.2c1.9-0.1,3.8,0,5.7-0.1c0,0.1,0.1,0.1,0.1,0.2c1.5,0.1,2.6-0.4,4,0c2,0,3.6-0.6,5.5-0.1
		c-1.6,0.2-1.1,0.9-3.1,1C136.1,3.4,133.7,3.3,132.1,3.3z"/>
	<path d="M263.4,1.5c-0.1,0.1-0.2,0.1-0.2,0.2c-0.1,0-0.3,0-0.4,0C262.9,1.7,263.1,1.6,263.4,1.5z"/>
	<path d="M213.4,0c-0.1,0.1-0.2,0.1-0.2,0.1c-0.2,0-0.4,0-0.6,0C212.9,0.1,213.1,0.1,213.4,0z"/>
	<path class="st0" d="M130.6,3.4L130.6,3.4c-0.5,0.1-1.1,0.1-1.6,0.1C129.5,3.4,130,3.4,130.6,3.4z"/>
	<path class="st0" d="M146.1,2.4c0.4-0.1,1.1,0,1.3-0.3C147.2,2,147,2,146.7,2c0.4,0,0.8-0.1,1.2-0.1C147.7,2.3,147.2,2.6,146.1,2.4
		z"/>
	<path class="st0" d="M141.9,2.3c0.6-0.1,1.1-0.1,1.7-0.2c0,0.1,0.1,0.1,0.1,0.3C143.1,2.3,142.5,2.5,141.9,2.3z"/>
	<path d="M301.9,6.9c0.3,0,0.7,0,1,0C302.6,7,302.3,6.9,301.9,6.9z"/>
	<path d="M282.4,5.1c0.6-0.1,1.2-0.1,1.9-0.1C283.7,5.2,283.1,5.2,282.4,5.1z"/>
	<path d="M302.7,6.4c0.1,0,0.5-0.1,0.6-0.1C303.7,6.4,302.9,6.7,302.7,6.4z"/>
	<path d="M292.2,5.1c-0.5,0-1.4,0.1-1.8,0.1s-0.3-0.1-0.6-0.1C290.6,5.1,291.4,5.1,292.2,5.1z"/>
	<path d="M280.9,4.2c0.3-0.1,0.8-0.1,1.2-0.1c0.1,0.1,0.1,0.1,0.2,0.1C281.8,4.3,281.4,4.1,280.9,4.2z"/>
	<path d="M160.4,0.6c-0.3,0-0.6,0-0.8,0.1C159.8,0.6,160.1,0.6,160.4,0.6z"/>
	<path d="M293.8,5c2.6,0.1,5.2,0,7.8,0.1C299,5.3,296.4,5.1,293.8,5z"/>
	<path d="M291.7,4.5c0.4-0.1,0.4-0.3,1-0.2c-0.1,0.1-0.3,0.2-0.4,0.4C292.1,4.6,291.9,4.6,291.7,4.5z"/>
	<path d="M295.7,4.5c0.2,0,0.4,0.1,0.6,0.1c-0.3,0-0.6,0.1-0.9,0.1C295.5,4.6,295.5,4.5,295.7,4.5z"/>
	<path class="st0" d="M1.1,5c0.3,0,0.6,0,1,0C1.8,5,1.6,5.1,1.3,5.1C1.3,5.1,1.2,5,1.1,5z"/>
	<path class="st0" d="M3.9,3.1c0.3,0,0.6,0.1,0.9,0.1c-0.1,0-0.3,0.1-0.4,0C4.2,3.2,4,3.1,3.9,3.1z"/>
</g>
</svg>
