<svg version="1.1" id="Layer_1" xmlns="http://www.w3.org/2000/svg" xmlns:xlink="http://www.w3.org/1999/xlink" x="0px" y="0px"
	 viewBox="0 0 484.4 13.7" style="enable-background:new 0 0 484.4 13.7;" xml:space="preserve">
<style type="text/css">
	path{fill:#daaf67;}
</style>
<g>
	<path d="M107,13.5c-32.9,0.2-64.3,0.7-96.8-0.8c-2.6-0.8-8.6-0.3-8.6-1.4c0.3,0,0.6,0,0.8-0.1c0.3,0.7,3.4,0.6,5.4,0.9
		c0.3,0,0.6,0,0.8-0.1c-0.8-1-4.9-1.1-7.9-1.5c0.1,0,0.3,0,0.4,0.1c0.3-0.6-2-1-0.2-1.5c1.2,0.1,2.3,0.2,3.5,0.2
		C4.1,9,2.6,8.9,1.6,8.9C1.1,8.9,0.4,9,0.3,8.9C0.1,8.7,0.2,8.7,0,8.7c2.2-0.3,4.2,0.2,6.2-0.3C4.5,8.1,2.4,8.1,0.9,7.7
		c0.2-0.2,0.3-0.4,0.5-0.6c1.7,0.1,4.1,0.5,5.2,0c-0.9-1-6.3-0.5-5.5-1.5C0.8,5.4,0.5,5.2,0.3,4.9c0.2,0,0.4,0,0.5,0
		C0.7,4.7,0.5,4.6,0.3,4.4c2.8,0.2,6.2,0.4,8.9,0.4c2.1,0,0.1-0.2,0.7-0.5C6.6,3.9,4.2,4.9,1.7,4.1c2.1,0,3.8,0.1,5.8-0.1
		C7.4,3.8,6.9,3.5,5.9,3.5c-1.6,0-3.1,0.1-4.6-0.1C1,3.2,1.3,3.2,1.4,3c1,0.4,2.1,0.1,3.6,0.1C5.1,3.1,5.1,3,5.2,3
		c-1-0.2-1.4-0.4-1.7-0.7c1.3,0.1,2.7,0.3,2.8-0.2C5,1.7,2.8,1.8,1.3,1.5c7.4,0.1,14.6,0,22-0.1c15.5,0.1,31.1,0.1,46.6,0.4
		c1.4,0.2,1.9-0.2,3.3-0.1c2.4,0.2,4.6-0.1,7.2-0.1c8.6,0.1,17.1-0.4,25.8-0.3c12.2-0.4,24.3-0.4,36.6-0.4c2.6,0,5.3-0.1,7.7,0.2
		c1.7-0.1,2.7,0,4.3,0.1c17.1,0.1,34.1,0.4,51.2,0.4c4,0.3,7.7-0.3,11.8-0.1c3.1,0,6-0.1,9,0.1c0.6-0.5,2,0,3.3-0.1
		c3.9-0.3,7.8-0.1,11.5-0.6c10.5,0.1,21,0.2,31.5,0.3c-4.8,0.3-9.7,0-14.5,0.4c0.3,0.1,0.5,0.1,0.8,0.2c-0.3,0-0.4,0.1-0.6,0.1
		c1.7,0.5,4.1,0.3,6.5,0.4c-1.4,0.1-2.7,0.2-4.1,0.3c1.4,0.2,3.1,0.3,4.9,0.3c7.1,0,14.2,0,21.3,0c-0.2,0.3-1.6,0.1-2.3,0.3
		c-2.7,0-5.3-0.1-7.5,0.4c-4.2,0.2-8.6,0.1-12.8,0.4c0.6,0.6,3.6,0.1,5.1,0.2c2.3,0.1,4.2-0.4,5.3,0.2c-0.4,0-0.5,0.1-0.8,0.2
		c2.7,0.6,5.2-0.4,7.3,0.4c5.8-0.1,11.6,0.1,17.4-0.3c6.1,0,12.1-0.3,18.1-0.1c-1.4,0.1-2.6,0.3-3.9,0.4c0-0.1,0-0.1,0-0.1
		c-10.9,0-21.4,0.3-32.1,0.7c-0.2,0.1-0.4,0.1-0.5,0.1c0.7,0.1,1.3,0.1,2,0.1c-0.4,0.1-0.8,0.2-1.1,0.3C282.4,6,283,6,283.8,6
		c-1.9,0.1-3.5,0.4-5.5,0.1c-0.3-0.1-0.6-0.2-0.8-0.4c-0.5,0.1-1.9,0.2-1.3,0.4c-1.5,0-2.8,0.1-4.2,0.3c5,0.4,10.1-0.1,15.2,0.1
		c0.7,0,0.3,0.4,1.1,0.4c1.5-0.4,3.3-0.2,5.2-0.4c3.1-0.4,5.7,0.3,9.1,0.1c0.3-0.1,0.5-0.3,0.8-0.4c1.9,0,3.8-0.1,5.8-0.1
		c0,0.1,0.4,0.1,0.6,0.2c3-0.4,6.6-0.4,9.9-0.5c2.9-1,7.2-0.6,11-1.1c4.6,0.4,9.3,0.1,14,0.4c1.4-0.4,1.3-0.8,2-1.2
		c0.8,0.1,1.6,0.1,2.4,0.1c0.2,0.4-1.2,0.4-2.5,0.6c1.7,0.9,5.5,0.4,8.6,0.6c-2.5,0.1-5,0-7.5,0.1c1.2,0.6,3.6,0.2,5.5,0.5
		c1.9,0.3,3.7,0,5.7,0.3c0.8,0.1,2.4,0.1,3.5,0.1c0.6-0.4,1.8-0.2,3-0.2c-0.4,0.1-0.9,0.1-1.3,0.2c0.7,0.3,1.7,0,2.7,0.1
		c1.5-0.3,2.4-0.2,3.8,0.1c-2.8,0.1-5.5,0.1-8.3,0.1c0,0.1,0,0.2-0.1,0.3c-0.2-0.5-2-0.4-3.5-0.4c-0.3,0-0.6,0.1-0.6,0.1
		c0,0.1,0.7,0.1,0.5,0.2s-0.2,0-0.4,0.1c1.4,0.4,2.8,0.1,4.4,0.3c2.6,0.1,5.2,0.1,7.7,0.2c0.2,0.1,0.4,0.2,0.5,0.4
		c0.5-0.1,1.1-0.3,1.6-0.4c4.5,0,8.6-0.1,13,0.2c2.2-0.4,4.2,0.3,6.2-0.1c-0.4-0.1-1.1-0.1-1.8-0.2c0.1-0.1-0.3-0.1-0.4-0.3
		c-1.3,0-2.4,0-3.7-0.1c0.5-0.1,1-0.4,1.4-0.5c-0.3-0.1-0.5-0.1-0.8-0.2c3.1-0.4-0.8-0.8,0.8-1.5c-0.3,0-0.4-0.1-0.6-0.1
		c0.8-0.1,1.6-0.2,2.4-0.4c-0.8-0.1-1.9-0.1-1.3-0.4c2.2,0.1,4.4,0,6.4,0.2c-0.1,0-0.7,0-0.6,0.1c0.6,0.3,2.4,0.2,3.4,0.4
		c-1.5,0.1-3.3-0.1-3.7,0.4c0.9,0.4,2.2,0.1,3.6,0.3c-0.8,0.1-1.9,0.1-2.6,0.2c0.5,0.1,1.3,0.1,2.1,0.2c-0.3,0.1-1.2,0.1-1.1,0.1
		c0.1,0.1,0.3,0.1,0.5,0.2c0.1,0,0.3-0.1,0.4-0.1c0.1,0.1,0.3,0.1,0.4,0.2c-0.7,0.1-1.3,0.1-1.9,0.2c0.6,0.4,1.6,0.5,3,0.5
		c-1.1,0.6-3.6,0-5.4,0.4c1.5,0.1,2.9,0.2,4.4,0.3c-4.3,0.2-8.1,0.6-11.6-0.2c-0.5,0.1-0.9,0.3-1.4,0.5c-1.4-0.4-3,0.1-4.4-0.4
		c-1.5,0-1.7,0.6-2.8,0.1c-0.6-0.2-1.1-0.1-2.1-0.1c-1,0.6-3.6,0.4-5.5,0.6c2.8,0.2,5.6,0.1,8.5,0.1c-6.9,0.3-13.8,0-20.7,0.2
		c0.3,0.1,0.5,0.2,0.8,0.4c1.5,0.1,2.8-0.1,4.2,0.1c3-0.3,6-0.2,9.2-0.1c0,0.1-0.1,0.2-0.1,0.3c4.8,0,9.6,0.1,14.3-0.1
		c6.1,0.3,12.3,0.4,18.4,0.6c2.4-0.1,5.1,0.1,7.5,0.2c1.8-0.1,3.5-0.2,5.3-0.3c-0.4-0.2-1.2,0-1.8-0.1s0.1-0.2,0-0.3
		c1.3-0.1,2.4-0.1,3.6,0.1c-0.5,0.1-1.4-0.1-1.4,0.2c1.9,0.1,2.7,0.6,4.1,0.1c1.6,0,3.2-0.1,4.9-0.1c-0.4-0.1-1.1-0.1-1.7-0.2
		c1.4-0.1,2.9,0.1,3.8-0.3c-1.1-0.2-2.4-0.1-3.6-0.2c0.2,0,0.5-0.1,0.5-0.1c-2.8-0.3-4.7,0.3-7.6,0.1c0.4,0,1.1-0.1,0.9-0.2
		s-0.6-0.2-0.9-0.3c2.8-0.4,5.6,0.1,8.6-0.1c0.4,0.1,0.7,0.1,1.1,0.2s-0.8,0.1-0.3,0.2c3.9,0.1,7.7,0,11.6,0.1
		c-2.4,0.2-3.9,1.1-6.5,0.6C430.9,9.2,430.8,9,430,9c-1.1,0.4-4.2,0.1-4.1,0.6c4.2,0.1,8.2-0.1,12.2,0.3c1.9-0.4,3.8,0.1,5.8-0.3
		c5.5,0.1,10.9,0.1,16.4,0c-2.8,0.3-5.4,0.4-8.4,0.4c0.7,0.4,2.2,0.3,3.6,0.3c-3.5,0.1-7,0.2-10.4,0.4c0,0.1,0.4,0.4,0.9,0.4
		c4.2,0.1,8.2-0.1,12.3,0.1c-11.3,0.1-22.1,0.8-33.5,0.7c-7.8,0.4-14.8-0.2-22.5-0.4c2.7-0.3,4.7-0.4,7.3,0c0.5-0.1,1-0.4,1.5-0.5
		c-1.6-0.3-2.5,0-4.1,0c-8.9-0.8-17.8-0.3-26.9-0.6c-3.6-0.1-7-0.1-10.6,0c0,0.1,0,0.1-0.1,0.1c2.5-0.1,4.6,0.3,6.9,0.5
		c7.6-0.2,14.9,0.2,22.5,0.4c-18.1,0-35.3-0.3-53.7-0.1c-28.9,0.1-58.2,0.4-87.1,1.2C207.5,13.6,157.1,13.7,107,13.5z"/>
	<path class="st0" d="M282.4,11.8c0.6-0.3,2.2-0.2,3.1-0.3s1.2-0.1,2-0.1C286.6,12,284.2,11.8,282.4,11.8z"/>
	<path class="st0" d="M296.1,11.3c-0.2,0-0.4-0.1-0.3-0.2c0.4-0.1,1.3-0.1,2-0.1c0,0.1,0.1,0.2,0.1,0.3c-0.3-0.1-0.6-0.1-0.9-0.2
		C296.6,11.2,296.4,11.3,296.1,11.3z"/>
	<path class="st0" d="M355.6,11c0.4-0.4,1.6-0.2,2.7-0.3c0.3,0.2,1.4,0.4,0.2,0.5C357.6,11,356.5,11.1,355.6,11z"/>
	<path class="st0" d="M295.4,9.4c1.2-0.1,2.4,0,3.2-0.3c-1.9-0.1-3.8,0.1-5.8,0c1.9-0.1,4.7,0.1,5-0.6c5,0.1,10-0.2,14.9,0.1
		c-3.4,0.1-7.1,0-10.1,0.5C300.1,9.5,298.2,9.4,295.4,9.4z"/>
	<path class="st0" d="M292.9,9.4c-1.3,0.1-2.3,0.1-3.7,0.2c-1.4,0.1-3.4,0-4.9,0C287.2,9.6,290,9.5,292.9,9.4z"/>
	<path class="st0" d="M360.2,8.7c1.1-0.1,2.3,0.1,3.2-0.1c-0.6-0.1-1-0.2-1.7-0.1c1.9-0.2,3.5-0.3,5.3,0c-1.2,0.1-2.4,0.1-3.6,0.1
		c0.8,0.1,1.6,0.1,2.4,0.2C363.9,8.7,362,8.7,360.2,8.7z"/>
	<path class="st0" d="M397.1,10.3c1-0.1,2,0,2.9,0.1C399,10.4,398.1,10.4,397.1,10.3z"/>
	<path class="st0" d="M414.2,11.5c-0.5,0-1.1,0.1-1.6,0.1c-0.3-0.1-0.7-0.1-1-0.1C412.4,11.5,413.3,11.5,414.2,11.5z"/>
	<path d="M382.1,8.9c1.2,0.1,2.4,0.1,3.6,0.1C384.3,9.1,382.6,9.4,382.1,8.9z"/>
	<path class="st0" d="M299.8,7.7c-0.4,0-0.7,0-1.1,0.1C299.1,7.7,299.4,7.7,299.8,7.7z"/>
	<path class="st0" d="M297.8,7.7c-0.4,0-0.7,0-1.1,0.1C297.1,7.7,297.4,7.7,297.8,7.7z"/>
	<path d="M387.9,9.1c0.3-0.1,0.7,0,1.2,0C388.7,9.2,388.4,9.1,387.9,9.1z"/>
	<path d="M407.1,9.8c0.7-0.1,1.4-0.1,2.2,0C408.9,9.9,407.8,9.8,407.1,9.8z"/>
	<path d="M412.4,9.8c0,0.1-0.1,0.1-0.1,0.1c-0.3-0.1-0.5-0.1-0.8-0.1C411.8,9.8,412.1,9.8,412.4,9.8z"/>
	<path class="st0" d="M437.5,11.1c0.2,0,0.6,0,0.8,0.1c0.2,0.1-0.4,0.2,0,0.3c-0.7,0.1-1.3,0.1-2,0.2
		C436.5,11.4,436.3,11.1,437.5,11.1z"/>
	<path class="st0" d="M270.5,6.7c-0.2,0-0.4,0.1-0.6,0.1c-0.4,0-0.9,0-1.3,0C269.2,6.8,269.8,6.8,270.5,6.7z"/>
	<path class="st0" d="M440.3,11.5c0.4-0.2,1.1-0.3,0.8-0.6c1.4,0,0.7,0.3,1.7,0.4C442,11.5,441.2,11.6,440.3,11.5z"/>
	<path d="M408.7,9.1c1.1-0.3,2.3-0.1,3.6,0C410.9,9.1,410,9.2,408.7,9.1z"/>
	<path class="st0" d="M278.5,6.2c0.2-0.2,1.4-0.3,1.8-0.1C279.7,6.2,279.1,6.2,278.5,6.2z"/>
	<path d="M376.7,6.6c0.5-0.1,1,0,1.6,0C377.7,6.6,377.2,6.6,376.7,6.6z"/>
	<path d="M320.4,5c2.4-0.8,6.6-0.3,9.6-0.9c3.1-0.2,5.3,0.5,8.4,0.2c-0.2,0.1-0.4,0.1-0.6,0.1c0.4,0.1,0.8,0.2,1.3,0.4
		c-1.7-0.1-3.2,0.1-4.5-0.2c-2.6,0.6-6.1,0.1-9.1,0.6C323.7,5.1,322.1,5.1,320.4,5z"/>
	<path d="M370.5,5.9c0.6,0.1,1.1,0.2,1.7,0.3c-0.6-0.1-1.2-0.1-1.7-0.1C370.5,6,370.5,6,370.5,5.9z"/>
	<path d="M363.8,5.7c0.6-0.1,1.2,0,1.8,0C365,5.8,364.4,5.7,363.8,5.7z"/>
	<path d="M412.1,8.6c0.7-0.1,1.4,0,2.2,0C413.5,8.6,412.8,8.7,412.1,8.6z"/>
	<path d="M360.1,5.3c0.5-0.1,1.1-0.1,1.7-0.1C361.3,5.4,360.6,5.3,360.1,5.3z"/>
	<path class="st0" d="M438.9,10.6c0.2-0.1,1-0.2,1.1-0.1C440.2,10.6,439.2,10.6,438.9,10.6z"/>
	<path d="M341.5,4.4c-0.2-0.1,0.1-0.4,0.9-0.3c0.2,0,0.7,0,0.9,0C342.9,4.4,342.2,4.9,341.5,4.4z"/>
	<path d="M459.9,11.4c5.8,0,11-0.6,16.7-0.6c0.8-0.1,1.3-0.4,2.3-0.5c0,0.1,0,0.2,0.1,0.3c1.8,0,3.6,0.1,5.4,0.1
		c-8.1,0.3-16.1,0.6-24.3,0.8C460.1,11.5,460,11.5,459.9,11.4z"/>
	<path d="M312.3,4.2c0.2-0.1,0.4-0.1,0.7-0.1c0.2,0.1,0.4,0.1,0.6,0.3C313.3,4.1,312.9,4.2,312.3,4.2z"/>
	<path class="st0" d="M201.8,7.4c1.2-0.1,2.3-0.1,3.5-0.1c-0.8,0.3-2,0.4-3.3,0.3C201.9,7.5,201.8,7.4,201.8,7.4z"/>
	<path d="M354.4,4.4c1.3-0.1,2.7,0,4.1,0.1C357,4.5,355.7,4.5,354.4,4.4z"/>
	<path d="M360.4,4.6c-0.2-0.1,0.7-0.2,0.9-0.3c0.1,0.1,0.6,0.2,0.8,0.2c0.2,0.1,0.7-0.1,0.6,0C362.4,4.6,360.8,4.7,360.4,4.6z"/>
	<path d="M411.6,7.6c0.9-0.1,1.9-0.1,2.9,0C413.7,7.9,412.6,7.7,411.6,7.6z"/>
	<path d="M416.9,7.7c0.4,0,0.4-0.1,0.5-0.2c3.4,0.1,6.8,0.2,10.2,0.3C423.8,7.7,420.4,8.2,416.9,7.7z"/>
	<path d="M375.9,4.6c-0.1-0.1,1.2-0.1,1.5,0C377.1,4.6,376,4.7,375.9,4.6z"/>
	<path d="M319.8,2.9c0.5-0.1,1.2-0.1,1.8-0.1c0,0.1,0,0.1,0,0.2C321,2.9,320.3,3,319.8,2.9z"/>
	<path class="st0" d="M210.3,5.7c0.3-0.1,0.3-0.1-0.2-0.2c-0.4-0.1-0.9-0.1-1.4-0.1c-0.1,0.5-2.5,0.4-4,0.4c1.1-0.1,2.2-0.1,3.1-0.1
		c-1.3-0.1-2.7-0.1-4-0.1c0-0.1-0.1-0.1-0.1-0.1c3.2-0.1,6.3-0.1,9.5-0.1c0,0.1,0.4,0.4,1.3,0.4c2.2-0.1,4.6-0.2,6.3-0.6
		c1.9-0.1,2.8,0.4,4.7,0.3c0.1,0.1,0.1,0.1,0.2,0.2C220.5,5.8,215.4,5.6,210.3,5.7z"/>
	<path d="M336.6,3c0.5-0.3,1-0.6,2.5-0.5c-0.1,0.1-0.3,0.4-0.4,0.5C337.9,3,337.3,3,336.6,3z"/>
	<path d="M444.8,9c1-0.4,2.8-0.4,4.5-0.5c1.1,0.2,0.8,0.6,2.5,0.5c-2.3,0.1-4.5,0.1-6.9,0.1C445,9.1,444.9,9.1,444.8,9z"/>
	<path d="M325.5,2.8c0.7-0.1,1.5-0.1,2.2-0.2c-0.4-0.1-0.9-0.1-1.5-0.1c0.9,0,1.9,0,2.8,0c-0.3,0.1-0.7,0.1-1,0.1
		c0.7,0.1,2.2,0,2.6,0.1C328.9,2.8,327.2,2.7,325.5,2.8z"/>
	<path class="st0" d="M262.2,4.1c-0.1,0.1-0.1,0.1-0.2,0.1c-1.1-0.1-2.1-0.1-3.2-0.1C259.9,4.1,261.1,4.1,262.2,4.1z"/>
	<path d="M462.3,10c0.5-0.3,1.2,0,1.9-0.1C464.4,10.1,462.7,10.1,462.3,10z"/>
	<path d="M417,7.2c0.2-0.1,0-0.1-0.1-0.1c2.3-0.2,4.2,0.3,6.3-0.1c1.1,0.1,2.1,0.1,3.2,0.2C423.3,7.3,420.2,7.2,417,7.2z"/>
	<path d="M369.3,3.7c0.9,0,1.6-0.1,2.5-0.1C371,3.7,370.2,3.7,369.3,3.7z"/>
	<path d="M331.7,2.7c0.1-0.1,0.2-0.1,0.4-0.2C331.9,2.5,331.8,2.6,331.7,2.7z"/>
	<path class="st0" d="M254.6,4.1c0.2,0.1,0.3,0.1,0.5,0.2c-0.1,0-0.3,0-0.4,0C254.7,4.2,254.6,4.1,254.6,4.1z"/>
	<path d="M289.2,3.1c1.4-0.4,3.4-0.4,5.4-0.3C293,3.1,291.1,3,289.2,3.1z"/>
	<path d="M453.3,9.1c0.4-0.2,0.8-0.5,1.7-0.6c0.9-0.1,1.1-0.4,2.2-0.4c-0.1,0.2-0.2,0.4-0.3,0.6c1.9,0.4,3.5,0,5.5-0.1
		c-0.3-0.6,1.9-0.6,3.6-0.6c0.7,0,0.7,0.1,1.1,0.2c-1.1,0.3-2.6,0-3.7,0.3c2.1,0.4,4.3,0.1,6.6,0.1c-0.9,0.3-2.5,0.1-3.5,0.4
		c-1.1-0.4-2.4,0.4-3.2-0.1c-3,0.1-5.6-0.1-8.3,0.4C455.2,9.1,454,9,453.3,9.1z"/>
	<path class="st0" d="M250.6,4.1c0.7,0,1.4-0.1,2.2-0.1c0,0.1,0.1,0.1,0.1,0.1C252,4.3,251.4,4.2,250.6,4.1z"/>
	<g>
		<path d="M322.2,2.4c-0.5,0-1,0-1.5,0V2.3C321.2,2.3,321.7,2.3,322.2,2.4L322.2,2.4L322.2,2.4z"/>
		<path d="M321.4,2.4"/>
	</g>
	<path d="M315.8,2.4c1,0,2.1,0,3.1,0.1C317.9,2.5,316.8,2.5,315.8,2.4L315.8,2.4z"/>
	<path class="st0" d="M212,4.9c-0.3-0.1-0.6-0.1-0.9-0.3c6-0.1,12-0.3,18-0.4c0,0.1-0.1,0.3-0.1,0.4C223.4,4.8,217.7,5,212,4.9z"/>
	<path d="M481.1,10.3c0.2,0,0.5-0.1,0.7-0.1C481.6,10.3,481.3,10.3,481.1,10.3z"/>
	<path d="M362.9,2.7c0.4,0,0.5-0.2,1-0.1C364.4,2.7,363.3,2.8,362.9,2.7z"/>
	<path d="M358.1,2.6c-0.4,0-0.9,0-1.3-0.1C357.2,2.5,357.7,2.5,358.1,2.6z"/>
	<path d="M215.2,4.7c-0.4,0-0.9,0-1.3,0.1C214.3,4.8,214.7,4.8,215.2,4.7z"/>
	<path d="M429.1,7c0.5-0.1,1-0.1,1.6-0.1C430.7,7.2,429.7,7.2,429.1,7z"/>
	<path d="M386.5,3.5c2.8-0.2,5.4-0.2,8.2-0.1C392,3.7,389.3,3.5,386.5,3.5z"/>
	<path d="M324.8,1.4c0.7-0.1,0.9,0.1,1.5,0.1C325.9,1.6,325.2,1.5,324.8,1.4z"/>
	<path class="st0" d="M204.2,4.8c1.7-0.2,3.6-0.1,5.5-0.1C207.9,4.6,206.1,4.7,204.2,4.8z"/>
	<path d="M273.3,2.4c0.5,0,1,0,1.5-0.1C274.4,2.5,273.8,2.5,273.3,2.4z"/>
	<path d="M266.5,2.5c1.6-0.2,3.7-0.1,5.5-0.1C270.2,2.5,268.4,2.6,266.5,2.5z"/>
	<path d="M449.7,7.8c2.8-0.1,5.4,0.1,6.7-0.6c-1.3-0.1,0.6-0.2,0.1-0.4c-1.5-0.4-3.7-0.1-5.3-0.5c-0.4,0.3-1.6,0.3-2.7,0.3
		c-0.3,0-0.4-0.3-0.2-0.4c3.2,0.1,6.4,0,9.6-0.1c2.3-0.1,4.6,0.1,6.9,0.1c0.1,0,0.3,0,0.2,0c-0.4,0.3-1.9,0.4-2,0.8
		c0,0.1-2.2,0.1-2.4,0c0.5,0,0.9-0.1,1.4-0.1c-1.1-0.1-1.1-0.6-2.6-0.4c-0.7,0.1-1.8,0.3-2.5,0.4c0.3,0.1,0.9,0.1,1.2,0.2
		c0.8,0-1.1,0-0.9,0.1c0.3,0.1,1.8,0.1,0.9,0.4c0.9,0.1,2.1,0.1,2.8-0.1c0.3-0.1-0.5-0.3,0.4-0.3c0.5,0.6,2.1,0.1,3.8,0.4
		c1.8-0.1,3.7,0,5.5-0.1C463.6,7.8,456.8,8,449.7,7.8z"/>
	<path d="M330.4,1.2c0.5,0,1,0,1.5,0C331.5,1.3,330.9,1.3,330.4,1.2z"/>
	<path d="M311.4,0.9c-0.1,0-0.2,0.1-0.2,0.1c-0.8,0-1.6,0-2.5,0C309.6,1,310.5,0.9,311.4,0.9z"/>
	<path d="M451,7.4c0.7-0.1,0.9-0.4,1.5-0.5c0.3,0.1,0.5,0.2,0.8,0.4C452.5,7.3,451.9,7.4,451,7.4z"/>
	<path class="st0" d="M222.4,3c0.4,0,0.6-0.1,1.1,0c0.5,0.1-0.4,0.3-0.9,0.2C222.5,3.2,222.5,3.1,222.4,3z"/>
	<path class="st0" d="M203.6,3.3c0.9-0.1,1.9,0,2.7-0.1c-3.8-0.4-8-0.1-12-0.4c-2.1,0-4.2,0-6.2,0c1.8-0.1,3.5-0.1,5.4-0.1
		c-0.2-0.1-0.3-0.1-0.5-0.2c2.9-0.1,5.9,0,8.8-0.1c0.1,0.1,0.1,0.1,0.2,0.2c2.3,0.1,4-0.4,6.1,0c3,0,5.6-0.6,8.5-0.1
		c-2.4,0.2-1.7,0.9-4.7,1C209.7,3.4,206,3.3,203.6,3.3z"/>
	<path d="M405.8,1.5c-0.1,0.1-0.2,0.1-0.4,0.2c-0.2,0-0.4,0-0.6,0C405.1,1.7,405.5,1.6,405.8,1.5z"/>
	<path d="M328.8,0c-0.1,0.1-0.2,0.1-0.4,0.1c-0.3,0-0.6,0-0.9,0C328,0.1,328.4,0.1,328.8,0z"/>
	<path class="st0" d="M201.2,3.4C201.3,3.4,201.3,3.4,201.2,3.4c-0.8,0.1-1.7,0.1-2.5,0.1C199.6,3.4,200.4,3.4,201.2,3.4z"/>
	<path class="st0" d="M225.1,2.4c0.7-0.1,1.7,0,2-0.3c-0.3-0.1-0.7-0.1-1-0.1c0.6,0,1.2-0.1,1.8-0.1C227.6,2.3,226.8,2.6,225.1,2.4z
		"/>
	<path class="st0" d="M218.8,2.3c0.9-0.1,1.7-0.1,2.6-0.2c0.1,0.1,0.1,0.1,0.2,0.3C220.6,2.3,219.7,2.5,218.8,2.3z"/>
	<path d="M465.2,6.9c0.5,0,1,0,1.5,0C466.2,7,465.7,6.9,465.2,6.9z"/>
	<path d="M435.2,5.1c0.9-0.1,1.9-0.1,2.9-0.1C437.1,5.2,436.2,5.2,435.2,5.1z"/>
	<path d="M466.4,6.4c0.2,0,0.8-0.1,0.9-0.1C467.9,6.4,466.8,6.7,466.4,6.4z"/>
	<path d="M450.2,5.1c-0.8,0-2.1,0.1-2.8,0.1c-0.6,0-0.5-0.1-0.9-0.1C447.8,5.1,449,5.1,450.2,5.1z"/>
	<path d="M432.9,4.2c0.5-0.1,1.3-0.1,1.9-0.1c0.1,0.1,0.2,0.1,0.3,0.1C434.3,4.3,433.6,4.1,432.9,4.2z"/>
	<path d="M247.1,0.6c-0.4,0-0.9,0-1.3,0.1C246.3,0.6,246.7,0.6,247.1,0.6z"/>
	<path d="M452.7,5c4,0.1,8,0,12,0.1C460.7,5.3,456.7,5.1,452.7,5z"/>
	<path d="M449.5,4.5c0.6-0.1,0.7-0.3,1.5-0.2c-0.2,0.1-0.4,0.2-0.6,0.4C450.1,4.6,449.8,4.6,449.5,4.5z"/>
	<path d="M455.7,4.5c0.4,0,0.7,0.1,0.9,0.1c-0.4,0-0.9,0.1-1.3,0.1C455.3,4.6,455.3,4.5,455.7,4.5z"/>
	<path class="st0" d="M1.9,5c0.5,0,1,0,1.5,0C3,5,2.6,5.1,2.2,5.1C2.1,5.1,2,5,1.9,5z"/>
	<path class="st0" d="M6.1,3.1c0.5,0,0.9,0.1,1.4,0.1c-0.2,0-0.4,0.1-0.6,0C6.6,3.2,6.3,3.1,6.1,3.1z"/>
</g>
</svg>
