<svg version="1.1" id="Layer_1" xmlns="http://www.w3.org/2000/svg" xmlns:xlink="http://www.w3.org/1999/xlink" x="0px" y="0px"
	 viewBox="0 0 356.7 32" style="enable-background:new 0 0 356.7 32;" xml:space="preserve">
<style type="text/css">
	path{fill:#daaf67;}
</style>
<g>
	<path d="M226.9,1.4c-0.3-0.5,0.6-0.6,1.1-0.5c0.1,0,0.2,0,0.1,0.1c-0.1,0.1-0.8,0-1,0.2c1.2,0.2,2.4,0.5,3.6-0.1
		c-0.1,0-0.2-0.1-0.2-0.1c0.8-0.4,1.9-0.3,2.7-0.1c-0.2,0-0.5,0-0.5,0.1c0,0.1-0.1,0.2,0,0.2c0.5,0.4,1.3,0.1,1.9-0.1
		c0-0.1,0-0.2,0-0.3c1.5,0.5,2.9,0.5,4.4,0c0.6,0.7,1.7,0.2,2.6,0.4c0.2-0.2,0.2-0.6,0.7-0.5c-0.4,0.5,0.4,0.9,0.5,1.4
		c1.1,0.1,1.6-0.5,2.2-1.1c1.6,0,3.6-0.9,4.7,0.3c0,0-0.1,0.1-0.1,0.1c0.1,0.4,1.1,0.6,1.2,0.1c0-0.1-0.1-0.1-0.2-0.2
		c1-0.3,2-0.2,2.9,0c-0.3,0.3,0,0.7,0.4,0.7c2.5-0.2,4.9,0,7.3-0.4c-0.6-0.1-1.2-0.2-1.7-0.4c0.8-0.4,1.9-0.2,2.6-0.8
		c-0.6-0.4-1.2,0-1.9-0.2c1.9,0,3.9,0,5.8-0.1c0,0-0.1,0.1-0.1,0.1c0.8,1,2,0.8,3.3,0.8c0,0,0.1-0.1,0.1-0.1
		c-0.8-0.6-1.7-0.6-2.7-0.8c3.6-0.1,7.1,0.2,10.7,0.5c0.1,0.3-0.1,0.4-0.3,0.6c0.5,0.2,1,0,1.6,0c-0.1-0.1-0.3-0.3-0.4-0.4
		c0.5-0.1,1-0.1,1.5-0.2c0,0.2-0.1,0.4-0.1,0.6c1.6,0.1,2.5,1,4,1.1c-0.4-0.8,1-0.7,1.6-0.9c0,0,0.2-0.1,0.1-0.1
		c-0.1-0.1-0.3-0.2-0.4-0.3c0.8-0.2-0.2-0.6,0.7-0.5c0.1,0-0.1,0.3-0.2,0.3c1.3,0.2,2.6-0.1,3.8,0.3c1-0.3,1.8,0.3,2.8-0.1
		c-0.1-0.1-0.2-0.3-0.4-0.4c0.3,0,0.6,0.1,0.9,0c1,1.1,2.9,0.6,4.5,0.8c1.6,0.2,3.4-0.2,5.1-0.2c0.6,0.6,1.6,0.6,2.5,0.6
		c-0.1-0.2-0.2-0.3-0.3-0.5c1.7,1.2,3.3,0.2,5.2,0.7c13.2,0.8,25.8,3.2,38.7,5.6c2.7,0.9,5.4,1.8,8.2,2.7c0,0.3,0.1,0.6,0.1,0.9
		c-0.3-0.1-0.5-0.3-0.8-0.4c-0.1,0.6,0.6,1.1,1.2,1.4c-0.6,0.5-1.4,0.6-1.5,1.4c-0.1,0.4,0.2,0.8,0.7,1c-0.5,0.3-0.8,1-0.5,1.4
		c0.2,0.3,0.4,0.2,0.6,0.5c-0.2,0-0.5,0-0.5,0.1c0,0.1,0,0.2,0,0.3c-1.3,0.1,0.4,1-0.8,0.9c-1.1,0.7,0,1.2,0.4,2
		c-0.4,0.9-0.3,1.8-0.4,2.7c-1.3-0.6-1.5,0.2-2.3,0.9c0,0.5,0.6,0.5,1,0.7c-0.1,0-0.6,0-0.5,0.2c0.1,0.4,0.7,0.5,1.2,0.7
		c-0.2,0.1-0.5,0.1-0.7,0.2c0.2,0.3,0.4,0.7,0.5,1c-0.3,0-0.4,0.1-0.6-0.1c-0.1,0.1-0.2,0.2-0.3,0.3c1.1,0.3,0.4,1.1,0.4,1.8
		c-0.1-0.1-0.3-0.3-0.4-0.2c-0.4,0.5,0.3,0.5,0.5,0.9c-0.6,0.4-1.1,0-1.7,0.5c0.4,0.2,0.9,0.5,1.3,0.7c-0.7,0.4-1.7-0.7-2,0.3
		c-0.3,1,1.8,0.6,1.4,1.6c-7-0.1-10.2,0.2-17.9-0.8c-5.7-0.8-8-1.9-17.3-2.7c-9.3-0.8-37.9-2.4-47.3-2.8s-7.7,0-14.8-0.2
		c-0.7-0.9-2.1,0.1-3.4-0.2c0-0.1,0-0.3,0-0.4c-2.1,0.1-3.9,1-5.9,0.2c-8.5,0.2-16.9,1.6-25.5,1.5c-1.8-0.7-3.4-0.4-5.3,0
		c-0.2-0.3-0.8-0.6-1.2-0.5c-0.4,0.1-0.1,0.4-0.2,0.6c-1.4-0.8-3-0.7-4.6-0.5c-0.8,0.8-1.5,0.3-2.5-0.1c0.6-0.2,1.2-0.4,1.7-0.7
		c-0.5-0.4-1.1-0.8-1.6-1.1c0.7-0.4,0.9-1,0.8-1.7c0.7,0.2,1.4,0.6,2.1,0.1c-1.6-0.6-3.4-0.5-5.1-0.5c0.5,0.4,1.1,0.6,1.1,1.2
		c-0.9,0.6-2.1,0.2-3,0.7c0.2,0.1,0.4,0.3,0.6,0.4c-1.6-0.1-3.2,0.1-4.8,0.1c0.2,0.1,0.4,0.2,0.6,0.3c-0.2,0.2-0.5,0.4-0.8,0.4
		c-0.3,0.1-0.2-0.4-0.1-0.4c0.1,0,0.3,0,0.4-0.2c-0.5-0.2-1.1-0.2-1.3-0.6c0.7-0.2,1.3-0.4,1.7-0.9c-0.3-0.1-0.6-0.2-0.9-0.3
		c1.3-0.4,2.7-0.5,4-0.8c-2.5-0.2-4.9-0.8-7.4-0.8c-0.1,0.4,0.5,0.8,0.9,0.9c-0.2,0.6-1.8,1-1.7,1.2c-0.2,0-0.3,0.1-0.4,0.1
		c0.6,0.2,1.1,0.4,1.7,0.3c-0.3,0.2-0.3,0.4-0.4,0.6c0.2,0.1,0.4,0.3,0.6,0.4c0.1,0,0.1-0.1,0.2-0.1c0.1,0.1,0.3,0.3,0.4,0.4
		c-0.7,0.4-1.6,0.5-2.4,0.4c-0.8-0.1,0.1-0.7-0.4-0.9c-0.3-0.1-0.5,0.5-0.9,0.3c0.2-0.6-0.8-0.4-1.4-0.4c-0.3,0.8-1.3,0.7-2.1,1.1
		c-0.6-0.1-1.2-0.2-1.7-0.3c0.3-0.2,1.1-0.6,0.9-1c-0.2-0.5-1.2-0.1-1.6-0.5c-0.1,0.1-0.3,0.2-0.4,0.3c0.2,0.1,0.4,0.3,0.6,0.4
		c-1.1,0.4-1.6,1.2-2.9,0.7c0.7-0.2,0.5-0.6,0.8-1c-1.9-0.4-3.8-0.3-5.7-0.3c0.5,0.7,1,2.1-0.6,2.2c-0.7,0-1.9-0.3-2.6-0.3
		c0.2-0.4,0.4-0.8,0.6-1.2c-0.2-0.1-0.5-0.2-0.7-0.3c0.3-0.1,0.2-0.3,0-0.4c-0.1-0.1-0.3-0.3-0.4-0.3c-0.4-0.2,0.1,0,0.1-0.2
		c-1.6-0.5-3.1,0-4.8-0.2c0.6,1-0.2,1.8-1.5,1.8c-0.2,0-0.6,0-0.8,0c0-0.2,0.3-0.4,0.2-0.6c-1.3,0.1-1-1.1-2.5-0.8
		c-0.4,0.5,0.2,1.1,0.9,1c0.3,0,0.3,0.2,0.6,0.3c-1.6,0.6-1.9-0.8-3.4-0.2c0.1,0.4,0,0.9,0.7,0.9c0.2,0,0.6,0,0.8,0
		c-1.6,0.3-3.2,0.6-4.8,0c0.3-0.1,0.5-0.1,0.7-0.3c-1.1-0.6-2.4,0-3.6-0.4c0.7-0.3,1.5,0.2,2.1-0.4c-2.5,0.3-2.1-1.9-4.5-1.2
		c0.1,0.1,0.4,0.1,0.5,0.2c0.1,0.1,0.1,0.2,0,0.2c-0.6,0.4-1.1-0.5-1.5,0.1c0.2,0.1,0.4,0.3,0.5,0.5c0.2-0.2,0.4-0.1,0.7-0.1
		c-1.3,0-1.3,1.2-2.7,0.8c-0.3,0-0.6,0-1,0c0.4-0.3,0.8-0.7,1.1-1c-0.3-0.3-0.8-0.1-1.1-0.3c0.7-0.8,1.8,0.1,2.6-0.7
		c0.7,0.1,2.3,0.3,2.3-0.5c0.5,0.1,0.8-0.1,1.2-0.4c-0.8-0.3-1.7-0.2-2.5-0.3c1.7-0.1,3.4-0.4,5-0.7c-0.6-0.4-1.4-0.6-1.5-1.2
		c0.4-0.1,0.7-0.2,1.1-0.3c-0.1-0.6-0.3-0.6,0.4-1c-0.7-0.6-1.3,0.1-2.1-0.2c1.1-0.4,2.4-0.1,3.5-0.5c-0.7-0.1-0.9-0.5-1.3-0.8
		c-1,0.1-1.9,0.2-2.9,0.3c0,0,0-0.1,0-0.1c-0.5-0.5-1.4-0.2-2.1-0.3c0-0.2,0.1-0.3,0.2-0.4c-0.9-0.2-0.5,0.5-1.4,0.6
		c0.5,0.3,0.1,0.9,0.9,0.9c0.1-0.1,0.3-0.3,0.4-0.4c0.4,0.6,1.2,0.6,1.9,0.4c-0.8,1.4-2.4-0.5-3.3,1.1c-0.2-0.2-0.5-0.4-0.8-0.3
		c-0.2,0-0.2,0.2-0.4,0.3c-0.2-0.2-0.5-0.4-0.8-0.7c0.6-0.2,1.3-0.3,1.9-0.5c-0.2-0.3-0.4-0.5-0.5-0.8c0,0,0.5,0,0.3-0.2
		c-0.3-0.4-1.1-0.6-1.7-0.3c0,0-0.1,0.1-0.2,0.1c-0.1,0-0.2-0.1-0.2-0.1c0.3-0.2,0.6-0.5,1-0.7c0,0.2,0.3,0.3,0.4,0.5
		c0.7-0.3,0-1.2,1-1c0,0.2,0.1,0.3-0.2,0.4c0.3,0.5,0.7,0.2,1.3,0.2c0.1-0.1,0.3-0.2,0.4-0.3c-0.2-0.1-0.3-0.3-0.1-0.4
		c0.1-0.1,0.4-0.1,0.6-0.2c-0.1,0.1-0.1,0.3-0.2,0.4c1.6,0.3,2.5-0.7,4-0.7c0.3-0.2,0.4-0.3,0.4-0.6c-0.1,0.2,0.1,0.5,0.4,0.6
		c0.3,0.1,0.7,0,0.7-0.3c0-0.1,0-0.3,0-0.4c1,0,2.1,0.2,2.5-0.7c-0.8-0.2-1.6-0.1-2.4-0.2c0.5-0.3,1.1-0.3,1.2-0.9
		c2.5-0.4,5,0.1,7.6-0.4c1.4,0.9,3.2-0.1,4.1,1.3c1.4,0.1,1.5-0.7,2.5-1.1c-0.1-0.1-0.3-0.2-0.4-0.3c0.7-0.3,1,0.1,1.5,0.5
		c1.5-0.2,2.7,0.6,4.2,0.4c-0.6,0.2-1.1,0.1-1.7,0.1c0,0.3,0.1,0.5,0.4,0.8c1.6-0.1,3.1-1.3,4.4-0.1c1.2-0.5,2.4-0.5,2.7-1.7
		c0.9,0.3,1.7-0.1,2.6,0.2c1.3-0.2,1.8-1.8,2.8-0.5c1.1-0.2,1.7-1,2.7-0.2c-0.5,1-1.6,1-2.7,1.4c1.8,0.7,3.7,0.3,5.7,0.4
		c0.3-0.4,0.6-0.7,0.9-1.1c0.3,0.5,0.8,0.2,1.3,0c0.1,0,0.2-0.1,0.2-0.1c-0.5-0.5-1.1-0.2-1.7-0.3c1.6,0.2,3.2-0.8,4.6,0.1
		c-0.4,0.2-1,0.2-1.2,0.6c0.9,0.4,1.7-0.3,2.4,0.3c-0.1,0.2-0.7,0.2-0.5,0.4c0.2,0.3,0.8,0.2,1.1,0.1c0.3-0.1-0.1-0.7,0-0.5
		c0.7,0,1.5,0,2.2-0.1c-0.1-0.2-0.2-0.5-0.3-0.7c0.7-0.1,1.5-0.3,2.2-0.4c0.1,0.8,1,0.2,1.6,0.6c0.7,0,1.3-0.2,1.9-0.6
		c-0.6-0.3-1.3,0.2-1.3-0.5c-0.1,0.1,0,0.2,0.2,0.3s0.3,0,0.4,0c0.7-0.6-0.2-1.2-1-1.3c-0.3-0.1-0.6,0-0.9,0c-1-0.4-2.1-0.3-3.2-0.5
		c1.7-0.4,3.4,0.2,5.1-0.4c-1.2-0.6-2.5,0.5-3.4-0.6c-0.9,0.5-2.2,0.2-2.6,1.1c-0.9,0-0.7-0.4-1-1c-0.8-0.1-1.5-0.2-2.3-0.3
		c1.1,0,2.2,0.1,3.2-0.3c-1.6-0.2-3-0.5-4.5,0c0.2,0.2,0.5,0.4,0.7,0.6c-0.2-0.1-0.5-0.1-0.7-0.2c0.3,1.3-1.7,0.9-2.8,1
		c-0.1,0-0.2,0-0.2,0c0.9-0.1,1.8-0.2,2.7-0.3c-0.6-0.9-1.8-0.3-2.8-0.6c0.6-0.8-0.4-0.9-1.2-1.2c-1,0.3-1.9-0.2-2.8,0.2
		c0,0.4,0,0.7,0,1.1c-1.3,0.1-2.5,0.1-3.8,0.5c0.3,0.1,0.5,0.2,0.8,0.3c-0.5,0.3,0.3,0.8,0.4,1.2c-0.5,0.2-0.8,0.5-1.3,0.2
		c0.5-0.3,0.3-0.7-0.2-0.9c-0.9,0.4-1.5,0.7-2.5,0.3c0.3-0.5,1.1-0.5,1.6-0.9c0.2-0.2,0.4,0.5,1,0.3c0.1,0,0.2-0.2,0.3-0.3
		c-0.5-0.3-0.4-0.9-1.3-0.7c0.3-0.5,0.9-0.6,1.5-0.4c0.1,0,0.1,0.1,0.2,0.1c0.1-0.1,0.3-0.2,0.4-0.3c-0.6-0.2-1.2,0-1.7-0.3
		c3.8-0.8,7.3-0.1,11.2-0.2c3.7-0.1,7.6,0.5,11.3,0c2.6,0.4,5.1-0.1,7.7,0.3c1.1-0.3,2.3-0.1,3.4-0.4c-3.5-0.3-7-0.5-10.6-0.5
		c-0.5,0-1.3,0-1.9-0.1c1.5-0.4,3.6,0.3,4.7-0.6c1,0.7,2.4,0.2,3.6,0.4c1.1,0,2.2,0,3.4,0.1c0-0.2,0-0.3,0-0.5c1,0,1.7,0.4,2.7,0.4
		c0.3-0.5,1.1-0.4,1.2-0.9c-0.7-0.1-1.5-0.1-2.2-0.2c0.3-0.2,0.6-0.3,0.9-0.5c-1.1-0.4-1.9,0.2-2.8-0.5c-0.8,0-1.6,0-1.9,0.7
		c-0.8-1-1.7,0.2-2.6-0.1c-1.5-0.6-2.4,0.1-3.8-0.6c-0.3,0.3-0.7,0.6-1.1,1c-0.5-0.5-0.8-1.2-1.7-0.7c-0.7,0-0.7-0.5-1-0.9
		c0.1,0,0.3,0,0.4,0c0,0.4,0,0.7,0.4,0.9c0.2-0.1,0.5-0.2,0.7-0.3c-0.1-0.2-0.3-0.4-0.4-0.6c0.3-0.1,0.6-0.2,0.9-0.3
		c-0.7-0.6-1.6-0.3-2.6-0.3c0.7-0.7,1.9-0.5,3-0.4c0.6,0.8,1.1-0.5,1.9,0.2c0.9,0,1.7,0,2.3-0.6c-0.4-0.1-0.9-0.2-1.3-0.3
		c1.3,0.6,2.2-1.3,3.7,0C222.4,1.6,224.7,1,226.9,1.4z"/>
	<path d="M124.8,3.1c0,0.3-0.3,0.3-0.5,0.2c-0.2,0-0.4,0-0.6,0C124,3.1,124.4,3.3,124.8,3.1z"/>
	<path d="M188.1,5.9c-0.5,0-1-0.1-1.5-0.1C187.2,5.7,188.4,5,188.1,5.9z"/>
	<path class="st0" d="M232,4.3c-0.2,0.1-0.5,0.2-0.7,0.4c0.2,0.2,0.4,0.3,0.6,0.5c-1.2-0.1-1.4,1.5-2,0.3c-0.6-0.4-1.3-0.4-2.1-0.3
		c0,0,0-0.1,0-0.1c0.8-0.2,1.5-0.3,2.3-0.5c0-0.1-0.1-0.2-0.2-0.3C230.6,4.2,231.6,3.5,232,4.3z"/>
	<path d="M149.6,4.7c-0.2,0.3-0.4,0.7-1,0.7c-0.2,0-0.5-0.2-0.7-0.3C148,4.5,149.1,4.7,149.6,4.7z"/>
	<path class="st0" d="M252.6,2.7c-0.8,0.1-1.6,0.2-2.4,0.2C250.9,2.2,251.7,3,252.6,2.7z"/>
	<path d="M171.6,5.6c0.1,0.3-0.7,0.1-0.9,0.2C170.5,5.4,171.5,5.4,171.6,5.6z"/>
	<path d="M199,5.8c0,0.2-0.8,0.2-0.7-0.1C198.4,5.7,199,5.6,199,5.8z"/>
	<path d="M208.4,6c-0.8,0-1.6,0.1-2.4,0.1C206.9,5.9,207.7,5.3,208.4,6z"/>
	<path class="st0" d="M236,4.9c-0.6,0-1.1,0-1.7,0c0.3-0.2,0.3-0.5,0.4-0.8C235.7,3.8,235.3,4.5,236,4.9z"/>
	<path d="M117.5,3.5c-0.4,0-0.9,0-1.3-0.1c0.4-0.2,0.8-0.3,1.4-0.2C117.5,3.3,117.5,3.4,117.5,3.5z"/>
	<path d="M213.6,5.4c0.3,0,0.6,0,0.9,0C214.3,5.4,214,5.4,213.6,5.4z"/>
	<path d="M160.2,5.5c-0.9,0.4-1.7,0.5-2.7,0.2C158.2,5.2,159.3,5.5,160.2,5.5z"/>
	<path d="M165.2,5.7c0.6,0,1.3,0,1.9,0C166.4,5.7,165.8,5.7,165.2,5.7z"/>
	<path d="M199.8,6c0.2,0,0.4,0.1,0.5,0.1C200.2,6,200,6,199.8,6z"/>
	<path d="M142,6c-0.6,0.6-1.3-0.1-2.1,0c0.6-0.4-0.4-0.8,0.4-1.2C141.2,5.3,140.8,6.2,142,6z"/>
	<path d="M220.2,5.4c0.6,0,1.1,0,1.7-0.1C221.4,5.4,220.8,5.4,220.2,5.4z"/>
	<path d="M143.2,5.3c-0.4,0.2-0.8,0.1-1.2,0.1C142.2,4.9,142.8,5.1,143.2,5.3z"/>
	<path d="M155.8,5.6c-0.6,0.1-1,0.4-1.6,0.1C154.7,5.5,155.2,5.7,155.8,5.6z"/>
	<path class="st0" d="M237.6,4.7c0,0.1,0,0.2,0,0.3c-0.4,0-0.7-0.1-1.1-0.1C236.8,4.7,237.3,4.3,237.6,4.7z"/>
	<path class="st0" d="M264.2,2.5c-2.4,0.1-4.9,0.2-7.3,0.3c0-0.1,0-0.1,0-0.2C259.4,2.2,261.7,2.4,264.2,2.5z"/>
	<path d="M139.1,5.2c-1.3,1.2-2.5,0.2-4.1,0c0-0.1,0-0.2,0-0.3C136.3,5.5,137.6,5.1,139.1,5.2z"/>
	<path d="M180.9,7c-0.9,0-1.1,0.8-1.9,0.6c-0.9-0.8-2.3-0.4-3.5-0.5c-0.1,0.1-0.2,0.3-0.3,0.4c-0.2-0.4-0.7-0.6-1.2-0.4
		c-0.5,0.1-0.4,0.8-1.1,0.5c-0.1,0-0.3,0-0.2-0.1c0.1-0.1,0.5,0,0.6-0.1c0.1-0.1,0.1-0.2,0-0.2c-0.6-0.5-1.5-0.2-2.3-0.2
		c2.6,0,5.1,0,7.7,0c0.2-0.2,0.4-0.4,0.6-0.6C179.5,7.5,180.7,6.4,180.9,7z"/>
	<path class="st0" d="M244,4.7c0.7-0.1,1.2,0.1,1.9,0.1c-0.6,0.1-1.3,0-1.8,0.4c-0.3,0.2,0,0.3-0.6,0.3c0.2-0.6-0.4-1,0.5-1.3
		C243.9,4.3,244,4.5,244,4.7z"/>
	<path class="st0" d="M266.2,1.7c0.3,0,0.6,0,0.9,0C266.8,1.7,266.5,1.7,266.2,1.7z"/>
	<path d="M190.4,6.9c-1,0.3-2.1,0-3.1,0.5c0.5,0.2,1,0.3,1.5,0.4c-0.2,0.2-0.5,0.4-0.7,0.6c-0.5-0.4-0.6-0.9-1.5-0.9
		c-0.4,0-0.1,0.4-0.2,0.5c-0.2,0.1-0.3,0-0.4,0c0-0.3,0-0.5,0-0.8c-1.1-0.1-2.1-0.4-3.2-0.4c2.1,0,4.2-0.2,6.4-0.1
		C189.5,7,190,7,190.4,6.9z"/>
	<path class="st0" d="M241.6,4.8c0.1,0.2-0.1,0.3-0.4,0.4c-0.6,0.1-0.8-0.1-0.8-0.6C240.8,4.7,241.1,4.8,241.6,4.8z"/>
	<path class="st0" d="M252.7,3.6c0.1,0.4-0.5,0.4-0.9,0.5c-0.4-0.4-0.8-0.1-1.3-0.1C250.8,3.4,252,3.7,252.7,3.6z"/>
	<path class="st0" d="M273.6,1c0.4,0.1,0.9,0.2,1.3,0.3C274.5,1.1,274.1,1,273.6,1z"/>
	<path d="M131.4,5.6c-0.6,0.1-0.2-0.3-0.6-0.5C131.2,5.4,131.8,5.1,131.4,5.6z"/>
	<path class="st0" d="M249.2,4.5c0.7,0.1,1.4,0.2,2.1,0.2c-1.4-0.1-2.7,0.3-4-0.1c0.9-0.2,1.2-0.8,2.2-0.5
		C249.4,4.3,249.3,4.4,249.2,4.5z"/>
	<path d="M134,5.8c-0.1,0-0.4,0.1-0.4,0.2c0,0.1,0.4,0.2,0.6,0.1c0,0.1,0,0.3,0,0.4c-0.5,0-0.8-0.2-1.3-0.2c0-0.3,0-0.6,0-0.9
		c0.4,0,0.7,0,1.1,0.1C134,5.5,134,5.7,134,5.8z"/>
	<path d="M164.5,6.8c-0.4,0.2-0.8,0.1-1.2,0.1C163.7,6.8,164.1,6.8,164.5,6.8z"/>
	<path class="st0" d="M262.4,3.8c-0.4,0.4-1.1,0-1.5,0.1c-0.1,0-0.5,0.3-0.2,0.4c0.5,0.2,1.5-0.1,2.1,0.2c-0.8,0.4-1.7,0.1-2.1,0.9
		c-1.4-0.4-2.9,0.3-3.7-0.9c1.3-1.4,3-1,5-1.1C262.2,3.4,262.3,3.6,262.4,3.8z"/>
	<path class="st0" d="M255.2,4.5c-0.8,0.3-1.6,0.5-2.4,0.1c0.5-0.1,1.1-0.2,1.6-0.3c-0.2-0.1-0.5-0.2-0.7-0.4
		C254.1,4.1,254.7,4.3,255.2,4.5z"/>
	<path d="M150.4,6.8c0,0.1,0,0.2,0,0.3c-0.7,0.1-1.3-0.2-1.7,0.4c-0.8-0.2-1.6-0.2-2.4-0.2c0.8-0.3,2,0.1,2.1-0.8
		C148.9,6.8,149.5,7.1,150.4,6.8z"/>
	<path d="M94.5,2c-0.4,0.5-1,0-1.6,0C93.3,1.5,93.9,1.8,94.5,2z"/>
	<path d="M260.9,3.5c-0.2,0-0.4,0-0.6-0.1c0.1,0,0.3,0,0.4,0C260.8,3.4,260.8,3.5,260.9,3.5z"/>
	<path d="M121.3,5.9c-0.4-0.1-0.7-0.1-1.1-0.2c0.4-0.2,0.9-0.3,1.3-0.5C121.3,5.4,121.2,5.6,121.3,5.9z"/>
	<path class="st0" d="M207.5,7.6c0.3,0,0.6,0,0.9,0C208.1,7.5,207.8,7.6,207.5,7.6z"/>
	<path class="st0" d="M231,6.6c-0.3,0-0.5-0.1-0.8-0.1c0.2,0,0.4-0.1,0.6,0C230.9,6.4,230.9,6.6,231,6.6z"/>
	<path d="M123.9,6.2c-0.1,0-0.3,0-0.4,0c0.1-0.2,0.1-0.4,0.2-0.5C124,5.7,123.9,6,123.9,6.2z"/>
	<path class="st0" d="M236.2,6.7c-0.1-0.1,0,0-0.2-0.1c-0.2-0.1,0.5-0.4,0.7-0.3C236.6,6.4,236.4,6.5,236.2,6.7z"/>
	<path d="M139.2,6.9c0,0.4,0,0.6,0.4,0.9c0.3-0.1,0.6-0.2,1-0.3c-0.1,0.3,0.1,0.5,0.4,0.8c1.6-0.1,1.3-1.7,3-1
		c-0.6,0-1.7,0.2-1.1,0.8c-1.9,0.8-3.8,1-5.9,0.9c-0.7,0-1.4-0.7-2.1-0.8c0.5-0.3,0.9-0.7,1.7-0.5c0.1,0,0.3,0.2,0.4,0.3
		c0.6-0.9,1.9,0.1,2.3-0.9c-0.5-0.1-1-0.3-1.5-0.4C138.1,6.7,138.6,6.8,139.2,6.9z"/>
	<path d="M174.3,8.1c-0.4,0-0.8,0-1.2,0C173.5,7.9,173.9,7.9,174.3,8.1z"/>
	<path d="M182,8.1c-0.5,1-1.9,0.3-2.7,1.2c0.6,0.1,1.3,0.2,1.9,0.3c-0.8,0.7-1.8,0.7-2.8,0.4c0.1-0.4,0.3-0.8,0.8-0.9
		c0.1-0.4,0.1-0.7,0.2-1.1C180.3,8.3,181.1,8.7,182,8.1z"/>
	<path d="M177.4,9.2c0.1,0.2,0.2,0.4,0.2,0.6c-0.2,0-0.4,0.1-0.6,0.1c0-0.5,0.2-0.9-0.4-1.2c-0.1,0-0.3,0-0.4,0
		c0.3-0.2,0.5-0.4,0.8-0.5c0.2,0.3,0.5,0.7,0.7,1C177.7,9.2,177.6,9.2,177.4,9.2z"/>
	<path d="M155,8.5c-1,0-1.9,0-2.8-0.2C153.2,7.8,154.8,7.2,155,8.5z"/>
	<path d="M160.8,8.1C160,9,159.1,7.9,158,8.2C159,8.1,159.8,7.8,160.8,8.1z"/>
	<path d="M132.8,6.9c-0.2,0.1-0.3,0.4-0.2,0.6c0.2,0.4,0.6,0.6,1.1,0.5c0.1,0,0.1-0.1,0.2-0.1c0.1,0.1,0.3,0.2,0.4,0.3
		c-0.2,0.1-0.2,0.3-0.2,0.4c0.1,0.1,0.2,0.2,0.3,0.3c-1,0.5-1.6-0.4-2.6,0.1c-0.6-0.2-1.2-0.5-1.8-0.7c0.7-0.6,2.9-0.2,1.9-1.3
		c-0.3,0-0.5,0-0.8-0.1C131.7,6.7,132.3,6.9,132.8,6.9z"/>
	<path d="M150.1,8c0.1,0,0,0.1,0,0.2c-0.5,0.4-1.1-0.1-1.6-0.3C148.9,8,149.7,7.7,150.1,8z"/>
	<path d="M147.5,9.5c0.2,0.1,0.7,0,0.9,0c-0.2,0.7-1.3,1-0.3,1.6c-0.7,0.6-1.1-0.3-1.9-0.4c-1.8-0.1-3.5-0.1-5.3-0.3
		c0.5,0,0.9,0.1,1.2-0.3c-1.1-0.1-2,0-3.1,0.2c-0.5,0.5-1.2,0.9-2,0.6c-0.5-0.2,0.2-0.6-0.6-0.6c0-0.1,0.2-0.4,0.2-0.5
		c0-0.1-0.1-0.1-0.1-0.1c-2.1,1.9-5.1,1.4-7.9,1c0.9,0.2,1.5-0.2,2.3-0.4c-1.3-0.4-2.5,0-3.7-0.3c4.2-0.4,8.4,0,12.5-0.8
		c0.6,1.1,2,0.4,3.2,0.6c0.1-0.1,0.3-0.2,0.4-0.3c0.7,0.9,1.7,0.3,2.8,0.3c1-0.5,0.5-1.2,0.2-1.9c0.4,0,0.8-0.1,1.2-0.1
		C147.6,8.6,146.1,9.1,147.5,9.5z"/>
	<path d="M126.4,6.9c0.2,0.1-0.3,0.3-0.4,0.4c-0.4-0.1-0.8-0.2-1.2-0.3C125.3,6.9,126,6.8,126.4,6.9z"/>
	<path d="M203.9,8.9c0.4,0,0.8,0,1.2,0C204.7,8.9,204.3,8.9,203.9,8.9z"/>
	<path class="st0" d="M216.5,8.5c0.4,0,0.9,0,1.3,0.1C217.4,8.5,217,8.5,216.5,8.5z"/>
	<path d="M172.5,9.3c-0.5,0-1,0-1.5,0C171.6,8.9,172,9.2,172.5,9.3z"/>
	<path class="st0" d="M249.5,6.3c0.2,0,0.5,0,0.7-0.1C250,6.2,249.7,6.2,249.5,6.3z"/>
	<path class="st0" d="M266.4,4.5c-0.3,0-0.5,0.1-0.8,0.1C265.8,4.4,266.2,4.3,266.4,4.5z"/>
	<path d="M122.3,7c-0.9,0.1-1.6,0.3-2.4-0.1C120.7,7.1,121.5,7,122.3,7z"/>
	<path class="st0" d="M283.3,3.1c-0.7-0.2-1.6,0.4-1.8-0.3C282.1,2.9,282.7,3,283.3,3.1z"/>
	<path d="M99.1,4.2c0.2,0.1,0.3,0.2,0.5,0.2C99.4,4.4,99.3,4.3,99.1,4.2z"/>
	<path d="M159.8,9.4c1.4,0,2.7,0.2,4-0.2c0,0.1,0,0.2,0,0.3c-1.8,0.4-3.6,0.1-5.5,0.2C158.8,9.5,159.4,9,159.8,9.4z"/>
	<path d="M94.4,4.1c-0.5,0.1-0.9,0.3-1.3,0C93.5,3.7,93.8,4,94.4,4.1z"/>
	<path class="st0" d="M137.4,8.3c0.2,0.1-0.1,0.2-0.2,0.2c-0.1,0-0.4,0-0.5,0C136.6,8.2,137.3,8.3,137.4,8.3z"/>
	<path d="M126.6,8.1c-1.4,1.4-3.4,0.8-5.4,0.9c0.6-0.4,1,0.2,1.6-0.3c-0.3-0.1-0.7-0.3-0.9-0.5c-0.1-0.2,0-0.2,0-0.3
		c1.1-0.2,2.1,1.2,2.6,0.1C125.4,7.9,126,7.5,126.6,8.1z"/>
	<path d="M155.2,9.7c-0.9,0.9-2.1,0.9-3.4,0.9c-0.3-1-1.2-0.7-2.3-1c1.9,0.1,3.6-0.6,5.5-0.4C155.1,9.4,155.1,9.5,155.2,9.7z"/>
	<path class="st0" d="M219.3,9.5c-0.2,0.2-0.4,0.3-0.5,0.5c-0.2-0.1-0.4-0.3-0.6-0.4c-0.9,0.4-0.6,1,0,1.5c-0.9,0.1-1.8,0.2-2.7,0.2
		c0-0.2-0.2-0.3-0.4-0.4c0.3-0.2,0.5-0.4,0.2-0.8c-0.3-0.3-0.8-0.5-1.3-0.3c-0.1,0.1-0.3-0.1-0.4-0.1C215.6,9.3,217.4,9.2,219.3,9.5
		z"/>
	<path d="M157,9.6c-0.2,0-0.4,0-0.5,0C156.6,9.4,156.9,9.4,157,9.6z"/>
	<path d="M203.4,9.9c0.2,0,0.4,0,0.6,0c-0.9,1-2.2,0.6-3.5,0.8c-0.2-0.1-0.4-0.3-0.6-0.4C201.4,9.3,202.2,11.4,203.4,9.9z"/>
	<path class="st0" d="M276.9,4.1c-0.1,0.2-0.2,0.4-0.3,0.6c0,0.1-0.2,0.1-0.2,0.2c-0.3-0.2-0.1-0.6-0.6-0.6c-0.1,0-0.3,0-0.4,0
		C275.9,4,276.4,4.2,276.9,4.1z"/>
	<path d="M121.2,7.7C121,8,120.5,7.9,120.1,8C120.5,7.7,120.6,7.5,121.2,7.7z"/>
	<g>
		<path d="M210.4,9.9c0,0,0.1,0,0.1,0c0,0.1,0,0.3,0,0.4c0,0-0.1,0-0.1,0C210.4,10.2,210.4,10,210.4,9.9
			C210.4,9.9,210.4,9.9,210.4,9.9z"/>
		<path d="M210.4,10.1"/>
	</g>
	<path class="st0" d="M223.7,9.8c-0.8,0.3-1.5,0.2-2.1-0.3c0.7,0,1.4,0,2.1,0C223.7,9.6,223.7,9.7,223.7,9.8z"/>
	<path d="M72.2,1.7c-0.1,0.2-0.5,0.3-0.7,0.1c0.2-0.1,0.4-0.2,0.6-0.4C72.1,1.6,72.3,1.5,72.2,1.7z"/>
	<path d="M128.2,8.6c0.1-0.1,0.2-0.2,0.2-0.3c0.2,0,0.4,0,0.5,0C128.8,8.5,128.5,8.5,128.2,8.6z"/>
	<path class="st0" d="M284.8,5c-0.7,0.5-2.1,0.2-2-0.6c0.3-0.3,0.1-0.6-0.3-0.7C284.4,3.5,283.1,4.8,284.8,5z"/>
	<path d="M165.1,10.9c-0.9-0.1-1.4,0.7-2.5,0.5c0.2-0.2,0.4-0.4,0.6-0.5c-0.3-0.5-0.9-0.5-1.5-0.5C163.1,10.2,164.1,10,165.1,10.9z"
		/>
	<path class="st0" d="M231.5,9.3c-0.2,0.2-0.5,0.4-0.9,0.4c0-0.1,0.1-0.3,0.1-0.4C230.9,9.3,231.2,9.3,231.5,9.3z"/>
	<path class="st0" d="M232.9,9.4c0.1,0.2-0.6,0.1-0.7,0.2C232.3,9.4,232.8,9.1,232.9,9.4z"/>
	<path d="M180.3,11.1c-0.2,0.4-0.7,0.1-1.1,0C179.5,10.9,179.9,10.9,180.3,11.1z"/>
	<path class="st0" d="M277.4,4.8c0.2,0,0.4,0,0.5-0.1C277.7,4.7,277.5,4.8,277.4,4.8z"/>
	<path d="M68.2,1.9c-0.3,0.2-0.6,0-0.9,0c0.1-0.1,0.1-0.2,0.2-0.3C67.6,1.9,67.9,1.8,68.2,1.9z"/>
	<path d="M87.7,4.8c-0.1,0.3-0.2,0.7-0.3,1c-0.7-0.1-1.2,0.1-1.7-0.4c0.3,0.1,0.5-0.1,0.8,0c0.1-0.3,0.2-0.5,0.3-0.8
		C86.9,4.8,87.3,4.7,87.7,4.8z"/>
	<path d="M108.8,8.2c0,0.2-0.1,0.3-0.3,0.4c0.1-0.3-0.1-0.4-0.3-0.7c0.3-0.2,0.5-0.3,0.8-0.5c0.2,0.3,0.3,0.5,0.5,0.8
		C109.2,8.3,109,8.2,108.8,8.2z"/>
	<path d="M79.2,3.5c-0.3,0.2-0.5,0.3-0.8,0.2C78.7,3.5,78.9,3.5,79.2,3.5z"/>
	<path class="st0" d="M251.8,8.3c-0.6,0.3-1.2,0.3-1.9,0.2C250.5,8.5,251.2,8.4,251.8,8.3z"/>
	<path d="M160.6,11.2c-0.2,0.6-1,0.3-1.5,0.7c0.4,0.5,0.7,0.1,1.3,0c0.1,0,0.2,0,0.2,0c0.1,0.1,0,0.2,0,0.3c-1,0.1-1.9,0.2-2.8,0.4
		c-0.1-0.1-0.4-0.3-0.4-0.4C159.1,12.6,158.8,11.2,160.6,11.2z"/>
	<path class="st0" d="M238.4,9.8c0.1,0.2-0.4,0.4-0.3,0.4c0.1,0.2,0.7,0.2,0.9,0c0.5-0.3,0.9-0.8,1.6-0.5c-0.4,0.4-0.9,0.1-1.1,0.7
		c-0.8,0.2-1.6,0.3-2.4,0.2C237.6,10.3,237.8,9.9,238.4,9.8z"/>
	<path class="st0" d="M252.4,8.4c0.3,0,0.6-0.1,0.9-0.1C253,8.4,252.7,8.4,252.4,8.4z"/>
	<path class="st0" d="M254.5,8.3c-0.3,0-0.5,0.1-0.8,0.1C253.9,8.2,254.2,8.2,254.5,8.3z"/>
	<g>
		<path class="st0" d="M226.9,10.8c0.1,0,0.3,0,0.4,0c0,0.1,0,0.3,0,0.4c-0.1,0-0.3,0-0.4,0C226.9,11,226.9,10.9,226.9,10.8
			L226.9,10.8z"/>
		<path class="st0" d="M227.1,11"/>
	</g>
	<path d="M125.9,11.1c-2.1,0-4.2,0.1-6.4-0.1c0-0.1,0-0.2,0-0.3c-0.8,0.4-1.5-0.4-2.3,0.1c-1.3-0.1-2.6-0.3-3.9-0.4
		c1.3-0.2,2.6,0.3,3.6-0.5c0.4,0.7,1.1-0.2,1.7-0.1c2.4,0.6,4.6,0,7,0C125.9,10.2,125.9,10.6,125.9,11.1z"/>
	<path class="st0" d="M211.7,11.8c0,0,0,0.1,0,0.1c-0.6,0-1.2,0-1.7,0.1C210.5,11.6,211.1,11.9,211.7,11.8z"/>
	<path class="st0" d="M233.8,10.6c-0.4,0.2-1.3,0.5-1.6,0C232.7,10.6,233.2,10.6,233.8,10.6z"/>
	<path class="st0" d="M246.3,11c0.8,0.3,1.7,0.3,2.5,0.2c0.7,0.4,1.3-0.1,2,0c0.1-0.1,0.2-0.2,0.4-0.3c-0.2-0.2-0.5-0.3-0.8-0.3
		c0.4-0.2,0.8-0.4,1.1-0.6c-0.1-0.1-0.3-0.1-0.4-0.2c3.1,0,6.2-0.3,9.2,0.2c-1.2,0.6-2.7-0.4-3.5,0.7c0.1,0.2,0.1,0.4,0.2,0.5
		c-3.8,0.6-7.6,0.4-11.5,0.8c0.1-0.5,0.5-0.9,0.6-1.4c-0.3,0-0.6-0.1-0.9-0.1c-0.1-0.9,1.8-0.6,2.5-0.6
		C247.3,10.1,246.8,10.5,246.3,11z"/>
	<path class="st0" d="M250.2,9.5c-0.3,0-0.5,0.1-0.8,0.1C249.7,9.5,250.1,9.1,250.2,9.5z"/>
	<path class="st0" d="M125.6,10.5c-0.4,0.1-0.9,0.1-1.3,0.1C124.5,10.1,125.1,10.1,125.6,10.5z"/>
	<path d="M96.8,7.1c-0.3,0.2-0.7,0.1-1.1,0C96.1,7.3,96.4,7,96.8,7.1z"/>
	<path d="M155.3,12.1c-0.4,0.7-1,1.1-0.9,1.9c0.4,0.1,0.7,0.1,1.1,0.2c-1.3,0-2.6,0.1-4,0.1c0.4-0.1,0.7-0.2,1.1-0.3
		c-0.4-0.3-0.8-0.5-1.2-0.8c0.7,0,1.5,0.3,2.1-0.2c-0.9,0-1.8-0.1-2.7-0.1c0.7-0.2,1.4-0.3,2.1-0.5c-0.1-0.1-0.2-0.1-0.2-0.2
		C153.5,11.8,154.5,12.1,155.3,12.1z"/>
	<path class="st0" d="M203.6,12.7c-0.3,0-0.6-0.1-0.9-0.1c0.2,0,0.5,0,0.7,0C203.5,12.6,203.5,12.7,203.6,12.7z"/>
	<path d="M87.3,6.5C87,6.7,86.7,6.8,86.4,7c0.1,0.1,0.2,0.2,0.4,0.4c-0.3,0.1-0.5,0.3-0.9,0.3c-0.4,0,0.2-0.8-0.6-0.8
		c0.3-0.3,0.7-0.5,1-0.7C86.7,6.3,86.8,6.5,87.3,6.5z"/>
	<path d="M93.5,7c-0.4,0.1-0.8,0.3-0.6,0.7c0,0,0.1,0.1,0.1,0.1c-0.6-0.1-1.2-0.2-1.8-0.4c0.6-0.1,1-0.4,1.3,0.2
		C92.8,7.2,92.6,6.8,93.5,7z"/>
	<path d="M113.6,9.7c-0.3,0.2-0.7,0-1.1,0.2c0.1,0.2,0.2,0.3,0.3,0.5c-2.5,0-4.7,0.5-7.1-0.2c2.5-0.1,5,0.6,7.2-0.6
		C113.2,9.7,113.4,9.7,113.6,9.7z"/>
	<path d="M148.3,12c-0.8,0.5-0.4,1.3-1.5,1.4c0-0.2,0-0.4,0-0.6c0.4,0,0.7-0.1,1-0.3c-0.5-0.4-1.2,0.3-1.2-0.5
		C147.2,12.2,147.7,11.9,148.3,12z"/>
	<path d="M138.8,13c0.7,0.5,2.1,0.5,1.4,1.4c-0.3,0.3-1.2-0.2-1.3,0.4c1.3,0,2.3,1,3.4,0.2c0-0.2,0-0.4,0-0.6c0.1,0,0.3,0,0.4,0
		c-0.6,0.7,0.5,0.5,0.9,1c0.3-0.1,1.1,0.1,1.1-0.3c-0.1-0.7-1.4-0.9-1.8-1.6c0.9,0,1.7-0.2,2.6-0.2c0.6,1,0.6,2.3,2.2,2.7
		c0.2-0.1,0.4-0.3,0.6-0.4c-0.4-0.4-0.7-0.7-1.1-1.1c0.7-0.6,1.4-0.9,2.5-1c-0.2,0.1-0.2,0.2-0.2,0.4c0,0.2,0.5,0.1,0.5,0.4
		c0,0.3-1.5,0.2-0.9,1c0.4,0.5,1.4,0.6,1.8,1.2c-2.4,0.9-4.9,0.6-7.6,0.5c-1.3-0.7-2.8,0-4.2-0.1c-0.1-0.4,0.4-0.7,0.8-0.8
		c1.1,0.7,1.9,0.1,3-0.3c-3.6-0.3-7.2,0.1-10.9-0.1c-1,0.5,0.7,1-0.6,1.3c-0.8-0.2-1.6-0.3-2.4-0.5c0.3-0.4,0.9,0,1-0.6
		c-0.4-0.2-1-0.4-1.5-0.4c0.7-0.7,2.6,0.2,2-1c0.2,0,0.5-0.1,0.5-0.3c0.1-0.2,0-0.3-0.1-0.4c1.5-0.2,2.8-0.7,4.3-0.6
		c0.5,0.8,1.5,0.2,2.4,0.2c0.6-0.4,0.3-0.9-0.2-1.2C138.4,11.3,139.8,12.2,138.8,13z"/>
	<path d="M72.4,4.9c0.1-0.1,0.1-0.2,0.2-0.2c0.3,0,0.5,0.1,0.8,0.1C73,4.9,72.7,4.9,72.4,4.9z"/>
	<path class="st0" d="M175.2,13.5c-0.5-0.1-1.1-0.1-1.6-0.2c0.4,0,0.9,0,1.3,0C175,13.4,175.1,13.5,175.2,13.5z"/>
	<path class="st0" d="M180.9,13.7c0.4,0.2,0.8,0.3,1.3,0.5c-0.5,0.1-1,0.1-1.5,0.1c0-0.2,0-0.5,0-0.7c0.1,0,0.3,0,0.4,0
		C181,13.7,180.9,13.7,180.9,13.7z"/>
	<path d="M254.6,10.5c-0.9,0.7-2,0.2-3.2,0.3C252.4,10.4,253.4,10.2,254.6,10.5z"/>
	<path d="M126.1,11.7c0.2,0,0.4-0.1,0.6-0.1c0,0.1,0.1,0.1,0.1,0.2C126.5,11.8,126.3,11.7,126.1,11.7z"/>
	<path d="M159.4,13.2c-0.5,0.3-1.1,0.1-1.7,0.1C158.3,13.4,158.8,13.2,159.4,13.2z"/>
	<path class="st0" d="M173.7,13.9c0.1,0.2-0.9,0.2-1.1,0.1C172.8,13.9,173.7,13.8,173.7,13.9z"/>
	<path d="M255.6,10.7c0-0.1,0.1-0.3,0.1-0.4c0.1,0.2,0.3,0.3,0.4,0.5C255.9,10.8,255.7,10.8,255.6,10.7z"/>
	<path d="M67.4,4.9c-0.9,0.1-1.7,0.5-2.7,0.2C65.5,4.6,66.5,4.5,67.4,4.9z"/>
	<path class="st0" d="M197.1,14.2c-0.6,0.1-1.3,0.3-1.7-0.2C196,14.1,196.6,13.9,197.1,14.2z"/>
	<path d="M74.7,5.9c0.2,0,0.5,0.1,0.7,0.1C75.1,5.9,74.9,5.9,74.7,5.9z"/>
	<path d="M160,14.2c-1,0.1-1.9-0.2-2.9,0C158,13.6,159,14,160,14.2z"/>
	<path class="st0" d="M266.1,9.7c-0.4,0.4-1,0.3-1.5,0.1C265.1,9.7,265.6,9.7,266.1,9.7z"/>
	<path d="M78.8,7.2c0-0.2,0.1-0.4,0.1-0.6c0.4,0.2,0.7,0.3,1,0.5C79.6,7.1,79.2,7.2,78.8,7.2z"/>
	<path d="M92.9,9.5c-2.2,0-4.4-0.1-6.6,0c0-0.1,0-0.3,0.1-0.4c2.1,0.4,4-0.7,5.9,0.3c0.5-0.2,1.1-0.5,1.6-0.7
		C93.6,9.2,92.8,8.8,92.9,9.5z"/>
	<path d="M101.3,9.8c0,0.6-0.5,0.3-1,0.4c-1.6-0.2-3.2-0.4-4.8-0.6C97.4,9.9,99.3,9.7,101.3,9.8z"/>
	<path d="M116.3,11.7c-0.2,0.2-0.8,0-1.1,0C115.6,11.6,116,11.6,116.3,11.7z"/>
	<path class="st0" d="M166.2,14.5c-0.6,0.4-1.2,0.2-1.9,0.3C165,14.7,165.5,14.4,166.2,14.5z"/>
	<path class="st0" d="M173,15.1c-0.4-0.2-0.9-0.3-1.3-0.5c0.6,0,1.2,0,1.7,0C173.3,14.8,173.1,14.9,173,15.1z"/>
	<path d="M75,7c-0.2-0.1-0.5-0.3-0.7-0.4c0.3,0,0.5,0.1,0.8,0.1C75.1,6.8,75.1,6.9,75,7z"/>
	<path d="M130.3,13.5c-0.4,0.5-0.7,0.8-1.5,0.8C128.9,13.6,129.5,12.9,130.3,13.5z"/>
	<path class="st0" d="M196.7,15.5c0,0.3-0.8,0.1-1,0.2C195.5,15.1,196.7,14.9,196.7,15.5z"/>
	<path class="st0" d="M263,11.1c-0.7,0.4-1.3,0-1.9-0.2C261.7,11,262.4,11,263,11.1z"/>
	<path d="M110,12.3c-0.6-0.1-1.2-0.1-1.9-0.2C108.9,11.8,110.1,11.3,110,12.3z"/>
	<path d="M128.4,13.4c-0.3-0.1-0.5,0.1-0.6,0.3c-0.1,0.2,0.1,0.4,0.1,0.6c-0.2,0-0.5,0.2-0.5,0.3c-0.2,0.3,0.3,0.5,0.1,0.9
		c-0.1,0.1-0.2,0.2-0.3,0.3c-0.2-0.3-0.4-0.6-0.8-0.8c-0.5-0.2-1.2,0.1-1.3,0.5c-0.2,0.4,0.1,0.7,0.5,0.8c0.8,0.2,1.4-0.2,2.1,0.2
		c-1.5,0.1-2.6-0.6-3.8,0.5c0.3,0.3,0,0.6,0.3,0.9c0.6-0.1,1.1-0.3,1.7-0.4c-0.7,1.1-2.3,0.8-3.3,1.7c0.1,0.3,0.2,0.5,0.3,0.8
		c-0.5,0-1-0.1-1.5-0.1c0.4-0.2,0.8-0.4,1.1-0.6c-0.6-0.5-0.2-1.3-1.5-0.7c-0.2,0-0.4,0-0.6-0.1c0.3-0.2,0.7-0.3,1-0.5
		c-0.2-0.3-0.6-0.2-0.9-0.3c1.1-0.2,2.1,0.1,3-0.5c-1.6-0.4-3.3-0.4-5-0.7c-0.3-0.1-0.6-0.1-0.9-0.1c0.3-0.1,0.6-0.2,1-0.3
		c-0.5-0.3-1-0.2-1.6-0.3c0.5-0.3,1.3-0.2,0.8-0.8c0.7-0.1,1.3,0,1.9-0.4c-0.1-0.2-0.2-0.3-0.4-0.5c1.3-0.7,2.8-0.7,4.4-0.7
		c0,0.2,0,0.5,0,0.7c1.2,0.4,2.4,0.2,3.6,0.1c-0.8-0.5-1.7-0.4-2.7-0.2c0,0-0.1-0.1-0.1-0.1c0.7-0.5,1.8-0.3,2.7-0.4
		C127.7,13.2,128,13.3,128.4,13.4z"/>
	<path class="st0" d="M136.8,14.8c-0.1-0.2-0.1-0.4-0.2-0.6c-0.9,0.2-1.8-0.1-2.6,0.3c0.4,0.3,0.8,0.3,1.4,0.2
		c0.1,0,0.1-0.1,0.2-0.1c-0.6,0.4-1.4,0.3-2.1,0.4c-0.4-0.3,0.1-0.4,0.2-0.7c1-0.6,2.1,0.2,3-0.6c0.9,0.1,1.8,0.2,2.7,0.3
		C138.5,14.3,137.7,14.5,136.8,14.8z"/>
	<path d="M55.9,4.2c0.4,0.1,0.9,0.2,1.3,0.3C56.7,4.4,56.3,4.3,55.9,4.2z"/>
	<path d="M81.4,8.2c0.4,0,0.8-0.1,1.1-0.1c-0.3,0.1-0.7,0.2-1,0.3C81.5,8.3,81.4,8.3,81.4,8.2z"/>
	<path d="M64.9,5.8c-0.7,0,0.1,0.1,0.2-0.1c0.1,0,0.3,0,0.4,0.1C65.4,5.8,65.1,5.8,64.9,5.8z"/>
	<path d="M71.1,6.8c-0.9,0-1.6-0.3-2.3,0.2c-0.2-0.2-0.3-0.3-0.5-0.5c1,0,1.9-0.1,2.8,0.1C71.1,6.6,71.1,6.7,71.1,6.8z"/>
	<path class="st0" d="M133.1,13.8c0,0.6-0.8,0.5-1.2,1c0.1-0.3,0.1-0.7,0.2-1C132.5,13.8,132.8,13.8,133.1,13.8z"/>
	<path class="st0" d="M174.7,15.9c0,0.1-0.2,0.2-0.4,0.2c-0.4-0.1,0-0.5,0.2-0.6C174.7,15.4,174.8,15.8,174.7,15.9z"/>
	<path class="st0" d="M180.2,15.7c-0.6,0.5-1.4,0.1-2.1,0.4C178.6,15.5,179.4,15.7,180.2,15.7z"/>
	<path class="st0" d="M186.3,15.7c0.8-0.3,0.7,0.9,1.4,0.1c-0.5,0.8-1.3,1-2.3,0.5c-1,0.4-1.9-0.3-2.9,0.3c0.2,0.3,0.5,0.2,0.8,0.1
		c-0.4,0.1-1.2,0.3-0.8,0.7c0.4,0.4,0.5,0.3,0.2,0.8c-1.1,0-0.8-0.7-1.7-0.9c1.2,0.3,0.6-1.6,1.5-1.7
		C183.8,15.6,185.1,16.1,186.3,15.7z"/>
	<path class="st0" d="M190.1,15.6c0.4,0.1,0.8,0.1,1.2,0.2C190.9,15.7,190.5,15.7,190.1,15.6z"/>
	<path d="M79.1,8C78.7,8.3,78.3,8,77.9,8C78.3,7.9,78.7,7.9,79.1,8z"/>
	<path d="M118.1,13.6c0.1,0.8-0.8,0.3-1.2,0.9c-0.2-0.7,0.6-0.3,1-0.8c-1,0-1.9-0.4-2.9,0c0,0.8,0.9,1,0.7,1.8
		c-0.3,0-0.4-0.1-0.7,0.1c-0.6,0.4-1.5,0.4-2.2,0.6c-0.3-0.1-0.5-0.1-0.8-0.2c0.1-0.3,0.1-0.7,0.2-1c0.1,0,0.3,0,0.4-0.1
		s0.1-0.4-0.1-0.4c-0.2-0.1-0.3,0.1-0.4-0.1c-0.1-0.1,0.3-0.1,0.2-0.3s-0.6-0.2-0.9-0.3c0.8-0.1,1.4-0.1,1.8-0.7
		c-0.4-0.3-0.9-0.2-1.3-0.3c0.6-0.1,1.3-0.2,1.9-0.3c0,0.2,0,0.4,0,0.6c1.8,0.5,2.5-0.8,4.2-0.4C118,13.1,118.1,13.5,118.1,13.6z"/>
	<path d="M102.8,12c-1,0.1-0.4,0.8-0.5,1.3c-0.2,0.7,0.8,1.1-0.1,1.6c-0.6-0.1-1.3-0.2-1.9-0.2c1.3-0.1,1-0.9,1.1-1.7
		c-0.5-0.5-1.2-0.4-1.8-0.6c0.4-0.2,0.8-0.4,1.3-0.6c-0.2-0.2-0.4-0.4-0.8-0.4C101.1,11.2,103,10.7,102.8,12z"/>
	<path class="st0" d="M173.5,15.8c0.1,0.1,0,0.2,0,0.3c-0.4-0.2-0.8-0.3-1.3-0.5C172.7,15.7,173.3,15.5,173.5,15.8z"/>
	<path d="M62.9,6.5c0.1,0,0.2,0,0.2,0C62.4,6.7,62,7,61.3,6.8c0.3-0.2,0.6-0.3,0.9-0.5C61.9,6,61.6,6.1,61.3,6
		c0.6-0.1,1.1-0.1,1.7-0.2C62.9,6,62.9,6.3,62.9,6.5z"/>
	<path class="st0" d="M176.6,15.9c-0.1,0.4-0.7,0.4-0.8,0C176.1,15.9,176.4,15.9,176.6,15.9z"/>
	<path class="st0" d="M201.1,16.5c0.1-0.1,0.2-0.2,0.2-0.3c0.3,0.6-0.8,0.5-1.3,0.8c-0.8,0-1.5-0.1-2.3-0.1c0.1-0.2-0.2-0.4-0.4-0.3
		c-1,0.3-1.5,0.7-2.5,0c1.2,0.1,1.6-0.9,2.8-0.3C198.9,16,200,16.1,201.1,16.5z"/>
	<path d="M57.1,5.1c-0.4,0.1-0.8,0.2-1.2,0.1C55.8,4.8,56.8,5,57.1,5.1z"/>
	<path d="M72.5,7.7c-1.2,0.6-2.6,0-3.9,0.4c0.4,0.1,0.7,0.2,1.1,0.3c-0.8,0.7-1.5,1.3-1.1,2.4c0.3,0.2,0.6,0.5,0.8,0.7
		c-0.5,0.2-1.1,0.5-1.6,0.1c0,0,0-0.1,0-0.1c-0.5-0.7-1.7-0.3-2.5-0.1c0.5,0.4,0.3,0.5,0.2,1c-0.3,0-0.5,0.1-0.8,0
		c0.2-0.3,0.4-0.5,0.5-0.8c-0.7-0.1-1.5,0.2-2-0.3c1.2-0.2,2.5-0.2,3.7-0.4c-0.2-0.4-0.6-0.5-1.1-0.3c0.7-0.2,1.3-0.4,2-0.6
		c-0.6-0.3-1-0.7-1.8-0.8c0.4,0,0-0.4,0.3-0.5c0.7-0.1,1.4,0,2-0.5c-0.4-0.6-1.1-0.1-1.6-0.4c-0.1-0.1,0-0.2-0.2-0.3
		c1.4-0.3,2.6,0.4,3.9-0.2c0.1,0.1,0.2,0.2,0.3,0.3C71.2,7.1,71.9,7.4,72.5,7.7z"/>
	<path class="st0" d="M188.8,16.8c0.4,0.2,0.8,0.4,1.2,0.6c-0.1,0-0.2,0.1-0.2,0.1c0.6,0.1,1,0.4,1.6,0.3c-0.2,0.5,0.6,0.4,0.9,0.4
		c0.3,0,0.3,0,0.6,0c-1.9,0.4-3.8,0.2-5.7,0.2c-0.3-0.2-0.4-0.6-0.8-0.7c-0.6-0.1-1.4,0.3-1.9-0.2c1.3,0.2,2.5-0.2,3.8-0.5
		c-0.2-0.1-0.4-0.2-0.6-0.3c1.2-0.3,2.2-0.4,3.4-0.2C190.3,16.6,189.5,16.7,188.8,16.8z"/>
	<path d="M60.9,6c-0.2,0.7-0.8,1-1.7,0.9c-0.1,0-0.4-0.1-0.5-0.1C59.6,6.7,60,6.1,60.9,6z"/>
	<path d="M79.4,8.7c-0.9,0.7-2.2,0.2-3.3,0.1C77.1,8.2,78.3,8.7,79.4,8.7z"/>
	<path d="M107.6,13.1c0.5-0.7,1.5-0.1,2.3-0.3C109.2,13.2,108.4,13,107.6,13.1z"/>
	<path class="st0" d="M137.9,15.2c-0.5,0.2-1,0.1-1.5,0.1C136.9,15.1,137.4,15,137.9,15.2z"/>
	<path class="st0" d="M144.1,16.1c-0.2-0.7,0.5-0.3,1-0.6c0.1,0.2,0.1,0.4,0.2,0.6C144.9,16.1,144.5,16.1,144.1,16.1z"/>
	<path d="M89.8,10.7c0.4-0.1,0.7-0.1,1.1-0.2c0,0.1,0,0.2,0,0.3C90.5,10.8,90.1,10.8,89.8,10.7z"/>
	<path class="st0" d="M124.5,14.6c-0.8,0.1-2-0.1-2.5,0.6c-0.4-0.1-0.7,0-0.9-0.3C122.3,14.6,123.3,14.1,124.5,14.6z"/>
	<path class="st0" d="M173.5,17.3c-1.4,0.3-2.9,0-4.4,0.2c0-0.2,0-0.3,0-0.4c0.9,0.4,2.5,0.2,3.1-0.3
		C173.1,16.2,173.2,17,173.5,17.3z"/>
	<path class="st0" d="M204.6,17.1c-0.8,0.1-1.4,0-1.9-0.5C203.4,16.7,203.9,17.1,204.6,17.1z"/>
	<path d="M88.1,10.4c0.1,0.1,0,0.4-0.2,0.4c-0.2,0-0.3,0-0.4-0.1C87.6,10.5,87.7,10.2,88.1,10.4z"/>
	<path d="M98.3,12.3c0.1,0.2-0.1,0.6-0.4,0.7c-0.3-0.4-0.8-0.4-1.3-0.6C97.4,12.2,97.7,11.4,98.3,12.3z"/>
	<path class="st0" d="M207.4,17c-0.5,0.4-1.4,0.1-2.1,0.2c0.5-0.5,1.4-0.3,2.1-0.3C207.4,16.9,207.5,17,207.4,17z"/>
	<path class="st0" d="M166.7,17c-0.6,0-1.3,0-1.9,0C165.5,16.9,166,17.4,166.7,17z"/>
	<path class="st0" d="M176.2,17.4c-0.4,0.3-1,0.2-1.1-0.3C175.5,17.1,175.9,17.2,176.2,17.4z"/>
	<path d="M62.7,9c0.5,0.5,0.8-0.2,1.3,0.2c-1.1,0.2-2-0.2-3.1-0.3c0.3,0.1,0.4-0.1,0.6-0.2c-0.2-0.5-0.7-0.3-1-0.2S60.2,8.7,60,8.8
		c0.1,0.1,0.2,0.2,0.4,0.3c-0.4,0.3-0.7,0.5-1.1,0.8c0.1,0.2,0.3,0.2,0.5,0.2c-0.2,0.1-0.4,0.1-0.6,0.2c0.2,0.4,0.6,0.7,1.3,0.6
		c0.2,0,0.4-0.2,0.6-0.3c-0.1,0.1-0.3,0.2-0.4,0.2c0.1,0.1,0.2,0.2,0.4,0.2c-0.5,0.1-1,0.3-1.4,0.4c0.8,0.1,1.5,0.2,2.3,0.3
		c-1.2,0.1-2.3,0.2-3.5,0.3c0.8,0.9,1.9,0.4,3.2,0.7c2.6,0.1,5,0,7.5-0.5c0,0.3-0.3,0.6,0.1,0.8c0.1,0,0.2,0,0.3,0
		c-0.8,0.1-0.5,0.8-0.9,1.2c-1.3,0.1-2.5,0.2-3.9,0.2c-0.4,0-0.9-0.7-1.3-0.2c-0.1,0.1,0,0.2,0.1,0.3c-0.3,0.1-0.5,0.1-0.8,0.2
		c0.5,0.1,1,0.1,1.5,0.2c-0.4,0.1-0.8,0.2-1.2,0.3c0,0,0.1,0.1,0.1,0.1c-0.4,0.2-0.7,0.4-1.1,0.6c0.5,0.4,1.1,0,1.4,0.5
		c-0.4,0.2-0.8,0.4-1.2,0.6c0.2,0.3,0.6,0.3,0.9,0.6c-0.5,0.1-0.9,0.3-1.4,0c-0.3-1.4-2-0.7-3.3-1.1c-0.3,0-0.2,0.3-0.3,0.3
		c-0.2,0-0.5-0.2-0.6-0.3c1.5-0.2,2.9,0.2,4.4-0.3c-0.1-0.2-0.2-0.3-0.3-0.5c0.3-0.2,0.7-0.3,1-0.5c-0.3-0.3-0.7-0.2-1.2-0.3
		c0.1-0.1,0.2-0.3,0.3-0.4c-1.6-0.7-3-0.8-4.7-0.2c0.1,0.3,0.4,0.6,0.2,1c-1.8,0.3-3.1-0.7-4.8-0.2c0-0.4-0.6-0.4-0.7-0.8
		c-1.3,0-2.4,0.5-3.8,0.5c-0.2,0.2-0.4,0.3-0.7,0.5c-1.7-0.3-3.4-0.7-5-1c0.8-0.1,1.7,0.2,2-0.5c-0.2-0.2-0.3-0.3-0.5-0.5
		c0.5-0.1,1.1-0.2,1.6-0.4c-1.1-0.4-2.2-0.5-3.3-0.1c0.4,0.3,1.1,0.3,0.8,0.9c-0.5,0-1,0-1.5-0.1c-0.5,0.3-0.1,0.6,0.2,0.9
		c-2,1.1-3.4-1.4-4.9,0.3c-0.7-0.2-1.6,0-1.6-0.7c-2.1,0.9-4.4,0.7-6.7,0.1c-2.6,1-5.3,0.4-8.1,0.9c-3.1-0.2-6.2-0.2-9.3,0.4
		c-0.2-0.1-0.3-0.2-0.5-0.3c-0.8,0.3-1,1.1-2,0.6c0.1-0.1,0.3-0.2,0.4-0.3c-1.9-0.3-3.9-0.2-5.8-0.3c-0.7,0.2-1.4,0.2-2.1,0
		c2.3-0.5,4.8-0.6,7.1-0.6c1.8,0,3.3-0.9,4.8,0.2c1.3-0.9,2.9-0.5,4.4-0.9c0-0.1,0-0.2,0.1-0.2C13.1,14,8.7,14,4.3,14.4
		c0.1-0.2-0.1-0.3-0.3-0.5c2.9-0.3,5.7,0,8.4-0.9c1.4,0.8,2.2-0.8,3.2,0.2c1.3-0.2,2.7,0.7,3.4-0.4c1,0.1,1.8,0.2,2.7-0.1
		c0.4,1.1,1.8,0.4,2.9,0.5c0.8-0.5-0.6-0.5-0.8-0.5c-0.1,0,0.4,0,0.3-0.2c-2.3-0.2-4.6-0.5-6.9-0.5c0.4,0.1,0.9,0,1.2-0.2
		c0.2-0.2-0.3-0.4-0.4-0.6c-0.4,0.1-0.7,0.1-1,0.2c1.8-0.9,4-0.5,5.8-1.3c0.2-0.1-0.2-0.4-0.3-0.5c-0.1-0.1-0.2,0-0.3,0
		C24,9.8,25.5,9,27,9.5c3.9,0,7.6-0.9,11.4-1.1c0.1-0.1-0.1-0.2-0.1-0.3C38.5,7.9,38.8,8,39,8c0.2,1.2-1.7,0.7-2.7,1
		c-0.1,0-0.3,0.2-0.4,0.2C35.9,9.2,36,9.3,36,9.3c-1.8,0.3-3.6,0.3-5.4,0.6c-0.7-0.2-0.2,0.3-0.6,0.3c-1.9,0.3-3.9,0.2-5.8,0.6
		c0.2,0.1,0.3,0.2,0.5,0.3c2.9,0.3,5.8-0.2,8.7-0.1c0.3,0.6,0.9,0.8,1.7,0.7c0.2,0,0.4-0.1,0.6-0.2c-0.4-0.1-0.9-0.2-1.3-0.3
		c0.5,0,0.9-0.1,1.4-0.1c-0.4,0.4,0.3,1.1-0.8,0.9c-0.5-0.1-1-0.1-1.4,0.2c1.3,0.6,2.6,0.1,4,0.3c-0.6,1.2-2.4,0.7-3.7,1.1
		c-0.4,0.1,0,0.4,0.1,0.6c1.8-0.3,3.7,0.2,5.1-0.9c0.9-0.1,1.8-0.2,2.7-0.3c-0.8-0.4-1.7-0.3-2.6-0.3c1.2-0.8,2.6,0.3,2.9-1.3
		c-0.2-0.2-0.3-0.4-0.6-0.4c0.4-0.3,0.9-0.4,0.5-0.9c-0.2-0.2-0.6-0.4-0.8-0.6c0.4-0.1,0.8-0.2,1.2-0.2c-0.1-0.1-0.1-0.1-0.2-0.2
		c1.3-0.9,2.7,0.2,4-1c0.8,0.2,1.5,0.9,2.4,0.7c0.1,0,0.1-0.1,0.2-0.1c0,0,0.1,0.1,0.1,0.2c-0.2,0.3-0.9-0.2-1.3,0.2
		c0.3,0.4,0.7,0.5,0.8,1c-0.1,0.1-0.3,0.2-0.4,0.2c0.5,0.5,1.1,0.5,1.8,0.6c-0.6,0.2-1.2,0.1-1.1,0.7c1.3,0.6,2.5-0.4,3.9,0
		c0.2-0.1,0.4-0.2,0.6-0.3c-0.2-0.3-0.5-0.4-0.9-0.3c1.8-0.2,3.6-0.4,5.4-0.3c0-0.1,0-0.2,0.1-0.3c-0.5-0.4-1-0.1-1.7-0.1
		c0.2-0.2,0.4-0.3,0.7-0.5c-1-0.5-1.9,0.3-2.8-0.4c-0.5,0-0.8,0.5-1.3,0.2c-0.1-0.1-0.2-0.3-0.2-0.5c-1-0.1-1.6,0.6-2.6,0.2
		c1.5-0.5,3.1-0.5,4.7-0.8c0.9-0.6,2.2-0.3,3.2-1c0.3,0.4-0.2,0.8,0.4,1c0.1-1.2,1.3-1.1,2.5-1.2c-0.2,0.3-0.4,0.5-0.5,0.8
		c0.8,0.1,1.6-0.3,2.3,0.2c0.1-0.1,0.3-0.2,0.4-0.2c-0.2-0.2-0.5-0.4-0.7-0.5c0.4-0.2,0.7-0.4,1.1-0.6C63,7.9,63.9,8.7,62.7,9z"/>
	<path d="M110.7,14.5c-0.1-0.3-0.1-0.5-0.2-0.8c0.1,0,0.2,0,0.2,0C110.7,14,110.7,14.2,110.7,14.5z"/>
	<path class="st0" d="M162.4,16.9c0.4,0,0.7,0,1.1,0C163.1,17,162.8,16.9,162.4,16.9z"/>
	<path class="st0" d="M178.1,17.3c-0.2,0.2-0.4,0.3-0.8,0.3C177.6,17.4,177.8,17.3,178.1,17.3z"/>
	<path d="M78.4,9.9c-0.6-0.1-1.1-0.2-1.7-0.2c0.6-0.1,1.1-0.2,1.8-0.1C78.5,9.7,78.5,9.8,78.4,9.9z"/>
	<path class="st0" d="M119.2,15c-0.3,0-0.6-0.1-0.9-0.1c0.2-0.3,0.8-0.1,0.9,0C119.4,15,119.2,15,119.2,15z"/>
	<path d="M57.3,6.9c-0.8,0-1.5,0.1-2.3-0.1C55.7,6.3,56.5,6.9,57.3,6.9z"/>
	<path d="M94.5,12.3c-0.9,0-1.9-0.1-2.8-0.1C92.6,11.9,93.5,12.2,94.5,12.3z"/>
	<path d="M96.1,12.3c-0.2,0.2-0.5,0.1-0.8,0.1C95.5,12.2,95.7,12.3,96.1,12.3z"/>
	<path d="M71.6,9.3c0,0.3-0.7,0-0.9,0.1C70.7,8.9,71.6,9,71.6,9.3z"/>
	<path d="M135.6,16.7c-0.8,0.2-1.6,0.1-2.5,0C133.9,16,134.6,16.6,135.6,16.7z"/>
	<path d="M136.9,16.9c-0.3,0-0.7,0-0.9-0.2c0.5-0.1,0.9-0.1,1.4-0.2C137.3,16.7,137.1,16.9,136.9,16.9z"/>
	<path d="M188.2,18.1c0.8,0,1.5,0,2.3,0C189.8,18.1,189,18.1,188.2,18.1z"/>
	<path d="M88.7,11.8c-1.6-0.1-0.8,1.1-2.1,1.5c0.6,0.2,0.3,0.8,0,1c-0.7,0.6-1.7,0.4-2.4,0.1c-0.3-0.1,0.1-0.4-0.3-0.6
		c0.2-0.1,0.5-0.3,0.7-0.4c-0.1-0.1-0.2-0.2-0.4-0.3c0.6-0.1,1.1-0.2,1.6-0.5c0-0.1-0.1-0.1-0.1-0.2c0.5-0.2,1.1,0.3,1.3-0.2
		c-0.5-0.2-1-0.3-1.4-0.5C86.6,11.5,87.6,11.6,88.7,11.8z"/>
	<path class="st0" d="M173.8,18.1c-0.3,0-0.5,0-0.8,0C173.3,18.1,173.5,17.8,173.8,18.1z"/>
	<path class="st0" d="M166.3,18.2c0.1,0,0.2-0.2,0.3-0.3c0,0,0.3,0.1,0.3,0.2c0,0.1,0,0.3,0,0.4c-0.5,0-1-0.1-1.5-0.2
		c0-0.2,0-0.3,0-0.5C165.8,17.9,166,18,166.3,18.2z"/>
	<path class="st0" d="M171.9,18c-0.8,0.2-1.9,0.3-2.7-0.1C170.1,18,171,18,171.9,18z"/>
	<path d="M53.1,6.7c0.3,0,0.5,0.1,0.8,0.1C53.6,6.8,53.4,6.7,53.1,6.7z"/>
	<path class="st0" d="M121.1,15.8c0.3,0,0.6,0,0.9,0.1C121.7,15.9,121.4,15.9,121.1,15.8z"/>
	<path d="M55.4,7.9c0-0.1-0.1-0.1-0.1-0.2c-0.2-0.5,1-0.5,1.4-0.4C56.2,7.5,55.8,7.7,55.4,7.9z"/>
	<path d="M77.1,11.1c0.3-0.1,0.5-0.2,0.8-0.3c0.2,0.1,0.5,0.2,0.7,0.4C78.2,11.1,77.7,11.1,77.1,11.1z"/>
	<path d="M92.9,13c-0.3-0.1-0.4,0.1-0.6,0.2c0-0.1,0-0.3,0.1-0.4C92.5,13,92.7,13,92.9,13z"/>
	<path class="st0" d="M198.3,18.7c0.4,0,0.8,0,1.2,0C199.1,18.7,198.7,18.7,198.3,18.7z"/>
	<path d="M137.1,17.4c0,0.6-0.8,0.5-1,1c-0.4-0.2-0.8-0.3-1.2-0.5C135.6,17.5,136.4,17.5,137.1,17.4z"/>
	<path d="M141.6,18c0.2,0.1,0.4,0.2,0.5,0.3c-1.1,0.4-3-0.3-3.4,0.7c0.3-1.1,2.1-1,3.1-1.5c0.2,0,0.4,0,0.6,0
		C142.2,17.7,141.9,17.9,141.6,18z"/>
	<path d="M148.5,18c-0.3,0.2-0.3,0.5-0.7,0.6c-1.2-0.4-2.3,0.1-3.5-0.5C145.7,17.8,147.1,18,148.5,18z"/>
	<path d="M88.4,12.7c0.3,0,0.6,0.1,0.9,0.1C89,12.8,88.7,12.7,88.4,12.7z"/>
	<path d="M109.7,15.5c-0.7,0.2-1.1,0.5-1.8,0.1C108.5,15.6,109,15.4,109.7,15.5z"/>
	<path d="M143.9,18.3c-0.1,0-0.4,0-0.5,0c0-0.2,0.4-0.2,0.5-0.2C144,18.2,143.9,18.3,143.9,18.3z"/>
	<path d="M133.8,17.8c-0.8,0.4-0.2,1.2-1.4,1.1c-0.1-0.3-0.2-0.5-0.4-0.8C132.6,17.8,133.1,17.7,133.8,17.8z"/>
	<path d="M71.4,10.6c-0.1,0.1-0.8,0.1-0.6,0.3c0.7,0.7,1.8,0.3,2.7,0.6c-1.1,0.5-2-0.6-3.1,0.1C70.9,11.3,70.5,10.6,71.4,10.6z"/>
	<path d="M79.5,11.8c-0.3,0.2-0.6,0.2-1,0.2C78.8,11.8,79.2,11.9,79.5,11.8z"/>
	<path d="M131.7,18.2c-1.1,0.2-0.5,1-0.1,1.5c0.6,0.7,1.5,0.2,2.2,0.6c-1.6,0.6-2.6,1.4-4.5,0.9c-0.8-0.2-1.9-0.5-2.8,0
		c-0.4,0.2-0.6,0.7-0.8,1.1c0.8,0.5,1.8,0.5,2.8,0.4c0.3,0,0.1-0.3,0.2-0.5c0.6,0.1,1,0.4,1.3,0.7c-0.1,0.2-0.3,0.4-0.4,0.6
		c0-0.2,0.1-0.4-0.1-0.5c-0.4,0.6-0.9,0.7-1.7,0.9c0,0.1,0,0.3,0,0.4c0.8-0.1,1.9,0.1,2.4-0.6c1.2,0.1,2.1,0.1,2.8,0.9
		c0.1,0,0.2-0.1,0.2-0.1c0.1,0.3,0.2,0.6-0.3,0.7c-0.1,0-0.4,0-0.5,0c0.1-0.2,0.1-0.4,0.2-0.6c-0.7-0.3-1.6,0.5-1.7,0.9
		c-0.1,0.4,0,0.4-0.1,0.8c-2.1,0-2.9-1.4-5-1.2c-0.4-0.1-0.7,0-1,0.2c0.8,0.4,1.6,0.6,2.5,0.6c-1.2-0.1-2.4-0.1-3.7-0.3
		c0.2-0.3,0.4-0.6,0.6-0.9c-0.6-0.3-1.1-0.1-1.7,0.2c0.4,0.3,0,0.7-0.4,0.7c-0.4,0-0.5-0.1-0.8-0.1c0.4-1-0.8-0.6-1.6-1
		c-0.9,0.1-1.7-0.1-2.6-0.1c-0.1-0.6-0.4-0.9,0-1.5c-1.1-0.4-1.4,0.4-1.9,1c0.5,0.5,1,0.9,1.5,1.4c-0.9-0.5-1.8-1.3-2.8-0.8
		c-0.2-0.2-0.5-0.1-0.8-0.2c0-0.3-0.1-0.6-0.1-0.9c-0.8-0.1-0.9,0.4-1.7,0.4c0.1-0.6-0.7-0.8-1.2-0.6c-0.5,0.2-0.5,0.5-1,0.2
		c0.4-0.4,1-0.4,0.8-1c0.6,0.9,1.5,0.3,2.5,0.5c0.1-0.3,0.5-0.4,0.1-0.6c0,0-0.2,0.1-0.1,0c0.1-0.2,1-0.1,1-0.6
		c2.1,0.3,3.9-0.9,4.9,1.2c0.5,0,0.9,0.1,1.4,0.1c-0.2,0.2-0.6,0.1-0.6,0.4c0.6,0.1,1.3,0.1,1.9,0.2c0,0.2,0,0.3,0,0.5
		c1,0.3,1.8-0.3,2.7,0.3c0.1-0.1,0.3-0.2,0.2-0.3c-0.4-0.5-1.2-0.4-1.9-0.5c0.3-0.5,1,0,1.4-0.5c-1-0.3-1.8-0.1-2.8-0.1
		c-0.2-0.8-1.1-0.4-1.9-0.5c1.6-0.1,2.7-0.8,4.4-0.4c0.1-0.2,0.4-0.2,0.4-0.5c-0.9-0.1-1.8-0.2-2.7-0.4c0.5-0.1,0.8-0.4,1.2-0.6
		c-0.1-0.2-0.1-0.4-0.2-0.6c0.5,0.1,1-0.1,1.5,0c0-0.8,1.1-0.9,2-1c0.2,0.2,0.4,0.3,0.6,0.5c0.2-0.1,0.2-0.3,0.2-0.4
		c0.5,0.1,1,0.3,1.5,0.4c-0.3-0.1-0.5,0-0.7,0.2c0.6,0.6,1.2,0.1,2,0.3c0-0.9,1.5-0.8,2.4-1c-0.4,0-0.8-0.1-1.2-0.1
		c0.4-0.2,0.9-0.2,1-0.6c-0.6-0.3-1.2-0.2-1.9-0.3C130.1,18.1,131.2,17.3,131.7,18.2z"/>
	<path class="st0" d="M171.5,19.4c0.3,0,0.5,0,0.8,0C172,19.4,171.7,19.4,171.5,19.4z"/>
	<path d="M75.7,11.7c0.4,0,1.2-0.1,1.5-0.1c0.3,0,0,0,0.2,0C76.8,11.7,76.2,11.7,75.7,11.7z"/>
	<path d="M97.1,14.4c-0.2,0.6-1.2,0.7-0.5,1.3c-0.3,0-0.6,0-1,0c0.3-0.3,0.5-0.6,0.8-0.9c-0.3-0.3-0.7-0.2-1.1-0.3
		C96,14.4,96.5,14.4,97.1,14.4z"/>
	<path d="M92.3,14.4c-0.4,0-0.7-0.1-1.1-0.2C91,13.7,92,13.9,92.4,14C92.4,14.1,92.3,14.3,92.3,14.4z"/>
	<path d="M106.9,15.9c-0.1,0.3-0.4,0.3-0.8,0.3C105.8,15.8,106.5,15.8,106.9,15.9z"/>
	<path d="M127.7,18.1c0-0.1-0.2-0.3-0.4-0.2c-0.1,0.1-0.1,0.1-0.2,0.2s0.4-0.4,0.6-0.3C127.7,17.8,127.7,18.1,127.7,18.1z"/>
	<path d="M53.8,8.4c-0.4,0.1-0.6,0.3-1,0.2C53.1,8.5,53.4,8.2,53.8,8.4z"/>
	<path class="st0" d="M68.4,11.3c-0.1,0-0.3,0-0.4-0.1c0-0.2,0.1-0.5,0.1-0.7C68.2,10.8,68.5,11,68.4,11.3z"/>
	<g>
		<path d="M117.3,17.1c0.3,0,0.5,0.1,0.8,0.1c0,0.1,0,0.2,0,0.3c-0.3,0-0.5-0.1-0.8-0.1C117.3,17.3,117.3,17.2,117.3,17.1
			L117.3,17.1z"/>
		<path d="M117.7,17.3"/>
	</g>
	<path d="M79,12.6c-0.3,0-0.4,0.1-0.6,0.2c0.3,0.3,0.2,0.6,0,0.9c-0.4,0.5-1.1-0.1-1.6-0.1c-0.2-0.8-1-1.2-2-1.1
		C76.2,12.6,77.6,12.2,79,12.6z"/>
	<path d="M44.9,8.2c-0.1-0.1-0.1-0.1-0.2-0.2c0.3-0.4,0.8-0.5,1.4-0.4C45.8,7.8,45.3,8,44.9,8.2z"/>
	<path d="M50.2,8.6c-0.2,0-0.4,0-0.6-0.1c0.3-0.1,0.5-0.1,0.8-0.2C50.5,8.4,50.4,8.5,50.2,8.6z"/>
	<path d="M140.1,19.4c-0.9,0.6-2.2,0.4-2.9,1.2c-0.9,0-1.8-0.1-2.7-0.2c0.6-0.2,1.2-0.4,1.8-0.6c-0.4-1,1-0.5,1.8-0.8
		C138.4,19.7,139.3,19.6,140.1,19.4z"/>
	<path d="M157.2,19.9c-0.2,0.3-0.8,0.1-1.1,0.1C156.4,19.8,156.8,19.8,157.2,19.9z"/>
	<path d="M108.3,16.8c-0.1-0.1-0.3,0-0.3,0.1c0.2,0.3,0.7,0.2,1.1,0.3c0,0.1,0,0.2,0,0.2c-1.4,0.4-1.7-1-3-0.4
		c-0.1-0.1-0.2-0.1-0.2-0.2C106.6,16.8,107.5,16.8,108.3,16.8z"/>
	<path d="M113.1,17.2c-0.4,0.4-1.1,0.4-1.7,0.3c-0.1,0-0.2-0.1-0.2-0.1C111.7,16.9,112.5,17.2,113.1,17.2z"/>
	<path d="M127.3,18.8c-0.3,0-0.6,0-0.9-0.1C126.5,18.3,127.1,18.5,127.3,18.8z"/>
	<path d="M142.5,20.5c1-0.2,2,0.1,2.9-0.4c-0.2-0.2-0.6-0.1-0.9-0.2c0.7,0,1.4,0,2.1,0c-0.3,0.1-0.6,0.1-1,0.2
		c0.2,0.3,0.6,0.2,0.9,0.2c-1.5,0.2-3.1,0.5-4.6,0c-0.5-0.2,0.3-0.8-0.5-0.9C142,19,142.3,20.2,142.5,20.5z"/>
	<path class="st0" d="M172,20.8c-0.5,0.2-0.8,0.3-1.3,0.2C171,20.6,171.5,20.5,172,20.8z"/>
	<path class="st0" d="M186.1,21.4c0,0.2,0.3,0.3,0.1,0.6c-0.3,0.4-0.8,0.3-1.3,0.3c-0.4-1.7-2.2-1-3.8-1.2c2.6-0.3,4.9-0.3,7.5,0.1
		C187.8,21.3,187,21.3,186.1,21.4z"/>
	<path d="M39.1,7.4c-0.1,0.2-0.4,0.1-0.6,0C38.7,7.3,38.8,7.1,39,7C39.2,7.1,39.2,7.3,39.1,7.4z"/>
	<path d="M71.7,12.5c1.1,0.8,2.5,0.8,4,0.6c0.1,0.7-0.5,0.5-1.1,0.7c0-0.3-0.4-0.4-0.7-0.4c-0.3,0-0.6-0.2-0.8,0
		c0.2,0.2,0.5,0.4,0.7,0.6c-1.1,0.1-2-0.4-3.1-0.2c0.2-0.1,0.3-0.2,0.3-0.4c-0.4-0.1-0.8-0.2-1.1-0.4c0.7,0.1,1.4,0.2,1.9-0.3
		c0.2-0.2-0.2-0.4-0.3-0.5c0.5-0.1,1.1,0,1.6,0C72.6,12.3,72.1,12.4,71.7,12.5z"/>
	<path d="M93.4,15.3c-0.8,0.2-1.6,0.2-2.5,0C91.7,14.8,92.6,15.3,93.4,15.3z"/>
	<path class="st0" d="M163.7,21.3c-0.4,0.3-1.1-0.1-1.2,0.4c0.4,0.2,0.9,0.1,1.4,0.2c-0.3,0.1-0.5,0.3-0.8,0.4
		c1.9-0.1,3.5-0.7,5-1.6c0.8,2-2.1,1.1-3.7,1.8c0.8,1.8-1.8,1.3-3.3,1.8c-0.4,0-0.9,0-1.3,0c0.3-0.9-1-1.2-0.6-2.1
		c-0.3,0-0.5,0.1-0.7-0.1c1.3-0.2,1.9-1.5,3.3-0.6c0.4-0.5,0.8-0.7,1.5-0.8c-0.3,0.1-0.5,0.1-0.8,0.2
		C162.9,21,163.3,21.1,163.7,21.3z"/>
	<path class="st0" d="M176.7,20.9c-0.4,0.4-1.1,0.3-1.7,0.4c0-0.1,0-0.3,0-0.4C175.6,20.8,176.2,20.9,176.7,20.9z"/>
	<path d="M37.8,6.9c0.1,0.1,0,0.4-0.2,0.4s-0.3,0.1-0.4-0.1C37.1,7.1,37.7,6.8,37.8,6.9z"/>
	<path d="M34.3,7.2c-1.8,0.2-3.5,0.6-5.3,0.3c1.9-0.6,3.9-0.1,5.7-1C34.5,6.8,34.3,7,34.3,7.2z"/>
	<path d="M120.9,18.8c-0.1,0.8-1.3,0.8-1.1,1.7c-0.8-0.1-1.5-0.2-2.3-0.2c0.3-0.1,0.5-0.1,0.8-0.2c-0.3-0.5-1.3-0.2-1.3-0.7
		C118.4,19.2,119.5,18.6,120.9,18.8z"/>
	<path class="st0" d="M171.3,21.6c-0.4,0-0.8,0-1.2,0c0-0.1,0-0.2,0-0.3C170.4,21.5,170.9,21.4,171.3,21.6z"/>
	<path d="M113.7,18.3c0.2,0,0.5,0,0.7,0.1C114.2,18.4,113.9,18.4,113.7,18.3z"/>
	<path d="M149.3,21c-0.9,0.6-1.9,0.5-3.1,0.5c0.1-0.1,0.3-0.2,0.4-0.3c-0.1,0-0.1-0.1-0.2-0.1C147,21.7,148.4,20.8,149.3,21z"/>
	<path class="st0" d="M175.6,21.8c-0.3,0.1-0.6,0.1-0.8,0.3c0.3,0.1,0.5,0.2,0.8,0.3c-0.3,0-0.6-0.1-0.8,0.1
		c-0.3-0.2-0.1-0.5-0.2-0.7C175.1,22,175.3,21.5,175.6,21.8z"/>
	<path d="M93.3,16.5c-0.9,0.2-1.4,0.8-1.2,1.5c-1.9,0.4-3.7-0.3-5.6-0.1c1.3-0.5,2.8,0.4,3.5-0.7c-1.6-1-3.5-0.6-5.4-1
		C87.6,16.2,90.4,15.9,93.3,16.5z"/>
	<path d="M116.5,19.2c-1,0.5-2.2,0.3-3.3,0.4c0-0.1,0-0.3,0-0.4C114.4,19.5,115.4,18.9,116.5,19.2z"/>
	<path d="M35.9,7.8c-0.3,0.1-0.6,0.2-0.9,0.3C35.4,8,35.7,7.9,35.9,7.8z"/>
	<path d="M109.5,18.7c0,0.1-0.7,0.3-0.9,0C108.4,18.5,109.3,18.4,109.5,18.7z"/>
	<path class="st0" d="M173.8,22.3c0,0.2-0.5,0.1-0.6,0.1C173.2,22.1,173.8,22.1,173.8,22.3z"/>
	<path d="M26.3,7.8c-0.2,0-0.6-0.1-0.8-0.1c0-0.4,0.5-0.4,0.9-0.5c0.2,0.1,0.3,0.3,0.5,0.4C27,7,27.8,7.2,28.4,7
		C28.5,7.9,27.1,7.8,26.3,7.8z"/>
	<path class="st0" d="M47.4,10.5c-1.1,0.1-1.2,0.7-2,1.2c0.6,0.1,1.1,0.2,1.7,0.3c-1.6,0.1-3,0.5-4.5,0.3c0.2-0.6-0.2-1,0.2-1.6
		c0.2-0.3,1.5-1.1,0.6-1.3c1,0.5,1.9,0.3,3,0.3c0,0.2-0.1,0.5-0.1,0.7C46.6,10.5,47,10.5,47.4,10.5z"/>
	<path d="M102.5,19.2c-1.1-0.1-0.7-0.6-0.4-1.2C102.2,18.4,102.4,18.8,102.5,19.2z"/>
	<path d="M136.6,21.2c0,0.2,0,0.3,0,0.5c-0.3,0-0.6,0-1-0.1C135.7,21.1,136,20.8,136.6,21.2z"/>
	<path class="st0" d="M171,22.7c-0.6,0-1.1,0-1.7,0c0.6,0,1.1-0.2,1.7-0.3C171,22.5,171,22.6,171,22.7z"/>
	<path d="M51.4,10.7c0.1,0.6-0.5,0.5-1.1,0.6C50,10.8,51,10.7,51.4,10.7z"/>
	<path class="st0" d="M54.3,11.6c0.2-0.1,0.3-0.3,0.5-0.4c0.1,0.1,0.1,0.1,0.2,0.2C54.7,11.5,54.5,11.5,54.3,11.6z"/>
	<path d="M160.9,22.2c0.4,0,0.7,0,1.1,0C161.7,22.2,161.3,22.2,160.9,22.2z"/>
	<path d="M39.9,9.4c0,0.2,0.4,0.3,0.6,0.3c-0.3,0.9-1.5,0.6-2.4,0.5c-0.2,0-0.5-0.1-0.7-0.1c0.4-0.8,1-1,2.1-1
		c0.1,0,0.4,0.1,0.5,0.1C40,9.3,39.9,9.2,39.9,9.4z"/>
	<path class="st0" d="M65.3,13.9c-0.1-0.3-0.2-0.5-0.3-0.8C65.7,13.3,64.8,13.5,65.3,13.9z"/>
	<path class="st0" d="M64.4,13.4c-0.5-0.1-1-0.1-1.5-0.2c0.5,0,1-0.2,1.5,0C64.4,13.3,64.4,13.3,64.4,13.4z"/>
	<path d="M161.9,22.8c-0.2,0.2-0.5,0.1-0.8,0.1C161.3,22.6,161.6,22.8,161.9,22.8z"/>
	<path class="st0" d="M166.1,23.1c-0.4-0.1-0.8-0.1-1.2-0.2c0.4-0.2,0.8-0.1,1.2-0.1C166.1,23,166.1,23.1,166.1,23.1z"/>
	<path class="st0" d="M176.2,23.2c0.1,0,0.3-0.1,0.4-0.1c0.4,0,0.9,0,1.4,0C177.3,23.1,176.8,23.2,176.2,23.2z"/>
	<path d="M114.3,20.1c0.1,0,0.3-0.1,0.4-0.1c0.3,0,0.6,0.1,1,0.1C115.2,20.1,114.7,20.1,114.3,20.1z"/>
	<path class="st0" d="M188,23.4c-0.3,0.3-0.9,0.5-1,0C187.4,23.4,187.7,23.4,188,23.4z"/>
	<path class="st0" d="M62.5,13.1c-1.6,0.1-3,0.9-4.5,0.3C59.5,13.1,61,13,62.5,13.1z"/>
	<path d="M148.3,22.7c-0.1,0-0.4,0.2-0.2,0.3c0.9,0.5,2-0.4,2.1,0.9c-0.7,0.3-1.5,0.4-2.3,0.3c-0.1-0.3-0.5-0.5-0.8-0.8
		C147.7,23.1,147.6,22.6,148.3,22.7z"/>
	<g>
		<path d="M118.4,20.9c0.3,0,0.5,0.1,0.8,0.1c0,0.1,0,0.3,0,0.4c-0.3,0-0.5-0.1-0.8-0.1C118.4,21.1,118.4,21,118.4,20.9
			C118.4,20.9,118.4,20.9,118.4,20.9z"/>
		<path d="M118.8,21.1"/>
	</g>
	<path class="st0" d="M245,21.4c0,0.2,0.1,0.3,0.3,0.4c-0.6,0-1.2,0-1.8,0C243.7,21.1,244.4,21.5,245,21.4z"/>
	<path d="M114.9,21.1c-0.1,0.2-0.5,0.3-0.8,0.2c-0.1-0.2-0.1-0.4-0.1-0.6C114.5,20.9,115.1,20.5,114.9,21.1z"/>
	<path d="M145,24.8c-1.3,0.4-2.3,0.8-3.7,0.4c0-0.6-0.7-0.5-1.1-0.9c-2,0.2-3.2,0.9-4.3,2.1c-0.7-0.5-0.7-1.3-1.9-1.3
		c1.1-0.7,2.6-0.5,3.9-0.8c-0.7-0.3-1.5-0.2-2.3-0.3c0.9-0.1,0.6-0.8,1.3-1.1c-0.1-0.1-0.3-0.2-0.4-0.3c0.7,0.7,1.5,0.2,2.5,0.6
		c0.9-0.1,1.8,0,2.5-0.4C143,23.1,143.6,24.2,145,24.8z"/>
	<path d="M25.1,9c0.4-0.1,0.8-0.3,1.2-0.4c0.1,0,0.3,0.1,0.4,0C26.1,8.7,25.6,8.8,25.1,9z"/>
	<path d="M130.5,22.9c0.2-0.1,0.5-0.3,0.7-0.4c0.2,0.1,0.4,0.2,0.5,0.3C131.4,22.9,131,22.9,130.5,22.9z"/>
	<path d="M172.2,24.3c0.1,0,0.1-0.1,0.2-0.1c0.3,0,0.5,0,0.8,0C172.8,24.3,172.5,24.3,172.2,24.3z"/>
	<path class="st0" d="M254.4,21.2c0,0.4-0.8,0.2-1.1,0.3c0-0.2,0-0.4,0-0.6C253.7,20.8,254.4,20.8,254.4,21.2z"/>
	<path class="st0" d="M50.2,12.5c0.1,0,0.2-0.1,0.3-0.1c0.2,0,0.5,0.1,0.7,0.1C50.9,12.5,50.5,12.5,50.2,12.5z"/>
	<path d="M67.2,14.9c-0.1,0.7-0.2,1.2-1.3,1c-0.1,0-0.4-0.1-0.5-0.1c0.2,0.1,0.4-0.1,0.6-0.2c-0.2-0.2-0.5-0.4-0.7-0.6
		C65.9,14.8,66.5,14.8,67.2,14.9z"/>
	<path d="M109.3,21.2c0.3-0.1,0.7-0.2,1-0.3c-0.1,0.1-0.1,0.3-0.2,0.4C109.8,21.2,109.6,21.2,109.3,21.2z"/>
	<path d="M135.9,23.1c-0.4,0.1-0.9,0.2-0.9-0.2C135.3,22.9,135.6,22.8,135.9,23.1z"/>
	<path class="st0" d="M140.4,23.9c0-0.2,0-0.5,0-0.7c0.1,0.3,0.2,0.5,0.4,0.8C140.7,23.9,140.6,23.9,140.4,23.9z"/>
	<path d="M70.1,16.1c-0.2-0.2-0.3-0.4-0.5-0.6c0.2,0.1,0.5,0.2,0.7,0.2C70.3,15.8,70.2,16,70.1,16.1z"/>
	<path d="M83,17.4c0,0.2-0.1,0.3,0.1,0.5c-0.3,0-0.5,0-0.8,0c0-0.2,0.1-0.4,0.1-0.6C82.5,17.4,82.7,17.4,83,17.4z"/>
	<path d="M106,20.5c0.1,0.1,0,0.2-0.2,0.2c-0.1,0-0.3,0.1-0.4-0.1C105.3,20.5,105.9,20.4,106,20.5z"/>
	<path class="st0" d="M139.2,23.7c0,0.2-0.7,0.3-0.9,0.3c0-0.2,0-0.4,0-0.6C138.7,23.4,139.2,23.5,139.2,23.7z"/>
	<path d="M201.5,25.1c-0.8,0.4-1.7,0.6-2.6,0.4C199.9,25.2,200.5,24.4,201.5,25.1z"/>
	<path class="st0" d="M245.3,22.6c-0.5,0-1,0-1.5,0c0-0.1,0-0.2,0-0.3c0.5,0,1,0,1.5,0C245.3,22.4,245.3,22.5,245.3,22.6z"/>
	<path d="M32.1,10.1c0.1,0,0.3-0.1,0.4-0.1c0,0.1,0.1,0.1,0.1,0.2C32.5,10.1,32.3,10.1,32.1,10.1z"/>
	<path d="M94.9,19.9c-0.4,0-0.9,0.1-1.4,0.1c0.8-0.1-0.2-0.5,0.4-0.7C94.5,19.1,94.5,19.7,94.9,19.9z"/>
	<path class="st0" d="M49.6,12.9c-0.4,0.1-0.6,0.3-1,0.2C48.7,12.7,49.1,12.8,49.6,12.9z"/>
	<path class="st0" d="M121.6,22.5c0.3,0,0.6,0.1,0.9,0.1C122.2,22.6,121.9,22.6,121.6,22.5z"/>
	<path d="M203.8,25.1c0.3,0,0.6,0,1,0C204.5,25.1,204.2,25.1,203.8,25.1z"/>
	<path class="st0" d="M214.2,25.1c-0.6,0-1.2,0-1.7,0.1c0-0.1,0-0.2,0-0.3c0.6,0,1.2,0.1,1.8,0.1C214.2,25.1,214.2,25.1,214.2,25.1z
		"/>
	<path class="st0" d="M23.9,10.2c1.5-0.1,3.1-0.2,4.6-0.3c-0.8,0.1-1.5,0.2-2.3,0.2C25.4,10.2,24.6,10.1,23.9,10.2z"/>
	<path class="st0" d="M48.2,12.9c-0.4,0.4-1,0.3-1.6,0.2C47.1,13,47.6,13,48.2,12.9z"/>
	<path class="st0" d="M125.1,23.3c-0.2,0-0.5,0-0.7,0c0.1-0.2,0.6-0.2,0.7-0.1C125.2,23.2,125.1,23.2,125.1,23.3z"/>
	<path d="M75.2,17.2c-1.1,0.1-2.1,0.3-3.2-0.1C73.1,17.1,74.2,17,75.2,17.2z"/>
	<path d="M91.3,19.8c-1.7,0.3-3.5,0-5.2,0.6c0.1,0.1,0.1,0.1,0.2,0.2c-0.3,0-0.6,0-0.8,0.2c1.1,0,0.8,0.6,1.2,1.2
		c-1.3,0.3-2.4-0.1-3.7-0.2c0.5-0.2,1.1,0.3,1.4-0.2c-0.9,0-0.8-0.4-1.2-0.9c2-0.3,4-0.5,5.8-1.4C89.7,19.8,90.5,19.4,91.3,19.8z"/>
	<path d="M108.6,22.6c-0.6,0.1-0.7,0.4-0.9,0.8c-0.1-0.2-0.3-0.2-0.5-0.3c-0.1-0.6,0.4-1,0.7-1.5C108.1,22,108.2,22.3,108.6,22.6z"
		/>
	<path d="M182.3,25.8c-0.3,0.3-0.8,0.3-1.2,0.3c-0.3,0-0.2-0.3-0.2-0.5C181.5,25.6,181.9,25.4,182.3,25.8z"/>
	<path d="M190.5,25.7c0.2,0.2,0,0.2,0,0.3c-0.3,0-0.5,0-0.8,0C189.5,25.6,190.3,25.5,190.5,25.7z"/>
	<path d="M167.1,25.6c0.2,0.2-0.1,0.5-0.4,0.5c-0.3,0-0.7-0.4-0.9-0.5C166.2,25.3,166.9,25.4,167.1,25.6z"/>
	<path d="M186.6,25.7c0.1,0.1,0,0.3-0.1,0.3s-0.2,0.1-0.4,0C185.9,25.9,186.5,25.6,186.6,25.7z"/>
	<path d="M104.8,21.6c-0.3-0.1-0.4,0.1-0.6,0.2c0.5,0.3,1,0.7,1.4,1c-2.1,0.1-3.9-0.7-5.7,0.4c-0.5,0-1,0-1.5-0.1
		c0.4-0.2,1,0,1.3-0.4c-0.9-0.2-1.5-0.8-2.5-0.8c-0.2-1,1.1-0.6,2-0.6c0.2,0,0.6,0,0.8,0.1c0,0.1-0.3,0.2-0.2,0.3
		c1.2,0.5,2.5,0.3,3.9,0.2c0-0.1,0-0.3,0-0.4C104.1,21.5,104.4,21.5,104.8,21.6z"/>
	<path d="M70.9,17.4c-0.3-0.1-0.5-0.2-0.8-0.3c0.2,0,0.4,0,0.6,0.1C70.7,17.3,70.8,17.4,70.9,17.4z"/>
	<path d="M146.1,25.4c0,0.2,0.1,0.7-0.2,0.7c-0.3,0.1-0.4,0-0.6,0C145.2,25.7,145.6,25.4,146.1,25.4z"/>
	<path class="st0" d="M47.4,14c-0.9,0.2-1.6,0.3-2.5,0C45.7,13.9,46.6,14,47.4,14z"/>
	<path d="M94.6,21.4c0.1,0.8,1.4,0.3,0.4,1.1c-0.5-0.5-1.2-0.6-1.9-0.4c-0.1,0-0.1,0.1-0.2,0.1c0.3,0.3,0.6,0.5,0.9,0.7
		c-0.5,0.1-0.9,0.4-1.2-0.1c-0.1-0.2,0.2-0.4-0.1-0.6c-0.2,0.1-0.4,0.2-0.6,0.2c-0.4-1.2-1.8-0.7-2.8-1.5c1.2-0.6,2.3-0.2,3.5,0.3
		C93.1,20.7,94,21.1,94.6,21.4z"/>
	<path class="st0" d="M120.3,24.2c-0.6,0-1.1,0-1.7,0C119.2,24,119.7,23.8,120.3,24.2z"/>
	<path class="st0" d="M29.5,11.6c-0.3,0.2-0.6,0-1,0C28.9,11.7,29.2,11.4,29.5,11.6z"/>
	<path class="st0" d="M94,21.5c0.2,0.4-0.6,0.2-0.8,0.4C93.3,21.5,93.6,20.8,94,21.5z"/>
	<path class="st0" d="M32.7,12.2c-0.7,0.3-2,0-2.1,0.8c-0.6,0.2-1.2,0.3-1.9,0.5c0.1,0.2,0.2,0.3,0.3,0.5c-1.2,0.1-2.3,0.2-3.5,0.3
		c1-0.3,2.1-0.6,3.1-0.9c0-0.1-0.1-0.1-0.1-0.2c0.6-0.1,1.2-0.2,1.8-0.3c-0.1-0.1-0.2-0.2-0.3-0.4c-1.8,0-3.6,0.1-5.4,0.1
		C27.3,12.3,29.8,11.8,32.7,12.2z"/>
	<path d="M88.3,21.2c-0.4,0.2-0.9,0.1-1.3,0c0.3-0.2,0.7-0.4,1.1-0.6C88.2,20.7,88.6,21,88.3,21.2z"/>
	<path class="st0" d="M27.4,11.5c-0.3,0.2-0.6,0.1-1,0.1C26.7,11.3,27.1,11.5,27.4,11.5z"/>
	<path d="M56.4,15.9c-0.4,0.3,0.2,0.9-0.7,0.6c0-0.2,0.1-0.3-0.1-0.4c-0.2-0.1-0.4,0.1-0.6,0.2c0.3,0.2,0.1,0.5,0,0.7
		c-0.1,0.2-0.3,0.2-0.5,0.3c0-0.2,0.2-0.3,0.5-0.4c-0.1-0.1-0.2-0.2-0.3-0.4C54,17,54,16,53.3,16.1c-0.7,0.1-0.3,1-1.2,1
		c0.1,0.1,0.3,0.2,0.3,0.2c0.1,0.1,0,0.1,0,0.1c-0.7-0.3-1.5-0.1-1.6-0.9C52.4,15.5,54.4,16.1,56.4,15.9z"/>
	<path class="st0" d="M36.2,13.1c-0.8,0-1.6,0.1-2.4,0C34.7,13,35.4,13,36.2,13.1z"/>
	<path d="M107.4,23.8c-0.7,0-1.5,0.4-1.9-0.2C106.1,23.6,106.7,23.7,107.4,23.8z"/>
	<path class="st0" d="M20.5,11.4c-0.2,0.2-0.6,0.2-0.8,0.4c-0.1-0.2-0.2-0.4-0.3-0.5C19.7,11.3,20.1,11.3,20.5,11.4z"/>
	<path d="M90.6,22.1c-0.5-0.1-0.9-0.1-1.4-0.2c0.5-0.2,0.9,0.1,1.4-0.1C90.7,21.9,90.6,22,90.6,22.1z"/>
	<path d="M74.6,20c0.4,0.1,0.8,0.2,1.2,0.3c-0.7,0.1-0.9,0.5-1.1,0.9c-0.9-0.4,0.4-0.4,0.1-0.9c-0.9,0.5-1.6-0.2-2.6-0.2
		c0.9,0.2,1.5-0.5,2.4-0.4C74.6,19.8,74.6,19.9,74.6,20z"/>
	<path d="M48.2,15.9c-0.4,0.6-1.3,0.5-2,0.9c0.2,0.2,0,0.3,0.1,0.6c-0.5,0.2-1,0.5-1.4,0.7c1,0.3,2.1,0.6,3.1,0.9
		c-1.4,0.4-2.8,0-4.2,0.5c0.3-0.1,0.6-0.1,0.8-0.2c-0.9-0.6,0.7-0.8,0-1.3c0-0.6,0.6-0.7,1.2-1c-0.7-0.6-1.6-0.6-2.6-0.4
		c-0.9,0.6-2.2,0-2.5,1.1c-0.9-0.4-1-1.1-2.1-1.3c0.8-0.7,1.8-0.6,2.9-0.6c0,0.1,0,0.1,0,0.2c1.6-0.7,2.6,1.3,3.9-0.1
		C46.3,15.9,47.3,15.9,48.2,15.9z"/>
	<path d="M50.1,16.4c-0.2,0.1-0.5,0.1-0.7,0.2C49.6,16.6,49.9,16.5,50.1,16.4z"/>
	<path d="M59.2,17.8c-0.9,0.3-1.6,0.6-2.5,0.1C57.5,17.7,58.3,18,59.2,17.8z"/>
	<path d="M69.5,20.1c-0.9,0.5-1.6,0.1-2.5,0c0.1-0.8,1-0.4,1.7-0.8C69.3,19.3,69.2,19.7,69.5,20.1z"/>
	<path class="st0" d="M31.3,14.1c-0.2,0-0.7-0.2-0.8,0c-0.1,0.2,0,0.2-0.1,0.3c0-0.2,0-0.3-0.1-0.4C30.7,14,31,14,31.3,14.1z"/>
	<path d="M61,19.6c0.4-0.1,0.9-0.2,1.3-0.4c0,0.1,0,0.2-0.1,0.3C61.8,19.6,61.4,19.6,61,19.6z"/>
	<path d="M73,21.1c0,0,0-0.1,0-0.1c0.2,0,0.4,0.1,0.6,0.1C73.4,21.1,73.2,21.1,73,21.1z"/>
	<path d="M58,18.9c-0.3,0.6,0.4,0.9-0.6,1.2c-0.4-0.3-1-0.2-1.5-0.4C55.9,18.8,57,18.8,58,18.9z"/>
	<path class="st0" d="M282.6,23.1c0.2,0.1,0,0.1,0.1,0.2c-0.3-0.1-0.7-0.1-1-0.2C282,23.3,282.4,23,282.6,23.1z"/>
	<path d="M37.5,16.5c0.3,0.1-0.6,0.1-0.6,0c-0.1-0.1,0.3-0.2,0.3-0.3c0-0.1-0.3-0.2-0.5-0.2C37.2,15.7,37,16.3,37.5,16.5z"/>
	<path d="M59.4,19.9c0.2-0.1,0.4-0.3,0.6-0.4c-0.1,0.2-0.2,0.3-0.2,0.5C59.7,19.9,59.5,19.9,59.4,19.9z"/>
	<path class="st0" d="M21,14.4c0.8-0.3,1.6-0.4,2.6-0.2C22.7,14.3,21.9,14.3,21,14.4z"/>
	<path d="M47.5,17.8c0.1,0,0.1-0.1,0.2-0.1c0.2,0,0.4,0.1,0.6,0.1C48,17.8,47.7,17.8,47.5,17.8z"/>
	<path d="M78.6,22.5c-0.3,0.2-0.8,0.1-0.6,0.5c0,0.1,0.2,0.3,0.3,0.3c0.7-0.5,1.4-0.4,1.9,0.1c-1.2,0.4-2.5-0.1-3.7-0.4
		c0.8-0.5-0.8-0.7-0.7-0.7C76.5,22.4,77.8,22.3,78.6,22.5z"/>
	<path class="st0" d="M18.8,14c-0.3,0.3-0.9,0.4-1.4,0.3C17.7,13.9,18.3,14.3,18.8,14z"/>
	<path class="st0" d="M19.6,14.4c0.2-0.1,0.3-0.2,0.5-0.2c0.1,0,0.3,0,0.4,0C20.2,14.3,19.9,14.4,19.6,14.4z"/>
	<path d="M33.4,16c-1,0.7,0,2.3-1.9,1.8c0.2-0.2,0.4-0.4,0.7-0.5c-0.8-0.4-1.5-0.8-2.4-1.1c-0.5,2.2-3-0.1-4.7,1
		c-0.7-0.2-0.5,0.4-0.9,0.6c-0.2-0.9-1.7-1-2.7-1.1c-1-0.1-1.9,0.3-2.9-0.2c1.7,0.3,3.5-0.8,5,0c0.8-0.3,1-1.1,1.9-0.5
		c-0.2,0.1-0.3,0.2-0.3,0.4c2,0.3,3.6-0.6,5.6-0.6c0.4,0.7,1.1,0.6,1.9,0.4c0-0.1,0.1-0.3,0.1-0.4C32.9,15.9,33.2,15.9,33.4,16z"/>
	<path d="M53.5,19.9c0-0.1-0.1-0.3-0.1-0.4c0.1,0,0.2,0,0.3,0C53.7,19.7,53.6,19.8,53.5,19.9z"/>
	<path d="M52.2,19.5c-0.7,0.1-1.4,0-1.8,0.6c0.9,0.4,1.7,0,2.6-0.2c0,0.5-1,0.5-0.6,1c-1.1,0.2-2,0.9-3,0.3
		c-1.3,0.1-2.1,1.6-3.2,0.4c-1.9,0-3.6-0.7-5.5-0.3c0.1,0.3,0.2,0.5,0.2,0.8c-0.6,0-1.1,0-1.7,0.1c0.1-0.3-0.1-0.4-0.3-0.7
		c-1.4,0-2.5-0.2-3.8-0.6c2.1-0.1,4-0.3,5.9-1.1c0.3,0,0.6,0,1,0c0.1,0.7-0.6,0.5-1.2,0.9c1.8,0.5,3.6-1,4.8,0.6
		c1.2-0.6,2.5,0.1,3.7-0.6c0.2,0,0.5,0.1,0.7,0.1c0,0.1,0,0.2-0.1,0.3c0.5,0.2,1.1,0.3,1.6-0.1c0,0,0-0.1,0-0.1
		c-0.3-0.6-1.1,0.2-1.4-0.6C49.7,19.4,51.3,19.5,52.2,19.5z"/>
	<path d="M62.8,21.6c0,0,0.1,0.1,0.1,0.1c-0.1,0.4-0.7,0.5-1.1,0.7c-0.8-0.4,0.5-0.6,0.1-1.2c0.3-0.4,1.1-0.1,1.5,0
		C63.2,21.3,63,21.5,62.8,21.6z"/>
	<path d="M59.6,21.6c-0.1,0.1-0.1,0.4-0.3,0.4c-0.7,0.2-0.8-0.9-1.7-0.4c0.1,0.2,0.2,0.4,0.3,0.7c-1.4,0.1-2.6-0.6-4-0.5
		c-0.3-0.2-0.1-0.5-0.1-0.8C55.8,20.2,58.2,20.2,59.6,21.6z"/>
	<path d="M36,17.6c-0.8,0.1-1.6,0.1-2.4,0.3C34.3,17.3,35.2,17.2,36,17.6z"/>
	<path d="M39.4,18.1c-0.3,0.2-0.6,0.4-0.9,0.6c1.4,0.2,2.8-0.2,3.7,0.8c-2,0.3-3.7,0.3-5.7,0.1c-0.2,0.2-0.3,0.4-0.5,0.5
		c-1.3-1.3-2.5,0.3-4.1-0.6c1.2-0.2,1.9-1.1,3-0.3c1.5-0.7,3.1,0,4-1.3C39.1,17.9,39.3,17.9,39.4,18.1z"/>
	<path d="M13.7,16.2c-0.1,0-0.2,0.1-0.3-0.1c-0.1-0.1,0.1-0.5,0.4-0.4C13.7,15.9,13.7,16.1,13.7,16.2z"/>
	<path d="M32.2,18.4c-0.8,0.4-1.7,0.4-2.7,0.5C30.4,18.6,31.2,18,32.2,18.4z"/>
	<path d="M15.5,16.8c-0.2,0.4-0.7,0.3-1.2,0.4c0.1-0.2,0.1-0.3-0.1-0.5C14.7,16.8,15.1,16.6,15.5,16.8z"/>
	<path d="M20.5,17.7c-0.3,0.5-0.9,0.3-1.5,0.4c-0.3,0.1-0.7,0-0.9-0.2C18.8,17.9,19.9,17.3,20.5,17.7z"/>
	<path d="M16.8,18.2c-1.4-0.1-2.6-0.5-3.8,0.1c0.7,1.4,2.3,0.7,3.7,0.7c3.6-0.1,6.9,0.3,10.4-0.1c0.5,0.9-0.9,1.2-0.9,2.1
		c-0.6,0.5-1.3,0.4-2,0.1c0.7-0.1,1.3-0.1,1.9-0.4c-1.3-0.3-2.5,0-3.8-0.3c1.3,0.1,2.5-0.1,3.8-0.5c-1.1-0.7-2.3-0.3-3.6-0.6
		c-0.8,0.7-1.9,0.4-2.9,0.8c0.8,0.1,1.5,0.2,2.3,0.3c-1.1,0.1-2.1,0-2.7,0.9c-1.4-0.1-2.8-0.2-4.2,0c0,0.3,0.4,0.4,0.4,0.7
		c-0.9,0.6-1.4-0.4-2.3,0.4c-0.4-0.9-1.2,0-1.7-0.8c-1.8,0.4-3.2,0.4-5-0.1c-0.5,0.8-0.9,0.1-1.7,0.1c-0.4-0.1-0.7-0.3-1.1-0.4
		c0.8-0.2,1.5-0.4,2.3-0.5c-0.2-0.1-0.5-0.3-0.7-0.4c0.1,0.1,1.1-0.1,1.4,0c0.5-0.2,0.4-0.5,0.6-0.8c-0.4-0.1-0.8-0.2-1.1-0.3
		c2.4-0.3,4.8-0.2,7.1-0.9c-1-0.3-1.9-0.5-3-0.3c2.1-0.1,4.2-0.1,6.3-0.6C16.3,17.7,16.5,18,16.8,18.2z"/>
	<path d="M29.4,19.5c-0.4,0.2-1.1,0-1.5-0.1C28.4,19.3,28.9,19.1,29.4,19.5z"/>
	<path d="M9.6,17.2c-0.2,0.2-0.8,0-1.1,0C8.9,17,9.2,17.2,9.6,17.2z"/>
	<path d="M20.8,18.7c0.2-0.1,0.3-0.2,0.5-0.2c0.1,0,0.3,0,0.4,0C21.4,18.5,21.1,18.6,20.8,18.7z"/>
	<path d="M5.1,17.8c-0.6,0-1.1,0.3-1.7,0.1C4,17.9,4.5,17.7,5.1,17.8z"/>
	<path d="M29.4,21c-0.6,0-1.1-0.1-1.7-0.1c0.4-0.1,0.8-0.1,1.2-0.2c0-0.1-0.1-0.2-0.1-0.3c0.2,0,0.5,0.1,0.7,0.1
		C29.5,20.7,29.5,20.8,29.4,21z"/>
	<path d="M2.6,18.1c0-0.1-0.1-0.2-0.1-0.3c0.2,0,0.4,0,0.5,0.1C2.9,18,2.7,18,2.6,18.1z"/>
	<path class="st0" d="M17.9,20.1c-0.2-0.2-0.4-0.4-0.7-0.6c0.1,0,0.3,0,0.4,0C17.7,19.7,17.8,19.9,17.9,20.1z"/>
	<path class="st0" d="M16,19.8c0.1,0.6-0.7,0.5-0.8,1c-0.1-0.4-0.5-0.7-0.7-1C15,19.8,15.5,20,16,19.8z"/>
	<path class="st0" d="M13.7,20c0,0.1-0.4,0.3-0.6,0.2c0.2-0.1,0.3-0.3,0.5-0.4C13.6,19.9,13.7,19.9,13.7,20z"/>
	<path d="M3.9,19c0.3,0,0.6,0.1,0.9,0.1C4.5,19.1,4.2,19,3.9,19z"/>
	<path d="M24.4,22.1c-1,0-1.9,0.1-2.9-0.1c-0.3-0.3-0.5-0.6-0.8-0.9c1.5-0.3,2.5-0.1,3.5,0.8C24.3,22,24.3,22.1,24.4,22.1z"/>
	<path d="M26.2,21.9c0,0.1,0,0.2-0.1,0.3c-0.1-0.2-0.2-0.3-0.3-0.5C26,21.7,26.1,21.7,26.2,21.9z"/>
	<path class="st0" d="M14.5,20.7c-1.5,0.1-2.8-0.3-4,0.7c-1.3-0.2-2.6-0.5-3.8-0.7C9.3,20.5,11.9,20.5,14.5,20.7z"/>
	<path d="M2.3,20.1C2,20,1.7,20,1.4,20C1.7,19.8,2.1,19.8,2.3,20.1z"/>
	<path d="M17.9,22.6c-0.3,0-0.5-0.1-0.8-0.1c0-0.1,0.1-0.3,0.1-0.4C17.6,22.2,18.1,22.1,17.9,22.6z"/>
	<path d="M1.5,21.2c-0.5,0.2-1,0-1.5,0C0.4,20.8,1,21,1.5,21.2z"/>
	<path d="M214.4,0.1c-0.6,0-1.2,0-1.9,0.1C213.1-0.2,213.7,0.2,214.4,0.1z"/>
	<path d="M162.8,0.4c-0.2-0.1-0.4-0.1-0.5-0.2c0.1,0,0.3,0,0.4,0C162.8,0.2,162.8,0.4,162.8,0.4z"/>
	<path d="M195.1,1.2c-0.7,0.2-1.4-0.4-2.1-0.4C193.6,0.8,195,0.4,195.1,1.2z"/>
	<path d="M185,1.1c0,0.6-0.5,0.7-1.1,0.6c-0.3,0-0.6,0-0.9,0c0.6-0.3,1.3,0,1.3-0.7C184.6,1,184.7,1.1,185,1.1z"/>
	<path d="M198,1.3c-0.1-0.1-0.3-0.3-0.4-0.4c0.1,0,0.3,0,0.4,0C198,1,198,1.2,198,1.3z"/>
	<path d="M152.1,0.6c0.3-0.1,0.6-0.2,0.9-0.3c0.3,0.1,0.6,0.1,0.9,0.2C153.4,0.6,152.8,0.6,152.1,0.6z"/>
	<path d="M172.1,1.1c0.1-0.1,0.1-0.1,0.2-0.2c0.3,0,0.5,0,0.8,0C172.7,0.9,172.4,1,172.1,1.1z"/>
	<path d="M202,1.6c-0.1,0.1-0.1,0.1-0.2,0.2c-0.1-0.2-0.1-0.4-0.2-0.6C201.8,1.3,202.1,1.4,202,1.6z"/>
	<path d="M227.8,0.3c-0.3,0-0.5-0.1-0.8-0.1c0.1,0,0.1,0.1,0.2,0.1C227.4,0.3,227.6,0.3,227.8,0.3z"/>
	<path d="M149.3,0.7c-0.8,0.1-1.6,0.3-2.4,0.2C147.6,0.1,148.4,0.9,149.3,0.7z"/>
	<path d="M200.5,2c-1,0.5-2.2,0.3-3.4,0.3c-0.1-0.2-0.3-0.4-0.4-0.6C198.3,1.8,199.4,0.8,200.5,2z"/>
	<path d="M229.8,0.3c0.8,0,1.6,0,2.4,0C231.4,0.3,230.6,0.3,229.8,0.3z"/>
	<path d="M209.5,1.4c0.1,0.4-0.2,0.5-0.5,0.6c0-0.2,0-0.4,0-0.6C209.1,1.4,209.3,1.4,209.5,1.4z"/>
	<path d="M212,1.4c0.1,0,0.1-0.1,0.2-0.1c0.6,0,1.1,0,1.7,0.1C213.2,1.4,212.6,1.4,212,1.4z"/>
	<path d="M233.5,0.3c0.1,0,0.1-0.1,0.2-0.1c1.1,0,2.3,0,3.4,0.1C235.9,0.3,234.7,0.3,233.5,0.3z"/>
	<path d="M143.1,1c-0.5,0.3-1.1,0.1-1.7,0.1C142.1,0.5,142.5,1.2,143.1,1z"/>
	<path d="M239.1,0.2c0.9,0,1.9,0.1,2.8,0.1C241,0.3,240,0.2,239.1,0.2z"/>
	<path d="M140.2,1c-1,0.4-2.1,0.1-3.2,0.1C138,0.9,139.1,1.2,140.2,1z"/>
	<path class="st0" d="M224.3,2.1c-0.8,0.3-1.7,0.4-2.4-0.2C222.8,2.1,223.5,1.4,224.3,2.1z"/>
	<path d="M243.9,0.2c0.3,0,0.5,0.1,0.8,0.1C244.4,0.3,244.2,0.3,243.9,0.2z"/>
	<path d="M133.5,1.2c-0.2,0.2-0.5,0.1-0.8,0.1C133,1.3,133.1,1.1,133.5,1.2z"/>
	<path d="M184.9,2.7c-0.7,0.2-1.4,0-2,0.3C183.5,2.9,184.1,2.7,184.9,2.7z"/>
	<path d="M246,0.2c0.9,0,1.7,0.1,2.6,0.1C247.7,0.3,246.9,0.2,246,0.2z"/>
	<path class="st0" d="M224.6,1.9c0.2,0,0.5,0,0.7,0C225.1,1.9,224.9,1.9,224.6,1.9z"/>
	<path d="M200.7,3.1c-0.6,0.2-1.4,0.3-1.9-0.1C199.5,3,200.1,2.9,200.7,3.1z"/>
	<path d="M256.2,0.2c-1.9,0.1-3.9,0-5.8,0.4c-0.1-0.4-0.5-0.4-0.9-0.3c0.1,0,0.1-0.1,0.2-0.1C251.9,0.2,254.1,0.2,256.2,0.2z"/>
	<path d="M167.3,3c-1.3,0.5-2.6,0.2-4,0.2C164.7,2.9,166,3,167.3,3z"/>
	<path d="M172.6,3c-0.3,0.2-0.7,0.3-0.9,0C172,3,172.3,3,172.6,3z"/>
	<path d="M206.5,3.3c-0.2,0-0.7-0.1-0.7,0.1s0.3,0.3,0.4,0.4c-0.4,0-0.7-0.1-1.1-0.1c0.2,0,0.3-0.1,0.4-0.1
		c-0.4-0.5-0.7-0.2-1.3-0.2C204.4,2.7,205.9,3,206.5,3.3z"/>
	<path d="M149.7,2.7c0.3-0.1,0.6-0.2,0.9-0.3c0.2,0,0.4,0,0.5,0C150.7,2.6,150.2,2.7,149.7,2.7z"/>
	<path class="st0" d="M233.2,2.1c0-0.1,0-0.2,0-0.3c0.2,0,0.4,0.1,0.6,0.1C233.6,2,233.4,2.1,233.2,2.1z"/>
	<path class="st0" d="M215.7,3c0.2,0,0.5,0,0.7,0C216.2,3,216,3,215.7,3z"/>
	<path class="st0" d="M223.5,2.8c0,0.1,0,0.2,0,0.3c-0.7,0.3-1.3,0.1-2,0C222.3,2.6,222.9,3.4,223.5,2.8z"/>
	<path d="M209.5,3.6c0,0.1,0,0.2,0,0.3c-0.5,0-1.1-0.1-1.6-0.1C208.4,3.7,208.9,3.4,209.5,3.6z"/>
	<path d="M142.7,2.9c-0.4,0.3-1,0.1-1.5,0.1C141.7,2.9,142.2,2.6,142.7,2.9z"/>
	<path d="M157.9,3.4c-0.3,0.3-0.8,0.1-1.2,0.1C157.1,3.3,157.5,3.3,157.9,3.4z"/>
	<path d="M138.6,3c-0.4,0.2-0.8,0.1-1.3,0.1C137.7,3,138.2,2.7,138.6,3z"/>
	<path d="M153.9,4c-0.1-0.1-0.2-0.3-0.3-0.4c0.2,0,0.4,0,0.5,0C154.1,3.7,154,3.8,153.9,4z"/>
	<path d="M149.9,3.7c-0.7,0.4-1.5,0.5-2.3,0.2C148.4,3.8,149.1,3.6,149.9,3.7z"/>
	<path d="M170.3,4.4c0.7,0.4,0.8-0.3,1.5-0.3c-0.1,0.5,0.7,0.4,0,0.7c-0.8-0.3-1.5-0.1-1.9-0.8c0.3,0,0.5,0,0.8,0
		C170.6,4.2,170.4,4.3,170.3,4.4z"/>
	<path d="M158.1,4.5c-0.1,0.2-0.2,0.3-0.4,0.2c-0.2-0.1-0.2-0.2-0.3-0.3c0.1-0.1,0.2-0.2,0.3-0.3C157.8,4.2,158.1,4.4,158.1,4.5z"/>
	<path d="M177.9,4.7c0.1,0,0.1-0.1,0.2-0.1c0.4,0,0.7,0.1,1.1,0.1C178.8,4.7,178.3,4.7,177.9,4.7z"/>
	<path class="st0" d="M264.4,0.9c-0.8-0.2-1.6,0.2-2.4-0.1C262.9,0.6,263.6,0.6,264.4,0.9z"/>
	<path class="st0" d="M241.6,3c0.4,0,0.8-0.1,1.2-0.1C242.4,2.9,242,2.9,241.6,3z"/>
</g>
</svg>
