<svg version="1.1" id="Layer_1" xmlns="http://www.w3.org/2000/svg" xmlns:xlink="http://www.w3.org/1999/xlink" x="0px" y="0px"
	 viewBox="0 0 342.7 9.2" style="enable-background:new 0 0 342.7 9.2;" xml:space="preserve">
<style type="text/css">
	path{fill: #daaf67}
</style>
<g>
	<path class="st0" d="M30.1,6.2c-0.6,0.2-1.2,0-2,0c0.4-0.1,0-0.1,0-0.3c-0.4,0-0.8,0-1.2,0c0.4,0,0.8,0,1.2,0c0.1,0,0.2,0,0.4,0
		c0.1,0,0.3,0,0.4,0S29,6,29,6s-0.2,0-0.1,0s0.1,0,0.2,0.1c0.1,0,0.2,0,0.3,0c0.1,0,0.1,0,0.2,0c-0.2,0-0.3,0-0.5,0
		C29.3,6.2,29.4,6.3,30.1,6.2z"/>
	<path class="st0" d="M31.3,6c-0.4,0-0.7,0-1.2,0C30.3,5.9,30.9,5.9,31.3,6z"/>
	<path class="st0" d="M37.9,6.7C38,6.7,37.9,6.7,37.9,6.7c-0.4,0.1-1,0-1.5,0C36.9,6.7,37.6,6.6,37.9,6.7z"/>
	<path class="st0" d="M37.7,6.2c0,0,0,0.1-0.2,0.1c0.1-0.1-0.1-0.1-0.4-0.2c0.3,0,0.5-0.1,0.8-0.1c0.2,0.1,0.3,0.1,0.5,0.2
		C38.2,6.2,37.9,6.2,37.7,6.2z"/>
	<path class="st0" d="M54,6.6c-2,0-3.9,0.1-5.9,0c0,0,0,0,0-0.1c-0.7,0.1-1.4-0.1-2.2,0.1c-1.3,0-2.5,0-3.8,0c1.3-0.1,2.5,0,3.4-0.2
		c0.4,0.2,1-0.1,1.6,0c0.8,0,1.6,0.1,2.4,0c1.4,0,2.7-0.1,4.1-0.1C54,6.4,54.1,6.5,54,6.6z"/>
	<path class="st0" d="M111.4,8.7c-1.1,0-2.2,0-3.3,0.1c-0.3-0.1-0.6-0.2-0.9-0.3c-1.3,0.2-2.7,0.4-4,0.6c-0.5-0.1-1.1-0.2-1.6-0.4
		c1.2-0.1,2.3-0.1,3.6-0.2c-1.1,0-0.9,0-2.3-0.1c-1.4,0-4.4-0.1-6.1-0.2c-0.4,0-0.9,0.1-0.7,0.3c0.7,0,1.4-0.1,2.2-0.1
		c0.8,0.1,1.7,0.2,2.5,0.3c0.1,0,0.2,0,0.2,0c-0.1,0-0.2,0.1-0.3,0.2c-0.2,0-0.3,0-0.5,0c0.1,0,0.1-0.1,0.2-0.2
		c-0.9,0.1-1.9,0.2-1.7,0.5c-1.5-0.1-3-0.2-4.4-0.4c-0.3,0-0.6,0-0.9,0c0.8,0,1.5,0.1,2.3,0.2c-1.1,0-2.2,0-3.3-0.1
		c0.2-0.1,0.4-0.2,0.6-0.2c-1.9-0.2-1.6,0.5-4.1,0c-0.8,0-1.5,0-2.3,0c1.3-0.1-1.3,0-1.6,0c0.4,0.1,0.8,0.1,1.3,0.2
		c-0.5,0-2.6,0-1.3-0.2c-0.2,0-0.5-0.1-0.7-0.1c-0.7,0-1.4,0-2.2,0c-0.1,0-0.2,0.1-0.3,0.2c-0.4,0-0.7,0-1.1,0c0,0,0-0.1-0.1-0.1
		c-0.2,0-0.4,0-0.5,0c-0.8-0.1-1.6-0.2-2.4-0.4c0.5,0,1.1,0,1.6,0c-0.2,0-0.3,0-0.5,0c0.5,0,0.9-0.1,1.4-0.1c-0.2,0-0.1,0,0.1,0
		s0.1,0,0.3,0c0.2,0,0.5,0,0.8,0l-0.1,0c0.2,0,0.5,0,0.7,0s0.4,0,0.6,0c0.4-0.2,1-0.3,1.8-0.4c-0.7,0-1.3,0-2,0
		c0.2,0,0.2,0.1,0.5,0.1c-0.4,0-0.8,0-1.2,0c0.7,0-0.1-0.1,0.3-0.2c-0.5,0-1.1,0-1.6,0c0.1,0,0.1-0.1,0.2-0.1c1.1,0,2.3,0.1,3.4,0.1
		c0,0,0-0.1-0.1-0.2c0.5,0,0.9,0,0.8,0.1c0,0-0.3,0-0.4,0.1c0.2,0,0.6,0,0.8,0c0.6,0,1,0,1.5,0c0.1,0,0.2,0,0.3,0c0.1,0,0,0,0,0
		c1,0,1.9,0.1,2.9,0.1c-0.9,0-1.8,0-2.6-0.1c0.4,0.1,0.5,0.2,0.6,0.3c0.1,0,0.4,0,0.5,0c0.1,0,0.2,0,0.2-0.1c0,0-0.3,0-0.4,0
		c1.3,0,2.7-0.1,4-0.1c0.1,0,0.3-0.1,0.4-0.1c-0.8,0-1.6-0.1-2.4-0.1c1.1-0.1,1-0.5,2.4-0.4c0.6-0.1,1.2-0.2,1.8-0.3
		c0.2,0.1,1.4,0,2,0.1c-0.2,0-0.4,0-0.7,0c0.6,0,1.2,0,1.8,0.1c0.7-0.1,1.5-0.2,2.2-0.3c-0.4,0-0.7,0-1.1,0c0.3,0-0.6-0.2-0.5-0.2
		s-0.3,0-0.3,0s0.2,0,0.3,0c0.5,0,1.4,0,2,0c-0.7,0.3,0.5,0.6,1.8,0.6c-2.2,0.2-4.3,0.3-6.6,0.2c-0.3,0.1-0.5,0.2-0.8,0.3
		c0.9,0,1.7,0.1,2.6,0.1c0.1,0,0.1-0.1,0.2-0.1c0.3,0,0.6,0.1,1,0.2c1.7-0.1,3.5-0.2,5.2-0.4c0.2-0.1,0.4-0.1,0.8,0
		c0.8,0,1.5-0.1,2.3-0.2c0.8,0,1.5-0.1,2.3-0.2l-0.1,0c0.1,0,0.1,0,0.2,0c1.1-0.1,2.2-0.2,3.3-0.3c-1.6-0.2-3.2-0.5-4.8-0.7
		c-1.5,0-3,0.1-4.4,0c1.5,0,3-0.1,4.5,0c0.1,0,0.1,0,0.1,0c0.4,0,0.9,0,1.3,0c0.2,0,0.4,0,0.6,0c-2.9-0.1-5.9,0-8.9-0.1
		c-0.2,0.1-0.4,0.2-0.6,0.4c-0.7,0-1.5-0.1-2.2-0.1c0.3,0,0.6-0.1,0.9-0.1c-0.4,0-0.9-0.1-1.3-0.1c0.7-0.1,2.5-0.3,2.2-0.5
		c2.1-0.1,4.1-0.2,6.2,0c0-0.1-0.1-0.2-0.1-0.3c-0.4,0-0.9,0-1.3,0c0.6,0,1.3-0.1,1.9-0.1c-0.8,0-1.6,0-2.4,0
		c2.4-0.1,4.8-0.1,7.3-0.1c-0.8-0.1-1.6-0.1-2.5-0.2c0.4,0,0.7,0,1.1,0c-1.7,0-3.4-0.1-5-0.1c-1.9,0.5-4.7,0.4-7.2,0.2
		c0.7,0,1.4-0.1,2.1-0.1c-1.1,0-2.3,0-3.4-0.1c3.1-0.1,6.2,0,9.3-0.1c-0.1,0-0.2,0-0.3,0c0.7,0,1.4-0.1,2.1-0.1c0,0,0.1,0,0.2,0
		c1,0,1.9,0.1,2.8,0.2c0.1,0,0.2,0,0.4-0.1c0.8,0,1.7,0.1,2.5,0.1c0.1-0.1,0.1-0.3,0.2-0.4c-0.6,0-2-0.1-2-0.3c-0.1,0-0.2,0-0.3,0
		c-0.3,0-0.5,0.1-0.8,0.2c-0.2,0-0.4,0-0.7,0c0.4,0,0.7,0,1,0c-0.9,0-1.7,0-2.7,0c-1,0-2.1,0.1-3.1,0.1c-0.6-0.1-1.3-0.2-1.9-0.3
		c0,0,0.1,0,0.2,0c-0.5,0-1,0-1.5,0c0.3,0.1,0.6,0.2,1.1,0.2c-1.5,0-2.8,0-4-0.2c0.5,0,1,0,1.4-0.1c-0.6,0-1.1,0-1.7,0
		c0.7-0.1,1.6-0.1,2.3-0.1c0.1,0,0-0.1-0.1-0.1c-0.3,0-0.9,0-0.5,0.1c-1,0-2,0-3,0v0c-2.1-0.1-4.3-0.1-6.4-0.2c-0.3,0-0.4,0-0.7,0
		c-1,0-2.2,0-3.2-0.1c1.7,0.1,5.1,0.3,6.6,0.4c1.5,0,1,0,2.1,0c-0.1,0-0.1,0-0.1,0c0.1,0,0.3,0,0.4,0c-0.1,0-0.3,0-0.4,0
		c-1.3,0.3-3,0.3-4.7,0.2c0.5,0,1,0,1.4-0.1c-0.3,0-0.7-0.1-0.8-0.2c-1,0-0.5,0-1.9,0S84.6,3,82.9,2.8c-1,0.1-0.5,0-1.8,0.1
		c-1.3,0.1-4.3,0.5-5.9,0.6c0.2,0,0.4,0.1,0.7,0.1c-0.3,0-0.5,0.1-0.8,0.1c0.1,0,0.2,0,0.3,0.1c-0.3,0-0.4,0.1-0.8,0.1
		s0.2-0.2-0.5-0.2c0.3,0,0.6-0.1,0.9-0.2c-0.2,0-0.4,0-0.7,0c0,0,0.1,0,0.1,0.1c-0.2,0-0.4,0-0.7-0.1c0.2,0,0.3,0,0.5,0
		c-0.2-0.1-0.4-0.2-0.6-0.4c-1.7,0.1-3.3,0.2-5,0.4c0.8,0,1.5,0.1,2.3,0.1c0.8,0,1.6,0,2.4,0v0c-0.5,0-1,0-1.6,0c0.2,0,0.5,0,0.7,0
		c-0.2,0-0.7,0-0.9,0c-0.2,0-0.1,0-0.3,0c-0.2,0-0.1,0-0.2,0c-1.3,0-2.6,0-3.9-0.1c-1.1-0.4-1.4,0-3-0.1c-0.3,0,0.6-0.6,0.8-0.7
		c-0.3,0-0.5,0-0.7,0c-2.3,0.2-4.7,0.5-7,0.8c-0.1-0.1-0.3-0.1-0.4-0.2c-4.8,0-9.7,0.1-14.4,0.3c0.3,0,0.7,0.1,1,0.1
		c0.1,0,0.3,0,0.3,0c0,0,0,0,0.1-0.1c0.9,0,1.8,0,2.7,0.1c-0.9,0-1.8,0-2.8,0v0c-0.1,0-0.2,0-0.3,0c-3,0-7,0-9.7,0
		c-2.1,0-2.3,0.1-3.2,0.4c-0.3,0.1-0.5,0-0.5,0c-1.1,0-2.3,0-3.4,0c-0.1,0-0.2,0.1-0.2,0.1c-2.6,0.1-5.1,0.2-7.6,0.3c0,0,0,0,0,0.1
		C7.3,5.2-0.6,6.4,0.1,5.9c-0.3,0,0.6-0.1,1.3-0.1c0.2,0,1.7-0.2,2.1-0.2c0.1,0,0,0,0,0C4.7,5.5,5.9,5.5,7,5.4
		c2.4-0.2,4.8-0.3,7.3-0.5C14,4.9,13.7,5,13.4,5c2.6-0.1,5.5-0.3,8.1-0.4C35.7,3.8,49.7,3.3,64.2,3c0.1,0,0.5,0,0.6,0s0.2,0,0.1,0
		c1.4,0,7.4-0.1,8.5-0.1C115.2,2.3,304-1.6,332.5,0.7c12.9,1,6.5,2.7,7.1,4.2c0.6,1.6,8.5,4.1-3.6,4c-68.4-0.7-139.4,1-210.7,0.1
		c-1.8,0-3.7-0.1-4.9-0.4c-1,0-0.9,0.1-2.5,0.2c-0.1,0-6-0.1-6.9-0.1C110.9,8.6,111.3,8.7,111.4,8.7z"/>
	<path class="st0" d="M97.1,3.7c0.1,0,0.2,0,0.2-0.1c0.2,0,0.3,0,0.5,0C97.5,3.7,97.3,3.7,97.1,3.7z"/>
	<path class="st0" d="M89.4,3.9c0,0-0.1,0.1-0.3,0.1c0.1-0.1-0.1-0.1-0.3-0.2c0.3,0,0.5-0.1,0.8-0.1c0.1,0.1,0.3,0.1,0.4,0.2
		C89.8,3.9,89.6,3.9,89.4,3.9z"/>
	<path class="st0" d="M84.1,4.2c-0.2,0-0.2,0-0.2,0.1c0.5,0,3.7,0.1,2.8,0.2c1.1,0.2-4.6-0.2-3.5-0.3c0,0-0.2,0-0.1,0
		s0.4,0.1,0.4,0.1l0.1,0c0,0-0.2,0-0.1,0s0.1,0,0.2,0c0.2,0,0.5,0,0.8,0c3.3-0.1,6.6-0.1,10,0c0.1,0.1,0.1,0.2,0.2,0.4
		c-1.9,0-3.8,0-5.7-0.1c0,0,0,0,0-0.1c-0.7,0-0.6,0-1.5,0C86.8,4.3,85.1,4.2,84.1,4.2z"/>
	<path class="st0" d="M84.5,3.9c0,0-0.6,0-0.6,0h-0.3h0.3C83.8,3.9,84.4,3.8,84.5,3.9z"/>
	<path class="st0" d="M83.8,4c0,0-0.8,0-0.8,0v0.1l-0.1,0l0.2,0c0,0,0,0,0.1,0C83.4,4,83.7,4,83.8,4z"/>
	<path class="st0" d="M94.9,4.6c0.2,0,0.3,0,0.5,0l0.1,0C95.3,4.6,95.1,4.6,94.9,4.6z"/>
	<path class="st0" d="M82.5,4.5C82.6,4.5,82.5,4.5,82.5,4.5c0,0,2,0.2,0.7,0.2c-0.5,0-1.1,0-1.6,0C81.9,4.6,82.3,4.6,82.5,4.5
		C82.5,4.5,81.6,4.4,82.5,4.5z"/>
	<path class="st0" d="M86.2,4.6c-0.2,0-0.7,0-1,0C85.6,4.6,85.9,4.6,86.2,4.6z"/>
	<path class="st0" d="M68.8,4.2c-0.2,0-0.5-0.1-0.7-0.1C68.3,4.1,68.6,4.1,68.8,4.2C68.8,4.1,68.8,4.1,68.8,4.2z"/>
	<path class="st0" d="M98.7,5.2c-0.4,0.1-0.7,0.2-1.4,0.2C97.4,5.2,97.9,5,98.7,5.2z"/>
	<path class="st0" d="M90.5,5.1c-0.6,0-1.1,0-1.7,0C89.5,4.9,90.6,4.8,90.5,5.1z"/>
	<path class="st0" d="M96.2,6c-0.5,0-0.7,0-1.3,0s-1.6,0-2.1,0c-1,0.2,1.2,0.2,1.1,0.2c0,0,0.7-0.1,0.6-0.1c0.1,0-0.6,0.1-0.6,0.1
		c-0.1,0-2.2,0.3-2.4,0.4c1,0.1-0.5,0.3-1.1,0.2c0.4,0,0.7-0.1,1.1-0.2c-0.5,0-0.9-0.1-1.3-0.2c-0.2,0-0.3,0-0.5,0
		c0.3,0,0.6-0.1,0.9-0.1c-0.3,0-0.6,0-0.8-0.1c0.9,0,1.9-0.1,2.7-0.1c-1.2,0-3.4-0.2-4.3-0.2s-0.4,0-1,0c0.3,0,0.6,0,0.9-0.1
		c-0.3,0-1.2,0-1.3-0.1c-0.4-0.2,1.8-0.4,2.2-0.5s-0.2,0,0,0c1.3,0,2.6-0.1,4-0.2c0,0.1,0,0.1-0.1,0.2c1.1,0,2.2,0,3.3,0
		c-0.8,0-1.6,0-2.4,0l-0.1,0c7.5-0.5-0.8,0.5,1.3,0.9C95.2,6.1,95.9,6,96.2,6z"/>
	<path class="st0" d="M80.2,6.1c-0.1,0-0.2,0-0.2,0c0.5,0,1,0.1,1.5,0.1c0.5-0.1,1.1,0,1.6,0c-0.2,0-0.4,0.1-0.6,0.1
		c0.3,0,0.7,0,1,0.1c-0.7,0-1.5,0-2.2-0.1c-0.7,0-1.4,0-2.1,0c0.1,0,0.3,0,0.5,0c-0.4,0-1,0-1.3,0s-0.3,0-0.6,0
		C77.5,6,76.7,6.1,75.7,6c1.8,0,3.1-0.2,5-0.1c0.1,0,0.1,0,0.1,0.1H81c-0.1,0-0.1,0-0.2,0c0.6,0,1.1,0,1.7,0c-0.1,0-0.2,0-0.3,0
		c-0.1,0-0.4,0-0.5,0c0.3-0.1,0.7-0.3,1-0.5c0,0,0,0-0.1,0c-0.5,0-1-0.1-1.5-0.1c0,0,0,0.1-0.1,0.1c0.2,0,0.3,0,0.5,0s0.8,0,0.9,0
		s0,0-0.2,0c-0.1,0-0.6,0-0.8,0s-0.6,0-0.8,0c0,0,0,0,0,0.1c-0.9,0-1.7,0-2.6,0c0.4,0,0.8-0.1,1.3-0.1c-0.3,0-0.7-0.1-1-0.1
		c0.7-0.1,1-0.3,1.5,0c0.1,0-0.1,0.1,0,0.1c0.1,0,0.4,0,0.6,0c0.2,0,0.4,0,0.6,0c0,0-0.1-0.1-0.1-0.2c0.1,0,0.2,0,0.2,0s0,0,0,0
		c0.4,0,0.7-0.1,1.1-0.2c-0.2,0-0.5,0-0.7-0.1c0.2,0,0.4,0,0.6,0c0.6,0,1.2,0,1.8-0.1c0,0,0,0.1-0.1,0.2c0.6,0,1.2,0,1.8,0
		c-0.4,0-0.7,0-1.1,0c0.1,0,0.1-0.1,0.2-0.1c0.4,0,0.5,0.1,0.8,0.1s-0.1,0,0.3,0s1.3,0,1.8,0c0.4,0.2-0.4,0.3-1,0.5
		c0.1,0,0.2,0,0.3-0.1c0.2,0,0.4-0.1,0.6-0.1c-0.9,0-1.7,0-2.6,0c0.2,0.2,0.4,0.4,0.5,0.5c-0.6,0-1.2,0-1.8,0.1c0.7,0,1.4,0,2.1,0
		c-0.1,0-0.1,0.1-0.2,0.1c-0.8,0-1.5,0-2.4,0c-0.9,0-1.9,0-2.8,0C80.4,6.1,80.2,6.1,80.2,6.1z"/>
	<path class="st0" d="M64.1,3.8c-0.2,0.2-0.9,0.3-2,0.3C62.9,4,63.2,3.8,64.1,3.8z"/>
	<path class="st0" d="M78.1,5c0.3,0,0.7,0,1,0c0,0,0,0,0,0.1C78.8,5,78.5,5,78.1,5z"/>
	<path class="st0" d="M42.7,4.8c0.1,0,0.6-0.1,0.6-0.1s0.4-0.1,0.5,0l-0.5,0c0,0-0.1,0,0.1,0C43.2,4.8,42.9,4.8,42.7,4.8z"/>
	<path class="st0" d="M23.2,6c0.2,0,0.5-0.1,0.9,0C23.8,6,23.5,6,23.2,6z"/>
	<path class="st0" d="M60.6,4.1c-0.7,0-1.2,0-1.9,0C59.3,3.9,59.9,4.1,60.6,4.1z"/>
	<path class="st0" d="M103.4,6.1c-0.7,0-1.5,0-2.2,0C101.9,5.9,102.5,6.1,103.4,6.1z"/>
	<path class="st0" d="M104.5,6.2c-0.3,0-0.6,0-0.8,0c0.4,0,0.8,0,1.2,0C104.9,6.2,104.8,6.2,104.5,6.2z"/>
	<path class="st0" d="M80.8,5.6c0,0-0.3,0-0.3,0.1c0,0,0-0.1,0-0.1C80.5,5.6,80.8,5.6,80.8,5.6z"/>
	<path class="st0" d="M104.7,6.4c-0.1,0.1-0.8,0.1-1,0.3c-0.3,0-0.7-0.1-1-0.1C103.3,6.4,104,6.4,104.7,6.4z"/>
	<path class="st0" d="M108.7,6.6c0.2,0,0.3,0,0.5,0.1c-1,0.1-2.7-0.1-3.1,0.2c0.3-0.3,1.9-0.2,2.9-0.4c0.2,0,0.3,0,0.5,0
		C109.2,6.5,109,6.6,108.7,6.6z"/>
	<path class="st0" d="M90,6.1c-0.6,0-1,0.1-1.6,0C89,6.1,89.5,6,90,6.1z"/>
	<path class="st0" d="M101.7,6.5c-0.7,0.1-0.2,0.4-1.3,0.3c-0.1-0.1-0.2-0.1-0.3-0.2C100.6,6.5,101.1,6.4,101.7,6.5z"/>
	<path class="st0" d="M76.4,5.1C76.4,5.1,76.4,5.1,76.4,5.1c-0.7,0.1-1.2,0-1.6,0.2c-0.5,0-1.1,0-1.7,0c0.1,0-0.2,0.1-0.2,0.1
		c0.2,0-0.3-0.1-0.5,0c0,0-0.3,0-0.4,0c-0.1,0-0.1,0-0.2,0s0.6,0,0.6,0l0.6,0h-0.5c0,0,0.3,0,0.5,0c0.6,0,1.3,0,1.2-0.2
		C75,5.1,75.6,5.1,76.4,5.1z"/>
	<path class="st0" d="M73.8,5.1l-0.5,0C73.3,5.1,73.7,5,73.8,5.1z"/>
	<path class="st0" d="M69.4,5.6c0.5,0,1,0,1.5,0C70.4,5.5,69.9,5.5,69.4,5.6z"/>
	<path class="st0" d="M96.2,6.6c-0.1,0-0.2,0-0.3,0s-0.2,0-0.2,0C95.7,6.5,96.1,6.4,96.2,6.6C96.3,6.5,96.2,6.5,96.2,6.6z"/>
	<path class="st0" d="M57.6,4.6c-0.3,0-0.5,0.1-0.9,0C57,4.6,57.2,4.6,57.6,4.6z"/>
	<path class="st0" d="M86.9,6.2c0.1,0,0.6,0,0.7,0c0.1,0,0,0,0,0c0,0,0,0,0,0.1c-0.2,0-0.5,0-0.7,0C86.7,6.3,86.8,6.2,86.9,6.2
		L86.9,6.2z"/>
	<path class="st0" d="M72.4,5.8h-0.2c0,0-0.1,0-0.2,0s0.2,0,0.2,0C72.2,5.8,72.4,5.8,72.4,5.8z"/>
	<path class="st0" d="M44.6,4.4c-0.2,0-0.4,0-0.6,0c0,0,0,0.1-0.1,0.1s-0.3,0-0.5,0c0.1,0,0.3-0.1,0.4-0.1c-0.2,0-0.3,0-0.5,0
		c3.3-0.1,6.4,0.1,9.6,0c0.4,0,2.7,0.3,2.3,0.3c-0.1,0-0.7,0-0.8,0c-0.1,0-0.1,0-0.2,0c-0.1,0-0.4,0-0.5,0c0.1,0,0.3,0,0.4,0
		c0,0,0,0,0-0.1c-1.4,0-2.7,0-4.1,0c-0.2,0-0.4,0-0.7,0.1c-0.1,0-0.2,0-0.2,0l0.1,0c-1.7,0-3.4,0-5.1,0C44.4,4.5,44.5,4.5,44.6,4.4z
		"/>
	<path class="st0" d="M107.3,7c-0.9,0.1-1.8,0.2-2.7,0.3c-0.8,0-1.6,0-2.4,0c1.1-0.1,2.2-0.3,3.3-0.4C106,6.9,106.7,7,107.3,7z"/>
	<path class="st0" d="M88.9,6.4c0.1,0-0.4,0-0.2,0c0.1,0.1,0.5,0.1,0.9,0.1c0,0,0,0,0,0.1c-1,0.1-1.2,0-1.9-0.1
		C88,6.5,88.5,6.5,88.9,6.4C88.7,6.5,88.8,6.4,88.9,6.4z"/>
	<path class="st0" d="M87.2,6.5c0,0-0.3,0-0.4,0s-0.2,0-0.2,0C86.6,6.5,87.1,6.5,87.2,6.5z"/>
	<path class="st0" d="M95.8,6.8c-0.3,0-0.6,0-0.8,0C95.1,6.6,95.6,6.7,95.8,6.8z"/>
	<path class="st0" d="M72.1,5.6h0.3h0.4h-0.4C72.5,5.6,72.1,5.6,72.1,5.6c0.2,0,0.5,0,0.7,0C72.6,5.6,72.1,5.7,72.1,5.6
		C71.9,5.6,72.1,5.6,72.1,5.6z"/>
	<path class="st0" d="M73,5.8c0,0-0.1,0-0.2,0s-0.3,0-0.4,0C72.6,5.8,73,5.8,73,5.8z"/>
	<path class="st0" d="M42.7,4.4c0.1,0,0,0.1-0.2,0.1s-0.3,0-0.4,0C42,4.4,42.6,4.3,42.7,4.4z"/>
	<path class="st0" d="M81.3,6.7c-0.9,0.1-1.3,0.2-1,0.5c-1.7,0.1-3.3,0-5,0C76.5,7,77.9,7.3,78.5,7c-1.5-0.2-3.2-0.1-4.9-0.2
		C76.2,6.7,78.7,6.5,81.3,6.7z"/>
	<path class="st0" d="M83.6,7.2c-0.8,0-0.6-0.1-0.5-0.2c0,0-0.1-0.1,0-0.1s0.1,0,0.2,0c1,0,1.9-0.1,2.8,0C85.3,7,84.4,7,83.5,7
		C83.5,7.1,83.5,7.1,83.6,7.2z"/>
	<path class="st0" d="M89.8,7c-0.1,0-0.6,0.1-0.8,0c-0.2,0-0.1,0.1-0.1,0.2c-0.7,0-1.4,0-2.1,0c0.2,0,0.5,0,0.7,0
		c-0.3-0.1-1.2,0-1.1-0.2c1.2,0,2.2-0.2,3.5-0.1c0,0.1-0.3,0.2-0.6,0.2C89.5,7,89.9,7,89.8,7z"/>
	<path class="st0" d="M84,7.1c0.4,0,0.8,0,1.2,0C84.8,7.2,84.4,7.1,84,7.1z"/>
	<path class="st0" d="M87.7,7.4c0.2,0,0.5,0,0.7,0c0,0,0,0.1,0,0.1c-0.2,0-0.5,0-0.7,0C87.7,7.5,87.7,7.4,87.7,7.4z"/>
	<path class="st0" d="M30.7,5.1c0.4,0,0.8-0.1,1.1-0.1c0.1,0,0.3,0,0.4,0C31.7,5.1,31.2,5.1,30.7,5.1z"/>
	<path class="st0" d="M70.1,6.4C70,6.5,68.5,6.6,69,6.7c-0.2,0-0.4-0.1-0.7-0.2C68.9,6.5,69.5,6.4,70.1,6.4z"/>
	<path class="st0" d="M72.8,6.7c-0.1,0-0.3-0.1-0.4-0.2c0.2,0,0.4,0,0.6,0C72.9,6.7,72.9,6.7,72.8,6.7z"/>
	<path class="st0" d="M72,7.1c0,0-0.1,0.1,0.1,0.1c-0.2,0-0.5,0-0.7,0c0,0,0-0.1,0.1-0.1C71.6,7.1,71.8,7.1,72,7.1z"/>
	<path class="st0" d="M37.5,5.4c0.1,0,0.3,0,0.4,0l0.1,0C37.8,5.4,37.7,5.4,37.5,5.4z"/>
	<path class="st0" d="M29.6,5.5c1.5,0,3-0.1,4.4-0.1C32.5,5.5,31.1,5.5,29.6,5.5z"/>
	<path class="st0" d="M69.1,7.2c-1,0-1.8,0.1-2.9,0C67.2,7.2,68.2,7.2,69.1,7.2z"/>
	<path class="st0" d="M79.5,7.7c-1.5,0.1-3.1,0.1-4.6,0.2c0.1,0,0.1,0,0.2,0c-0.2,0-0.5,0-0.7,0c0.4,0.1,0.7,0.2,1.1,0.3
		c-0.8,0-1.7,0-2.5,0c-0.3,0.1-0.6,0-0.8,0c0.3,0,0.6,0,0.8,0C73.3,8.2,73.2,8,72.3,8c1.7-0.1,3.5-0.3,5.2-0.5
		C78.2,7.6,78.9,7.7,79.5,7.7z"/>
	<path class="st0" d="M73.5,7.1c-0.2,0-0.5,0-0.7,0c0.2,0,0.3,0,0.5,0C73.4,7.1,73.4,7.1,73.5,7.1z"/>
	<path class="st0" d="M76.9,8.2c-0.3,0-0.8,0-1.2,0C76,8.1,76.3,8,76.6,8C76.8,8,77.2,8.1,76.9,8.2z"/>
	<path class="st0" d="M33.1,5.9c-0.3,0-0.6,0-0.9,0C32.4,5.8,32.7,5.9,33.1,5.9z"/>
	<path class="st0" d="M60.2,6.9c-0.2,0-0.4,0.1-0.6,0.2c-0.2,0-0.5-0.1-0.6,0c-0.1,0-0.2,0.1-0.2,0.1c-0.1,0,0.4,0.1,0.1,0.1
		c-0.3,0,0-0.1-0.1-0.1c-0.1,0-1.1-0.2-1.4-0.2c-0.4,0.1-0.7,0.2-1.1,0.3c0.1,0,0.4,0,0.3,0.1c-0.5-0.1-1-0.1-1.5-0.2
		C56.5,6.8,58.4,6.8,60.2,6.9z"/>
	<path class="st0" d="M43.7,6.3c-0.8,0.1-1.4,0-2.4,0c-0.1,0,0.1-0.1,0.1-0.1s-0.4,0-0.4,0h0.1h0.3c0,0,1.4,0,1.4-0.1
		C43.6,6.1,43.5,6.2,43.7,6.3z"/>
	<path class="st0" d="M87.8,8.6c-0.7,0-1.4,0.1-1.7,0C86.7,8.6,87.2,8.6,87.8,8.6z"/>
	<path class="st0" d="M78.9,8.4c-0.4,0-0.8,0-1.2,0C78.1,8.3,78.5,8.4,78.9,8.4C79,8.4,78.9,8.4,78.9,8.4z"/>
	<path class="st0" d="M68.5,8.1c0.4,0,0.7,0,1.1,0.1c-0.6,0-0.8,0.1-1,0.3c-0.8-0.1,0.4-0.1,0.1-0.3c-0.2,0.1-1.7,0-1.8,0
		c0,0-0.5,0-0.5,0c0,0,0.5,0,0.5,0C66.8,8.1,68.4,7.9,68.5,8.1C68.6,8,68.5,8.1,68.5,8.1z"/>
	<path class="st0" d="M52.8,6.9c-1.4,0.1-1.6,0.5-3,0.7c0.9,0.1,1.9,0.1,2.8,0.2c-1.1,0-2.3,0.1-3.4,0.2c0.2,0-0.5,0.1-0.4,0
		c0.1,0,0.2,0,0.4,0c0.2,0,0.6-0.3,0.6-0.4c0-0.1,0.4-0.2,0.8-0.3c-0.8,0-1.6,0-2.4-0.1c-0.8,0.1-1.6,0.2-2.4,0.4
		c-0.7-0.1-1.3-0.2-2-0.3c0.9-0.1,1.8-0.1,2.7-0.2v0C48.6,7,50.7,7,52.8,6.9z"/>
	<path class="st0" d="M62.7,7.4c-0.8,0.1-1.4,0.2-2.2,0C61.3,7.4,62,7.5,62.7,7.4z"/>
	<path class="st0" d="M72.3,8c-0.8,0.1-1.4,0-2.3,0c0.1-0.2,0.8-0.1,1.5-0.2C72.2,7.7,72.1,7.9,72.3,8z"/>
	<path class="st0" d="M64.6,7.9c0.4,0,0.8-0.1,1.2-0.1c0,0,0,0,0,0.1C65.3,7.9,64.9,7.9,64.6,7.9z"/>
	<path class="st0" d="M67.1,8.4L67.1,8.4c0.2,0,0.4,0,0.6,0C67.5,8.4,67.3,8.4,67.1,8.4z"/>
	<path class="st0" d="M61.8,7.8c-0.2,0.2,0.4,0.3-0.5,0.4c-0.4-0.1-0.9,0-1.4-0.1C59.9,7.8,60.8,7.7,61.8,7.8z"/>
	<path class="st0" d="M63.1,8c0.2,0,0.4-0.1,0.6-0.1c-0.1,0-0.1,0.1-0.2,0.1C63.3,8,63.2,8,63.1,8z"/>
	<path class="st0" d="M52.2,7.6c0.1,0,0.1,0,0.2,0c0.2,0,0.3,0,0.5,0C52.6,7.5,52.4,7.5,52.2,7.6z"/>
	<path class="st0" d="M71.6,8.6c-0.6,0-0.4,0.2-0.5,0.2h0.2h-0.2c-0.1,0-1.3-0.1-1.5-0.1c0.1,0,0.1,0,0.1,0c-0.3,0-0.5,0-0.8,0
		c0.2,0,0.4,0,0.6,0c-0.2,0-0.4-0.1-0.7-0.1C69.9,8.6,70.7,8.6,71.6,8.6z"/>
	<path class="st0" d="M24.8,6.8c-0.3,0.1-0.9,0.1-1.4,0.1C23.7,6.7,24.3,6.9,24.8,6.8z"/>
	<path class="st0" d="M38.9,7.2c-0.4,0.1-0.8,0.3-1.2,0.4c-0.7-0.1-1.5-0.2-2.2-0.3c-0.4,0.6-2.6,0.5-4.6,0.3
		c-0.3,0-0.5,0.1-0.8,0.2c-1.2-0.2-2.5-0.3-3.9-0.3c-0.4,0-1,0-1.4,0c0.6,0,0.8,0,1.4,0c1,0,2.3,0,3.4,0c0.6,0,1.2-0.1,1.8-0.2
		c-0.1,0-0.2,0.1-0.3,0.1c1.4-0.1,3-0.1,4.3-0.1c1.1,0,1.8,0,2.8,0C38.3,7.2,38.5,7.1,38.9,7.2z"/>
	<path class="st0" d="M57.7,8.1c0,0-0.1-0.1-0.1-0.1c0.1,0,0.2,0,0.3,0C57.9,8,57.8,8.1,57.7,8.1z"/>
	<path class="st0" d="M54.9,8.2c0.5,0,1.1-0.1,1.6-0.2c-0.4,0-0.8,0.1-1.2,0.2c0.6,0,1.3,0,1.9-0.1c-0.2,0.1-0.4,0.2-0.5,0.3
		c-0.6,0-0.6,0-1.2,0c-0.6,0.1-1,0-2,0.1c-2.3,0.1-5.2,0.2-7.6,0.1C46,8.8,46.1,8.9,46.1,9c-0.6,0-2.1,0-1.9-0.1
		c-1.2,0-2.4-0.1-3.6-0.1c0.9,0,8.4-0.3,5.3-0.1c2.5,0,5.1,0,7.5,0c0.6,0,1.4,0,2-0.1c0.2,0-0.7-0.2-0.9-0.1c0.2,0,0.5,0,0.7-0.1
		C55.2,8.2,55,8.2,54.9,8.2z"/>
	<path class="st0" d="M66.4,8.6c-0.3,0.1-0.7,0.1-1,0.2c-0.7-0.1,0.4-0.2,0-0.4c0.5,0,0.9,0,1.4,0C66.7,8.4,66.1,8.5,66.4,8.6z"/>
	<path class="st0" d="M63.4,8.6c-0.1,0,0,0.1-0.2,0.1c-0.6,0-0.7-0.2-1.6-0.1c0.1,0,0.2,0.1,0.3,0.2c-1.3,0-2.4-0.1-3.7-0.1
		c-0.3,0-0.1-0.1-0.1-0.2C59.8,8.2,62,8.2,63.4,8.6z"/>
	<path class="st0" d="M41.5,7.6c-0.8,0-1.5,0-2.3,0.1C39.8,7.6,40.6,7.5,41.5,7.6z"/>
	<path class="st0" d="M43.9,7.9c1.2,0,2.4,0.1,3.5,0.2c-1.8,0-3.6,0.1-5.4,0.1c-0.2,0-0.3,0.1-0.5,0.2c-1.3,0-2.6-0.1-3.9-0.1
		C40,8.2,42,8,44.1,7.7c0.2,0,0.3,0,0.5,0C44.4,7.8,44.1,7.9,43.9,7.9z"/>
	<path class="st0" d="M20,7.5c-0.1,0-0.2,0-0.3,0c-0.1,0,0.1-0.1,0.4-0.1C20,7.4,20,7.4,20,7.5z"/>
	<path class="st0" d="M37.9,7.9c-0.8,0.1-1.6,0.1-2.5,0.2C36.2,8,36.9,7.8,37.9,7.9z"/>
	<path class="st0" d="M22,7.6c-0.1,0-0.2,0-0.2,0c-0.1,0-0.2,0-0.4,0.1c-0.2,0-0.3,0-0.5,0.1c-0.2,0-0.3,0-0.3-0.1s0-0.1-0.1-0.1
		c0,0,0.4,0,0.5,0c0.1,0,0.1-0.1-0.1-0.1c0.5,0,1,0,1.5,0C22.2,7.5,21.6,7.6,22,7.6z"/>
	<path class="st0" d="M35.2,8.3c-0.4,0-1,0-1.5,0C34.3,8.3,34.8,8.2,35.2,8.3z"/>
	<path class="st0" d="M16.1,7.8c-0.2,0-0.8,0-1.1,0C15.3,7.7,15.7,7.8,16.1,7.8z"/>
	<path class="st0" d="M27,8.2c0.2,0,0.3,0,0.4-0.1c0.1,0,0.3,0,0.4,0C27.5,8.1,27.3,8.2,27,8.2z"/>
	<path class="st0" d="M11.7,8c-0.6,0-1.1,0.1-1.6,0C10.7,8,11.1,8,11.7,8z"/>
	<path class="st0" d="M35.4,8.8c-0.5,0-1.1,0-1.6,0c0.4,0,0.7,0,1.1,0c0,0-0.1,0-0.1-0.1c0.2,0,0.5,0,0.7,0
		C35.4,8.7,35.4,8.7,35.4,8.8z"/>
	<path class="st0" d="M9.3,8.1c0,0-0.1,0-0.1-0.1c0.2,0,0.4,0,0.5,0C9.6,8.1,9.4,8.1,9.3,8.1z"/>
	<path class="st0" d="M99.9,4c-0.9,0-1.8-0.1-2.7-0.1c-0.2-0.1,0.4,0,0.8-0.1C98.6,3.8,99.6,3.8,99.9,4z"/>
	<path class="st0" d="M80.3,3.9c0,0,0.5,0,0.6,0s0.2,0,0.3,0c0.1,0,0.1,0,0.1,0C81,3.8,80.7,3.8,80.3,3.9c0.8-0.1,1.8-0.2,2,0
		c-0.3,0.1-0.7,0-1.1,0C81,3.9,80.9,4,81,4.1c0.1,0,0,0,0,0c-0.6,0-1.1,0-1.7-0.1c0.6,0,0.9-0.1,1.2,0c0.1,0,0.2-0.1,0.2-0.1
		C80.7,3.9,80.3,3.9,80.3,3.9z"/>
	<path class="st0" d="M104.1,4.4c-0.3,0-0.6,0-0.9,0C103.4,4.4,103.7,4.4,104.1,4.4z"/>
	<path class="st0" d="M79.6,4.1c-0.6,0-1.2,0-1.8,0C78.4,3.9,79.1,4,79.6,4.1z"/>
	<path class="st0" d="M79.5,4.3c0,0-0.7,0-0.6,0c0.1,0-1,0-1,0c0-0.1,0.9,0,1,0S79.5,4.3,79.5,4.3z"/>
	<path class="st0" d="M76.8,4.2c-0.4,0-0.8,0-1.1,0C76,4.2,76.5,4.2,76.8,4.2z"/>
	<path class="st0" d="M96.2,5c1.2,0,2.4,0,3.6,0v0C98.6,5,97.4,5,96.2,5z"/>
	<path class="st0" d="M56.1,4.3c0,0,0.2,0,0.3,0C56.3,4.3,56.1,4.3,56.1,4.3z"/>
	<path class="st0" d="M86.1,4.7c-0.7,0-1.2,0-1.9,0C84.9,4.7,85.4,4.6,86.1,4.7z"/>
	<path class="st0" d="M71,5c-0.3,0-0.7,0-1.1,0C70.2,5,70.6,5,71,5z"/>
	<path class="st0" d="M105.9,6.3c0.2,0,0.5,0,0.7,0c-0.1,0-0.1,0-0.2,0C106.3,6.3,106.1,6.3,105.9,6.3z"/>
	<path class="st0" d="M108.6,6.4c-0.2,0-1,0-1.3,0C107.6,6.4,108.4,6.4,108.6,6.4s0.6,0,0.6,0C109.2,6.5,108.8,6.4,108.6,6.4z"/>
	<path class="st0" d="M48,4.7c-0.3,0-0.6,0-0.9,0C47.5,4.7,47.7,4.7,48,4.7z"/>
	<path class="st0" d="M66.2,5.2c0.1,0.1,0,0.2,0.4,0.2c0.3,0,0.6,0,0.9-0.1c0,0.1,0.1,0.1,0.4,0.2c1.5,0,1.1-0.5,2.7-0.3
		c-0.6,0-1.5,0.1-1,0.2c-1.5,0.2-3,0.3-4.8,0.3c0.1,0,0.2,0,0.2,0c-1,0-2,0-3,0c0.6,0,1.3,0,1.9,0c-0.6-0.1-1.1-0.1-1.7-0.2
		c0.5-0.1,0.8-0.2,1.5-0.2c0.1,0,0.3,0,0.4,0.1C64.6,5.2,65.9,5.5,66.2,5.2c-0.5,0-0.9,0-1.4-0.1C65.2,5.1,65.7,5.2,66.2,5.2z"/>
	<path class="st0" d="M72.6,5.8c0.1,0,0.4,0,0.5,0s0,0,0.1,0C73,5.8,72.8,5.8,72.6,5.8z"/>
	<path class="st0" d="M37.1,4.5L37.1,4.5c1,0,1.9,0,2.6-0.2c-0.2,0-0.3,0.1-0.3,0.2c-1.7,0.1-3.3,0.2-5.1,0.2c0.2,0,0.4,0,0.6,0
		c-0.4,0-0.8,0-1.2,0c-0.6,0.2-1.9,0.1-2.8,0.1c0.3,0,0.5-0.1,0.8-0.1c0,0-0.1-0.1-0.1-0.1C33.5,4.4,35.2,4.6,37.1,4.5z"/>
	<path class="st0" d="M73.9,5.9c0.2,0,0.6,0,0.8,0c-0.2,0.2-1.2,0.3-0.2,0.5c-0.7,0.2-0.9-0.1-1.8-0.1c-1.4,0-2.9,0-4.3,0
		c0.3,0,0.5,0,0.6-0.1c-1,0-1.9,0-2.8,0.1c-0.4,0.1-1.1,0.3-1.8,0.2c-0.5,0,0.2-0.2-0.6-0.1c0,0,0.1-0.1,0.1-0.1s-0.1,0-0.2,0
		c-1.4,0.5-4.6,0.5-6.8,0.4c-0.2,0-0.5,0-0.6,0c-0.2,0,0.7,0,0.6,0c-0.5,0,1.8-0.1,1.5-0.2c-1.1-0.1-2.3,0-3.4,0
		c2.4-0.1,4.8-0.1,7.3-0.2c-0.3,0-0.5,0-0.7-0.1c1.4-0.1,2.7-0.1,4.1-0.1c-0.9,0-1.7,0.1-2.6,0.2c1.1,0,2.1-0.1,3.2-0.1
		c-0.1,0-0.2,0-0.2,0c0.5,0,0.9,0,1.4,0c0,0,0,0,0,0.1c-0.2,0-0.5,0-0.7,0c0.7,0.2,1.9,0,2.9,0.1c0.1,0,0.2,0,0.4-0.1
		c0.7,0.2,1.6,0.1,2.6,0c0.9-0.1,0.4-0.3,0.1-0.6c0.4,0,0.7,0,1.1,0C74,5.6,72.7,5.8,73.9,5.9z"/>
	<path class="st0" d="M23.3,5.1c-0.9,0.2-2.1,0-3.1,0.2c0.2,0,0.4,0,0.6,0c-0.5,0.1-1.1,0.1-1.7,0.1c0.4,0,0.7,0,1.1-0.1
		c-0.9-0.1-1.5,0-2.4,0c0,0,0,0,0,0.1C15.2,5.6,13,6,10.3,5.8C9.6,5.9,9,5.8,8.6,6c0.4,0,0.8,0,1.2,0C6.6,6.4,3.3,6.6,0.1,6.8
		c0.1,0,0.2,0,0.2,0S0.1,6.7,0,6.7C7,6,14.1,5.5,21.4,5C22,5,22.7,5,23.3,5.1z"/>
	<path class="st0" d="M21.8,6.3l-0.4,0c0,0-0.3,0.1,0.1,0.1c-1.1,0-2.9,0-3.7,0.1c-0.9,0-0.8,0.1-1.4,0.1c0.7,0.1,1.3,0.2,1.9,0.3
		c-0.9,0-1.9,0-2.8,0c0.2-0.1,0.2-0.2-0.2-0.3c-2,0.1-4,0.2-6.1,0.3c3.5-0.3,7-0.5,10.8-0.6v0c0.4,0,1-0.1,1.4-0.1
		c0.1,0,0.2,0,0.2,0C21.7,6.3,21.8,6.3,21.8,6.3z"/>
	<path class="st0" d="M43.6,6.1c-0.2,0-0.4,0-0.6,0C43.2,6.1,43.4,6.1,43.6,6.1z"/>
	<path class="st0" d="M97.6,7.7c-0.3,0-0.7,0-1,0C96.9,7.7,97.3,7.7,97.6,7.7z"/>
	<path class="st0" d="M68.2,6.9c0.1,0,0.1,0,0.2,0s0.3,0,0.4,0C68.6,6.9,68.4,6.9,68.2,6.9z"/>
	<path class="st0" d="M39.5,6.1c0.2,0,0.4,0,0.6,0c0.1,0,0.1,0,0.1,0C40,6.1,39.8,6.1,39.5,6.1z"/>
	<path class="st0" d="M38.8,7c0.1,0,0.2,0,0.3,0s0.2,0,0.3,0C39.2,7,39,7,38.8,7z"/>
	<path class="st0" d="M11.9,6.5C9.4,6.7,6.8,6.9,4.1,6.8c2.2-0.1,4.5-0.3,6.7-0.4C11.2,6.4,11.6,6.5,11.9,6.5z"/>
	<path class="st0" d="M14.8,7.2c-1.7,0-3.2,0.2-4.9,0.1c1.4-0.2,2.9-0.3,4.4-0.4C14.5,7,14.7,7.1,14.8,7.2z"/>
	<path class="st0" d="M7.8,7.2c-0.3,0-0.6,0-0.9,0C7.2,7.2,7.5,7.1,7.8,7.2z"/>
	<path class="st0" d="M75.5,3.9c0.3,0,0.6,0,0.8-0.1c0.2,0,0.3,0,0.5,0C76.4,3.8,76,3.8,75.5,3.9z"/>
	<path class="st0" d="M69.2,4c-0.4,0.1-0.9,0-1.4,0C68.4,4,68.8,3.9,69.2,4z"/>
	<path class="st0" d="M65.5,4c-0.4,0.1-0.8,0-1.2,0c0.1,0,0.4,0,0.4,0h-0.2c0.3,0,0.5-0.1,0.8-0.1c-0.2,0-0.5,0-0.8,0
		c0.5,0,1,0,1.6-0.1C66.1,3.8,66,3.9,66,4c0.1,0,0.1,0,0.2,0C65.9,4,65.7,4,65.5,4C65.4,4,65.5,4,65.5,4z"/>
	<path class="st0" d="M75.8,4.2c-0.6,0.1-1.3,0.1-2.1,0C74.4,4.2,75.1,4.1,75.8,4.2z"/>
	<path class="st0" d="M52.6,4.2c0,0.1-0.3,0.1-0.5,0c-0.2,0-0.3,0-0.5,0C51.9,4.2,52.3,4.3,52.6,4.2z"/>
	<path class="st0" d="M75.6,4.5c-0.1,0-0.1,0.1-0.2,0.1c1.9,0,3.4-0.2,5,0c0.5-0.1,1-0.1,1.4-0.2c-0.2,0.1-0.9,0-0.8,0.2
		c-2,0-4,0-6,0c-0.1,0-0.2,0-0.2,0c-0.2,0-0.4,0-0.6-0.1C74.1,4.4,75.1,4.5,75.6,4.5z"/>
	<path class="st0" d="M68.8,4.9c-0.5,0.2-1.1,0-1.8,0c0.4-0.1,0-0.1,0-0.3c-0.4,0-0.7,0-1.1,0c0.4,0,0.8,0,1.1,0c0.1,0,0.2,0,0.3,0
		c0.1,0,0.4,0.1,0.4,0.1h0.1h-0.1C67.7,4.7,68.1,5.1,68.8,4.9z"/>
	<path class="st0" d="M69.9,4.7c-0.3,0-0.7,0-1.1,0C68.9,4.6,69.5,4.6,69.9,4.7z"/>
	<path class="st0" d="M66.1,4.7c-1.2,0.3-2.3,0.1-3.8,0c0,0,0,0,0-0.1C63.6,4.8,64.7,4.6,66.1,4.7z"/>
	<path class="st0" d="M58.9,4.9c-0.3,0.1-0.5-0.1-0.4-0.1s-0.2,0-0.2,0c0.1,0,0.1,0,0.2,0C58.9,4.8,59.3,4.7,58.9,4.9z"/>
	<path class="st0" d="M61.4,4.9c-0.1,0-0.4,0-0.3,0c0,0,0.4,0,0.6,0c0,0,0,0.1,0,0.1c-0.4,0-0.8,0-1.2,0c0-0.1,0-0.2,0-0.3
		C60.8,4.8,61.2,4.8,61.4,4.9C61.4,4.8,61.4,4.8,61.4,4.9z"/>
	<path class="st0" d="M49.5,5.1c-0.3,0-0.7,0-1,0c0.4,0,0.8-0.1,1.2-0.2C49.5,5,49.4,5,49.5,5.1z"/>
	<path class="st0" d="M52.5,5.1c0,0-0.2,0.1-0.2,0.1c1.9,0,3.5-0.2,5.1,0c0.5-0.1,1-0.1,1.5-0.2c-0.2,0.1-1,0-0.8,0.2
		c-0.9,0-1.7,0-2.6,0c0,0.1-0.6,0.1-1,0.1c-0.3,0,0.2-0.1,0.4-0.1c-0.2,0-0.3,0-0.5,0c0,0-0.2,0.1-0.4,0.1c-0.4,0-0.8,0-1.2,0
		c0.3,0,0.6,0,1,0c-0.7,0-1.3,0-1.9,0c-0.1,0-0.2,0-0.2,0c-0.2,0-0.4,0-0.7-0.1c0-0.1,0.2-0.1,0.6-0.1c0,0,0.1-0.1,0.1-0.1
		c0.3,0,0.2,0.1,0.2,0.1C52,5.2,52.5,5.1,52.5,5.1z"/>
	<path class="st0" d="M60.4,5.2c-0.2,0-0.3,0.1-0.2,0.2c0.2,0.1,0.6,0.1,1.1,0.1c0.1,0,0.1,0,0.1,0c0.1,0,0.2,0,0.4,0.1
		c-0.2,0-0.2,0.1-0.1,0.1c0.1,0,0.2,0,0.3,0.1c-0.9,0.1-1.6-0.1-2.4,0c-0.6,0-1.2-0.1-1.8-0.2c0.6-0.2,2.7-0.1,1.7-0.4
		c-0.2,0-0.5,0-0.7,0C59.3,5.2,59.8,5.2,60.4,5.2z"/>
	<path class="st0" d="M76.2,5.4L76.2,5.4c-0.4,0.1-0.9,0-1.4,0C75.2,5.4,75.8,5.3,76.2,5.4z"/>
	<path class="st0" d="M50.5,5.4c-0.8,0-1.4,0.1-2.3,0C49,5.5,49.7,5.4,50.5,5.4z"/>
	<path class="st0" d="M49.5,5.7c-0.2,0.1-0.6,0.1-1,0.1C48.8,5.7,48.9,5.6,49.5,5.7z"/>
	<path class="st0" d="M56.1,5.8c0.1,0,0.1,0,0.2-0.1c0.2,0,0.3,0,0.5,0C56.6,5.8,56.4,5.8,56.1,5.8z"/>
	<path class="st0" d="M45.6,4.8c-0.2,0-0.5-0.1-0.7-0.1C45.1,4.7,45.4,4.7,45.6,4.8C45.6,4.8,45.6,4.8,45.6,4.8z"/>
	<path class="st0" d="M50.3,5.8c0,0-0.1,0-0.2,0C50.1,5.8,50.2,5.8,50.3,5.8C50.3,5.8,50.2,5.7,50.3,5.8c0.2-0.2,0.7-0.1,1-0.1
		c0,0-0.1,0,0,0c0.3,0,0.7,0.1,1.1,0.1c0.1,0,0.1-0.1,0.2-0.1c0.8,0,1.3-0.1,2,0C54.3,5.8,54,5.9,53.4,6c0,0,0.5,0,0.4,0
		c-0.2,0-0.5,0.1-0.9,0c-0.1,0,0.1,0,0.1,0c-0.1,0-0.3,0-0.4,0c-0.3,0.1-0.9,0.1-1.4,0c0.4,0,0.7,0,1.1,0c-0.8,0-1.6,0-2.3,0
		c-0.1,0-0.1,0-0.1,0c-0.1,0,0.1,0,0,0s-0.2,0-0.2,0l-0.3,0c0,0-0.4,0-0.4,0c0,0-0.1,0-0.2,0c-0.1,0,0.6,0,0.6,0l0.6,0h-0.5
		c0,0,0.4,0,0.6,0c0.2,0,0.5,0,0.6,0S50.5,5.8,50.3,5.8C50.4,5.8,50.3,5.8,50.3,5.8z"/>
	<path class="st0" d="M46.1,6.3c0.5,0,1.1,0,1.6,0C47.2,6.3,46.7,6.3,46.1,6.3z"/>
	<path class="st0" d="M48.9,6.3h0.3h0.4h-0.4C49.3,6.3,48.9,6.3,48.9,6.3c0.2,0,0.5,0,0.7,0C49.4,6.4,48.9,6.4,48.9,6.3
		C48.7,6.3,48.9,6.3,48.9,6.3z"/>
	<path class="st0" d="M41.5,4.8C41.4,4.9,39.8,5,40.3,5c-0.2,0-0.4-0.1-0.7-0.1C40.3,4.8,40.9,4.8,41.5,4.8z"/>
	<path class="st0" d="M43.5,5.4c0,0-0.1,0.1,0.1,0.1c-0.3,0-0.5,0-0.8,0c0,0,0.1-0.1,0.1-0.1C43.1,5.4,43.3,5.4,43.5,5.4z"/>
	<path class="st0" d="M40.4,5.6c-1.1,0-1.9,0.1-3,0C38.4,5.6,39.4,5.6,40.4,5.6z"/>
	<path class="st0" d="M37.4,5.7c-0.1,0-0.2,0.1-0.2,0.1c1.9,0,3.6-0.3,5.3,0c0.4,0,0.9-0.1,1.3-0.2h-0.2c0.4-0.1,0-0.1,0-0.3
		c-0.1,0-0.1,0-0.3,0s-0.6,0-0.8,0c0.2,0,0.3,0,0.5,0c-0.2,0-0.3,0-0.5,0C42.6,5.2,42.8,5,43.2,5s0.6,0,1,0c-0.1,0-0.2-0.1-0.3-0.1
		c0.2,0,0.4,0,0.7,0l-0.1,0h0.2c0,0,0.7,0,0.7,0.1c0,0.1-0.5,0.2-1,0.2c0,0,0.1,0,0.1,0.1s0.1,0,0.2,0c0.5,0,0.9,0,1.3,0
		c-0.4,0-0.8,0-1.2,0c0.1,0,0.1,0,0.2,0c-0.1,0-0.3,0-0.4,0c0.1,0.1,0.3,0.2,0.9,0.1c-0.4,0.1-1,0-1.5,0c-0.4,0.1-0.9,0-0.8,0.2
		c-2.1,0-4.3,0-6.4,0c-0.1,0-0.2,0-0.2,0c-0.2,0-0.5,0-0.7,0C35.9,5.7,36.9,5.7,37.4,5.7z"/>
	<path class="st0" d="M39.7,6.5c0.4,0,0.7,0,1.1,0c-0.7,0-0.8,0.1-1.1,0.3C38.8,6.7,40.1,6.7,39.7,6.5c-0.2,0.2-1.6,0.1-1.8,0
		c0,0-0.5,0-0.5,0s0.5,0,0.5,0c-0.1,0,1.6-0.2,1.7-0.1C39.8,6.4,39.7,6.4,39.7,6.5z"/>
	<path class="st0" d="M38.3,6.8L38.3,6.8c0.2,0,0.4,0,0.6,0C38.7,6.8,38.5,6.8,38.3,6.8z"/>
	<path class="st0" d="M43.6,7.2c-0.6,0-0.4,0.2-0.5,0.2h0.2h-0.2c-0.1,0-1.3-0.1-1.6,0c0.1,0,0.1,0,0.1,0c-0.3,0-0.5,0-0.8,0
		c0.2,0,0.4,0,0.7,0c-0.2,0-0.5-0.1-0.7-0.1c0.5,0,1.1,0,1.6,0c-0.1,0-0.3,0-0.5,0c0.3,0,0.4,0,0.4,0C42.8,7.2,43.1,7.2,43.6,7.2z"
		/>
	<path class="st0" d="M37.6,7c-0.3,0.1-0.7,0.1-1,0.2c-0.7-0.1,0.4-0.2,0-0.4c0.5,0,1,0,1.4,0C37.8,6.8,37.2,6.9,37.6,7z"/>
	<path class="st0" d="M47.8,5.7c-0.3,0-0.7,0-1.1,0C47,5.7,47.4,5.7,47.8,5.7z"/>
	<path class="st0" d="M39.5,5.3c0.1,0,0.1,0,0.2,0c0.1,0,0.3,0,0.4,0C39.9,5.3,39.7,5.3,39.5,5.3z"/>
	<path class="st0" d="M46.6,5.4c-0.3,0-0.7,0-1.1,0C45.7,5.3,46.3,5.3,46.6,5.4z"/>
	<path class="st0" d="M53.1,6.1L53.1,6.1c-0.4,0.1-1,0-1.4,0C52.1,6.2,52.8,6.1,53.1,6.1z"/>
	<path class="st0" d="M30.2,5.4c-0.2,0-0.5-0.1-0.7-0.1C29.8,5.3,30,5.3,30.2,5.4C30.2,5.4,30.2,5.4,30.2,5.4z"/>
	<path class="st0" d="M38.2,6.3C38.2,6.4,38.2,6.4,38.2,6.3c-0.7,0.1-1.2,0-1.7,0.2c-0.6,0-1.1,0-1.7,0c0.1,0-0.2,0.1-0.2,0.1
		c0.2,0-0.4,0-0.5,0c0,0-0.4,0-0.5,0s-0.1,0-0.2,0c-0.1,0,0.7,0,0.6,0c0,0,0.7,0,0.6,0h-0.5c0,0,0.4,0,0.6,0c0.6,0,1.4,0,1.3-0.2
		C36.8,6.3,37.4,6.4,38.2,6.3z"/>
	<path class="st0" d="M35.5,6.3l-0.5,0C34.9,6.4,35.3,6.3,35.5,6.3z"/>
	<path class="st0" d="M30.7,6.9c0.5,0,1.1,0,1.6,0C31.8,6.8,31.3,6.9,30.7,6.9z"/>
	<path class="st0" d="M33.9,7.1h-0.2c0,0-0.1,0-0.2,0c-0.1,0,0.2,0,0.2,0C33.7,7.1,33.9,7.1,33.9,7.1z"/>
	<path class="st0" d="M33.6,6.9c0,0,0.3,0,0.4,0c0,0,0.4,0,0.5,0H34H33.6c0.2,0,0.5,0,0.7,0C34.2,6.9,33.6,6.9,33.6,6.9
		C33.4,6.9,33.6,6.9,33.6,6.9z"/>
	<path class="st0" d="M34.5,7.1c0,0-0.1,0-0.2,0c-0.1,0-0.3,0-0.4,0C34.1,7.1,34.5,7.1,34.5,7.1z"/>
	<path class="st0" d="M26,5.4c-0.1,0.1-1.7,0.2-1.2,0.2c-0.2,0-0.5-0.1-0.7-0.1C24.8,5.5,25.4,5.4,26,5.4z"/>
	<path class="st0" d="M28.9,5.7c-0.1,0-0.3-0.1-0.4-0.2c0.2,0,0.4,0,0.7,0C29,5.6,29,5.7,28.9,5.7z"/>
	<path class="st0" d="M28,6.1c0,0-0.1,0.1,0.1,0.1c-0.3,0-0.5,0-0.8,0c0,0,0.1-0.1,0.1-0.1C27.6,6.1,27.8,6.1,28,6.1z"/>
	<path class="st0" d="M24.9,6.3c-1.1,0-2,0.1-3,0C22.8,6.3,23.9,6.2,24.9,6.3z"/>
	<path class="st0" d="M24.2,7.1c0.4,0,0.7,0,1.1,0c-0.7,0-0.8,0.1-1.1,0.3c-0.9-0.1,0.4-0.1,0.1-0.3c-0.3,0.1-1.8,0-1.9,0
		c0,0-0.5,0-0.5,0c0,0,0.5,0,0.5,0C22.3,7.1,24,7,24.2,7.1C24.3,7.1,24.2,7.1,24.2,7.1z"/>
	<path class="st0" d="M28.2,6.9c-0.8,0.2-1.4,0.1-2.4,0c0,0,0-0.1,0.2-0.1c-0.1,0-0.2,0-0.3,0c0.2,0,0.2,0,0.5-0.1
		c0.1,0,0.1,0,0.4,0s0.6,0,0.9-0.1C28,6.7,28.1,6.9,28.2,6.9z"/>
	<path class="st0" d="M22.7,7.5L22.7,7.5c0.2,0,0.4,0,0.6,0C23.1,7.5,22.9,7.5,22.7,7.5z"/>
	<path class="st0" d="M28.1,7.8c-0.6,0-0.4,0.2-0.5,0.2h0.2h-0.2c-0.1,0-1.4-0.1-1.6,0c0,0,0.1,0,0.1,0c-0.2,0-0.3,0-0.4,0
		c-0.2,0-0.2,0-0.5,0c-0.2,0-0.7,0-0.9,0c0.4,0,0.8,0,1.2,0c-0.1,0-0.2,0-0.3,0C26.2,7.8,27.1,7.8,28.1,7.8z"/>
	<path class="st0" d="M32.5,6.3c-0.4,0-0.8,0-1.2,0C31.7,6.3,32.1,6.3,32.5,6.3z"/>
	<path class="st0" d="M34.1,7.1c0.1,0,0.4,0,0.5,0s0,0,0.1,0C34.5,7.1,34.3,7.1,34.1,7.1z"/>
	<path class="st0" d="M23.9,6c0.1,0,0.1,0,0.2,0s0.3,0,0.4,0C24.3,5.9,24.1,6,23.9,6z"/>
</g>
</svg>
